<svg xmlns="http://www.w3.org/2000/svg" width="80.195" height="80.693" viewBox="0 0 80.195 80.693">
  <g id="b_dicuss_Icon_SVG" transform="translate(-0.5 -0.09)">
    <g id="Group_7323" data-name="Group 7323" transform="translate(0.5 0.637)">
      <path id="Path_10965" data-name="Path 10965" d="M80.543,1.062V80.9H.652V1.062H80.543M80.695.91H.5V81.056H80.695V.91Z" transform="translate(-0.5 -0.91)" fill="#fff" opacity="0"/>
      <g id="Group_7322" data-name="Group 7322" transform="translate(4.004 4.004)" opacity="0">
        <rect id="Rectangle_992" data-name="Rectangle 992" width="72.188" height="72.139" fill="#fff"/>
        <path id="Path_10966" data-name="Path 10966" d="M78.537,7.06V78.9H6.65V7.06H78.537m.15-.15H6.5V79.049H78.688V6.91Z" transform="translate(-6.5 -6.91)" fill="#fff"/>
      </g>
    </g>
    <g id="Group_7341" data-name="Group 7341" transform="translate(2.592 0.09)">
      <g id="Group_7324" data-name="Group 7324" transform="translate(0 4.106)" opacity="0.04">
        <path id="Path_10967" data-name="Path 10967" d="M5.4,50.788c6.372,9.789,16.831,7.375,26.4,5.281,31.516-6.892-.127,29.814,27.121,24.829C68.949,79.063,76.839,68.043,72.3,57.958,68.176,48.772,59.79,44.6,57.233,35.651,55.22,28.59,103.416,43.3,64.294,6.736,54.742,2.125-7.564,30.871,5.4,50.788Z" transform="translate(-3.636 -6.243)"/>
      </g>
      <g id="Group_7326" data-name="Group 7326" transform="translate(17.649 20.5)">
        <g id="Group_7325" data-name="Group 7325">
          <path id="Path_10968" data-name="Path 10968" d="M76.609,45.7V73.578a3.981,3.981,0,0,1-3.984,3.984H39.77a3.981,3.981,0,0,0,3.984,3.984h26.23A3.985,3.985,0,0,1,72.8,82.713L77.2,90.1a1.989,1.989,0,0,0,3.4-1.408V49.684a3.991,3.991,0,0,0-3.99-3.984Z" transform="translate(-37.768 -43.698)" fill="#469ce8"/>
          <path id="Path_10969" data-name="Path 10969" d="M75.611,44.7a3.981,3.981,0,0,1,3.984,3.984V87.693a1.988,1.988,0,0,1-2,2A1.952,1.952,0,0,1,76.2,89.1l-4.4-7.387a3.985,3.985,0,0,0-2.816-1.168H42.755a3.981,3.981,0,0,1-3.984-3.984H71.628a3.981,3.981,0,0,0,3.984-3.984V44.7m0-2h-2V72.58a1.982,1.982,0,0,1-1.982,1.982H36.77v2a5.989,5.989,0,0,0,5.985,5.985h26.23a1.964,1.964,0,0,1,1.248.44l4.25,7.133.127.214.173.173a3.96,3.96,0,0,0,2.809,1.174,4.005,4.005,0,0,0,4-4v-39A5.989,5.989,0,0,0,75.611,42.7Z" transform="translate(-36.77 -42.7)" fill="#fff"/>
        </g>
      </g>
      <g id="Group_7327" data-name="Group 7327" transform="translate(10.165 16.129)">
        <path id="Path_10970" data-name="Path 10970" d="M61.605,33.76H27.929a6.058,6.058,0,0,0-6.059,6.059V77.392a2.077,2.077,0,0,0,3.55,1.468l3.837-6.819a6.061,6.061,0,0,1,4.284-1.775H61.605a6.058,6.058,0,0,0,6.059-6.059V39.825A6.056,6.056,0,0,0,61.605,33.76ZM33.814,54.672A1.988,1.988,0,1,1,35.8,52.683,1.989,1.989,0,0,1,33.814,54.672Zm11.951,0a1.988,1.988,0,1,1,1.988-1.988A1.989,1.989,0,0,1,45.765,54.672Zm11.944,0A1.988,1.988,0,1,1,59.7,52.683,1.989,1.989,0,0,1,57.708,54.672Z" transform="translate(-19.868 -31.758)" fill="#dd6f6f"/>
        <path id="Path_10971" data-name="Path 10971" d="M60.607,32.762a6.058,6.058,0,0,1,6.059,6.059V63.2a6.058,6.058,0,0,1-6.059,6.059H32.542a6.061,6.061,0,0,0-4.284,1.775l-3.837,6.819a2.076,2.076,0,0,1-3.55-1.468V38.827a6.058,6.058,0,0,1,6.059-6.059H60.607m-3.9,20.905a1.988,1.988,0,1,0-1.988-1.988,1.989,1.989,0,0,0,1.988,1.988m-11.944,0a1.988,1.988,0,1,0-1.988-1.988,1.989,1.989,0,0,0,1.988,1.988m-11.951,0a1.988,1.988,0,1,0-1.988-1.988,1.989,1.989,0,0,0,1.988,1.988M60.607,30.76H26.93a8.07,8.07,0,0,0-8.06,8.06V76.394a4.091,4.091,0,0,0,4.1,4.084,4.03,4.03,0,0,0,2.869-1.2l.194-.194.133-.24,3.69-6.552a4.018,4.018,0,0,1,2.689-1.021H60.607a8.07,8.07,0,0,0,8.06-8.06V38.827a8.063,8.063,0,0,0-8.06-8.067Z" transform="translate(-18.87 -30.76)" fill="#fff"/>
      </g>
      <rect id="Rectangle_993" data-name="Rectangle 993" width="36.606" height="10.95" transform="translate(16.105 32.808)" fill="#dd6f6f"/>
      <g id="Group_7328" data-name="Group 7328" transform="translate(19.065 29.863)">
        <path id="Path_10972" data-name="Path 10972" d="M62.081,51.769H37.953a1.184,1.184,0,0,1-1.174-.914,1.158,1.158,0,0,1,1.134-1.395H62.041a1.184,1.184,0,0,1,1.174.914A1.162,1.162,0,0,1,62.081,51.769Z" transform="translate(-36.755 -49.46)" fill="#fff"/>
      </g>
      <g id="Group_7329" data-name="Group 7329" transform="translate(19.065 37.085)">
        <path id="Path_10973" data-name="Path 10973" d="M62.081,63.709H37.953a1.184,1.184,0,0,1-1.174-.914A1.158,1.158,0,0,1,37.913,61.4H62.041a1.184,1.184,0,0,1,1.174.914A1.162,1.162,0,0,1,62.081,63.709Z" transform="translate(-36.755 -61.4)" fill="#fff"/>
      </g>
      <g id="Group_7330" data-name="Group 7330" transform="translate(19.065 44.308)">
        <path id="Path_10974" data-name="Path 10974" d="M62.081,75.649H37.953a1.184,1.184,0,0,1-1.174-.914,1.158,1.158,0,0,1,1.134-1.395H62.041a1.184,1.184,0,0,1,1.174.914A1.162,1.162,0,0,1,62.081,75.649Z" transform="translate(-36.755 -73.34)" fill="#fff"/>
      </g>
      <path id="Path_10975" data-name="Path 10975" d="M63.71,33.76V45.39s.42,5.932,5.932,5.845H81.593V34.087l-15.34-.327Z" transform="translate(-28.411 -13.851)" fill="#7042ba"/>
      <g id="Group_7340" data-name="Group 7340" transform="translate(35.391)">
        <g id="Group_7334" data-name="Group 7334">
          <g id="Group_7333" data-name="Group 7333">
            <g id="Group_7332" data-name="Group 7332">
              <g id="Group_7331" data-name="Group 7331">
                <path id="Path_10976" data-name="Path 10976" d="M73.512,35.4H87.444A16.154,16.154,0,1,0,87.01,3.1,16.284,16.284,0,0,0,71.49,19.445V33.371A2.026,2.026,0,0,0,73.512,35.4Z" transform="translate(-69.488 -1.089)" fill="#fff"/>
                <path id="Path_10977" data-name="Path 10977" d="M86.646,2.092a16.155,16.155,0,1,1-.2,32.309H72.514a2.028,2.028,0,0,1-2.028-2.028V18.446A16.284,16.284,0,0,1,86.006,2.105c.22-.007.427-.013.641-.013m0-2c-.234,0-.467.007-.707.013a17.936,17.936,0,0,0-12.4,5.652A18.388,18.388,0,0,0,68.49,18.446V32.372a4.035,4.035,0,0,0,4.03,4.03H86.446a18.371,18.371,0,0,0,12.685-5.044A18.121,18.121,0,0,0,86.646.09Z" transform="translate(-68.49 -0.09)" fill="#fff"/>
              </g>
            </g>
          </g>
        </g>
        <g id="Group_7339" data-name="Group 7339" transform="translate(8.127 9.902)">
          <g id="_x3C_head_x3E__18_">
            <g id="Group_7335" data-name="Group 7335" transform="translate(9.081 14.746)">
              <path id="Path_10978" data-name="Path 10978" d="M95.8,37.577H94.554a.274.274,0,0,1,0-.547H95.8a.274.274,0,0,1,0,.547Z" transform="translate(-94.28 -37.03)" fill="#469ce8"/>
            </g>
            <g id="Group_7336" data-name="Group 7336">
              <path id="Path_10979" data-name="Path 10979" d="M99.727,22.89H99.06V20.375a2.345,2.345,0,0,0-2.342-2.342h-2.9v-.007a1,1,0,0,0-1-1H91.213v-.667a.726.726,0,0,0,.467-.687.741.741,0,1,0-1.014.687v.667H89.091a1,1,0,0,0-1,1v.007H84.58a2.345,2.345,0,0,0-2.342,2.342V22.89h-.567a1,1,0,0,0-1,1v3.723a1,1,0,0,0,1,1h.567v.7a2.345,2.345,0,0,0,2.342,2.342s8.067.013,8.121.04a7.7,7.7,0,0,1,3.843,1.641c-.133-.214-.26-.44-.38-.667-.08-.16-.16-.327-.234-.494a.356.356,0,0,1,.033-.347.366.366,0,0,1,.314-.167h.44a2.344,2.344,0,0,0,2.349-2.349v-.7h.661a1,1,0,0,0,1-1V23.891A1,1,0,0,0,99.727,22.89Zm-1.468,6.459a1.531,1.531,0,0,1-1.535,1.535H96.1a1.281,1.281,0,0,0-.907.7,6.643,6.643,0,0,0-2.809-.7H84.58a1.531,1.531,0,0,1-1.535-1.535V20.375A1.531,1.531,0,0,1,84.58,18.84H96.731a1.531,1.531,0,0,1,1.535,1.535v8.975Z" transform="translate(-80.67 -14.93)" fill="#469ce8"/>
            </g>
          </g>
          <g id="_x3C_Very_Happy_x3E__17_" transform="translate(4.522 8.15)">
            <g id="Group_7337" data-name="Group 7337" transform="translate(6.1 0.005)">
              <path id="Path_10980" data-name="Path 10980" d="M97.357,27.825a2.457,2.457,0,0,0-.093,3.476,2.583,2.583,0,0,0,.834.581,3.831,3.831,0,0,1,3.3-1.541,2.459,2.459,0,0,0-4.037-2.516Z" transform="translate(-96.589 -27.153)" fill="#469ce8"/>
            </g>
            <g id="Group_7338" data-name="Group 7338">
              <path id="Path_10981" data-name="Path 10981" d="M91.666,27.9a2.457,2.457,0,0,1-.053,3.476,2.4,2.4,0,0,1-.861.54,3.806,3.806,0,0,0-3.223-1.681A2.453,2.453,0,0,1,91.666,27.9Z" transform="translate(-87.446 -27.145)" fill="#469ce8"/>
            </g>
          </g>
        </g>
      </g>
    </g>
  </g>
</svg>
