<svg id="Logo_-_bloverse_icon" data-name="Logo - bloverse icon" xmlns="http://www.w3.org/2000/svg" width="24" height="24" viewBox="0 0 24 24">
  <path id="Paths" d="M197.648,256.7a3.283,3.283,0,0,0-2.472,5.442l-.81.924-.042.048-.006.006a.084.084,0,0,0-.018.054.09.09,0,0,0,.066.084h3.282a3.279,3.279,0,1,0,0-6.558Zm-1.4,3.558a.276.276,0,1,1,.276-.276A.279.279,0,0,1,196.25,260.258Zm1.4,0a.276.276,0,1,1,.276-.276A.271.271,0,0,1,197.648,260.258Zm1.4,0a.276.276,0,1,1,.276-.276A.275.275,0,0,1,199.052,260.258Z" transform="translate(-185.642 -244.298)" fill="#096dd9"/>
  <path id="body" d="M70.532,50H53.468A3.47,3.47,0,0,0,50,53.468V70.532A3.47,3.47,0,0,0,53.468,74H70.532A3.47,3.47,0,0,0,74,70.532V53.468A3.47,3.47,0,0,0,70.532,50ZM67.484,68.966a6.387,6.387,0,0,1-11.868-3.282V52.076a.149.149,0,0,1,.15-.15.16.16,0,0,1,.072.018h0c.006.006.012.006.018.012h0a6.383,6.383,0,0,1,2.88,5.34v2.9a6.386,6.386,0,0,1,8.748,8.772Z" transform="translate(-50 -50)" fill="#096dd9"/>
</svg>
