<svg xmlns="http://www.w3.org/2000/svg" width="86.313" height="15.571" viewBox="0 0 86.313 15.571">
  <g id="Logo_-_bloverse_text" data-name="Logo - bloverse text" transform="translate(0 0)">
    <path id="b" d="M144.347,240.371a5.454,5.454,0,0,1-2.829-.738,5.4,5.4,0,0,1-1.969-1.967,5.914,5.914,0,0,1-.749-2.814v-9.042a1,1,0,0,1,.305-.738.991.991,0,0,1,.721-.273,1.013,1.013,0,0,1,.749.273.98.98,0,0,1,.277.738v5.354a5.291,5.291,0,0,1,1.692-1.311,4.863,4.863,0,0,1,2.191-.492,5.067,5.067,0,0,1,2.635.71,5.241,5.241,0,0,1,1.831,1.967,5.79,5.79,0,0,1,.666,2.814,5.6,5.6,0,0,1-.721,2.814,5.539,5.539,0,0,1-4.8,2.7Zm0-1.8a3.393,3.393,0,0,0,1.831-.492,3.513,3.513,0,0,0,1.276-1.339,4.114,4.114,0,0,0,0-3.825,3.641,3.641,0,0,0-1.276-1.311,3.393,3.393,0,0,0-1.831-.492,3.532,3.532,0,0,0-1.831.492,3.429,3.429,0,0,0-1.276,1.311,3.914,3.914,0,0,0-.471,1.912,3.991,3.991,0,0,0,.471,1.912,3.466,3.466,0,0,0,3.106,1.83Z" transform="translate(-138.8 -224.8)" fill="#096dd9"/>
    <path id="l" d="M191.423,240.362a2.891,2.891,0,0,1-1.581-.464,3.144,3.144,0,0,1-1.054-1.311,4.492,4.492,0,0,1-.388-1.885V225.883a.919.919,0,0,1,.277-.71,1.088,1.088,0,0,1,1.442,0,.919.919,0,0,1,.277.71V236.7a2.213,2.213,0,0,0,.277,1.2.79.79,0,0,0,.721.464h.5a.828.828,0,0,1,.666.273,1.012,1.012,0,0,1,.25.71.855.855,0,0,1-.388.71,1.6,1.6,0,0,1-1,.273h0Z" transform="translate(-174.643 -224.873)" fill="#096dd9"/>
    <path id="o" d="M212.875,252.509a5.851,5.851,0,0,1-2.884-.71,5.128,5.128,0,0,1-1.969-1.94,6.011,6.011,0,0,1,0-5.71,5.127,5.127,0,0,1,1.969-1.94,5.85,5.85,0,0,1,2.884-.71,5.743,5.743,0,0,1,2.857.71,5.127,5.127,0,0,1,1.969,1.94,6.116,6.116,0,0,1,.028,5.71,5.056,5.056,0,0,1-1.941,1.94A5.959,5.959,0,0,1,212.875,252.509Zm0-1.8a3.82,3.82,0,0,0,1.858-.464,3.567,3.567,0,0,0,1.248-1.311,3.9,3.9,0,0,0,.444-1.912,4.01,4.01,0,0,0-.444-1.94,3.194,3.194,0,0,0-1.248-1.311,3.476,3.476,0,0,0-1.858-.464,3.82,3.82,0,0,0-1.858.464,3.641,3.641,0,0,0-1.276,1.311,4.021,4.021,0,0,0-.471,1.94,3.838,3.838,0,0,0,.471,1.912,3.43,3.43,0,0,0,1.276,1.311A3.542,3.542,0,0,0,212.875,250.706Z" transform="translate(-188.301 -236.938)" fill="#096dd9"/>
    <path id="v" d="M255.815,252.709a1.057,1.057,0,0,1-.971-.656l-4.271-8.851a.776.776,0,0,1-.028-.656.968.968,0,0,1,.527-.519.9.9,0,0,1,1.22.41l3.994,8.469h-.971l3.938-8.469a.936.936,0,0,1,.555-.464,1.021,1.021,0,0,1,.749.055.755.755,0,0,1,.471.492.972.972,0,0,1-.028.683l-4.271,8.851A.961.961,0,0,1,255.815,252.709Z" transform="translate(-219.51 -237.247)" fill="#096dd9"/>
    <path id="e" d="M298.314,252.509a6.178,6.178,0,0,1-2.968-.71,5.089,5.089,0,0,1-2.025-1.94,5.359,5.359,0,0,1-.721-2.841,5.646,5.646,0,0,1,.693-2.868,5.18,5.18,0,0,1,1.914-1.94,5.637,5.637,0,0,1,2.829-.71,4.977,4.977,0,0,1,2.69.683,4.544,4.544,0,0,1,1.72,1.885,6.224,6.224,0,0,1,.582,2.759.858.858,0,0,1-.25.628.907.907,0,0,1-.666.246h-8.126v-1.584h8.043l-.832.546a3.735,3.735,0,0,0-.416-1.776,2.933,2.933,0,0,0-1.082-1.229,3.161,3.161,0,0,0-1.72-.464,3.754,3.754,0,0,0-1.969.492,3.325,3.325,0,0,0-1.248,1.366,4.464,4.464,0,0,0-.416,1.967,3.747,3.747,0,0,0,.5,1.94,3.6,3.6,0,0,0,1.387,1.339,4.107,4.107,0,0,0,2.025.492,4.318,4.318,0,0,0,1.276-.219,4.675,4.675,0,0,0,1.054-.519,1.14,1.14,0,0,1,.666-.219.842.842,0,0,1,.61.219.884.884,0,0,1,.361.656.728.728,0,0,1-.333.628,5.443,5.443,0,0,1-1.692.874A6.329,6.329,0,0,1,298.314,252.509Z" transform="translate(-249.943 -236.938)" fill="#096dd9"/>
    <path id="r" d="M340.7,252.355a1.027,1.027,0,0,1-.749-.246.993.993,0,0,1-.25-.738V242.52a.992.992,0,0,1,.25-.738,1.263,1.263,0,0,1,1.5,0,.992.992,0,0,1,.25.738v8.851a.992.992,0,0,1-.25.738A1.027,1.027,0,0,1,340.7,252.355Zm-.028-6.775a3.971,3.971,0,0,1,.582-2.131,4.446,4.446,0,0,1,1.609-1.5,4.378,4.378,0,0,1,2.219-.546,3.455,3.455,0,0,1,1.8.382.8.8,0,0,1,.444.929.73.73,0,0,1-.61.628.94.94,0,0,1-.471-.027,5.467,5.467,0,0,0-2.3-.027,2.906,2.906,0,0,0-1.609.82,2.088,2.088,0,0,0-.582,1.5h-1.082Z" transform="translate(-283.979 -236.865)" fill="#096dd9"/>
    <path id="s" d="M377.1,252.509a7.351,7.351,0,0,1-2.607-.437,4.812,4.812,0,0,1-1.858-1.093.9.9,0,0,1,.139-1.366,1.072,1.072,0,0,1,.8-.273.951.951,0,0,1,.666.355,3.063,3.063,0,0,0,1.109.71,4.147,4.147,0,0,0,1.692.328,3.482,3.482,0,0,0,1.775-.382,1.179,1.179,0,0,0,.638-.983,1.208,1.208,0,0,0-.582-1.038,5.4,5.4,0,0,0-2.163-.71,6.254,6.254,0,0,1-2.94-1.2,2.457,2.457,0,0,1-.915-1.94,2.3,2.3,0,0,1,.61-1.666,3.768,3.768,0,0,1,1.553-.983,5.954,5.954,0,0,1,1.969-.328,6.356,6.356,0,0,1,2.357.41,4,4,0,0,1,1.636,1.147.825.825,0,0,1,.25.656.74.74,0,0,1-.333.574,1.058,1.058,0,0,1-.777.137,1.37,1.37,0,0,1-.749-.355,2.51,2.51,0,0,0-1.082-.656,4.926,4.926,0,0,0-1.359-.191,3.56,3.56,0,0,0-1.5.3.923.923,0,0,0-.61.874,1.077,1.077,0,0,0,.194.656,1.853,1.853,0,0,0,.749.519,8.2,8.2,0,0,0,1.664.437,8.093,8.093,0,0,1,2.385.765,3.036,3.036,0,0,1,1.248,1.065,2.634,2.634,0,0,1,.388,1.393,2.86,2.86,0,0,1-.5,1.639,3.44,3.44,0,0,1-1.442,1.175A5.832,5.832,0,0,1,377.1,252.509Z" transform="translate(-307.596 -236.938)" fill="#096dd9"/>
    <path id="e-2" data-name="e" d="M418.113,252.509a6.178,6.178,0,0,1-2.968-.71,5.089,5.089,0,0,1-2.025-1.94,5.359,5.359,0,0,1-.721-2.841,5.646,5.646,0,0,1,.693-2.868,5.18,5.18,0,0,1,1.914-1.94,5.637,5.637,0,0,1,2.829-.71,4.977,4.977,0,0,1,2.69.683,4.545,4.545,0,0,1,1.72,1.885,6.224,6.224,0,0,1,.582,2.759.859.859,0,0,1-.25.628.907.907,0,0,1-.666.246h-8.126v-1.584h8.043l-.832.546a3.735,3.735,0,0,0-.416-1.776,2.932,2.932,0,0,0-1.082-1.229,3.161,3.161,0,0,0-1.72-.464,3.754,3.754,0,0,0-1.969.492,3.325,3.325,0,0,0-1.248,1.366,4.464,4.464,0,0,0-.416,1.967,3.747,3.747,0,0,0,.5,1.94,3.6,3.6,0,0,0,1.387,1.339,4.108,4.108,0,0,0,2.025.492,4.318,4.318,0,0,0,1.276-.219,4.675,4.675,0,0,0,1.054-.519,1.14,1.14,0,0,1,.666-.219.842.842,0,0,1,.61.219.884.884,0,0,1,.361.656.727.727,0,0,1-.333.628,5.443,5.443,0,0,1-1.692.874A6.473,6.473,0,0,1,418.113,252.509Z" transform="translate(-336.516 -236.938)" fill="#096dd9"/>
  </g>
</svg>
