<svg xmlns="http://www.w3.org/2000/svg" xmlns:xlink="http://www.w3.org/1999/xlink" width="446.285" height="289.42" viewBox="0 0 446.285 289.42">
  <defs>
    <linearGradient id="linear-gradient" x1="-0.616" y1="1.752" x2="1.046" y2="0.045" gradientUnits="objectBoundingBox">
      <stop offset="0.188" stop-color="#095fff"/>
      <stop offset="0.808" stop-color="#097fd9"/>
    </linearGradient>
    <linearGradient id="linear-gradient-2" x1="0.646" y1="-0.396" x2="0.324" y2="0.844" gradientUnits="objectBoundingBox">
      <stop offset="0" stop-color="#096dd9"/>
      <stop offset="0.188" stop-color="#096dd9"/>
      <stop offset="0.808" stop-color="#097fd9"/>
      <stop offset="1" stop-color="#097fd9"/>
    </linearGradient>
    <linearGradient id="linear-gradient-3" x1="0.101" y1="1.065" x2="0.572" y2="0.402" xlink:href="#linear-gradient-2"/>
  </defs>
  <g id="bloverse_isometricLogo_Fill_SVG" transform="translate(-126.61 -258.692)">
    <path id="Path_9608" data-name="Path 9608" d="M516.232,445.06l22.4,12.909a30.46,30.46,0,0,1,8.295,45.689,30.444,30.444,0,0,1-8.283,6.955L416.268,581.2c-27.605,15.928-60.313.185-60.992-.143a.018.018,0,0,0-.012-.006l-122.1-70.46a30.383,30.383,0,0,1-.006-52.626l7.163-4.138" transform="translate(-36.15 -75.395)" fill="none" stroke="#096dd9" stroke-miterlimit="10" stroke-width="4" opacity="0.7"/>
    <path id="Path_9609" data-name="Path 9609" d="M500.1,416.77l44.605,25.706a35.262,35.262,0,0,1,9.6,52.882,35.26,35.26,0,0,1-9.587,8.051L403.091,585.1c-31.946,18.435-69.8.214-70.591-.167a.018.018,0,0,0-.012-.006L191.17,503.379a35.167,35.167,0,0,1-.006-60.915l41.753-24.116" transform="translate(-18.192 -63.95)" fill="none" stroke="#096dd9" stroke-miterlimit="10" stroke-width="4" opacity="0.3"/>
    <path id="Path_9610" data-name="Path 9610" d="M495.207,398.725l55.663,32.083a40.11,40.11,0,0,1,10.921,60.165,40.089,40.089,0,0,1-10.909,9.158L389.74,593.075c-36.346,20.972-79.422.244-80.315-.191a.019.019,0,0,0-.012-.006l-160.79-92.784a40.007,40.007,0,0,1-.012-69.3l56.717-32.756" transform="translate(0 -56.373)" fill="none" stroke="#096dd9" stroke-miterlimit="10" stroke-width="4" opacity="0.1"/>
    <path id="Path_9611" data-name="Path 9611" d="M453.668,412.935a54.347,54.347,0,0,0-54.341.03,22.234,22.234,0,0,0-11.135,17.28l-22.062,1.971,33.208,19.7,3.227,1.864a47.989,47.989,0,0,0,47.964.006l3.144-1.816a22.528,22.528,0,0,0-.006-39.032Zm-43.653,13.094c-2.68,0-4.853-1.286-4.853-2.876s2.173-2.87,4.853-2.87,4.853,1.286,4.853,2.87S412.694,426.029,410.015,426.029Zm16.2,9.164c-2.68,0-4.853-1.286-4.853-2.87s2.173-2.87,4.853-2.87,4.853,1.28,4.853,2.87S428.9,435.193,426.217,435.193Zm16.488,9.253c-2.685,0-4.859-1.286-4.859-2.87s2.173-2.87,4.859-2.87,4.853,1.286,4.853,2.87S445.385,444.446,442.705,444.446Z" transform="translate(-96.088 -59.459)" fill="url(#linear-gradient)"/>
    <path id="Path_9612" data-name="Path 9612" d="M552.167,429.908v37.984a29.146,29.146,0,0,1-14.726,25.033L418.869,561.312c-26.742,15.428-58.432.179-59.093-.143a.018.018,0,0,0-.012-.006L241.466,492.9a29.177,29.177,0,0,1-14.726-25.5V429.89a29.191,29.191,0,0,0,14.726,25.5l118.3,68.263a.018.018,0,0,1,.012.006c.661.322,32.351,15.571,59.093.143l118.567-68.388a29.176,29.176,0,0,0,14.732-25.5Z" transform="translate(-39.698 -69.258)" fill="url(#linear-gradient-2)"/>
    <path id="Path_9613" data-name="Path 9613" d="M537.434,335.147l-118.2-68.12c-24.187-13.946-45.582-7.282-55.919-2.263-.012,0-.018.006-.03.012l-6.508,3.757a.238.238,0,0,0-.042.03L241.47,335.135a29.376,29.376,0,0,0,.006,50.995l118.3,68.263a.018.018,0,0,1,.012.006c.661.322,32.351,15.571,59.093.143l118.567-68.388a29.441,29.441,0,0,0-.012-51.007ZM421.969,411.264a103.373,103.373,0,0,1-103.335-.012l-5.472-3.162c-26.194-15.113-26.206-52.918-.018-68.042l32.512-18.781-.1-.06,49.6-28.79,20.442-11.867a17.631,17.631,0,0,1,.06,30.541l-19.114,11.183-7.705,4.508c.816-.125,11.278-1.483,26.682,6.437a.545.545,0,0,0,.083.042c2.036,1.054,4.162,2.269,6.359,3.668C450.593,353.427,450.6,394.746,421.969,411.264Z" transform="translate(-39.702)" fill="url(#linear-gradient-3)"/>
  </g>
</svg>
