<svg xmlns="http://www.w3.org/2000/svg" width="80.22" height="81.217" viewBox="0 0 80.22 81.217">
  <g id="b_share_Icon_SVG" transform="translate(-0.5 -0.5)">
    <g id="Group_7343" data-name="Group 7343" transform="translate(0.5 0.5)">
      <path id="Path_10982" data-name="Path 10982" d="M80.568.654V81.563H.652V.654H80.568M80.72.5H.5V81.717H80.72V.5Z" transform="translate(-0.5 -0.5)" fill="#fff" opacity="0"/>
      <g id="Group_7342" data-name="Group 7342" transform="translate(3.692 3.692)" opacity="0">
        <rect id="Rectangle_994" data-name="Rectangle 994" width="73.003" height="74" transform="translate(0.308 0.308)" fill="#fff"/>
        <path id="Path_10983" data-name="Path 10983" d="M79.185,6.654V80.18H6.652V6.654H79.185m.152-.154H6.5V80.334H79.337V6.5Z" transform="translate(-6.5 -6.5)" fill="#fff"/>
      </g>
    </g>
    <g id="Group_7357" data-name="Group 7357" transform="translate(4.193 5.373)">
      <path id="Path_10984" data-name="Path 10984" d="M7.277,43.039c1.153-8.079,3.567-22.193,15.553-21.116,4.665.418,7.206,5.439,11.738,5.113,4.277-.308,6.952-4.861,10.737-6.46C50,18.582,55.442,18.6,58.269,22.587c3.385,4.775-1.868,12.176.776,16.637,4.362,7.359,11.125-8,15.675,4.436,6.363,17.4-8.147,54.219-28.426,31.225-10.282-11.66-15.936-.572-28.856-4.608C5.16,66.439,5.809,53.308,7.277,43.039Z" transform="translate(-6.502 -12.595)" opacity="0.04"/>
      <g id="Group_7344" data-name="Group 7344" transform="translate(14.298 17.24)">
        <path id="Path_10985" data-name="Path 10985" d="M84.139,58.968,65.945,40.079a2.1,2.1,0,0,0-3.612,1.458v9.094h-.7A27.318,27.318,0,0,0,34.35,77.919v4.2a2.068,2.068,0,0,0,1.637,2.006,1.971,1.971,0,0,0,.461.055,2.184,2.184,0,0,0,1.92-1.194A22.961,22.961,0,0,1,59.017,70.222h3.323v9.094a2.1,2.1,0,0,0,3.612,1.452L84.139,61.879A2.1,2.1,0,0,0,84.139,58.968Z" transform="translate(-32.51 -37.593)" fill="#469ce8"/>
        <path id="Path_10986" data-name="Path 10986" d="M63.287,38.286a2.1,2.1,0,0,1,1.514.64L82.988,57.815a2.1,2.1,0,0,1,0,2.91L64.8,79.614a2.111,2.111,0,0,1-1.514.646,2.033,2.033,0,0,1-.781-.154,2.1,2.1,0,0,1-1.317-1.944V69.068H57.866A22.968,22.968,0,0,0,37.217,81.829a2.172,2.172,0,0,1-1.92,1.194,1.971,1.971,0,0,1-.461-.055A2.075,2.075,0,0,1,33.2,80.962v-4.2A27.318,27.318,0,0,1,60.487,49.478h.7V40.384a2.114,2.114,0,0,1,1.317-1.95,2.147,2.147,0,0,1,.781-.148m0-1.846a4.007,4.007,0,0,0-1.471.283,3.936,3.936,0,0,0-2.473,3.661v7.273A29.164,29.164,0,0,0,31.36,76.765v4.2a3.914,3.914,0,0,0,3.046,3.8,3.629,3.629,0,0,0,.9.111,4.026,4.026,0,0,0,3.569-2.215,21.135,21.135,0,0,1,19-11.746h1.477v7.248a3.93,3.93,0,0,0,2.473,3.661,3.839,3.839,0,0,0,1.471.283A3.986,3.986,0,0,0,66.136,80.9L84.317,62.011a3.931,3.931,0,0,0,0-5.47L66.13,37.646a4,4,0,0,0-2.843-1.206Z" transform="translate(-31.36 -36.44)" fill="#fff"/>
      </g>
      <path id="Path_10987" data-name="Path 10987" d="M76.516,33.593c1-3.347,3.569-4.941,6.214-6.368l-6.51-6.756a2.1,2.1,0,0,0-3.612,1.458v9.094h-.7A27.318,27.318,0,0,0,44.62,58.309v4.2a2.068,2.068,0,0,0,1.637,2.006,1.971,1.971,0,0,0,.461.055,2.184,2.184,0,0,0,1.92-1.194A22.961,22.961,0,0,1,69.287,50.612h3.323v9.094a2.1,2.1,0,0,0,3.612,1.452l10.65-11.063C82.626,44.779,74.313,41.29,76.516,33.593Z" transform="translate(-22.164 -12.809)" fill="#0057ad"/>
      <path id="Path_10988" data-name="Path 10988" d="M114.125,43.987,102.447,31.86c-2.646,1.427-5.211,3.021-6.214,6.368-2.2,7.7,6.11,11.186,10.361,16.5l7.537-7.826A2.1,2.1,0,0,0,114.125,43.987Z" transform="translate(-41.88 -17.438)" fill="#663" opacity="0.1"/>
      <g id="Group_7345" data-name="Group 7345" transform="translate(19.466)">
        <path id="Path_10989" data-name="Path 10989" d="M92.549,30.948,74.361,12.059a2.1,2.1,0,0,0-3.612,1.458v9.094h-.7A27.318,27.318,0,0,0,42.76,49.9v4.2A2.068,2.068,0,0,0,44.4,56.1a1.971,1.971,0,0,0,.461.055,2.184,2.184,0,0,0,1.92-1.194A22.961,22.961,0,0,1,67.427,42.2h3.323V51.3a2.1,2.1,0,0,0,3.612,1.452L92.549,33.859A2.1,2.1,0,0,0,92.549,30.948Z" transform="translate(-40.914 -9.573)" fill="#dd6e6e"/>
        <path id="Path_10990" data-name="Path 10990" d="M71.687,10.266a2.1,2.1,0,0,1,1.514.64L91.388,29.795a2.1,2.1,0,0,1,0,2.91L73.2,51.6a2.111,2.111,0,0,1-1.514.646,2.033,2.033,0,0,1-.781-.154,2.1,2.1,0,0,1-1.317-1.944v-9.1H66.266A22.968,22.968,0,0,0,45.617,53.809,2.172,2.172,0,0,1,43.7,55a1.971,1.971,0,0,1-.461-.055A2.075,2.075,0,0,1,41.6,52.942v-4.2A27.318,27.318,0,0,1,68.887,21.458h.7V12.364a2.114,2.114,0,0,1,1.317-1.95,2.172,2.172,0,0,1,.781-.148m0-1.846a4.006,4.006,0,0,0-1.471.283,3.936,3.936,0,0,0-2.473,3.661v7.273A29.169,29.169,0,0,0,39.76,48.745v4.2a3.914,3.914,0,0,0,3.046,3.8,3.629,3.629,0,0,0,.9.111,4.026,4.026,0,0,0,3.569-2.215,21.135,21.135,0,0,1,19-11.746h1.477v7.248A3.93,3.93,0,0,0,70.223,53.8a3.839,3.839,0,0,0,1.471.283,3.986,3.986,0,0,0,2.843-1.206L92.73,33.991a3.931,3.931,0,0,0,0-5.47l-18.2-18.9A3.951,3.951,0,0,0,71.687,8.42Z" transform="translate(-39.76 -8.42)" fill="#fff"/>
      </g>
      <path id="Path_10991" data-name="Path 10991" d="M44.258,89.035a22.5,22.5,0,0,1-7.8,2.843l-1.8.3a34.422,34.422,0,0,1,1.028-4.879l7.131-2.553Z" transform="translate(-17.601 -37.782)" fill="#0057ad"/>
      <g id="Group_7346" data-name="Group 7346" transform="translate(22.503 49.407)">
        <path id="Path_10992" data-name="Path 10992" d="M48.882,88.72a13.5,13.5,0,0,1-5.242,3.716v3.015l9.02-5.833Z" transform="translate(-43.64 -88.72)" fill="#469ce8"/>
      </g>
      <path id="Path_10993" data-name="Path 10993" d="M27.294,93.057H18.01s-2.48.025-2.48-2.2V87.04l13.721.345C29.245,87.385,27.743,88.923,27.294,93.057Z" transform="translate(-9.975 -38.667)" fill="#663" opacity="0.1"/>
      <g id="Group_7356" data-name="Group 7356" transform="translate(4.478 25.19)">
        <g id="Group_7350" data-name="Group 7350">
          <g id="Group_7349" data-name="Group 7349">
            <g id="Group_7348" data-name="Group 7348">
              <g id="Group_7347" data-name="Group 7347">
                <path id="Path_10994" data-name="Path 10994" d="M18.185,74.875h9.7A11.255,11.255,0,1,0,16.77,63.757v9.7A1.419,1.419,0,0,0,18.185,74.875Z" transform="translate(-14.93 -50.517)" fill="#fff"/>
                <path id="Path_10995" data-name="Path 10995" d="M26.879,51.206a11.257,11.257,0,1,1-.135,22.513H17.035a1.409,1.409,0,0,1-1.409-1.409V62.6A11.34,11.34,0,0,1,26.442,51.218c.142-.006.289-.012.437-.012m0-1.846c-.172,0-.338.006-.511.012A13.127,13.127,0,0,0,13.78,62.6v9.7a3.256,3.256,0,0,0,3.255,3.255h9.7a13.1,13.1,0,0,0,9.574-22.181,12.975,12.975,0,0,0-9.432-4.018Z" transform="translate(-13.78 -49.36)" fill="#fff"/>
              </g>
            </g>
          </g>
        </g>
        <g id="Group_7355" data-name="Group 7355" transform="translate(6.097 7.34)">
          <g id="_x3C_head_x3E__20_">
            <g id="Group_7351" data-name="Group 7351" transform="translate(6.337 10.281)">
              <path id="Path_10996" data-name="Path 10996" d="M35.054,78.381h-.874a.191.191,0,1,1,0-.381h.874a.191.191,0,0,1,0,.381Z" transform="translate(-33.99 -78)" fill="#469ce8"/>
            </g>
            <g id="Group_7352" data-name="Group 7352">
              <path id="Path_10997" data-name="Path 10997" d="M36.98,66.846h-.468V65.092a1.633,1.633,0,0,0-1.63-1.631H32.864v-.006a.7.7,0,0,0-.7-.7h-1.12v-.468a.5.5,0,0,0,.326-.48.517.517,0,1,0-1.034,0,.527.527,0,0,0,.326.48v.468h-1.1a.7.7,0,0,0-.7.7v.006H26.416a1.633,1.633,0,0,0-1.63,1.631v1.754h-.394a.7.7,0,0,0-.7.7v2.6a.7.7,0,0,0,.7.7h.394v.486a1.633,1.633,0,0,0,1.63,1.63s5.618.012,5.661.031a5.413,5.413,0,0,1,2.676,1.144c-.092-.148-.185-.308-.265-.468-.055-.111-.111-.228-.16-.345a.251.251,0,0,1,.025-.246.258.258,0,0,1,.215-.117h.308a1.642,1.642,0,0,0,1.637-1.637v-.492h.461a.7.7,0,0,0,.7-.7v-2.6A.689.689,0,0,0,36.98,66.846Zm-1.021,4.5a1.071,1.071,0,0,1-1.071,1.071h-.431a.9.9,0,0,0-.634.486,4.6,4.6,0,0,0-1.957-.486H26.434a1.071,1.071,0,0,1-1.071-1.071V65.092a1.071,1.071,0,0,1,1.071-1.071H34.9a1.071,1.071,0,0,1,1.071,1.071l-.012,6.251Z" transform="translate(-23.69 -61.29)" fill="#469ce8"/>
            </g>
          </g>
          <g id="_x3C_Very_Happy_x3E__19_" transform="translate(3.166 5.689)">
            <g id="Group_7353" data-name="Group 7353" transform="translate(4.248 0.003)">
              <path id="Path_10998" data-name="Path 10998" d="M36.275,71.008a1.718,1.718,0,0,0-.068,2.424,1.789,1.789,0,0,0,.585.406,2.665,2.665,0,0,1,2.295-1.077,1.713,1.713,0,0,0-2.812-1.754Z" transform="translate(-35.74 -70.54)" fill="#469ce8"/>
            </g>
            <g id="Group_7354" data-name="Group 7354">
              <path id="Path_10999" data-name="Path 10999" d="M31.773,71.055a1.712,1.712,0,0,1-.037,2.424,1.627,1.627,0,0,1-.6.375,2.645,2.645,0,0,0-2.246-1.169,1.71,1.71,0,0,1,2.88-1.631Z" transform="translate(-28.836 -70.536)" fill="#469ce8"/>
            </g>
          </g>
        </g>
      </g>
    </g>
  </g>
</svg>
