<svg xmlns="http://www.w3.org/2000/svg" width="80.301" height="80.301" viewBox="0 0 80.301 80.301">
  <g id="b_signUp_Icon_SVG" transform="translate(-0.5 -0.5)">
    <g id="Group_7359" data-name="Group 7359" transform="translate(0.5 0.5)">
      <path id="Path_11000" data-name="Path 11000" d="M80.648.652v80h-80v-80h80M80.8.5H.5V80.8H80.8V.5Z" transform="translate(-0.5 -0.5)" fill="#fff" opacity="0"/>
      <g id="Group_7358" data-name="Group 7358" transform="translate(3.65 3.65)" opacity="0">
        <rect id="Rectangle_995" data-name="Rectangle 995" width="73" height="73" transform="translate(0.35 0.35)" fill="#fff"/>
        <path id="Path_11001" data-name="Path 11001" d="M79.348,6.652v72.7H6.652V6.652h72.7M79.5,6.5H6.5v73h73V6.5Z" transform="translate(-6.5 -6.5)" fill="#fff"/>
      </g>
    </g>
    <g id="Group_7366" data-name="Group 7366" transform="translate(10.3 2.14)">
      <g id="Group_7362" data-name="Group 7362">
        <g id="Group_7360" data-name="Group 7360">
          <path id="Path_11002" data-name="Path 11002" d="M19.347,20.366C21.671,13.1,26.075.467,36.18,3.722c3.936,1.265,5.28,6.4,9.216,6.953,3.717.523,6.771-3.194,10.275-3.966,4.356-.961,9.016.079,10.78,4.313,2.111,5.061-3.62,10.938-2.093,15.567,2.519,7.641,10.865-5.317,12.708,7.069C79.639,50.989,61.1,82.386,47.519,57.249,40.633,44.5,33.953,53.709,23.539,47.528c-9.885-5.864-7.154-17.916-4.191-27.162Z" transform="translate(-16.609 -3.196)" opacity="0.04"/>
          <path id="Path_11003" data-name="Path 11003" d="M54.635,97.748h-2A1.251,1.251,0,0,1,51.38,96.5V92.62h4.5V96.5A1.241,1.241,0,0,1,54.635,97.748Z" transform="translate(-30.227 -38.22)" fill="#b2b2b2"/>
          <path id="Path_11004" data-name="Path 11004" d="M77.455,97.748h-2A1.251,1.251,0,0,1,74.2,96.5V92.62h4.5V96.5A1.241,1.241,0,0,1,77.455,97.748Z" transform="translate(-39.165 -38.22)" fill="#b2b2b2"/>
          <path id="Path_11005" data-name="Path 11005" d="M51.39,92.63h4.5v3.5h-4.5Z" transform="translate(-30.231 -38.224)" fill="#898989"/>
          <path id="Path_11006" data-name="Path 11006" d="M74.21,92.63h4.5v3.5h-4.5Z" transform="translate(-39.169 -38.224)" fill="#898989"/>
          <path id="Path_11007" data-name="Path 11007" d="M69.663,91.769H47.2A1.253,1.253,0,0,1,46.1,89.931l1.484-2.811,1.308-2.111h19.1l1.308,2.111,1.484,2.811A1.26,1.26,0,0,1,69.663,91.769Z" transform="translate(-28.101 -35.239)" fill="#b2b2b2"/>
          <path id="Path_11008" data-name="Path 11008" d="M70.364,87.135H48.47L49.79,85H69.05Z" transform="translate(-29.088 -35.235)" fill="#898989"/>
          <path id="Path_11009" data-name="Path 11009" d="M98.532,71.453H85.72V57.4A14.132,14.132,0,0,1,99.773,70.084,1.245,1.245,0,0,1,98.532,71.453Z" transform="translate(-43.677 -24.426)" fill="#469ce8"/>
          <path id="Path_11010" data-name="Path 11010" d="M24.166,70.084A14.13,14.13,0,0,1,38.219,57.4V71.453H25.413a1.253,1.253,0,0,1-1.247-1.369Z" transform="translate(-19.566 -24.426)" fill="#469ce8"/>
          <path id="Path_11011" data-name="Path 11011" d="M54.15,12.588c-4.526,5.451-13.566,19.1-14.211,41.756a2.5,2.5,0,0,0,2.5,2.573H69.717a2.5,2.5,0,0,0,2.5-2.573c-.645-22.661-9.685-36.306-14.211-41.756a2.51,2.51,0,0,0-3.857,0Z" transform="translate(-25.746 -6.521)" fill="#096dd9"/>
          <path id="Path_11012" data-name="Path 11012" d="M54.15,12.588c-4.526,5.451-13.566,19.1-14.211,41.756a2.5,2.5,0,0,0,2.5,2.573H69.717a2.5,2.5,0,0,0,2.5-2.573c-.645-22.661-9.685-36.306-14.211-41.756a2.51,2.51,0,0,0-3.857,0Z" transform="translate(-25.746 -6.521)" fill="none"/>
          <path id="Path_11013" data-name="Path 11013" d="M97.451,61.161H91.733a1.25,1.25,0,0,1-.8-.292V57.31C94.683,57.31,94.927,58.77,97.451,61.161Z" transform="translate(-45.718 -24.39)" fill="#469ce8"/>
          <path id="Path_11014" data-name="Path 11014" d="M68.05,15.9a6.789,6.789,0,0,1-8.87,0c.919-1.32,1.77-2.421,2.506-3.309a2.51,2.51,0,0,1,3.857,0C66.279,13.477,67.131,14.578,68.05,15.9Z" transform="translate(-33.282 -6.521)" fill="#b2b2b2"/>
          <path id="Path_11015" data-name="Path 11015" d="M67.77,77.289H60.64V65.882a.613.613,0,0,1,.627-.6h5.877a.613.613,0,0,1,.627.6Z" transform="translate(-33.854 -27.512)" fill="#fff"/>
          <circle id="Ellipse_827" data-name="Ellipse 827" cx="5.645" cy="5.645" r="5.645" transform="translate(24.687 16.604)" fill="#fff"/>
          <path id="Path_11016" data-name="Path 11016" d="M68.99,36.574a5.646,5.646,0,0,1-10.5,2.884,5.651,5.651,0,0,0,7.562-7.848,5.661,5.661,0,0,1,2.938,4.964Z" transform="translate(-33.012 -14.325)" fill="#469ce8" opacity="0.07"/>
          <path id="Path_11017" data-name="Path 11017" d="M70.521,41.772h1.192A1.874,1.874,0,0,0,73.587,39.9V30.141a1.874,1.874,0,0,0-1.874-1.874H62.1a1.786,1.786,0,0,0-.627.11,58.792,58.792,0,0,0-9.49-16.565,3.143,3.143,0,0,0-4.83,0c-.316.383-.633.779-.949,1.18a56.85,56.85,0,0,0-5.518,8.644A66.044,66.044,0,0,0,35.6,34.557q-.584,2.09-1.046,4.24A14.758,14.758,0,0,0,23.144,51.676a1.857,1.857,0,0,0,.475,1.436,3.775,3.775,0,0,0,1.393.669h7.756c0,.067-.006.134-.006.207a3.067,3.067,0,0,0,.821,2.19,3.19,3.19,0,0,0,2.336.986h2.488l-1.782,3.388a1.856,1.856,0,0,0,.134,1.959,1.923,1.923,0,0,0,1.576.785H39.7v1.113a1.874,1.874,0,0,0,1.874,1.874h2a1.874,1.874,0,0,0,1.874-1.874V63.283h8.127v1.125a1.874,1.874,0,0,0,1.874,1.874h2a1.874,1.874,0,0,0,1.874-1.874V63.283h1.411a1.923,1.923,0,0,0,1.576-.785,1.868,1.868,0,0,0,.134-1.959l-1.782-3.388h2.409a3.194,3.194,0,0,0,2.342-.986,3.052,3.052,0,0,0,.821-2.184c0-.067-.006-.134-.006-.207h7.762a1.879,1.879,0,0,0,1.874-2.062A14.7,14.7,0,0,0,70.521,41.772ZM46.072,15.224c.663-.925,1.344-1.807,2.026-2.628a1.879,1.879,0,0,1,2.9,0c.651.785,1.375,1.709,2.135,2.78a6.164,6.164,0,0,1-7.057.079Zm-13.225,37.3H25.06a.622.622,0,0,1-.468-.207.607.607,0,0,1-.158-.468,13.5,13.5,0,0,1,9.879-11.644A82.464,82.464,0,0,0,32.847,52.528ZM44.2,64.408a.626.626,0,0,1-.627.627h-2a.626.626,0,0,1-.627-.627V63.283H44.2Zm13.882,0a.626.626,0,0,1-.627.627h-2a.626.626,0,0,1-.627-.627V63.283H58.08Zm6.375-9.076a1.868,1.868,0,0,1-1.344.566H39.471a.646.646,0,0,0-.639.5.627.627,0,0,0,.614.754H59.139l2.087,3.966a.628.628,0,0,1-.554.919H38.322a.628.628,0,0,1-.554-.919l2.087-3.966h1.9a.646.646,0,0,0,.639-.5.627.627,0,0,0-.614-.754H35.785a1.949,1.949,0,0,1-1.168-.371,1.853,1.853,0,0,1-.754-1.557,78.53,78.53,0,0,1,2.823-19.053A66.107,66.107,0,0,1,41.57,22.445a18.149,18.149,0,0,1,.931-1.594l2.865-4.4a6.71,6.71,0,0,0,4.064,1.369,7.462,7.462,0,0,0,4.313-1.369,60.658,60.658,0,0,1,6.576,12.806,1.858,1.858,0,0,0-.243.913v3.577a.646.646,0,0,0,.5.639.627.627,0,0,0,.754-.614V30.129a.626.626,0,0,1,.627-.627h9.758a.626.626,0,0,1,.627.627v9.764a.626.626,0,0,1-.627.627H61.956a.626.626,0,0,1-.627-.627V37.319a.646.646,0,0,0-.5-.639.627.627,0,0,0-.754.614v2.6a1.874,1.874,0,0,0,1.874,1.874h1.782a82.014,82.014,0,0,1,1.241,12.2A1.818,1.818,0,0,1,64.456,55.332Zm9.934-2.938a.633.633,0,0,1-.4.128h-7.8a83.25,83.25,0,0,0-1.168-10.749h3.37a13.453,13.453,0,0,1,6.242,10.074A.615.615,0,0,1,74.39,52.394Z" transform="translate(-19.165 -6.127)" fill="#fff"/>
          <path id="Path_11018" data-name="Path 11018" d="M62.432,29.46A6.272,6.272,0,1,0,68.7,35.732,6.279,6.279,0,0,0,62.432,29.46Zm0,11.291a5.019,5.019,0,1,1,5.019-5.019A5.024,5.024,0,0,1,62.432,40.751Z" transform="translate(-32.1 -13.482)" fill="#fff"/>
          <path id="Path_11019" data-name="Path 11019" d="M70.65,65.267a.833.833,0,0,1,.493.785V77.275h.548V66.027S71.836,65.1,70.65,65.267Z" transform="translate(-37.775 -27.498)" fill="#fff" opacity="0.15"/>
          <path id="Path_11020" data-name="Path 11020" d="M73.46,20.18s8.322,30.259,7.464,35.9c0,0,.566,3.541-4.563,3.541h5.822s2.622.365,2.512-2.123S84.173,35.109,73.46,20.18Z" transform="translate(-38.875 -9.848)" fill="#0057ad"/>
          <path id="Path_11021" data-name="Path 11021" d="M93.149,53.795s-3.662-1.436-5.189-1.436c0,0-1.5-7.306-2.33-9.052l.055-2.4,5.633.11s.827,3.011,2.853,2.92a18.216,18.216,0,0,0,4.191-.925c1-.2,1.277,6.5,1.277,6.5l-.9,4.362Z" transform="translate(-43.642 -17.967)" fill="#fff"/>
        </g>
        <g id="Group_7361" data-name="Group 7361" transform="translate(27.321 19.378)">
          <g id="_x3C_head_x3E__17_">
            <path id="Path_11023" data-name="Path 11023" d="M66.721,42.91h-.4a.085.085,0,1,1,0-.17h.4a.085.085,0,1,1,0,.17Z" transform="translate(-63.369 -38.062)" fill="#469ce8"/>
            <path id="Path_11024" data-name="Path 11024" d="M67.555,37.575h-.213v-.8a.745.745,0,0,0-.742-.742h-.919a.318.318,0,0,0-.316-.316h-.511v-.213A.22.22,0,0,0,65,35.287a.237.237,0,0,0-.475,0,.24.24,0,0,0,.146.219v.213h-.487a.318.318,0,0,0-.316.316H62.755a.745.745,0,0,0-.742.742v.8h-.176a.318.318,0,0,0-.316.316v1.18a.318.318,0,0,0,.316.316h.176v.225a.745.745,0,0,0,.742.742s2.555.006,2.573.012a2.453,2.453,0,0,1,1.217.517,2.417,2.417,0,0,1-.122-.213c-.024-.049-.049-.1-.073-.158a.116.116,0,0,1,.012-.11.134.134,0,0,1,.1-.055h.14a.718.718,0,0,0,.383-.109.753.753,0,0,0,.359-.639v-.225h.207a.318.318,0,0,0,.316-.316v-1.18A.31.31,0,0,0,67.555,37.575Zm-.468,2.05a.488.488,0,0,1-.487.487H66.4a.4.4,0,0,0-.286.225,2.207,2.207,0,0,0-.888-.225H62.755a.488.488,0,0,1-.487-.487V36.778a.488.488,0,0,1,.487-.487h3.851a.488.488,0,0,1,.487.487l-.006,2.847Z" transform="translate(-61.52 -35.05)" fill="#469ce8"/>
          </g>
          <g id="_x3C_Very_Happy_x3E__16_" transform="translate(1.42 2.585)">
            <path id="Path_11025" data-name="Path 11025" d="M67.283,39.514A.776.776,0,0,0,67.52,40.8a1.2,1.2,0,0,1,1.046-.487.78.78,0,0,0-.176-.767A.792.792,0,0,0,67.283,39.514Z" transform="translate(-65.102 -39.3)" fill="#469ce8"/>
            <path id="Path_11026" data-name="Path 11026" d="M65.2,39.537a.778.778,0,0,1-.018,1.1.765.765,0,0,1-.274.17,1.221,1.221,0,0,0-1.022-.535.781.781,0,0,1,.207-.76A.792.792,0,0,1,65.2,39.537Z" transform="translate(-63.855 -39.299)" fill="#469ce8"/>
          </g>
        </g>
      </g>
      <path id="Path_11027" data-name="Path 11027" d="M38.445,59.593s-2.19,6.406-1.6,11.942h1.338s.11-2.792.4-5.585a48.274,48.274,0,0,1,1.071-6.74Z" transform="translate(-24.495 -25.134)" fill="#0057ad"/>
      <path id="Path_11028" data-name="Path 11028" d="M96.692,61.712A17.929,17.929,0,0,0,95.153,60.6a11.29,11.29,0,0,0-1.941-.754l-.322.213.475,1.855Z" transform="translate(-46.485 -25.385)" fill="#469ce8"/>
      <path id="Path_11029" data-name="Path 11029" d="M92.641,59.593s2.19,6.406,1.6,11.942H92.9s-.11-2.792-.4-5.585a48.274,48.274,0,0,0-1.071-6.74Z" transform="translate(-45.914 -25.134)" fill="#0057ad"/>
      <path id="Path_11030" data-name="Path 11030" d="M51.69,96.84c-.894,3.7.554,8.1,3.249,11.254.529.62,1.363,1.466,1.789-.359a4.314,4.314,0,0,1,.712-1.472,9.214,9.214,0,0,0,1.709,3.766,7.653,7.653,0,0,1,1.344,4.167.425.425,0,0,0,.7.3,11.982,11.982,0,0,0,4.216-8.748,6.1,6.1,0,0,1,1.515,2.555.562.562,0,0,0,.992.17c.049-.073.1-.146.14-.219a16.351,16.351,0,0,0,2.391-11.23A177.038,177.038,0,0,1,51.69,96.84Z" transform="translate(-30.245 -39.873)" fill="#dd6e6e"/>
      <g id="Group_7363" data-name="Group 7363" transform="translate(30.223 57.15)">
        <path id="Path_11031" data-name="Path 11031" d="M79.105,97.225A17.22,17.22,0,0,1,76.69,108.06c.043.116.085.237.122.359a.562.562,0,0,0,.992.17c.049-.073.1-.146.14-.219a16.351,16.351,0,0,0,2.391-11.23C79.932,97.17,79.519,97.207,79.105,97.225Z" transform="translate(-70.363 -97.14)" fill="#dd6e6e"/>
        <path id="Path_11032" data-name="Path 11032" d="M69.885,111.173a12.4,12.4,0,0,1-3.6,8.109c.012.122.018.231.018.31a.419.419,0,0,0,.681.322,12,12,0,0,0,4.234-8.76l-.438-.365a.6.6,0,0,0-.736-.03A.55.55,0,0,0,69.885,111.173Z" transform="translate(-66.29 -102.431)" fill="#dd6e6e"/>
      </g>
      <path id="Path_11033" data-name="Path 11033" d="M55.69,97a10.557,10.557,0,0,0,2.592,6.5c.389.456,1,1.083,1.32-.268a3.156,3.156,0,0,1,.529-1.083,6.853,6.853,0,0,0,1.259,2.78,5.638,5.638,0,0,1,.992,3.078.313.313,0,0,0,.517.225,8.877,8.877,0,0,0,3.115-6.461,4.564,4.564,0,0,1,1.119,1.892.412.412,0,0,0,.73.122c.036-.055.073-.109.1-.158a12.606,12.606,0,0,0,1.892-6.412C65.162,97.389,60.4,97.2,55.69,97Z" transform="translate(-31.916 -39.935)" fill="#dd6e6e"/>
      <path id="Path_11034" data-name="Path 11034" d="M75.734,97.389a13.582,13.582,0,0,1-1.624,5.785,4.793,4.793,0,0,1,.237.614.412.412,0,0,0,.73.122c.036-.055.073-.11.1-.158a12.606,12.606,0,0,0,1.892-6.412C76.629,97.358,76.178,97.376,75.734,97.389Z" transform="translate(-39.13 -40.069)" fill="#dd6e6e"/>
      <path id="Path_11035" data-name="Path 11035" d="M60.36,97.19a7.267,7.267,0,0,0,1.278,2.135c.268.31.681.73.894-.183a2.079,2.079,0,0,1,.359-.736,4.7,4.7,0,0,0,.852,1.886,3.885,3.885,0,0,1,.675,2.081.21.21,0,0,0,.347.152,6,6,0,0,0,2.1-4.374,3.074,3.074,0,0,1,.76,1.278.279.279,0,0,0,.493.085l.073-.11a9.019,9.019,0,0,0,.913-2.056C66.2,97.385,63.274,97.306,60.36,97.19Z" transform="translate(-33.745 -40.01)" fill="#dd6e6e"/>
      <g id="Group_7364" data-name="Group 7364" transform="translate(20.241 65.727)">
        <path id="Path_11036" data-name="Path 11036" d="M72.4,124.02a2.266,2.266,0,0,0-.122,3.516A2.266,2.266,0,0,0,72.4,124.02Z" transform="translate(-58.349 -116.245)" fill="#dd6e6e"/>
        <path id="Path_11037" data-name="Path 11037" d="M50.781,111.27a2.266,2.266,0,0,0-.122,3.516C51.182,114.391,51.864,112.219,50.781,111.27Z" transform="translate(-49.882 -111.252)" fill="#dd6e6e"/>
        <path id="Path_11038" data-name="Path 11038" d="M83.533,111.24a1.634,1.634,0,0,0-.085,2.537C83.825,113.491,84.311,111.921,83.533,111.24Z" transform="translate(-62.808 -111.24)" fill="#dd6e6e"/>
        <path id="Path_11039" data-name="Path 11039" d="M60.283,119.43a1.634,1.634,0,0,0-.085,2.537A1.634,1.634,0,0,0,60.283,119.43Z" transform="translate(-53.702 -114.448)" fill="#dd6e6e"/>
      </g>
      <path id="Path_11040" data-name="Path 11040" d="M69.26,105.125a9.193,9.193,0,0,1-2.61,5.524c.012.109.018.219.024.335a.313.313,0,0,0,.517.225,8.75,8.75,0,0,0,2.914-4.9h0c.03-.146.067-.353.1-.517h0a9.828,9.828,0,0,0,.109-1.046C70.264,104.736,69.4,104.255,69.26,105.125Z" transform="translate(-36.208 -42.914)" fill="#dd6e6e"/>
      <g id="Group_7365" data-name="Group 7365" transform="translate(30.557 57.338)">
        <path id="Path_11041" data-name="Path 11041" d="M72.149,97.456a8.134,8.134,0,0,1-.5,1.241,3.233,3.233,0,0,1,.4.833.279.279,0,0,0,.493.085l.073-.11a9.019,9.019,0,0,0,.913-2.056C73.067,97.456,72.611,97.456,72.149,97.456Z" transform="translate(-68.724 -97.45)" fill="#dd6e6e"/>
        <path id="Path_11042" data-name="Path 11042" d="M68.008,99.494a6.525,6.525,0,0,1-1.168,2.689,4.346,4.346,0,0,1,.11.8.21.21,0,0,0,.347.152,5.9,5.9,0,0,0,1.74-2.5h0c.055-.152.134-.408.183-.6h0a6.674,6.674,0,0,0,.189-1.271C68.714,98.642,68.13,98.794,68.008,99.494Z" transform="translate(-66.84 -97.948)" fill="#dd6e6e"/>
      </g>
    </g>
  </g>
</svg>
