<?xml version="1.0" encoding="utf-8"?>
<!-- Generator: Adobe Illustrator 23.1.0, SVG Export Plug-In . SVG Version: 6.00 Build 0)  -->
<svg version="1.1" id="Layer_1" xmlns="http://www.w3.org/2000/svg" xmlns:xlink="http://www.w3.org/1999/xlink" x="0px" y="0px"
     viewBox="0 0 100 100" style="enable-background:new 0 0 100 100;" xml:space="preserve">
<style type="text/css">
    .st0{opacity:0.3;fill:#00CED1;}
    .st1{opacity:0.7;}
    .st2{fill:#00CED1;}
</style>
<g>
    <circle class="st0" cx="50" cy="50" r="35"/>
    <g class="st1">
        <path class="st2" d="M40,54.7c0,4.9,0,8.9-0.1,12h-7.4V42.8c0-0.1,0-0.2,0.1-0.2c3.5,0.1,5.8,0.1,6.9,0.1l0.5-0.1V54.7z
             M40.6,35.7c-0.3,2.2-1.5,3.5-3.8,3.7c-0.3,0-0.6,0.1-0.9,0.1c-2.6,0-3.9-1.4-4-4.3V35c0-2.5,1.3-3.9,3.8-4.2
            c0.2,0,0.5-0.1,0.7-0.1c1.1,0,2.1,0.4,2.9,1.1c0.9,0.9,1.4,1.9,1.4,3.2V35.7z M68.1,60.4c0,4.3,0,6.4-0.1,6.4c0,0-0.1-0.1-0.1-0.2
            c-1.3,0-2.5,0.1-3.8,0.1c-1.3,0-2.5,0-3.8-0.1v-7.9c0-5.9-0.7-9.1-2.1-9.7c-0.9-0.4-1.6-0.6-2.3-0.6c-1.4,0-2.5,0.8-3.2,2.3
            c-0.4,0.7-0.6,1.7-0.6,2.9c0,0.6-0.1,1.5-0.1,2.7c0,1.1,0,2.4,0.1,4c0,1.2,0.1,2.3,0.1,3.2c0,1.4,0,2.5-0.1,3.2
            c-3.5-0.1-5.8-0.1-6.9-0.1l-0.5,0.1V42.7l0.5,0.1c1,0,3.3,0,6.7-0.1V46c1.7-2.5,4-3.8,6.7-3.9h0.9c2.8,0,4.9,0.8,6.4,2.5
            c1.5,1.8,2.3,5.1,2.3,9.8V60.4z"/>
        <path class="st2" d="M59.4,42.1h-0.9c-2.7,0.1-5,1.4-6.7,3.9v-3.3c-3.4,0.1-5.7,0.1-6.7,0.1l-0.5-0.1v23.9l0.5-0.1
            c1.1,0,3.4,0,6.9,0.1c0.1-0.8,0.1-1.9,0.1-3.2c0-0.9,0-2-0.1-3.2c0-1.6-0.1-2.9-0.1-4c0-1.1,0-2,0.1-2.7c0.1-1.2,0.3-2.1,0.6-2.9
            c0.8-1.5,1.9-2.3,3.2-2.3c0.7,0,1.5,0.2,2.3,0.6c1.4,0.6,2.1,3.9,2.1,9.7v7.9c1.3,0,2.5,0.1,3.8,0.1c1.3,0,2.5,0,3.8-0.1
            c0,0.1,0,0.2,0.1,0.2c0,0,0.1-2.1,0.1-6.4v-6.1c0-4.7-0.8-8-2.3-9.8C64.3,42.9,62.2,42.1,59.4,42.1z"/>
        <path class="st2" d="M36.4,30.7c-0.3,0-0.5,0-0.7,0.1c-2.5,0.3-3.8,1.7-3.8,4.2v0.1c0,2.9,1.4,4.3,4,4.3c0.3,0,0.6,0,0.9-0.1
            c2.3-0.3,3.6-1.5,3.8-3.7v-0.5c0-1.3-0.5-2.4-1.4-3.2C38.5,31.1,37.5,30.7,36.4,30.7z"/>
        <path class="st2" d="M32.5,42.7c0,0-0.1,0.1-0.1,0.2v23.9h7.4c0.1-3,0.1-7,0.1-12v-12l-0.5,0.1C38.4,42.8,36.1,42.7,32.5,42.7z"/>
    </g>
</g>
</svg>




