<?xml version="1.0" encoding="utf-8"?>
<!-- Generator: Adobe Illustrator 23.1.0, SVG Export Plug-In . SVG Version: 6.00 Build 0)  -->
<svg version="1.1" id="Layer_1" xmlns="http://www.w3.org/2000/svg" xmlns:xlink="http://www.w3.org/1999/xlink" x="0px" y="0px"
	 viewBox="0 0 500 500" style="enable-background:new 0 0 500 500;" xml:space="preserve">
<style type="text/css">
	.st0{fill:#00CED1;}
	.st1{opacity:0.5;fill:#00CED1;}
	.st2{opacity:0;}
</style>
<g>
	<g>
		<path class="st0" d="M291.3,318c-0.1,0-0.2,0-0.3-0.1l-0.2-0.1c-0.5-0.2-14.2-4.7-22.9-19.3c-8.7-14.5-7.8-39.6-7.8-40.6
			c0-0.2,0.1-0.5,0.3-0.6c0.2-0.2,0.4-0.2,0.7-0.2c0.3,0,7,0.5,12.1-6.2c5.6-7.5,17.5-8,18-8l0.3,0c0.5,0,12.4,0.5,18,8
			c5.1,6.8,12,6.3,12.1,6.2c0.2,0,0.5,0.1,0.7,0.2c0.2,0.2,0.3,0.4,0.3,0.6c0,1.1,0.8,26.1-7.8,40.6c-8.6,14.4-22,19-22.9,19.3
			l-0.2,0.1C291.5,318,291.4,318,291.3,318z M261.8,258.8c-0.1,4.6,0.1,26.2,7.6,38.8c8.1,13.6,21,18.2,21.9,18.6
			c1-0.3,13.9-5,21.9-18.6c7.5-12.6,7.6-34.2,7.6-38.8c-2.3-0.1-8.2-0.9-12.7-7c-5.1-6.8-16.5-7.3-16.6-7.3l-0.3,0
			c-0.1,0-11.5,0.4-16.6,7.3C269.9,258,264,258.7,261.8,258.8z"/>
		<path class="st0" d="M286.7,289.9c-0.2,0-0.5-0.1-0.6-0.3l-7.4-7.4c-0.3-0.3-0.3-0.9,0-1.3c0.3-0.3,0.9-0.3,1.3,0l6.8,6.8
			l17.6-17.6c0.3-0.3,0.9-0.3,1.3,0c0.3,0.3,0.3,0.9,0,1.3l-18.2,18.2C287.1,289.8,286.9,289.9,286.7,289.9z"/>
		<path class="st0" d="M254.6,274.6h-31.2c-0.2,0-0.4,0.1-0.5,0.3c-0.1,0.2,0,0.4,0.2,0.6l6.6,5.5v5.7c0,2.8,2.3,5,5,5h23
			c0.3,0,0.5-0.2,0.5-0.5s-0.2-0.5-0.5-0.5h-23c-2.2,0-4-1.8-4-4v-5.9c0-0.2-0.1-0.3-0.2-0.4l-5.7-4.7h29.7c0.3,0,0.5-0.2,0.5-0.5
			S254.9,274.6,254.6,274.6z"/>
		<path class="st1" d="M231.4,182h105.9c0.3,0,0.6,0.2,0.7,0.5c0.1,0.3,0,0.7-0.2,0.9l-12.3,10.2v10.6c0,5-4.1,9.1-9.1,9.1h-85
			c-5,0-9.1-4.1-9.1-9.1v-13C222.3,186.1,226.4,182,231.4,182z M335.2,183.6H231.4c-4.2,0-7.6,3.4-7.6,7.6v13c0,4.2,3.4,7.6,7.6,7.6
			h85c4.2,0,7.6-3.4,7.6-7.6v-10.9c0-0.2,0.1-0.5,0.3-0.6L335.2,183.6z M324.7,193.2L324.7,193.2L324.7,193.2z"/>
		<path class="st1" d="M238.1,196h59.5c0.6,0,1.1,0.5,1.1,1.1c0,0.6-0.5,1.1-1.1,1.1h-59.5c-0.6,0-1.1-0.5-1.1-1.1
			C237,196.5,237.5,196,238.1,196z"/>
		<path class="st0" d="M191.7,264.1c-5.7,0-10.4-4.6-10.4-10.4v-15c0-0.3-0.1-0.6-0.4-0.8l-15-12.4h142.3c5.7,0,10.4,4.6,10.4,10.4
			v10.5c0,0.6,0.5,1.1,1.1,1.1l0,0c0.6,0,1.1-0.5,1.1-1.1v-10.5c0-6.9-5.6-12.5-12.5-12.5H163c-0.5,0-0.9,0.3-1,0.7
			c-0.2,0.4,0,0.9,0.3,1.2l16.9,14v14.5c0,6.9,5.6,12.5,12.5,12.5h61.7c0.6,0,1.1-0.5,1.1-1.1l0,0c0-0.6-0.5-1.1-1.1-1.1H191.7z
			 M180.3,238.7L180.3,238.7L180.3,238.7z"/>
		<path class="st0" d="M218.5,244c-0.7,0-1.3,0.6-1.3,1.3s0.6,1.3,1.3,1.3h46c2,0,2.1-0.8,2.1-1.3c0-0.4-0.1-1.3-2.1-1.3H218.5z"/>
		<path class="st0" d="M254.7,283h-5.5c-0.3,0-0.5,0.2-0.5,0.5s0.2,0.5,0.5,0.5h5.5c0.3,0,0.5-0.2,0.5-0.5S255,283,254.7,283z"/>
	</g>
	<path class="st2" d="M350,350H150V150h200V350z M150.5,349.5h199v-199h-199V349.5z"/>
</g>
</svg>
