<?xml version="1.0" encoding="utf-8"?>
<!-- Generator: Adobe Illustrator 23.1.0, SVG Export Plug-In . SVG Version: 6.00 Build 0)  -->
<svg version="1.1" id="Layer_1" xmlns="http://www.w3.org/2000/svg" xmlns:xlink="http://www.w3.org/1999/xlink" x="0px" y="0px"
	 viewBox="0 0 1000 1000" style="enable-background:new 0 0 1000 1000;" xml:space="preserve">
<style type="text/css">
	.st0{fill:none;stroke:#00CED1;stroke-miterlimit:10;}
	.st1{opacity:0.8;fill:none;stroke:#00CED1;stroke-miterlimit:10;}
	.st2{opacity:0.5;fill:none;stroke:#00CED1;stroke-miterlimit:10;}
	.st3{opacity:0.7;fill:none;stroke:#00CED1;stroke-miterlimit:10;}
	.st4{opacity:0.7;}
	.st5{opacity:0.4;fill:none;stroke:#00CED1;stroke-miterlimit:10;}
	.st6{opacity:0.65;fill:none;stroke:#00CED1;stroke-miterlimit:10;}
	.st7{opacity:0.4;}
	.st8{fill:none;stroke:#00CED1;stroke-width:1.5;stroke-miterlimit:10;}
	.st9{opacity:0.8;fill:none;stroke:#00CED1;stroke-width:1.5;stroke-miterlimit:10;}
	.st10{opacity:0.5;fill:none;stroke:#00CED1;stroke-width:1.5;stroke-miterlimit:10;}
	.st11{opacity:0.7;fill:none;stroke:#00CED1;stroke-width:1.5;stroke-miterlimit:10;}
	.st12{opacity:0.4;fill:none;stroke:#00CED1;stroke-width:1.5;stroke-miterlimit:10;}
	.st13{opacity:0.65;fill:none;stroke:#00CED1;stroke-width:1.5;stroke-miterlimit:10;}
	.st14{fill:none;stroke:#00CED1;stroke-width:1.5;stroke-linecap:round;stroke-linejoin:round;stroke-miterlimit:10;}
	.st15{opacity:0.5;fill:none;stroke:#00CED1;stroke-width:1.5;stroke-linecap:round;stroke-linejoin:round;stroke-miterlimit:10;}
	.st16{opacity:0.8;fill:none;stroke:#00CED1;stroke-width:1.5;stroke-linecap:round;stroke-linejoin:round;stroke-miterlimit:10;}
	.st17{opacity:0.7;fill:none;stroke:#00CED1;stroke-width:1.5;stroke-linecap:round;stroke-linejoin:round;stroke-miterlimit:10;}
	.st18{opacity:0.4;fill:none;stroke:#00CED1;stroke-width:1.5;stroke-linecap:round;stroke-linejoin:round;stroke-miterlimit:10;}
	.st19{opacity:0.6;fill:none;stroke:#00CED1;stroke-width:1.5;stroke-linecap:round;stroke-linejoin:round;stroke-miterlimit:10;}
	.st20{opacity:5.000000e-02;fill:#FFFFFF;}
	.st21{opacity:0.9;fill:none;stroke:#00CED1;stroke-width:1.5;stroke-linecap:round;stroke-linejoin:round;stroke-miterlimit:10;}
	.st22{opacity:0.3;fill:none;stroke:#00CED1;stroke-width:1.5;stroke-linecap:round;stroke-linejoin:round;stroke-miterlimit:10;}
	.st23{opacity:0.3;}
	.st24{fill:none;stroke:#00CED1;stroke-width:0.5;stroke-linecap:round;stroke-linejoin:round;stroke-miterlimit:10;}
	.st25{opacity:0.5;fill:none;stroke:#00CED1;stroke-width:0.5;stroke-linecap:round;stroke-linejoin:round;stroke-miterlimit:10;}
	.st26{opacity:0.7;fill:none;stroke:#00CED1;stroke-width:0.5;stroke-linecap:round;stroke-linejoin:round;stroke-miterlimit:10;}
	.st27{fill:none;stroke:#00CED1;stroke-linecap:round;stroke-linejoin:round;stroke-miterlimit:10;}
	.st28{opacity:0.5;fill:none;stroke:#00CED1;stroke-linecap:round;stroke-linejoin:round;stroke-miterlimit:10;}
	.st29{opacity:0.7;fill:none;stroke:#00CED1;stroke-linecap:round;stroke-linejoin:round;stroke-miterlimit:10;}
	.st30{fill:none;stroke:#00CED1;stroke-width:0.75;stroke-linecap:round;stroke-linejoin:round;stroke-miterlimit:10;}
	.st31{opacity:0.5;fill:none;stroke:#00CED1;stroke-width:0.75;stroke-linecap:round;stroke-linejoin:round;stroke-miterlimit:10;}
	.st32{opacity:0.7;fill:none;stroke:#00CED1;stroke-width:0.75;stroke-linecap:round;stroke-linejoin:round;stroke-miterlimit:10;}
	.st33{opacity:0.5;}
	.st34{opacity:0.6;fill:none;stroke:#00CED1;stroke-miterlimit:10;}
	.st35{fill:none;stroke:#00CED1;stroke-width:0.75;stroke-miterlimit:10;}
	.st36{opacity:0.5;fill:none;stroke:#00CED1;stroke-width:0.75;stroke-miterlimit:10;}
	.st37{opacity:0.4;fill:none;stroke:#00CED1;stroke-linecap:round;stroke-linejoin:round;stroke-miterlimit:10;}
	.st38{opacity:0.6;fill:none;stroke:#00CED1;stroke-linecap:round;stroke-linejoin:round;stroke-miterlimit:10;}
	.st39{opacity:0.9;fill:none;stroke:#00CED1;stroke-linecap:round;stroke-linejoin:round;stroke-miterlimit:10;}
	.st40{fill:none;stroke:#00CED1;stroke-width:0.5;stroke-miterlimit:10;}
	.st41{opacity:0.5;fill:none;stroke:#00CED1;stroke-width:0.5;stroke-miterlimit:10;}
</style>
<g>
	<circle class="st0" cx="627.1" cy="288.6" r="10.7"/>
	<circle class="st1" cx="629.8" cy="322.4" r="6.5"/>
	<circle class="st0" cx="652.6" cy="253.4" r="4.5"/>
	<circle class="st2" cx="659.1" cy="174.3" r="6.5"/>
	<circle class="st0" cx="570.2" cy="252.3" r="10.7"/>
	<circle class="st0" cx="596.8" cy="317.3" r="10.7"/>
	<circle class="st2" cx="659.1" cy="288.3" r="10.7"/>
	<circle class="st0" cx="607.5" cy="360.6" r="10.7"/>
	<circle class="st0" cx="716.3" cy="169.1" r="10.7"/>
	<circle class="st2" cx="620.7" cy="165.1" r="2.6"/>
	<circle class="st0" cx="731.9" cy="239" r="9.1"/>
	<circle class="st3" cx="647" cy="382.6" r="12.3"/>
	<circle class="st0" cx="604.3" cy="240.1" r="9.7"/>
	<circle class="st0" cx="614.2" cy="283.5" r="3.2"/>
	<circle class="st0" cx="637.8" cy="282.4" r="1.7"/>
	<circle class="st0" cx="638.6" cy="285.4" r="1.3"/>
	<circle class="st0" cx="638.4" cy="289.2" r="0.6"/>
	<circle class="st0" cx="618.1" cy="280.8" r="1.3"/>
	<circle class="st0" cx="620" cy="279.8" r="0.6"/>
	<circle class="st0" cx="712" cy="478.4" r="14.2"/>
	<circle class="st0" cx="723.8" cy="464.3" r="4.3"/>
	<circle class="st0" cx="715.2" cy="494.4" r="2.2"/>
	<circle class="st0" cx="711.1" cy="494.2" r="1.7"/>
	<circle class="st0" cx="706.5" cy="492.3" r="0.8"/>
	<circle class="st0" cx="725.6" cy="470.3" r="1.7"/>
	<circle class="st0" cx="726.1" cy="473.2" r="0.9"/>
	<g class="st4">
		<circle class="st0" cx="634.5" cy="126.2" r="6"/>
		<circle class="st0" cx="627.2" cy="123.3" r="1.8"/>
		<circle class="st0" cx="640.4" cy="122.7" r="0.9"/>
		<circle class="st0" cx="640.9" cy="124.4" r="0.7"/>
		<circle class="st0" cx="640.8" cy="126.5" r="0.3"/>
		<circle class="st0" cx="629.4" cy="121.8" r="0.7"/>
		<circle class="st0" cx="630.5" cy="121.2" r="0.4"/>
	</g>
	<circle class="st0" cx="698.8" cy="211.3" r="5.2"/>
	<circle class="st0" cx="692.5" cy="208.9" r="1.6"/>
	<circle class="st0" cx="694.4" cy="207.5" r="0.6"/>
	<circle class="st0" cx="695.4" cy="207.1" r="0.3"/>
	<circle class="st0" cx="659.1" cy="333.2" r="10.7"/>
	<circle class="st0" cx="599" cy="411.6" r="10.7"/>
	<circle class="st2" cx="572.9" cy="356" r="10.7"/>
	<circle class="st0" cx="747.9" cy="436.4" r="10.7"/>
	<circle class="st0" cx="707" cy="435.5" r="10.7"/>
	<circle class="st2" cx="647" cy="470.1" r="14.9"/>
	<circle class="st0" cx="736.1" cy="403.3" r="5.8"/>
	<circle class="st0" cx="757.1" cy="370.3" r="3.2"/>
	<circle class="st5" cx="769.3" cy="419.7" r="10.7"/>
	<circle class="st0" cx="723.5" cy="339.7" r="6.5"/>
	<circle class="st2" cx="731.9" cy="368.4" r="9.1"/>
	<circle class="st0" cx="683" cy="396.9" r="6.5"/>
	<circle class="st0" cx="691" cy="241.6" r="5.2"/>
	<circle class="st0" cx="627.1" cy="200.8" r="5.2"/>
	<circle class="st2" cx="673.9" cy="150.5" r="3.9"/>
	<circle class="st0" cx="631.9" cy="266.2" r="2.6"/>
	<g>
		<circle class="st0" cx="645.6" cy="227.3" r="6"/>
		<circle class="st0" cx="638.4" cy="224.4" r="1.8"/>
		<circle class="st0" cx="651.6" cy="223.8" r="0.9"/>
		<circle class="st0" cx="652.1" cy="225.5" r="0.7"/>
		<circle class="st0" cx="651.9" cy="227.6" r="0.3"/>
		<circle class="st0" cx="640.6" cy="222.9" r="0.7"/>
		<circle class="st0" cx="641.7" cy="222.3" r="0.4"/>
	</g>
	<circle class="st0" cx="675.7" cy="268.8" r="3.9"/>
	<circle class="st2" cx="593.6" cy="128" r="6.5"/>
	<circle class="st0" cx="763.9" cy="319.4" r="6.5"/>
	<circle class="st0" cx="725.5" cy="310.2" r="10.7"/>
	<circle class="st0" cx="778.7" cy="295.6" r="3.9"/>
	<circle class="st0" cx="698.4" cy="273" r="6.5"/>
	<circle class="st0" cx="588.4" cy="191.8" r="7.8"/>
	<circle class="st0" cx="666.6" cy="200.8" r="2.6"/>
	<circle class="st6" cx="589.8" cy="490.5" r="6.5"/>
	<g>
		<circle class="st0" cx="614.4" cy="442.4" r="6"/>
		<circle class="st0" cx="621.6" cy="439.6" r="1.8"/>
		<circle class="st0" cx="608.5" cy="439" r="0.9"/>
		<circle class="st0" cx="608" cy="440.6" r="0.7"/>
		<circle class="st0" cx="608.1" cy="442.7" r="0.3"/>
		<circle class="st0" cx="619.5" cy="438" r="0.7"/>
		<circle class="st0" cx="618.4" cy="437.5" r="0.4"/>
	</g>
	<circle class="st0" cx="621.8" cy="517" r="5.2"/>
	<circle class="st0" cx="574.9" cy="466.7" r="3.9"/>
	<circle class="st6" cx="582.3" cy="517" r="2.6"/>
	<circle class="st0" cx="673.4" cy="441.7" r="4.5"/>
	<circle class="st0" cx="666.9" cy="362.6" r="6.5"/>
	<circle class="st0" cx="705.3" cy="353.4" r="2.6"/>
	<circle class="st3" cx="627.2" cy="399.7" r="5.2"/>
	<circle class="st3" cx="633.5" cy="397.2" r="1.6"/>
	<circle class="st0" cx="648.5" cy="425.8" r="5.2"/>
	<circle class="st0" cx="706.4" cy="388.7" r="5.2"/>
	<g class="st7">
		<circle class="st0" cx="681.5" cy="416.5" r="6"/>
		<circle class="st0" cx="677.4" cy="409.9" r="1.8"/>
		<circle class="st0" cx="679.1" cy="423" r="0.9"/>
		<circle class="st0" cx="680.9" cy="423.2" r="0.7"/>
		<circle class="st0" cx="682.9" cy="422.7" r="0.3"/>
		<circle class="st0" cx="676.3" cy="412.3" r="0.7"/>
		<circle class="st0" cx="675.9" cy="413.5" r="0.4"/>
	</g>
	<circle class="st0" cx="687.3" cy="327.1" r="2.6"/>
</g>
<g>
	<circle class="st8" cx="384.1" cy="400.1" r="19.6"/>
	<circle class="st9" cx="388.9" cy="462.1" r="11.9"/>
	<circle class="st8" cx="430.8" cy="335.6" r="8.3"/>
	<circle class="st10" cx="442.7" cy="190.5" r="11.9"/>
	<circle class="st8" cx="279.7" cy="333.5" r="19.6"/>
	<circle class="st8" cx="328.5" cy="452.8" r="19.6"/>
	<circle class="st10" cx="442.7" cy="399.7" r="19.6"/>
	<circle class="st8" cx="348.1" cy="532.1" r="19.6"/>
	<circle class="st8" cx="547.6" cy="181" r="19.6"/>
	<circle class="st10" cx="372.2" cy="173.6" r="4.8"/>
	<circle class="st8" cx="576.2" cy="309.1" r="16.6"/>
	<circle class="st11" cx="420.5" cy="572.5" r="22.6"/>
	<circle class="st8" cx="342.2" cy="311.2" r="17.8"/>
	<circle class="st8" cx="360.3" cy="390.8" r="5.9"/>
	<circle class="st8" cx="403.6" cy="388.9" r="3.1"/>
	<circle class="st8" cx="405.1" cy="394.3" r="2.4"/>
	<circle class="st8" cx="404.7" cy="401.2" r="1.1"/>
	<circle class="st8" cx="367.5" cy="385.8" r="2.4"/>
	<circle class="st8" cx="371.1" cy="383.9" r="1.2"/>
	<circle class="st8" cx="539.6" cy="748.1" r="26"/>
	<circle class="st8" cx="561.3" cy="722.2" r="7.9"/>
	<circle class="st8" cx="545.6" cy="777.5" r="4.1"/>
	<circle class="st8" cx="538.1" cy="777.1" r="3.2"/>
	<circle class="st8" cx="529.6" cy="773.7" r="1.4"/>
	<circle class="st8" cx="564.7" cy="733.3" r="3.2"/>
	<circle class="st8" cx="565.5" cy="738.6" r="1.6"/>
	<g class="st4">
		<circle class="st8" cx="397.5" cy="102.4" r="10.9"/>
		<circle class="st8" cx="384.3" cy="97.1" r="3.3"/>
		<circle class="st8" cx="408.5" cy="96" r="1.7"/>
		<circle class="st8" cx="409.3" cy="99.1" r="1.3"/>
		<circle class="st8" cx="409.1" cy="103" r="0.6"/>
		<circle class="st8" cx="388.3" cy="94.3" r="1.3"/>
		<circle class="st8" cx="390.3" cy="93.3" r="0.7"/>
	</g>
	<circle class="st8" cx="515.5" cy="258.5" r="9.5"/>
	<circle class="st8" cx="504" cy="254" r="2.9"/>
	<circle class="st8" cx="507.5" cy="251.5" r="1.2"/>
	<circle class="st8" cx="509.2" cy="250.6" r="0.6"/>
	<circle class="st8" cx="442.7" cy="481.8" r="19.6"/>
	<circle class="st8" cx="332.5" cy="625.6" r="19.6"/>
	<circle class="st10" cx="284.6" cy="523.7" r="19.6"/>
	<circle class="st8" cx="605.5" cy="671.2" r="19.6"/>
	<circle class="st8" cx="530.4" cy="669.5" r="19.6"/>
	<circle class="st10" cx="420.5" cy="732.9" r="27.4"/>
	<circle class="st8" cx="583.9" cy="610.4" r="10.7"/>
	<circle class="st8" cx="622.4" cy="549.8" r="5.9"/>
	<circle class="st12" cx="644.6" cy="640.5" r="19.6"/>
	<circle class="st8" cx="560.7" cy="493.9" r="11.9"/>
	<circle class="st10" cx="576.2" cy="546.5" r="16.6"/>
	<circle class="st8" cx="486.5" cy="598.6" r="11.9"/>
	<circle class="st8" cx="501.1" cy="314" r="9.5"/>
	<circle class="st8" cx="384.1" cy="239.1" r="9.5"/>
	<circle class="st10" cx="469.9" cy="147" r="7.1"/>
	<circle class="st8" cx="392.7" cy="359" r="4.8"/>
	<g>
		<circle class="st8" cx="418" cy="287.7" r="10.9"/>
		<circle class="st8" cx="404.8" cy="282.5" r="3.3"/>
		<circle class="st8" cx="429" cy="281.4" r="1.7"/>
		<circle class="st8" cx="429.8" cy="284.5" r="1.3"/>
		<circle class="st8" cx="429.6" cy="288.3" r="0.6"/>
		<circle class="st8" cx="408.8" cy="279.7" r="1.3"/>
		<circle class="st8" cx="410.8" cy="278.6" r="0.7"/>
	</g>
	<circle class="st8" cx="473.1" cy="363.8" r="7.1"/>
	<circle class="st10" cx="322.6" cy="105.6" r="11.9"/>
	<circle class="st8" cx="634.8" cy="456.5" r="11.9"/>
	<circle class="st8" cx="564.3" cy="439.6" r="19.6"/>
	<circle class="st8" cx="662" cy="413" r="7.1"/>
	<circle class="st8" cx="514.7" cy="371.6" r="11.9"/>
	<circle class="st8" cx="313.1" cy="222.7" r="14.3"/>
	<circle class="st8" cx="456.4" cy="239.1" r="4.8"/>
	<circle class="st13" cx="315.5" cy="770.3" r="11.9"/>
	<g>
		<circle class="st8" cx="360.8" cy="682.1" r="10.9"/>
		<circle class="st8" cx="374" cy="676.9" r="3.3"/>
		<circle class="st8" cx="349.8" cy="675.8" r="1.7"/>
		<circle class="st8" cx="349" cy="678.9" r="1.3"/>
		<circle class="st8" cx="349.2" cy="682.7" r="0.6"/>
		<circle class="st8" cx="370" cy="674.1" r="1.3"/>
		<circle class="st8" cx="368" cy="673.1" r="0.7"/>
	</g>
	<circle class="st8" cx="374.2" cy="818.8" r="9.5"/>
	<circle class="st8" cx="288.4" cy="726.7" r="7.1"/>
	<circle class="st13" cx="301.9" cy="818.8" r="4.8"/>
	<circle class="st8" cx="468.9" cy="680.9" r="8.3"/>
	<circle class="st8" cx="457" cy="535.8" r="11.9"/>
	<circle class="st8" cx="527.5" cy="518.9" r="4.8"/>
	<circle class="st11" cx="384.2" cy="603.7" r="9.5"/>
	<circle class="st11" cx="395.7" cy="599.2" r="2.9"/>
	<circle class="st8" cx="423.2" cy="651.6" r="9.5"/>
	<circle class="st8" cx="529.4" cy="583.7" r="9.5"/>
	<g class="st7">
		<circle class="st8" cx="483.7" cy="634.7" r="10.9"/>
		<circle class="st8" cx="476.2" cy="622.6" r="3.3"/>
		<circle class="st8" cx="479.4" cy="646.6" r="1.7"/>
		<circle class="st8" cx="482.6" cy="646.8" r="1.3"/>
		<circle class="st8" cx="486.4" cy="645.9" r="0.6"/>
		<circle class="st8" cx="474.2" cy="627" r="1.3"/>
		<circle class="st8" cx="473.5" cy="629.1" r="0.7"/>
	</g>
	<circle class="st8" cx="494.4" cy="470.7" r="4.8"/>
</g>
<g>
	<path d="M476.5,275.1v-11.7c0,0-2.3-21.2,37.5-22.6l49.6-1.3l18.1,0.7c0,0,38.4,1,40.3,21.1l0.5,13.8c0,0,17.4,9.2,22.7,14.3
		c0,0,17.6-10.4,39,22.7c0,0,9.6,14.5,7.4,29.9l7.7,14.2l16,2.9c0,0,3.2,1.7,5,9.9c0,0,12.5-0.2,12.5,22.8v55.6
		c0,0-0.4,20.4-16.6,21.8c0,0,3.2,0.4,2.5,3.6c0,0,0.3,6.7-6.2,6.7l-15.3,1.5c0,0-0.8,1.8-5.1,3.8l-6.9,19.8c0,0,18.4-7,17.9,12.2
		c0,0-1.8,8-9.7,8.6l-1,7l-3.3,25c0,0-0.9,8.2-7.9,6.2l-0.3,4.4l-4.5,2.2l0.8,3.7c0,0,0.2,2.3,3.9,1.9l12-1.5l13.9-18.6V546l3.3-0.4
		l0.7-0.8h4.8l0.3-2.9h11.8v2.9l5,0.9v13.9l-0.3,10.2c0,0,5.4,55.5-20.9,101.3c0,0-20.8,52.3-90.1,96.7c0,0-36.7,25-72.8,25
		c-36.2,0-75.4-28.5-75.4-28.5s-68-40.7-98.6-120.4c0,0-14-34.2-9.4-84.7l-0.7-14l4.3-1.3l0.7-2.4H381v2.7h5.2v1.4h4v12.5l14.3,16.1
		l13.5,1.6c0,0,3.8,0.6,3.5-6.5l-3.5-1.5l-0.4-11.7c0,0-10.8,2.9-10.5-12.4c0,0,0.4-12.4,9.8-11.5c0,0,0.3-5.9,2.6-12.9l-0.8-0.9
		c0,0-5.9-0.9-6-4.1c0-3.2,4.1-3.3,4.1-3.3l-7.6-30c0,0-2.8,0.3-4.8-3.2l-17.1-1.7c0,0-4.1,1.2-4.9-7.4c0,0,5.7-0.5,3.3-2.6
		c0,0-16.8,0.2-16.8-23.5v-57.4c0,0-0.2-18.9,15-19.6c0,0,2.3-1.8-1-3.2c0,0,0.5-4.9,3.7-6.3l15-3.2
		C401.5,352.9,421.8,303.1,476.5,275.1z"/>
	<g>
		<path class="st14" d="M711.4,383.4C711.4,383.4,711.4,383.4,711.4,383.4"/>
		<path class="st14" d="M647.8,289.4c-7.3-5.4-15-10.2-23-14.3c-0.2-0.1-0.4-0.2-0.6-0.3c-0.3-0.1-0.5-0.3-0.8-0.4"/>
		<path class="st14" d="M443.9,561.4C443.9,561.4,443.9,561.4,443.9,561.4"/>
		<path class="st14" d="M392,476.4c-0.1-0.4-0.2-0.8-0.3-1.2"/>
		<path class="st14" d="M403.3,353.3c1.5-3.1,3-6.1,4.7-9.1c16.4-29.8,41.2-54,70.9-69.1c0.3-0.2,0.6-0.3,1-0.5
			c0.1-0.1,0.3-0.1,0.4-0.2"/>
		<path class="st14" d="M419.1,533.9c-0.4-0.5-0.8-1.1-1.2-1.6"/>
		<path class="st14" d="M434.9,552.8c-0.1-0.1-0.1-0.1-0.2-0.2"/>
		<path class="st14" d="M425.6,542.4C425.6,542.4,425.7,542.4,425.6,542.4"/>
		<path class="st14" d="M694,341.4c1.2,2.1,2.4,4.2,3.5,6.4c1.4,2.7,2.8,5.5,4.1,8.3v0c0,0,0,0.1,0.1,0.1"/>
		<line class="st14" x1="708.7" y1="374.4" x2="708.7" y2="374.4"/>
		<path class="st14" d="M530.2,240.1c-5.5,0.2-10.2,0.5-13.6,0.7c0,0,0,0-0.1,0c0,0-0.1,0-0.1,0c0,0-0.1,0-0.1,0
			c-0.9,0.1-1.7,0.1-2.4,0.1c0,0,0,0-0.1,0c-1.9,0.1-3,0.2-3,0.2s-28.4,0.6-32.2,20.2c0,0,0.1,4.3,0.2,10.1v0c0,0.1,0,0.1,0,0.2v0
			c0,1.1,0,2.3,0,3.5c0.1,8.9,0.1,19.4-0.2,22.8c-0.6,6.3,3.8,18.9,32.2,14.5c28.4-4.4,70.6-1.3,75.7-0.6c5,0.6,40.4,9.5,39.1-16.4
			c0,0-0.4-10.8-0.8-20.2c0-0.7-0.1-1.3-0.1-2c0,0,0,0,0,0c-0.2-5.9-0.4-10.9-0.4-11.8c0-2.5-1.3-16.4-30.3-20.2
			c-6.1-0.8-13.4-1.3-21.1-1.5"/>
		<path class="st15" d="M535.6,239.9c9.6-0.3,20.9-0.6,31.8-0.4"/>
		<path class="st14" d="M624.7,273.1c0,0-2.8,13.3-19.3,14.1H496c0,0-13.2,0.3-17.4-16.5c0,0,3.6,13.5,21.2,13.8l104-0.5
			C603.8,283.9,612.1,285.5,624.7,273.1z"/>
		<path class="st15" d="M501,267.9c2.4,9.9,18.2,9.5,18.2,9.5l10.9-0.1"/>
		<path class="st15" d="M572.9,276.7l13.6-0.2c10.3-0.4,14.6-8.7,14.6-8.7"/>
		<line class="st15" x1="567.5" y1="276.8" x2="535.6" y2="277.2"/>
		<line class="st15" x1="567.5" y1="251.5" x2="535.6" y2="251.5"/>
		<line class="st15" x1="567.5" y1="267.9" x2="535.6" y2="267.9"/>
		<path class="st15" d="M572.9,267.9h28.2h7.4h5.8c-0.8-4.9-3.7-8.3-7.4-10.7c-8.2-5.4-20.2-5.7-20.2-5.7h-13.8"/>
		<path class="st15" d="M530.2,251.5h-12c-9.6,0-16.3,2.6-20.8,5.7c-6.9,4.7-8.8,10.7-8.8,10.7H501h29.2"/>
		<line class="st14" x1="567.5" y1="240.7" x2="535.6" y2="240.7"/>
		<path class="st15" d="M572.9,240.7h13.8c0,0,24.9,0.5,27.6,16.4h-7.4"/>
		<path class="st15" d="M497.4,257.2h-8.8c0,0,4.6-14.4,25.2-16.2c0,0,0,0,0.1,0c0.8-0.1,1.6-0.1,2.4-0.1c0,0,0.1,0,0.1,0
			c0,0,0.1,0,0.1,0c0,0,0,0,0.1,0c0.5,0,1.1,0,1.7,0h12"/>
		<rect x="530.2" y="235.8" class="st16" width="5.5" height="48.5"/>
		<rect x="567.5" y="235.8" class="st16" width="5.5" height="48.5"/>
		<path class="st14" d="M619.3,258.5c0,0-5.5,2.8-2.8,3.2"/>
		<path class="st14" d="M484.2,259.7c0,0,2.8,0.1,2.2,2.1"/>
		<path class="st15" d="M636.2,296.1c0,0-13.8,20.3,14.1,52.7c0,0,17.1,21.5,31.6,9.2l6.8-6.8c0,0-18.1,8.4-34.3-18.1
			c-11.9-19.5-10.5-30-10.8-41.3L636.2,296.1z"/>
		<path class="st14" d="M643.5,291.8c0,0,17-14.3,37.6,12.4c20.5,26.8,11.9,44.3,8.9,46.5c0,0-16.8,10.6-35.7-17.6
			C640,311.8,643.5,291.8,643.5,291.8z"/>
		<path class="st14" d="M529.5,516.3c-2.7-0.8-5.4-1.8-8-2.9 M574.1,516.2L574.1,516.2c2.8-0.8,5.4-1.8,8-2.9 M638.8,429.2
			c-0.8-7.3-2.5-14.3-4.9-20.9c-0.8-2-1.6-4-2.5-6c-5.4-11.7-13.3-22-23-30.3h0c-15.3-13-35-20.8-56.6-20.8
			c-41.7,0-76.6,29.2-85.4,68.2c-0.6,2.7-1.1,5.5-1.5,8.4c-0.3,2.3-0.5,4.5-0.6,6.8c-0.1,1.4-0.1,2.8-0.1,4.2
			c0,4.9,0.4,9.7,1.2,14.3c0.4,2.4,0.9,4.8,1.5,7.2c0.7,2.9,1.6,5.7,2.6,8.4c3.3,9.2,8.2,17.7,14.2,25.2h0c0.8,1,1.6,2,2.5,2.9h0
			c2,2.2,4.1,4.4,6.3,6.4c4.5,4.1,9.4,7.8,14.7,10.9h0c1.7,1,3.4,2,5.2,2.8c11.9,6,25.3,9.4,39.5,9.4c14.3,0,27.7-3.4,39.6-9.5
			c1.8-0.9,3.5-1.9,5.2-2.9c19.3-11.6,33.9-30.4,39.8-52.7c0.4-1.5,0.7-2.9,1.1-4.4c1.2-5.9,1.9-11.9,1.9-18.1
			C639.3,435.6,639.1,432.4,638.8,429.2z"/>
		<path class="st15" d="M529.5,516.3c-2.7-0.8-5.4-1.8-8-2.9 M574.1,516.2L574.1,516.2c2.8-0.8,5.4-1.8,8-2.9 M580.4,364.3
			C580.4,364.3,580.4,364.3,580.4,364.3c-8.9-3.3-18.6-5.1-28.6-5.1c-9.6,0-18.8,1.6-27.3,4.6h0c-25.2,8.9-44.8,29.7-51.9,55.7
			c-1.9,7-3,14.3-3,21.9c0,19.8,7,38,18.7,52.2c0.8,1,1.7,2,2.5,2.9c2,2.3,4.2,4.4,6.5,6.4c4.8,4.2,10,7.9,15.7,11
			c1.9,1,3.9,2,5.9,2.9h0c10.1,4.4,21.2,6.9,32.9,6.9c14.1,0,27.4-3.5,39-9.8h0c5.7-3.1,10.9-6.8,15.7-11h0c2.3-2,4.4-4.2,6.4-6.4h0
			c13.1-14.6,21.1-33.8,21.1-54.9C633.9,406,611.7,375.9,580.4,364.3z"/>
		<path class="st14" d="M529.5,516.3c7,2.1,14.5,3.2,22.2,3.2c7.8,0,15.3-1.1,22.4-3.2"/>
		<path class="st14" d="M582.2,513.3c9.2-3.9,17.4-9.4,24.4-16.3c0.2-0.2,0.4-0.4,0.6-0.6c0.2-0.2,0.4-0.4,0.5-0.5
			c0.9-1,1.8-1.9,2.7-2.9c12.1-13.8,19.5-31.8,19.5-51.6c0-17.3-5.6-33.3-15.2-46.3h0c-14.2-19.3-37.1-31.9-63-31.9
			c-43.2,0-78.1,35-78.1,78.1c0,19.8,7.4,37.9,19.6,51.7h0c0.9,1,1.8,2,2.7,2.9h0c0,0,0.1,0.1,0.1,0.1c0,0,0,0,0,0
			c0.8,0.8,1.5,1.5,2.3,2.3c1.5,1.4,3,2.7,4.6,4c5.6,4.5,11.8,8.2,18.5,11"/>
		<path class="st15" d="M603.6,399.9c9.1,11.4,14.5,25.8,14.5,41.4c0,16-5.7,30.8-15.2,42.2"/>
		<path class="st15" d="M500.5,483.6c-9.5-11.5-15.2-26.2-15.2-42.2c0-15.6,5.4-29.9,14.4-41.3l0,0"/>
		<path class="st15" d="M510.4,493.3c0.7,0.6,1.4,1.1,2.1,1.6c3.4,2.5,7,4.6,10.8,6.4c8.6,4.1,18.2,6.4,28.4,6.4
			c10.2,0,19.9-2.3,28.5-6.4c4.6-2.2,8.9-4.9,12.8-8"/>
		<line class="st14" x1="508.8" y1="492" x2="508.8" y2="492"/>
		<path class="st14" d="M509.4,390.2c11.5-9.5,26.2-15.2,42.3-15.2c14.2,0,27.4,4.5,38.2,12.1h0c1.3,0.9,2.6,1.9,3.9,3"/>
		<path class="st14" d="M501.6,418.8c5.6-12.5,15.7-22.5,28.3-27.9"/>
		<path class="st17" d="M574.8,391.4c12.6,5.8,22.6,16.3,27.9,29.2c0,0,0,0,0,0"/>
		<path class="st14" d="M564.6,494.8c-4.1,1-8.4,1.5-12.8,1.5c-4.6,0-9-0.6-13.2-1.6h0"/>
		<path class="st14" d="M605.5,430.1c0.8,3.6,1.2,7.4,1.2,11.3c0,4.4-0.5,8.6-1.5,12.7c0,0,0,0,0,0"/>
		<path class="st14" d="M602.8,461.8c-5.2,12.9-15.1,23.3-27.5,29.2h0c-0.5,0.3-1.1,0.5-1.7,0.8"/>
		<path class="st14" d="M566.5,388.4c-4.7-1.3-9.7-2-14.8-2c-4.8,0-9.5,0.6-13.9,1.8c0,0,0,0,0,0"/>
		<path class="st17" d="M501.8,464.2c5.9,12.9,16.6,23.1,29.9,28.3"/>
		<path class="st14" d="M499,456.7c-1.4-4.9-2.2-10-2.2-15.3c0-5.4,0.8-10.6,2.2-15.5"/>
		<path class="st14" d="M593.3,484.7c0,0,24-20.3-3-39.5l-42.4-41.3c0,0-11.8-12.4-18.1-13c-6.2-0.6-13.2,3.4-21.1,10.7
			c-7.4,6.8-8.4,14.1-6.2,20.8c3.1,9.4,11.7,15.8,11.7,15.8l41.3,41.7C555.4,479.8,573,503.8,593.3,484.7z"/>
		<path class="st14" d="M596.8,487.4c0,0,24-24,1.2-41.4l-48.3-47.1c0,0-16.4-27.5-42-2c-22.2,22.2-0.9,40.1-0.9,40.1l49.3,50.6
			C556.1,487.6,572.4,510.3,596.8,487.4z"/>
		<line class="st17" x1="552.2" y1="408.2" x2="518.6" y2="442.7"/>
		<line class="st17" x1="587.3" y1="442.4" x2="552.5" y2="476.9"/>
		<path class="st17" d="M590.7,439c1-0.8,10.3-8.1,11.9-18.4c0,0,0,0,0,0c0.9-5.7-0.6-12.4-7.1-19.4c0,0-9-10.7-20.7-9.8
			c-5.8,0.5-12.3,3.8-18.7,12.8l-0.5,0.5"/>
		<path class="st17" d="M515.4,445.9l-0.7,0.7c0,0-11.8,11.1-13,17.6c0,0.2-0.1,0.3-0.1,0.5c-0.6,6.2,3.4,13.2,10.7,21.1
			c2.4,2.6,4.8,4.4,7.3,5.6h0c4,1.9,8,2.1,11.9,1.1c0.5-0.1,1.1-0.3,1.6-0.5c1-0.3,1.9-0.7,2.8-1.1h0c7.8-3.7,12.9-10.6,12.9-10.6"
			/>
		<line class="st17" x1="548.8" y1="404.8" x2="515.2" y2="439.2"/>
		<line class="st17" x1="590.9" y1="445.7" x2="555.7" y2="480.1"/>
		<path class="st17" d="M594.3,442.4l4.1-4c0,0,4.2-3,7.2-8.4c3.6-6.4,5.4-16.2-3.8-28.2c-1-1.3-2.2-2.7-3.5-4.1
			c0,0-2.6-2.6-6.7-5.3c-6.2-4-15.7-8.2-25-4c-3.3,1.5-6.6,4.1-9.7,8.2l-4.7,4.8"/>
		<path class="st17" d="M512.1,442.5l-2.3,2.4c0,0-7.1,4.2-10.8,11.8c-3.5,7.3-3.8,17.6,8.7,30.2c3.7,3.7,7.2,6.1,10.5,7.7h0
			c8,3.8,15,2.5,20.2,0.1h0c0.5-0.2,1-0.5,1.4-0.7h0c5-2.7,7.9-6.2,7.9-6.2l4.3-4.2"/>
		<path class="st14" d="M591.5,491.7L591.5,491.7l1.6,1.6l5.1,5.1c0,0,3.9,2.8,8.4-1.3c0.1-0.1,0.2-0.2,0.3-0.3
			c0.1-0.1,0.2-0.2,0.3-0.3c0.2-0.2,0.3-0.4,0.4-0.5c2.9-3.8,0-7.7,0-7.7l-4.6-4.6l-1.7-1.7"/>
		<line class="st18" x1="598.1" y1="492.1" x2="605.4" y2="492.1"/>
		<line class="st18" x1="601.8" y1="489.6" x2="601.8" y2="494.7"/>
		<path class="st14" d="M512.1,392.9l-2.7-2.7l-4.2-4.2c0,0-3.9-2.8-8.4,1.3c-4.6,4.1-1,8.8-1,8.8l4,4l2.8,2.8"/>
		<line class="st18" x1="505.2" y1="392.2" x2="497.9" y2="392.2"/>
		<line class="st18" x1="501.5" y1="394.7" x2="501.5" y2="389.6"/>
		<path class="st14" d="M603.1,400.4l-0.9,0.9l1.4-1.4l4.2-4.2c0,0,2.8-3.9-1.3-8.4c-4.1-4.6-8.8-1-8.8-1l-3.9,3.8l-2,2"/>
		<line class="st18" x1="601.6" y1="395.7" x2="601.6" y2="388.4"/>
		<line class="st18" x1="599.1" y1="392" x2="604.2" y2="392"/>
		<path class="st14" d="M502.4,481.7l-1.9,1.9l-5.1,5.1c0,0-1.3,1.8-0.8,4.3h0c0.2,0.9,0.5,2,1.3,3.1c0,0,0.1,0.1,0.1,0.1
			c0,0,0,0,0,0c0.2,0.3,0.5,0.6,0.7,0.9c0.5,0.6,1.1,1,1.6,1.4c3.7,2.3,7.2-0.4,7.2-0.4l4.8-4.8l1.7-1.7"/>
		<line class="st18" x1="501.7" y1="488.6" x2="501.7" y2="495.9"/>
		<line class="st18" x1="504.2" y1="492.3" x2="499.1" y2="492.3"/>
		<path class="st15" d="M697.5,347.8c-14.3,7.6-25,33.7-26,65.4c0,1.5-0.1,3-0.1,4.5c0,5.3,0.3,10.5,0.8,15.5
			c2.5,24.2,10.9,43.9,21.9,52.3"/>
		<path class="st14" d="M701.6,356.1c0,0-9.6-9.3-14.7,7.1c-5.1,16.4-7.2,28.5-7.2,52.2s3.4,52.5,8.5,62.2c5.1,9.7,9.2,6.7,11.3,3.3
			c0,0-10.4,4.6-13.9-30.6c-3.5-35.1,0.8-75.1,5-84.8C694.9,355.8,694.8,355.6,701.6,356.1z"/>
		<path class="st14" d="M700.6,356l17,3.1c0,0-14.9,6.9-13.8,65.3c1.1,58.4,13.8,54.8,13.8,54.8l-18,1.7"/>
		<path class="st15" d="M709.8,357.7c0,0-10.2,7.6-10.2,65.1c0,47.6,5.2,50.5,11.1,57.1"/>
		<path class="st14" d="M706.6,458.9L706.6,458.9c1.9-5,3.4-12.9,4.4-20.8"/>
		<path class="st14" d="M717.6,359.2c0,0,2.7,1.3,3.5,6.4c0,0-7.1,0.8-8.4,9.4c0,0-0.5,1.6-1.3,8.4c0,0,0,0,0,0
			c-0.2,2-0.5,4.5-0.8,7.5c0,0,0.3,3.9,0.7,9.2"/>
		<path class="st14" d="M711.6,404.1c0.3,5.5,0.6,11.7,0.6,16.6c0,3.9-0.3,8.6-0.7,13.4"/>
		<path class="st14" d="M717.6,479.2c0,0,2.9-0.2,3.5-6.4c0,0-1,1.1-4.2-1.9"/>
		<line class="st15" x1="728.4" y1="434" x2="728.4" y2="404.1"/>
		<line class="st15" x1="716.9" y1="434" x2="716.9" y2="404.1"/>
		<path class="st15" d="M716.9,400v-31.2c0,0,11.5,2.2,11.5,23.2v8"/>
		<path class="st15" d="M728.4,438.1v9.3c0,0,1.3,14.6-11.5,22.2v-31.5"/>
		<path class="st15" d="M731.4,438.1v7.6c0,4.2-0.7,8.4-2.3,12.3c-2,5.1-5.7,10.6-12.2,11.5"/>
		<path class="st15" d="M719,368.8c0,0,10.2,0.5,12.4,19.6V400"/>
		<line class="st15" x1="731.4" y1="434" x2="731.4" y2="404.1"/>
		<path class="st15" d="M735.1,438.1v7.6c0,4.2-0.9,8.4-2.3,12.3c-3.3,9-9.5,10.6-16,11.5"/>
		<path class="st15" d="M719,368.8c0,0,15.1-1.7,16.1,19.6V400"/>
		<line class="st15" x1="735.1" y1="434" x2="735.1" y2="404.1"/>
		<rect x="706.6" y="400" class="st16" width="30.3" height="4.1"/>
		<rect x="706.6" y="434" class="st16" width="30.3" height="4.1"/>
		<polyline class="st14" points="631.4,402.3 657.4,402.3 657.4,408.3 653.6,408.3 633.8,408.3 		"/>
		<polyline class="st14" points="653.6,408.3 653.6,429.2 653.6,456.9 653.6,475.4 651.4,475.4 642.2,475.4 636.4,475.4 
			636.4,461.4 		"/>
		<line class="st15" x1="653.6" y1="456.9" x2="637.4" y2="456.9"/>
		<line class="st15" x1="653.6" y1="429.2" x2="638.8" y2="429.2"/>
		<polyline class="st15" points="651.4,475.4 651.4,486.1 642.2,486.1 642.2,475.4 		"/>
		<path class="st15" d="M408,344.2c15.4,7.3,26.9,36,26.9,70.4c0,31.3-9.5,57.9-22.9,67.9"/>
		<path class="st14" d="M404.7,353c0,0,9.6-9.3,14.7,7.1s7.2,28.5,7.2,52.2s-3.4,52.5-8.5,62.2c-5.1,9.7-9.2,6.7-11.3,3.3
			c0,0,10.4,4.6,13.9-30.6c3.5-35.1-0.8-75.1-5-84.8C411.5,352.7,411.5,352.4,404.7,353z"/>
		<path class="st14" d="M405.7,352.9l-17,3.1c0,0,14.9,6.9,13.8,65.3c-1.1,58.4-13.8,54.8-13.8,54.8l18,1.7"/>
		<path class="st15" d="M396.6,354.6c0,0,10.2,7.6,10.2,65.1c0,47.6-5.2,50.5-11.1,57.1"/>
		<path class="st14" d="M394.8,400.9c-0.3,5.5-0.6,11.7-0.6,16.6c0,3.9,0.3,8.6,0.7,13.4"/>
		<path class="st14" d="M395.3,435c1,7.9,2.5,15.8,4.4,20.8"/>
		<path class="st14" d="M395,396.9c0.3-5.3,0.7-9.2,0.7-9.2c-0.5-5.7-1-9.4-1.3-11.8c-0.5-3.2-0.7-4.1-0.7-4.1
			c-1.2-8.6-8.4-9.4-8.4-9.4c0.8-5.1,3.5-6.4,3.5-6.4"/>
		<path class="st14" d="M388.7,476.1c0,0-2.9-0.2-3.5-6.4c0,0,1,1.1,4.2-1.9"/>
		<path class="st15" d="M378,435v9.3c0,0-1.3,14.6,11.5,22.2v-0.8V435"/>
		<line class="st15" x1="389.5" y1="430.9" x2="389.5" y2="400.9"/>
		<line class="st15" x1="378" y1="430.9" x2="378" y2="400.9"/>
		<path class="st15" d="M389.5,396.9v-2v-29.3c0,0-11.5,2.2-11.5,23.2v8"/>
		<line class="st15" x1="375" y1="430.9" x2="375" y2="400.9"/>
		<path class="st15" d="M375,435v7.6c0,4.2,0.7,8.4,2.3,12.3c2,5.1,5.7,10.6,12.2,11.5"/>
		<path class="st15" d="M375,396.9v-11.6c2.2-19,12.4-19.6,12.4-19.6"/>
		<line class="st15" x1="371.2" y1="430.9" x2="371.2" y2="400.9"/>
		<path class="st15" d="M371.2,435v7.6c0,4.2,0.8,8.4,2.3,12.3c3.3,9,9.5,10.6,16,11.5"/>
		<path class="st15" d="M371.2,396.9v-11.6c1-21.3,16.1-19.6,16.1-19.6"/>
		<rect x="369.5" y="396.9" class="st16" width="30.3" height="4.1"/>
		<rect x="369.5" y="430.9" class="st16" width="30.3" height="4.1"/>
		<path class="st15" d="M464.3,434.7c-1.2-0.7-2.5-1.1-3.9-1.4"/>
		<path class="st15" d="M464.9,427.8c-2.2-0.6-4.2-0.7-6.1-0.6c0,0,0,0,0,0"/>
		<path class="st15" d="M457,427.5c-3.3,0.6-5.7,1.8-6.7,2.1c-2.3,0.7-3.5,3.4-3.5,3.4s-0.3,1.1,3.5,0.7c0,0,1.9-0.4,4.4-0.6"/>
		<path class="st15" d="M466.9,460.3c-0.9,0.4-1.8,0.8-2.7,1c-3,0.9-9.2,0.6-12.3,0.3c-0.3,0-0.6,0-0.8-0.1c0,0,0,0,0,0
			c-0.6-0.1-0.9-0.1-0.9-0.1c-0.4-0.3-0.8-0.6-1.2-0.9c0,0,0,0,0,0c-1.4-1.2-2-2.3-2.2-3.1c-0.3-1,0-1.6,0-1.6c0.5,0,1.1,0,1.8,0"/>
		<path class="st15" d="M454.7,455.6c3.4-0.3,7.1-0.9,9.5-1.8c0.4-0.2,0.8-0.4,1.2-0.6"/>
		<path class="st14" d="M446.8,433c0,0-2-12.4,5.5-13.5h20.2"/>
		<path class="st14" d="M446.8,455.9v6c0,0-0.5,6.8,8,6.8h14.7"/>
		<circle class="st14" cx="454.2" cy="444.6" r="5.7"/>
		<path class="st16" d="M456.7,449.7l-2.5,7.4c-1.6,6.1-3,4.6-3,4.6s-2.8,0.7-2.7-3.8l0.8-10.3"/>
		<path class="st16" d="M452.6,439.2l2.5-7.4c1.6-6.1,3-4.6,3-4.6s2.8-0.7,2.7,3.8l-2,10.3"/>
		<path class="st14" d="M656,522c0,0-11.3,4.3-11.9-15.8c-0.5-20.1,11.9-21.6,17.3-8.6"/>
		<path class="st14" d="M687.3,513.5c0,2.6-0.6,5-1.6,7.2v0c-0.4,0.8-0.8,1.5-1.2,2.2c-0.8,1.2-1.7,2.2-2.7,3.2h0
			c-0.8,0.8-1.7,1.4-2.7,2c-0.2,0.1-0.4,0.2-0.5,0.3c-2.4,1.4-5.3,2.1-8.2,2.1c-5.5,0-10.4-2.6-13.5-6.7h0c-0.4-0.5-0.8-1.1-1.1-1.7
			c-1.5-2.5-2.4-5.5-2.4-8.6c0-9.4,7.6-17,17-17c5.6,0,10.6,2.7,13.7,7c0,0,0,0,0,0c0.9,1.2,1.7,2.6,2.2,4.1v0
			C686.9,509.4,687.3,511.4,687.3,513.5z"/>
		<path class="st14" d="M685.7,520.7L685.7,520.7c0.4,0.6,0.9,1.2,1.4,1.7c0.8,0.7,1.6,1.4,2.6,1.9c0.3,0.2,0.7,0.3,1,0.5
			c1.2,0.5,2.6,0.8,4,0.8c3.3,0,6.3-1.5,8.3-3.8c1.3-1.5,2.3-3.5,2.6-5.6c0.1-0.5,0.1-1.1,0.1-1.6c0-0.5,0-1-0.1-1.6
			c-0.4-3-2.1-5.7-4.5-7.4c-1.8-1.3-4-2.1-6.4-2.1c-2.5,0-4.7,0.8-6.6,2.2c-0.1,0.1-0.2,0.1-0.2,0.2c-0.4,0.3-0.8,0.6-1.1,1
			c-0.2,0.2-0.4,0.4-0.6,0.7v0"/>
		<ellipse class="st15" cx="666" cy="514.8" rx="7.7" ry="10"/>
		<path class="st14" d="M684,503.4c0,0,7.7,1.8,7.4,9.5c-0.3,7.7-3,9.7-6.9,9.9"/>
		<path class="st14" d="M689.7,524.2l-1.5,4.4l-6.3,18.2h0l-2.4,7c0,0-0.5,1.8-0.3,3.8c0.2,2.2,1.2,4.8,4.6,6.1
			c6.5,2.4,7.7-6.3,7.7-6.3l4-32"/>
		<line class="st14" x1="441.8" y1="557.5" x2="441.8" y2="557.5"/>
		<path class="st14" d="M445.5,488.1L445.5,488.1c0.2,0,0.3,0,0.5,0c8.2,0,15.8,2.9,21.8,7.6c1.1,0.9,2.1,1.8,3.1,2.8
			c1.9,1.9,3.5,4,4.9,6.4h0c2.1,3.5,3.6,7.4,4.4,11.5c0.2,1,0.3,2.1,0.4,3.1c0.1,1.1,0.2,2.3,0.2,3.4c0,5.3-1.2,10.3-3.3,14.8"/>
		<path class="st14" d="M446.8,515.8l3.8,3.7c0.2,0.3,0.3,0.5,0.5,0.8c0.6,1,1.2,1.9,1.7,2.9c9.8,17.6-0.2,27.9-2,29.5h0
			c-0.1,0.1-0.2,0.2-0.2,0.2"/>
		<polyline class="st14" points="450.6,552.8 450.6,552.8 451,552.6 451,552.6 477.4,537.7 		"/>
		<path class="st14" d="M419.1,533.9C419.1,533.9,419.1,533.9,419.1,533.9c0-0.5,0-1,0-1.4c0-0.1,0-0.1,0-0.2c0-0.6,0.1-1.2,0.1-1.9
			c0.1-1.1,0.2-2.2,0.4-3.3c0.6-3.8,1.7-7.3,3.2-10.2c0.6-1.1,1.2-2.2,1.9-3.2c2.7-3.8,6.2-6,10.1-6c2.3,0,4.5,0.8,6.5,2.3
			c3,2.2,5.5,6,7.1,10.7c0.3,1,0.6,2,0.9,3c0.8,3.1,1.2,6.6,1.2,10.2c0,6.9-1.6,13.2-4.2,17.9h0c-0.6,1-1.2,2-1.8,2.8
			c-0.8,1.1-1.8,2.1-2.7,2.8h0c-1.6,1.3-3.4,2.2-5.2,2.5h0c-0.5,0.1-1.1,0.1-1.6,0.1c-2,0-4-0.6-5.8-1.8c-1.4-0.9-2.6-2.1-3.8-3.6"
			/>
		<path class="st14" d="M679,528.1c-0.1,0.1-0.1,0.3-0.2,0.4c-3,8.1-5.9,15.5-8.2,20.5c-0.1,0.2-0.1,0.3-0.2,0.5h0"/>
		<path class="st14" d="M694.7,484.2c0,0-0.2,0.5-0.5,1.3c-1,3-3.6,10.5-6.8,19.5c-0.1,0.2-0.1,0.4-0.2,0.5
			c-0.1,0.4-0.3,0.8-0.4,1.2"/>
		<line class="st14" x1="432" y1="543" x2="432" y2="543"/>
		<path class="st14" d="M424.6,538.1c-0.1-0.5-0.1-1-0.2-1.5"/>
		<path class="st14" d="M419,510.6c-2.9-11.6-7-28.1-7-28.1c-0.2-0.6-0.3-1.1-0.4-1.5c-0.3-0.9-0.4-1.4-0.4-1.4"/>
		<line class="st14" x1="681.9" y1="546.8" x2="681.9" y2="546.8"/>
		<path class="st14" d="M446.4,551.8L446.4,551.8c1.5,0.3,3,0.5,4.5,0.8h0c0,0,0.1,0,0.1,0h0c3.3,0.6,6.7,1.1,10.3,1.6
			c26.1,3.7,57.6,5.9,91.4,5.9c46.3,0,88-4.1,117.8-10.6h0"/>
		<polyline class="st14" points="582.4,491.3 582.4,491.3 582.4,491.3 		"/>
		<path class="st14" d="M591.6,491.7c-0.1,0-0.1,0-0.1,0"/>
		<line class="st14" x1="494.6" y1="492.9" x2="494.6" y2="492.9"/>
		<line class="st14" x1="493.2" y1="493.1" x2="493.2" y2="493.1"/>
		<line class="st14" x1="536.1" y1="490.9" x2="536.1" y2="490.9"/>
		<line class="st14" x1="575.2" y1="491" x2="575.2" y2="491"/>
		<line class="st14" x1="519.7" y1="491.4" x2="519.7" y2="491.4"/>
		<line class="st14" x1="483.7" y1="493.9" x2="483.7" y2="493.9"/>
		<line class="st14" x1="612.9" y1="496.3" x2="612.9" y2="496.3"/>
		<line class="st14" x1="486.2" y1="496.8" x2="486.2" y2="496.8"/>
		<path class="st14" d="M495.9,496L495.9,496C495.9,496,495.9,496,495.9,496"/>
		<line class="st14" x1="518.3" y1="494.6" x2="518.3" y2="494.6"/>
		<line class="st14" x1="539.9" y1="494" x2="539.9" y2="494"/>
		<path class="st14" d="M607.7,495.9C607.7,495.9,607.7,495.9,607.7,495.9"/>
		<path class="st14" d="M435.1,552.7c-0.1,0-0.2,0-0.3-0.1"/>
		<path class="st17" d="M444.5,554.6c3.5,0.6,7,1.3,10.8,1.8c27.2,4.3,60.9,6.8,97.4,6.8c45.2,0,86.1-3.9,115.7-10.1
			c3.3-0.7,6.5-1.4,9.5-2.2h0"/>
		<line class="st14" x1="606.4" y1="502.7" x2="606.4" y2="502.7"/>
		<line class="st14" x1="475.7" y1="504.9" x2="475.7" y2="504.9"/>
		<path class="st14" d="M679.1,557.6c-0.4,0.1-0.8,0.2-1.2,0.3c-5.7,1.4-11.9,2.8-18.6,4c-28.7,5.2-65.9,8.3-106.6,8.3
			c-41.7,0-79.8-3.3-108.8-8.7c0,0,0,0,0,0c-2.5-0.5-5-1-7.3-1.5h0c-2.6-0.5-5-1.1-7.4-1.7c-3-0.7-5.9-1.5-8.7-2.3c0,0,0,0,0,0h0"/>
		<line class="st14" x1="647.4" y1="519.2" x2="647.4" y2="519.2"/>
		<line class="st14" x1="507.1" y1="514.1" x2="507.1" y2="514.1"/>
		<line class="st14" x1="590.7" y1="513.7" x2="590.7" y2="513.7"/>
		<path class="st16" d="M388.9,545.7c-0.1,0.3-0.1,0.5-0.2,0.8"/>
		<path class="st14" d="M420.3,567.9c3.3,0.9,6.8,1.9,10.5,2.7c9.7,2.3,20.7,4.3,32.9,5.9c25.6,3.5,56.2,5.6,89.1,5.6
			c31.9,0,61.7-1.9,86.9-5.3c16.8-2.2,31.6-5.1,43.6-8.4"/>
		<line class="st14" x1="681.7" y1="526.1" x2="681.7" y2="526.1"/>
		<path class="st14" d="M708.4,558.3C708.4,558.3,708.4,558.3,708.4,558.3"/>
		<path class="st14" d="M678.9,528.5c-0.1,0-0.3-0.1-0.4-0.1"/>
		<path class="st14" d="M394.9,560.1c-0.7-0.6-1.4-1.1-2-1.7c-0.1-0.1-0.2-0.2-0.4-0.3"/>
		<line class="st14" x1="518.8" y1="516.7" x2="518.8" y2="516.7"/>
		<line class="st14" x1="574.1" y1="516.2" x2="574.1" y2="516.2"/>
		<line class="st14" x1="656.7" y1="523.8" x2="656.7" y2="523.8"/>
		<path class="st15" d="M431.3,573.9c11.2,2.6,24.2,4.8,38.7,6.6c24.3,3,52.5,4.7,82.7,4.7c29.2,0,56.7-1.6,80.5-4.5
			c15.5-1.8,29.3-4.2,41.2-7"/>
		<line class="st14" x1="702" y1="564.9" x2="702" y2="564.9"/>
		<path class="st19" d="M674.9,570.6c0,0-4.5,39-49.1,58.4c-44.6,19.5-66,17-74.4,22.3c0,0-54.5-15.4-70.7-20.3s-46.6-34.4-50-60.5"
			/>
		<path class="st14" d="M423.9,568.9l-1.3,5.8c0,0-0.4,1.7-3.8,1l-12-1.5c0,0,17.8,169.6,143.5,169.6h1.5
			c125.8,0,143.5-169.6,143.5-169.6l-12,1.5c-3.4,0.7-3.8-1-3.8-1l-0.8-5.8"/>
		<path class="st14" d="M695.3,574.3l13-18.3c0,0,4.6,71.3-63.1,147.9c0,0-39.9,45-93.5,45S454,701.6,454,701.6
			s-58.9-67.2-59.1-141.5"/>
		<path class="st17" d="M417.6,556.7C417.6,556.7,417.7,556.7,417.6,556.7c0.2-0.1,1.2-0.3,2.6-0.7c0,0,0.1,0,0.1,0c0,0,0,0,0,0
			c0,0,0,0,0,0l0,0c1.4-0.4,3.1-0.8,4.9-1.3c2.9-0.7,5.8-1.3,7.2-1.4c1,0,1.8-0.3,2.4-0.5c0.1,0,0.1-0.1,0.2-0.1
			c1.1-0.6,1.5-1.4,1.5-1.4s0.9-3.5-0.7-5c-0.4-0.4-1.9-1.7-3.9-3.3v0c-2.6-2.2-6.1-5.1-8.7-7.3c-1.7-1.4-3-2.5-3.7-3.1
			c-0.2-0.2-0.4-0.3-0.4-0.3c0,0,0,0,0,0"/>
		<path class="st14" d="M425.8,544.5c0,5.3-2.2,9.8-5.4,11.5l0,0c0,0,0,0,0,0c0,0-0.1,0.1-0.1,0.1c-0.8,0.4-1.7,0.7-2.6,0.7
			c0,0,0,0,0,0h-0.1c-2.2,0-4.3-1.3-5.7-3.5c-1.5-2.2-2.5-5.3-2.5-8.8c0-6.8,3.7-12.2,8.2-12.2c0.1,0,0.3,0,0.4,0
			c0.4,0,0.8,0.1,1.2,0.2c0.1,0,0.3,0.1,0.4,0.1c1.4,0.5,2.7,1.6,3.7,3.1c1.2,1.8,2.1,4.1,2.4,6.7c0,0,0,0,0,0
			C425.7,543.1,425.8,543.8,425.8,544.5z"/>
		<path class="st14" d="M708.4,558.3c0,0,6.7,1.1,8.2,1.8c1.4,0.6,14.8,0,14.8,0l1.2-0.7h2.2"/>
		<path class="st14" d="M393.4,558.3c0,0-6.7,1.1-8.2,1.8c-1.4,0.6-14.8,0-14.8,0l-1.2-0.7H367"/>
		<path class="st14" d="M580.4,364.3C580.4,364.3,580.4,364.3,580.4,364.3"/>
		<line class="st14" x1="524.4" y1="363.8" x2="524.4" y2="363.8"/>
		<path class="st14" d="M734.5,559.4c0.2,4.3,0.3,8.6,0.3,12.9c0,1.2,0,2.3,0,3.5c0,0,0,0,0,0C732.5,690.6,617.5,783,551.1,783
			c-60,0-181.4-92.5-183.8-207.3c0,0,0,0,0,0c0-1.1,0-2.2,0-3.3c0-4.4,0.1-8.7,0.3-13"/>
		<path class="st14" d="M734.5,559.3C734.5,559.4,734.5,559.4,734.5,559.3"/>
		<path class="st14" d="M406.2,442.6C406.2,442.6,406.2,442.6,406.2,442.6L406.2,442.6L406.2,442.6L406.2,442.6"/>
		<line class="st14" x1="608.4" y1="372.1" x2="608.4" y2="372.1"/>
		<path class="st14" d="M707,460.7L707,460.7C707,460.7,707,460.7,707,460.7"/>
		<path class="st14" d="M716.1,479.4c-0.1-0.1-0.1-0.2-0.2-0.4"/>
		<line class="st14" x1="685.4" y1="447.4" x2="685.4" y2="447.4"/>
		<path class="st20" d="M731.9,560.1l-0.4-15.6l-12.7,0.3l-9.2,4.7l-0.8,10.6L693,575.7l-14.7-0.6l1-7.1c0,0,3.3-3.6,8.3-4.5
			s5-12.5,5-12.5s0.9-24,5.4-26.1c4.5-2.2,8-4.7,8.1-9.7c0.1-5-3.9-11.4-9.5-11.7c-5.6-0.3-6.9,2.2-8.8,1.6
			c-1.9-0.6,5.4-15.5,5.4-15.5s2.8-5.8,4.7-6.3c1.9-0.4,0.7-2.2,8.5-3l2.8-0.3c0,0-7-1.2-9.2-20.1c0,0-2.6-21.4-2.1-34.2
			c0.5-12.8,0.7-30.9,1-35.1c0.3-4.2,3.8-27.6,9.3-33.4c0,0-8.4-3.3-12-12.9c0,0-1.3-3.1-1.4-6.8c-0.1-3.7,0.7-17.1-11.5-31.2
			c-12.2-14-20.9-21.9-35.8-17.1c0,0-14.6-12.9-23.2-13.9c0,0-1.2,14.7-35.8,11.7c0,0-32.8-1.4-32.5,0.8c0,0,17,9.6,17.4,22.8
			c0.3,13.2,63,24.5,75.9,48.4s27.2,93.4,19.9,115.9c-7.3,22.5-8,35.9-24.6,31.1s2,34.8,1.3,47.8c-0.6,13-28.3,46.9-6.2,47.1
			c22.1,0.2,38.6,8.9,31.2,23.9c-7.4,15-32.9,103.4-122.4,112.3c0,0-70.4,13.2-106.4-8.1c0,0,2.4,16.7,48.7,44.7l28.3,12.7
			c0,0,30.1,16.4,80.4-5.4c0,0,95.2-47.7,120-120.8c0,0,25-65,14.1-100.9c-0.6-5-1.4-9.9-2.3-14.8"/>
		<path class="st15" d="M734.8,575.8C734.8,575.8,734.8,575.8,734.8,575.8c0.2,4,0.3,7.9,0.3,11.9c0,113.3-116.9,205.2-184.1,205.2
			C490.4,792.9,367,701,367,587.7c0-4,0.1-8,0.3-12c0,0,0,0,0,0"/>
		<polyline class="st14" points="421.1,442.3 421.1,442.3 421.1,442.3 		"/>
		<path class="st16" d="M371.6,541.6c0,0.1,0,0.2-0.1,0.3c-0.2,0.7-0.3,1.4-0.4,2.1"/>
		<line class="st14" x1="590" y1="387.1" x2="590" y2="387.1"/>
		<line class="st14" x1="614.7" y1="395.1" x2="614.7" y2="395.1"/>
		<path class="st14" d="M423,342.4c0,0,10.1-24.4,38.6-41.2"/>
		<path class="st21" d="M425,345.8c0,0,9.7-23.6,37.1-40.3"/>
		<path class="st17" d="M428.9,349.3c0,0,9.1-22,34.3-38.6"/>
		<path class="st15" d="M433.1,353.8c0,0,9-21.8,34-38.3"/>
		<path class="st22" d="M436.6,356c0,0,11.6-20.7,21.6-26.2"/>
		<path class="st15" d="M564.4,764.8c0,0,0.8,2.2,0,4.3c-0.6,1.5-6.4,5.1-9.3,6.9c-1,0.6-2.3,0.8-3.4,0.5c-2.4-0.6-6.7-1.6-8.2-1.3
			l-2.9,2c0,0-3.7,1.2-6.5-1.6c0,0-2.4-2.2-1.2-3.2l5.7-4.9c1.6-2-0.6-5.5,1-6.9c1.6-1.4,10.1-7.7,10.1-7.7s4.9,0.6,6.5,0"/>
		<circle class="st15" cx="562.5" cy="757.7" r="7.9"/>
		<path class="st15" d="M564.7,767.9c0,0,1.6,3.1-2.7,5.9c-4.4,2.7-5.8,3.6-5.8,3.6s-3.9,2.7-6.9,1.3c-3-1.4-7.3,0.4-7.3,0.4
			l-1.8,0.5c-1.6,0.4-3.3-0.2-4.3-1.5l-1.9-2.5"/>
		<path class="st15" d="M648.9,714.4c0,0-1.8-5.5,0.7-8l6.7-6.7c0,0,1.2-0.9,7.8-0.9l4.4-3.2c0,0,2.8-0.4,4.1,1.8
			c1.3,2.2,1.3,2.2-0.9,4.7c0,0-2.5,2.6-0.9,5.1c0,0,0.9,3.9-2.1,6l-6.9,7.1c0,0-5.5-0.6-6.9,0c0,0-4.7,2.2-5,2.7s-5-3.1-4.6-3.9
			C645.7,718.3,649.3,716,648.9,714.4z"/>
		<path class="st15" d="M645.3,719.1c0,0-2.3,1,0.7,3.4l2.9,1.8c0,0,1.4-0.7,2.5-1.2c1.1-0.5,3.6-2.4,7.2-1.4c0,0,2.1,1.1,4.9-2
			l6.7-6.7c0,0,1.3-1.6,0.7-4.2"/>
		<path class="st15" d="M706.5,621.7c0,0-4.4-3.7-3.6-7.1l2.1-9.3c0,0,0.6-1.4,6.1-4.9l2.1-5c0,0,2.2-1.8,4.4-0.7s2.3,1.2,1.7,4.4
			c0,0-0.7,3.5,1.9,4.8c0,0,2.8,2.8,1.4,6.2l-2.1,9.7c0,0-5,2.4-5.8,3.7c0,0-2.8,4.4-2.7,5c0.1,0.6-5.8,0-6-0.9
			C705.9,626.7,707.7,622.8,706.5,621.7z"/>
		<path class="st15" d="M706,627.6c0,0-1.4,2.1,2.4,2.5l3.4-0.1c0,0,0.8-1.3,1.5-2.3s1.8-3.9,5.3-5c0,0,2.4-0.2,3-4.3l2.1-9.3
			c0,0,0.3-2-1.6-3.9"/>
		<path class="st15" d="M454.8,714.4c0,0,1.8-5.5-0.7-8l-6.7-6.7c0,0-1.2-0.9-7.8-0.9l-4.4-3.2c0,0-2.8-0.4-4.1,1.8
			c-1.3,2.2-1.3,2.2,0.9,4.7c0,0,2.5,2.6,0.9,5.1c0,0-0.9,3.9,2.1,6l6.9,7.1c0,0,5.5-0.6,6.9,0c0,0,4.7,2.2,5,2.7
			c0.3,0.5,5-3.1,4.6-3.9S454.4,716,454.8,714.4z"/>
		<path class="st15" d="M458.3,719.1c0,0,2.3,1-0.7,3.4l-2.9,1.8c0,0-1.4-0.7-2.5-1.2c-1.1-0.5-3.6-2.4-7.2-1.4c0,0-2.1,1.1-4.9-2
			l-6.7-6.7c0,0-1.3-1.6-0.7-4.2"/>
		<path class="st15" d="M397.1,621.7c0,0,4.4-3.7,3.6-7.1l-2.1-9.3c0,0-0.6-1.4-6.1-4.9l-2.1-5c0,0-2.2-1.8-4.4-0.7
			c-2.2,1.2-2.3,1.2-1.7,4.4c0,0,0.7,3.5-1.9,4.8c0,0-2.8,2.8-1.4,6.2l2.1,9.7c0,0,5,2.4,5.8,3.7c0,0,2.8,4.4,2.7,5
			c-0.1,0.6,5.8,0,6-0.9C397.8,626.7,396,622.8,397.1,621.7z"/>
		<path class="st15" d="M397.7,627.6c0,0,1.4,2.1-2.4,2.5l-3.4-0.1c0,0-0.8-1.3-1.5-2.3c-0.6-1-1.8-3.9-5.3-5c0,0-2.4-0.2-3-4.3
			l-2.1-9.3c0,0-0.3-2,1.6-3.9"/>
		<path class="st17" d="M734.9,559.3v-13.7c0,0-3.9-1-4.7-1.5v15.9"/>
		<polyline class="st17" points="730.1,544.1 730.1,541.9 718.4,541.9 718.4,544.8 718.4,560.4 718.4,544.8 712.9,544.8 
			712.9,559.3 		"/>
		<polyline class="st17" points="712.9,546 709.2,546 709.2,558.5 		"/>
		<path class="st16" d="M366.9,559v-13.7c0,0,3.9-1,4.7-1.5v15.9"/>
		<polyline class="st16" points="371.6,543.8 371.6,541.6 383.3,541.6 383.3,544.5 383.3,560 383.3,544.5 388.8,544.5 388.8,559 		
			"/>
		<polyline class="st16" points="388.8,545.7 392.5,545.7 392.5,558.2 		"/>
		<path class="st15" d="M576.5,729.1h-49.7c-12.5,0-22.7-10.2-22.7-22.7v0c0-12.5,10.2-22.7,22.7-22.7h49.7
			c12.5,0,22.7,10.2,22.7,22.7v0C599.2,719,589.1,729.1,576.5,729.1z"/>
		<path class="st17" d="M576.3,726.9H527c-11.2,0-20.2-9-20.2-20.2l0,0c0-11.2,9-20.2,20.2-20.2h49.3c11.2,0,20.2,9,20.2,20.2l0,0
			C596.5,717.9,587.5,726.9,576.3,726.9z"/>
		<line class="st14" x1="523.3" y1="694.5" x2="580" y2="694.5"/>
		<line class="st15" x1="536.1" y1="702.2" x2="567.2" y2="702.2"/>
		<line class="st15" x1="527" y1="719" x2="576.3" y2="719"/>
		<polyline class="st14" points="670.7,549 671.6,549.3 671.9,549.3 677.9,550.9 677.9,550.9 677.9,557.9 677.9,557.9 		"/>
		<line class="st14" x1="683.1" y1="568.5" x2="683.1" y2="563.4"/>
		<line class="st14" x1="420.3" y1="567.9" x2="420.3" y2="556"/>
		<polyline class="st14" points="445.5,488.1 439,490.4 439,494.6 427.6,501.4 428.7,509.8 		"/>
		<path class="st15" d="M439,490.4l-14.6,8.1v11.9c0,0-9.1,0.1-9.1,3.9s6.8,4.3,6.8,4.3"/>
		<line class="st14" x1="394.9" y1="561.4" x2="406.8" y2="574.3"/>
	</g>
</g>
<g class="st23">
	<circle class="st24" cx="822.4" cy="253.1" r="0.3"/>
	<path class="st24" d="M823.2,251.4c0,0-2.8,1.4-3,4.4c0,0-0.1,0.5,0.1,1.6c0.2,1.1,0,1.7-0.9,2.8l-0.8,0.9c0,0-0.1,0.1,0.3-0.1
		c0.4-0.2,1.2-1.1,2.1,0.5c0,0,0.1,0.1-0.1-0.6c-0.2-0.7-0.5-1.8,0.8-2.6c1.3-0.8,1.8-4,1.8-4S823.9,252.1,823.2,251.4z"/>
	<path class="st25" d="M822.3,254c0,0,0.9,0.3,1.3-0.2"/>
	<path class="st26" d="M820.4,254.5c0,0-1.3,0.8-1.7,2.1c0,0,0.9-0.4,1.4-0.1"/>
</g>
<g>
	<g>
		<circle class="st27" cx="813.9" cy="227.6" r="0.8"/>
		<path class="st27" d="M816.4,222.5c0,0-8.6,4.2-9.3,13.5c0,0-0.3,1.5,0.4,4.9c0.6,3.4-0.1,5.1-2.8,8.4l-2.4,2.7c0,0-0.2,0.4,1-0.3
			c1.2-0.7,3.7-3.2,6.4,1.5c0,0,0.4,0.2-0.3-1.9c-0.7-2.2-1.5-5.6,2.3-8c3.8-2.3,5.6-12.2,5.6-12.2S818.6,224.7,816.4,222.5z"/>
		<path class="st28" d="M813.6,230.6c0,0,2.9,1,4-0.6"/>
		<path class="st29" d="M807.9,232.1c0,0-4,2.5-5.1,6.4c0,0,2.7-1.3,4.3-0.2"/>
	</g>
	<g>
		<circle class="st30" cx="797.5" cy="150.1" r="0.4"/>
		<path class="st30" d="M798.7,147.6c0,0-4.3,2.1-4.6,6.8c0,0-0.1,0.8,0.2,2.5c0.3,1.7-0.1,2.5-1.4,4.2l-1.2,1.4
			c0,0-0.1,0.2,0.5-0.1c0.6-0.3,1.8-1.6,3.2,0.8c0,0,0.2,0.1-0.2-1s-0.7-2.8,1.2-4s2.8-6.1,2.8-6.1S799.8,148.6,798.7,147.6z"/>
		<path class="st31" d="M797.3,151.6c0,0,1.4,0.5,2-0.3"/>
		<path class="st32" d="M794.5,152.4c0,0-2,1.3-2.5,3.2c0,0,1.3-0.7,2.1-0.1"/>
	</g>
	<g class="st23">
		<circle class="st24" cx="780" cy="234.6" r="0.3"/>
		<path class="st24" d="M780.8,232.9c0,0-2.8,1.4-3,4.4c0,0-0.1,0.5,0.1,1.6c0.2,1.1,0,1.7-0.9,2.8l-0.8,0.9c0,0-0.1,0.1,0.3-0.1
			c0.4-0.2,1.2-1.1,2.1,0.5c0,0,0.1,0.1-0.1-0.6c-0.2-0.7-0.5-1.8,0.8-2.6c1.3-0.8,1.8-4,1.8-4S781.5,233.6,780.8,232.9z"/>
		<path class="st25" d="M779.9,235.6c0,0,0.9,0.3,1.3-0.2"/>
		<path class="st26" d="M778,236.1c0,0-1.3,0.8-1.7,2.1c0,0,0.9-0.4,1.4-0.1"/>
	</g>
	<g class="st23">
		<circle class="st24" cx="780" cy="265.4" r="0.3"/>
		<path class="st24" d="M780.8,263.7c0,0-2.8,1.4-3,4.4c0,0-0.1,0.5,0.1,1.6s0,1.7-0.9,2.8l-0.8,0.9c0,0-0.1,0.1,0.3-0.1
			c0.4-0.2,1.2-1.1,2.1,0.5c0,0,0.1,0.1-0.1-0.6c-0.2-0.7-0.5-1.8,0.8-2.6c1.3-0.8,1.8-4,1.8-4S781.5,264.4,780.8,263.7z"/>
		<path class="st25" d="M779.9,266.4c0,0,0.9,0.3,1.3-0.2"/>
		<path class="st26" d="M778,266.8c0,0-1.3,0.8-1.7,2.1c0,0,0.9-0.4,1.4-0.1"/>
	</g>
	<g class="st23">
		<circle class="st24" cx="823.1" cy="192.2" r="0.3"/>
		<path class="st24" d="M823.9,190.5c0,0-2.8,1.4-3,4.4c0,0-0.1,0.5,0.1,1.6c0.2,1.1,0,1.7-0.9,2.8l-0.8,0.9c0,0-0.1,0.1,0.3-0.1
			c0.4-0.2,1.2-1.1,2.1,0.5c0,0,0.1,0.1-0.1-0.6c-0.2-0.7-0.5-1.8,0.8-2.6s1.8-4,1.8-4S824.6,191.2,823.9,190.5z"/>
		<path class="st25" d="M823,193.2c0,0,0.9,0.3,1.3-0.2"/>
		<path class="st26" d="M821.1,193.7c0,0-1.3,0.8-1.7,2.1c0,0,0.9-0.4,1.4-0.1"/>
	</g>
	<g class="st23">
		<circle class="st24" cx="771.3" cy="209" r="0.3"/>
		<path class="st24" d="M772.1,207.4c0,0-2.8,1.4-3,4.4c0,0-0.1,0.5,0.1,1.6c0.2,1.1,0,1.7-0.9,2.8l-0.8,0.9c0,0-0.1,0.1,0.3-0.1
			c0.4-0.2,1.2-1.1,2.1,0.5c0,0,0.1,0.1-0.1-0.6c-0.2-0.7-0.5-1.8,0.8-2.6c1.3-0.8,1.8-4,1.8-4S772.9,208.1,772.1,207.4z"/>
		<path class="st25" d="M771.2,210c0,0,0.9,0.3,1.3-0.2"/>
		<path class="st26" d="M769.4,210.5c0,0-1.3,0.8-1.7,2.1c0,0,0.9-0.4,1.4-0.1"/>
	</g>
	<g class="st23">
		<circle class="st24" cx="825.5" cy="160.1" r="0.3"/>
		<path class="st24" d="M826.3,158.4c0,0-2.8,1.4-3,4.4c0,0-0.1,0.5,0.1,1.6c0.2,1.1,0,1.7-0.9,2.8l-0.8,0.9c0,0-0.1,0.1,0.3-0.1
			s1.2-1.1,2.1,0.5c0,0,0.1,0.1-0.1-0.6c-0.2-0.7-0.5-1.8,0.8-2.6c1.3-0.8,1.8-4,1.8-4S827.1,159.1,826.3,158.4z"/>
		<path class="st25" d="M825.4,161.1c0,0,0.9,0.3,1.3-0.2"/>
		<path class="st26" d="M823.6,161.6c0,0-1.3,0.8-1.7,2.1c0,0,0.9-0.4,1.4-0.1"/>
	</g>
	<g class="st33">
		<circle class="st27" cx="803.1" cy="185.9" r="0.8"/>
		<path class="st27" d="M805.4,181.1c0,0-8.1,3.9-8.7,12.6c0,0-0.3,1.4,0.3,4.6c0.6,3.2-0.1,4.7-2.6,7.9l-2.3,2.6
			c0,0-0.2,0.4,0.9-0.3s3.5-3,6,1.4c0,0,0.4,0.2-0.3-1.8c-0.7-2-1.4-5.3,2.2-7.5c3.6-2.2,5.3-11.4,5.3-11.4S807.4,183.1,805.4,181.1
			z"/>
		<path class="st28" d="M802.7,188.7c0,0,2.7,0.9,3.7-0.6"/>
		<path class="st29" d="M797.4,190.1c0,0-3.8,2.4-4.8,6c0,0,2.5-1.2,4-0.2"/>
	</g>
	<g class="st33">
		<circle class="st27" cx="751.9" cy="256.5" r="0.8"/>
		<path class="st27" d="M754.2,251.7c0,0-8.1,3.9-8.7,12.6c0,0-0.3,1.4,0.3,4.6c0.6,3.2-0.1,4.7-2.6,7.9l-2.3,2.6
			c0,0-0.2,0.4,0.9-0.3s3.5-3,6,1.4c0,0,0.4,0.2-0.3-1.8c-0.7-2-1.4-5.3,2.2-7.5c3.6-2.2,5.3-11.4,5.3-11.4S756.3,253.7,754.2,251.7
			z"/>
		<path class="st28" d="M751.5,259.3c0,0,2.7,0.9,3.7-0.6"/>
		<path class="st29" d="M746.2,260.7c0,0-3.8,2.4-4.8,6c0,0,2.5-1.2,4-0.2"/>
	</g>
</g>
<g>
	<path class="st27" d="M763.4,501.6c1.5-2.6,14,0.5,17.4,13c3.4,12.4-3.1,15.8,1,20.5s10.7-2.6,11.7-4.5c0,0,0.3-0.5,0.2,0.2
		c-0.1,0.6,0.1,4-1.1,5.9c-1.2,1.8,9,1.5,11.4,0.2c0,0,1.1-0.1-1.2,1.3c0,0-20.2,14.3-34.4-9.7C768.2,528.2,758.1,510.8,763.4,501.6
		z"/>
	<path class="st27" d="M779.9,512c0,0,8.3,0.9,9.5,9.5c0,0-7.1-0.4-8,4.1"/>
	<path class="st27" d="M765.5,522.7c0,0-2.8,5.4,0.3,9.8c0,0,1-3.3,2.7-3.8"/>
	<path class="st28" d="M763.4,517c0,0,5.3,6.3,12.4-0.4"/>
	<ellipse transform="matrix(0.2896 -0.9571 0.9571 0.2896 59.3494 1099.9613)" class="st27" cx="770.7" cy="510" rx="2" ry="1.7"/>
</g>
<g>
	<path class="st0" d="M789.9,717.7c-2.7-2.1-5.8-3-9.1-3.3c-2.4-0.3-5.4,0.1-6.7-2.4c-0.5-1-0.4-2.3,0.1-3.3
		c0.3-0.5,0.8-1.2,1.4-1.6c0.3-0.2,0.7-0.4,1-0.5c-1-0.4-2,0.2-2.9,0.8c-1.1,0.8-2,1.8-2.5,3c-1,2.2-0.6,5.2,1.4,6.7
		c1.7,1.4,4.3,1.2,6.4,1.5c2.4,0.3,4.5,1.4,6.1,3.2c1.6,1.8,2.2,4.4,0.7,6.4c-1.1,1.5-2.7,1.9-4.5,1.9c-1.6,0-3.1-0.1-4.7,0.3
		c-2.7,0.6-5.2,2.6-6.4,5.1c-1,2.2-0.8,4.6-0.5,6.9c0.2,1.7,0.4,3.4,0.2,5.1c-0.1,1.9-0.4,4.1-1.7,5.6c-1.2,1.5-3.2,2.8-4.9,1.2
		c-1.7-1.6-1.8-4.7-1.8-6.8c0.1-4.1,2.1-7.9,3-11.8c0.9-3.9,0.9-8.2-0.6-11.9c-1.7-4-5.2-7.9-9-10.5c-0.8-0.6-1.7-1.1-2.6-1.5
		c-4.7-2.4-10.2-3.4-15.4-2.8c-2.8,0.3-5.9,1-8.6,2.1c-12.8,5.1-24.5,19.2-22.8,33.7c1,8.6,7.3,13.9,15.3,16
		c3.4,0.9,6.9,1.6,10.4,1.7c1.9,0,7.1,0.8,7.2,0.8c1,0.2,1.9,0.6,2.8,1.2c0.8,0.6,1.5,1.4,2,2.3c-0.2-0.3-0.5-0.6-0.7-0.8
		c0.7,0.8,1.1,1.8,1.2,3.1c0.1,1.4-1.2,2.4-2.3,3.1c-1.4,0.8-3.1,1-4.7,0.8c-2-0.3-3.8-1.3-5.5-2.4c-0.7-0.4-1.4-0.7-2.1-1.1
		c-2.2-1-4.4-1.5-6.7-0.8c-2.4,0.7-4.6,2.3-6.2,4.2c-2.7,3.4-3.7,7.6-2.6,11.8c0.8,3.1,2.5,5.9,5,7.8c1.8,1.1,3.8,1.6,5.8,2.1
		c2.5,0.6,4.9,1.3,6.6,3.4c0.9,1.1,1.7,2.9,1.8,4.6c0,0.6-0.1,1.2-0.3,1.8c0,0.1,0,0.1-0.1,0.2c-0.1,0.2-0.2,0.4-0.3,0.6
		c-0.1,0.1,0,0.2,0,0.2c-0.6,1.2-1.7,2-2.9,2.6c-2.8,1.5-6.3,1.7-8.1,4.6c-1.4,2.3-1.5,5.5,0.1,7.6c1.5,2,4.4,3,6.9,2.8
		c-1.1-0.2-2.1-0.6-2.9-1.2c-0.2-0.1-0.3-0.2-0.5-0.3c-0.1,0-0.1-0.1-0.2-0.1c-0.3-0.2-0.5-0.4-0.6-0.7c-1.1-1.2-1.5-2.8-0.6-4.5
		c1.6-3.1,5.1-3.9,8-5.1c2.5-1,4.9-2.4,6.3-4.7c1.5-2.5,1.2-5.9,0-8.5c-1.3-2.8-3.9-4.8-6.6-6.2c-1.5-0.8-3.1-1.2-4.5-2.1
		c-1.6-1-2.8-2.6-3.4-4.4c-1-3.1,1.9-5.5,4.4-6.6c1.3-0.6,2.8-0.8,4.2-0.4c1.8,0.5,3,1.9,4.3,3.1c1.2,1.1,2.5,2,4.2,1.8
		c0.2,0,0.5-0.1,0.8-0.2c-0.2,0.7-0.4,1.5-0.4,2.2c0,1.3,0.6,2.6,1.2,3.7c0.7,1.3,1.6,2.6,2.6,3.7c1.2,1.5,2.6,2.8,3.9,4.2
		c1,1.1,1.9,2.3,2.2,3.7c0.3,1.2,0,2.4-0.6,3.4c-1.8,3-5.5,4.2-7.7,6.9c-1.8,2.2-2.3,5.4-1.4,8c0.9,2.5,3,5,5.8,5
		c0.1,0,0.1,0,0.1-0.1c-0.2-0.1-0.4-0.3-0.6-0.4c-0.5-0.4-0.9-0.8-1.3-1.3c-0.7-1-1.4-2-1.5-3.2c-0.3-1.3,0-2.5,0.7-3.7
		c1.6-2.7,4.6-3.8,7.2-5.3c2.6-1.5,4.9-3.4,5.6-6.4c0.6-2.8-0.6-5.6-1.9-8c-1.1-2.1-2.3-4.2-2.5-6.6c-0.1-1.1,0.2-2.1,0.7-3
		c0.1-0.1,0.2-0.2,0.3-0.3c0,0,0,0,0,0c0.4,0.7,0.6,1.5,1,2.2c0.4,0.7,1.2,1.2,1.8,1.6c1.5,1,3.2,1.8,4.7,2.8c1.5,1.1,2.8,2.4,3.6,4
		c0.8,1.7,0.8,3.7,0.9,5.5c0.1,1.4,0.3,2.9,1.1,4.1c0.9,1.3,2.4,1.9,3.8,2.1c2.8,0.5,5.6-0.6,7.7-2.5c0.3-0.3,0.6-0.6,0.9-0.9
		c0,0,0,0,0,0c0.1-0.2,0.3-0.4,0.4-0.7c0.6-0.9,2-0.9,2.8-0.2c0.8,0.6,0.8,1.6,0.5,2.4c0,0,0,0,0,0c0,0,0,0,0.1-0.1
		c1.7-0.7,1.2-3.2,0.2-4.3c-1.6-1.7-4.3-1.1-6.1,0c-1.4,0.5-2.7,1.3-4.3,0.6c-1.4-0.6-2.2-2.1-2.2-3.6c0-2.7,1.1-5.2,1.1-7.9
		c0-2.9-2-5.6-4.6-6.9c-1.6-0.8-3.3-1.1-4.7-2.3c-1.2-1.1-1.7-2.7-1.6-4.3c0.2-2.2,1.8-4,3.3-5.5c2.4-2.5,5.1-2.9,8.2-1.5
		c1,0.4,2,1,2.8,1.7c1.4,1,2.7,2.4,3.6,3.9c0.3,0.9,0.5,1.9,0.6,2.9c0.1,1.6-0.3,3.2-0.5,4.8c-0.2,1.5-0.2,2.9,0.3,4.3
		c0.4,1.2,1.4,2.3,2.4,3c3.9,2.9,9.2,0.7,11.6-3c0.5-0.8,0.9-1.7,1.2-2.6c0.5-1.1,0.9-2.2,1.6-3.2c0.6-1,1.4-1.9,2.5-2.3
		c1.2-0.4,2.3-0.1,3.1,0.8c1.5,1.6,1.9,3.8,1.2,5.8c-0.1,0.4-0.3,0.8-0.6,1.2c-0.2,0.4-0.5,0.8-0.7,1.1c0.6-0.4,1.2-0.8,1.7-1.3
		c1.1-1.1,1.9-2.6,2.1-4.2c0.3-2.5-0.8-5-2.4-6.8c-1.6-1.8-4-3.2-6.4-2.2c-2.2,0.9-3.4,3.3-4.3,5.4c-0.5,1.2-0.9,2.6-1.8,3.5
		c-0.5,0.5-1.1,0.7-1.8,0.6c-1-0.2-1.5-0.9-1.6-1.8c-0.1-1.4,0.5-3,0.9-4.3c0.4-1.4,0.8-2.8,1-4.3c0.5-2.7,0.2-5.4-1.1-7.8
		c-1.6-2.9-4.4-5.1-7.6-6.1c-0.8-0.3-1.7-0.4-2.6-0.5c0.2-0.9,0.3-1.7,0.5-2.6c0.5-2.9,1.5-5.7,3.3-8.1c1.8-2.4,5.3-5.1,8.4-3.5
		c2.9,1.5,4.4,4.7,4.6,7.8c0.2,2.9-0.5,5.9,0.5,8.7c0.4,1.2,1.2,2.2,2.2,3c1.1,0.8,2.4,0.9,3.8,0.8c1.6-0.1,3.1-0.5,4.7-0.7
		c1.7-0.1,3.5,0.2,5,1.1c3.4,2,0.7,6.8-1.4,8.7c-0.1,0.1-0.2,0.2-0.3,0.2c0,0,0,0,0,0c-0.3,0.3-0.6,0.5-0.9,0.6c0,0,0,0,0,0l0,0
		c0,0,0.1,0,0.1,0c0.3-0.1,0.6-0.1,0.9-0.1c3.7-0.8,7.1-4.3,7.1-8c0-2.7-2.1-5.2-4.3-6.6c-1.3-0.8-3-1.4-4.6-1.5
		c-1.5-0.2-3.4,0.2-4.4-1.3c-0.8-1.3-0.4-3.1,0-4.5c0.4-1.4,0.8-2.8,0.9-4.3c0.1-3.1-1.6-6-3.8-8.1c-2.4-2.3-5.7-3-8.8-3.5
		c-1.1-0.2-2.2-0.3-3.3-0.2c1.3-0.4,2.3-1.2,3.3-2.1c0.2-0.2,0.3-0.4,0.5-0.6c0,0,0.1,0,0.1-0.1c2.1-2,3.7-5.2,3.5-8.1
		c-0.1-1.6-1-3.2-1.8-4.5C792.4,720,791.2,718.8,789.9,717.7z"/>
	<path class="st0" d="M753.5,785.3c0,0,2.8-7,10.4-13.7"/>
	<path class="st0" d="M741.1,782.9c0,0,5.5-8.7,2.3-15.6"/>
	<path class="st0" d="M787.9,736.8c0,0-7.3,2.9-10.1,22.2"/>
	<circle class="st0" cx="717.9" cy="743.8" r="3.7"/>
	<path class="st1" d="M740.9,714.6c0,0,20.3,3.4,19.2,18.7"/>
	<path class="st34" d="M741,718.6c0,0,15.2,2.6,14.4,14"/>
	<path class="st5" d="M741.5,724.3c0,0,8.4,1.4,8,7.8"/>
</g>
<g>
	<path class="st30" d="M316.8,751.8c-0.3-1.6-0.3-3.1,0.5-4.5c0.2-0.4,0.5-0.7,0.7-1c0.4-0.5,0.7-0.9,1-1.4c0.6-0.9,1.1-1.8,1.5-2.8
		c0.6-1.5,0.9-3.1,0.7-4.8c-0.1-1.6-0.7-3.2-1.2-4.8c-1-2.7-3-6.6-0.9-9.1c-2.9-0.1-5.5-1.4-7.8-2.9c-1.2-0.8-2.4-1.7-3.6-2.6
		c-0.5-0.3-1-0.6-1.5-0.9c0,0,0,0.1-0.1,0c-0.5-0.2-1-0.2-1.5-0.2c-0.5,0-1,0.1-1.5,0.1c-0.9,0-1.9-0.1-2.8-0.3
		c-1.8-0.4-3.4-1.4-4-3.2c0,0,0.1-0.1,0.1,0c0.1,0.2,0.2,0.4,0.4,0.6c0,0,0.1,0,0.1,0c0.6,0.6,1.1,1.1,1.9,1.4
		c0.7,0.2,1.4,0.3,2.1,0.2c1.8-0.1,3.6-0.5,5.4-0.7c1.8-0.2,3.6-0.3,5.4-0.1c1.8,0.2,3.5,0.9,5.1,1.8c2,1.2,3.6,3.1,5,5
		c0-0.1,0-0.2,0-0.2c0,0,0,0,0,0c-0.1-0.9-0.4-1.8-0.9-2.6c-0.5-0.9-0.9-1.8-1.5-2.6c-0.6-0.9-1.4-1.9-1.9-2.9c0,0,0,0,0,0
		c0,0,0-0.1-0.1-0.1c0,0,0-0.1,0-0.1c0-0.1-0.1-0.2-0.1-0.3c0,0,0,0,0,0c0-0.1-0.1-0.2-0.1-0.3c0,0,0,0,0-0.1c0-0.1,0-0.2-0.1-0.3
		c0,0,0-0.1,0-0.1c0-0.1,0-0.2,0-0.2c0,0,0-0.1,0-0.1c0-0.1,0-0.2,0-0.3c0,0,0-0.1,0-0.1c0-0.1,0-0.2,0-0.3c0.1-1.6,1.3-2.8,2.2-4
		c1.4-1.7,2.8-3.3,4.6-4.6c0.1-0.1,0.2-0.2,0.3-0.2c0,0,0,0,0.1,0c0.1-0.1,0.2-0.1,0.3-0.2c0,0,0,0,0,0l0,0c0.5-0.3,1-0.6,1.5-0.8
		c0.6-0.4,1.2-0.7,1.9-1c0.4-0.2,0.9-0.5,1.4-0.6c-3.1,0.3-5.9,1.8-8.4,3.6c-1.5,1.1-2.9,2.4-4.5,3.4c-1.5,0.9-3.2,1.7-5,1.9
		c-0.1,0-0.2-0.1,0-0.2c0.6-0.1,1.2-0.3,1.8-0.5c3-2.2,5.7-4.9,8.9-6.8c2.6-1.5,5.7-2.6,8.7-2.2c-0.3-0.1-0.6-0.1-0.9-0.2
		c-0.1,0-0.3,0-0.5,0c0,0-0.1,0-0.1,0c-0.2,0-0.3,0-0.5,0c0,0,0,0,0,0c-0.2,0-0.3,0-0.5,0c0,0,0,0-0.1,0c-0.2,0-0.3,0-0.5,0
		c0,0-0.1,0-0.1,0c-0.2,0-0.3,0-0.5,0.1l0,0c-0.2,0-0.3,0.1-0.5,0.1c0,0,0,0-0.1,0c-0.2,0-0.3,0.1-0.5,0.1c0,0,0,0-0.1,0
		c-0.2,0-0.3,0.1-0.4,0.1c-2.3,0.4-4.4,1.2-6.4,2.4c-4,2.3-6.8,6.1-11,8.1c-2.7,1.3-5.8,1.4-8.8,0.8c0,0,0,0,0,0
		c-1.5,0.1-3-0.1-4.4-0.7c-1.4-0.6-2.4-1.8-2.9-3.2c0,0-0.1-0.1-0.1-0.1c0-0.1,0-0.1,0-0.2c-0.1-0.3-0.1-0.5-0.2-0.8
		c0-0.1,0.1-0.1,0.1,0c0.1,0.4,0.2,0.7,0.3,1c2.4,2.6,6.2,1.9,9.1,0.6c2.2-0.9,4.1-2.3,6-3.7c1.9-1.3,3.8-2.5,5.9-3.5
		c1.9-0.9,3.9-1.7,6-2.3c2-0.5,4-0.8,6-0.9c4-0.2,8,0.1,11.8,1.4c0.6,0.2,1.2,0.5,1.8,0.8c0,0,0.1-0.1,0.1,0
		c0.3,0.1,0.5,0.3,0.8,0.4c0,0,0,0,0,0c1.8,1,3.6,1.9,5.4,2.8c0.9,0.5,1.8,0.9,2.7,1.4c0,0,0,0,0,0c0.4,0.2,0.8,0.4,1.2,0.6
		c0.1,0,0.2,0.1,0.3,0.1c0.4,0.2,0.8,0.4,1.2,0.6c0.2,0.1,0.3,0.1,0.5,0.2c0.1,0,0.2,0.1,0.4,0.1c0.6,0.2,1.2,0.4,1.8,0.6
		c0.2,0.1,0.4,0.1,0.6,0.1c0,0,0.1,0,0.1,0c0.2,0,0.4,0.1,0.6,0.1c0,0,0.1,0,0.1,0c0.2,0,0.4,0.1,0.6,0.1c0,0,0.1,0,0.1,0
		c0.2,0,0.5,0,0.7,0.1l0,0c0,0,0.1,0,0.1,0c1,0,2.1,0,3.2-0.3c0.6-0.1,1.1-0.3,1.7-0.5l0,0c0.5-0.2,1-0.5,1.5-0.8c0,0,0,0,0,0
		c0.2-0.4,0.4-0.7,0.6-1.2c0.2-0.5,0.2-1.1,0.5-1.7c0.1-0.3,0.4-0.8,0.7-0.9c0.2-0.1,0.3-0.1,0.4,0c1.2,0.2,1.1,1.8,1,2.7
		c-0.1,0.6-0.2,1.2-0.3,1.8c0,0.3,0,0.5,0,0.8c0.1,0.6,0.8,0.7,1.2,1.1c0.5,0.6,0.1,1.5-0.6,1.7c-0.5,0.2-1.1,0.1-1.6,0.1
		c-0.5,0-0.9,0.1-1.3,0.2c-0.2,0.1-0.4,0.2-0.6,0.3c0,0,0,0,0,0c-0.8,0.4-1.5,0.9-2.1,1.4l0,0c-0.9,0.7-1.7,1.5-2.4,2.3
		c-0.5,0.5-1,1.1-1.5,1.7c-0.6,0.7-1.2,1.5-1.7,2.2c0,0,0,0,0,0c-0.4,0.5-0.7,1-1.1,1.5c-1.3,1.8-2.5,3.5-3.8,5.3c0,0,0,0,0,0
		c0,0.1-0.1,0.1-0.1,0.2c-0.2,0.2-0.3,0.4-0.5,0.6c-0.1,0.1-0.2,0.2-0.3,0.4c-0.1,0.1-0.1,0.2-0.2,0.3c-0.2,0.2-0.3,0.4-0.5,0.5
		c0,0,0,0,0,0c-0.2,0.3-0.5,0.5-0.7,0.8c-0.3,0.4-0.7,0.7-1.1,1.1l0,0c0,0,0,0,0,0c-0.1,0.1-0.2,0.1-0.2,0.2c0,0-0.1,0.1-0.1,0.1
		c-0.1,0.1-0.2,0.2-0.3,0.2c0,0,0,0-0.1,0.1c-0.1,0.1-0.2,0.2-0.3,0.3c0,0,0,0,0,0c-0.1,0.1-0.2,0.2-0.4,0.3c0,0-0.1,0.1-0.1,0.1
		c-0.9,1.1-2,2-3.1,2.9c-1.6,1.2-3.1,2.5-4.3,4.1c-2.2,3-3.1,6.8-3.8,10.4c-0.2,1.1-0.4,2.1-0.8,3.2c-0.3,1-0.6,2-1.2,2.8
		c-0.5,0.8-1.2,1.5-1.9,2.1c-0.2,0.2-0.5,0.3-0.7,0.5c0.2-0.2,0.4-0.4,0.5-0.6c0,0,0,0,0,0c0.9-1.1,1.5-2.3,2-3.7
		c0.6-1.9,0.8-3.8,1-5.7c0.2-1.8,0.5-3.7,1.3-5.4c0.9-1.9,2.2-3.6,3.6-5.2c0.2-0.3,0.5-0.5,0.7-0.8c-0.1,0.1-0.2,0.2-0.3,0.2
		c-0.7,0.5-1.4,1-2,1.6c-1.9,2.3-3.1,5.1-4.7,7.6c-0.1,0.1-0.2,0.3-0.2,0.4c0,0,0,0.1,0,0.1c-0.1,0.1-0.2,0.3-0.3,0.4c0,0,0,0,0,0.1
		c-0.1,0.1-0.2,0.3-0.3,0.4l0,0c-0.1,0.1-0.2,0.3-0.3,0.4c0,0,0,0,0,0c-0.1,0.1-0.2,0.3-0.3,0.4c0,0,0,0,0,0
		c-0.1,0.1-0.2,0.3-0.3,0.4c0,0,0,0,0,0c-0.1,0.1-0.2,0.3-0.4,0.4c0,0,0,0,0,0c-0.1,0.1-0.2,0.2-0.3,0.4c0,0,0,0,0,0c0,0,0,0,0,0
		c-1.4,1.4-3.1,2.5-5.1,2.6c-0.4,0.1-0.9,0.1-1.3,0c0.7,0,1.4-0.1,2-0.4c1.3-0.4,2.4-1.3,3.4-2.3c1.3-1.4,2.2-3,2.9-4.7
		c0.8-1.7,1.4-3.5,2.2-5.2c0.6-1.4,1.5-3,2.8-3.8c-2,0.3-4.1-0.2-6-0.9c-0.2-0.1-0.4-0.2-0.6-0.3c0,0,0,0-0.1,0
		c-0.9-0.4-1.8-1-2.7-1.6c-1-0.7-1.8-1.6-2.6-2.5c0,0,0,0,0,0c-0.1-0.1-0.2-0.3-0.3-0.4c0.2,0.4,0.4,0.8,0.6,1.2
		c0.4,0.8,0.8,1.7,1,2.6c0.6,1.9,0.6,3.9,0.1,5.8c-0.4,1.9-1.4,3.8-2.5,5.3c-1.3,1.7-3,2.9-4.4,4.4c-1.2,1.3-2.2,3-1.8,4.7
		c0,0.1-0.1,0.1-0.1,0.1c0,0.3,0.1,0.6,0.1,0.9C317,751.9,316.9,751.9,316.8,751.8z"/>
	<g class="st33">
		<path class="st30" d="M359.1,706.4c0.6-0.1,1.1-0.3,1.6-0.5c-0.1,0.3-0.2,0.5-0.2,0.8c0,0.7,0.2,1.3,0.6,1.9
			c0.3,0.5,0.7,1,1.1,1.4c-0.8,0.4-1.5,0.8-2.1,1.3C358.8,709.8,357.8,707.8,359.1,706.4z"/>
		<path class="st30" d="M353.9,716.4c-0.6-1.2-1.2-2.4-1.7-3.7c-0.3-0.7-0.5-1.5-0.4-2.3c0.1-0.8,0.6-1.4,0.9-2.1
			c0.4-0.7,0.4-1.5,0.2-2.2c1,0.3,1.9,0.5,3,0.5c0.1,0.4,0.1,0.7,0.1,1.1c0.1,0.8-0.1,1.5-0.4,2.3c-0.4,1.3-0.4,2.5,0,3.7
			c0.2,0.5,0.3,1,0.5,1.5c-0.6,0.7-1.2,1.4-1.8,2.2C354.2,717.1,354,716.7,353.9,716.4z"/>
		<path class="st30" d="M343.8,713c-0.1,1.4-1,2.5-1,3.9c0,1.8,0.6,3.6,1.4,5.1c0.8,1.5,1.8,3,3,4.3c0.7-0.8,1.4-1.5,2.1-2.3
			c0,0,0.1-0.1,0.1-0.1c-0.4-0.6-0.7-1.2-1-1.9c-0.4-0.9-0.5-1.9-0.8-2.8c-0.3-0.8-0.8-1.5-1.1-2.3c-0.3-0.6-0.3-1.3-0.4-2
			c0-0.6,0-1.2,0-1.8"/>
		<path class="st30" d="M347.7,706.7c1-0.6,2.3-1,3.4-1.2c0.1,0,0.1,0,0.2,0c-0.3-0.1-0.6-0.3-0.9-0.4c-1.1-0.5-2.3-1.1-3.4-1.7
			c-0.2,0-0.3,0.1-0.5,0.1c-0.6,0.1-1,0.5-1.5,0.9"/>
		<path class="st30" d="M335.4,722.7c-0.1,0.3-0.1,0.6-0.2,0.9c-0.8,2.8-1.6,5.8,0.5,8.2c-0.1,0.1-0.3,0.2-0.5,0.2
			c-0.4-0.7-1-1.2-1.4-1.9c-0.5-0.6-0.8-1.4-0.9-2.2c-0.2-1.4,0-2.8-0.1-4.2c-0.1-1.3-0.6-2.4-1.1-3.5c0,0,0,0,0,0"/>
		<path class="st30" d="M331.1,713.6c0.1-1.4,0-2.8-0.2-4.2c-0.2-1.8-0.5-3.5-0.1-5.2c0.2-0.8,0.6-1.5,0.7-2.3c0.1-0.5,0.1-1,0-1.5
			c-0.1-0.5-0.2-1-0.5-1.3c-0.2-0.2-0.4-0.2-0.7-0.3l0,0c-0.2,0-0.4-0.1-0.6-0.1c0,0-0.1,0-0.1,0c0,0,0,0,0,0.1
			c-0.3,0-0.6-0.1-0.9-0.1c0,0,0,0,0,0c-1.1,0-2.1,0.2-3.1,0.3c-1,0.2-1.9,0.4-2.8,0.7c0,0,0,0,0,0c-1.2,0.4-2.4,0.9-3.5,1.5
			c-3.9,2.1-6.8,5.8-11,7.7c-2.7,1.2-5.8,1.3-8.6,0.6c0,0,0,0,0,0c-1.5,0-2.9-0.2-4.3-0.8c-0.7-0.4-1.4-0.9-1.9-1.6l0,0
			c-0.4-0.5-0.7-1.1-0.9-1.7c0,0-0.1-0.1-0.1-0.1c0-0.1,0-0.1,0-0.2c-0.1-0.3-0.1-0.5-0.1-0.8c0-0.1,0.1-0.1,0.1,0
			c0.1,0.4,0.2,0.7,0.3,1c2.3,2.6,6.1,2,9,0.8c2.1-0.9,4.1-2.2,6-3.5c1.9-1.2,3.8-2.3,5.8-3.3c1.9-0.9,3.9-1.6,5.9-2.1
			c0.2,0,0.3-0.1,0.5-0.1l0,0c1.8-0.4,3.6-0.6,5.5-0.6c3.9-0.1,7.9,0.3,11.6,1.7c0.6,0.2,1.2,0.5,1.8,0.8c0,0,0.1-0.1,0.1,0
			c0.3,0.1,0.5,0.3,0.7,0.4c-2.4,0.5-4.4,2.2-4.8,4.7c-0.2,1.5,0.1,3,0.3,4.5c0.2,1.8,0.1,3.5-0.1,5.3c-0.1,0.6-0.2,1.1-0.2,1.7"/>
		<path class="st30" d="M315.8,750.7c-0.2-1.5-0.3-3.1,0.6-4.5c0.2-0.4,0.5-0.7,0.7-1c0.4-0.4,0.7-0.9,1.1-1.4
			c0.6-0.8,1.1-1.7,1.5-2.7c0.6-1.5,0.9-3.1,0.8-4.7c-0.1-1.6-0.6-3.2-1.1-4.7c-0.9-2.6-2.8-6.5-0.6-9c-2.8-0.2-5.3-1.5-7.6-3.1
			c-1.2-0.8-2.3-1.7-3.5-2.6c-0.5-0.4-1-0.6-1.5-0.9c0,0,0,0.1-0.1,0c-0.5-0.3-1-0.3-1.5-0.2c-0.5,0-1,0-1.4,0
			c-0.9,0-1.8-0.1-2.7-0.3c-1.7-0.4-3.3-1.5-3.9-3.2c0,0,0.1-0.1,0.1,0c0.1,0.2,0.2,0.4,0.3,0.6c0,0,0.1,0,0.1,0
			c0.5,0.6,1.1,1.1,1.8,1.4c0.6,0.3,1.3,0.3,2,0.3c1.8-0.1,3.5-0.4,5.3-0.5c1.8-0.2,3.5-0.2,5.3,0.1c1.8,0.3,3.4,0.9,5,1.9
			c2,1.3,3.4,3.1,4.8,5c0-0.1,0-0.2,0-0.2c1,1.8,1.7,3.7,2.4,5.6c-0.1-0.1-0.2-0.3-0.3-0.4c0.1,0.4,0.4,0.8,0.5,1.2
			c0.4,0.8,0.7,1.7,1,2.6c0.5,1.9,0.5,3.8,0,5.7c-0.5,1.8-1.4,3.7-2.6,5.2c-1.3,1.6-3,2.8-4.4,4.3c-1.2,1.2-2.2,2.9-1.9,4.6
			c0,0.1-0.1,0.1-0.1,0.1c0,0.3,0,0.6,0.1,0.9C315.9,750.8,315.8,750.8,315.8,750.7z"/>
		<path class="st30" d="M329.3,731.2c-0.4-0.2-0.8-0.4-1.2-0.6c-0.8-0.9-1.4-1.9-1.7-3.1c-0.3-1.1-0.7-1.9-1.3-2.8
			c-0.6-1-0.9-2.1-1.3-3.2c-0.3-0.9-0.7-1.5-1.4-2.1c-0.5-0.4-1-0.7-1.4-1.1c-0.4-0.5-0.6-1-0.8-1.6c-0.5-1.6-1.6-2.8-3-3.7
			c-0.3-0.7-0.5-1.5-0.5-2.3c0.1-1.5,1.3-2.7,2.3-3.9c1.4-1.6,2.9-3.2,4.6-4.4c0.2-0.2,0.5-0.3,0.7-0.5c-1,0.9-1.8,2-2,3.3
			c-0.1,0.8-0.1,2.1,0.8,2.1c-1.2,1.3,0.3,3.4,0.8,4.8c0.4,1.3,0.5,2.9,1.4,4c0.5,0.6,1.1,1,1.5,1.6c0.5,0.7,0.7,1.5,0.8,2.3
			c0.1,0.8,0.2,1.6,0.4,2.3c0.2,0.6,0.5,1.2,0.7,1.8c0.2,1,0,2.2,0.1,3.3c0.1,1.4,0.5,3.2,1.5,4.3
			C330.1,731.5,329.7,731.3,329.3,731.2z"/>
		<path class="st30" d="M338.9,717.9c0-0.8,0-1.5-0.1-2.3c-0.1-0.9-0.2-1.8-0.2-2.7c0.3,0.5,0.6,1.1,0.8,1.6
			c0.4,1.1,0.6,2.2,0.6,3.3c0,0.1,0,0.2,0,0.3"/>
		<path class="st30" d="M340.4,720.8c0.3,0.7,0.6,1.4,1.1,2c0.5,0.8,1.1,1.5,1.7,2.2c0.7,0.8,1.6,1.4,2.3,2.2
			c0.1,0.1,0.2,0.2,0.4,0.4c-0.4,0.4-0.9,0.8-1.4,1.2c0,0-0.1,0-0.1,0.1c-0.9,1.1-2,2-3.1,2.8c-1.6,1.2-3.1,2.4-4.3,4
			c-2.1,2.7-3.1,6-3.8,9.3c-0.1,0.3-0.1,0.5-0.2,0.8c-0.2,1.1-0.5,2.1-0.8,3.1c-0.3,0.9-0.7,1.9-1.2,2.8c-0.5,0.8-1.2,1.5-1.9,2
			c-0.2,0.1-0.5,0.3-0.7,0.4c0.2-0.2,0.4-0.4,0.5-0.6c0,0,0,0,0,0c0.9-1,1.6-2.2,2-3.6c0.6-1.8,0.8-3.7,1.1-5.6
			c0.1-0.9,0.3-1.8,0.5-2.7c0.2-0.9,0.5-1.7,0.9-2.5c0.9-1.9,2.2-3.5,3.6-5.1c0.2-0.3,0.5-0.5,0.7-0.8c-0.1,0.1-0.2,0.2-0.3,0.2
			c-0.7,0.5-1.4,1-2,1.5c-1.7,2-2.9,4.3-4.2,6.5c0,0,0,0,0,0c-0.2,0.3-0.3,0.6-0.5,0.8c-0.7,1.2-1.6,2.3-2.6,3.3
			c1.5-2.4,2.9-4.9,4.3-7.4c0.2-0.3,0.4-0.6,0.6-1l0,0c0,0,0,0,0,0c0.8-1.4,1.8-2.8,3.1-3.8c0.6-0.5,1.4-0.9,1.8-1.6
			c0.2-0.4,0.1-0.8,0-1.2c-0.4-1.6-0.2-3.3,0.2-4.9c0.2-1.1,0.5-2.1,0.6-3.2"/>
	</g>
	<g>
		<g>
			<g>
				<path class="st30" d="M345.8,713.1c2-0.3,3-2.2,2.7-4c-0.3-1.6-1-3.5-2.5-4.4c-1.2-0.7-2.9-0.6-3.8,0.8
					c-0.9,1.4-1.2,3.2-0.7,4.7C342,712.2,343.4,713.5,345.8,713.1z"/>
			</g>
		</g>
	</g>
	<path class="st30" d="M340.1,718.2c-0.4,0-0.8-0.1-1.1-0.3c-1.4-0.5-2.7-1.4-3.9-2.3c-0.2-0.2-0.5-0.3-0.7-0.5
		c-1-0.7-2-1.3-3.2-1.5c0,0,0,0,0,0c-0.9-0.2-1.8-0.1-2.7,0.1c-0.2,0.1-0.4,0.1-0.5,0.2c0.2,0.2,0.4,0.4,0.5,0.6
		c0.2,0.2,0.3,0.4,0.5,0.6c0.5,0.9,0.9,1.9,1.3,2.8c0.4,0.8,0.9,1.6,1.5,2.3c0,0,0,0,0,0c0.6,0.7,1.3,1.4,2.2,1.9
		c0.5,0.3,1,0.5,1.5,0.6c1,0.3,2.1,0.3,3.1-0.1c0.3-0.1,0.5-0.3,0.8-0.4c0.5-0.4,0.9-0.8,1.1-1.4"/>
</g>
<g class="st33">
	<path class="st24" d="M246.1,700.9c-0.1-0.6-0.1-1.2,0.2-1.7c0.1-0.1,0.2-0.3,0.3-0.4c0.1-0.2,0.3-0.4,0.4-0.5
		c0.2-0.3,0.4-0.7,0.6-1c0.2-0.6,0.3-1.2,0.3-1.8c-0.1-0.6-0.2-1.2-0.5-1.8c-0.4-1-1.1-2.5-0.3-3.4c-1.1,0-2.1-0.5-2.9-1.1
		c-0.5-0.3-0.9-0.6-1.4-1c-0.2-0.1-0.4-0.2-0.6-0.3c0,0,0,0,0,0c-0.2-0.1-0.4-0.1-0.6-0.1c-0.2,0-0.4,0-0.6,0c-0.4,0-0.7,0-1.1-0.1
		c-0.7-0.1-1.3-0.5-1.5-1.2c0,0,0,0,0,0c0,0.1,0.1,0.2,0.1,0.2c0,0,0,0,0,0c0.2,0.2,0.4,0.4,0.7,0.5c0.2,0.1,0.5,0.1,0.8,0.1
		c0.7,0,1.3-0.2,2-0.3c0.7-0.1,1.3-0.1,2,0c0.7,0.1,1.3,0.3,1.9,0.7c0.8,0.5,1.3,1.2,1.9,1.9c0,0,0-0.1,0-0.1c0,0,0,0,0,0
		c-0.1-0.3-0.2-0.7-0.3-1c-0.2-0.3-0.4-0.7-0.5-1c-0.2-0.4-0.5-0.7-0.7-1.1c0,0,0,0,0,0c0,0,0,0,0-0.1c0,0,0,0,0,0c0,0,0-0.1,0-0.1
		c0,0,0,0,0,0c0,0,0-0.1,0-0.1c0,0,0,0,0,0c0,0,0-0.1,0-0.1c0,0,0,0,0,0c0,0,0-0.1,0-0.1c0,0,0,0,0,0c0,0,0-0.1,0-0.1c0,0,0,0,0,0
		c0,0,0-0.1,0-0.1c0-0.6,0.5-1.1,0.8-1.5c0.5-0.6,1.1-1.2,1.7-1.7c0,0,0.1-0.1,0.1-0.1c0,0,0,0,0,0c0,0,0.1-0.1,0.1-0.1c0,0,0,0,0,0
		l0,0c0.2-0.1,0.4-0.2,0.5-0.3c0.2-0.1,0.5-0.3,0.7-0.4c0.2-0.1,0.3-0.2,0.5-0.2c-1.1,0.1-2.2,0.7-3.1,1.3c-0.6,0.4-1.1,0.9-1.7,1.3
		c-0.5,0.4-1.2,0.6-1.9,0.7c0,0-0.1-0.1,0-0.1c0.2,0,0.4-0.1,0.7-0.2c1.1-0.8,2.1-1.8,3.3-2.5c1-0.6,2.1-1,3.3-0.8
		c-0.1,0-0.2-0.1-0.3-0.1c-0.1,0-0.1,0-0.2,0c0,0,0,0,0,0c-0.1,0-0.1,0-0.2,0c0,0,0,0,0,0c-0.1,0-0.1,0-0.2,0c0,0,0,0,0,0
		c-0.1,0-0.1,0-0.2,0c0,0,0,0,0,0c-0.1,0-0.1,0-0.2,0l0,0c-0.1,0-0.1,0-0.2,0c0,0,0,0,0,0c-0.1,0-0.1,0-0.2,0c0,0,0,0,0,0
		c-0.1,0-0.1,0-0.2,0c-0.8,0.2-1.6,0.5-2.4,0.9c-1.5,0.9-2.5,2.3-4.1,3c-1,0.5-2.2,0.5-3.3,0.3c0,0,0,0,0,0c-0.6,0-1.1,0-1.6-0.3
		c-0.5-0.2-0.9-0.7-1.1-1.2c0,0,0,0,0,0c0,0,0,0,0-0.1c0-0.1-0.1-0.2-0.1-0.3c0,0,0,0,0.1,0c0,0.1,0.1,0.3,0.1,0.4
		c0.9,1,2.3,0.7,3.4,0.2c0.8-0.3,1.5-0.9,2.2-1.4c0.7-0.5,1.4-0.9,2.2-1.3c0.7-0.3,1.5-0.6,2.2-0.8c0.7-0.2,1.5-0.3,2.3-0.3
		c1.5-0.1,3,0,4.4,0.5c0.2,0.1,0.5,0.2,0.7,0.3c0,0,0,0,0,0c0.1,0.1,0.2,0.1,0.3,0.2c0,0,0,0,0,0c0.7,0.4,1.3,0.7,2,1.1
		c0.3,0.2,0.7,0.3,1,0.5c0,0,0,0,0,0c0.2,0.1,0.3,0.1,0.5,0.2c0,0,0.1,0,0.1,0.1c0.2,0.1,0.3,0.1,0.5,0.2c0.1,0,0.1,0.1,0.2,0.1
		c0,0,0.1,0,0.1,0.1c0.2,0.1,0.4,0.2,0.7,0.2c0.1,0,0.2,0,0.2,0.1c0,0,0,0,0,0c0.1,0,0.2,0,0.2,0c0,0,0,0,0,0c0.1,0,0.2,0,0.2,0
		c0,0,0,0,0,0c0.1,0,0.2,0,0.3,0l0,0c0,0,0,0,0,0c0.4,0,0.8,0,1.2-0.1c0.2,0,0.4-0.1,0.6-0.2l0,0c0.2-0.1,0.4-0.2,0.6-0.3
		c0,0,0,0,0,0c0.1-0.1,0.2-0.3,0.2-0.4c0.1-0.2,0.1-0.4,0.2-0.6c0.1-0.1,0.1-0.3,0.3-0.3c0.1,0,0.1,0,0.2,0c0.4,0.1,0.4,0.7,0.4,1
		c0,0.2-0.1,0.5-0.1,0.7c0,0.1,0,0.2,0,0.3c0,0.2,0.3,0.3,0.4,0.4c0.2,0.2,0,0.6-0.2,0.6c-0.2,0.1-0.4,0-0.6,0c-0.2,0-0.3,0-0.5,0.1
		c-0.1,0-0.1,0.1-0.2,0.1c0,0,0,0,0,0c-0.3,0.1-0.5,0.3-0.8,0.5l0,0c-0.3,0.3-0.6,0.6-0.9,0.9c-0.2,0.2-0.4,0.4-0.6,0.6
		c-0.2,0.3-0.4,0.6-0.7,0.8c0,0,0,0,0,0c-0.1,0.2-0.3,0.4-0.4,0.5c-0.5,0.7-0.9,1.3-1.4,2c0,0,0,0,0,0c0,0,0,0,0,0.1
		c-0.1,0.1-0.1,0.2-0.2,0.2c0,0-0.1,0.1-0.1,0.1c0,0-0.1,0.1-0.1,0.1c-0.1,0.1-0.1,0.1-0.2,0.2c0,0,0,0,0,0
		c-0.1,0.1-0.2,0.2-0.3,0.3c-0.1,0.1-0.3,0.3-0.4,0.4l0,0c0,0,0,0,0,0c0,0-0.1,0.1-0.1,0.1c0,0,0,0,0,0c0,0-0.1,0.1-0.1,0.1
		c0,0,0,0,0,0c0,0-0.1,0.1-0.1,0.1c0,0,0,0,0,0c0,0-0.1,0.1-0.1,0.1c0,0,0,0,0,0c-0.3,0.4-0.7,0.8-1.2,1.1c-0.6,0.5-1.2,0.9-1.6,1.6
		c-0.8,1.1-1.2,2.5-1.4,3.9c-0.1,0.4-0.2,0.8-0.3,1.2c-0.1,0.4-0.2,0.7-0.4,1.1c-0.2,0.3-0.4,0.6-0.7,0.8c-0.1,0.1-0.2,0.1-0.3,0.2
		c0.1-0.1,0.1-0.1,0.2-0.2c0,0,0,0,0,0c0.3-0.4,0.6-0.9,0.7-1.4c0.2-0.7,0.3-1.4,0.4-2.2c0.1-0.7,0.2-1.4,0.5-2
		c0.3-0.7,0.8-1.4,1.3-2c0.1-0.1,0.2-0.2,0.3-0.3c0,0-0.1,0.1-0.1,0.1c-0.3,0.2-0.5,0.4-0.8,0.6c-0.7,0.9-1.2,1.9-1.7,2.8
		c0,0-0.1,0.1-0.1,0.1c0,0,0,0,0,0c0,0-0.1,0.1-0.1,0.1c0,0,0,0,0,0c0,0.1-0.1,0.1-0.1,0.2l0,0c0,0.1-0.1,0.1-0.1,0.2c0,0,0,0,0,0
		c0,0.1-0.1,0.1-0.1,0.2c0,0,0,0,0,0c0,0.1-0.1,0.1-0.1,0.2c0,0,0,0,0,0c0,0.1-0.1,0.1-0.1,0.2c0,0,0,0,0,0c0,0-0.1,0.1-0.1,0.1
		c0,0,0,0,0,0c0,0,0,0,0,0c-0.5,0.5-1.1,0.9-1.9,1c-0.2,0-0.3,0-0.5,0c0.3,0,0.5,0,0.8-0.1c0.5-0.1,0.9-0.5,1.3-0.8
		c0.5-0.5,0.8-1.1,1.1-1.8c0.3-0.6,0.5-1.3,0.8-1.9c0.2-0.5,0.6-1.1,1.1-1.4c-0.7,0.1-1.5-0.1-2.2-0.4c-0.1,0-0.1-0.1-0.2-0.1
		c0,0,0,0,0,0c-0.4-0.2-0.7-0.4-1-0.6c-0.4-0.3-0.7-0.6-1-0.9c0,0,0,0,0,0c0-0.1-0.1-0.1-0.1-0.2c0.1,0.2,0.1,0.3,0.2,0.4
		c0.2,0.3,0.3,0.6,0.4,1c0.2,0.7,0.2,1.5,0.1,2.2c-0.2,0.7-0.5,1.4-0.9,2c-0.5,0.6-1.1,1.1-1.7,1.7c-0.4,0.5-0.8,1.1-0.7,1.8
		c0,0,0,0,0,0C246.1,700.6,246.1,700.8,246.1,700.9C246.1,700.9,246.1,700.9,246.1,700.9z"/>
	<g class="st33">
		<path class="st24" d="M261.9,683.9c0.2,0,0.4-0.1,0.6-0.2c0,0.1-0.1,0.2-0.1,0.3c0,0.3,0.1,0.5,0.2,0.7c0.1,0.2,0.2,0.4,0.4,0.5
			c-0.3,0.1-0.5,0.3-0.8,0.5C261.8,685.2,261.5,684.4,261.9,683.9z"/>
		<path class="st24" d="M260,687.6c-0.2-0.5-0.4-0.9-0.6-1.4c-0.1-0.3-0.2-0.6-0.2-0.9c0-0.3,0.2-0.5,0.3-0.8
			c0.1-0.3,0.1-0.6,0.1-0.8c0.4,0.1,0.7,0.2,1.1,0.2c0,0.1,0,0.3,0,0.4c0,0.3,0,0.6-0.1,0.8c-0.2,0.5-0.1,0.9,0,1.4
			c0.1,0.2,0.1,0.4,0.2,0.6c-0.2,0.3-0.5,0.5-0.7,0.8C260.1,687.9,260,687.7,260,687.6z"/>
		<path class="st24" d="M256.2,686.3c-0.1,0.5-0.4,0.9-0.4,1.5c0,0.7,0.2,1.3,0.5,1.9c0.3,0.6,0.7,1.1,1.1,1.6
			c0.3-0.3,0.5-0.6,0.8-0.9c0,0,0,0,0-0.1c-0.1-0.2-0.3-0.5-0.4-0.7c-0.1-0.3-0.2-0.7-0.3-1c-0.1-0.3-0.3-0.6-0.4-0.9
			c-0.1-0.2-0.1-0.5-0.1-0.8c0-0.2,0-0.5,0-0.7"/>
		<path class="st24" d="M257.7,684c0.4-0.2,0.8-0.4,1.3-0.5c0,0,0,0,0.1,0c-0.1,0-0.2-0.1-0.3-0.1c-0.4-0.2-0.8-0.4-1.3-0.6
			c-0.1,0-0.1,0-0.2,0c-0.2,0.1-0.4,0.2-0.6,0.3"/>
		<path class="st24" d="M253,690c0,0.1,0,0.2-0.1,0.3c-0.3,1-0.6,2.2,0.2,3.1c0,0-0.1,0.1-0.2,0.1c-0.1-0.3-0.4-0.5-0.5-0.7
			c-0.2-0.2-0.3-0.5-0.3-0.8c-0.1-0.5,0-1,0-1.6c0-0.5-0.2-0.9-0.4-1.3c0,0,0,0,0,0"/>
		<path class="st24" d="M251.4,686.6c0-0.5,0-1-0.1-1.6c-0.1-0.7-0.2-1.3,0-2c0.1-0.3,0.2-0.6,0.3-0.8c0-0.2,0-0.4,0-0.6
			c0-0.2-0.1-0.4-0.2-0.5c-0.1-0.1-0.2-0.1-0.2-0.1l0,0c-0.1,0-0.1,0-0.2,0c0,0,0,0,0,0c0,0,0,0,0,0c-0.1,0-0.2,0-0.3,0c0,0,0,0,0,0
			c-0.4,0-0.8,0.1-1.2,0.1c-0.4,0.1-0.7,0.1-1,0.3c0,0,0,0,0,0c-0.5,0.1-0.9,0.3-1.3,0.6c-1.5,0.8-2.5,2.2-4.1,2.9
			c-1,0.4-2.2,0.5-3.2,0.2c0,0,0,0,0,0c-0.5,0-1.1-0.1-1.6-0.3c-0.3-0.1-0.5-0.3-0.7-0.6l0,0c-0.1-0.2-0.3-0.4-0.3-0.6c0,0,0,0,0,0
			c0,0,0,0,0-0.1c0-0.1,0-0.2-0.1-0.3c0,0,0,0,0.1,0c0,0.1,0.1,0.3,0.1,0.4c0.8,1,2.3,0.7,3.4,0.3c0.8-0.3,1.5-0.8,2.2-1.3
			c0.7-0.5,1.4-0.9,2.2-1.2c0.7-0.3,1.5-0.6,2.2-0.8c0.1,0,0.1,0,0.2,0l0,0c0.7-0.1,1.4-0.2,2-0.2c1.5,0,3,0.1,4.3,0.6
			c0.2,0.1,0.5,0.2,0.7,0.3c0,0,0,0,0,0c0.1,0.1,0.2,0.1,0.3,0.2c-0.9,0.2-1.7,0.8-1.8,1.8c-0.1,0.6,0,1.1,0.1,1.7
			c0.1,0.7,0,1.3,0,2c0,0.2-0.1,0.4-0.1,0.6"/>
		<path class="st24" d="M245.7,700.5c-0.1-0.6-0.1-1.2,0.2-1.7c0.1-0.1,0.2-0.3,0.3-0.4c0.1-0.2,0.3-0.3,0.4-0.5
			c0.2-0.3,0.4-0.6,0.6-1c0.2-0.6,0.4-1.1,0.3-1.7c0-0.6-0.2-1.2-0.4-1.8c-0.3-1-1-2.4-0.2-3.4c-1.1-0.1-2-0.6-2.9-1.1
			c-0.4-0.3-0.9-0.6-1.3-1c-0.2-0.1-0.4-0.2-0.6-0.3c0,0,0,0,0,0c-0.2-0.1-0.4-0.1-0.6-0.1c-0.2,0-0.4,0-0.5,0c-0.3,0-0.7,0-1-0.1
			c-0.6-0.2-1.2-0.6-1.5-1.2c0,0,0,0,0,0c0,0.1,0.1,0.2,0.1,0.2c0,0,0,0,0,0c0.2,0.2,0.4,0.4,0.7,0.5c0.2,0.1,0.5,0.1,0.8,0.1
			c0.7,0,1.3-0.1,2-0.2c0.7-0.1,1.3-0.1,2,0c0.7,0.1,1.3,0.3,1.9,0.7c0.7,0.5,1.3,1.2,1.8,1.9c0,0,0-0.1,0-0.1
			c0.4,0.7,0.6,1.4,0.9,2.1c0-0.1-0.1-0.1-0.1-0.2c0.1,0.2,0.1,0.3,0.2,0.4c0.1,0.3,0.3,0.6,0.4,1c0.2,0.7,0.2,1.4,0,2.1
			c-0.2,0.7-0.5,1.4-1,1.9c-0.5,0.6-1.1,1-1.7,1.6c-0.4,0.4-0.8,1.1-0.7,1.7c0,0,0,0,0,0C245.7,700.2,245.7,700.3,245.7,700.5
			C245.7,700.5,245.7,700.5,245.7,700.5z"/>
		<path class="st24" d="M250.8,693.1c-0.1-0.1-0.3-0.1-0.4-0.2c-0.3-0.3-0.5-0.7-0.6-1.2c-0.1-0.4-0.3-0.7-0.5-1.1
			c-0.2-0.4-0.3-0.8-0.5-1.2c-0.1-0.3-0.3-0.6-0.5-0.8c-0.2-0.1-0.4-0.3-0.5-0.4c-0.2-0.2-0.2-0.4-0.3-0.6c-0.2-0.6-0.6-1.1-1.1-1.4
			c-0.1-0.3-0.2-0.6-0.2-0.9c0.1-0.6,0.5-1,0.9-1.4c0.5-0.6,1.1-1.2,1.7-1.6c0.1-0.1,0.2-0.1,0.3-0.2c-0.4,0.3-0.7,0.8-0.7,1.2
			c-0.1,0.3,0,0.8,0.3,0.8c-0.5,0.5,0.1,1.3,0.3,1.8c0.2,0.5,0.2,1.1,0.5,1.5c0.2,0.2,0.4,0.4,0.6,0.6c0.2,0.3,0.3,0.6,0.3,0.9
			c0,0.3,0.1,0.6,0.1,0.9c0.1,0.2,0.2,0.4,0.3,0.7c0.1,0.4,0,0.8,0.1,1.2c0.1,0.5,0.2,1.2,0.6,1.6
			C251.1,693.3,250.9,693.2,250.8,693.1z"/>
		<path class="st24" d="M254.4,688.2c0-0.3,0-0.6,0-0.9c0-0.3-0.1-0.7-0.1-1c0.1,0.2,0.2,0.4,0.3,0.6c0.2,0.4,0.2,0.8,0.2,1.3
			c0,0,0,0.1,0,0.1"/>
		<path class="st24" d="M254.9,689.3c0.1,0.3,0.2,0.5,0.4,0.8c0.2,0.3,0.4,0.6,0.6,0.8c0.3,0.3,0.6,0.5,0.9,0.8c0,0,0.1,0.1,0.1,0.1
			c-0.2,0.2-0.3,0.3-0.5,0.4c0,0,0,0,0,0c-0.3,0.4-0.7,0.7-1.2,1.1c-0.6,0.4-1.2,0.9-1.6,1.5c-0.8,1-1.2,2.3-1.4,3.5
			c0,0.1,0,0.2-0.1,0.3c-0.1,0.4-0.2,0.8-0.3,1.2c-0.1,0.4-0.3,0.7-0.5,1c-0.2,0.3-0.4,0.5-0.7,0.8c-0.1,0.1-0.2,0.1-0.3,0.2
			c0.1-0.1,0.1-0.1,0.2-0.2c0,0,0,0,0,0c0.3-0.4,0.6-0.8,0.8-1.3c0.2-0.7,0.3-1.4,0.4-2.1c0-0.3,0.1-0.7,0.2-1
			c0.1-0.3,0.2-0.6,0.3-0.9c0.3-0.7,0.8-1.3,1.4-1.9c0.1-0.1,0.2-0.2,0.3-0.3c0,0-0.1,0.1-0.1,0.1c-0.3,0.2-0.5,0.4-0.8,0.6
			c-0.6,0.7-1.1,1.6-1.6,2.4c0,0,0,0,0,0c-0.1,0.1-0.1,0.2-0.2,0.3c-0.3,0.4-0.6,0.9-1,1.2c0.6-0.9,1.1-1.8,1.6-2.8
			c0.1-0.1,0.1-0.2,0.2-0.4l0,0c0,0,0,0,0,0c0.3-0.5,0.7-1.1,1.1-1.4c0.2-0.2,0.5-0.3,0.7-0.6c0.1-0.1,0-0.3,0-0.4
			c-0.2-0.6-0.1-1.2,0.1-1.8c0.1-0.4,0.2-0.8,0.2-1.2"/>
	</g>
	<g>
		<g>
			<g>
				<path class="st24" d="M256.9,686.4c0.7-0.1,1.1-0.8,1-1.5c-0.1-0.6-0.4-1.3-0.9-1.6c-0.5-0.3-1.1-0.2-1.4,0.3
					c-0.4,0.5-0.4,1.2-0.3,1.8C255.5,686,256.1,686.5,256.9,686.4z"/>
			</g>
		</g>
	</g>
	<path class="st24" d="M254.8,688.3c-0.1,0-0.3-0.1-0.4-0.1c-0.5-0.2-1-0.5-1.5-0.9c-0.1-0.1-0.2-0.1-0.3-0.2
		c-0.4-0.3-0.8-0.5-1.2-0.6c0,0,0,0,0,0c-0.3-0.1-0.7,0-1,0c-0.1,0-0.1,0.1-0.2,0.1c0.1,0.1,0.1,0.1,0.2,0.2
		c0.1,0.1,0.1,0.1,0.2,0.2c0.2,0.3,0.3,0.7,0.5,1.1c0.2,0.3,0.3,0.6,0.6,0.9c0,0,0,0,0,0c0.2,0.3,0.5,0.5,0.8,0.7
		c0.2,0.1,0.4,0.2,0.6,0.2c0.4,0.1,0.8,0.1,1.2,0c0.1,0,0.2-0.1,0.3-0.2c0.2-0.1,0.3-0.3,0.4-0.5"/>
</g>
<g>
	<path class="st35" d="M199.5,869c0,0.4,0.1,0.9,0.3,1.2c0.2,0.5,0.5,0.9,0.8,1.3c0,0,0,0.1,0,0.1c0.3,0.4,0.6,0.7,0.9,1.1
		c0.2,0.3,0.6,0.4,0.8,0.6c0.4,0.5,0.6,1,0.9,1.6c0.2,0.5,0.6,0.9,1.1,1c0.4,0.1,0.9,0,1.3,0.1c0.1,0,0.1,0,0.2,0.1
		c0.6,0.6,1.3,0.9,2.2,0.7c0.5-0.1,1.1-0.4,1.6-0.5c0.5-0.1,1,0,1.6,0.1c1.2,0.2,2.3,0.4,3.4-0.2c0.6-0.3,1.1-0.7,1.8-0.9
		c0.5-0.1,1-0.2,1.4-0.5c0.5-0.3,0.7-0.9,1-1.4c0.3-0.6,0.7-1.2,1-1.8c0.2-0.5,0.3-1,0.1-1.5c-0.2-0.6-0.6-1.2-0.6-1.8
		c0-1,0.7-2.5-0.1-3.4c-0.6-0.7-1.6-0.8-2.4-1.1c-1.1-0.4-1.8-1.3-2.9-1.4c-0.6-0.1-1.8-0.3-2,0.5c0,0,0,0,0,0.1
		c-0.3,0.2-0.6,0.5-0.9,0.7c-0.5,0.2-0.9,0.3-1.4,0.4c-0.6,0.2-1.1,0.6-1.2,1.3c-0.1,0.8,0.4,1.7,0.1,2.5c-0.3,0.7-0.8,1.2-0.4,2
		c0.5,1.1,2.4,1.8,3.3,0.9c0.2-0.2,0.3-0.5,0.2-0.7c0-0.1,0-0.1,0-0.2c0,0,0,0,0,0c0,0,0-0.1,0-0.1c0,0,0,0,0,0c0,0,0-0.1,0-0.1
		c0,0,0,0,0,0c0,0,0-0.1-0.1-0.1c0,0,0,0,0,0c0,0,0,0-0.1-0.1c0,0,0,0,0,0c0,0,0,0-0.1-0.1c0,0,0,0,0,0c0,0,0,0-0.1-0.1c0,0,0,0,0,0
		c0,0,0,0-0.1-0.1c0,0,0,0,0,0c0,0,0,0-0.1,0c0,0,0,0,0,0c0,0,0,0-0.1,0c0,0,0,0,0,0c0,0,0,0-0.1,0c0,0,0,0,0,0c0,0,0,0-0.1,0
		c0,0,0,0-0.1,0c0,0,0,0-0.1,0c0,0,0,0-0.1,0c0,0,0,0,0,0c0,0,0,0-0.1,0c0,0,0,0,0,0c0,0-0.1,0-0.1,0c-0.7-0.1-0.4-0.9-0.1-1.3
		c0.3-0.4,0.6-0.7,1.2-0.7c0.3,0,0.6-0.1,0.9-0.3c0.2-0.1,0.4-0.2,0.5-0.2c0.3,0,0.4,0.3,0.6,0.5c0.2,0.3,0.5,0.5,0.7,0.7
		c0.5,0.4-0.1,0.7-0.3,1.1c-0.2,0.3,0,0.7,0.2,1v0c0.1,0.5-0.2,0.6-0.6,0.7c-0.2,0.1-0.3,0.2-0.4,0.3c-0.3,0.6,0.2,1.7-0.9,1.7
		c-0.6,0-1.3-0.6-1.9-0.3c-0.3,0.1-0.4,0.3-0.7,0.6c-0.2,0.3-0.5,0.4-0.8,0.5c-0.3,0-0.7-0.1-0.9-0.3c-0.2-0.2-0.2-0.4-0.5-0.6
		c-0.4-0.3-1.1-0.1-1.5-0.2c-0.5-0.2-0.7-0.5-0.8-1c0-0.2-0.1-0.5-0.2-0.6c-0.4-0.7-1.4-0.9-1-1.9c0,0,0-0.1,0-0.1
		c0.1-0.2,0.2-0.3,0.2-0.5c0.1-0.3,0.1-0.5,0.2-0.8c0.1-0.6-0.4-1.1-0.5-1.6c0,0,0-0.1-0.1-0.1c-0.1-0.3-0.1-0.5-0.2-0.8
		c0,0,0-0.1,0-0.1c0,0,0,0,0-0.1c0,0,0-0.1,0-0.1c0,0,0,0,0-0.1c0,0,0,0,0-0.1c0,0,0,0,0-0.1c0,0,0,0,0,0c0-0.1,0.1-0.3,0.2-0.4
		c0,0,0,0,0,0c0.2-0.4,0.5-0.8,0.8-1.2c0.4-0.6,0.4-1.3,0.4-2c0.1-0.8,0.6-1.4,1.1-2c0.8-0.8,1.8-1.5,2.9-1.9c0,0,0,0,0,0
		c0.3-0.1,0.6-0.2,0.9-0.2c1.1-0.1,2.3-0.2,3.4-0.4c1.3-0.2,2.5-0.5,3.7-1.1c2.1-0.9,3.7-2.5,4.6-4.7c0.8-2,0.9-4.2,0.5-6.2
		c-1-5.2-4.9-9.5-8.5-13.2c0,0,0,0,0,0c-0.2-0.2-0.3-0.4-0.5-0.5c-0.1-0.1-0.2-0.2-0.3-0.4c-0.3-0.4-0.6-0.7-0.9-1.1c0,0,0,0,0,0
		c-0.1-0.1-0.1-0.2-0.2-0.3c-0.4-0.5-0.7-1-1-1.6c-0.6-1-1.1-2.3-0.9-3.5c0.3-2,2.1-3.3,3.9-4c1-0.4,1.9-0.6,3-0.7
		c1.2-0.2,2.4-0.4,3.6-0.6c1.2-0.1,2.5-0.2,3.7,0c1.2,0.2,2.2,0.6,3.1,1.3c0.5,0.5,1.1,0.9,1.6,0.6c0.5-0.3,0.5-1.1,0.3-1.6
		c-0.2-0.5-0.4-1-0.5-1.5c0-0.5,0.2-1,0.4-1.4c0.4-0.7,1-1.4,1.1-2.3c0-0.6-0.3-1.2-0.8-1.5c-0.5-0.3-1.1-0.2-1.5,0.2
		c-0.3,0.4-0.3,0.9-0.4,1.3c0,0,0,0-0.1,0c-0.4,0.9-1.3,1.3-2.2,1.5c-0.9,0.2-1.9,0.3-2.9,0.3c-1.3,0-2.6-0.1-3.9-0.3
		c-0.8-0.2-1.4-0.6-2-1.1c0,0,0,0,0,0c-1.3-1.7-0.8-4.9-3.1-5.8c0.1-0.5,0.8-0.9,1-1.3c0.2-0.4-0.1-0.6-0.5-0.5
		c-0.3,0.1-0.5,0.2-0.8,0.4c-0.4,0.2-0.7,0.5-1.1,0.7c-0.6,0.3-1.1,0.1-1.7,0.1c-0.3,0-0.6-0.1-0.8,0.1c-0.3-0.3-0.1-0.9-0.2-1.3
		c0-0.4-0.5-0.8-0.9-0.7c-0.5,0.1-0.5,0.6-0.5,0.9c0,0.4,0,0.8-0.1,1.2c-0.1,0.2-0.4,0.4-0.6,0.5c-0.4,0.2-0.6,0.5-1,0.8
		c-0.5,0.3-1.4,0.1-1.8,0.6c-0.5,0.5-0.2,1.3-0.8,1.8c-0.4,0.3-0.9,0.6-1,1.1c-0.2,0.8,0.5,1.3,0.5,2c0,0.7-0.4,1.4-0.3,2.2
		c0.1,0.6,0.7,1,1,1.5c0.5,0.8-0.1,1.6-0.5,2.4c0,0.1,0,0.2,0.1,0.2c0,0.2,0,0.4,0,0.6c0.1,0.5,0.4,0.9,0.8,1.2
		c0.4,0.3,1.1,0.7,1.2,1.2c0.2,0.7-0.3,1.1-0.5,1.7c-0.3,1,1.1,1.6,1.6,2.2c0.5,0.8,0,1.4-0.1,2.2c0,0.4,0.1,0.8,0.3,1.1
		c0.6,1,1.8,1.7,1.2,3c-0.2,0.5-0.5,0.9-0.5,1.5c0,0.4,0.2,0.9,0.4,1.2c0.4,0.5,0.9,1,1,1.6c0.2,0.6,0,0.9-0.3,1.4
		c-0.2,0.3-0.4,0.8-0.3,1.1c0.1,0.6,0.9,1.5,0.2,2c-0.3,0.3-0.9,0.5-1.1,1c-0.1,0.3-0.2,0.6-0.2,1c0,0.4,0,0.8-0.2,1.2
		c-0.1,0.3-0.4,0.5-0.7,0.5c-0.3-0.1-0.6-0.1-0.8,0.1c-0.1,0.1-0.3,0.2-0.3,0.4c0,0.2,0,0.6-0.1,0.8c-0.3,0.5-0.9,0.5-1.2,1
		c-0.3,0.5-0.3,1.1-0.8,1.6c-0.4,0.4-0.7,0.7-0.8,1.2c0,0.3,0,0.5-0.1,0.8c-0.1,0.3-0.3,0.6-0.4,0.9c-0.1,0.2-0.2,0.4-0.3,0.7
		c0,0.3,0,0.6-0.1,0.8c-0.1,0.5-0.5,0.9-0.6,1.4c-0.1,0.3-0.1,0.6-0.1,0.9c-0.1,0.4-0.2,0.6-0.4,0.9c-0.3,0.4-0.5,0.8-0.5,1.3
		c0.1,0.3,0.2,0.6,0.3,0.9c0.1,0.4,0.1,0.8,0,1.2c-0.1,0.6-0.4,1.3-0.4,1.9c-0.1,1.4-0.1,2.8,0.3,4.1c0.2,0.5,0.2,0.9,0.1,1.4
		C199.6,868.3,199.6,868.6,199.5,869z"/>
	<path class="st36" d="M227.5,818.6c0,0-0.1-0.1-0.1-0.1c0,0-0.1-0.1-0.1-0.1c-0.2-0.3-0.4-0.7-0.4-1.1c-0.1-0.8,0-1.6,0.3-2.3
		c0.2-0.5,0.4-1.1,0.8-1.5c0.1-0.1,0.3-0.2,0.4-0.3c0.6-0.3,0.4,0.4,0.3,0.7c-0.3,0.5-0.5,1-0.6,1.6c-0.2,0.6-0.4,1.3-0.3,1.9
		c0.1,0.5,0.3,0.9,0.4,1.4c0,0.3-0.2,0.1-0.5-0.1C227.6,818.7,227.5,818.6,227.5,818.6z"/>
	<path class="st36" d="M208.7,829.4c0.4,0,1,0.1,1.1,0.5c0,0.2,0.3,0.3,0.4,0.5c0.1,0.2,0.1,0.5-0.1,0.7
		C209.2,832.2,208,829.4,208.7,829.4C208.8,829.4,208.5,829.4,208.7,829.4z"/>
	<path class="st36" d="M209,844.5c0-0.6,0.4-1.5,1.1-1.5c0.7,0,0.8,1.1,0.9,1.5c0.1,0.7-0.3,1.7-1.2,1.7
		C209,846.3,209,845.2,209,844.5z"/>
	<path class="st36" d="M214.6,863.3c0.5-0.2,0.9,0.1,1.3,0.4c0.4,0.3,0.4,1-0.1,1.2C215,865,213.4,863.7,214.6,863.3
		C215,863.1,214.4,863.4,214.6,863.3z"/>
	<path class="st35" d="M208.7,856.4c0,0,0.1,0.1,0.1,0.1c0.3-0.1,0.6-0.2,0.9-0.2c1.1-0.1,2.3-0.2,3.4-0.4c1.3-0.2,2.5-0.5,3.7-1.1
		c2.1-0.9,3.7-2.5,4.6-4.7c0.8-2,0.9-4.2,0.5-6.2c-1-5.2-4.9-9.5-8.5-13.2c0,0,0,0,0,0c-0.2-0.2-0.3-0.4-0.5-0.5
		c-0.1-0.1-0.2-0.2-0.3-0.4c-0.3-0.4-0.6-0.7-0.9-1.1c0,0,0,0,0,0c-0.1-0.1-0.1-0.2-0.2-0.3c-0.6-0.3-0.3,0.6-0.2,0.7
		c0.4,1.1,1,2.1,1.5,3.1c1.2,2.5,2.1,5.1,2.6,7.8c0.4,2.4,0.2,4.8-0.6,7.1c-0.8,2.4-2.6,3.8-4.4,5.5
		C209.6,853.3,207.4,855.4,208.7,856.4z"/>
	<path class="st35" d="M209.1,814.4c0.1,0.8,0.8,1.4,1.6,1.3c0.8-0.1,1.4-0.8,1.3-1.6c-0.1-0.8-0.8-1.4-1.6-1.3
		C209.7,812.9,209.1,813.6,209.1,814.4z"/>
</g>
<g class="st4">
	<path class="st30" d="M318,380.7L318,380.7L318,380.7c0,0-4.6-3.1-12.8-2.2c-8.2,0.9-13,4.3-13.3,5.3c-0.2,0.7,0.3,0.4,1.6,0
		c1.6-0.4,6.2-0.2,7,4.3c0,0,0,0,0,0"/>
	<line class="st30" x1="313.2" y1="396.8" x2="313.2" y2="396.8"/>
	<line class="st30" x1="314.4" y1="396.5" x2="314.4" y2="396.5"/>
	<path class="st30" d="M320.3,399.1C320.3,399.1,320.3,399.1,320.3,399.1c-1.1,1.4-2.5,2.9-4.5,4.4c-5.6,4.1-12.1,4.8-13.4,4.4
		c-1-0.3-0.3-0.4,1-1c1.1-0.5,2.8-2.1,2.2-4.2"/>
	<line class="st30" x1="319.5" y1="394.6" x2="319.5" y2="394.6"/>
	<path class="st30" d="M278.3,412.2c0-0.1-0.4-2.4,2.7-4.4c3.1-2.1,7.5-2.3,8.8-5.7c1.3-3.4,2.1-3.8,2.1-3.8s-0.9-0.7-1.6-1
		c-2.2-1.1-3.1-0.3-5.3,0.5c-1.4,0.5-5.2,0.9-6-2.4c0,0,1.6,1.9,3.7-0.3c2.2-2.2,6.1-3.7,10-2.4c1.7,0.6,3.2,1.4,4.2,2.1"/>
	<path class="st30" d="M278.3,412.2C278.3,412.2,278.3,412.2,278.3,412.2c3-4.4,7.8-1.5,13.4-3.7c4.7-1.9,6.2-6.1,6.9-8.8"/>
	<path class="st30" d="M326.6,391.1c0.6-2.3,1.5-2.1,1.5-2.1c1.3,0.8,2.6,0.1,2.4-1.5c-0.2-1.6-1.7-2.6-1.7-2.6
		c1.7-3.6-0.7-3.9-0.7-3.9c-0.1,1.2-0.8,1.5-2.7,1.4c-1.3-0.1-4.6-1.8-8.9-1.9c-0.7,0.8-0.9,2-0.5,3.7c0.9,3.6-0.3,4,1.4,7.7
		c1.5,3.2,4.5,4.2,6.9,3.1C325.6,393.5,326.4,392,326.6,391.1z"/>
	<path class="st30" d="M325.6,386.9c-0.3,0.1,1-0.3,2,0.2c1,0.5,1.1,0.8,1.2,0.5c0.1-0.3-0.6-2-0.4-2.4
		C328.4,385.3,326.9,386.6,325.6,386.9z"/>
	<path class="st30" d="M320.8,381.7c0.6,0.7,0.5,1.8-0.2,2.4c-0.7,0.6-1.8,0.5-2.4-0.2c-0.6-0.7-0.5-1.8,0.2-2.4
		C319.1,381,320.2,381,320.8,381.7z"/>
	<path class="st30" d="M313.9,396.5c-1.1,0.1-1.4,1.6-1,2.4c0.3,0.7,1.1,1.4,1.9,1.1c0.7-0.1,0.9-1,0.9-1.6
		C315.7,397.3,314.9,396.4,313.9,396.5z"/>
	<path class="st30" d="M305.6,397.3c-0.9-0.3-1.3,0.8-1.4,1.5c0,0.2,0,0.4,0,0.6c0,0.2,0.1,0.4,0.1,0.5c0.3,0.8,1.3,1.2,2,0.7
		C307.5,399.9,306.8,397.7,305.6,397.3z"/>
	<path class="st31" d="M297,394.6c0,0.1,0,0.1,0,0.2c7.2-10.6,18.9-12.2,18.9-12.2"/>
	<path class="st30" d="M298.5,399.6c1.6,1.5,4.1,2.6,7,3.1c2.8,0.5,5.9,0.4,8.8-0.5c2.3-0.7,4.3-1.8,5.9-3.1c0,0,0,0,0,0
		c1.7-1.3,3-2.7,4-4c1.2-1.6,2-3.1,2.2-4c0.3-1.4,0.8-1.8,1.1-2c0.2-0.1,0.4-0.1,0.4-0.1c0.7,0.4,1.3,0.4,1.7,0.1
		c0.5-0.3,0.7-0.8,0.6-1.7c-0.2-1.6-1.7-2.6-1.7-2.6c1.6-3.4-0.3-3.9-0.6-3.9c0,0,0,0,0,0c0,0.6-0.2,1-0.6,1.2
		c-0.4,0.2-1.1,0.3-2.1,0.2c-1.1-0.1-3.8-1.4-7.3-1.8c-0.5-0.1-1-0.1-1.6-0.1c-2.3-0.1-5,0.3-7.8,1.6c-3.3,1.6-6.1,3.7-8.1,5.9
		c-2,2.1-3.2,4.4-3.6,6.4"/>
	<path class="st31" d="M316,384.3c0,0-12.9,2-18.8,11"/>
</g>
<g class="st7">
	<path class="st27" d="M189.4,186.2c1,5.4,4.5,10.2,6.6,11.6c2,1.4,2.4-0.4,2.4-0.4c2.8-6.2,7.9-9.6,7.9-9.6
		c12.1-0.5,18-1.8,20.3-2.5c2.3,2.1,5.7,4.8,10.9,7.6c2.2,1.2-3.4,3.1-3.4,3.1c-16.9,6.7-37.6,5.9-61-3.8
		c-21-8.6-21.4-22.8-21.4-22.8C160.7,183.2,189.4,186.2,189.4,186.2z"/>
	<path class="st0" d="M146,162.9c2.1-7.6-3.7-14.1-4.7-15.3c-0.8-1,0.2-0.7,0.2-0.7c13.1,4.5,14,14.2,13.9,15.7
		c-0.1,1.5,1.1,1.7,1.1,1.7s47.1,8.4,88.6-0.4c6.4-1.4,10.3-2.9,11.5,5.7c0.8,5.9-3,8.1-5.5,8.9c-1.4,0.5-2.9,1-4.2,1.6
		c-3.1,1.3-9.9,3.3-21.6,2.5c0,0-1.5,0.1,1.3,2.7c-2.3,0.7-8.1,2-20.3,2.5c0,0-5.1,3.4-7.9,9.6c0,0-0.4,1.8-2.4,0.4
		c-2.2-1.5-5.7-6.2-6.6-11.6c0,0-28.7-3-37.8-16.6c-4.4,4.3-15.3,5.7-15.9,5.4C135.2,174.5,143.7,171.2,146,162.9z"/>
	<path class="st0" d="M193.1,167.7c15-6.2,7.1-14.5,13.9-12.8c10.8,2.7,18,9.2,20.4,11.7C215.4,167.9,203.6,168,193.1,167.7z"/>
	<path class="st0" d="M230,170.3c0,1.1,1.2,1.9,2.6,1.9c1.5,0,2.6-0.9,2.6-1.9s-1.2-1.9-2.6-1.9C231.2,168.4,230,169.3,230,170.3z"
		/>
	<path class="st27" d="M198.1,167.8c0,0-10.4,2.2-12.8,8.5"/>
	<path class="st28" d="M187.3,167.5c0,0-10.4,2.2-12.8,8.5"/>
	<path class="st37" d="M220.1,178.6c0,0-3.4,0.6-1.5,2.6"/>
	<path class="st38" d="M218,178c0,0-3.4,0.6-1.5,2.6"/>
	<path class="st39" d="M217,176.9c0,0-7.1,0.8-3.1,3.6"/>
	<path class="st27" d="M253.2,164.7c0,0-3-0.1,0.3,3.3"/>
</g>
<g class="st33">
	<path class="st40" d="M504.2,892.4c0.1-0.5-0.5-0.7-0.8-0.8c-0.2-0.1-0.5-0.2-0.6-0.5c-0.1-0.2,0-0.3,0.1-0.5c0-0.2,0-0.3-0.1-0.4
		c-0.1-0.1-0.3-0.3-0.3-0.5c-0.1-0.2,0-0.4,0.1-0.6c0.1-0.3,0.4-0.5,0.4-0.8c0-0.1,0-0.3-0.1-0.4c-0.1-0.2-0.1-0.4-0.1-0.7
		c0-0.4,0.2-0.8,0.2-1.2c0,0,0-0.1,0-0.1c0,0,0,0,0,0c0,0,0,0,0-0.1c0,0,0,0,0,0c0,0,0,0,0-0.1c0,0,0,0,0,0c0,0,0-0.1,0-0.1
		c0,0,0,0,0,0c0,0,0-0.1,0-0.1c0,0,0,0,0,0c0,0,0,0,0-0.1c0,0,0,0,0,0c0,0,0,0,0-0.1c0,0,0,0,0,0c0,0,0,0,0-0.1c0,0,0,0,0,0
		c0,0,0-0.1-0.1-0.1c0,0,0,0,0,0c0,0,0,0,0-0.1c0,0,0,0,0,0c0,0,0,0,0,0c0,0,0,0,0,0c0,0,0,0,0,0c0,0,0,0,0,0c0,0,0,0-0.1-0.1l0,0
		c0,0-0.1-0.1-0.1-0.1l0,0c0,0,0,0-0.1-0.1c0,0-0.1-0.1-0.1-0.1c-0.4-0.3-1-0.8-0.8-1.4c0,0,0,0,0,0c0-0.1,0-0.1,0.1-0.2
		c0,0,0,0,0,0c0,0,0,0,0,0c0-0.7-2-0.7-2.4-0.7c-0.4,0-1-0.1-1.1-0.6c0-0.2,0-0.3-0.1-0.4c-0.1-0.1-0.2-0.2-0.3-0.3
		c-0.3-0.2-0.6-0.2-1-0.3c-0.4-0.1-0.7-0.2-0.9-0.5c0,0,0,0,0-0.1l0,0c0,0,0-0.1-0.1-0.1l0,0c0,0-0.1-0.1-0.1-0.1c0,0,0,0,0,0
		c0,0-0.1-0.1-0.1-0.1c0,0,0,0,0,0c0,0,0-0.1-0.1-0.1c0,0,0,0,0,0c0-0.1-0.1-0.2-0.1-0.3c0,0,0,0,0,0c0,0,0-0.1,0-0.1c0,0,0,0,0,0
		c0,0,0-0.1,0-0.1c0,0,0,0,0,0c0-0.1,0-0.1,0-0.2c0.1-0.4,0.6-0.7,0.4-1.1c0,0,0,0,0,0c-0.2-0.5-0.4-0.9-0.5-1.4
		c-0.1-0.5,0-1,0.1-1.5c0.1-0.3,0.3-0.7,0.3-1.1c0-0.4-0.1-0.7-0.3-1.1c-0.1-0.3-0.2-0.7-0.1-1c0.1-0.3,0.5-0.5,0.6-0.9
		c0.2-0.7-0.2-1.3-0.5-1.8c-0.5-0.8-1.1-1.5-1.8-2.2c-0.1-0.1-0.1-0.1-0.2-0.2c0,0,0,0,0,0c0,0,0,0,0,0c0,0,0,0,0,0c0,0,0,0,0-0.1
		c0,0,0,0,0,0c0-0.1,0-0.1,0.1-0.2c0,0,0,0,0,0l0,0c0.5-1.7-2-3.4-3.1-2.4c-0.8-0.2-1.7,0.1-2.3,0.6c0-0.1,0-0.1,0-0.2
		c-0.1-0.4-0.6-0.3-0.9-0.1c-0.2,0.1-0.3,0.4-0.3,0.6c-0.2,0.5-0.1,1.1-0.2,1.6c-0.1,0.3-0.2,0.6-0.3,0.9c-0.1,0.2-0.2,0.5-0.3,0.7
		c-0.3,0.7,0.1,1,0.3,1.2c0,0,0.1,0.1,0.1,0.1c0,0,0,0,0,0c0,0,0.1,0,0.1,0.1c-0.1,0.5-0.2,1,0,1.5c0.2,0.9,1.1,1.3,1.6,2
		c0.2,0.3,0.3,0.8,0.5,1.1c0.2,0.4,0.5,0.6,0.8,0.8c0.3,0.2,0.6,0.5,0.8,0.8c0.2,0.3,0.3,0.7,0.4,1.1c0,0.3-0.1,0.7-0.1,1
		c-0.1,0.4-0.1,0.7-0.2,1.1c-0.1,0.6-0.3,1.3,0,1.9c0.2,0.5,0.6,0.9,0.9,1.4c0,0.1,0,0.1,0.1,0.2c0,0,0,0.1,0,0.1l0,0
		c0.1,0.2,0.1,0.4,0.2,0.6c0,0,0,0,0,0c0,0.2,0.1,0.4,0.1,0.6c0,0,0,0,0,0c0,0.1,0,0.1,0,0.2c0,0,0,0,0,0c0,0.1,0,0.1,0,0.2
		c0,0,0,0,0,0c0.1,0.6,0.7,0.9,1.3,1c0.3,0.1,0.7,0.2,1,0.3c0.5,0.2,0.8,0.6,1.2,0.8c0,0,0,0,0.1,0c0.1,0.1,0.2,0.1,0.3,0.1
		c0.2,0,0.4-0.1,0.6-0.1c0.5-0.2,0.9,0.3,1.3,0.6c0.1,0.1,0.3,0.2,0.5,0.3c0.2,0.1,0.4,0.1,0.6,0.2c0.3,0.1,0.5,0.3,0.5,0.6
		c0,0.2,0,0.5,0,0.7c-0.1,0.2,0.1,0.4,0.2,0.6c0.3,0.4,0.3,0.8,0.3,1.2c0,0.6,0,1.6,0.7,1.7c0,0,0,0,0,0c0.2,0.1,0.3,0.2,0.4,0.4
		c0.1,0.1,0.2,0.3,0.4,0.4c0.3,0.2,0.8,0.2,1.1,0.1c0.2,0,0.4-0.1,0.6-0.1c0,0,0.1,0,0.1,0c0,0,0,0,0,0c0,0,0.1,0,0.1,0l0,0
		c0,0,0.1,0,0.1,0l0,0c0,0,0,0,0,0c0.1,0,0.1,0,0.2,0.1C503.3,892.8,503.7,892.6,504.2,892.4C504.1,892.4,504.1,892.4,504.2,892.4
		L504.2,892.4C504.2,892.4,504.2,892.4,504.2,892.4z"/>
	<path class="st40" d="M491.4,871.8C491.4,871.9,491.4,871.9,491.4,871.8C491.4,871.9,491.4,871.9,491.4,871.8c0,0.1,0,0.1,0,0.2
		c0.1,0.3,0.2,0.5,0.4,0.6c0.2,0.2,0.5,0.3,0.7,0.4c0.4,0.2,0.9,0.6,0.9,1.4c0,0,0,0,0,0c-0.2,0.6-0.6,1-1,1.2
		c-0.4,0.2-0.8,0.2-1.2-0.3C490.6,874.4,490.5,872.1,491.4,871.8C491.4,871.7,491.4,871.8,491.4,871.8z"/>
	<path class="st40" d="M491.4,866.7c-0.2,0.4-0.7,0.5-1.1,0.2c-0.4-0.2-0.5-0.7-0.2-1.1c0.2-0.4,0.7-0.5,1.1-0.2
		C491.5,865.9,491.6,866.4,491.4,866.7z"/>
	<path class="st41" d="M494,881.7c-0.1-0.3-0.5-0.3-0.8-0.3c-0.3,0-0.5,0.1-0.6,0.4c-0.1,0.2,0.1,0.4,0.2,0.5
		c0.2,0.2,0.6,0.2,0.8,0.1C494,882.3,494.1,882,494,881.7z"/>
	<path class="st41" d="M498.8,883.9c-0.1-0.3-0.5-0.3-0.8-0.2c-0.2,0-0.3,0.1-0.4,0.3c-0.1,0.2,0,0.4,0.1,0.5
		c0.2,0.2,0.5,0.2,0.7,0.1C498.6,884.4,498.9,884.1,498.8,883.9z"/>
	<path class="st41" d="M500.9,887.4c0.2-0.3,0-0.6-0.3-0.8c-0.2-0.2-0.8-0.1-1,0c-0.2,0.1-0.3,0.4-0.2,0.6c0.1,0.2,0.4,0.4,0.6,0.4
		C500.4,887.8,500.7,887.7,500.9,887.4z"/>
	<path class="st41" d="M492.4,880.8c-0.1,0-0.1-0.1-0.2-0.1c0,0-0.1-0.1-0.2-0.1c-0.2,0-0.4,0-0.5,0.2c-0.1,0.1-0.1,0.3,0,0.4
		c0.2,0.2,0.5,0.2,0.8,0C492.5,881.2,492.6,880.9,492.4,880.8z"/>
	<path class="st41" d="M492.6,878c0-0.4-0.4-0.5-0.7-0.5c-0.3,0-0.6,0.1-0.8,0.4c-0.1,0.2-0.2,0.4-0.1,0.5c0.1,0.2,0.3,0.3,0.5,0.3
		c0.3,0.1,0.6,0,0.8-0.2C492.5,878.4,492.6,878.2,492.6,878z"/>
</g>
<g class="st33">
	<path class="st0" d="M869.4,634.4L869.4,634.4C869.4,634.4,869.4,634.4,869.4,634.4c0,0.1,0,0.2-0.1,0.3c-0.5,0.7-8-1.5-9.6-8.2
		c-0.2,0-0.3,0-0.5,0c-0.2,0-0.4,0-0.7,0h0c-0.1,0-0.2,0-0.3,0c0,0,0,0,0,0c-0.1,0-0.2,0-0.3,0c0,0,0,0,0,0c-0.1,0-0.2,0-0.3,0
		c0,0,0,0-0.1,0c-0.1,0-0.2,0-0.3,0c-2.6-0.2-6.2,0.1-9.8,2.5c-1.3,1.2-2.4,2.6-3.5,4c-1.6,2.2-3.3,4.3-4.9,6.5
		c-1.1,1.5-2.5,3.1-3.2,4.9c-0.7-1.5-1.6-2.8-2.9-3.9c-0.7-0.6-1.6-1-2.4-1.4c-1.3,0-2.7-0.1-4.3-0.2c-7.3-1.1-13.2-2.1-15-5.6
		c0-0.1,0-0.1-0.1-0.2c0,0,0,0,0-0.1c0,0,0-0.1,0-0.1c0,0,0,0,0-0.1c0,0,0-0.1,0-0.1c0,0,0,0,0-0.1c0,0,0-0.1,0-0.1c0,0,0,0,0-0.1
		c0,0,0-0.1,0-0.1c0,0,0,0,0,0c0,0,0-0.1,0-0.1c0,0,0,0,0,0c0.1-0.3,0.3-0.3,0.5-0.2c0,0,2.1,1.5,3.3-0.6c0.1-0.2,0.2-0.4,0.3-0.7
		c-0.1,0,2.2-4.8,2.3-4.7c0.2-0.4,0.5-0.8,0.7-1.1c0.4-1,1.1-2.7,2.3-4.5c0.1-0.1,0.2-0.2,0.2-0.4c1.7-2.6,4.2-5.5,7.9-7.5
		c0.1-0.1,0.2-0.1,0.2-0.1c0,0,0,0,0,0c1.1-0.6,2.4-1.1,3.8-1.6c0,0,0,0,0,0s0.3-0.1,0.6-0.2c1.1-0.3,2.4-0.5,3.7-0.7
		c0,0,0.7,0,4.6,3.6c0.3,0.3,0.6,0.5,0.9,0.8c0.2,0.1,0.4,0.3,0.4,0.4c3.6,3.3,7.7,6.6,15,10c0.8,0.3,1.3,0.6,1.7,0.8
		c0.5-0.9,3.5-5,9.2-5.3c0,0,0.1,0,0.1,0c0,0,0,0,0,0l0,0c0,0,0,0,0,0c0,0,0,0,0,0l0,0l0,0c0,0.1,0,0.2,0,0.3
		c-0.1,0.9-0.3,2.8-1.7,4.6c-0.1,0.2-0.3,0.4-0.5,0.5c-0.1,0.1-0.2,0.2-0.2,0.2c-0.1,0.1-0.2,0.2-0.4,0.3c-0.1,0.1-0.2,0.1-0.2,0.2
		c0.4,0.4,0.9,1.1,1.3,1.9c0.1,0.1,0.1,0.2,0.2,0.4c0.1,0.2,0.2,0.4,0.4,0.7c0,0.1,0.1,0.2,0.1,0.3c0.7,1.5,1.3,3.2,1.3,4.7
		C869.4,634.2,869.4,634.3,869.4,634.4C869.4,634.4,869.4,634.4,869.4,634.4z"/>
	<path class="st2" d="M840.2,626.4c0.4-0.2,1.2-2.7,0.4-5c-0.5-1.6-0.7-2.6-1-3.3c-1.2-0.4-2.4-0.7-3.8-0.9
		C837.3,618.5,840,621.6,840.2,626.4z"/>
	<path class="st2" d="M845.1,625c0.3-0.2,0.9-2.4,0.7-4.3c-0.8-0.4-1.6-0.9-2.4-1.3c0.2,0.7,0.5,1.6,0.8,2.4
		C844.7,623.2,845,624,845.1,625z"/>
	<path class="st2" d="M848.5,624.6C848.5,624.6,848.5,624.6,848.5,624.6c0.1,0.1,0.9-0.7,1.2-1.7c-0.3-0.1-0.5-0.3-0.8-0.4
		c-0.1,0-0.2-0.1-0.3-0.1C848.6,622.9,848.6,623.8,848.5,624.6z"/>
	<path class="st2" d="M831.6,630c-0.7-3.3-4.7-7.1-6.7-8.7c-1.3-1-3.1-1.1-4.3-1c0.1-0.1,0.2-0.2,0.2-0.4c0.6-0.4,1.3-0.8,2-1.2
		c0.7,0.4,1.9,0.8,3.9,2.6C832.1,626.1,832,629.5,831.6,630z"/>
	<path class="st2" d="M836.8,629c0.1,0.4,0.2,0.7,0.2,0.7s0.8-3.2-1.2-6.7c-1.6-2.9-4.1-5.2-5.8-6.1c-1.1,0.1-2.1,0.3-3.2,0.5
		c-0.5,0.1-1,0.2-1.5,0.3c1,0.2,2.7,0.6,4.6,2C832.8,621.8,835.8,624.3,836.8,629z"/>
	<path class="st0" d="M827.3,631.7c0,0,2.8,0.9,3.2,5.6c0.9,0.5,5.5-0.9,3.5-5.5c-0.7-0.8-3.9,0.6-6.4-0.4
		C827.2,631.5,827.2,631.7,827.3,631.7z"/>
	<path class="st0" d="M820.5,628.7c0.2,0.9-0.4,1.8-1.3,2c-0.9,0.2-1.8-0.4-2-1.3c-0.2-0.9,0.4-1.8,1.3-2
		C819.4,627.2,820.3,627.8,820.5,628.7z"/>
</g>
</svg>
