<?xml version="1.0" encoding="utf-8"?>
<!-- Generator: Adobe Illustrator 23.1.0, SVG Export Plug-In . SVG Version: 6.00 Build 0)  -->
<svg version="1.1" id="Layer_1" xmlns="http://www.w3.org/2000/svg" xmlns:xlink="http://www.w3.org/1999/xlink" x="0px" y="0px"
	 viewBox="0 0 1000 1000" style="enable-background:new 0 0 1000 1000;" xml:space="preserve">
<style type="text/css">
	.st0{fill:none;stroke:#00CED1;stroke-miterlimit:10;}
	.st1{opacity:0.8;fill:none;stroke:#00CED1;stroke-miterlimit:10;}
	.st2{opacity:0.5;fill:none;stroke:#00CED1;stroke-miterlimit:10;}
	.st3{opacity:0.7;fill:none;stroke:#00CED1;stroke-miterlimit:10;}
	.st4{opacity:0.7;}
	.st5{opacity:0.4;fill:none;stroke:#00CED1;stroke-miterlimit:10;}
	.st6{opacity:0.65;fill:none;stroke:#00CED1;stroke-miterlimit:10;}
	.st7{opacity:0.4;}
	.st8{fill:none;stroke:#00CED1;stroke-width:1.5;stroke-miterlimit:10;}
	.st9{opacity:0.8;fill:none;stroke:#00CED1;stroke-width:1.5;stroke-miterlimit:10;}
	.st10{opacity:0.5;fill:none;stroke:#00CED1;stroke-width:1.5;stroke-miterlimit:10;}
	.st11{opacity:0.7;fill:none;stroke:#00CED1;stroke-width:1.5;stroke-miterlimit:10;}
	.st12{opacity:0.4;fill:none;stroke:#00CED1;stroke-width:1.5;stroke-miterlimit:10;}
	.st13{opacity:0.65;fill:none;stroke:#00CED1;stroke-width:1.5;stroke-miterlimit:10;}
	.st14{fill:none;stroke:#00CED1;stroke-width:1.5;stroke-linecap:round;stroke-linejoin:round;stroke-miterlimit:10;}
	.st15{opacity:0.5;fill:none;stroke:#00CED1;stroke-width:1.5;stroke-linecap:round;stroke-linejoin:round;stroke-miterlimit:10;}
	.st16{opacity:0.8;fill:none;stroke:#00CED1;stroke-width:1.5;stroke-linecap:round;stroke-linejoin:round;stroke-miterlimit:10;}
	.st17{opacity:0.7;fill:none;stroke:#00CED1;stroke-width:1.5;stroke-linecap:round;stroke-linejoin:round;stroke-miterlimit:10;}
	.st18{opacity:0.4;fill:none;stroke:#00CED1;stroke-width:1.5;stroke-linecap:round;stroke-linejoin:round;stroke-miterlimit:10;}
	.st19{opacity:0.6;fill:none;stroke:#00CED1;stroke-width:1.5;stroke-linecap:round;stroke-linejoin:round;stroke-miterlimit:10;}
	.st20{opacity:5.000000e-02;fill:#FFFFFF;}
	.st21{opacity:0.9;fill:none;stroke:#00CED1;stroke-width:1.5;stroke-linecap:round;stroke-linejoin:round;stroke-miterlimit:10;}
	.st22{opacity:0.3;fill:none;stroke:#00CED1;stroke-width:1.5;stroke-linecap:round;stroke-linejoin:round;stroke-miterlimit:10;}
	.st23{fill:url(#SVGID_1_);}
	.st24{opacity:0.8;}
	.st25{opacity:0.5;}
	.st26{fill:none;stroke:#00CED1;stroke-width:0.75;stroke-miterlimit:10;}
	.st27{opacity:0.5;fill:none;stroke:#00CED1;stroke-width:0.75;stroke-miterlimit:10;}
</style>
<g>
	<g>
		<circle class="st0" cx="694" cy="416.6" r="8.6"/>
		<circle class="st1" cx="691.9" cy="389.2" r="5.2"/>
		<circle class="st0" cx="673.4" cy="445.1" r="3.7"/>
		<circle class="st2" cx="668.1" cy="509.2" r="5.2"/>
		<circle class="st0" cx="740.1" cy="446" r="8.6"/>
		<circle class="st0" cx="718.5" cy="393.3" r="8.6"/>
		<circle class="st2" cx="668.1" cy="416.8" r="8.6"/>
		<circle class="st0" cx="709.9" cy="358.3" r="8.6"/>
		<circle class="st0" cx="621.8" cy="513.4" r="8.6"/>
		<circle class="st2" cx="699.2" cy="516.6" r="2.1"/>
		<circle class="st0" cx="609.2" cy="456.8" r="7.3"/>
		<circle class="st3" cx="677.9" cy="340.5" r="10"/>
		<circle class="st0" cx="712.5" cy="455.9" r="7.9"/>
		<circle class="st0" cx="704.5" cy="420.7" r="2.6"/>
		<circle class="st0" cx="685.4" cy="421.6" r="1.4"/>
		<circle class="st0" cx="684.7" cy="419.2" r="1"/>
		<circle class="st0" cx="684.9" cy="416.1" r="0.5"/>
		<circle class="st0" cx="701.3" cy="423" r="1"/>
		<circle class="st0" cx="699.7" cy="423.8" r="0.5"/>
		<circle class="st0" cx="625.3" cy="262.9" r="11.5"/>
		<circle class="st0" cx="615.7" cy="274.4" r="3.5"/>
		<circle class="st0" cx="622.7" cy="249.9" r="1.8"/>
		<circle class="st0" cx="626" cy="250.1" r="1.4"/>
		<circle class="st0" cx="629.7" cy="251.6" r="0.6"/>
		<circle class="st0" cx="614.2" cy="269.5" r="1.4"/>
		<circle class="st0" cx="613.9" cy="267.1" r="0.7"/>
		<g class="st4">
			<circle class="st0" cx="688.1" cy="548.1" r="4.8"/>
			<circle class="st0" cx="693.9" cy="550.4" r="1.5"/>
			<circle class="st0" cx="683.2" cy="550.9" r="0.8"/>
			<circle class="st0" cx="682.9" cy="549.5" r="0.6"/>
			<circle class="st0" cx="683" cy="547.8" r="0.3"/>
			<circle class="st0" cx="692.1" cy="551.7" r="0.6"/>
			<circle class="st0" cx="691.3" cy="552.1" r="0.3"/>
		</g>
		<circle class="st0" cx="636" cy="479.2" r="4.2"/>
		<circle class="st0" cx="641" cy="481.2" r="1.3"/>
		<circle class="st0" cx="639.5" cy="482.2" r="0.5"/>
		<circle class="st0" cx="638.7" cy="482.6" r="0.3"/>
		<circle class="st0" cx="668.1" cy="380.5" r="8.6"/>
		<circle class="st0" cx="716.8" cy="317" r="8.6"/>
		<circle class="st2" cx="737.9" cy="362" r="8.6"/>
		<circle class="st0" cx="596.2" cy="296.9" r="8.6"/>
		<circle class="st0" cx="629.4" cy="297.6" r="8.6"/>
		<circle class="st2" cx="677.9" cy="269.6" r="12.1"/>
		<circle class="st0" cx="605.7" cy="323.7" r="4.7"/>
		<circle class="st0" cx="588.8" cy="350.5" r="2.6"/>
		<circle class="st5" cx="578.9" cy="310.5" r="8.6"/>
		<circle class="st0" cx="616" cy="375.2" r="5.2"/>
		<circle class="st2" cx="609.2" cy="352" r="7.3"/>
		<circle class="st0" cx="648.8" cy="328.9" r="5.2"/>
		<circle class="st0" cx="642.3" cy="454.7" r="4.2"/>
		<circle class="st0" cx="694" cy="487.7" r="4.2"/>
		<circle class="st2" cx="656.1" cy="528.4" r="3.1"/>
		<circle class="st0" cx="690.2" cy="434.8" r="2.1"/>
		<g>
			<circle class="st0" cx="679" cy="466.3" r="4.8"/>
			<circle class="st0" cx="684.9" cy="468.6" r="1.5"/>
			<circle class="st0" cx="674.2" cy="469" r="0.8"/>
			<circle class="st0" cx="673.8" cy="467.7" r="0.6"/>
			<circle class="st0" cx="673.9" cy="466" r="0.3"/>
			<circle class="st0" cx="683.1" cy="469.8" r="0.6"/>
			<circle class="st0" cx="682.2" cy="470.3" r="0.3"/>
		</g>
		<circle class="st0" cx="654.7" cy="432.7" r="3.1"/>
		<circle class="st2" cx="721.1" cy="546.7" r="5.2"/>
		<circle class="st0" cx="583.2" cy="391.7" r="5.2"/>
		<circle class="st0" cx="614.4" cy="399.2" r="8.6"/>
		<circle class="st0" cx="571.3" cy="410.9" r="3.1"/>
		<circle class="st0" cx="636.3" cy="429.2" r="5.2"/>
		<circle class="st0" cx="725.3" cy="495" r="6.3"/>
		<circle class="st0" cx="662.1" cy="487.7" r="2.1"/>
		<circle class="st6" cx="724.3" cy="253.1" r="5.2"/>
		<g>
			<circle class="st0" cx="704.3" cy="292.1" r="4.8"/>
			<circle class="st0" cx="698.4" cy="294.4" r="1.5"/>
			<circle class="st0" cx="709.1" cy="294.9" r="0.8"/>
			<circle class="st0" cx="709.5" cy="293.5" r="0.6"/>
			<circle class="st0" cx="709.4" cy="291.8" r="0.3"/>
			<circle class="st0" cx="700.2" cy="295.6" r="0.6"/>
			<circle class="st0" cx="701.1" cy="296.1" r="0.3"/>
		</g>
		<circle class="st0" cx="698.3" cy="231.7" r="4.2"/>
		<circle class="st0" cx="736.2" cy="272.4" r="3.1"/>
		<circle class="st6" cx="730.3" cy="231.7" r="2.1"/>
		<circle class="st0" cx="656.5" cy="292.6" r="3.7"/>
		<circle class="st0" cx="661.8" cy="356.7" r="5.2"/>
		<circle class="st0" cx="630.7" cy="364.1" r="2.1"/>
		<circle class="st3" cx="693.9" cy="326.7" r="4.2"/>
		<circle class="st3" cx="688.9" cy="328.7" r="1.3"/>
		<circle class="st0" cx="676.7" cy="305.5" r="4.2"/>
		<circle class="st0" cx="629.8" cy="335.5" r="4.2"/>
		<g class="st7">
			<circle class="st0" cx="650" cy="313" r="4.8"/>
			<circle class="st0" cx="653.3" cy="318.4" r="1.5"/>
			<circle class="st0" cx="651.9" cy="307.8" r="0.8"/>
			<circle class="st0" cx="650.5" cy="307.6" r="0.6"/>
			<circle class="st0" cx="648.8" cy="308.1" r="0.3"/>
			<circle class="st0" cx="654.2" cy="316.4" r="0.6"/>
			<circle class="st0" cx="654.5" cy="315.5" r="0.3"/>
		</g>
		<circle class="st0" cx="645.3" cy="385.4" r="2.1"/>
	</g>
	<g>
		<circle class="st8" cx="334" cy="326.5" r="14.4"/>
		<circle class="st9" cx="337.6" cy="372.1" r="8.8"/>
		<circle class="st8" cx="368.4" cy="278.9" r="6.1"/>
		<circle class="st10" cx="377.3" cy="171.9" r="8.8"/>
		<circle class="st8" cx="257" cy="277.3" r="14.4"/>
		<circle class="st8" cx="293.1" cy="365.3" r="14.4"/>
		<circle class="st10" cx="377.3" cy="326.1" r="14.4"/>
		<circle class="st8" cx="307.5" cy="423.7" r="14.4"/>
		<circle class="st8" cx="454.6" cy="164.9" r="14.4"/>
		<circle class="st10" cx="325.3" cy="159.4" r="3.5"/>
		<circle class="st8" cx="475.6" cy="259.3" r="12.3"/>
		<circle class="st11" cx="360.9" cy="453.5" r="16.7"/>
		<circle class="st8" cx="303.1" cy="260.9" r="13.1"/>
		<circle class="st8" cx="316.5" cy="319.6" r="4.4"/>
		<circle class="st8" cx="348.4" cy="318.1" r="2.3"/>
		<circle class="st8" cx="349.5" cy="322.2" r="1.8"/>
		<circle class="st8" cx="349.2" cy="327.2" r="0.8"/>
		<circle class="st8" cx="321.8" cy="315.8" r="1.8"/>
		<circle class="st8" cx="324.4" cy="314.5" r="0.9"/>
		<circle class="st8" cx="448.7" cy="583" r="19.1"/>
		<circle class="st8" cx="464.7" cy="563.9" r="5.8"/>
		<circle class="st8" cx="453.1" cy="604.7" r="3"/>
		<circle class="st8" cx="447.5" cy="604.4" r="2.3"/>
		<circle class="st8" cx="441.3" cy="601.9" r="1.1"/>
		<circle class="st8" cx="467.2" cy="572.1" r="2.3"/>
		<circle class="st8" cx="467.8" cy="576" r="1.2"/>
		<g class="st4">
			<circle class="st8" cx="343.9" cy="106.9" r="8.1"/>
			<circle class="st8" cx="334.1" cy="103" r="2.4"/>
			<circle class="st8" cx="352" cy="102.2" r="1.3"/>
			<circle class="st8" cx="352.6" cy="104.5" r="1"/>
			<circle class="st8" cx="352.4" cy="107.3" r="0.4"/>
			<circle class="st8" cx="337.1" cy="100.9" r="1"/>
			<circle class="st8" cx="338.6" cy="100.2" r="0.5"/>
		</g>
		<circle class="st8" cx="430.9" cy="222" r="7"/>
		<circle class="st8" cx="422.4" cy="218.7" r="2.1"/>
		<circle class="st8" cx="425" cy="216.9" r="0.8"/>
		<circle class="st8" cx="426.3" cy="216.2" r="0.4"/>
		<circle class="st8" cx="377.3" cy="386.7" r="14.4"/>
		<circle class="st8" cx="296" cy="492.7" r="14.4"/>
		<circle class="st10" cx="260.6" cy="417.6" r="14.4"/>
		<circle class="st8" cx="497.3" cy="526.3" r="14.4"/>
		<circle class="st8" cx="441.9" cy="525.1" r="14.4"/>
		<circle class="st10" cx="360.9" cy="571.8" r="20.2"/>
		<circle class="st8" cx="481.3" cy="481.5" r="7.9"/>
		<circle class="st8" cx="509.7" cy="436.8" r="4.4"/>
		<circle class="st12" cx="526.1" cy="503.7" r="14.4"/>
		<circle class="st8" cx="464.2" cy="395.6" r="8.8"/>
		<circle class="st10" cx="475.6" cy="434.4" r="12.3"/>
		<circle class="st8" cx="409.5" cy="472.8" r="8.8"/>
		<circle class="st8" cx="420.3" cy="262.9" r="7"/>
		<circle class="st8" cx="334" cy="207.7" r="7"/>
		<circle class="st10" cx="397.3" cy="139.8" r="5.3"/>
		<circle class="st8" cx="340.4" cy="296.1" r="3.5"/>
		<g>
			<circle class="st8" cx="359" cy="243.5" r="8.1"/>
			<circle class="st8" cx="349.3" cy="239.7" r="2.4"/>
			<circle class="st8" cx="367.1" cy="238.9" r="1.3"/>
			<circle class="st8" cx="367.7" cy="241.1" r="1"/>
			<circle class="st8" cx="367.5" cy="244" r="0.4"/>
			<circle class="st8" cx="352.2" cy="237.6" r="1"/>
			<circle class="st8" cx="353.7" cy="236.9" r="0.5"/>
		</g>
		<circle class="st8" cx="399.7" cy="299.6" r="5.3"/>
		<circle class="st10" cx="288.7" cy="109.3" r="8.8"/>
		<circle class="st8" cx="518.9" cy="368" r="8.8"/>
		<circle class="st8" cx="466.9" cy="355.6" r="14.4"/>
		<circle class="st8" cx="538.9" cy="335.9" r="5.3"/>
		<circle class="st8" cx="430.3" cy="305.4" r="8.8"/>
		<circle class="st8" cx="281.7" cy="195.6" r="10.5"/>
		<circle class="st8" cx="387.3" cy="207.7" r="3.5"/>
		<circle class="st13" cx="283.5" cy="599.4" r="8.8"/>
		<g>
			<circle class="st8" cx="316.8" cy="534.4" r="8.1"/>
			<circle class="st8" cx="326.6" cy="530.5" r="2.4"/>
			<circle class="st8" cx="308.8" cy="529.7" r="1.3"/>
			<circle class="st8" cx="308.1" cy="532" r="1"/>
			<circle class="st8" cx="308.3" cy="534.8" r="0.4"/>
			<circle class="st8" cx="323.6" cy="528.4" r="1"/>
			<circle class="st8" cx="322.2" cy="527.7" r="0.5"/>
		</g>
		<circle class="st8" cx="326.7" cy="635.2" r="7"/>
		<circle class="st8" cx="263.5" cy="567.2" r="5.3"/>
		<circle class="st13" cx="273.4" cy="635.2" r="3.5"/>
		<circle class="st8" cx="396.6" cy="533.4" r="6.1"/>
		<circle class="st8" cx="387.7" cy="426.5" r="8.8"/>
		<circle class="st8" cx="439.7" cy="414" r="3.5"/>
		<circle class="st11" cx="334.1" cy="476.6" r="7"/>
		<circle class="st11" cx="342.6" cy="473.2" r="2.1"/>
		<circle class="st8" cx="362.8" cy="511.9" r="7"/>
		<circle class="st8" cx="441.1" cy="461.8" r="7"/>
		<g class="st7">
			<circle class="st8" cx="407.5" cy="499.4" r="8.1"/>
			<circle class="st8" cx="402" cy="490.4" r="2.4"/>
			<circle class="st8" cx="404.3" cy="508.1" r="1.3"/>
			<circle class="st8" cx="406.7" cy="508.4" r="1"/>
			<circle class="st8" cx="409.4" cy="507.7" r="0.4"/>
			<circle class="st8" cx="400.4" cy="493.7" r="1"/>
			<circle class="st8" cx="400" cy="495.3" r="0.5"/>
		</g>
		<circle class="st8" cx="415.4" cy="378.5" r="3.5"/>
	</g>
	<g>
		<path d="M434.3,372.9v-11.5c0,0-2.2-20.8,36.7-22.1l48.6-1.3l17.7,0.7c0,0,37.6,1,39.5,20.7l0.5,13.5c0,0,17,9,22.3,14
			c0,0,17.2-10.1,38.2,22.3c0,0,9.4,14.2,7.3,29.3l7.6,13.9l15.6,2.9c0,0,3.1,1.6,4.9,9.7c0,0,12.2-0.2,12.2,22.3v54.5
			c0,0-0.3,20-16.3,21.4c0,0,3.1,0.3,2.5,3.5c0,0,0.3,6.5-6.1,6.5l-15,1.4c0,0-0.8,1.8-5,3.7l-6.8,19.4c0,0,18.1-6.8,17.5,11.9
			c0,0-1.8,7.8-9.6,8.5l-1,6.8l-3.2,24.5c0,0-0.9,8.1-7.8,6l-0.3,4.3L630,662l0.8,3.6c0,0,0.2,2.2,3.8,1.9l11.8-1.4l13.6-18.2v-9.6
			l3.3-0.4l0.7-0.8h4.7l0.3-2.8h11.5v2.9l4.9,0.9v13.6l-0.3,10c0,0,5.3,54.4-20.4,99.2c0,0-20.3,51.2-88.3,94.8
			c0,0-35.9,24.5-71.3,24.5s-73.9-27.9-73.9-27.9s-66.7-39.9-96.6-117.9c0,0-13.8-33.5-9.2-83l-0.7-13.7l4.2-1.3l0.7-2.4h11.3v2.6
			h5.1v1.4h3.9v12.2l14,15.8l13.2,1.6c0,0,3.7,0.6,3.5-6.4l-3.5-1.5l-0.4-11.5c0,0-10.6,2.9-10.3-12.2c0,0,0.4-12.1,9.6-11.3
			c0,0,0.3-5.8,2.6-12.6l-0.8-0.8c0,0-5.8-0.9-5.8-4c0-3.2,4-3.3,4-3.3l-7.4-29.4c0,0-2.7,0.3-4.7-3.1l-16.8-1.7c0,0-4,1.1-4.8-7.2
			c0,0,5.6-0.5,3.2-2.5c0,0-16.4,0.2-16.4-23.1v-56.2c0,0-0.2-18.5,14.7-19.2c0,0,2.2-1.7-1-3.1c0,0,0.5-4.8,3.6-6.1l14.6-3.2
			C360.8,449.1,380.7,400.4,434.3,372.9z"/>
		<g>
			<path class="st14" d="M664.5,479C664.5,479,664.5,479,664.5,479"/>
			<path class="st14" d="M602.1,386.9c-7.1-5.3-14.7-10-22.6-14c-0.2-0.1-0.4-0.2-0.6-0.3c-0.3-0.1-0.5-0.3-0.8-0.4"/>
			<path class="st14" d="M402.3,653.4C402.3,653.4,402.3,653.4,402.3,653.4"/>
			<path class="st14" d="M351.5,570.1c-0.1-0.4-0.2-0.8-0.3-1.2"/>
			<path class="st14" d="M362.6,449.6c1.4-3,3-6,4.6-8.9c16.1-29.2,40.3-52.9,69.4-67.7c0.3-0.2,0.6-0.3,1-0.5
				c0.1-0.1,0.3-0.1,0.4-0.2"/>
			<path class="st14" d="M378.1,626.5c-0.4-0.5-0.8-1.1-1.1-1.6"/>
			<path class="st14" d="M393.6,645c0,0-0.1-0.1-0.1-0.2"/>
			<path class="st14" d="M384.5,634.8C384.5,634.8,384.5,634.8,384.5,634.8"/>
			<path class="st14" d="M647.4,437.9c1.2,2.1,2.3,4.1,3.4,6.2c1.4,2.7,2.7,5.4,4,8.2v0c0,0,0,0.1,0,0.1"/>
			<line class="st14" x1="661.8" y1="470.2" x2="661.8" y2="470.2"/>
			<path class="st14" d="M486.9,338.6c-5.4,0.2-10,0.5-13.3,0.7c0,0,0,0-0.1,0c0,0-0.1,0-0.1,0c0,0-0.1,0-0.1,0
				c-0.9,0-1.7,0.1-2.4,0.1c0,0,0,0-0.1,0c-1.9,0.1-3,0.2-3,0.2s-27.8,0.6-31.5,19.8c0,0,0.1,4.2,0.2,9.9v0c0,0.1,0,0.1,0,0.2v0
				c0,1.1,0,2.3,0,3.4c0.1,8.7,0.1,19-0.2,22.3c-0.6,6.2,3.7,18.5,31.5,14.2s69.2-1.2,74.1-0.6c4.9,0.6,39.5,9.3,38.3-16.1
				c0,0-0.4-10.6-0.8-19.8c0-0.7,0-1.3-0.1-1.9c0,0,0,0,0,0c-0.2-5.8-0.4-10.7-0.4-11.6c0-2.5-1.2-16.1-29.7-19.8
				c-6-0.8-13.2-1.2-20.7-1.5"/>
			<path class="st15" d="M492.2,338.4c9.4-0.3,20.5-0.5,31.2-0.4"/>
			<path class="st14" d="M579.5,371c0,0-2.7,13-18.9,13.8H453.4c0,0-12.9,0.3-17-16.1c0,0,3.5,13.2,20.7,13.5l101.9-0.5
				C559,381.6,567.1,383.1,579.5,371z"/>
			<path class="st15" d="M458.3,365.8c2.4,9.7,17.9,9.3,17.9,9.3l10.7-0.1"/>
			<path class="st15" d="M528.8,374.5l13.3-0.2c10.1-0.4,14.3-8.5,14.3-8.5"/>
			<line class="st15" x1="523.4" y1="374.6" x2="492.2" y2="375"/>
			<line class="st15" x1="523.4" y1="349.7" x2="492.2" y2="349.7"/>
			<line class="st15" x1="523.4" y1="365.8" x2="492.2" y2="365.8"/>
			<path class="st15" d="M528.8,365.8h27.6h7.2h5.7c-0.8-4.8-3.6-8.1-7.2-10.5c-8.1-5.3-19.8-5.6-19.8-5.6h-13.5"/>
			<path class="st15" d="M486.9,349.7h-11.7c-9.4,0-16,2.5-20.4,5.6c-6.7,4.6-8.6,10.5-8.6,10.5h12.1h28.6"/>
			<line class="st14" x1="523.4" y1="339.2" x2="492.2" y2="339.2"/>
			<path class="st15" d="M528.8,339.2h13.5c0,0,24.4,0.5,27,16.1h-7.2"/>
			<path class="st15" d="M454.8,355.3h-8.6c0,0,4.5-14.1,24.7-15.9c0,0,0,0,0,0c0.8-0.1,1.6-0.1,2.4-0.1c0,0,0.1,0,0.1,0
				c0,0,0.1,0,0.1,0c0,0,0,0,0.1,0c0.5,0,1.1,0,1.6,0h11.7"/>
			<rect x="486.9" y="334.4" class="st16" width="5.4" height="47.6"/>
			<rect x="523.4" y="334.4" class="st16" width="5.4" height="47.6"/>
			<path class="st14" d="M574.2,356.7c0,0-5.4,2.8-2.8,3.2"/>
			<path class="st14" d="M441.8,357.8c0,0,2.8,0.1,2.2,2.1"/>
			<path class="st15" d="M590.8,393.5c0,0-13.5,19.9,13.8,51.6c0,0,16.7,21,31,9l6.6-6.6c0,0-17.7,8.2-33.6-17.7
				c-11.7-19.1-10.3-29.4-10.6-40.5L590.8,393.5z"/>
			<path class="st14" d="M597.9,389.3c0,0,16.7-14,36.8,12.2c20.1,26.2,11.6,43.4,8.7,45.5c0,0-16.4,10.4-34.9-17.2
				C594.5,408.8,597.9,389.3,597.9,389.3z"/>
			<path class="st14" d="M486.3,609.2c-2.7-0.8-5.3-1.7-7.9-2.8 M529.9,609.2L529.9,609.2c2.7-0.8,5.3-1.7,7.9-2.8 M593.3,523.9
				c-0.8-7.1-2.4-14-4.8-20.5c-0.7-2-1.5-3.9-2.4-5.8c-5.3-11.5-13-21.6-22.5-29.7h0c-15-12.7-34.3-20.4-55.5-20.4
				c-40.9,0-75,28.6-83.7,66.8c-0.6,2.7-1.1,5.4-1.4,8.2c-0.3,2.2-0.5,4.4-0.6,6.7c-0.1,1.4-0.1,2.7-0.1,4.1c0,4.8,0.4,9.5,1.1,14
				c0.4,2.4,0.9,4.7,1.5,7.1c0.7,2.8,1.6,5.6,2.5,8.3c3.3,9,8,17.3,14,24.6h0c0.8,1,1.6,1.9,2.4,2.9h0c1.9,2.2,4,4.3,6.1,6.3
				c4.4,4,9.2,7.6,14.4,10.7h0c1.7,1,3.4,1.9,5.1,2.8c11.6,5.9,24.8,9.2,38.7,9.2c14,0,27.2-3.3,38.8-9.3c1.7-0.9,3.4-1.8,5.1-2.8
				c19-11.3,33.2-29.7,39-51.6c0.4-1.4,0.7-2.9,1-4.3c1.2-5.7,1.8-11.7,1.8-17.8C593.8,530.1,593.6,527,593.3,523.9z"/>
			<path class="st15" d="M486.3,609.2c-2.7-0.8-5.3-1.7-7.9-2.8 M529.9,609.2L529.9,609.2c2.7-0.8,5.3-1.7,7.9-2.8 M536.1,460.3
				C536.1,460.3,536.1,460.3,536.1,460.3c-8.7-3.2-18.2-5-28-5c-9.4,0-18.4,1.6-26.8,4.6h0c-24.7,8.7-43.9,29.1-50.9,54.5
				c-1.9,6.8-2.9,14-2.9,21.4c0,19.4,6.9,37.2,18.3,51.1c0.8,1,1.6,1.9,2.5,2.9c2,2.2,4.1,4.3,6.3,6.3c4.7,4.2,9.8,7.8,15.4,10.7
				c1.9,1,3.8,1.9,5.8,2.8h0c9.9,4.3,20.8,6.7,32.3,6.7c13.8,0,26.8-3.5,38.2-9.6h0c5.5-3,10.7-6.6,15.4-10.8h0
				c2.2-2,4.3-4.1,6.3-6.3h0c12.8-14.3,20.6-33.1,20.6-53.8C588.5,501.2,566.7,471.7,536.1,460.3z"/>
			<path class="st14" d="M486.3,609.2c6.9,2,14.2,3.1,21.8,3.1c7.6,0,15-1.1,21.9-3.2"/>
			<path class="st14" d="M537.8,606.3c9-3.8,17.1-9.3,23.9-16c0.2-0.2,0.4-0.4,0.6-0.6c0.2-0.2,0.4-0.3,0.5-0.5
				c0.9-0.9,1.8-1.9,2.7-2.9c11.9-13.5,19.1-31.2,19.1-50.5c0-17-5.5-32.6-14.9-45.3h0c-13.9-18.9-36.4-31.2-61.7-31.2
				c-42.3,0-76.6,34.3-76.6,76.6c0,19.4,7.2,37.2,19.2,50.7h0c0.9,1,1.8,1.9,2.7,2.9h0c0,0,0.1,0.1,0.1,0.1c0,0,0,0,0,0
				c0.7,0.8,1.5,1.5,2.3,2.2c1.5,1.4,3,2.7,4.5,3.9c5.5,4.4,11.6,8,18.1,10.8"/>
			<path class="st15" d="M558.8,495.2c8.9,11.1,14.2,25.2,14.2,40.6c0,15.7-5.6,30.1-14.9,41.4"/>
			<path class="st15" d="M457.8,577.2c-9.3-11.2-14.8-25.7-14.8-41.4c0-15.3,5.3-29.3,14.1-40.4l0,0"/>
			<path class="st15" d="M467.5,586.7c0.7,0.6,1.4,1.1,2.1,1.6c3.3,2.4,6.8,4.5,10.6,6.3c8.4,4,17.9,6.2,27.8,6.2
				c10,0,19.5-2.3,28-6.3c4.5-2.1,8.7-4.8,12.5-7.8"/>
			<line class="st14" x1="466" y1="585.4" x2="466" y2="585.4"/>
			<path class="st14" d="M466.6,485.7c11.3-9.3,25.7-14.9,41.4-14.9c13.9,0,26.9,4.4,37.4,11.9h0c1.3,0.9,2.6,1.9,3.8,2.9"/>
			<path class="st14" d="M458.9,513.7c5.5-12.2,15.4-22,27.7-27.3"/>
			<path class="st17" d="M530.6,486.9c12.3,5.7,22.1,15.9,27.3,28.6c0,0,0,0,0,0"/>
			<path class="st14" d="M520.6,588.2c-4,1-8.2,1.5-12.6,1.5c-4.5,0-8.8-0.5-13-1.6h0"/>
			<path class="st14" d="M560.7,524.7c0.7,3.6,1.1,7.3,1.1,11.1c0,4.3-0.5,8.4-1.4,12.4c0,0,0,0,0,0"/>
			<path class="st14" d="M558,555.8c-5.1,12.6-14.8,22.9-27,28.7h0c-0.5,0.3-1.1,0.5-1.6,0.7"/>
			<path class="st14" d="M522.5,483.9c-4.6-1.3-9.5-2-14.5-2c-4.7,0-9.3,0.6-13.6,1.7c0,0,0,0,0,0"/>
			<path class="st17" d="M459.1,558.2c5.8,12.6,16.3,22.6,29.3,27.7"/>
			<path class="st14" d="M456.3,550.8c-1.4-4.8-2.1-9.8-2.1-15c0-5.3,0.8-10.4,2.2-15.2"/>
			<path class="st14" d="M548.7,578.3c0,0,23.6-19.9-2.9-38.7l-41.6-40.5c0,0-11.5-12.2-17.7-12.8c-6-0.6-12.9,3.3-20.7,10.5
				c-7.2,6.7-8.3,13.8-6,20.4c3.1,9.2,11.5,15.4,11.5,15.4l40.4,40.8C511.6,573.5,528.8,597,548.7,578.3z"/>
			<path class="st14" d="M552.1,580.9c0,0,23.6-23.6,1.1-40.5l-47.4-46.1c0,0-16.1-27-41.2-2c-21.8,21.7-0.9,39.3-0.9,39.3
				l48.3,49.5C512.3,581.1,528.3,603.4,552.1,580.9z"/>
			<line class="st17" x1="508.5" y1="503.3" x2="475.6" y2="537.1"/>
			<line class="st17" x1="542.9" y1="536.8" x2="508.7" y2="570.6"/>
			<path class="st17" d="M546.2,533.5c1-0.7,10.1-7.9,11.7-18c0,0,0,0,0,0c0.9-5.6-0.6-12.1-7-19c0,0-8.8-10.5-20.3-9.6
				c-5.7,0.4-12.1,3.7-18.3,12.5l-0.5,0.5"/>
			<path class="st17" d="M472.4,540.3l-0.7,0.7c0,0-11.6,10.9-12.7,17.2c0,0.2-0.1,0.3-0.1,0.5c-0.6,6,3.3,12.9,10.5,20.7
				c2.3,2.5,4.7,4.3,7.2,5.4h0c3.9,1.8,7.9,2,11.7,1.1c0.5-0.1,1.1-0.3,1.6-0.5c1-0.3,1.9-0.7,2.8-1.1h0
				c7.7-3.6,12.7-10.4,12.7-10.4"/>
			<line class="st17" x1="505.1" y1="500" x2="472.2" y2="533.7"/>
			<line class="st17" x1="546.4" y1="540.1" x2="511.9" y2="573.8"/>
			<path class="st17" d="M549.7,536.9l4-3.9c0,0,4.1-3,7-8.2c3.5-6.3,5.3-15.9-3.7-27.6c-1-1.3-2.1-2.7-3.4-4c0,0-2.6-2.6-6.6-5.2
				c-6-3.9-15.4-8-24.5-4c-3.3,1.5-6.5,4-9.5,8l-4.6,4.7"/>
			<path class="st17" d="M469.1,536.9l-2.3,2.4c0,0-7,4.2-10.5,11.6c-3.4,7.1-3.7,17.3,8.6,29.6c3.6,3.6,7,6,10.3,7.6h0
				c7.9,3.7,14.7,2.4,19.8,0h0c0.5-0.2,0.9-0.5,1.4-0.7h0c4.9-2.6,7.8-6.1,7.8-6.1l4.2-4.1"/>
			<path class="st14" d="M546.9,585.1L546.9,585.1l1.6,1.6l5,5c0,0,3.8,2.8,8.3-1.3c0.1-0.1,0.2-0.2,0.3-0.3
				c0.1-0.1,0.2-0.2,0.3-0.3c0.2-0.2,0.3-0.4,0.4-0.5c2.8-3.7,0-7.5,0-7.5l-4.5-4.5l-1.7-1.7"/>
			<line class="st18" x1="553.5" y1="585.5" x2="560.6" y2="585.5"/>
			<line class="st18" x1="557" y1="583" x2="557" y2="588.1"/>
			<path class="st14" d="M469.2,488.3l-2.6-2.6l-4.2-4.2c0,0-3.8-2.8-8.3,1.3c-4.5,4.1-1,8.6-1,8.6l3.9,3.9l2.7,2.7"/>
			<line class="st18" x1="462.4" y1="487.7" x2="455.3" y2="487.7"/>
			<line class="st18" x1="458.8" y1="490.1" x2="458.8" y2="485.1"/>
			<path class="st14" d="M558.4,495.7l-0.9,0.9l1.4-1.4l4.2-4.2c0,0,2.8-3.8-1.3-8.3c-4.1-4.5-8.6-1-8.6-1l-3.8,3.7l-2,2"/>
			<line class="st18" x1="556.9" y1="491.1" x2="556.9" y2="483.9"/>
			<line class="st18" x1="554.4" y1="487.5" x2="559.4" y2="487.5"/>
			<path class="st14" d="M459.7,575.3l-1.8,1.8l-5,5c0,0-1.3,1.7-0.8,4.2h0c0.2,0.9,0.5,1.9,1.3,3c0,0,0.1,0.1,0.1,0.1c0,0,0,0,0,0
				c0.2,0.3,0.5,0.6,0.7,0.9c0.5,0.6,1,1,1.6,1.3c3.6,2.3,7.1-0.4,7.1-0.4l4.7-4.7l1.6-1.6"/>
			<line class="st18" x1="459" y1="582.1" x2="459" y2="589.3"/>
			<line class="st18" x1="461.5" y1="585.7" x2="456.4" y2="585.7"/>
			<path class="st15" d="M650.8,444.1c-14,7.4-24.5,33-25.4,64.1c0,1.5-0.1,2.9-0.1,4.4c0,5.2,0.3,10.3,0.8,15.2
				c2.5,23.8,10.7,43,21.5,51.2"/>
			<path class="st14" d="M654.8,452.3c0,0-9.4-9.1-14.4,7s-7,27.9-7,51.1c0,23.2,3.4,51.4,8.3,61c5,9.5,9,6.6,11.1,3.3
				c0,0-10.2,4.5-13.6-29.9s0.8-73.6,4.9-83.1S648.2,451.8,654.8,452.3z"/>
			<path class="st14" d="M653.9,452.2l16.6,3.1c0,0-14.6,6.8-13.5,64s13.5,53.7,13.5,53.7l-17.6,1.7"/>
			<path class="st15" d="M662.9,453.9c0,0-10,7.4-10,63.8c0,46.6,5,49.5,10.8,55.9"/>
			<path class="st14" d="M659.8,553L659.8,553c1.9-4.9,3.4-12.6,4.3-20.4"/>
			<path class="st14" d="M670.5,455.3c0,0,2.6,1.2,3.4,6.3c0,0-7,0.8-8.2,9.2c0,0-0.5,1.6-1.2,8.2c0,0,0,0,0,0
				c-0.2,2-0.5,4.4-0.7,7.3c0,0,0.3,3.8,0.6,9"/>
			<path class="st14" d="M664.6,499.3c0.3,5.4,0.6,11.5,0.6,16.3c0,3.8-0.2,8.4-0.7,13.1"/>
			<path class="st14" d="M670.5,572.9c0,0,2.9-0.2,3.4-6.3c0,0-0.9,1.1-4.1-1.9"/>
			<line class="st15" x1="681.1" y1="528.6" x2="681.1" y2="499.3"/>
			<line class="st15" x1="669.8" y1="528.6" x2="669.8" y2="499.3"/>
			<path class="st15" d="M669.8,495.3v-30.6c0,0,11.2,2.1,11.2,22.8v7.8"/>
			<path class="st15" d="M681.1,532.6v9.1c0,0,1.3,14.3-11.2,21.7v-30.8"/>
			<path class="st15" d="M684,532.6v7.5c0,4.1-0.7,8.2-2.2,12.1c-2,4.9-5.6,10.4-11.9,11.3"/>
			<path class="st15" d="M671.9,464.7c0,0,10,0.5,12.1,19.2v11.4"/>
			<line class="st15" x1="684" y1="528.6" x2="684" y2="499.3"/>
			<path class="st15" d="M687.7,532.6v7.5c0,4.1-0.8,8.2-2.2,12.1c-3.2,8.8-9.3,10.4-15.6,11.3"/>
			<path class="st15" d="M671.9,464.7c0,0,14.8-1.7,15.8,19.2v11.4"/>
			<line class="st15" x1="687.7" y1="528.6" x2="687.7" y2="499.3"/>
			<rect x="659.8" y="495.3" class="st16" width="29.7" height="4"/>
			<rect x="659.8" y="528.6" class="st16" width="29.7" height="4"/>
			<polyline class="st14" points="586,497.6 611.6,497.6 611.6,503.4 607.8,503.4 588.4,503.4 			"/>
			<polyline class="st14" points="607.8,503.4 607.8,523.9 607.8,551.1 607.8,569.1 605.6,569.1 596.7,569.1 590.9,569.1 
				590.9,555.4 			"/>
			<line class="st15" x1="607.8" y1="551.1" x2="592" y2="551.1"/>
			<line class="st15" x1="607.8" y1="523.9" x2="593.3" y2="523.9"/>
			<polyline class="st15" points="605.6,569.1 605.6,579.7 596.7,579.7 596.7,569.1 			"/>
			<path class="st15" d="M367.2,440.6c15.1,7.2,26.3,35.3,26.3,68.9c0,30.6-9.3,56.7-22.4,66.5"/>
			<path class="st14" d="M364,449.2c0,0,9.4-9.1,14.4,7s7,27.9,7,51.1c0,23.2-3.4,51.4-8.3,61c-5,9.5-9,6.6-11.1,3.3
				c0,0,10.2,4.5,13.6-29.9c3.4-34.4-0.8-73.6-4.9-83.1S370.6,448.7,364,449.2z"/>
			<path class="st14" d="M364.9,449.1l-16.6,3.1c0,0,14.6,6.8,13.5,64s-13.5,53.7-13.5,53.7l17.6,1.7"/>
			<path class="st15" d="M356,450.8c0,0,10,7.4,10,63.8c0,46.6-5,49.5-10.8,55.9"/>
			<path class="st14" d="M354.2,496.2c-0.3,5.4-0.6,11.5-0.6,16.3c0,3.8,0.2,8.4,0.7,13.1"/>
			<path class="st14" d="M354.8,529.5c0.9,7.8,2.4,15.5,4.3,20.4"/>
			<path class="st14" d="M354.5,492.2c0.3-5.2,0.6-9,0.6-9c-0.5-5.6-0.9-9.2-1.3-11.6c-0.4-3.1-0.7-4-0.7-4
				c-1.2-8.4-8.2-9.2-8.2-9.2c0.8-5,3.4-6.3,3.4-6.3"/>
			<path class="st14" d="M348.3,569.8c0,0-2.9-0.2-3.4-6.3c0,0,0.9,1.1,4.1-1.9"/>
			<path class="st15" d="M337.8,529.5v9.1c0,0-1.3,14.3,11.3,21.7v-0.8v-30.1"/>
			<line class="st15" x1="349" y1="525.6" x2="349" y2="496.2"/>
			<line class="st15" x1="337.8" y1="525.6" x2="337.8" y2="496.2"/>
			<path class="st15" d="M349,492.2v-1.9v-28.7c0,0-11.3,2.1-11.3,22.8v7.8"/>
			<line class="st15" x1="334.8" y1="525.6" x2="334.8" y2="496.2"/>
			<path class="st15" d="M334.8,529.5v7.5c0,4.1,0.7,8.2,2.2,12.1c2,4.9,5.6,10.4,11.9,11.3"/>
			<path class="st15" d="M334.8,492.2v-11.4c2.1-18.7,12.1-19.2,12.1-19.2"/>
			<line class="st15" x1="331.1" y1="525.6" x2="331.1" y2="496.2"/>
			<path class="st15" d="M331.1,529.5v7.5c0,4.1,0.8,8.2,2.2,12.1c3.2,8.8,9.3,10.4,15.6,11.3"/>
			<path class="st15" d="M331.1,492.2v-11.4c1-20.9,15.8-19.2,15.8-19.2"/>
			<rect x="329.4" y="492.2" class="st16" width="29.7" height="4"/>
			<rect x="329.4" y="525.6" class="st16" width="29.7" height="4"/>
			<path class="st15" d="M422.3,529.2c-1.1-0.7-2.5-1.1-3.8-1.4"/>
			<path class="st15" d="M422.9,522.6c-2.1-0.6-4.1-0.7-5.9-0.5c0,0,0,0,0,0"/>
			<path class="st15" d="M415.2,522.2c-3.2,0.5-5.6,1.8-6.5,2.1c-2.2,0.7-3.4,3.3-3.4,3.3s-0.3,1.1,3.4,0.7c0,0,1.8-0.4,4.3-0.6"/>
			<path class="st15" d="M424.9,554.4c-0.9,0.4-1.8,0.7-2.6,1c-3,0.9-9.1,0.5-12,0.3c-0.3,0-0.6,0-0.8-0.1c0,0,0,0,0,0
				c-0.6,0-0.9-0.1-0.9-0.1c-0.4-0.3-0.8-0.6-1.2-0.9c0,0,0,0,0,0c-1.4-1.2-1.9-2.2-2.1-3c-0.3-1,0-1.6,0-1.6c0.5,0,1.1,0,1.8,0"/>
			<path class="st15" d="M412.9,549.7c3.4-0.3,6.9-0.8,9.3-1.8c0.4-0.2,0.8-0.4,1.1-0.6"/>
			<path class="st14" d="M405.2,527.6c0,0-2-12.2,5.4-13.2h19.7"/>
			<path class="st14" d="M405.2,550.1v5.9c0,0-0.5,6.7,7.8,6.7h14.4"/>
			<circle class="st14" cx="412.4" cy="539" r="5.6"/>
			<path class="st16" d="M414.9,543.9l-2.5,7.2c-1.5,6-3,4.5-3,4.5s-2.7,0.7-2.6-3.7l0.8-10.1"/>
			<path class="st16" d="M410.9,533.7l2.5-7.2c1.5-6,3-4.5,3-4.5s2.7-0.7,2.6,3.7l-1.9,10.1"/>
			<path class="st14" d="M610.2,614.8c0,0-11.1,4.2-11.6-15.5c-0.5-19.7,11.6-21.1,17-8.4"/>
			<path class="st14" d="M640.8,606.5c0,2.5-0.6,4.9-1.6,7v0c-0.3,0.8-0.8,1.5-1.2,2.2c-0.8,1.1-1.7,2.2-2.7,3.1h0
				c-0.8,0.7-1.7,1.4-2.6,2c-0.2,0.1-0.4,0.2-0.5,0.3c-2.4,1.3-5.1,2.1-8.1,2.1c-5.4,0-10.2-2.6-13.3-6.6h0
				c-0.4-0.5-0.8-1.1-1.1-1.6c-1.5-2.5-2.3-5.4-2.3-8.5c0-9.2,7.5-16.7,16.7-16.7c5.5,0,10.4,2.7,13.4,6.8c0,0,0,0,0,0
				c0.9,1.2,1.6,2.5,2.1,4v0C640.4,602.4,640.8,604.4,640.8,606.5z"/>
			<path class="st14" d="M639.2,613.5L639.2,613.5c0.4,0.6,0.9,1.1,1.4,1.6c0.8,0.7,1.6,1.3,2.5,1.8c0.3,0.2,0.6,0.3,1,0.4
				c1.2,0.5,2.5,0.7,3.9,0.7c3.2,0,6.1-1.4,8.1-3.7c1.3-1.5,2.2-3.4,2.5-5.5c0.1-0.5,0.1-1,0.1-1.6c0-0.5,0-1-0.1-1.5
				c-0.4-3-2-5.5-4.4-7.2c-1.8-1.3-3.9-2-6.3-2c-2.4,0-4.6,0.8-6.4,2.1c-0.1,0.1-0.2,0.1-0.2,0.2c-0.4,0.3-0.8,0.6-1.1,1
				c-0.2,0.2-0.4,0.4-0.6,0.7v0"/>
			<ellipse class="st15" cx="620" cy="607.7" rx="7.5" ry="9.8"/>
			<path class="st14" d="M637.6,596.6c0,0,7.5,1.8,7.2,9.3c-0.3,7.5-3,9.5-6.8,9.7"/>
			<path class="st14" d="M643.2,617l-1.5,4.3l-6.2,17.8h0l-2.4,6.8c0,0-0.5,1.7-0.3,3.8c0.2,2.2,1.2,4.7,4.5,6
				c6.4,2.4,7.5-6.2,7.5-6.2l3.9-31.3"/>
			<line class="st14" x1="400.3" y1="649.6" x2="400.3" y2="649.6"/>
			<path class="st14" d="M403.9,581.6L403.9,581.6c0.2,0,0.3,0,0.5,0c8.1,0,15.5,2.8,21.3,7.5c1.1,0.8,2.1,1.8,3,2.7
				c1.8,1.9,3.5,4,4.8,6.2h0c2.1,3.4,3.6,7.2,4.3,11.3c0.2,1,0.3,2,0.4,3c0.1,1.1,0.2,2.2,0.2,3.4c0,5.2-1.2,10.1-3.2,14.5"/>
			<path class="st14" d="M405.2,608.7l3.7,3.6c0.2,0.2,0.3,0.5,0.5,0.7c0.6,1,1.2,1.9,1.7,2.8c9.6,17.2-0.2,27.3-1.9,28.9h0
				c-0.1,0.1-0.2,0.2-0.2,0.2"/>
			<polyline class="st14" points="408.9,645 408.9,645 409.3,644.8 409.3,644.8 435.2,630.2 			"/>
			<path class="st14" d="M378.1,626.5C378.1,626.5,378.1,626.5,378.1,626.5c0-0.5,0-0.9,0-1.4c0-0.1,0-0.1,0-0.2
				c0-0.6,0.1-1.2,0.1-1.8c0.1-1.1,0.2-2.2,0.4-3.2c0.6-3.8,1.7-7.2,3.2-10c0.6-1.1,1.2-2.2,1.9-3.1c2.7-3.7,6.1-5.9,9.9-5.9
				c2.3,0,4.4,0.8,6.3,2.3c2.9,2.2,5.4,5.9,7,10.4c0.3,0.9,0.6,1.9,0.9,2.9c0.8,3.1,1.2,6.5,1.2,10c0,6.8-1.6,12.9-4.2,17.5h0
				c-0.6,1-1.2,1.9-1.8,2.8c-0.8,1.1-1.7,2-2.7,2.8h0c-1.6,1.3-3.3,2.1-5.1,2.5h0c-0.5,0.1-1.1,0.1-1.6,0.1c-2,0-3.9-0.6-5.7-1.8
				c-1.3-0.9-2.6-2.1-3.7-3.5"/>
			<path class="st14" d="M632.7,620.8c0,0.1-0.1,0.3-0.2,0.4c-3,7.9-5.8,15.2-8,20.1c-0.1,0.2-0.1,0.3-0.2,0.5h0"/>
			<path class="st14" d="M648.1,577.8c0,0-0.2,0.5-0.5,1.3c-1,2.9-3.5,10.2-6.7,19.1c-0.1,0.2-0.1,0.3-0.2,0.5
				c-0.1,0.4-0.3,0.8-0.4,1.2"/>
			<line class="st14" x1="390.7" y1="635.4" x2="390.7" y2="635.4"/>
			<path class="st14" d="M383.4,630.6c-0.1-0.5-0.1-1-0.2-1.5"/>
			<path class="st14" d="M377.9,603.6c-2.8-11.4-6.9-27.5-6.9-27.5c-0.2-0.6-0.3-1-0.4-1.4c-0.3-0.9-0.4-1.4-0.4-1.4"/>
			<line class="st14" x1="635.5" y1="639.1" x2="635.5" y2="639.1"/>
			<path class="st14" d="M404.8,644L404.8,644c1.5,0.3,2.9,0.5,4.4,0.8h0c0,0,0.1,0,0.1,0h0c3.2,0.5,6.6,1.1,10,1.6
				c25.6,3.6,56.4,5.8,89.6,5.8c45.3,0,86.3-4,115.5-10.4h0"/>
			<polyline class="st14" points="538.1,584.7 538.1,584.7 538.1,584.7 			"/>
			<path class="st14" d="M547.1,585.1c0,0-0.1,0-0.1,0"/>
			<line class="st14" x1="452.1" y1="586.4" x2="452" y2="586.4"/>
			<line class="st14" x1="450.6" y1="586.5" x2="450.6" y2="586.5"/>
			<line class="st14" x1="492.7" y1="584.3" x2="492.6" y2="584.3"/>
			<line class="st14" x1="531" y1="584.5" x2="531" y2="584.5"/>
			<line class="st14" x1="476.7" y1="584.9" x2="476.7" y2="584.9"/>
			<line class="st14" x1="441.4" y1="587.3" x2="441.4" y2="587.3"/>
			<line class="st14" x1="567.9" y1="589.6" x2="567.9" y2="589.6"/>
			<line class="st14" x1="443.8" y1="590.2" x2="443.8" y2="590.2"/>
			<path class="st14" d="M453.3,589.3L453.3,589.3C453.3,589.3,453.3,589.3,453.3,589.3"/>
			<line class="st14" x1="475.2" y1="588" x2="475.2" y2="588"/>
			<line class="st14" x1="496.4" y1="587.4" x2="496.4" y2="587.4"/>
			<path class="st14" d="M562.9,589.2C562.8,589.2,562.8,589.2,562.9,589.2"/>
			<path class="st14" d="M393.7,644.9c-0.1,0-0.2,0-0.3-0.1"/>
			<path class="st17" d="M402.9,646.8c3.4,0.6,6.9,1.2,10.5,1.8c26.7,4.2,59.7,6.6,95.4,6.6c44.2,0,84.3-3.8,113.4-9.9
				c3.2-0.7,6.4-1.4,9.3-2.1h0"/>
			<line class="st14" x1="561.6" y1="595.9" x2="561.6" y2="595.9"/>
			<line class="st14" x1="433.5" y1="598" x2="433.5" y2="598"/>
			<path class="st14" d="M632.8,649.7c-0.4,0.1-0.8,0.2-1.2,0.3c-5.6,1.4-11.7,2.7-18.2,3.9c-28.1,5.1-64.6,8.2-104.4,8.2
				c-40.9,0-78.2-3.2-106.6-8.6c0,0,0,0,0,0c-2.5-0.5-4.9-0.9-7.2-1.4h0c-2.5-0.5-4.9-1.1-7.3-1.7c-3-0.7-5.8-1.5-8.5-2.2
				c0,0,0,0,0,0h0"/>
			<line class="st14" x1="601.8" y1="612" x2="601.8" y2="612"/>
			<line class="st14" x1="464.3" y1="607.1" x2="464.3" y2="607.1"/>
			<line class="st14" x1="546.2" y1="606.7" x2="546.2" y2="606.7"/>
			<path class="st16" d="M348.5,638c-0.1,0.3-0.1,0.5-0.1,0.8"/>
			<path class="st14" d="M379.2,659.8c3.2,0.9,6.6,1.8,10.3,2.7c9.5,2.2,20.3,4.2,32.2,5.8c25.1,3.4,55.1,5.4,87.2,5.4
				c31.3,0,60.4-1.9,85.1-5.2c16.5-2.2,30.9-5,42.7-8.2"/>
			<line class="st14" x1="635.3" y1="618.8" x2="635.3" y2="618.8"/>
			<path class="st14" d="M661.5,650.4C661.5,650.4,661.5,650.4,661.5,650.4"/>
			<path class="st14" d="M632.6,621.2c-0.1,0-0.3-0.1-0.4-0.1"/>
			<path class="st14" d="M354.3,652.1c-0.7-0.5-1.4-1.1-2-1.7c-0.1-0.1-0.2-0.2-0.4-0.3"/>
			<line class="st14" x1="475.8" y1="609.6" x2="475.8" y2="609.6"/>
			<line class="st14" x1="529.9" y1="609.2" x2="529.9" y2="609.2"/>
			<line class="st14" x1="610.9" y1="616.6" x2="610.8" y2="616.6"/>
			<path class="st15" d="M390,665.7c11,2.6,23.7,4.8,37.9,6.5c23.8,2.9,51.4,4.6,81,4.6c28.7,0,55.6-1.6,78.8-4.4
				c15.1-1.8,28.8-4.1,40.3-6.8"/>
			<line class="st14" x1="655.3" y1="656.9" x2="655.3" y2="656.9"/>
			<path class="st19" d="M628.7,662.4c0,0-4.4,38.2-48.1,57.2s-64.7,16.7-72.8,21.8c0,0-53.4-15.1-69.3-19.9
				c-15.9-4.8-45.7-33.7-49-59.2"/>
			<path class="st14" d="M382.8,660.8l-1.3,5.7c0,0-0.4,1.7-3.7,1l-11.8-1.4c0,0,17.4,166.2,140.6,166.2h1.4
				c123.2,0,140.6-166.2,140.6-166.2l-11.8,1.4c-3.3,0.7-3.7-1-3.7-1l-0.8-5.7"/>
			<path class="st14" d="M648.7,666.1l12.8-17.9c0,0,4.5,69.9-61.8,144.9c0,0-39,44.1-91.6,44.1s-95.8-46.5-95.8-46.5
				s-57.7-65.8-57.9-138.6"/>
			<path class="st17" d="M376.6,648.8C376.6,648.8,376.6,648.8,376.6,648.8c0.2-0.1,1.2-0.3,2.6-0.7c0,0,0.1,0,0.1,0c0,0,0,0,0,0
				c0,0,0,0,0,0l0,0c1.4-0.4,3.1-0.8,4.8-1.2c2.8-0.7,5.7-1.3,7-1.3c1,0,1.8-0.2,2.4-0.5c0.1,0,0.1-0.1,0.2-0.1
				c1.1-0.6,1.4-1.4,1.4-1.4s0.9-3.4-0.7-4.9c-0.4-0.4-1.9-1.6-3.8-3.2v0c-2.6-2.2-5.9-5-8.5-7.1c-1.6-1.4-3-2.5-3.6-3
				c-0.2-0.2-0.3-0.3-0.4-0.3c0,0,0,0,0,0"/>
			<path class="st14" d="M384.6,636.9c0,5.2-2.2,9.6-5.3,11.2l0,0c0,0,0,0,0,0c0,0-0.1,0-0.1,0.1c-0.8,0.4-1.7,0.6-2.5,0.7
				c0,0,0,0,0,0h-0.1c-2.2,0-4.2-1.3-5.6-3.4c-1.5-2.2-2.4-5.2-2.4-8.6c0-6.6,3.6-12,8-12c0.1,0,0.3,0,0.4,0c0.4,0,0.8,0.1,1.2,0.2
				c0.1,0,0.3,0.1,0.4,0.1c1.4,0.5,2.6,1.6,3.6,3c1.2,1.7,2,4,2.3,6.5c0,0,0,0,0,0C384.6,635.5,384.6,636.2,384.6,636.9z"/>
			<path class="st14" d="M661.5,650.4c0,0,6.6,1.1,8,1.7c1.4,0.6,14.5,0,14.5,0l1.2-0.7h2.2"/>
			<path class="st14" d="M352.8,650.4c0,0-6.6,1.1-8,1.7c-1.4,0.6-14.5,0-14.5,0l-1.2-0.7H327"/>
			<path class="st14" d="M536,460.3C536.1,460.3,536.1,460.3,536,460.3"/>
			<line class="st14" x1="481.3" y1="459.8" x2="481.3" y2="459.8"/>
			<path class="st14" d="M687.1,651.5c0.2,4.2,0.3,8.4,0.3,12.6c0,1.1,0,2.3,0,3.4c0,0,0,0,0,0c-2.2,112.4-115,203-180.1,203
				c-58.8,0-177.7-90.6-180-203.1c0,0,0,0,0,0c0-1.1,0-2.2,0-3.3c0-4.3,0.1-8.5,0.3-12.7"/>
			<path class="st14" d="M687.1,651.4C687.1,651.4,687.1,651.4,687.1,651.4"/>
			<path class="st14" d="M365.4,537C365.4,537,365.4,537,365.4,537L365.4,537L365.4,537L365.4,537"/>
			<line class="st14" x1="563.5" y1="467.9" x2="563.5" y2="467.9"/>
			<path class="st14" d="M660.1,554.7L660.1,554.7C660.1,554.7,660.1,554.7,660.1,554.7"/>
			<path class="st14" d="M669,573.1c0-0.1-0.1-0.2-0.2-0.4"/>
			<line class="st14" x1="639" y1="541.7" x2="639" y2="541.7"/>
			<path class="st20" d="M684.5,652.1l-0.4-15.2l-12.4,0.3l-9,4.6l-0.8,10.4l-15.5,15.2l-14.4-0.6l1-7c0,0,3.2-3.5,8.2-4.4
				c5-0.9,4.9-12.2,4.9-12.2s0.9-23.5,5.2-25.6c4.4-2.1,7.9-4.6,8-9.5c0.1-4.9-3.8-11.2-9.3-11.4c-5.5-0.3-6.7,2.1-8.6,1.6
				c-1.9-0.5,5.3-15.2,5.3-15.2s2.7-5.7,4.6-6.1c1.9-0.4,0.7-2.2,8.3-2.9l2.8-0.3c0,0-6.9-1.2-9-19.7c0,0-2.5-20.9-2-33.5
				c0.5-12.5,0.7-30.3,1-34.4c0.3-4.1,3.7-27.1,9.1-32.7c0,0-8.2-3.2-11.8-12.6c0,0-1.3-3-1.4-6.6c-0.1-3.7,0.7-16.8-11.3-30.6
				c-12-13.8-20.5-21.5-35-16.8c0,0-14.4-12.6-22.7-13.7c0,0-1.2,14.4-35.1,11.5c0,0-32.1-1.4-31.9,0.7c0,0,16.7,9.4,17,22.3
				c0.3,12.9,61.8,24,74.4,47.4s26.6,91.5,19.5,113.6c-7.1,22.1-7.8,35.1-24.1,30.5s1.9,34.1,1.3,46.8c-0.6,12.7-27.8,45.9-6.1,46.2
				c21.7,0.2,37.8,8.7,30.6,23.4s-32.2,101.3-119.9,110c0,0-69,13-104.2-7.9c0,0,2.4,16.4,47.7,43.8l27.8,12.4
				c0,0,29.5,16.1,78.8-5.3c0,0,93.3-46.7,117.6-118.4c0,0,24.5-63.7,13.9-98.8c-0.6-4.9-1.4-9.7-2.3-14.5"/>
			<path class="st15" d="M687.4,667.5C687.4,667.5,687.4,667.5,687.4,667.5c0.2,3.9,0.3,7.8,0.3,11.7c0,111-114.5,201.1-180.4,201.1
				c-59.5,0-180.4-90-180.4-201.1c0-3.9,0.1-7.9,0.3-11.7c0,0,0,0,0,0"/>
			<polyline class="st14" points="380,536.8 380,536.8 380,536.8 			"/>
			<path class="st16" d="M331.6,634c0,0.1,0,0.2-0.1,0.3c-0.1,0.7-0.3,1.4-0.4,2.1"/>
			<line class="st14" x1="545.5" y1="482.6" x2="545.5" y2="482.6"/>
			<line class="st14" x1="569.7" y1="490.5" x2="569.7" y2="490.5"/>
			<path class="st14" d="M381.9,438.9c0,0,9.9-24,37.8-40.4"/>
			<path class="st21" d="M383.8,442.2c0,0,9.5-23.1,36.4-39.5"/>
			<path class="st17" d="M387.6,445.6c0,0,8.9-21.5,33.6-37.8"/>
			<path class="st15" d="M391.7,450c0,0,8.8-21.3,33.3-37.5"/>
			<path class="st22" d="M395.2,452.2c0,0,11.3-20.3,21.1-25.7"/>
			<path class="st15" d="M520.4,852.7c0,0,0.8,2.2,0,4.2c-0.6,1.5-6.2,5-9.1,6.8c-1,0.6-2.2,0.8-3.4,0.5c-2.4-0.6-6.5-1.5-8-1.3
				l-2.8,1.9c0,0-3.6,1.2-6.4-1.6c0,0-2.4-2.1-1.2-3.1l5.6-4.8c1.6-2-0.6-5.4,1-6.8s9.9-7.5,9.9-7.5s4.8,0.6,6.4,0"/>
			<circle class="st15" cx="518.6" cy="845.7" r="7.7"/>
			<path class="st15" d="M520.7,855.8c0,0,1.6,3.1-2.7,5.8s-5.7,3.5-5.7,3.5s-3.8,2.6-6.8,1.2c-3-1.4-7.1,0.4-7.1,0.4l-1.7,0.5
				c-1.6,0.4-3.3-0.2-4.2-1.5l-1.9-2.5"/>
			<path class="st15" d="M603.2,803.3c0,0-1.7-5.4,0.7-7.8l6.6-6.6c0,0,1.2-0.9,7.6-0.9l4.3-3.1c0,0,2.7-0.4,4,1.7
				c1.2,2.1,1.3,2.1-0.8,4.6c0,0-2.4,2.5-0.9,5c0,0,0.9,3.8-2.1,5.9l-6.8,6.9c0,0-5.4-0.6-6.8,0c0,0-4.6,2.2-4.9,2.7
				c-0.3,0.5-4.9-3-4.5-3.8C600.1,807.1,603.6,804.9,603.2,803.3z"/>
			<path class="st15" d="M599.7,807.9c0,0-2.3,1,0.7,3.3l2.9,1.7c0,0,1.4-0.7,2.4-1.2s3.5-2.3,7-1.4c0,0,2.1,1,4.8-2l6.6-6.6
				c0,0,1.3-1.5,0.7-4.1"/>
			<path class="st15" d="M659.7,712.5c0,0-4.3-3.6-3.6-7l2.1-9.1c0,0,0.6-1.4,6-4.8l2-4.9c0,0,2.1-1.8,4.3-0.6
				c2.2,1.1,2.2,1.1,1.7,4.3c0,0-0.7,3.4,1.9,4.7c0,0,2.8,2.8,1.4,6.1l-2,9.5c0,0-4.9,2.4-5.7,3.6c0,0-2.7,4.3-2.7,4.9
				s-5.7,0-5.8-0.8C659.1,717.4,660.8,713.6,659.7,712.5z"/>
			<path class="st15" d="M659.2,718.2c0,0-1.4,2,2.3,2.4l3.3,0c0,0,0.8-1.3,1.4-2.3c0.6-1,1.8-3.8,5.2-4.9c0,0,2.3-0.2,3-4.2
				l2.1-9.1c0,0,0.3-2-1.6-3.8"/>
			<path class="st15" d="M413,803.3c0,0,1.7-5.4-0.7-7.8l-6.6-6.6c0,0-1.2-0.9-7.6-0.9l-4.3-3.1c0,0-2.7-0.4-4,1.7
				c-1.2,2.1-1.3,2.1,0.8,4.6c0,0,2.4,2.5,0.9,5c0,0-0.9,3.8,2.1,5.9l6.8,6.9c0,0,5.4-0.6,6.8,0c0,0,4.6,2.2,4.9,2.7
				c0.3,0.5,4.9-3,4.5-3.8C416.2,807.1,412.7,804.9,413,803.3z"/>
			<path class="st15" d="M416.5,807.9c0,0,2.3,1-0.7,3.3l-2.9,1.7c0,0-1.4-0.7-2.4-1.2c-1-0.5-3.5-2.3-7-1.4c0,0-2.1,1-4.8-2
				l-6.6-6.6c0,0-1.3-1.5-0.7-4.1"/>
			<path class="st15" d="M356.5,712.5c0,0,4.3-3.6,3.6-7l-2.1-9.1c0,0-0.6-1.4-6-4.8l-2-4.9c0,0-2.1-1.8-4.3-0.6s-2.2,1.1-1.7,4.3
				c0,0,0.7,3.4-1.9,4.7c0,0-2.8,2.8-1.4,6.1l2,9.5c0,0,4.9,2.4,5.7,3.6c0,0,2.7,4.3,2.7,4.9c-0.1,0.6,5.7,0,5.8-0.8
				C357.2,717.4,355.4,713.6,356.5,712.5z"/>
			<path class="st15" d="M357,718.2c0,0,1.4,2-2.3,2.4l-3.3,0c0,0-0.8-1.3-1.4-2.3c-0.6-1-1.8-3.8-5.2-4.9c0,0-2.3-0.2-3-4.2
				l-2.1-9.1c0,0-0.3-2,1.6-3.8"/>
			<path class="st17" d="M687.4,651.4V638c0,0-3.8-1-4.6-1.5v15.6"/>
			<polyline class="st17" points="682.8,636.5 682.8,634.3 671.3,634.3 671.3,637.2 671.3,652.4 671.3,637.2 665.9,637.2 
				665.9,651.4 			"/>
			<polyline class="st17" points="665.9,638.3 662.3,638.3 662.3,650.6 			"/>
			<path class="st16" d="M326.9,651.1v-13.4c0,0,3.8-1,4.6-1.5v15.6"/>
			<polyline class="st16" points="331.5,636.2 331.5,634 343,634 343,636.9 343,652.1 343,636.9 348.3,636.9 348.3,651.1 			"/>
			<polyline class="st16" points="348.3,638 352,638 352,650.3 			"/>
			<path class="st15" d="M532.3,817.7h-48.7c-12.3,0-22.2-10-22.2-22.2v0c0-12.3,10-22.2,22.2-22.2h48.7c12.3,0,22.2,10,22.2,22.2v0
				C554.5,807.8,544.6,817.7,532.3,817.7z"/>
			<path class="st17" d="M532.1,815.6h-48.3c-10.9,0-19.8-8.9-19.8-19.8v0c0-10.9,8.9-19.8,19.8-19.8h48.3
				c10.9,0,19.8,8.9,19.8,19.8v0C551.9,806.7,543,815.6,532.1,815.6z"/>
			<line class="st14" x1="480.1" y1="783.8" x2="535.7" y2="783.8"/>
			<line class="st15" x1="492.7" y1="791.4" x2="523.2" y2="791.4"/>
			<line class="st15" x1="483.8" y1="807.8" x2="532.1" y2="807.8"/>
			<polyline class="st14" points="624.6,641.3 625.5,641.5 625.8,641.6 631.6,643.2 631.6,643.2 631.6,650 631.6,650 			"/>
			<line class="st14" x1="636.7" y1="660.3" x2="636.7" y2="655.4"/>
			<line class="st14" x1="379.2" y1="659.8" x2="379.2" y2="648.1"/>
			<polyline class="st14" points="403.9,581.6 397.5,583.8 397.5,588 386.4,594.7 387.5,602.9 			"/>
			<path class="st15" d="M397.5,583.8l-14.3,7.9v11.6c0,0-8.9,0.1-8.9,3.8s6.7,4.3,6.7,4.3"/>
			<line class="st14" x1="354.3" y1="653.4" x2="366" y2="666.1"/>
		</g>
	</g>
	<rect x="243.4" y="670.3" width="535.2" height="250.5"/>
	<g>
		<path d="M390.4,709c0,0,8.1-21.6,21.6-17.2c13.6,4.4,12.4,25.2,12.4,25.2s-2.2,10.4-0.9,14.6c1.3,4.2,7.3,14.6,27.8,15.4l9.1,0.8
			c0,0,0.9,0.7,0.9-1.5c0-2.2-2.7-6.2-13-16.5c-10.3-10.2-10.2-23.3-7.8-29.3c2.4-6,9.2-16.2,0.3-25.3s-16.5-14.8-13.4-28.6
			c0,0,0.5,18.2,22.6,24.7c0,0,14,5.9,8.6,27.8c0,0-16.5,20.8,5.7,38.4c0,0,6.1,4.4,10.1,19.6c0,0,9.8,15.3,6.8,1.3
			c0,0-14.7-15.4-9.4-39.7c0,0-1.2-2.1,11-24.3s-6.7-36.7-7.7-53c-1-16.3,4.9-21.8,17.1-26.1c0,0,11.8-4,12.8-7.6
			c0,0,0.9-1.6-0.8-1.6c-1.7-0.1-4.8-0.3-4.6-1.1c0.2-0.8,4-5,6.3-4.3c2.2,0.7,4.8,5.2,4.5,13.4s-4,10.9-13.1,17.6
			s-6.8,14.8-6.9,20.7c-0.2,5.9,5.8,9.3,6.1,17.1s0.1,18.8-8.8,37.5c-8.9,18.7-7,26.7-0.6,35c0,0,1.8,2.3,2.9,3.7s1.9,0.3,2.1,0
			c0.2-0.3,7.8-4.8,8.9-12.5c1.2-7.8,2.1-11.7-0.3-22.7c-2.4-11,1.2-19.4,11-26.4s13.8-27.2,12.5-35.5s-4.4-16.1-2.9-15.7
			s12.1,2.5,13.4,24.3c0,0,2.6,13.4-12.1,22.1c0,0-15.7,21.9-9.5,52.8c0,0,1.6,22.9-16.7,31.7c0,0-2.1,10.2-4.3,13l-4.1,5.1
			l-11.6-2.7c0,0,2.1-7.3-11.9-15.5c-14-8.2-25.2-10.3-30.7-10.4s-18.4-4-24-12c-5.6-8-1.8-15.6-1.4-17.6c0.4-2.1,2.9-14.2-1.2-19.4
			c0,0-1.2-2.5-5.5-0.7C397.4,705.3,389.6,710.8,390.4,709z"/>
		<g>
			<path class="st14" d="M479.3,765.1c-5.1-10.6-7.2-9.8-13.8-15.2c-6.6-5.4-21.7,0.1-33.7-8.2c-12-8.3-6.2-11.9-13.9-30.7
				c-7.7-18.8-28.1-0.5-28.1-0.5s8.9-25.3,24.6-17.8c15.7,7.4,8.4,36.9,8.4,36.9"/>
			<path class="st14" d="M405.6,702.6c0,0,7.1,3,2.1,24.2c-5,21.2,21.7,26.2,29.9,26.8c8.2,0.6,34.2,9.6,38.9,22.3"/>
			<path class="st14" d="M412.7,704.1c0,0,3.3,1.4,2.1,16.7c-1.2,15.3,2.9,23.6,23,28.3c20.2,4.7,34.2,10.5,37.8,20.5"/>
			<path class="st14" d="M461.1,747.9c1-3.3-2.4-7-2.4-7c-12.5-13.5-18-17-19.8-30.4c-1.8-13.4,15.2-24.1-0.9-38
				c-16.1-13.9-10.6-25.9-10.6-25.9s1.3,17.3,18.9,23c17.5,5.8,14.3,27.4,10.8,33c-3.6,5.6-10.8,17.5,6.4,33.8
				c0,0,10.7,12.4,10.1,19.7"/>
			<path class="st14" d="M440,674.2c0,0,12.9,4.1,12.9,20.8c0,16.7-6.2,10.2-2.9,26.1c3.4,15.9,18.2,20.5,18.3,30.8"/>
			<path class="st14" d="M476.5,748.9c-4.7-12.1-3.2-20.5,5.8-33s12.2-27.8,12.2-27.8s5.5-13.7,0.2-24.2s-4.7-12.4-4.4-21.1
				c0.2-8.7,14.3-15.9,17.3-19.7s3.9-10.8,1.6-18.4c-2.3-7.6-7.4-2.7-7.7-1.5c-0.3,1.3-3.3,2.3-3.3,2.3s15.5-2.3,10.8,14.5"/>
			<path class="st14" d="M505.4,606.4c0,0,0.4,4.4-17.3,10.2s-15.1,32.7-5.8,42.9c9.3,10.2,12.2,18.8,11.6,30.7"/>
			<path class="st14" d="M507.9,608.3c0,0,0.8,6.1-15.2,15.8c-16,9.6-2,35.4-2.8,46.2"/>
			<path class="st14" d="M479.9,656.4c0,0,5.9,11.6,6.5,23.6c0.6,11.9-12.7,28.4-14.3,36.7c-1.6,8.2-2.9,23.4,4.4,33.3
				c7.3,9.9,7.6,19.9,5.8,23.2"/>
			<path class="st14" d="M477.5,723.5c0,0-1.8,7.6,4.8,24c0,0,8.1,15.3,6,25.6"/>
			<path class="st14" d="M484.2,713.1c0,0-4.7,14.2,0,23.7c4.7,9.5,11.1,11.3,12.2,21.6c1.1,10.3-5,19.5-5,19.5"/>
			<path class="st14" d="M509,686.9c25.9-26.4,11.4-54.4,11.4-54.4s15.5,0.7,14.4,30.4c0,0,0.3,10.7-21.1,20.7
				c-21.4,10-11,36.2-7.6,47c3.4,10.9-2.3,28-9.9,34.5"/>
			<path class="st14" d="M523.4,678.1c0,0-15.3,20-10.9,47.4c4.4,27.4-15.2,38.5-15.2,38.5"/>
			<path class="st14" d="M501.9,716.6c0,0,3.8,23.4-11.4,29.5"/>
			<path class="st14" d="M506.4,732c0,0-4.2,17-10.6,23.4"/>
			<path class="st14" d="M520.4,632.5c0,0,17.4,10,2.4,45.8"/>
		</g>
	</g>
	<g>
		<path d="M222,678.2c0,0,8.1-21.6,21.6-17.2c13.6,4.4,12.4,25.2,12.4,25.2s-2.2,10.4-0.9,14.6c1.3,4.2,7.3,14.6,27.8,15.4l9.1,0.8
			c0,0,0.9,0.7,0.9-1.5c0-2.2-2.7-6.2-13-16.5c-10.3-10.2-10.2-23.3-7.8-29.3c2.4-6,9.2-16.2,0.3-25.3s-16.5-14.8-13.4-28.6
			c0,0,0.5,18.2,22.6,24.7c0,0,14,5.9,8.6,27.8c0,0-16.5,20.8,5.7,38.4c0,0,6.1,4.4,10.1,19.6c0,0,9.8,15.3,6.8,1.3
			c0,0-14.7-15.4-9.4-39.7c0,0-1.2-2.1,11-24.3s-6.7-36.7-7.7-53c-1-16.3,4.9-21.8,17.1-26.1c0,0,11.8-4,12.8-7.6
			c0,0,0.9-1.6-0.8-1.6c-1.7-0.1-4.8-0.3-4.6-1.1c0.2-0.8,4-5,6.3-4.3c2.2,0.7,4.8,5.2,4.5,13.4c-0.2,8.2-4,10.9-13.1,17.6
			s-6.8,14.8-6.9,20.7c-0.2,5.9,5.8,9.3,6.1,17.1s0.1,18.8-8.8,37.5c-8.9,18.7-7,26.7-0.6,35c0,0,1.8,2.3,2.9,3.7
			c1.2,1.4,1.9,0.3,2.1,0c0.2-0.3,7.8-4.8,8.9-12.5s2.1-11.7-0.3-22.7c-2.4-11,1.2-19.4,11-26.4s13.8-27.2,12.5-35.5
			c-1.3-8.3-4.4-16.1-2.9-15.7c1.5,0.4,12.1,2.5,13.4,24.3c0,0,2.6,13.4-12.1,22.1c0,0-15.7,21.9-9.5,52.8c0,0,1.6,22.9-16.7,31.7
			c0,0-2.1,10.2-4.3,13l-4.1,5.1l-11.6-2.7c0,0,2.1-7.3-11.9-15.5c-14-8.2-25.2-10.3-30.7-10.4s-18.4-4-24-12
			c-5.6-8-1.8-15.6-1.4-17.6c0.4-2.1,2.9-14.2-1.2-19.4c0,0-1.2-2.5-5.5-0.7C229,674.5,221.2,680.1,222,678.2z"/>
		<g>
			<path class="st14" d="M310.9,734.4c-5.1-10.6-7.2-9.8-13.8-15.2c-6.6-5.4-21.7,0.1-33.7-8.2c-12-8.3-6.2-11.9-13.9-30.7
				s-28.1-0.5-28.1-0.5s8.9-25.3,24.6-17.8c15.7,7.4,8.4,36.9,8.4,36.9"/>
			<path class="st14" d="M237.2,671.8c0,0,7.1,3,2.1,24.2c-5,21.2,21.7,26.2,29.9,26.8c8.2,0.6,34.2,9.6,38.9,22.3"/>
			<path class="st14" d="M244.3,673.4c0,0,3.3,1.4,2.1,16.7s2.9,23.6,23,28.3c20.2,4.7,34.2,10.5,37.8,20.5"/>
			<path class="st14" d="M292.7,717.2c1-3.3-2.4-7-2.4-7c-12.5-13.5-18-17-19.8-30.4c-1.8-13.4,15.2-24.1-0.9-38
				c-16.1-13.9-10.6-25.9-10.6-25.9s1.3,17.3,18.9,23c17.5,5.8,14.3,27.4,10.8,33s-10.8,17.5,6.4,33.8c0,0,10.7,12.4,10.1,19.7"/>
			<path class="st14" d="M271.5,643.5c0,0,12.9,4.1,12.9,20.8c0,16.7-6.2,10.2-2.9,26.1s18.2,20.5,18.3,30.8"/>
			<path class="st14" d="M308,718.1c-4.7-12.1-3.2-20.5,5.8-33c9-12.5,12.2-27.8,12.2-27.8s5.5-13.7,0.2-24.2
				c-5.3-10.5-4.7-12.4-4.4-21.1c0.2-8.7,14.3-15.9,17.3-19.7c3-3.8,3.9-10.8,1.6-18.4c-2.3-7.6-7.4-2.7-7.7-1.5s-3.3,2.3-3.3,2.3
				s15.5-2.3,10.8,14.5"/>
			<path class="st14" d="M336.9,575.7c0,0,0.4,4.4-17.3,10.2c-17.7,5.8-15.1,32.7-5.8,42.9c9.3,10.2,12.2,18.8,11.6,30.7"/>
			<path class="st14" d="M339.5,577.6c0,0,0.8,6.1-15.2,15.8c-16,9.6-2,35.4-2.8,46.2"/>
			<path class="st14" d="M311.5,625.7c0,0,5.9,11.6,6.5,23.6c0.6,11.9-12.7,28.4-14.3,36.7c-1.6,8.2-2.9,23.4,4.4,33.3
				c7.3,9.9,7.6,19.9,5.8,23.2"/>
			<path class="st14" d="M309,692.7c0,0-1.8,7.6,4.8,24c0,0,8.1,15.3,6,25.6"/>
			<path class="st14" d="M315.7,682.4c0,0-4.7,14.2,0,23.7c4.7,9.5,11.1,11.3,12.2,21.6s-5,19.5-5,19.5"/>
			<path class="st14" d="M340.5,656.2c25.9-26.4,11.4-54.4,11.4-54.4s15.5,0.7,14.4,30.4c0,0,0.3,10.7-21.1,20.7
				c-21.4,10-11,36.2-7.6,47c3.4,10.9-2.3,28-9.9,34.5"/>
			<path class="st14" d="M354.9,647.3c0,0-15.3,20-10.9,47.4c4.4,27.4-15.2,38.5-15.2,38.5"/>
			<path class="st14" d="M333.4,685.8c0,0,3.8,23.4-11.4,29.5"/>
			<path class="st14" d="M337.9,701.2c0,0-4.2,17-10.6,23.4"/>
			<path class="st14" d="M351.9,601.8c0,0,17.4,10,2.4,45.8"/>
		</g>
	</g>
	<g>
		<path d="M265.1,622.6c0.7,4.6,4.3,2.8,7.4,1.4s2.9-1.6,3.2,0s-1.4,3.5-2.4,3.9s-6.1,1.7-5.9,5.4c0.2,3.7,3.8,1.1,3.8,1.1
			s5.1-3.1,6.5-6.9c1.4-3.9,6.4-1.6,6.7,1.6s0.5,16.7,13.5,20.7c0,0,8,1.2,7.9,4.5c-0.1,3.3-1,3.9-5.1,4.9c-4.1,1-1.9,1.5-3.2,2.1
			s-2.2-0.4-2.9,1.5c-0.8,1.9-2.9,5.6-9.7,1.4c-6.8-4.2-9.1-9.5-11.6-7.1s5.2,8.2,5.2,8.2s9.9,9.1,15.3,4.9c0,0,2.2-2.1,2.4-1.5
			c0.2,0.6,0,4.7-1.7,6.6c-1.6,1.9-4.5,4.1-1.7,5.8c2.8,1.7,5.2-1.8,5.8-4.7c0.6-2.9,4.2-15.7,12.2-16.2s13,5.2,14.8,8.9
			c1.8,3.6,2.9,8.1,0,8.2c-2.9,0.1-6.1-1.5-8.5,2.6c-2.4,4.1-6.6,12.5-13,11.6s-8.9-0.3-15.1-7.4s-12.5-8.3-16-9.3s-9-1.9-10.2,1.1
			c-1.2,3-2,7.2,1.6,6.3c3.5-0.9,6.4,0.6,10.1-1.8c3.7-2.4,6.7,1.2,7.4,3.4c0.7,2.2,6.1,4.2,6.1,6.7c-0.1,2.5-8.8,1.1-10.9,4.7
			c-2.1,3.6-5.2,8.6-0.6,8.2c4.6-0.4,8.2-3,10-5.1c1.7-2.1,6.5-2.6,8.8-1.6c2.3,1,6.1,0.5,4.3,2.8c-1.7,2.3-9.1,7.8-9.1,12.9
			c0,5.1,0.5,8.6,3.1,8.6c2.6,0,2.6-3.2,1.7-5.1c-0.8-2,0.9-6.3,4.3-4.6c3.4,1.7-0.7,2.5-0.6,4.8c0.1,2.3,0.7,4.8,2.7,3.8
			c1.9-1,5.7-5.1,2-9.2c-3.6-4.1-2.5-7.5,0.3-9.7c2.8-2.3,9.2-5.6,11.4-8.3c2.3-2.7,6.1-9.4,9.1-10.3c3-0.9,7.1,4.3,8.5,8.9
			c1.3,4.6,6.3,15.1,11.1,19c4.7,3.9,11.4,14.5,12.1,20.6c0.7,6.1,0,18.9-2.9,24.9c-2.9,6-5.6,8.7-7.6,8.1c-2-0.6-2.9-2.9-5.3-3.7
			c-2.3-0.8-6.9-2.3-6.2-7.1c0.6-4.9,4.5-5.5,5.9-3c1.5,2.4,5.1,8.8,7.1,5.7c2-3.1-2-4.5-2.7-6.5c-0.6-2,3.7-0.6,3.6-4
			c-0.1-3.3-0.9-4.2-2.6-3.7c-1.7,0.5-2.7,3.2-4.9,3.6s-4.9,1.1-7,0.6c-2.1-0.5-7.8,1.5-6,8.5c1.7,7,1.7,6.3,0.6,7.2
			c-1.2,0.9-8.6-1.8-10.1-4.9c-1.5-3.1-0.7-7-2.3-9.6c-1.6-2.6,4.1-13.7,4.9-15.1s7-5.3,11.4-4.2c4.5,1.1,13.8,4.4,14.2-1.7
			c0.4-6.1-4.7-6.1-8.4-4.5c-3.7,1.6-6.8,1.3-7.2-0.8c-0.4-2.1,4-6.5,2.2-10.1c-1.8-3.6-3.8-6.5-3.8-10.2c0-3.7,0-6.7-2.4-6.4
			c-2.4,0.3-3.3,4.8-1.4,9.9c0,0,1.4,3.5-2.5,1.7c-4-1.9-11.2-2.7-10.9,0.8c0.3,3.5,9,1.6,12.2,5.2c3.2,3.6,4.8,6.3-0.4,9.4
			c-5.2,3.1-5.3,6.4-6.5,6.3c-1.1-0.1,2.2-8.2,0.6-11s-5.8-5.9-6.5-2.4c-0.7,3.5,2.9,7.3,1.8,10.6c-1.1,3.3-4.7,5.5-2.4,11.7
			c0,0,0.4,0.9-0.4,4.2c-0.8,3.3,0.8,8.9,1.7,11.8c0.9,2.9,1.3,3.8-0.1,3.7c-1.4-0.1-7.2-10.9-8.4-13.6c-1.2-2.6-5.7-7-12.7-5.7
			c-7,1.2-13.2,7.7-17.7,4.8s0.3-5.8,0.2-10.3s1.3-6.9,2.7-8.5s4.8-8.4,1.7-9.2c-3.1-0.9-5.1,7-6.6,7.2c-1.6,0.2-4.9-4.8-6.1-2.5
			s3.7,6.4,3.3,11.5s-3.4,8.5-2.4,12.9c1,4.4,1,5.1,0,5.5c-1,0.4-3.7-1.2-4.6-5.9c-0.9-4.7-3.2-8.7-5.6-6.3s0.5,4.8,1,8.1
			s5.8,14.2,15.7,9.9c9.8-4.3,8.6-7.8,14.7-9.9c6.1-2.1,13,0.6,13.4,4c0.4,3.4-3.2,4-6.3,3.9c-3.1-0.1-9.4,3.1-11.2,8.6
			c-1.8,5.5-4.6,15.3-10.9,15.1c-6.4-0.2-9.8,3.5-7.1,6.2c2.8,2.8,4.4,0.4,5.7-0.6c1.3-0.9,4.7-4.2,6.6-1.9c1.9,2.3-2.3,5.6-3.9,7.9
			s-4.5,7.3-2.3,16.8c2.2,9.5-2.1,13,3.6,13.9c5.7,0.8-0.5-11,1.3-12.8c1.8-1.8,5,1.6,7.8,5.1c2.8,3.5,4.5,6,6,4.3s1.1-9.1-5.3-11.7
			c-6.4-2.5-6.3-3-6.6-4.9c-0.3-1.9,2-10.7,4.6-17s5.3-13.3,6.6-17.3c1.3-4,9.1-8.7,14.7-4c5.6,4.7,6.9,6,10,6.2
			c3.2,0.2,10.1,1.7,9.6,4.2s-8.8,8.3-12.3,10.3c-3.4,2-7.8,4.2-14.5,1.7c-6.6-2.5-14.1,3.3-11,7.2c3.1,3.9,8.9-6.5,11.2-3.1
			s-8.5,8.8-4.6,11.5c3.9,2.6,6.7-6.5,9.9-6.4s13.4-8.3,13.8-7c0.4,1.3-1,8.3,1.1,13.7c2.1,5.4-1,9.5-6.9,8.8
			c-5.9-0.7-4.1,4.1-1.6,4.5c2.5,0.4,10.4-0.5,11.3-7.1c0.9-6.6,2.2-15.7,3.7-21.7c1.5-6,8-15.2,15.8-11.8s-0.9,20.7-1.3,25.2
			c-0.5,4.5-7.6,22.5-2.6,33.8c5,11.3-2.2,16.2,3.6,17.5c5.8,1.3,14.2,3.3,15.6-7s-7.6-6.5-10.2-13.7c-2.6-7.2-6.9-21.1,12-35.6
			c19-14.5,43.6-19.8,48.4-6.7c0,0,0.7,6.2-0.5,9.6s-2.4,11.1,2,10.8c4.3-0.3,5.7-8.6,3.5-12.6s0.7-5.9,3.4-4.7
			c2.7,1.2,27,13.8,27.9,6.2c0.9-7.6-9.6-6.7-10.2-7.7c-0.6-0.9,3.8-4.3,11.5-3.1c7.7,1.2,7.2-0.2,7.2-2.7c0-2.5-6.2-6.2-12.7-3.4
			c-6.5,2.9-20.5,10.7-29.3,1.7c-8.9-9.1-7.4-5.7-11.9-6.3c-4.5-0.6-6.2-2.2-6.2-3.2c0-1.1,4.9-2.5,6.5-4.3s7.6-7.8,9.6-8.3
			s4.8,1.2,7.8,0.7c3.1-0.5,10.5,0.2,12.5,0.8c2,0.6,8.9,1.4,12.1-0.2s12.7-6.9,10.9-10.8s-8.2-2-10.4-0.1
			c-2.2,1.9-8.1,6.7-10.4,1.5s3.9-3,6.5-6.9c2.6-3.9,4.6-6.4,1.9-6.9s-7.7,1.8-9.7,7.5c-2,5.6-0.6,6.7-5.2,8.5s-10.1,6-12.2,0.6
			c-2-5.4,7.3-5.7,5.1-9.1c-2.2-3.4-4.9,0.6-6,3.1c-1.1,2.4-7.2,11.8-18.2,15.5c0,0-4.1,2.4-5.1,5.6s-4.4,1.9-2.9-1.5
			s3.1-12.3,3.3-15.3c0.2-3.1,3.8-6.2,4.8-8.9c1-2.8,2.4-6.6,4.8-8.8c2.4-2.2,15.4-9,21-8.5c5.6,0.5,16.8,5.9,18.3,1.7
			c1.5-4.1-4.5-4.5-8.6-4.5s-6.8-0.5-7-1.4c-0.2-0.9,6.4-4.3,3.8-6c-2.7-1.7-5.1-0.5-6.2,0.8c-1.1,1.3-5.9,6-7,5.5
			s3.8-11.3,0.8-12.9c-3-1.6-5.8,6-5.4,9.6c0.4,3.5-2.9,7.4-7.4,8.1c-4.5,0.7-3.3,5.6-5.6,6.1c-2.3,0.5-3.6-0.5-2.8-3.5
			c0.8-3,7.2-11.7,0.8-13.3c-6.3-1.7-4.9,9-5.1,15c-0.3,6,2.5,14.7-2.5,16.4c-5,1.7-3.8-6.9-7.6-5.4s2.1,10.7,3.8,11.9
			c1.7,1.3,2.2,7.4,0.5,10.5c-1.7,3.2-4,13.1-7.8,11.6s-0.6-4-0.3-6.6c0.2-2.6,1.9-14.4-1.1-13.8s-3.8,10.7-3.4,14.4
			c0.5,3.8,1.2,11.9-13.1,16.2c0,0-4.1,3.3-4.7,5.7c-0.5,2.4-1.7,3.3-2.7,2.6c-1-0.6,1.7-13.2,3.2-17.4s9.3-11.9,9.3-19.4
			s6-9.2,5.6-13.7c-0.4-4.4,1.2-11-0.3-13.9c-1.5-2.8,4.7-7.2,11.2-4.6c6.5,2.6,7.5-3.8,5.3-4.3c-2.2-0.6-8-0.8-8-3.8
			c0-3,6.1-5.5,14.2-6.9c8.1-1.4,24.7-6.5,27.6-8.9c2.9-2.5,15.6-1.8,17.2-0.6c1.6,1.2,24.1,10.2,28.5,8.4
			c4.4-1.8,20.8-9.8,15.7-14.2s-9.6,5.5-15,7.1c-5.4,1.6-11.4,3.8-12.5,0.5c-1.1-3.3,9.4-4.8,10.9-8.6c1.6-3.8,8.3-18.5,15.4-18.3
			s8.4-0.9,7.5-3.7c-0.8-2.8-9,1.3-9.6-3.8c-0.6-5.1,10.3-11.9,7.1-14.8c-3.2-2.8-14.1,7.4-14,14.7s-7.2,24.4-25.7,27.4
			c0,0-9.8-2.3-13.9-1.1c-4,1.2-4-4.5-1.7-7.4c2.2-2.9,12.6-8.4,21.1-3.8c8.5,4.6,9-2.4,5.9-3.9s-5.6,0.3-5.4-1.3s8.7-7.1,9.9-11
			c1.2-3.9,2.3-9.8-1-9.5c-3.3,0.3-5.9,1.2-4.4,9.4s-20.1,7.5-23.8,11.1s-8.4,15.2-11.4,17.6c-3,2.4-12.6,7.6-14.2,4.9
			s9.9-10.9,1.9-14.2c-8-3.3-2.2,4.6-4.6,8.5c-2.4,3.9-7.5,12.3-14.2,11c-6.7-1.3-9,2.8-10.6,2.8c-1.6,0,11.5-15.1,16.2-17.3
			c4.7-2.2,17.8-13.3,19.4-15c1.6-1.7,10.4-0.7,15-4.2c4.6-3.5,15.8-9.8,16-12.7c0.2-2.9,5.8-9.5,1.7-9.7c-4.2-0.3-9.6,5.2-10.8,8.4
			c-1.3,3.1-3,6.5-5.8,6.2s7-15.5,1.6-15.5c-5.4,0-6.1,8.8-6.2,13.9c-0.1,5-0.9,4.4-3.1,5.4s-7.1,2.8-7.3-0.9
			c-0.1-3.7,2.3-6.8,2.8-9.5c0.6-2.7,4.9-10.6,6.9-12.8s6.7-0.2,9.1-2.8s5.4-3.3,7-4.3c1.6-1,8-7.4,5.4-12.1
			c-2.6-4.7-5.9-0.7-6.7,1.5s-4,6.7-5.6,7.1c-1.6,0.4-5.6,1-6.5,2.6s-5.4,7-6.4,6.3s1.6-8.5,5.4-11.7s15.9-12.3,10.6-15.2
			c-5.3-2.9-4,4.9-5.8,2.6c-1.8-2.3,7.1-19.2-0.3-19.8s-5.6,10.6-5.3,15.8c0.3,5.2-0.7,10.7-6.5,17.1c-5.9,6.4,0.5,13-3.9,13.1
			c-4.3,0.1-2.9-7.2-1.1-14.2c1.8-7,3.1-9.2,0.9-9.3c-2.2-0.1-11.7,7.5-6.5,19.5c0,0,0.8,3-0.1,7.4s3.5,3.2,4.7,6
			c1.2,2.8-3.3,17.9-6,20.3s-10.5,8.6-11.2,7.6c-0.8-0.9,5.4-21.6,4.8-24.9c-0.6-3.3-1.4-23.8,1.3-28.9c2.6-5,15.8-13.1,16-16
			c0.2-2.9-2.9-4.6-4.4-4.3s-3.8,6.7-8.5,8.3c-4.8,1.6-5.2,8.9-6.5,9s-5.3-6.4-4.9-11.2c0.5-4.8,5.5-4,7.4-5.4
			c1.8-1.5,7.9-2.9,10.3-6.3s6.7-11.8,2.3-12.9c-4.4-1.1-4.6,8.8-8.5,8.3c-3.9-0.5,2-9.2-1.8-10c-3.7-0.9-5.5,4.7-5.3,9.3
			c0.2,4.7-1.6,6.5-5,8.6c-3.4,2.1-1.7,2.3-2.4,2.4c-0.7,0.1-1.7-8.7,2.4-13.7c4.1-5,3.4-6.4,6.1-9c2.7-2.6,2.6-8.8-0.2-8.4
			s-1.5,2.7-3.1,2.9s-2.3-10.7-7.5-7.5s0.9,5.7,1.7,8.8c0.8,3.1,1,10.5-1.2,10.6s-4.8-14.2-7.9-12.3c-3.1,1.8-1,8,0.2,9.9
			c1.2,1.9,6,6,5.8,10c-0.2,4.1-2.9,5.3-2.8,8.6c0.1,3.2,3.3,8.5,2.1,9.4c-1.2,0.9-2.8-2.8-4.5-3.1c-1.7-0.3-4.7-0.4-5.8-1.9
			c-1.2-1.5-0.6-12.4-1.7-15.8c-1.1-3.4-2.9-11.2-6-8.9c-3.1,2.3-0.9,7.5,1,11.3s0.2,10.8,2.1,14.3c1.8,3.5,16.8,9.9,19.1,14.7
			c2.3,4.8,4.7,20.2,4.3,23.9c-0.4,3.7-0.2,5.5-1.2,5c-1-0.5-2.6-5.9-5-7.2c-2.4-1.3-10-1.5-11.9-4.2s2.1-19-4.6-16.7
			c-6.7,2.3-0.9,14.7,1,17.5c1.9,2.8-0.1,3.7-1.9,2.6c-1.8-1.2-7.5-5.1-7.7-3.6s4.5,10.4,13.2,12.2c8.6,1.8,12.4,3.9,12,13.1
			c-0.3,9.2,2.6,14.2-6.4,21.8c-9,7.6-14.7,20-15,22.7c-0.3,2.8-2.7,5.1-4.8,2.7c-2.2-2.4-2.5-8.7-7.2-11.6
			c-4.7-2.9-6.4-6.7-5.7-8.8c0.7-2.1,2.9-6.7,10.7-5.7c7.8,1,15.9-10,17-12.1c1-2.1,5-5,5.8-5.9s0.7-3.4-0.6-3.3
			c-1.2,0.1-8.2,1.8-9.3,4c-1.1,2.3-4.4,11.6-10.1,11.5c-5.8-0.2-3.2-0.2-1.8-3.9c1.4-3.7,4.3-4.7,3.9-7.4s-1.7-11.6-1.2-15.1
			c0.6-3.4-0.1-3.9-1.7-3.7c-1.5,0.1-1.8,3-2.7,2.6c-0.9-0.4-5.8-14.5-9.1-8.8c-3.2,5.7,9,7.7,7.5,20.6c-1.5,12.9-5.9,12.1-9.5,16.4
			c-3.6,4.3-1.8,6.2-2.8,6.9c-1,0.7-3.2-3.1-4.1-11.4c-0.9-8.3-2.3-8.3-3.6-13.1s0.7-10.6-0.9-14.1s-1.7-7.2-1.7-11
			c0-3.8,3.2-10.1-1-10s-6.1,9.6-3.1,17c0,0,0.1,1.2-0.3,1.3c-0.4,0.2-2.2,1.3-5-4.5c-2.8-5.8-3.6-16.7-7.2-14.8
			c-3.6,1.8,0.8,12.7,2.9,16.1s4.7,5.9,7.4,7.5c2.6,1.5,4.9,4.9,2.8,5.7c-2,0.8-7.7-3.1-8.9-5.5c-1.2-2.4-8.7-5.9-10.7-6.5
			c-2-0.6-5.9-2.3-6.8-8.9c-0.9-6.6,1.5-10.5,2.6-12.3s6.1-14.4-0.8-16.4s-0.1,12.4-2.5,12.8s-1.1-1.6-1.7-3.1
			c-0.6-1.5-11.3-18.8-14.9-11.5c-3.7,7.4,6.2,3.4,9.4,11.6s3.5,22.6,2.9,22.7s-4.3-3.1-5.2-6.7c-0.9-3.6-0.2-14.2-7.6-18.3
			C275.1,613.3,264.2,616.2,265.1,622.6z"/>
		<path class="st14" d="M265.1,622.6c0.7,4.6,4.3,2.8,7.4,1.4s2.9-1.6,3.2,0s-1.4,3.5-2.4,3.9s-6.1,1.7-5.9,5.4
			c0.2,3.7,3.8,1.1,3.8,1.1s5.1-3.1,6.5-6.9c1.4-3.9,6.4-1.6,6.7,1.6s0.5,16.7,13.5,20.7c0,0,8,1.2,7.9,4.5c-0.1,3.3-1,3.9-5.1,4.9
			c-4.1,1-1.9,1.5-3.2,2.1s-2.2-0.4-2.9,1.5c-0.8,1.9-2.9,5.6-9.7,1.4c-6.8-4.2-9.1-9.5-11.6-7.1s5.2,8.2,5.2,8.2s9.9,9.1,15.3,4.9
			c0,0,2.2-2.1,2.4-1.5c0.2,0.6,0,4.7-1.7,6.6c-1.6,1.9-4.5,4.1-1.7,5.8c2.8,1.7,5.2-1.8,5.8-4.7c0.6-2.9,4.2-15.7,12.2-16.2
			s13,5.2,14.8,8.9c1.8,3.6,2.9,8.1,0,8.2c-2.9,0.1-6.1-1.5-8.5,2.6c-2.4,4.1-6.6,12.5-13,11.6s-8.9-0.3-15.1-7.4s-12.5-8.3-16-9.3
			s-9-1.9-10.2,1.1c-1.2,3-2,7.2,1.6,6.3c3.5-0.9,6.4,0.6,10.1-1.8c3.7-2.4,6.7,1.2,7.4,3.4c0.7,2.2,6.1,4.2,6.1,6.7
			c-0.1,2.5-8.8,1.1-10.9,4.7c-2.1,3.6-5.2,8.6-0.6,8.2c4.6-0.4,8.2-3,10-5.1c1.7-2.1,6.5-2.6,8.8-1.6c2.3,1,6.1,0.5,4.3,2.8
			c-1.7,2.3-9.1,7.8-9.1,12.9c0,5.1,0.5,8.6,3.1,8.6c2.6,0,2.6-3.2,1.7-5.1c-0.8-2,0.9-6.3,4.3-4.6c3.4,1.7-0.7,2.5-0.6,4.8
			c0.1,2.3,0.7,4.8,2.7,3.8c1.9-1,5.7-5.1,2-9.2c-3.6-4.1-2.5-7.5,0.3-9.7c2.8-2.3,9.2-5.6,11.4-8.3c2.3-2.7,6.1-9.4,9.1-10.3
			c3-0.9,7.1,4.3,8.5,8.9c1.3,4.6,6.3,15.1,11.1,19c4.7,3.9,11.4,14.5,12.1,20.6c0.7,6.1,0,18.9-2.9,24.9c-2.9,6-5.6,8.7-7.6,8.1
			c-2-0.6-2.9-2.9-5.3-3.7c-2.3-0.8-6.9-2.3-6.2-7.1c0.6-4.9,4.5-5.5,5.9-3c1.5,2.4,5.1,8.8,7.1,5.7c2-3.1-2-4.5-2.7-6.5
			c-0.6-2,3.7-0.6,3.6-4c-0.1-3.3-0.9-4.2-2.6-3.7c-1.7,0.5-2.7,3.2-4.9,3.6s-4.9,1.1-7,0.6c-2.1-0.5-7.8,1.5-6,8.5
			c1.7,7,1.7,6.3,0.6,7.2c-1.2,0.9-8.6-1.8-10.1-4.9c-1.5-3.1-0.7-7-2.3-9.6c-1.6-2.6,4.1-13.7,4.9-15.1s7-5.3,11.4-4.2
			c4.5,1.1,13.8,4.4,14.2-1.7c0.4-6.1-4.7-6.1-8.4-4.5c-3.7,1.6-6.8,1.3-7.2-0.8c-0.4-2.1,4-6.5,2.2-10.1c-1.8-3.6-3.8-6.5-3.8-10.2
			c0-3.7,0-6.7-2.4-6.4c-2.4,0.3-3.3,4.8-1.4,9.9c0,0,1.4,3.5-2.5,1.7c-4-1.9-11.2-2.7-10.9,0.8c0.3,3.5,9,1.6,12.2,5.2
			c3.2,3.6,4.8,6.3-0.4,9.4c-5.2,3.1-5.3,6.4-6.5,6.3c-1.1-0.1,2.2-8.2,0.6-11s-5.8-5.9-6.5-2.4c-0.7,3.5,2.9,7.3,1.8,10.6
			c-1.1,3.3-4.7,5.5-2.4,11.7c0,0,0.4,0.9-0.4,4.2c-0.8,3.3,0.8,8.9,1.7,11.8c0.9,2.9,1.3,3.8-0.1,3.7c-1.4-0.1-7.2-10.9-8.4-13.6
			c-1.2-2.6-5.7-7-12.7-5.7c-7,1.2-13.2,7.7-17.7,4.8s0.3-5.8,0.2-10.3s1.3-6.9,2.7-8.5s4.8-8.4,1.7-9.2c-3.1-0.9-5.1,7-6.6,7.2
			c-1.6,0.2-4.9-4.8-6.1-2.5s3.7,6.4,3.3,11.5s-3.4,8.5-2.4,12.9c1,4.4,1,5.1,0,5.5c-1,0.4-3.7-1.2-4.6-5.9
			c-0.9-4.7-3.2-8.7-5.6-6.3s0.5,4.8,1,8.1s5.8,14.2,15.7,9.9c9.8-4.3,8.6-7.8,14.7-9.9c6.1-2.1,13,0.6,13.4,4
			c0.4,3.4-3.2,4-6.3,3.9c-3.1-0.1-9.4,3.1-11.2,8.6c-1.8,5.5-4.6,15.3-10.9,15.1c-6.4-0.2-9.8,3.5-7.1,6.2c2.8,2.8,4.4,0.4,5.7-0.6
			c1.3-0.9,4.7-4.2,6.6-1.9c1.9,2.3-2.3,5.6-3.9,7.9s-4.5,7.3-2.3,16.8c2.2,9.5-2.1,13,3.6,13.9c5.7,0.8-0.5-11,1.3-12.8
			c1.8-1.8,5,1.6,7.8,5.1c2.8,3.5,4.5,6,6,4.3s1.1-9.1-5.3-11.7c-6.4-2.5-6.3-3-6.6-4.9c-0.3-1.9,2-10.7,4.6-17s5.3-13.3,6.6-17.3
			c1.3-4,9.1-8.7,14.7-4c5.6,4.7,6.9,6,10,6.2c3.2,0.2,10.1,1.7,9.6,4.2s-8.8,8.3-12.3,10.3c-3.4,2-7.8,4.2-14.5,1.7
			c-6.6-2.5-14.1,3.3-11,7.2c3.1,3.9,8.9-6.5,11.2-3.1s-8.5,8.8-4.6,11.5c3.9,2.6,6.7-6.5,9.9-6.4s13.4-8.3,13.8-7
			c0.4,1.3-1,8.3,1.1,13.7c2.1,5.4-1,9.5-6.9,8.8c-5.9-0.7-4.1,4.1-1.6,4.5c2.5,0.4,10.4-0.5,11.3-7.1c0.9-6.6,2.2-15.7,3.7-21.7
			c1.5-6,8-15.2,15.8-11.8s-0.9,20.7-1.3,25.2c-0.5,4.5-7.6,22.5-2.6,33.8c5,11.3-2.2,16.2,3.6,17.5c5.8,1.3,14.2,3.3,15.6-7
			s-7.6-6.5-10.2-13.7c-2.6-7.2-6.9-21.1,12-35.6c19-14.5,43.6-19.8,48.4-6.7c0,0,0.7,6.2-0.5,9.6s-2.4,11.1,2,10.8
			c4.3-0.3,5.7-8.6,3.5-12.6s0.7-5.9,3.4-4.7c2.7,1.2,27,13.8,27.9,6.2c0.9-7.6-9.6-6.7-10.2-7.7c-0.6-0.9,3.8-4.3,11.5-3.1
			c7.7,1.2,7.2-0.2,7.2-2.7c0-2.5-6.2-6.2-12.7-3.4c-6.5,2.9-20.5,10.7-29.3,1.7c-8.9-9.1-7.4-5.7-11.9-6.3
			c-4.5-0.6-6.2-2.2-6.2-3.2c0-1.1,4.9-2.5,6.5-4.3s7.6-7.8,9.6-8.3s4.8,1.2,7.8,0.7c3.1-0.5,10.5,0.2,12.5,0.8
			c2,0.6,8.9,1.4,12.1-0.2s12.7-6.9,10.9-10.8s-8.2-2-10.4-0.1c-2.2,1.9-8.1,6.7-10.4,1.5s3.9-3,6.5-6.9c2.6-3.9,4.6-6.4,1.9-6.9
			s-7.7,1.8-9.7,7.5c-2,5.6-0.6,6.7-5.2,8.5s-10.1,6-12.2,0.6c-2-5.4,7.3-5.7,5.1-9.1c-2.2-3.4-4.9,0.6-6,3.1
			c-1.1,2.4-7.2,11.8-18.2,15.5c0,0-4.1,2.4-5.1,5.6s-4.4,1.9-2.9-1.5s3.1-12.3,3.3-15.3c0.2-3.1,3.8-6.2,4.8-8.9
			c1-2.8,2.4-6.6,4.8-8.8c2.4-2.2,15.4-9,21-8.5c5.6,0.5,16.8,5.9,18.3,1.7c1.5-4.1-4.5-4.5-8.6-4.5s-6.8-0.5-7-1.4
			c-0.2-0.9,6.4-4.3,3.8-6c-2.7-1.7-5.1-0.5-6.2,0.8c-1.1,1.3-5.9,6-7,5.5s3.8-11.3,0.8-12.9c-3-1.6-5.8,6-5.4,9.6
			c0.4,3.5-2.9,7.4-7.4,8.1c-4.5,0.7-3.3,5.6-5.6,6.1c-2.3,0.5-3.6-0.5-2.8-3.5c0.8-3,7.2-11.7,0.8-13.3c-6.3-1.7-4.9,9-5.1,15
			c-0.3,6,2.5,14.7-2.5,16.4c-5,1.7-3.8-6.9-7.6-5.4s2.1,10.7,3.8,11.9c1.7,1.3,2.2,7.4,0.5,10.5c-1.7,3.2-4,13.1-7.8,11.6
			s-0.6-4-0.3-6.6c0.2-2.6,1.9-14.4-1.1-13.8s-3.8,10.7-3.4,14.4c0.5,3.8,1.2,11.9-13.1,16.2c0,0-4.1,3.3-4.7,5.7
			c-0.5,2.4-1.7,3.3-2.7,2.6c-1-0.6,1.7-13.2,3.2-17.4s9.3-11.9,9.3-19.4s6-9.2,5.6-13.7c-0.4-4.4,1.2-11-0.3-13.9
			c-1.5-2.8,4.7-7.2,11.2-4.6c6.5,2.6,7.5-3.8,5.3-4.3c-2.2-0.6-8-0.8-8-3.8c0-3,6.1-5.5,14.2-6.9c8.1-1.4,24.7-6.5,27.6-8.9
			c2.9-2.5,15.6-1.8,17.2-0.6c1.6,1.2,24.1,10.2,28.5,8.4c4.4-1.8,20.8-9.8,15.7-14.2s-9.6,5.5-15,7.1c-5.4,1.6-11.4,3.8-12.5,0.5
			c-1.1-3.3,9.4-4.8,10.9-8.6c1.6-3.8,8.3-18.5,15.4-18.3s8.4-0.9,7.5-3.7c-0.8-2.8-9,1.3-9.6-3.8c-0.6-5.1,10.3-11.9,7.1-14.8
			c-3.2-2.8-14.1,7.4-14,14.7s-7.2,24.4-25.7,27.4c0,0-9.8-2.3-13.9-1.1c-4,1.2-4-4.5-1.7-7.4c2.2-2.9,12.6-8.4,21.1-3.8
			c8.5,4.6,9-2.4,5.9-3.9s-5.6,0.3-5.4-1.3s8.7-7.1,9.9-11c1.2-3.9,2.3-9.8-1-9.5c-3.3,0.3-5.9,1.2-4.4,9.4s-20.1,7.5-23.8,11.1
			s-8.4,15.2-11.4,17.6c-3,2.4-12.6,7.6-14.2,4.9s9.9-10.9,1.9-14.2c-8-3.3-2.2,4.6-4.6,8.5c-2.4,3.9-7.5,12.3-14.2,11
			c-6.7-1.3-9,2.8-10.6,2.8c-1.6,0,11.5-15.1,16.2-17.3c4.7-2.2,17.8-13.3,19.4-15c1.6-1.7,10.4-0.7,15-4.2
			c4.6-3.5,15.8-9.8,16-12.7c0.2-2.9,5.8-9.5,1.7-9.7c-4.2-0.3-9.6,5.2-10.8,8.4c-1.3,3.1-3,6.5-5.8,6.2s7-15.5,1.6-15.5
			c-5.4,0-6.1,8.8-6.2,13.9c-0.1,5-0.9,4.4-3.1,5.4s-7.1,2.8-7.3-0.9c-0.1-3.7,2.3-6.8,2.8-9.5c0.6-2.7,4.9-10.6,6.9-12.8
			s6.7-0.2,9.1-2.8s5.4-3.3,7-4.3c1.6-1,8-7.4,5.4-12.1c-2.6-4.7-5.9-0.7-6.7,1.5s-4,6.7-5.6,7.1c-1.6,0.4-5.6,1-6.5,2.6
			s-5.4,7-6.4,6.3s1.6-8.5,5.4-11.7s15.9-12.3,10.6-15.2c-5.3-2.9-4,4.9-5.8,2.6c-1.8-2.3,7.1-19.2-0.3-19.8s-5.6,10.6-5.3,15.8
			c0.3,5.2-0.7,10.7-6.5,17.1c-5.9,6.4,0.5,13-3.9,13.1c-4.3,0.1-2.9-7.2-1.1-14.2c1.8-7,3.1-9.2,0.9-9.3
			c-2.2-0.1-11.7,7.5-6.5,19.5c0,0,0.8,3-0.1,7.4s3.5,3.2,4.7,6c1.2,2.8-3.3,17.9-6,20.3s-10.5,8.6-11.2,7.6
			c-0.8-0.9,5.4-21.6,4.8-24.9c-0.6-3.3-1.4-23.8,1.3-28.9c2.6-5,15.8-13.1,16-16c0.2-2.9-2.9-4.6-4.4-4.3s-3.8,6.7-8.5,8.3
			c-4.8,1.6-5.2,8.9-6.5,9s-5.3-6.4-4.9-11.2c0.5-4.8,5.5-4,7.4-5.4c1.8-1.5,7.9-2.9,10.3-6.3s6.7-11.8,2.3-12.9
			c-4.4-1.1-4.6,8.8-8.5,8.3c-3.9-0.5,2-9.2-1.8-10c-3.7-0.9-5.5,4.7-5.3,9.3c0.2,4.7-1.6,6.5-5,8.6c-3.4,2.1-1.7,2.3-2.4,2.4
			c-0.7,0.1-1.7-8.7,2.4-13.7c4.1-5,3.4-6.4,6.1-9c2.7-2.6,2.6-8.8-0.2-8.4s-1.5,2.7-3.1,2.9s-2.3-10.7-7.5-7.5s0.9,5.7,1.7,8.8
			c0.8,3.1,1,10.5-1.2,10.6s-4.8-14.2-7.9-12.3c-3.1,1.8-1,8,0.2,9.9c1.2,1.9,6,6,5.8,10c-0.2,4.1-2.9,5.3-2.8,8.6
			c0.1,3.2,3.3,8.5,2.1,9.4c-1.2,0.9-2.8-2.8-4.5-3.1c-1.7-0.3-4.7-0.4-5.8-1.9c-1.2-1.5-0.6-12.4-1.7-15.8c-1.1-3.4-2.9-11.2-6-8.9
			c-3.1,2.3-0.9,7.5,1,11.3s0.2,10.8,2.1,14.3c1.8,3.5,16.8,9.9,19.1,14.7c2.3,4.8,4.7,20.2,4.3,23.9c-0.4,3.7-0.2,5.5-1.2,5
			c-1-0.5-2.6-5.9-5-7.2c-2.4-1.3-10-1.5-11.9-4.2s2.1-19-4.6-16.7c-6.7,2.3-0.9,14.7,1,17.5c1.9,2.8-0.1,3.7-1.9,2.6
			c-1.8-1.2-7.5-5.1-7.7-3.6s4.5,10.4,13.2,12.2c8.6,1.8,12.4,3.9,12,13.1c-0.3,9.2,2.6,14.2-6.4,21.8c-9,7.6-14.7,20-15,22.7
			c-0.3,2.8-2.7,5.1-4.8,2.7c-2.2-2.4-2.5-8.7-7.2-11.6c-4.7-2.9-6.4-6.7-5.7-8.8c0.7-2.1,2.9-6.7,10.7-5.7c7.8,1,15.9-10,17-12.1
			c1-2.1,5-5,5.8-5.9s0.7-3.4-0.6-3.3c-1.2,0.1-8.2,1.8-9.3,4c-1.1,2.3-4.4,11.6-10.1,11.5c-5.8-0.2-3.2-0.2-1.8-3.9
			c1.4-3.7,4.3-4.7,3.9-7.4s-1.7-11.6-1.2-15.1c0.6-3.4-0.1-3.9-1.7-3.7c-1.5,0.1-1.8,3-2.7,2.6c-0.9-0.4-5.8-14.5-9.1-8.8
			c-3.2,5.7,9,7.7,7.5,20.6c-1.5,12.9-5.9,12.1-9.5,16.4c-3.6,4.3-1.8,6.2-2.8,6.9c-1,0.7-3.2-3.1-4.1-11.4
			c-0.9-8.3-2.3-8.3-3.6-13.1s0.7-10.6-0.9-14.1s-1.7-7.2-1.7-11c0-3.8,3.2-10.1-1-10s-6.1,9.6-3.1,17c0,0,0.1,1.2-0.3,1.3
			c-0.4,0.2-2.2,1.3-5-4.5c-2.8-5.8-3.6-16.7-7.2-14.8c-3.6,1.8,0.8,12.7,2.9,16.1s4.7,5.9,7.4,7.5c2.6,1.5,4.9,4.9,2.8,5.7
			c-2,0.8-7.7-3.1-8.9-5.5c-1.2-2.4-8.7-5.9-10.7-6.5c-2-0.6-5.9-2.3-6.8-8.9c-0.9-6.6,1.5-10.5,2.6-12.3s6.1-14.4-0.8-16.4
			s-0.1,12.4-2.5,12.8s-1.1-1.6-1.7-3.1c-0.6-1.5-11.3-18.8-14.9-11.5c-3.7,7.4,6.2,3.4,9.4,11.6s3.5,22.6,2.9,22.7
			s-4.3-3.1-5.2-6.7c-0.9-3.6-0.2-14.2-7.6-18.3C275.1,613.3,264.2,616.2,265.1,622.6z"/>
	</g>
	<g>
		<path d="M615.3,627.8l10.8,2l12.2-3.9L651,623l19,16.9l17,3l7.5,8.2l4.6,18.6l3.1-17.2l-4.2-13.5l18.5-23.7l29.9,57.1l-4.1,41.9
			c0,0-8.2,18.4-7.8,23.8c0.4,5.4-1,14.2-1,14.2l-34.4,7.2l-83.9,7.9l-39.3-7.9l-5.7-40.2l6.1-19l24.6-47.6l1.7-14.8L615.3,627.8z"
			/>
		<g>
			<path d="M566.8,721.3c0,0-0.3-9.3-5.2-17.6c-5-8.4-6.8-14-5.8-23.6c1-9.6,12.6-12.8,20.7-19.3s4.2-11.5,9.4-12.1
				c0,0,7.3,0.2,6.3,8.4c-1,8.2-11.8,13.5-11.8,13.5s-9.3,4.2-12.3,9.3c-3,5.1-4.7,16.8,0,27.1"/>
			<path d="M578.4,748.7c-14.8-25.3,11.9-66,20.9-77.5c9-11.5,12.3-32.3,7.4-37.6c-4.9-5.3-7.9,0.5-8.6,10.5
				c-0.7,10.1-4.7,24.1-4.7,24.1s-2.2,4.1-6.8,8.5s-18.4,19.4-19.5,36.5c-1.1,17.2,5.4,37.6,5.4,37.6"/>
			<path d="M599.3,671.2c0,0,15.6-5.9,15.1-28.8c0,0-0.9-7.6-5.4-12.7s-7.4-25.1,3.5-25.8s4.5,17.8,8.7,22.6"/>
			<path d="M583.8,746c0,0-4.5-13.8,0-29c4.5-15.2,12.3-30.3,21.6-39.1c9.4-8.8,16.7-20.6,14-35.3c-2.8-14.7,3.7-17.1,3.7-17.1
				s8.5-6.5,14.4,12.1c0,0,1.6,7,0.5,10.4"/>
			<path d="M599.8,759.8c0,0-15-9-9.4-36.9c5.6-27.9,30.1-36,37.5-48.6"/>
			<path d="M633.3,628.7c0,0,1.6-10.5,12.2-3"/>
			<path d="M608.5,758.7c0,0-25.8-31.2-0.1-65.8"/>
			<path d="M616.3,757.7c0,0-5.8-23.6-4.2-44.8c1.7-21.3,9.7-21.6,10.6-32.5"/>
			<path d="M622.8,760.2c0,0-11.4-39.2,9.6-67.4"/>
			<path d="M625.6,759.1c0,0-3.5-3.2-1.9-12.4c1.5-9.2,10.2-18.7,11.6-31.2c1.4-12.5-7.9-28.5-7.4-44.3
				c0.5-15.8,14.5-31.4,21.3-27.8c6.8,3.6,2.4,16-1.5,21.5s-8.5,12.9-4.9,41.4c3.6,28.4-11.9,31.6-11.6,42.8c0,0-0.1,6.8,1.6,10.2"
				/>
			<path d="M650.2,644.1c0,0,0.8-5.3-2-9.4c-2.8-4.1-5.1-19.9-2.8-24.5c2.3-4.6,5.5-6.9,10.1-7.4c4.6-0.4,7.1,0.9,7.5,4.7
				c0.4,3.8-5.2,14.4-4.7,20.4s5.5,19.8,3.7,29.9c-1.8,10-19.1,31.3-20.3,40"/>
			<path d="M641.9,755.5c0,0-2.2-5.8,1.8-13s7.8-13.5,9-21.6c1.2-8.1,1.8-28.5-6.1-33.8"/>
			<path d="M649.6,753.9c0,0-1.3-6.8,1.4-13.8c2.7-7,15.1-24.3,13-40.9c-2.1-16.6-12.4-20.5-12.4-20.5"/>
			<path d="M661.3,641.7c0,0,4.9-12.4,11.4-5.7c0,0,4.1,4.2,2.5,9.7"/>
			<path d="M657.6,668.6c0,0,3.4,11.7,6.7,18.6c3.3,6.9,7.5,19.1-3.3,48.9"/>
			<path d="M653.9,752.7c0,0-1.2-6.6,6.5-15.9s15.6-30.4,8.9-49.6c-6.7-19.3-2-31.3,4.7-40.6c6.6-9.3,5.8-18.3,5.5-21.3
				c-0.3-3,6-13.7,11.4-5.6c5.4,8.1,4.6,17.8-1.7,32.1c-6.3,14.3-14.3,20.1-9.4,43.8c4.9,23.6-13.3,40.2-16.3,54"/>
			<path d="M689.8,650.4c0,0,6.3-1,6.8,4.1"/>
			<path d="M698.2,688.8c0,0-8.3,6.1-8.3,15.1c0,9,8.6,21.2,9.2,28.7c0.6,7.5-0.7,14.8-3.7,18.5"/>
			<path d="M694.5,720.9c0,0-19.4,15-19.3,34"/>
			<path d="M698.1,728.3c0,0-10.1,8.9-9.9,23.8"/>
			<path d="M718.6,749.5c0,0,7.3-20.8,7.7-32.4c0.3-11.6-19.3-27.8-19.4-41.2c-0.1-13.4,6.3-28.5,0-30.2c-6.3-1.7-16.2,17.8-15.3,25
				c0,0-0.8,11.9,17.3,32.5c18.1,20.7,5,39.3-1.1,46.4"/>
			<path d="M707.4,701.4c0,0-3.9,5.6-3.2,13.3c0.7,7.7,3.9,16.1,3.7,21.4s-1.8,12.4-2.8,14.3"/>
			<path d="M714.8,711.7c0,0-6.9,6.6,0.5,23.9"/>
			<path d="M708.1,663.3c0,0,13,5.2,14.3,28.8"/>
			<path d="M699.8,649.9c0,0-5.9-12.1-2-17.8c4-5.7,6.6-4.2,6.6-4.2"/>
			<path d="M720.3,702.3c0,0,0.7-7.5,2.9-12.2c2.2-4.7,3.2-15.5,1.8-21c-1.4-5.5-2.1-8.3-4.7-13.8c-2.6-5.5-16.7-19.2-15.2-28.8
				c1.5-9.6,12.1-23.4,18.9-17.9c6.7,5.5,4.2,13.5,2.4,19.2"/>
			<path d="M742.4,682.2c0,0-11.7,18.4-8.2,36.1"/>
			<path d="M723.7,732.5c0,0,5.6,3.6-1.5,19.6"/>
			<path d="M739.5,747.7c0,0-5.6-12.3,3.5-25.8s11.7-29.7,11.7-29.7c1.1-25-4-36.7-12.5-50.8c-8.5-14.1-20.1-16.2-24.2-10.4
				c-4,5.8,4.4,15.2,4.4,15.2s24.8,27,21.2,47.6s-10.2,22.8-11.7,28.6c-1.4,5.8,0.9,19.4,0.9,19.4"/>
			<path d="M744.6,719.3c0,0,3.4,8.3,3.7,14.4"/>
			<path d="M753.7,669.9c0,0,13.5-21,18.1-8.3c4.6,12.6-12.1,24.2-16.9,25.3"/>
		</g>
		<g>
			<path class="st14" d="M708.1,663.3c0,0,13,5.2,14.3,28.8"/>
			<path class="st14" d="M566.8,721.3c0,0-0.3-9.3-5.2-17.6c-5-8.4-6.8-14-5.8-23.6c1-9.6,12.6-12.8,20.7-19.3s4.2-11.5,9.4-12.1
				c0,0,7.3,0.2,6.3,8.4c-1,8.2-11.8,13.5-11.8,13.5s-9.3,4.2-12.3,9.3c-3,5.1-4.7,16.8,0,27.1"/>
			<path class="st14" d="M578.4,748.7c-14.8-25.3,11.9-66,20.9-77.5c9-11.5,12.3-32.3,7.4-37.6c-4.9-5.3-7.9,0.5-8.6,10.5
				c-0.7,10.1-4.7,24.1-4.7,24.1s-2.2,4.1-6.8,8.5s-18.4,19.4-19.5,36.5c-1.1,17.2,5.4,37.6,5.4,37.6"/>
			<path class="st14" d="M599.3,671.2c0,0,15.6-5.9,15.1-28.8c0,0-0.9-7.6-5.4-12.7s-7.4-25.1,3.5-25.8s4.5,17.8,8.7,22.6"/>
			<path class="st14" d="M583.8,746c0,0-4.5-13.8,0-29c4.5-15.2,12.3-30.3,21.6-39.1c9.4-8.8,16.7-20.6,14-35.3
				c-2.8-14.7,3.7-17.1,3.7-17.1s8.5-6.5,14.4,12.1c0,0,1.6,7,0.5,10.4"/>
			<path class="st14" d="M599.8,759.8c0,0-15-9-9.4-36.9c5.6-27.9,30.1-36,37.5-48.6"/>
			<path class="st14" d="M633.3,628.7c0,0,1.6-10.5,12.2-3"/>
			<path class="st14" d="M608.5,758.7c0,0-25.8-31.2-0.1-65.8"/>
			<path class="st14" d="M616.3,757.7c0,0-5.8-23.6-4.2-44.8c1.7-21.3,9.7-21.6,10.6-32.5"/>
			<path class="st14" d="M622.8,760.2c0,0-11.4-39.2,9.6-67.4"/>
			<path class="st14" d="M625.6,759.1c0,0-3.5-3.2-1.9-12.4c1.5-9.2,10.2-18.7,11.6-31.2c1.4-12.5-7.9-28.5-7.4-44.3
				c0.5-15.8,14.5-31.4,21.3-27.8c6.8,3.6,2.4,16-1.5,21.5s-8.5,12.9-4.9,41.4c3.6,28.4-11.9,31.6-11.6,42.8c0,0-0.1,6.8,1.6,10.2"
				/>
			<path class="st14" d="M650.2,644.1c0,0,0.8-5.3-2-9.4c-2.8-4.1-5.1-19.9-2.8-24.5c2.3-4.6,5.5-6.9,10.1-7.4
				c4.6-0.4,7.1,0.9,7.5,4.7c0.4,3.8-5.2,14.4-4.7,20.4s5.5,19.8,3.7,29.9c-1.8,10-19.1,31.3-20.3,40"/>
			<path class="st14" d="M641.9,755.5c0,0-2.2-5.8,1.8-13s7.8-13.5,9-21.6c1.2-8.1,1.8-28.5-6.1-33.8"/>
			<path class="st14" d="M649.6,753.9c0,0-1.3-6.8,1.4-13.8c2.7-7,15.1-24.3,13-40.9c-2.1-16.6-12.4-20.5-12.4-20.5"/>
			<path class="st14" d="M661.3,641.7c0,0,4.9-12.4,11.4-5.7c0,0,4.1,4.2,2.5,9.7"/>
			<path class="st14" d="M657.6,668.6c0,0,3.4,11.7,6.7,18.6c3.3,6.9,7.5,19.1-3.3,48.9"/>
			<path class="st14" d="M653.9,752.7c0,0-1.2-6.6,6.5-15.9s15.6-30.4,8.9-49.6c-6.7-19.3-2-31.3,4.7-40.6
				c6.6-9.3,5.8-18.3,5.5-21.3c-0.3-3,6-13.7,11.4-5.6c5.4,8.1,4.6,17.8-1.7,32.1c-6.3,14.3-14.3,20.1-9.4,43.8
				c4.9,23.6-13.3,40.2-16.3,54"/>
			<path class="st14" d="M689.8,650.4c0,0,6.3-1,6.8,4.1"/>
			<path class="st14" d="M698.2,688.8c0,0-8.3,6.1-8.3,15.1c0,9,8.6,21.2,9.2,28.7c0.6,7.5-0.7,14.8-3.7,18.5"/>
			<path class="st14" d="M694.5,720.9c0,0-19.4,15-19.3,34"/>
			<path class="st14" d="M698.1,728.3c0,0-10.1,8.9-9.9,23.8"/>
			<path class="st14" d="M718.6,749.5c0,0,7.3-20.8,7.7-32.4c0.3-11.6-19.3-27.8-19.4-41.2c-0.1-13.4,6.3-28.5,0-30.2
				c-6.3-1.7-16.2,17.8-15.3,25c0,0-0.8,11.9,17.3,32.5c18.1,20.7,5,39.3-1.1,46.4"/>
			<path class="st14" d="M707.4,701.4c0,0-3.9,5.6-3.2,13.3c0.7,7.7,3.9,16.1,3.7,21.4s-1.8,12.4-2.8,14.3"/>
			<path class="st14" d="M714.8,711.7c0,0-6.9,6.6,0.5,23.9"/>
			<path class="st14" d="M699.8,649.9c0,0-5.9-12.1-2-17.8c4-5.7,6.6-4.2,6.6-4.2"/>
			<path class="st14" d="M720.3,702.3c0,0,0.7-7.5,2.9-12.2c2.2-4.7,3.2-15.5,1.8-21c-1.4-5.5-2.1-8.3-4.7-13.8
				c-2.6-5.5-16.7-19.2-15.2-28.8c1.5-9.6,12.1-23.4,18.9-17.9c6.7,5.5,4.2,13.5,2.4,19.2"/>
			<path class="st14" d="M742.4,682.2c0,0-11.7,18.4-8.2,36.1"/>
			<path class="st14" d="M723.7,732.5c0,0,5.6,3.6-1.5,19.6"/>
			<path class="st14" d="M739.5,747.7c0,0-5.6-12.3,3.5-25.8s11.7-29.7,11.7-29.7c1.1-25-4-36.7-12.5-50.8
				c-8.5-14.1-20.1-16.2-24.2-10.4c-4,5.8,4.4,15.2,4.4,15.2s24.8,27,21.2,47.6s-10.2,22.8-11.7,28.6c-1.4,5.8,0.9,19.4,0.9,19.4"/>
			<path class="st14" d="M744.6,719.3c0,0,3.4,8.3,3.7,14.4"/>
			<path class="st14" d="M753.7,669.9c0,0,13.5-21,18.1-8.3c4.6,12.6-12.1,24.2-16.9,25.3"/>
		</g>
	</g>
	<linearGradient id="SVGID_1_" gradientUnits="userSpaceOnUse" x1="511.033" y1="864.1396" x2="511.033" y2="499.9138">
		<stop  offset="0" style="stop-color:#000000"/>
		<stop  offset="1" style="stop-color:#000000;stop-opacity:0"/>
	</linearGradient>
	<rect x="243.4" y="499.9" class="st23" width="535.2" height="364.2"/>
	<g class="st24">
		<path class="st14" d="M521.4,853.5h-0.6l-0.6-0.5c-1.2-0.7-28.5-9.5-45.8-38.8c-17.8-29.1-16.1-79.7-16.1-82.1
			c0,0,0.6-0.5,0.6-1.2c0.6,0,1.2,0,1.2,0c1.2,0,14.3,1.2,25-13c11.3-14.9,35.1-15.5,36.3-15.5h0.6c0.6,0,25,0.5,36.3,15.5
			c10.1,14.2,23.8,13,24.4,13c0,0,0.5,0,1.2,0c0,0.7,0.6,1.2,0.6,1.2c0,2.4,1.8,53-16.1,82.1c-17.3,28.6-44,38.1-45.8,38.8l-0.6,0.5
			H521.4z M461.9,734.5c0,8.9,0,52.3,15.5,77.9c16.1,27.4,42.3,36.9,44,37.5c1.8-0.7,28-10.2,44-37.5c14.9-25.6,15.5-69,15.5-77.9
			c-4.7,0-16.7-1.8-25.5-14.4c-10.7-13.7-33.3-14.2-33.3-14.2h-0.6c-0.6,0-23.2,0.5-33.9,14.2C478.5,732.7,466.6,734.5,461.9,734.5z
			"/>
		<path class="st14" d="M511.8,797c0,0-0.5-0.5-1.2-0.5l-14.9-14.9c-0.5-0.7-0.5-1.8,0-2.4c0.6-0.5,1.8-0.5,2.4,0l13.7,13.7
			l35.7-35.6c0.6,0,1.8,0,2.4,0c0.5,1.2,0.5,2.3,0,3l-36.3,36.3C513,796.4,512.4,797,511.8,797z"/>
	</g>
	<g>
		<path class="st0" d="M267.4,600.1c0,0.4,0.1,0.9,0.3,1.2c0.2,0.5,0.5,0.9,0.8,1.3c0,0,0,0.1,0,0.1c0.3,0.4,0.6,0.8,0.9,1.1
			c0.2,0.3,0.6,0.4,0.8,0.6c0.4,0.5,0.6,1.1,0.9,1.6c0.3,0.5,0.6,0.9,1.2,1c0.4,0.1,0.9,0,1.3,0.1c0.1,0,0.1,0,0.2,0.1
			c0.6,0.6,1.3,0.9,2.2,0.7c0.5-0.1,1.1-0.4,1.7-0.5c0.5-0.1,1.1,0,1.6,0.1c1.3,0.2,2.3,0.4,3.5-0.2c0.6-0.3,1.2-0.8,1.8-0.9
			c0.5-0.1,1-0.2,1.5-0.5c0.5-0.4,0.7-0.9,1-1.5c0.3-0.6,0.7-1.2,1.1-1.8c0.2-0.5,0.3-1,0.1-1.5c-0.2-0.6-0.6-1.2-0.6-1.9
			c0-1.1,0.7-2.5-0.1-3.5c-0.6-0.8-1.6-0.8-2.5-1.1c-1.1-0.4-1.8-1.3-3-1.5c-0.6-0.1-1.8-0.3-2.1,0.5c0,0,0,0,0,0.1
			c-0.3,0.3-0.6,0.5-1,0.7c-0.5,0.3-0.9,0.3-1.4,0.4c-0.6,0.2-1.1,0.6-1.2,1.3c-0.1,0.8,0.4,1.8,0.1,2.6c-0.3,0.7-0.8,1.2-0.4,2
			c0.5,1.1,2.4,1.8,3.4,0.9c0.2-0.2,0.3-0.5,0.2-0.7c0-0.1,0-0.1,0-0.2c0,0,0,0,0,0c0,0,0-0.1,0-0.1c0,0,0,0,0,0c0,0,0-0.1,0-0.1
			c0,0,0,0,0,0c0,0,0-0.1-0.1-0.1c0,0,0,0,0,0c0,0,0,0-0.1-0.1c0,0,0,0,0,0c0,0,0,0-0.1-0.1c0,0,0,0,0,0c0,0,0,0-0.1-0.1
			c0,0,0,0,0,0c0,0,0,0-0.1-0.1c0,0,0,0,0,0c0,0-0.1,0-0.1,0c0,0,0,0,0,0c0,0-0.1,0-0.1,0c0,0,0,0,0,0c0,0,0,0-0.1,0c0,0,0,0,0,0
			c0,0,0,0-0.1,0c0,0,0,0-0.1,0c0,0,0,0-0.1,0c0,0,0,0-0.1,0c0,0,0,0-0.1,0c0,0-0.1,0-0.1,0c0,0,0,0,0,0c0,0-0.1,0-0.1,0
			c-0.7-0.1-0.4-0.9-0.2-1.3c0.3-0.4,0.6-0.7,1.2-0.7c0.3,0,0.6-0.1,0.9-0.3c0.2-0.1,0.4-0.2,0.6-0.2c0.3,0,0.4,0.3,0.6,0.5
			c0.2,0.3,0.5,0.5,0.8,0.7c0.5,0.4-0.1,0.7-0.3,1.1c-0.2,0.3,0,0.7,0.2,1v0c0.1,0.5-0.2,0.6-0.6,0.8c-0.2,0.1-0.4,0.2-0.4,0.4
			c-0.3,0.6,0.2,1.7-0.9,1.7c-0.6,0-1.3-0.6-1.9-0.3c-0.3,0.1-0.5,0.3-0.7,0.6c-0.3,0.3-0.5,0.4-0.8,0.5c-0.3,0-0.7-0.1-0.9-0.4
			c-0.2-0.2-0.2-0.4-0.5-0.6c-0.4-0.3-1.1-0.1-1.6-0.2c-0.5-0.2-0.7-0.5-0.8-1c0-0.2-0.1-0.5-0.2-0.7c-0.4-0.7-1.4-0.9-1-1.9
			c0,0,0-0.1,0-0.1c0.1-0.2,0.2-0.3,0.2-0.5c0.1-0.3,0.2-0.5,0.2-0.8c0.1-0.6-0.4-1.1-0.5-1.7c0,0,0-0.1-0.1-0.1
			c-0.1-0.3-0.1-0.5-0.2-0.8c0,0,0-0.1,0-0.1c0,0,0,0,0-0.1c0,0,0-0.1,0-0.1c0,0,0,0,0-0.1c0,0,0,0,0-0.1c0,0,0,0,0-0.1c0,0,0,0,0,0
			c0-0.1,0.1-0.3,0.2-0.4c0,0,0,0,0,0c0.2-0.4,0.5-0.8,0.8-1.2c0.4-0.6,0.4-1.3,0.4-2c0.1-0.8,0.6-1.5,1.1-2
			c0.8-0.8,1.8-1.5,2.9-1.9c0,0,0,0,0,0c0.3-0.1,0.6-0.2,1-0.2c1.2-0.1,2.3-0.2,3.5-0.4c1.3-0.2,2.6-0.5,3.8-1.1
			c2.1-1,3.8-2.6,4.7-4.8c0.8-2,0.9-4.2,0.5-6.4c-1-5.3-5-9.7-8.6-13.5c0,0,0,0,0,0c-0.2-0.2-0.3-0.4-0.5-0.5
			c-0.1-0.1-0.2-0.2-0.3-0.4c-0.3-0.4-0.6-0.7-0.9-1.1c0,0,0,0,0,0c-0.1-0.1-0.1-0.2-0.2-0.3c-0.4-0.5-0.7-1-1-1.6
			c-0.6-1.1-1.1-2.3-0.9-3.6c0.3-2.1,2.1-3.4,3.9-4.1c1-0.4,2-0.6,3-0.8c1.2-0.2,2.4-0.4,3.7-0.6c1.2-0.1,2.5-0.2,3.8,0
			c1.2,0.2,2.2,0.6,3.2,1.3c0.5,0.5,1.1,1,1.6,0.6c0.5-0.3,0.5-1.1,0.3-1.6c-0.2-0.5-0.5-1-0.5-1.6c0-0.5,0.2-1,0.4-1.4
			c0.4-0.7,1-1.4,1.1-2.3c0-0.6-0.3-1.2-0.8-1.5c-0.5-0.3-1.1-0.3-1.5,0.2c-0.3,0.4-0.3,0.9-0.4,1.4c0,0,0,0-0.1,0
			c-0.4,0.9-1.4,1.3-2.3,1.5c-1,0.2-2,0.3-2.9,0.3c-1.3,0-2.7-0.1-4-0.3c-0.8-0.2-1.5-0.6-2-1.2c0,0,0,0,0,0c-1.3-1.7-0.9-5-3.2-5.9
			c0.1-0.5,0.9-0.9,1-1.4c0.2-0.4-0.1-0.7-0.5-0.5c-0.3,0.1-0.5,0.2-0.8,0.4c-0.4,0.2-0.7,0.6-1.1,0.7c-0.6,0.3-1.1,0.1-1.8,0.1
			c-0.3,0-0.6-0.1-0.8,0.1c-0.3-0.3-0.1-0.9-0.2-1.3c0-0.4-0.5-0.8-0.9-0.7c-0.5,0.1-0.5,0.6-0.5,1c0,0.4,0,0.8-0.1,1.2
			c-0.1,0.2-0.4,0.4-0.6,0.5c-0.4,0.2-0.7,0.5-1,0.8c-0.5,0.4-1.4,0.1-1.8,0.6c-0.5,0.6-0.2,1.4-0.8,1.9c-0.4,0.3-0.9,0.6-1,1.1
			c-0.2,0.8,0.5,1.3,0.5,2c0,0.8-0.4,1.4-0.3,2.2c0.1,0.6,0.7,1,1,1.5c0.5,0.8-0.1,1.6-0.5,2.4c0,0.1,0,0.2,0.1,0.2
			c0,0.2,0,0.4,0,0.6c0.1,0.5,0.4,0.9,0.8,1.2c0.4,0.3,1.1,0.7,1.2,1.2c0.2,0.7-0.3,1.1-0.5,1.7c-0.3,1,1.2,1.6,1.6,2.3
			c0.5,0.8,0,1.4-0.1,2.2c0,0.4,0.1,0.8,0.3,1.1c0.6,1,1.8,1.8,1.2,3.1c-0.2,0.5-0.5,1-0.5,1.5c0,0.4,0.2,0.9,0.5,1.2
			c0.4,0.5,0.9,1,1.1,1.6c0.2,0.6,0,1-0.3,1.5c-0.2,0.3-0.4,0.8-0.3,1.2c0.1,0.6,0.9,1.5,0.3,2.1c-0.4,0.3-1,0.5-1.2,1
			c-0.1,0.3-0.2,0.6-0.2,1c0,0.4,0,0.9-0.2,1.2c-0.1,0.3-0.4,0.5-0.7,0.5c-0.3-0.1-0.6-0.1-0.8,0.1c-0.1,0.1-0.3,0.2-0.3,0.4
			c0,0.2,0,0.6-0.1,0.8c-0.3,0.5-0.9,0.5-1.2,1c-0.3,0.5-0.3,1.1-0.8,1.6c-0.4,0.4-0.7,0.7-0.8,1.3c0,0.3,0,0.5-0.1,0.8
			c-0.1,0.3-0.3,0.6-0.4,0.9c-0.1,0.2-0.2,0.4-0.3,0.7c0,0.3,0,0.6-0.1,0.8c-0.1,0.5-0.5,0.9-0.6,1.4c-0.1,0.3-0.1,0.6-0.1,0.9
			c-0.1,0.4-0.2,0.6-0.4,0.9c-0.3,0.4-0.6,0.8-0.5,1.3c0.1,0.3,0.2,0.6,0.3,0.9c0.1,0.4,0.1,0.8,0,1.2c-0.1,0.7-0.4,1.3-0.4,2
			c-0.1,1.4-0.1,2.9,0.3,4.2c0.2,0.5,0.2,0.9,0.1,1.4C267.5,599.5,267.4,599.8,267.4,600.1z"/>
		<path class="st2" d="M295.9,548.7c0,0-0.1-0.1-0.1-0.1c0,0-0.1-0.1-0.1-0.1c-0.2-0.3-0.4-0.7-0.4-1.1c-0.1-0.8,0-1.6,0.3-2.4
			c0.2-0.5,0.5-1.1,0.8-1.5c0.1-0.1,0.3-0.2,0.4-0.3c0.6-0.3,0.4,0.5,0.3,0.7c-0.3,0.5-0.5,1-0.7,1.6c-0.2,0.6-0.4,1.3-0.3,1.9
			c0.1,0.5,0.3,1,0.4,1.5c0,0.3-0.2,0.2-0.5-0.1C296,548.8,296,548.8,295.9,548.7z"/>
		<path class="st2" d="M276.7,559.8c0.4,0,1,0.1,1.1,0.5c0,0.2,0.3,0.3,0.4,0.5c0.1,0.2,0.1,0.5-0.1,0.7
			C277.2,562.6,276.1,559.8,276.7,559.8C276.9,559.8,276.5,559.8,276.7,559.8z"/>
		<path class="st2" d="M277.1,575.2c0-0.6,0.4-1.5,1.1-1.5c0.7,0,0.8,1.1,0.9,1.6c0.1,0.7-0.3,1.8-1.2,1.7
			C277.1,577,277,575.8,277.1,575.2z"/>
		<path class="st2" d="M282.8,594.3c0.5-0.2,0.9,0.1,1.3,0.4c0.4,0.3,0.4,1-0.1,1.2C283.2,596.1,281.6,594.7,282.8,594.3
			C283.2,594.2,282.5,594.4,282.8,594.3z"/>
		<path class="st0" d="M276.8,587.3c0,0,0.1,0.1,0.1,0.1c0.3-0.1,0.6-0.2,1-0.2c1.2-0.1,2.3-0.2,3.5-0.4c1.3-0.2,2.6-0.5,3.8-1.1
			c2.1-1,3.8-2.6,4.7-4.8c0.8-2,0.9-4.2,0.5-6.4c-1-5.3-5-9.7-8.6-13.5c0,0,0,0,0,0c-0.2-0.2-0.3-0.4-0.5-0.5
			c-0.1-0.1-0.2-0.2-0.3-0.4c-0.3-0.4-0.6-0.7-0.9-1.1c0,0,0,0,0,0c-0.1-0.1-0.1-0.2-0.2-0.3c-0.6-0.3-0.3,0.6-0.2,0.7
			c0.4,1.1,1.1,2.1,1.5,3.2c1.2,2.5,2.2,5.2,2.6,8c0.4,2.4,0.2,4.9-0.6,7.3c-0.9,2.4-2.7,3.9-4.5,5.6
			C277.7,584.2,275.5,586.2,276.8,587.3z"/>
		<path class="st0" d="M277.2,544.4c0.1,0.8,0.8,1.4,1.6,1.3c0.8-0.1,1.4-0.8,1.3-1.6c-0.1-0.8-0.8-1.4-1.6-1.3
			C277.8,542.9,277.2,543.6,277.2,544.4z"/>
	</g>
	<g class="st25">
		<path class="st26" d="M559.3,215.4L559.3,215.4L559.3,215.4c0.1,0-3.8-7.1-14.8-11.5c-11.1-4.4-19.6-3.3-20.6-2.3
			c-0.8,0.8,0.1,0.7,2.1,1.2c2.4,0.6,8,3.9,6,10.3c0,0,0,0,0,0"/>
		<line class="st26" x1="542.1" y1="232.8" x2="542.1" y2="232.8"/>
		<line class="st26" x1="543.8" y1="233.1" x2="543.8" y2="233.1"/>
		<path class="st26" d="M549.6,240.5C549.6,240.5,549.6,240.5,549.6,240.5c-2.3,1.1-5.3,2-8.8,2.5c-10,1.5-18.8-2.1-20.2-3.4
			c-1-1-0.1-0.7,1.9-0.6c1.7,0.1,5.1-0.8,5.7-3.9"/>
		<line class="st26" x1="551.7" y1="234.1" x2="551.7" y2="234.1"/>
		<path class="st26" d="M487,228.6c0-0.1,1.1-3.3,6.4-3.8c5.4-0.5,11.2,2.2,15.1-1.3c3.9-3.5,5.2-3.4,5.2-3.4s-0.7-1.4-1.4-2.5
			c-2.1-3-3.7-2.4-7.1-2.9c-2.1-0.3-7.2-2.4-6.1-7.2c0,0,0.7,3.5,5,2.1c4.3-1.4,10.3-0.6,14.5,3.7c1.8,1.9,3.1,3.9,4,5.6"/>
		<path class="st26" d="M487,228.6C487,228.6,487,228.6,487,228.6c6.8-3.5,10.9,3.4,19.6,4.3c7.3,0.8,12.1-3.5,14.8-6.6"/>
		<path class="st26" d="M563.1,234.5c2.3-2.5,3.3-1.6,3.3-1.6c1.2,1.9,3.2,1.8,4.1-0.3c0.8-2.2-0.4-4.4-0.4-4.4
			c4.7-3.5,1.8-5.5,1.8-5.5c-0.9,1.5-2,1.4-4.4-0.1c-1.6-1-4.6-5.4-10.1-8.5c-1.4,0.5-2.5,1.9-3.2,4.5c-1.3,5.3-3.1,4.9-3.4,10.8
			c-0.3,5.2,2.9,8.5,6.7,8.7C560.3,236.9,562.2,235.5,563.1,234.5z"/>
		<path class="st26" d="M564.7,228.5c-0.4-0.1,1.5,0.3,2.3,1.6c0.9,1.3,0.9,1.8,1.2,1.5c0.3-0.3,0.5-2.9,1.2-3.3
			C569.4,228.4,566.6,229,564.7,228.5z"/>
		<path class="st26" d="M562.1,218.6c0.3,1.3-0.5,2.6-1.9,2.9c-1.3,0.3-2.6-0.5-2.9-1.9c-0.3-1.3,0.5-2.6,1.9-2.9
			C560.5,216.5,561.8,217.3,562.1,218.6z"/>
		<path class="st26" d="M543.3,232.8c-1.4-0.6-2.8,1.1-2.9,2.3c-0.1,1.1,0.4,2.5,1.7,2.7c1,0.3,1.9-0.7,2.3-1.5
			C545,235.1,544.6,233.4,543.3,232.8z"/>
		<path class="st26" d="M532,228.2c-0.9-0.9-2.3,0.1-2.8,0.9c-0.2,0.2-0.3,0.5-0.4,0.8c-0.1,0.3-0.2,0.6-0.2,0.8
			c-0.1,1.3,0.8,2.4,2.1,2.3C532.8,232.7,533.4,229.5,532,228.2z"/>
		<path class="st27" d="M522.9,218.8c-0.1,0.1-0.1,0.2-0.2,0.2c16.4-8.6,32.5-2.8,32.5-2.8"/>
		<path class="st26" d="M521.5,226.3c1,3,3.5,6.1,6.8,8.7c3.2,2.5,7.3,4.5,11.7,5.3c3.4,0.6,6.7,0.6,9.7,0.1c0,0,0,0,0,0
			c3-0.5,5.7-1.4,7.9-2.4c2.7-1.2,4.6-2.6,5.5-3.6c1.3-1.5,2.3-1.8,2.8-1.8c0.4,0,0.5,0.2,0.5,0.2c0.6,0.9,1.4,1.4,2.1,1.4
			c0.8,0,1.5-0.6,1.9-1.7c0.8-2.2-0.4-4.4-0.4-4.4c4.3-3.2,2.2-5.2,1.9-5.5c0,0,0,0,0,0c-0.4,0.7-0.9,1.1-1.6,1.1
			c-0.7,0-1.6-0.4-2.9-1.2c-1.4-0.8-3.9-4.3-8.2-7.3c-0.6-0.4-1.2-0.8-1.9-1.2c-2.9-1.7-6.6-3-11-3.2c-5.3-0.2-10.3,0.6-14.4,2
			c-4,1.4-7.1,3.5-9,5.8"/>
		<path class="st27" d="M554.3,218.6c0,0-17.8-6.2-31.6,1.2"/>
	</g>
	<path d="M629.2,431.2l-13-27c24.4-11.8,53.2-26.9,62.7-33.5c2-29.7-4.8-190.4-9.8-290l30-1.5c0,0.7,3.7,73.5,6.6,146.3
		c1.7,42.8,2.8,77.3,3.3,102.5c0.3,15.1,0.4,27,0.2,35.5c-0.3,14.8-1.1,19.4-4.1,23.6c-2.9,4.1-8.6,9.5-42.5,27.3
		C645.6,423.2,629.8,430.9,629.2,431.2z"/>
	<path class="st14" d="M629.2,431.2l-3.9-3.1c-4.9-3.9-8-9.7-8.5-16.1l-0.6-7.9c24.4-11.8,53.2-26.9,62.7-33.5
		c2-29.7-4.8-190.4-9.8-290l30-1.5c0,0.7,3.7,73.5,6.6,146.3c1.7,42.8,2.8,77.3,3.3,102.5c0.3,15.1,0.4,27,0.2,35.5
		c-0.3,14.8-1.1,19.4-4.1,23.6c-2.9,4.1-8.6,9.5-42.5,27.3C645.6,423.2,629.8,430.9,629.2,431.2z"/>
</g>
</svg>
