<?xml version="1.0" encoding="utf-8"?>
<!-- Generator: Adobe Illustrator 23.1.0, SVG Export Plug-In . SVG Version: 6.00 Build 0)  -->
<svg version="1.1" id="Layer_1" xmlns="http://www.w3.org/2000/svg" xmlns:xlink="http://www.w3.org/1999/xlink" x="0px" y="0px"
     viewBox="0 0 100 100" style="enable-background:new 0 0 100 100;" xml:space="preserve">
<style type="text/css">
    .st0{opacity:0.3;fill:#00CED1;}
    .st1{opacity:0.7;}
    .st2{fill:#00CED1;}
</style>
<g>
    <circle class="st0" cx="50" cy="50" r="35"/>
    <g class="st1">
        <path class="st2" d="M58.8,38.4C58.8,38.5,58.8,38.5,58.8,38.4l-2.1,0.1c-0.6,0-1-0.1-1.2-0.1c-0.5,0-0.8,0-1.1,0.1
            c-0.3,0.1-0.7,0.2-0.9,0.3c-0.2,0.2-0.3,0.5-0.4,0.9c-0.1,0.3-0.1,0.6-0.1,1.1c0,0.2,0,0.6,0.1,1.1c0,0.5,0.1,0.8,0.1,1.1
            c0,0.2,0,0.5-0.1,0.7c0.6,0.1,1.3,0.2,2.2,0.2c0.3,0,0.7,0,1.4-0.1h2.3c0,0,0.1,0,0.1,0.1c0,1.1-0.1,2.2-0.2,3.2
            c-0.1,1-0.2,2-0.4,3L53.1,50C53,51.9,53,54.2,53,57v11.1c0,0,0,0.1-0.1,0.1h-7.8V50h-3.9v-6.3H45c0-0.4,0.1-2,0.2-4.7
            c0-1.8,0.3-3,0.7-3.8c0.7-1.4,2-2.3,3.7-2.7c1.3-0.3,3.2-0.5,5.7-0.5h1.5l2.1,0.1V38.4z"/>
        <path class="st2" d="M55.2,31.9c-2.5,0-4.4,0.2-5.7,0.5c-1.7,0.5-3,1.4-3.7,2.7c-0.5,0.8-0.7,2.1-0.7,3.8C45,41.7,45,43.3,45,43.7
            h-3.8V50h3.9v18.1h7.8c0,0,0.1,0,0.1-0.1V57c0-2.8,0.1-5.1,0.2-7l5.1-0.1c0.1-0.9,0.3-1.9,0.4-3c0.1-1,0.2-2.1,0.2-3.2
            c0,0,0-0.1-0.1-0.1h-2.3c-0.6,0-1.1,0.1-1.4,0.1c-0.9,0-1.6-0.1-2.2-0.2c0-0.2,0.1-0.4,0.1-0.7c0-0.2,0-0.6-0.1-1.1
            c0-0.5-0.1-0.8-0.1-1.1c0-0.4,0-0.8,0.1-1.1c0.1-0.4,0.2-0.7,0.4-0.9c0.3-0.1,0.6-0.2,0.9-0.3c0.3,0,0.7-0.1,1.1-0.1
            c0.3,0,0.7,0,1.2,0.1h2.1c0,0,0.1,0,0.1-0.1v-6.5l-2.1-0.1H55.2z"/>
    </g>
</g>
</svg>







