<svg xmlns="http://www.w3.org/2000/svg" width="48.064" height="48.064" viewBox="0 0 48.064 48.064"><defs><style>.a{fill:#fff;}</style></defs><circle cx="22.962" cy="22.962" r="22.962" transform="translate(1.07 1.07)"/><g transform="translate(0 0)"><path class="a" d="M519.855,454.705a9.737,9.737,0,0,0-3.555-3.327l.91-1.678a11.18,11.18,0,0,1,4.238,3.982Z" transform="translate(-487.632 -439.973)"/><path class="a" d="M467.921,455.034l-1.621-1A11.612,11.612,0,0,1,470.481,450l.939,1.65A9.969,9.969,0,0,0,467.921,455.034Z" transform="translate(-451.852 -440.188)"/><path class="a" d="M474.7,506.538a11.45,11.45,0,0,1-10.3-6.513l1.706-.825a9.5,9.5,0,0,0,17.093.171l1.706.853A11.4,11.4,0,0,1,474.7,506.538Z" transform="translate(-450.493 -475.396)"/><path class="a" d="M458.04,474.216a3.35,3.35,0,0,1-1.365-.284c-1.365-.768-2.275-3.015-2.275-5.773,0-2.5.8-4.693,1.991-5.6a3.292,3.292,0,0,1,1.65-.455c1.849,0,3.015,2.3,3.015,6.058S459.889,474.216,458.04,474.216Zm-.483-1.962a2.8,2.8,0,0,0,.483.057c.313,0,1.109-1.223,1.109-4.152,0-2.9-.8-4.152-1.109-4.152a1.663,1.663,0,0,0-.54.114c-.6.455-1.194,2.019-1.194,4.038C456.305,470.433,457.045,471.94,457.557,472.253Z" transform="translate(-443.337 -448.847)"/><path class="a" d="M465.794,521.949h-.313c-1.934,0-4.721-.313-4.835-.313h-.057c-8.276-1.394-8.39-10.011-8.39-10.1a.932.932,0,0,1,1.052-.939c1.479.171,2.673-1.138,3.242-1.906a7.379,7.379,0,0,0,.54-1l1.735.739a8.946,8.946,0,0,1-.739,1.365,6.1,6.1,0,0,1-3.839,2.673c.256,1.962,1.422,6.427,6.683,7.309.284.028,2.872.313,4.607.313h.313c1.735,0,4.323-.284,4.607-.313,5.261-.882,6.427-5.347,6.712-7.309a5.878,5.878,0,0,1-3.7-2.474,7.283,7.283,0,0,1-.711-1.109l1.678-.882a7.308,7.308,0,0,0,.54.825,3.732,3.732,0,0,0,3.128,1.763,1,1,0,0,1,.739.228.924.924,0,0,1,.313.711c0,.085-.085,8.731-8.39,10.1h-.057C470.515,521.636,467.728,521.949,465.794,521.949Z" transform="translate(-441.762 -481.478)"/><g transform="translate(18.657 14.22)"><path class="a" d="M502.9,470.8l1.706,1.706,2.076-2.076a5.66,5.66,0,0,0-1.65-1.735Z" transform="translate(-496.7 -467.79)"/><path class="a" d="M495.519,467.832l1.906-1.905a5.522,5.522,0,0,0-2.076-.427,4.968,4.968,0,0,0-1.849.341Z" transform="translate(-489.973 -465.5)"/><rect class="a" width="2.617" height="2.417" transform="translate(3.685 5.538) rotate(-45)"/><path class="a" d="M513.049,481.6a5.613,5.613,0,0,0,.341-1.849,4.967,4.967,0,0,0-.341-1.849l-1.849,1.849Z" transform="translate(-502.639 -474.373)"/><path class="a" d="M504.249,486.8l-1.849,1.849,2.076,2.076a5.473,5.473,0,0,0,1.849-1.849Z" transform="translate(-496.342 -480.742)"/><path class="a" d="M487.939,489.006l-1.706-1.706-2.133,2.133a5.332,5.332,0,0,0,1.735,1.65Z" transform="translate(-483.247 -481.1)"/><path class="a" d="M495.349,495.7l-1.849,1.849a5.614,5.614,0,0,0,1.849.341,4.967,4.967,0,0,0,1.849-.341Z" transform="translate(-489.973 -487.111)"/><path class="a" d="M486.047,472.3l1.849-1.849-2.247-2.247a5.473,5.473,0,0,0-1.849,1.849Z" transform="translate(-483.032 -467.432)"/><path class="a" d="M481.441,478a5.614,5.614,0,0,0-.341,1.849,5.022,5.022,0,0,0,.427,2.076l1.905-1.905Z" transform="translate(-481.1 -474.445)"/></g><path class="a" d="M439.532,463.564a24.032,24.032,0,1,1,24.032-24.032A24.057,24.057,0,0,1,439.532,463.564Zm0-46.158a22.126,22.126,0,1,0,22.126,22.126A22.151,22.151,0,0,0,439.532,417.406Z" transform="translate(-415.5 -415.5)"/><path class="a" d="M485.358,446.155c-3.726,0-6.058-1.138-6.058-3.015a3.35,3.35,0,0,1,.284-1.365c.768-1.394,3.015-2.275,5.773-2.275,2.5,0,4.693.8,5.6,1.991a3.292,3.292,0,0,1,.455,1.65C491.387,444.989,489.083,446.155,485.358,446.155Zm-4.1-3.5a2.8,2.8,0,0,0-.057.483c0,.313,1.223,1.109,4.152,1.109,2.9,0,4.152-.8,4.152-1.109a1.664,1.664,0,0,0-.114-.54c-.455-.6-2.019-1.194-4.039-1.194C483.083,441.406,481.6,442.145,481.262,442.657Z" transform="translate(-461.155 -432.674)"/><path class="a" d="M526.315,474.216c-1.849,0-3.015-2.3-3.015-6.058,0-3.726,1.138-6.058,3.015-6.058a3.292,3.292,0,0,1,1.65.455c1.223.882,1.991,3.072,1.991,5.6,0,2.73-.882,5.005-2.275,5.773A3.35,3.35,0,0,1,526.315,474.216Zm0-10.182c-.313,0-1.109,1.223-1.109,4.152,0,2.9.8,4.152,1.109,4.152a2.805,2.805,0,0,0,.484-.057c.512-.341,1.251-1.82,1.251-4.1,0-2.019-.626-3.583-1.194-4.038A1.663,1.663,0,0,0,526.315,464.034Z" transform="translate(-492.641 -448.847)"/></g></svg>