<?xml version="1.0" encoding="utf-8"?>
<!-- Generator: Adobe Illustrator 23.1.0, SVG Export Plug-In . SVG Version: 6.00 Build 0)  -->
<svg version="1.1" id="Layer_1" xmlns="http://www.w3.org/2000/svg" xmlns:xlink="http://www.w3.org/1999/xlink" x="0px" y="0px"
	 viewBox="0 0 1000 1000" style="enable-background:new 0 0 1000 1000;" xml:space="preserve">
<style type="text/css">
	.st0{fill:none;stroke:#00CED1;stroke-width:1.5;stroke-linecap:round;stroke-linejoin:round;stroke-miterlimit:10;}
	.st1{opacity:0.6;}
	.st2{fill:none;stroke:#00CED1;stroke-linecap:round;stroke-linejoin:round;stroke-miterlimit:10;}
	.st3{opacity:0.5;}
	.st4{opacity:0.3;}
	.st5{opacity:0.5;fill:none;stroke:#00CED1;stroke-width:1.5;stroke-linecap:round;stroke-linejoin:round;stroke-miterlimit:10;}
	.st6{opacity:0.7;}
	.st7{fill:none;stroke:#00CED1;stroke-width:0.75;stroke-linecap:round;stroke-linejoin:round;stroke-miterlimit:10;}
	.st8{fill:url(#SVGID_1_);}
</style>
<g>
	<g>
		<path class="st0" d="M402.8,276.1"/>
		<path class="st0" d="M594.2,685.9c-0.7-3.7-2.8-10.1-4.8-14.2c-2.8-6.1-5.2-9.2-12.5-16.2c-4.9-4.8-10-9-11.1-9.4
			c-6.9-2.2-16.7-11.8-20.3-20.1c-2-4.4-2.8-5.3-4.2-4.7c-0.9,0.4-3.2,0.9-5,1.2c-3.1,0.4-3.3,0.3-2.6-2.2c0.5-2,0.2-2.6-0.9-2.6
			c-0.9,0-1.9,0.4-2.2,1c-0.8,1.2-7.5,1.3-9.4,0.1c-1-0.7-1.1-1.3-0.2-3c1.4-2.5,1.5-2.5,7.5-0.5c3.1,1.1,6.8,1.5,10.6,1.2
			c6.8-0.5,9.4-2.1,8-4.8c-0.9-1.6-1.5-1.7-4.7-0.8"/>
		<path class="st0" d="M559.7,605.5c1.1-2.2,1.3-3.3,0.5-4.1c-2.2-2.2-4.6,0.9-7.5,9.8l-2.8,8.8l1.8,4.6c2.1,4.9,8.1,10.4,22,20.1
			c10.9,7.6,14.9,11.4,20.4,19.2c3.7,5.2,5.1,8.3,6,13.4"/>
		<path class="st0" d="M611.3,674.9c0.3,2.4,0,5.2-0.5,6.3"/>
		<path class="st0" d="M644.2,670.8c0.3-0.9-0.9-1.8-3-2.4c-3.6-1.1-10.9,0-20.8,3c-2.9,0.9-5.5,1.4-5.8,1.1"/>
		<path class="st0" d="M497.8,419.7"/>
		<path class="st0" d="M496.3,427.5"/>
		<path class="st0" d="M404.6,539.6c4-1.8,10-3.3,17.5-4.4c6.3-0.9,14-2.6,17-3.7c10.9-4,13.5-4.2,17-1.6
			c3.6,2.6,9.4,10.2,10.9,14.1c1.3,3.3,1.3,3.2-4.3,0.5c-3.7-1.7-5-2-6.8-1.1c-4,2-6.8,2.2-6.8,0.7c0-1.6-1.2-1.8-2.6-0.5
			c-0.5,0.6-3,0.3-6.4-0.9c-6.3-2.2-13.5-2.5-24.5-0.9c-14.8,2-22.2,6.9-40,26.3c-2.5,2.6-7.5,10.5-10.5,16.6"/>
		<path class="st0" d="M494.7,428c-18.1,19.4-23.9,43-23.9,43c-3,11.5-5.2,31-4.2,36.5c0.8,4.3-0.2,7.2-2.4,7.2
			c-1,0-3.9,1.1-6.4,2.5"/>
		<path class="st0" d="M537.6,606.1c10.6,0.1,13.4-0.6,11.4-3c-1.1-1.3-2.7-1.5-9.8-0.9c-6.7,0.5-9.6,0.3-13.1-1
			c-4.3-1.5-15.3-7.7-19.4-11c-2.3-1.8-1.5-3,1.1-1.7c8.3,4.4,20.3,9.4,24.6,10.3c7.2,1.4,14,0.3,16.7-2.6c3.6-3.8,2.3-4.8-6.6-5
			c-15.3-0.3-30.1-8.9-49.9-29c-9.6-9.7-14.3-15.4-17.9-21.6c-2.7-4.6-6.8-10.6-9-13.3c-3.1-3.8-3.7-5.2-2.9-6.5
			c1.4-2.2,3.8-2.5,7.2-1c2.5,1.1,3,2,3.6,6.6c0.3,2.9,1.1,5.5,1.6,5.8c0.5,0.4,0.9,1.3,0.9,2.1c0,2.5,11,16.2,21.2,26.4
			c9.3,9.3,19.6,17,32.8,24.2l6.5,3.6l16.6-0.1l16.5-0.1l5.5,4.4c7.6,6,11.2,7.3,18.4,6.8c23.2-1.9,50.9-28.6,53.2-51.3
			c0.5-4.3,0.1-6.2-1.6-9.5c-1.1-2.2-2.1-5.1-2.1-6.4c0-1.3-1-3-2.2-3.8c-2.2-1.5-2.2-1.6-0.4-3.3c2.1-2.1,3.2-5,4.7-11.3
			c0,0,4.9-22.9-0.9-47.1c-2.4-7.8-8.1-18.9-12.6-24.4l-4.6-5.7l-1.3-2l-6.1-5.8c-6.2-5.9-16.7-13.2-25.4-17.6
			c-38.3-13.9-65.4-8.4-84.2,3.8"/>
		<path class="st0" d="M437.7,520.8"/>
		<path class="st0" d="M536.9,458.7c3.7,0.9,9.9,5,14.3,9.4c8.2,8.4,11.1,24.3,7,38.1c-1.7,6-2.9,7.8-7.7,12.5l-5.7,5.5l4.1-5.8
			c5.6-8,6.9-14.1,5.4-26.3c-0.8-7.5-1.7-10.5-4.3-15.1c-4.4-7.6-10-13-16.5-15.9c-3-1.3-5.4-2.6-5.4-2.9
			C528.1,457.5,533,457.8,536.9,458.7z"/>
		<path class="st0" d="M519.9,463.1c6.5-0.2,12.2,1.4,12.2,3.6c0,0.5,0.7,1,1.5,1.2c1.5,0.3-9.1,9.8-11,9.8
			c-1.5,0-10.9-12.9-10.1-13.7C512.9,463.6,516.2,463.2,519.9,463.1z"/>
		<path class="st0" d="M506.7,464.7c0.5,0,1.5,1.5,2.2,3.4c0.7,1.8,3.1,5.5,5.4,8c4.7,5.5,4.6,6.1-2.4,12.5c-4,3.7-5,4.1-6.3,3.1
			c-2.6-2.1-10.5-13.1-10.5-14.5c0-0.7,2.4-3.8,5.3-6.9S506.1,464.7,506.7,464.7z"/>
		<path class="st0" d="M539.3,470.7c1.2,0,5.9,6,7.2,9.2c1.9,4.5,1.9,4.8,0.4,4.8c-0.7,0-3.5,2.3-6.4,5.1l-5.1,5l-4.7-5.3
			c-2.5-2.9-4.6-5.7-4.6-6.3c0-0.5,2.9-3.6,6.4-6.8C536.1,473.3,539.1,470.7,539.3,470.7z"/>
		<path class="st0" d="M492.2,482.7c1,0,10.9,11.7,10.9,13c0,1.4-11.1,11-12.1,10.4c-1-0.6-1.2-15.5-0.3-20.3
			C491.1,484.1,491.7,482.7,492.2,482.7z"/>
		<path class="st0" d="M522.1,485.7c1.2,0,10,10.2,10,11.6c0,0.7-2.8,3.6-6.1,6.5l-6.2,5.3l-3.4-3.9c-7.5-8.7-7.5-8.1-1-14.1
			C518.6,488.1,521.6,485.7,522.1,485.7z"/>
		<path class="st0" d="M549.2,490.7c1.1,0,1.8,5.1,1.2,9c-0.6,4.3-2.3,9-3.3,9c-0.8,0-7-7.6-7-8.7c0-0.4,1.9-2.7,4.2-5
			C546.6,492.6,548.8,490.7,549.2,490.7z"/>
		<path class="st0" d="M511.5,504.8c2.5,2.8,4.6,5.6,4.6,6.3c0,0.6-2.9,4.1-6.5,7.6l-6.5,6.4l-3.9-3.8c-2.2-2.1-4.5-5.2-5.2-6.8
			c-1.2-2.9-1.1-3.2,4.2-7.9C506.6,498.9,506.3,499,511.5,504.8z"/>
		<path class="st0" d="M536.9,502.7c1.3,0,8,8.2,8.2,10.1c0.1,0.8,0.2,2.1,0.1,3c-0.1,1.9-8,9.9-9.7,9.9c-1.5,0-10.4-9.8-10.4-11.5
			c0-0.6,2.4-3.5,5.4-6.4C533.5,505,536.4,502.7,536.9,502.7z"/>
		<path class="st0" d="M520.2,516.7c1.2,0,10.9,11.1,10.5,11.9c-0.9,1.4-11.8,3.3-15.4,2.6c-4.3-0.8-9.2-3.2-9.2-4.5
			c0-0.5,2-1.9,4.5-3.1s5.5-3.3,6.7-4.6C518.5,517.7,519.8,516.7,520.2,516.7z"/>
		<path class="st0" d="M627.6,523.7c2.7,0.7,2.6,0.8-1.5,0.9c-8.2,0.2-21.9,4.9-22.8,7.8c-0.5,1.8,4.7,1.7,10.4-0.3
			c5.9-2,6.7-1.3,1.2,1.1c-13.3,5.8-26.1,17-34.9,30.4c-3.8,5.8-6.9,10-6.9,9.3c0-2.5,3-8.2,8.4-16.3c6.1-8.8,6.4-10,4-12
			c-1.4-1.1-2.3-0.6-6.8,4.2c-2.8,3-6.1,6.8-7.4,8.4l-2.3,3l1.8-3.3c3.3-6.1,12.2-16.1,19.7-22.1c5.4-4.3,9.7-6.7,16.1-9
			C615.2,522.7,621.2,522.1,627.6,523.7z"/>
		<path class="st0" d="M625.9,535.7c2.5,0,2.3,0.4-3.9,6.5c-5.3,5.1-7.3,6.5-9.7,6.5c-3.3,0-8.2-1.8-8.2-3.1c0-1.2,9.4-6.6,14.4-8.3
			C621.1,536.4,624.4,535.7,625.9,535.7z"/>
		<path class="st0" d="M629.1,541.7l5.6-4.8l2.9,1.6c5.9,3.3,5.8,4.2-0.5,10.5c-4.9,4.9-5.1,5-9.6,4.3c-6.4-0.8-8-2.3-5.7-4.9
			C622.8,547.4,626.1,544.3,629.1,541.7z"/>
		<path class="st0" d="M438.2,547.7c3.5,0.1,9.3,2.3,12.4,4.8c1.5,1.2,3.2,2.2,3.7,2.2c1.6,0,20.6,18.1,24.7,23.5
			c3.9,5,12,22.6,14.8,32c0.8,2.7,2.3,6.4,3.2,8.1c1,1.7,2.6,5.4,3.6,8.3c1.4,4.3,1.5,5.7,0.5,8.2c-0.7,1.6-1.6,2.9-2,2.9
			c-1,0-4.7-11.1-5.9-17.6c-2.4-12.4-13.8-33.9-25.1-47.1c-7.9-9.3-13.5-14-24.3-20.5C438,549.1,436.5,547.7,438.2,547.7z"/>
		<path class="st0" d="M599.1,551.7c0.8,0.5,2.6,1,4,1c5.9,0.1,5.4,1.6-2.7,8.4c-4.7,3.9-8.7,6.6-10.1,6.6c-2.7,0-6.2-1.7-6.2-3
			c0-0.5,2.8-3.9,6.1-7.5C596.7,550.3,596.8,550.2,599.1,551.7z"/>
		<path class="st0" d="M616.2,555.8c4.4,0.1,9.9,1.7,9.9,2.8c0,1.1-9.6,9.8-13.3,12.1c-2.1,1.3-3.7,1.6-6,1c-1.8-0.4-4.4-1.1-6-1.4
			c-1.5-0.4-2.7-1-2.7-1.4s3.3-3.6,7.4-7C611.5,556.9,613.5,555.7,616.2,555.8z"/>
		<path class="st0" d="M367.1,594c0-0.2,2-4.3,4.5-9.1c4.7-9,11.7-17.1,19.2-22.3c3.1-2.2,6.1-3.2,11.5-3.9c4-0.5,8-0.9,8.8-0.8
			c0.8,0.1,5.3,0.4,10,0.7c6.7,0.5,9.8,1.3,14.5,3.6c6.4,3.2,15.8,9.6,18.8,16.6c0,0,9.8,16.3,11.2,28"/>
		<path class="st0" d="M447.6,573.7"/>
		<path class="st0" d="M633.3,560.7c0.2,0.1,1.3,0.6,2.6,1.3l2.3,1.3l-4,5.1c-4.5,5.6-8.3,8.5-10.3,7.9c-0.7-0.3-2.5-0.7-4.1-1
			c-1.5-0.4-2.7-1.1-2.7-1.6s3.6-3.6,7.9-7C629.4,563.4,633.1,560.7,633.3,560.7z"/>
		<path class="st0" d="M584.4,572.2c0.4,0.8-0.6,2.4-2.4,4c-4.9,4.1-6.3,3-3.4-2.5C580.2,570.5,583.5,569.7,584.4,572.2z"/>
		<path class="st0" d="M592.6,574.8c3.3,0.2,10.9,2,11.8,2.9c0.5,0.4-3,3.8-7.7,7.5c-7.4,5.7-9,6.6-11.5,6c-1.6-0.3-3.7-1.5-4.7-2.6
			c-1.7-1.9-1.6-2.1,4.1-7.9C588.2,577,591.3,574.7,592.6,574.8z"/>
		<path class="st0" d="M617,580.9l2.4,0.9l-2.2,2.3c-2.6,2.7-16.5,8.6-20.2,8.6c-2.1-0.1-1.6-0.8,4.1-6.1
			C610,578.4,610.3,578.3,617,580.9z"/>
		<path class="st0" d="M365.6,654.2V638c0-11.5-0.4-16.5-1.2-17.4c-1.9-1.9-2.8-0.2-1,1.9c1.4,1.6,1.4,1.9-0.3,4.2
			c-2.2,2.8-2.6,4.5-0.9,3.4c0.9-0.5,1,2.6,0.5,11.7c-1.3,25.7-0.4,46.3,2.4,55.9c0.5,1.9,1.4,9.1,2,16"/>
		<path class="st0" d="M469.3,642.5c1.2,1.2-2.2,17.4-4.8,22.4c-1.6,3.1-1.4,3.3,4.1,4.2c3.7,0.6,3.9,0.5,2.1-0.9
			c-1.9-1.4-1.8-1.5,2-1.5c3.4,0,4.2-0.5,6.1-3.5c2.6-3.9,2.8-5.1,1.2-6.1c-0.6-0.3-2.3,0.9-3.9,2.7c-3.9,4.7-5,2.8-1.7-3.1
			c4.2-7.5,3.1-10.5-2.1-5.8c-2.3,2.1-2.5,2.2-1.7,0.3c3.5-8.8,3.9-10.8,2.2-12c-1.3-0.9-1.7-2.8-1.7-8.1c0-3.8-0.7-9.8-1.5-13.3
			c-0.9-3.5-1.3-6.6-1-6.9c1.7-1.7,4,4.7,7.4,20.8c1.9,8.8,4.3,16.7,6.1,19.7c0.5,1,1.4,2.9,2,4.3c0.5,1.4,1.5,3.2,2.2,4.1
			c0.9,1.3,0.5,3.1-1.8,9c-2.8,7.1-3.1,7.4-6,7.1c-3.8-0.4-8.5,3.3-11.4,8.7c-1,2-1.9,3-2,2.3c0-0.7,1.4-3.4,3.1-5.9
			c2.7-3.8,3-4.8,2-6.9c-1.4-3.2-3.2-3-5.8,0.8l-2.2,3.2l0.6-3.7c1.2-7.5-4.3-3.1-9,7.2c-2.4,5.2-3.1,8.3-3.4,14.9"/>
		<path class="st0" d="M466.1,613.3"/>
		<path class="st0" d="M469.1,708.1c10.1-11.6,17.2-24.1,24-42.4c5.5-14.7,11-25.8,17-34c2.6-3.6,5.3-7.5,5.9-8.8
			c0.6-1.2,1.9-2.2,2.9-2.1c2.3,0.1,6.2,2,6.2,3c0,0.5-2,3-4.4,5.7c-5.8,6.6-11.2,16.7-18.1,33.7"/>
		<path class="st0" d="M692.8,650c1.3-0.3,2.3-0.1,2.3,0.5c0,0.9-12.1,4.5-12.8,3.7c-1-1,1.1-2.3,4.5-3
			C688.9,650.9,691.6,650.3,692.8,650z"/>
		<path class="st0" d="M693.3,657.8c2.6-1,2.8-0.9,2.8,1.4s-0.4,2.5-5.5,2.7c-3,0.1-6.2,0.2-7,0.2c-0.8,0.1-1.5-0.4-1.5-0.9
			c-0.1-0.6,1.9-1.3,4.2-1.7C688.7,659.2,691.8,658.4,693.3,657.8z"/>
		<path class="st0" d="M692.7,668.6c-0.8,1.2-5.5,2-6.1,1.1c-0.3-0.4,0.2-1.1,1.1-1.4C690.1,667.4,693.3,667.6,692.7,668.6z"/>
		<path class="st0" d="M475.1,685.7c3.4-5.1,4-3.9,1,2c-1.8,3.5-4,5.3-4,3.2C472.1,690.5,473.5,688.2,475.1,685.7z"/>
		<path class="st0" d="M699.9,660.5c0.3-7.1,0-9.2-1.7-12.6l-2.1-4.1l-4.5,1.6c-4.6,1.8-5.9,1.5-5-0.8c0.6-1.3-1.5,2.3,6.1-2
			c1.6-1,6.5-4,7.2-5.5c1.5-2.9-0.9-4.1-0.9-4.1c-0.9-0.6-3.6-2.7-16.1,0.3c-2,0.5-8.3-0.3-10.2,1.3c-1.9,1.7-4.7,3.3-6.4,3.6
			c-1.6,0.3-3.4,1.6-4,2.8c-2.8,5.8-8.2,20.6-8.2,22.4c0,1.5-1.1,2.5-3.5,3.3c-2.8,1.1-3.5,1.8-3.5,4.1"/>
		<path class="st0" d="M366.4,597.3c-2.4,0.7-3.5,3.6-4.8,12.9c-0.4,2.7-1.3,5.8-2,6.8c-0.8,1.2-1.1,3.3-0.8,5.4
			c0.5,2.9,0.2,3.5-1.5,4c-1.5,0.4-2,1.3-2,3.6c0,1.8-0.7,6.5-1.5,10.4"/>
		<path class="st0" d="M588.4,648.4c-3.1-3.5-3.3-4.1-3.3-11.1c0-6.7,0.2-7.5,2.4-9c2.2-1.4,2.3-1.8,1.3-4c-0.7-1.4-2.1-2.7-3.2-2.8
			c-1.5-0.2-2.6-2.1-4.6-7.9c-3.7-11.3-8.4-17.9-12.6-17.9c-3.1,0-2.9,1.2,1.2,8c4.1,6.7,7.9,15,7.2,15.6c-0.3,0.3-1.4-1.5-2.6-3.9
			c-2.2-4.4-7.6-10.5-8.6-9.5c-0.3,0.3,0.5,3,1.9,5.9"/>
		<path class="st0" d="M596.4,305.3c4.4,29.1,11.9,78,16.5,101.7"/>
		<path class="st0" d="M592.6,401.4c-3.2-17.4-7.4-45-10.8-69.1"/>
		<path class="st0" d="M658.4,544.5c9.1,19.3,23.2,65.2,24.8,79.7"/>
		<path class="st0" d="M666,628.3c-1.7-10-7-36.3-16.2-58.5"/>
		<path class="st0" d="M268.6,279.2c2.5,20.1,10.8,97.5,4.7,206.3c0,0-6.4,123.3,13.1,133.4"/>
		<path class="st0" d="M286.4,277c2.6,21,11,99.6,4.8,209.6c0,0-4.6,33,0.9,55"/>
		<path class="st0" d="M345,277.5"/>
		<path class="st0" d="M290.5,669.8c6.3-137.3,32.7-361.4,36.7-394.6"/>
		<path class="st0" d="M431.1,466.5c-31.4,22.4-82.7,66.2-97.5,121.3c-8.7,32.4-6.3,59.4,12.5,90.9l-4.6,28.7
			c-21.4-35.9-35.4-87.1-25.3-124.4c10.1-37.2,35.3-73.6,75-108.2c21.8-18.9,37.7-31.1,51.5-38.5"/>
		<path class="st0" d="M441.9,530.5l-19.8,4.7c1.2-41.2,36.7-109.7,39.3-113.8c3.1-5.3,12.2-20.8,26.2-18.9
			c15.2,2,34.3,23.2,35.4,27.6v0c-4.4,5.9-11.4,9.1-18.7,8.5l-3.9-0.3l-5.4-9.6c-1.8-6.8-7.7-7-9.8-8.2c-0.7,0.3-3.8,2.1-8.4,10.2
			c-0.1,0.1-0.1,0.2-0.2,0.3C476.4,431.4,443,493.6,441.9,530.5z"/>
		<path class="st0" d="M473.1,398.1c7.4-18.7,19.5-28.7,31.3-29.7c25.4-2.1,47.2,31,49.5,34.7l-19.5,1.9
			c-4.3-6.9-16.2-19.6-28.6-18.6c-5.3,0.4-9.8,4.9-13.4,10.5"/>
		<path class="st0" d="M518.9,423.8c0,0,13.8-3.6,12.3,6c-1.9,12.4-39.8,23.9-32.1,5.7"/>
		<path class="st0" d="M530.9,426.3l3.5,5.3c0.5,0.7,0.7,1.6,0.5,2.5c-0.8,3.4-3.8,11.9-14.4,14.3c-6.8,1.6-11,2.5-13.5,3.1
			c-1.9,0.4-3.9-0.5-4.7-2.2l-4-7.9"/>
	</g>
	<g class="st1">
		
			<rect x="360.1" y="434.8" transform="matrix(0.6997 -0.7144 0.7144 0.6997 -205.2458 401.1912)" class="st0" width="29" height="19.8"/>
		<path class="st0" d="M376.3,428.9l-7.4-7.2c0,0-6.4-7-15.5,2.3c-9.2,9.4-2,15.6-2,15.6l7.4,7.2"/>
		<path class="st0" d="M376,440.7c-1.5-1.5-4-1.5-5.5,0.1c-1.5,1.5-1.5,4,0.1,5.5c0.8,0.8,1.8,1.1,2.8,1.1l1.5,1.5
			c1.1,1,2.7,1,3.8,0c1-1.1,1-2.7,0-3.8l-1.5-1.5C377.2,442.5,376.8,441.5,376,440.7z"/>
	</g>
	<g>
		
			<rect x="707.6" y="525.9" transform="matrix(0.8742 0.4856 -0.4856 0.8742 349.5208 -281.8887)" class="st2" width="22.1" height="15.1"/>
		<path class="st2" d="M730.7,531.5l3.8-6.9c0,0,3.9-6.1-4.8-11c-8.7-4.9-11.9,1.7-11.9,1.7l-3.8,6.9"/>
		<path class="st2" d="M722,533.7c0.8-1.4,0.3-3.2-1.1-4c-1.4-0.8-3.2-0.3-4,1.1c-0.4,0.7-0.5,1.6-0.2,2.3l-0.8,1.4
			c-0.5,1-0.2,2.2,0.8,2.8c1,0.5,2.2,0.2,2.8-0.8l0.8-1.4C720.9,534.9,721.6,534.4,722,533.7z"/>
	</g>
	<g>
		<path class="st0" d="M677,388.4L677,388.4c-0.9-0.8-0.9-2.2-0.1-3c4.3-4.7,7.8-8,10.6-9.9c3.1-2.2,8.1-4.5,15-6.9
			c6.9-2.4,12.1-4.7,15.6-6.8c3.5-2.1,7.1-5.3,11-9.6c6-6.6,9.2-12.7,9.4-18.1c0.2-5.5-1.4-9.8-4.9-13c-2.7-2.5-5.6-3.8-8.7-4
			c-2.4-0.2-4.2,0.3-5.2,1.5c-0.7,0.8-1.4,2.5-2.1,5c-1.3,5.8-3.2,10-5.6,12.6c-2.2,2.5-4.9,3.7-8.1,3.9c-3.1,0.1-5.9-0.9-8.4-3.2
			c-2.8-2.5-4.2-5.6-4.3-9.3c-0.1-3.7,1.3-7.1,4.2-10.3c5.3-5.8,12.5-8.7,21.6-8.5c9.1,0.2,18.1,4.4,27.2,12.6
			c9.6,8.7,14.8,17.7,15.7,26.9c0.9,9.2-1.7,17-7.6,23.5c-4.3,4.7-9.5,7.8-15.7,9.5c-6.2,1.6-15.2,1.5-27-0.3
			c-7.9-1.2-13.8-1.3-17.7-0.2c-3.5,1-7.6,3.6-12.1,7.7C679,389.1,677.8,389.1,677,388.4z M667.7,399.8c3.3,3,5.1,6.8,5.3,11.2
			c0.2,4.4-1.2,8.3-4.2,11.6c-3,3.3-6.8,5.1-11.3,5.3c-4.5,0.2-8.4-1.2-11.7-4.2s-5-6.8-5.2-11.2c-0.1-4.5,1.3-8.4,4.3-11.7
			c3-3.3,6.7-5.1,11.1-5.3C660.5,395.4,664.4,396.8,667.7,399.8z"/>
	</g>
	<g class="st3">
		<path class="st0" d="M450.5,361.3L450.5,361.3c-0.2,0.2-0.6,0.3-0.8,0.1c-1.3-1.1-2.2-2-2.7-2.7c-0.6-0.8-1.2-2.1-1.9-3.9
			c-0.7-1.8-1.3-3.1-1.9-4c-0.6-0.9-1.5-1.8-2.6-2.8c-1.8-1.5-3.4-2.3-4.8-2.3c-1.4,0-2.5,0.4-3.3,1.4c-0.6,0.7-0.9,1.5-1,2.3
			c0,0.6,0.1,1.1,0.4,1.4c0.2,0.2,0.7,0.3,1.3,0.5c1.5,0.3,2.6,0.7,3.3,1.3c0.7,0.6,1,1.3,1.1,2.1c0.1,0.8-0.2,1.6-0.8,2.2
			c-0.6,0.7-1.4,1.1-2.4,1.2c-1,0.1-1.9-0.3-2.7-1c-1.6-1.3-2.4-3.2-2.4-5.6c0-2.4,1-4.8,3-7.2c2.2-2.6,4.5-4,6.9-4.3
			c2.4-0.3,4.5,0.3,6.2,1.8c1.3,1.1,2.1,2.4,2.6,4c0.5,1.6,0.5,4,0.2,7.1c-0.2,2.1-0.2,3.6,0.1,4.6c0.3,0.9,1,1.9,2.1,3.1
			C450.7,360.8,450.7,361.1,450.5,361.3z M453.6,363.7c0.8-0.9,1.7-1.4,2.9-1.5c1.2-0.1,2.2,0.2,3.1,1c0.9,0.8,1.4,1.7,1.5,2.9
			c0.1,1.2-0.2,2.2-1,3.1c-0.8,0.9-1.7,1.4-2.9,1.5c-1.2,0.1-2.2-0.3-3.1-1c-0.9-0.8-1.4-1.7-1.5-2.9
			C452.5,365.6,452.8,364.6,453.6,363.7z"/>
	</g>
	<g class="st4">
		<path class="st0" d="M680.9,511.1c0.2,0,0.4,0,0.5-0.2c5.4-4.7,8.6-11.2,9.1-18.3c0.5-7.1-1.8-14-6.4-19.4
			c-0.1-0.1-0.3-0.2-0.5-0.2"/>
		<path class="st0" d="M676.9,506.7c0.2,0.1,0.5,0.1,0.8-0.1c8.7-7.6,9.6-20.8,2.1-29.5c-0.2-0.2-0.4-0.3-0.6-0.2"/>
		<path class="st0" d="M673.3,502.4c0.2,0,0.4,0,0.6-0.2c3-2.6,4.9-6.3,5.2-10.4c0.3-4-1-7.9-3.6-11c-0.2-0.2-0.4-0.3-0.7-0.2"/>
		<path class="st0" d="M664.8,490.8c0.1-1.7,1.6-3.1,3.4-2.9c1.7,0.1,3,1.6,2.9,3.4s-1.6,3.1-3.4,2.9S664.7,492.6,664.8,490.8z"/>
	</g>
	<path class="st0" d="M345,277.5c0,0-23,206.1-24.2,235.4c-1.3,29.3-4.1,45-4.1,45"/>
	<g>
		<circle class="st0" cx="393.9" cy="388.9" r="17.2"/>
		<circle class="st0" cx="444.4" cy="312.2" r="7.3"/>
		<circle class="st5" cx="445.4" cy="204.8" r="10.4"/>
		<path class="st0" d="M315.9,320c-3.1-4.1-8.1-6.7-13.6-6.7c-2.6,0-5.1,0.6-7.3,1.6"/>
		<path class="st0" d="M296.9,346.7c1.7,0.5,3.5,0.8,5.3,0.8c4.6,0,8.8-1.8,11.9-4.8"/>
		<circle class="st5" cx="445.4" cy="388.5" r="17.2"/>
		<circle class="st0" cx="537.4" cy="196.5" r="17.2"/>
		<circle class="st5" cx="383.5" cy="190" r="4.2"/>
		<circle class="st0" cx="562.5" cy="309" r="14.6"/>
		<circle class="st0" cx="357.1" cy="310.8" r="15.7"/>
		<circle class="st0" cx="373" cy="380.7" r="5.2"/>
		<circle class="st0" cx="411" cy="379" r="2.7"/>
		<circle class="st0" cx="412.4" cy="383.8" r="2.1"/>
		<circle class="st0" cx="412" cy="389.9" r="0.9"/>
		<circle class="st0" cx="379.3" cy="376.3" r="2.1"/>
		<circle class="st0" cx="382.4" cy="374.7" r="1"/>
		<g class="st6">
			<circle class="st0" cx="405.7" cy="127.4" r="9.6"/>
			<circle class="st0" cx="394" cy="122.8" r="2.9"/>
			<circle class="st0" cx="415.3" cy="121.9" r="1.5"/>
			<circle class="st0" cx="416" cy="124.6" r="1.2"/>
			<circle class="st0" cx="415.8" cy="127.9" r="0.5"/>
			<circle class="st0" cx="397.6" cy="120.4" r="1.2"/>
			<circle class="st0" cx="399.3" cy="119.5" r="0.6"/>
		</g>
		<circle class="st0" cx="509.3" cy="264.5" r="8.3"/>
		<circle class="st0" cx="499.2" cy="260.5" r="2.5"/>
		<circle class="st0" cx="502.2" cy="258.4" r="1"/>
		<circle class="st0" cx="503.7" cy="257.6" r="0.5"/>
		<circle class="st0" cx="496.6" cy="313.2" r="8.3"/>
		<circle class="st0" cx="393.9" cy="247.5" r="8.3"/>
		<circle class="st5" cx="469.2" cy="166.6" r="6.3"/>
		<circle class="st0" cx="401.5" cy="352.8" r="4.2"/>
		<g>
			<circle class="st0" cx="423.7" cy="290.2" r="9.6"/>
			<circle class="st0" cx="412" cy="285.6" r="2.9"/>
			<circle class="st0" cx="433.3" cy="284.6" r="1.5"/>
			<circle class="st0" cx="434" cy="287.3" r="1.2"/>
			<circle class="st0" cx="433.8" cy="290.7" r="0.5"/>
			<circle class="st0" cx="415.6" cy="283.1" r="1.2"/>
			<circle class="st0" cx="417.3" cy="282.2" r="0.6"/>
		</g>
		<circle class="st0" cx="472.1" cy="356.9" r="6.3"/>
		<circle class="st5" cx="339.9" cy="130.3" r="10.4"/>
		<path class="st0" d="M508.6,353.4c-5.8,0-10.4,4.7-10.4,10.4"/>
		<circle class="st0" cx="331.6" cy="233.1" r="12.5"/>
		<circle class="st0" cx="457.4" cy="247.5" r="4.2"/>
	</g>
	<g>
		<circle class="st0" cx="276.8" cy="727.2" r="8.5"/>
		<circle class="st0" cx="293.6" cy="696.9" r="3.6"/>
		<circle class="st5" cx="291.3" cy="633.7" r="5.2"/>
		<circle class="st0" cx="228.3" cy="703.9" r="8.5"/>
		<circle class="st5" cx="302.1" cy="724" r="8.5"/>
		<circle class="st0" cx="336" cy="624.2" r="8.5"/>
		<circle class="st5" cx="260" cy="630.1" r="2.1"/>
		<circle class="st0" cx="355" cy="678" r="7.2"/>
		<circle class="st0" cx="254.1" cy="691" r="7.7"/>
		<circle class="st0" cx="266.1" cy="724.4" r="2.6"/>
		<circle class="st0" cx="284.7" cy="721.3" r="1.3"/>
		<circle class="st0" cx="285.6" cy="723.6" r="1"/>
		<circle class="st0" cx="285.8" cy="726.6" r="0.5"/>
		<circle class="st0" cx="268.9" cy="721.9" r="1"/>
		<circle class="st0" cx="270.4" cy="720.9" r="0.5"/>
		<g class="st6">
			<circle class="st0" cx="267.2" cy="598" r="4.7"/>
			<circle class="st0" cx="261.2" cy="596.5" r="1.4"/>
			<circle class="st0" cx="271.6" cy="594.7" r="0.8"/>
			<circle class="st0" cx="272.1" cy="596" r="0.6"/>
			<circle class="st0" cx="272.2" cy="597.7" r="0.3"/>
			<circle class="st0" cx="262.8" cy="595" r="0.6"/>
			<circle class="st0" cx="263.6" cy="594.5" r="0.3"/>
		</g>
		<circle class="st0" cx="326.2" cy="659.3" r="4.1"/>
		<circle class="st0" cx="321" cy="657.9" r="1.3"/>
		<circle class="st0" cx="322.4" cy="656.7" r="0.5"/>
		<circle class="st0" cx="323.1" cy="656.2" r="0.3"/>
		<circle class="st0" cx="322.9" cy="684" r="4.1"/>
		<circle class="st0" cx="268.5" cy="657.7" r="4.1"/>
		<circle class="st5" cx="300.7" cy="613.5" r="3.1"/>
		<circle class="st0" cx="278.4" cy="709" r="2.1"/>
		<g>
			<circle class="st0" cx="285.6" cy="676.9" r="4.7"/>
			<circle class="st0" cx="279.7" cy="675.4" r="1.4"/>
			<circle class="st0" cx="290" cy="673.6" r="0.8"/>
			<circle class="st0" cx="290.6" cy="674.9" r="0.6"/>
			<circle class="st0" cx="290.7" cy="676.6" r="0.3"/>
			<circle class="st0" cx="281.2" cy="673.9" r="0.6"/>
			<circle class="st0" cx="282" cy="673.4" r="0.3"/>
		</g>
		<circle class="st0" cx="313.4" cy="706.9" r="3.1"/>
		<circle class="st5" cx="235.1" cy="603.3" r="5.2"/>
		<path class="st0" d="M331.1,703c-2.8,0.3-4.9,2.9-4.5,5.7"/>
		<circle class="st0" cx="237" cy="654.3" r="6.2"/>
		<circle class="st0" cx="299.7" cy="654" r="2.1"/>
	</g>
	<g>
		<circle class="st0" cx="487.8" cy="494.3" r="4.8"/>
		<circle class="st0" cx="497.3" cy="477.3" r="2"/>
		<circle class="st5" cx="496" cy="441.7" r="2.9"/>
		<circle class="st0" cx="460.5" cy="481.2" r="4.8"/>
		<circle class="st5" cx="502" cy="492.5" r="4.8"/>
		<circle class="st0" cx="521.1" cy="436.4" r="4.8"/>
		<circle class="st5" cx="478.4" cy="439.7" r="1.2"/>
		<circle class="st0" cx="531.8" cy="466.6" r="4.1"/>
		<circle class="st0" cx="475.1" cy="474" r="4.4"/>
		<circle class="st0" cx="481.8" cy="492.7" r="1.5"/>
		<circle class="st0" cx="492.2" cy="491" r="0.8"/>
		<circle class="st0" cx="492.8" cy="492.3" r="0.6"/>
		<circle class="st0" cx="492.9" cy="494" r="0.3"/>
		<circle class="st0" cx="483.4" cy="491.3" r="0.6"/>
		<circle class="st0" cx="484.2" cy="490.8" r="0.3"/>
		<g class="st6">
			<circle class="st0" cx="482.4" cy="421.7" r="2.7"/>
			<circle class="st0" cx="479" cy="420.8" r="0.8"/>
			<circle class="st0" cx="484.9" cy="419.8" r="0.4"/>
			<circle class="st0" cx="485.2" cy="420.5" r="0.3"/>
			<circle class="st0" cx="485.2" cy="421.5" r="0.1"/>
			<circle class="st0" cx="479.9" cy="420" r="0.3"/>
			<circle class="st0" cx="480.4" cy="419.7" r="0.2"/>
		</g>
		<circle class="st0" cx="515.6" cy="456.1" r="2.3"/>
		<circle class="st0" cx="512.7" cy="455.4" r="0.7"/>
		<circle class="st0" cx="513.4" cy="454.7" r="0.3"/>
		<circle class="st0" cx="513.8" cy="454.4" r="0.1"/>
		<circle class="st0" cx="513.7" cy="470" r="2.3"/>
		<circle class="st0" cx="483.1" cy="455.2" r="2.3"/>
		<circle class="st5" cx="501.3" cy="430.4" r="1.7"/>
		<circle class="st0" cx="488.7" cy="484.1" r="1.2"/>
		<g>
			<circle class="st0" cx="492.8" cy="466" r="2.7"/>
			<circle class="st0" cx="489.4" cy="465.2" r="0.8"/>
			<circle class="st0" cx="495.3" cy="464.2" r="0.4"/>
			<circle class="st0" cx="495.5" cy="464.9" r="0.3"/>
			<circle class="st0" cx="495.6" cy="465.9" r="0.1"/>
			<circle class="st0" cx="490.3" cy="464.4" r="0.3"/>
			<circle class="st0" cx="490.8" cy="464.1" r="0.2"/>
		</g>
		<circle class="st0" cx="508.4" cy="482.9" r="1.7"/>
		<circle class="st5" cx="464.3" cy="424.6" r="2.9"/>
		<path class="st0" d="M518.3,480.7c-1.6,0.2-2.7,1.6-2.5,3.2"/>
		<circle class="st0" cx="465.4" cy="453.3" r="3.5"/>
		<circle class="st0" cx="500.7" cy="453.1" r="1.2"/>
	</g>
	<g>
		<circle class="st0" cx="679.1" cy="709.7" r="10.8"/>
		<circle class="st0" cx="704.9" cy="673.9" r="4.6"/>
		<circle class="st5" cx="711.6" cy="593.6" r="6.6"/>
		<circle class="st0" cx="621.3" cy="672.8" r="10.8"/>
		<circle class="st5" cx="711.6" cy="709.4" r="10.8"/>
		<circle class="st0" cx="769.6" cy="588.4" r="10.8"/>
		<circle class="st5" cx="672.5" cy="584.3" r="2.6"/>
		<circle class="st0" cx="785.4" cy="659.3" r="9.2"/>
		<circle class="st0" cx="655.9" cy="660.4" r="9.9"/>
		<circle class="st0" cx="665.9" cy="704.5" r="3.3"/>
		<circle class="st0" cx="689.9" cy="703.4" r="1.7"/>
		<circle class="st0" cx="690.7" cy="706.5" r="1.3"/>
		<circle class="st0" cx="690.5" cy="710.3" r="0.6"/>
		<circle class="st0" cx="669.9" cy="701.7" r="1.3"/>
		<circle class="st0" cx="671.9" cy="700.7" r="0.7"/>
		<g class="st6">
			<circle class="st0" cx="686.5" cy="544.8" r="6.1"/>
			<circle class="st0" cx="679.2" cy="541.9" r="1.8"/>
			<circle class="st0" cx="692.6" cy="541.3" r="1"/>
			<circle class="st0" cx="693.1" cy="543" r="0.7"/>
			<circle class="st0" cx="692.9" cy="545.1" r="0.3"/>
			<circle class="st0" cx="681.4" cy="540.4" r="0.7"/>
			<circle class="st0" cx="682.5" cy="539.8" r="0.4"/>
		</g>
		<circle class="st0" cx="751.8" cy="631.3" r="5.2"/>
		<circle class="st0" cx="745.5" cy="628.7" r="1.6"/>
		<circle class="st0" cx="747.4" cy="627.4" r="0.6"/>
		<circle class="st0" cx="748.4" cy="626.9" r="0.3"/>
		<circle class="st0" cx="743.9" cy="662" r="5.3"/>
		<circle class="st0" cx="679.1" cy="620.5" r="5.3"/>
		<circle class="st5" cx="726.6" cy="569.5" r="3.9"/>
		<circle class="st0" cx="683.9" cy="686.9" r="2.6"/>
		<g>
			<circle class="st0" cx="697.9" cy="647.4" r="6.1"/>
			<circle class="st0" cx="690.5" cy="644.5" r="1.8"/>
			<circle class="st0" cx="703.9" cy="643.9" r="1"/>
			<circle class="st0" cx="704.4" cy="645.6" r="0.7"/>
			<circle class="st0" cx="704.3" cy="647.8" r="0.3"/>
			<circle class="st0" cx="692.8" cy="643" r="0.7"/>
			<circle class="st0" cx="693.9" cy="642.4" r="0.4"/>
		</g>
		<circle class="st0" cx="728.4" cy="689.5" r="3.9"/>
		<circle class="st5" cx="645" cy="546.6" r="6.6"/>
		<path class="st0" d="M751.4,687.3c-3.6,0-6.6,2.9-6.6,6.6"/>
		<circle class="st0" cx="639.8" cy="611.4" r="7.9"/>
		<circle class="st0" cx="719.1" cy="620.5" r="2.6"/>
	</g>
	<g>
		<path d="M297.2,663.8c0.3,2.3,2.1,1.4,3.6,0.7s1.4-0.8,1.6,0c0.1,0.8-0.7,1.8-1.2,2c-0.5,0.2-3,0.9-2.9,2.7s1.9,0.6,1.9,0.6
			s2.5-1.5,3.2-3.4c0.7-1.9,3.2-0.8,3.3,0.8c0.1,1.6,0.2,8.3,6.7,10.3c0,0,4,0.6,3.9,2.3c-0.1,1.6-0.5,1.9-2.5,2.4
			c-2,0.5-0.9,0.7-1.6,1c-0.6,0.3-1.1-0.2-1.5,0.7c-0.4,0.9-1.4,2.8-4.8,0.7s-4.5-4.7-5.8-3.5c-1.2,1.2,2.6,4.1,2.6,4.1
			s4.9,4.5,7.6,2.4c0,0,1.1-1,1.2-0.8c0.1,0.3,0,2.3-0.8,3.3c-0.8,0.9-2.2,2.1-0.8,2.9s2.6-0.9,2.9-2.3c0.3-1.4,2.1-7.8,6.1-8
			c4-0.2,6.5,2.6,7.3,4.4c0.9,1.8,1.4,4,0,4.1c-1.4,0.1-3-0.7-4.2,1.3c-1.2,2-3.3,6.2-6.4,5.8c-3.2-0.4-4.4-0.1-7.5-3.7
			c-3.1-3.5-6.2-4.1-7.9-4.6c-1.7-0.5-4.4-0.9-5.1,0.6c-0.6,1.5-1,3.6,0.8,3.1s3.2,0.3,5-0.9c1.8-1.2,3.3,0.6,3.7,1.7
			c0.3,1.1,3,2.1,3,3.3s-4.4,0.5-5.4,2.3c-1,1.8-2.6,4.3-0.3,4.1c2.3-0.2,4.1-1.5,4.9-2.6c0.9-1,3.2-1.3,4.4-0.8
			c1.2,0.5,3,0.3,2.1,1.4c-0.9,1.1-4.5,3.9-4.5,6.4c0,2.5,0.2,4.3,1.5,4.3s1.3-1.6,0.9-2.6c-0.4-1,0.5-3.1,2.1-2.3s-0.3,1.2-0.3,2.4
			s0.4,2.4,1.3,1.9c1-0.5,2.8-2.6,1-4.6s-1.3-3.7,0.2-4.8c1.4-1.1,4.6-2.8,5.7-4.1s3-4.7,4.5-5.1c1.5-0.5,3.5,2.1,4.2,4.4
			c0.7,2.3,3.1,7.5,5.5,9.4c2.3,1.9,5.7,7.2,6,10.2c0.3,3,0,9.4-1.5,12.4c-1.5,3-2.8,4.3-3.8,4c-1-0.3-1.5-1.4-2.6-1.8
			c-1.2-0.4-3.4-1.1-3.1-3.5c0.3-2.4,2.2-2.7,2.9-1.5c0.7,1.2,2.6,4.4,3.5,2.8c1-1.6-1-2.2-1.3-3.2c-0.3-1,1.8-0.3,1.8-2
			c0-1.6-0.5-2.1-1.3-1.8c-0.8,0.3-1.3,1.6-2.4,1.8c-1.1,0.2-2.4,0.5-3.5,0.3s-3.9,0.7-3,4.2s0.8,3.1,0.3,3.6
			c-0.6,0.4-4.3-0.9-5-2.4s-0.4-3.5-1.1-4.8c-0.8-1.3,2.1-6.8,2.4-7.5c0.4-0.7,3.5-2.6,5.7-2.1s6.8,2.2,7-0.9c0.2-3-2.4-3-4.2-2.3
			c-1.8,0.8-3.4,0.6-3.6-0.4c-0.2-1,2-3.2,1.1-5c-0.9-1.8-1.9-3.2-1.9-5.1c0-1.8,0-3.3-1.2-3.2s-1.6,2.4-0.7,4.9
			c0,0,0.7,1.8-1.3,0.8c-2-0.9-5.6-1.3-5.4,0.4c0.2,1.8,4.5,0.8,6.1,2.6c1.6,1.8,2.4,3.1-0.2,4.7c-2.6,1.5-2.6,3.2-3.2,3.1
			c-0.6,0,1.1-4.1,0.3-5.5c-0.8-1.4-2.9-2.9-3.2-1.2c-0.3,1.7,1.4,3.6,0.9,5.3c-0.5,1.6-2.3,2.7-1.2,5.8c0,0,0.2,0.4-0.2,2.1
			c-0.4,1.6,0.4,4.4,0.8,5.9c0.4,1.5,0.7,1.9,0,1.8c-0.7,0-3.6-5.4-4.2-6.7s-2.8-3.5-6.3-2.9c-3.5,0.6-6.6,3.8-8.8,2.4
			s0.2-2.9,0.1-5.1c-0.1-2.3,0.6-3.4,1.3-4.2s2.4-4.2,0.9-4.6c-1.5-0.4-2.5,3.5-3.3,3.6c-0.8,0.1-2.4-2.4-3-1.2
			c-0.6,1.1,1.8,3.2,1.6,5.7s-1.7,4.2-1.2,6.4s0.5,2.6,0,2.7c-0.5,0.2-1.8-0.6-2.3-2.9s-1.6-4.3-2.8-3.1c-1.2,1.2,0.3,2.4,0.5,4
			s2.9,7,7.8,4.9s4.3-3.9,7.3-4.9c3-1,6.4,0.3,6.6,2c0.2,1.7-1.6,2-3.1,1.9c-1.6,0-4.7,1.6-5.6,4.3c-0.9,2.7-2.3,7.6-5.4,7.5
			c-3.2-0.1-4.9,1.7-3.5,3.1c1.4,1.4,2.2,0.2,2.8-0.3c0.6-0.5,2.3-2.1,3.3-1c0.9,1.1-1.1,2.8-1.9,3.9c-0.8,1.2-2.2,3.6-1.1,8.3
			c1.1,4.7-1,6.5,1.8,6.9s-0.3-5.5,0.6-6.3c0.9-0.9,2.5,0.8,3.9,2.5s2.3,3,3,2.1s0.5-4.5-2.6-5.8c-3.2-1.3-3.1-1.5-3.3-2.4
			c-0.1-0.9,1-5.3,2.3-8.5c1.3-3.2,2.6-6.6,3.3-8.6c0.6-2,4.5-4.3,7.3-2c2.8,2.3,3.4,3,5,3.1c1.6,0.1,5,0.9,4.7,2.1
			c-0.3,1.2-4.4,4.1-6.1,5.1c-1.7,1-3.9,2.1-7.2,0.9s-7,1.6-5.4,3.6s4.4-3.2,5.6-1.6c1.1,1.7-4.2,4.4-2.3,5.7
			c1.9,1.3,3.3-3.2,4.9-3.2c1.6,0,6.7-4.1,6.9-3.5s-0.5,4.1,0.5,6.8c1,2.7-0.5,4.7-3.4,4.4c-2.9-0.3-2,2-0.8,2.2
			c1.2,0.2,5.2-0.2,5.6-3.5s1.1-7.8,1.8-10.8c0.7-3,4-7.5,7.8-5.8c3.9,1.7-0.4,10.3-0.7,12.5c-0.2,2.3-3.8,11.2-1.3,16.8
			c2.5,5.6-1.1,8.1,1.8,8.7c2.9,0.7,7.1,1.6,7.7-3.5c0.7-5.1-3.8-3.2-5-6.8c-1.3-3.6-3.4-10.5,6-17.7c9.4-7.2,21.6-9.8,24-3.3
			c0,0,0.3,3.1-0.3,4.7c-0.6,1.7-1.2,5.5,1,5.4c2.2-0.2,2.8-4.3,1.7-6.2c-1.1-1.9,0.4-2.9,1.7-2.3s13.4,6.8,13.8,3.1
			c0.5-3.8-4.8-3.3-5.1-3.8s1.9-2.1,5.7-1.5c3.8,0.6,3.6-0.1,3.6-1.3c0-1.2-3.1-3.1-6.3-1.7s-10.2,5.3-14.6,0.8
			c-4.4-4.5-3.7-2.8-5.9-3.1c-2.2-0.3-3.1-1.1-3.1-1.6c0-0.5,2.4-1.2,3.2-2.2c0.8-0.9,3.8-3.9,4.8-4.1s2.4,0.6,3.9,0.3
			c1.5-0.2,5.2,0.1,6.2,0.4c1,0.3,4.4,0.7,6-0.1c1.6-0.8,6.3-3.4,5.4-5.4c-0.9-1.9-4.1-1-5.2,0c-1.1,0.9-4,3.3-5.2,0.7
			s1.9-1.5,3.2-3.4s2.3-3.2,1-3.5c-1.3-0.3-3.8,0.9-4.8,3.7s-0.3,3.3-2.6,4.2c-2.3,0.9-5,3-6.1,0.3c-1-2.7,3.6-2.9,2.5-4.5
			c-1.1-1.7-2.4,0.3-3,1.5c-0.6,1.2-3.6,5.9-9,7.7c0,0-2,1.2-2.5,2.8c-0.5,1.6-2.2,1-1.5-0.7c0.7-1.7,1.5-6.1,1.6-7.6
			s1.9-3.1,2.4-4.4c0.5-1.4,1.2-3.3,2.4-4.4c1.2-1.1,7.6-4.4,10.4-4.2s8.3,2.9,9.1,0.9c0.8-2.1-2.3-2.2-4.3-2.2s-3.4-0.2-3.5-0.7
			c-0.1-0.5,3.2-2.1,1.9-3c-1.3-0.8-2.6-0.2-3.1,0.4c-0.5,0.6-2.9,3-3.5,2.7c-0.6-0.3,1.9-5.6,0.4-6.4c-1.5-0.8-2.9,3-2.7,4.7
			c0.2,1.8-1.4,3.6-3.6,4c-2.2,0.4-1.6,2.8-2.8,3c-1.1,0.3-1.8-0.2-1.4-1.7c0.4-1.5,3.6-5.8,0.4-6.6c-3.1-0.8-2.4,4.5-2.6,7.5
			c-0.1,3,1.3,7.3-1.2,8.2c-2.5,0.8-1.9-3.4-3.8-2.7c-1.9,0.8,1,5.3,1.9,5.9c0.8,0.6,1.1,3.6,0.2,5.2s-2,6.5-3.9,5.7
			c-1.8-0.7-0.3-2-0.2-3.3s1-7.1-0.6-6.8c-1.5,0.3-1.9,5.3-1.7,7.2c0.2,1.9,0.6,5.9-6.5,8.1c0,0-2.1,1.7-2.3,2.8s-0.8,1.6-1.3,1.3
			c-0.5-0.3,0.8-6.6,1.6-8.6c0.7-2.1,4.6-5.9,4.6-9.6s3-4.6,2.8-6.8c-0.2-2.2,0.6-5.5-0.1-6.9c-0.7-1.4,2.3-3.6,5.6-2.3
			c3.2,1.3,3.7-1.9,2.6-2.1c-1.1-0.3-4-0.4-4-1.9s3-2.7,7-3.4s12.2-3.2,13.7-4.4s7.8-0.9,8.5-0.3c0.8,0.6,12,5.1,14.1,4.2
			c2.2-0.9,10.3-4.9,7.8-7.1c-2.5-2.2-4.7,2.7-7.4,3.5c-2.7,0.8-5.7,1.9-6.2,0.2c-0.5-1.6,4.6-2.4,5.4-4.3c0.8-1.9,4.1-9.2,7.7-9.1
			s4.1-0.4,3.7-1.8c-0.4-1.4-4.5,0.6-4.8-1.9c-0.3-2.5,5.1-5.9,3.5-7.3s-7,3.6-6.9,7.3s-3.6,12.1-12.8,13.6c0,0-4.9-1.1-6.9-0.5
			c-2,0.6-2-2.2-0.9-3.6c1.1-1.4,6.3-4.1,10.5-1.9c4.2,2.3,4.5-1.2,2.9-1.9c-1.6-0.7-2.8,0.2-2.7-0.7c0.1-0.8,4.3-3.5,4.9-5.5
			c0.6-1.9,1.1-4.8-0.5-4.7c-1.6,0.1-2.9,0.6-2.2,4.7c0.8,4.1-10,3.7-11.8,5.5s-4.2,7.5-5.7,8.7c-1.5,1.2-6.2,3.8-7.1,2.4
			c-0.8-1.4,4.9-5.4,1-7.1c-4-1.6-1.1,2.3-2.3,4.2s-3.7,6.1-7,5.5s-4.5,1.4-5.2,1.4c-0.8,0,5.7-7.5,8-8.6s8.8-6.6,9.6-7.4
			c0.8-0.9,5.2-0.4,7.4-2.1s7.8-4.8,7.9-6.3s2.9-4.7,0.8-4.8c-2.1-0.1-4.7,2.6-5.4,4.2c-0.6,1.6-1.5,3.2-2.9,3.1
			c-1.4-0.1,3.5-7.7,0.8-7.7s-3,4.4-3.1,6.9c-0.1,2.5-0.5,2.2-1.6,2.7c-1.1,0.5-3.5,1.4-3.6-0.5s1.1-3.4,1.4-4.7s2.5-5.2,3.4-6.3
			c1-1.1,3.3-0.1,4.5-1.4s2.7-1.6,3.5-2.1c0.8-0.5,4-3.7,2.7-6c-1.3-2.3-2.9-0.3-3.3,0.8c-0.4,1.1-2,3.3-2.8,3.5
			c-0.8,0.2-2.8,0.5-3.2,1.3c-0.5,0.8-2.7,3.5-3.2,3.1s0.8-4.2,2.7-5.8c1.9-1.6,7.9-6.1,5.2-7.5s-2,2.4-2.9,1.3
			c-0.9-1.1,3.5-9.5-0.2-9.8s-2.8,5.3-2.6,7.9c0.1,2.6-0.3,5.3-3.2,8.5s0.2,6.5-1.9,6.5c-2.1,0-1.5-3.6-0.5-7s1.5-4.6,0.5-4.6
			c-1.1,0-5.8,3.7-3.2,9.7c0,0,0.4,1.5,0,3.6c-0.5,2.1,1.7,1.6,2.3,3c0.6,1.4-1.6,8.9-3,10.1c-1.3,1.2-5.2,4.3-5.6,3.8
			c-0.4-0.5,2.7-10.7,2.4-12.4s-0.7-11.8,0.6-14.3c1.3-2.5,7.8-6.5,7.9-7.9c0.1-1.4-1.4-2.3-2.2-2.1c-0.8,0.1-1.9,3.3-4.2,4.1
			c-2.4,0.8-2.6,4.4-3.2,4.5c-0.6,0.1-2.6-3.2-2.4-5.6c0.2-2.4,2.7-2,3.6-2.7c0.9-0.7,3.9-1.5,5.1-3.1c1.2-1.7,3.3-5.8,1.2-6.4
			c-2.2-0.5-2.3,4.4-4.2,4.1s1-4.6-0.9-5c-1.9-0.4-2.7,2.3-2.6,4.6c0.1,2.3-0.8,3.2-2.5,4.3c-1.7,1-0.9,1.2-1.2,1.2
			c-0.3,0-0.8-4.3,1.2-6.8c2-2.5,1.7-3.2,3-4.5c1.3-1.3,1.3-4.4-0.1-4.2s-0.8,1.4-1.6,1.5s-1.2-5.3-3.7-3.7
			c-2.6,1.6,0.5,2.8,0.9,4.3c0.4,1.5,0.5,5.2-0.6,5.3c-1.1,0-2.4-7-3.9-6.1c-1.6,0.9-0.5,4,0.1,4.9s3,3,2.9,5s-1.5,2.6-1.4,4.3
			s1.7,4.2,1.1,4.7c-0.6,0.4-1.4-1.4-2.3-1.6c-0.9-0.2-2.3-0.2-2.9-0.9c-0.6-0.7-0.3-6.1-0.8-7.8c-0.5-1.7-1.4-5.6-3-4.4
			c-1.6,1.1-0.5,3.7,0.5,5.6c1,1.9,0.1,5.4,1,7.1c0.9,1.7,8.4,4.9,9.5,7.3c1.1,2.4,2.3,10,2.1,11.9c-0.2,1.8-0.1,2.7-0.6,2.5
			c-0.5-0.2-1.3-2.9-2.5-3.6s-5-0.7-5.9-2.1s1-9.4-2.3-8.3c-3.3,1.2-0.4,7.3,0.5,8.7c0.9,1.4,0,1.9-0.9,1.3
			c-0.9-0.6-3.7-2.6-3.8-1.8c-0.1,0.8,2.3,5.1,6.5,6.1c4.3,0.9,6.1,1.9,6,6.5c-0.2,4.6,1.3,7.1-3.2,10.8c-4.5,3.8-7.3,9.9-7.5,11.3
			c-0.2,1.4-1.3,2.5-2.4,1.3s-1.2-4.3-3.6-5.7c-2.4-1.4-3.2-3.3-2.8-4.4c0.4-1.1,1.5-3.3,5.3-2.8s7.9-5,8.4-6c0.5-1.1,2.5-2.5,2.9-3
			c0.4-0.5,0.3-1.7-0.3-1.6s-4.1,0.9-4.6,2c-0.6,1.1-2.2,5.8-5,5.7s-1.6-0.1-0.9-1.9c0.7-1.9,2.2-2.3,1.9-3.7
			c-0.2-1.4-0.9-5.8-0.6-7.5s-0.1-1.9-0.8-1.9c-0.8,0.1-0.9,1.5-1.3,1.3s-2.9-7.2-4.5-4.3c-1.6,2.8,4.5,3.8,3.7,10.2
			c-0.8,6.4-3,6-4.7,8.2s-0.9,3.1-1.4,3.4s-1.6-1.6-2-5.7c-0.5-4.1-1.2-4.1-1.8-6.5c-0.6-2.4,0.3-5.3-0.4-7
			c-0.8-1.7-0.8-3.6-0.8-5.4c0-1.9,1.6-5-0.5-5c-2.1,0-3,4.7-1.6,8.4c0,0,0.1,0.6-0.2,0.7s-1.1,0.7-2.5-2.2s-1.8-8.3-3.6-7.4
			c-1.8,0.9,0.4,6.3,1.4,8c1,1.6,2.3,3,3.6,3.7s2.4,2.4,1.4,2.8c-1,0.4-3.8-1.5-4.4-2.7c-0.6-1.2-4.3-2.9-5.3-3.2
			c-1-0.3-3-1.2-3.4-4.4s0.7-5.2,1.3-6.1c0.5-0.9,3-7.1-0.4-8.2c-3.4-1-0.1,6.1-1.2,6.4s-0.5-0.8-0.8-1.6c-0.3-0.8-5.6-9.3-7.4-5.7
			s3.1,1.7,4.7,5.7c1.6,4,1.7,11.2,1.4,11.3c-0.3,0-2.1-1.5-2.6-3.3s-0.1-7.1-3.8-9.1S296.7,660.6,297.2,663.8z"/>
		<path class="st7" d="M297.2,663.8c0.3,2.3,2.1,1.4,3.6,0.7s1.4-0.8,1.6,0c0.1,0.8-0.7,1.8-1.2,2c-0.5,0.2-3,0.9-2.9,2.7
			s1.9,0.6,1.9,0.6s2.5-1.5,3.2-3.4c0.7-1.9,3.2-0.8,3.3,0.8c0.1,1.6,0.2,8.3,6.7,10.3c0,0,4,0.6,3.9,2.3c-0.1,1.6-0.5,1.9-2.5,2.4
			c-2,0.5-0.9,0.7-1.6,1c-0.6,0.3-1.1-0.2-1.5,0.7c-0.4,0.9-1.4,2.8-4.8,0.7s-4.5-4.7-5.8-3.5c-1.2,1.2,2.6,4.1,2.6,4.1
			s4.9,4.5,7.6,2.4c0,0,1.1-1,1.2-0.8c0.1,0.3,0,2.3-0.8,3.3c-0.8,0.9-2.2,2.1-0.8,2.9s2.6-0.9,2.9-2.3c0.3-1.4,2.1-7.8,6.1-8
			c4-0.2,6.5,2.6,7.3,4.4c0.9,1.8,1.4,4,0,4.1c-1.4,0.1-3-0.7-4.2,1.3c-1.2,2-3.3,6.2-6.4,5.8c-3.2-0.4-4.4-0.1-7.5-3.7
			c-3.1-3.5-6.2-4.1-7.9-4.6c-1.7-0.5-4.4-0.9-5.1,0.6c-0.6,1.5-1,3.6,0.8,3.1s3.2,0.3,5-0.9c1.8-1.2,3.3,0.6,3.7,1.7
			c0.3,1.1,3,2.1,3,3.3s-4.4,0.5-5.4,2.3c-1,1.8-2.6,4.3-0.3,4.1c2.3-0.2,4.1-1.5,4.9-2.6c0.9-1,3.2-1.3,4.4-0.8
			c1.2,0.5,3,0.3,2.1,1.4c-0.9,1.1-4.5,3.9-4.5,6.4c0,2.5,0.2,4.3,1.5,4.3s1.3-1.6,0.9-2.6c-0.4-1,0.5-3.1,2.1-2.3s-0.3,1.2-0.3,2.4
			s0.4,2.4,1.3,1.9c1-0.5,2.8-2.6,1-4.6s-1.3-3.7,0.2-4.8c1.4-1.1,4.6-2.8,5.7-4.1s3-4.7,4.5-5.1c1.5-0.5,3.5,2.1,4.2,4.4
			c0.7,2.3,3.1,7.5,5.5,9.4c2.3,1.9,5.7,7.2,6,10.2c0.3,3,0,9.4-1.5,12.4c-1.5,3-2.8,4.3-3.8,4c-1-0.3-1.5-1.4-2.6-1.8
			c-1.2-0.4-3.4-1.1-3.1-3.5c0.3-2.4,2.2-2.7,2.9-1.5c0.7,1.2,2.6,4.4,3.5,2.8c1-1.6-1-2.2-1.3-3.2c-0.3-1,1.8-0.3,1.8-2
			c0-1.6-0.5-2.1-1.3-1.8c-0.8,0.3-1.3,1.6-2.4,1.8c-1.1,0.2-2.4,0.5-3.5,0.3s-3.9,0.7-3,4.2s0.8,3.1,0.3,3.6
			c-0.6,0.4-4.3-0.9-5-2.4s-0.4-3.5-1.1-4.8c-0.8-1.3,2.1-6.8,2.4-7.5c0.4-0.7,3.5-2.6,5.7-2.1s6.8,2.2,7-0.9c0.2-3-2.4-3-4.2-2.3
			c-1.8,0.8-3.4,0.6-3.6-0.4c-0.2-1,2-3.2,1.1-5c-0.9-1.8-1.9-3.2-1.9-5.1c0-1.8,0-3.3-1.2-3.2s-1.6,2.4-0.7,4.9
			c0,0,0.7,1.8-1.3,0.8c-2-0.9-5.6-1.3-5.4,0.4c0.2,1.8,4.5,0.8,6.1,2.6c1.6,1.8,2.4,3.1-0.2,4.7c-2.6,1.5-2.6,3.2-3.2,3.1
			c-0.6,0,1.1-4.1,0.3-5.5c-0.8-1.4-2.9-2.9-3.2-1.2c-0.3,1.7,1.4,3.6,0.9,5.3c-0.5,1.6-2.3,2.7-1.2,5.8c0,0,0.2,0.4-0.2,2.1
			c-0.4,1.6,0.4,4.4,0.8,5.9c0.4,1.5,0.7,1.9,0,1.8c-0.7,0-3.6-5.4-4.2-6.7s-2.8-3.5-6.3-2.9c-3.5,0.6-6.6,3.8-8.8,2.4
			s0.2-2.9,0.1-5.1c-0.1-2.3,0.6-3.4,1.3-4.2s2.4-4.2,0.9-4.6c-1.5-0.4-2.5,3.5-3.3,3.6c-0.8,0.1-2.4-2.4-3-1.2
			c-0.6,1.1,1.8,3.2,1.6,5.7s-1.7,4.2-1.2,6.4s0.5,2.6,0,2.7c-0.5,0.2-1.8-0.6-2.3-2.9s-1.6-4.3-2.8-3.1c-1.2,1.2,0.3,2.4,0.5,4
			s2.9,7,7.8,4.9s4.3-3.9,7.3-4.9c3-1,6.4,0.3,6.6,2c0.2,1.7-1.6,2-3.1,1.9c-1.6,0-4.7,1.6-5.6,4.3c-0.9,2.7-2.3,7.6-5.4,7.5
			c-3.2-0.1-4.9,1.7-3.5,3.1c1.4,1.4,2.2,0.2,2.8-0.3c0.6-0.5,2.3-2.1,3.3-1c0.9,1.1-1.1,2.8-1.9,3.9c-0.8,1.2-2.2,3.6-1.1,8.3
			c1.1,4.7-1,6.5,1.8,6.9s-0.3-5.5,0.6-6.3c0.9-0.9,2.5,0.8,3.9,2.5s2.3,3,3,2.1s0.5-4.5-2.6-5.8c-3.2-1.3-3.1-1.5-3.3-2.4
			c-0.1-0.9,1-5.3,2.3-8.5c1.3-3.2,2.6-6.6,3.3-8.6c0.6-2,4.5-4.3,7.3-2c2.8,2.3,3.4,3,5,3.1c1.6,0.1,5,0.9,4.7,2.1
			c-0.3,1.2-4.4,4.1-6.1,5.1c-1.7,1-3.9,2.1-7.2,0.9s-7,1.6-5.4,3.6s4.4-3.2,5.6-1.6c1.1,1.7-4.2,4.4-2.3,5.7
			c1.9,1.3,3.3-3.2,4.9-3.2c1.6,0,6.7-4.1,6.9-3.5s-0.5,4.1,0.5,6.8c1,2.7-0.5,4.7-3.4,4.4c-2.9-0.3-2,2-0.8,2.2
			c1.2,0.2,5.2-0.2,5.6-3.5s1.1-7.8,1.8-10.8c0.7-3,4-7.5,7.8-5.8c3.9,1.7-0.4,10.3-0.7,12.5c-0.2,2.3-3.8,11.2-1.3,16.8
			c2.5,5.6-1.1,8.1,1.8,8.7c2.9,0.7,7.1,1.6,7.7-3.5c0.7-5.1-3.8-3.2-5-6.8c-1.3-3.6-3.4-10.5,6-17.7c9.4-7.2,21.6-9.8,24-3.3
			c0,0,0.3,3.1-0.3,4.7c-0.6,1.7-1.2,5.5,1,5.4c2.2-0.2,2.8-4.3,1.7-6.2c-1.1-1.9,0.4-2.9,1.7-2.3s13.4,6.8,13.8,3.1
			c0.5-3.8-4.8-3.3-5.1-3.8s1.9-2.1,5.7-1.5c3.8,0.6,3.6-0.1,3.6-1.3c0-1.2-3.1-3.1-6.3-1.7s-10.2,5.3-14.6,0.8
			c-4.4-4.5-3.7-2.8-5.9-3.1c-2.2-0.3-3.1-1.1-3.1-1.6c0-0.5,2.4-1.2,3.2-2.2c0.8-0.9,3.8-3.9,4.8-4.1s2.4,0.6,3.9,0.3
			c1.5-0.2,5.2,0.1,6.2,0.4c1,0.3,4.4,0.7,6-0.1c1.6-0.8,6.3-3.4,5.4-5.4c-0.9-1.9-4.1-1-5.2,0c-1.1,0.9-4,3.3-5.2,0.7
			s1.9-1.5,3.2-3.4s2.3-3.2,1-3.5c-1.3-0.3-3.8,0.9-4.8,3.7s-0.3,3.3-2.6,4.2c-2.3,0.9-5,3-6.1,0.3c-1-2.7,3.6-2.9,2.5-4.5
			c-1.1-1.7-2.4,0.3-3,1.5c-0.6,1.2-3.6,5.9-9,7.7c0,0-2,1.2-2.5,2.8c-0.5,1.6-2.2,1-1.5-0.7c0.7-1.7,1.5-6.1,1.6-7.6
			s1.9-3.1,2.4-4.4c0.5-1.4,1.2-3.3,2.4-4.4c1.2-1.1,7.6-4.4,10.4-4.2s8.3,2.9,9.1,0.9c0.8-2.1-2.3-2.2-4.3-2.2s-3.4-0.2-3.5-0.7
			c-0.1-0.5,3.2-2.1,1.9-3c-1.3-0.8-2.6-0.2-3.1,0.4c-0.5,0.6-2.9,3-3.5,2.7c-0.6-0.3,1.9-5.6,0.4-6.4c-1.5-0.8-2.9,3-2.7,4.7
			c0.2,1.8-1.4,3.6-3.6,4c-2.2,0.4-1.6,2.8-2.8,3c-1.1,0.3-1.8-0.2-1.4-1.7c0.4-1.5,3.6-5.8,0.4-6.6c-3.1-0.8-2.4,4.5-2.6,7.5
			c-0.1,3,1.3,7.3-1.2,8.2c-2.5,0.8-1.9-3.4-3.8-2.7c-1.9,0.8,1,5.3,1.9,5.9c0.8,0.6,1.1,3.6,0.2,5.2s-2,6.5-3.9,5.7
			c-1.8-0.7-0.3-2-0.2-3.3s1-7.1-0.6-6.8c-1.5,0.3-1.9,5.3-1.7,7.2c0.2,1.9,0.6,5.9-6.5,8.1c0,0-2.1,1.7-2.3,2.8s-0.8,1.6-1.3,1.3
			c-0.5-0.3,0.8-6.6,1.6-8.6c0.7-2.1,4.6-5.9,4.6-9.6s3-4.6,2.8-6.8c-0.2-2.2,0.6-5.5-0.1-6.9c-0.7-1.4,2.3-3.6,5.6-2.3
			c3.2,1.3,3.7-1.9,2.6-2.1c-1.1-0.3-4-0.4-4-1.9s3-2.7,7-3.4s12.2-3.2,13.7-4.4s7.8-0.9,8.5-0.3c0.8,0.6,12,5.1,14.1,4.2
			c2.2-0.9,10.3-4.9,7.8-7.1c-2.5-2.2-4.7,2.7-7.4,3.5c-2.7,0.8-5.7,1.9-6.2,0.2c-0.5-1.6,4.6-2.4,5.4-4.3c0.8-1.9,4.1-9.2,7.7-9.1
			s4.1-0.4,3.7-1.8c-0.4-1.4-4.5,0.6-4.8-1.9c-0.3-2.5,5.1-5.9,3.5-7.3s-7,3.6-6.9,7.3s-3.6,12.1-12.8,13.6c0,0-4.9-1.1-6.9-0.5
			c-2,0.6-2-2.2-0.9-3.6c1.1-1.4,6.3-4.1,10.5-1.9c4.2,2.3,4.5-1.2,2.9-1.9c-1.6-0.7-2.8,0.2-2.7-0.7c0.1-0.8,4.3-3.5,4.9-5.5
			c0.6-1.9,1.1-4.8-0.5-4.7c-1.6,0.1-2.9,0.6-2.2,4.7c0.8,4.1-10,3.7-11.8,5.5s-4.2,7.5-5.7,8.7c-1.5,1.2-6.2,3.8-7.1,2.4
			c-0.8-1.4,4.9-5.4,1-7.1c-4-1.6-1.1,2.3-2.3,4.2s-3.7,6.1-7,5.5s-4.5,1.4-5.2,1.4c-0.8,0,5.7-7.5,8-8.6s8.8-6.6,9.6-7.4
			c0.8-0.9,5.2-0.4,7.4-2.1s7.8-4.8,7.9-6.3s2.9-4.7,0.8-4.8c-2.1-0.1-4.7,2.6-5.4,4.2c-0.6,1.6-1.5,3.2-2.9,3.1
			c-1.4-0.1,3.5-7.7,0.8-7.7s-3,4.4-3.1,6.9c-0.1,2.5-0.5,2.2-1.6,2.7c-1.1,0.5-3.5,1.4-3.6-0.5s1.1-3.4,1.4-4.7s2.5-5.2,3.4-6.3
			c1-1.1,3.3-0.1,4.5-1.4s2.7-1.6,3.5-2.1c0.8-0.5,4-3.7,2.7-6c-1.3-2.3-2.9-0.3-3.3,0.8c-0.4,1.1-2,3.3-2.8,3.5
			c-0.8,0.2-2.8,0.5-3.2,1.3c-0.5,0.8-2.7,3.5-3.2,3.1s0.8-4.2,2.7-5.8c1.9-1.6,7.9-6.1,5.2-7.5s-2,2.4-2.9,1.3
			c-0.9-1.1,3.5-9.5-0.2-9.8s-2.8,5.3-2.6,7.9c0.1,2.6-0.3,5.3-3.2,8.5s0.2,6.5-1.9,6.5c-2.1,0-1.5-3.6-0.5-7s1.5-4.6,0.5-4.6
			c-1.1,0-5.8,3.7-3.2,9.7c0,0,0.4,1.5,0,3.6c-0.5,2.1,1.7,1.6,2.3,3c0.6,1.4-1.6,8.9-3,10.1c-1.3,1.2-5.2,4.3-5.6,3.8
			c-0.4-0.5,2.7-10.7,2.4-12.4s-0.7-11.8,0.6-14.3c1.3-2.5,7.8-6.5,7.9-7.9c0.1-1.4-1.4-2.3-2.2-2.1c-0.8,0.1-1.9,3.3-4.2,4.1
			c-2.4,0.8-2.6,4.4-3.2,4.5c-0.6,0.1-2.6-3.2-2.4-5.6c0.2-2.4,2.7-2,3.6-2.7c0.9-0.7,3.9-1.5,5.1-3.1c1.2-1.7,3.3-5.8,1.2-6.4
			c-2.2-0.5-2.3,4.4-4.2,4.1s1-4.6-0.9-5c-1.9-0.4-2.7,2.3-2.6,4.6c0.1,2.3-0.8,3.2-2.5,4.3c-1.7,1-0.9,1.2-1.2,1.2
			c-0.3,0-0.8-4.3,1.2-6.8c2-2.5,1.7-3.2,3-4.5c1.3-1.3,1.3-4.4-0.1-4.2s-0.8,1.4-1.6,1.5s-1.2-5.3-3.7-3.7
			c-2.6,1.6,0.5,2.8,0.9,4.3c0.4,1.5,0.5,5.2-0.6,5.3c-1.1,0-2.4-7-3.9-6.1c-1.6,0.9-0.5,4,0.1,4.9s3,3,2.9,5s-1.5,2.6-1.4,4.3
			s1.7,4.2,1.1,4.7c-0.6,0.4-1.4-1.4-2.3-1.6c-0.9-0.2-2.3-0.2-2.9-0.9c-0.6-0.7-0.3-6.1-0.8-7.8c-0.5-1.7-1.4-5.6-3-4.4
			c-1.6,1.1-0.5,3.7,0.5,5.6c1,1.9,0.1,5.4,1,7.1c0.9,1.7,8.4,4.9,9.5,7.3c1.1,2.4,2.3,10,2.1,11.9c-0.2,1.8-0.1,2.7-0.6,2.5
			c-0.5-0.2-1.3-2.9-2.5-3.6s-5-0.7-5.9-2.1s1-9.4-2.3-8.3c-3.3,1.2-0.4,7.3,0.5,8.7c0.9,1.4,0,1.9-0.9,1.3
			c-0.9-0.6-3.7-2.6-3.8-1.8c-0.1,0.8,2.3,5.1,6.5,6.1c4.3,0.9,6.1,1.9,6,6.5c-0.2,4.6,1.3,7.1-3.2,10.8c-4.5,3.8-7.3,9.9-7.5,11.3
			c-0.2,1.4-1.3,2.5-2.4,1.3s-1.2-4.3-3.6-5.7c-2.4-1.4-3.2-3.3-2.8-4.4c0.4-1.1,1.5-3.3,5.3-2.8s7.9-5,8.4-6c0.5-1.1,2.5-2.5,2.9-3
			c0.4-0.5,0.3-1.7-0.3-1.6s-4.1,0.9-4.6,2c-0.6,1.1-2.2,5.8-5,5.7s-1.6-0.1-0.9-1.9c0.7-1.9,2.2-2.3,1.9-3.7
			c-0.2-1.4-0.9-5.8-0.6-7.5s-0.1-1.9-0.8-1.9c-0.8,0.1-0.9,1.5-1.3,1.3s-2.9-7.2-4.5-4.3c-1.6,2.8,4.5,3.8,3.7,10.2
			c-0.8,6.4-3,6-4.7,8.2s-0.9,3.1-1.4,3.4s-1.6-1.6-2-5.7c-0.5-4.1-1.2-4.1-1.8-6.5c-0.6-2.4,0.3-5.3-0.4-7
			c-0.8-1.7-0.8-3.6-0.8-5.4c0-1.9,1.6-5-0.5-5c-2.1,0-3,4.7-1.6,8.4c0,0,0.1,0.6-0.2,0.7s-1.1,0.7-2.5-2.2s-1.8-8.3-3.6-7.4
			c-1.8,0.9,0.4,6.3,1.4,8c1,1.6,2.3,3,3.6,3.7s2.4,2.4,1.4,2.8c-1,0.4-3.8-1.5-4.4-2.7c-0.6-1.2-4.3-2.9-5.3-3.2
			c-1-0.3-3-1.2-3.4-4.4s0.7-5.2,1.3-6.1c0.5-0.9,3-7.1-0.4-8.2c-3.4-1-0.1,6.1-1.2,6.4s-0.5-0.8-0.8-1.6c-0.3-0.8-5.6-9.3-7.4-5.7
			s3.1,1.7,4.7,5.7c1.6,4,1.7,11.2,1.4,11.3c-0.3,0-2.1-1.5-2.6-3.3s-0.1-7.1-3.8-9.1S296.7,660.6,297.2,663.8z"/>
	</g>
	<g>
		<path d="M533.8,800.1c2.3-0.1,1.6-2,1-3.6c-0.6-1.6-0.7-1.5,0.2-1.6s1.7,0.8,1.8,1.4c0.2,0.5,0.6,3.1,2.4,3.2
			c1.8,0.1,0.7-1.8,0.7-1.8s-1.3-2.6-3.1-3.5c-1.8-0.9-0.5-3.3,1.1-3.2c1.6,0,8.3,0.5,10.8-5.8c0,0,1-3.9,2.6-3.7s1.9,0.7,2.2,2.7
			c0.3,2.1,0.7,1,0.9,1.7c0.2,0.7-0.3,1,0.6,1.5s2.6,1.7,0.2,4.9c-2.4,3.2-5.1,4.1-4,5.4c1,1.3,4.3-2.2,4.3-2.2s5-4.5,3.1-7.4
			c0,0-0.9-1.2-0.6-1.2c0.3-0.1,2.3,0.2,3.2,1.1c0.9,0.9,1.8,2.4,2.8,1.1c1-1.3-0.7-2.7-2.1-3.1c-1.4-0.4-7.6-2.8-7.5-6.8
			c0.1-4,3.2-6.2,5-6.9c1.9-0.7,4.1-1.1,4.1,0.4c-0.1,1.4-1,3,0.9,4.3s5.9,3.8,5.2,6.9c-0.7,3.1-0.5,4.4-4.3,7.1
			c-3.8,2.7-4.6,5.8-5.3,7.5c-0.7,1.7-1.3,4.3,0.1,5.1c1.4,0.7,3.5,1.3,3.2-0.5s0.6-3.1-0.4-5.1c-1-1.9,0.9-3.3,2-3.5
			c1.1-0.2,2.3-2.8,3.6-2.7c1.2,0.1,0.1,4.4,1.8,5.6c1.7,1.2,4,3,4,0.6c0-2.3-1.1-4.2-2.1-5.2c-1-1-1-3.3-0.4-4.4
			c0.6-1.1,0.5-3,1.6-2s3.4,4.8,6,5.1c2.5,0.2,4.3,0.2,4.4-1.1s-1.5-1.4-2.5-1.1c-1,0.3-3.1-0.7-2.1-2.3c1-1.6,1.2,0.5,2.4,0.5
			c1.2,0,2.4-0.1,2-1.1c-0.4-1-2.3-3-4.5-1.4c-2.2,1.6-3.8,0.9-4.8-0.6c-1-1.5-2.3-4.8-3.6-6c-1.2-1.2-4.4-3.4-4.7-5
			c-0.3-1.5,2.4-3.3,4.8-3.8c2.4-0.5,7.8-2.5,9.9-4.6c2.1-2.2,7.7-5,10.7-5.1c3-0.1,9.4,0.9,12.2,2.6c2.8,1.7,4.1,3.2,3.7,4.1
			c-0.4,1-1.6,1.3-2.1,2.4c-0.5,1.1-1.4,3.3-3.8,2.8c-2.4-0.5-2.5-2.4-1.2-3.1c1.3-0.6,4.6-2.1,3.1-3.3c-1.5-1.1-2.3,0.8-3.3,1
			c-1,0.2-0.1-1.8-1.8-2s-2.1,0.3-2,1.1c0.2,0.8,1.4,1.5,1.6,2.6c0.1,1.1,0.3,2.5,0,3.5c-0.3,1,0.4,3.9,3.9,3.4
			c3.5-0.6,3.2-0.6,3.6,0s-1.3,4.2-2.9,4.8c-1.6,0.6-3.5,0-4.9,0.7c-1.3,0.7-6.6-2.7-7.3-3.1c-0.6-0.4-2.3-3.7-1.6-5.8
			c0.7-2.2,2.8-6.6-0.2-7.1c-3-0.5-3.2,2.1-2.6,4c0.6,1.9,0.3,3.4-0.7,3.5c-1.1,0.1-3-2.3-4.9-1.5c-1.9,0.7-3.4,1.6-5.2,1.4
			c-1.8-0.2-3.3-0.3-3.3,0.9c0,1.2,2.2,1.8,4.8,1.1c0,0,1.8-0.5,0.7,1.3s-1.8,5.4-0.1,5.4c1.8,0,1.2-4.4,3.1-5.8
			c1.9-1.4,3.3-2.1,4.6,0.6c1.3,2.7,2.9,2.9,2.8,3.5c-0.1,0.6-3.9-1.5-5.4-0.8s-3.2,2.6-1.5,3.1s3.7-1.1,5.3-0.4s2.5,2.6,5.7,1.7
			c0,0,0.5-0.2,2,0.4c1.6,0.6,4.4,0,5.9-0.3c1.5-0.3,1.9-0.5,1.8,0.2c-0.1,0.7-5.7,3.1-7.1,3.5s-3.7,2.5-3.4,6s3.2,6.9,1.6,9
			c-1.7,2.1-2.8-0.4-5.1-0.6c-2.3-0.1-3.4-0.9-4.1-1.7c-0.7-0.8-3.9-2.8-4.5-1.3c-0.6,1.5,3.2,2.8,3.2,3.6c0,0.8-2.6,2.2-1.5,2.9
			c1.1,0.7,3.3-1.5,5.8-1.1s4.1,2.1,6.3,1.8c2.2-0.3,2.6-0.2,2.7,0.3s-0.8,1.8-3.1,2c-2.4,0.2-4.5,1.2-3.4,2.5
			c1.1,1.3,2.4,0,4.1-0.1s7.3-2.3,5.6-7.3s-3.5-4.6-4.2-7.7s0.9-6.4,2.6-6.4c1.7,0,1.8,1.8,1.6,3.3c-0.2,1.5,1.1,4.8,3.8,5.9
			c2.6,1.2,7.4,2.9,7,6.1s1.3,5,2.8,3.8c1.5-1.2,0.4-2.2,0-2.8c-0.4-0.7-1.9-2.5-0.7-3.4c1.2-0.8,2.6,1.4,3.8,2.3
			c1.1,0.9,3.4,2.5,8.2,1.9c4.8-0.7,6.4,1.6,7-1.2c0.7-2.8-5.5-0.2-6.3-1.2c-0.8-1,1-2.4,2.9-3.6c1.9-1.2,3.2-2,2.4-2.8
			c-0.8-0.8-4.5-0.9-6,2.1c-1.5,3.1-1.8,3-2.7,3s-5.2-1.5-8.2-3s-6.4-3.2-8.2-4s-3.9-4.9-1.3-7.5c2.6-2.6,3.3-3.1,3.5-4.7
			s1.3-4.9,2.5-4.5c1.2,0.4,3.7,4.7,4.5,6.5s1.7,4.1,0.2,7.2c-1.5,3.2,1,7.1,3.1,5.7c2-1.4-2.8-4.7-1-5.7s4,4.6,5.5,2.8
			c1.5-1.8-2.9-3.6-2.7-5.2c0.2-1.6-3.5-7-2.8-7.2c0.7-0.2,4.1,0.9,6.8,0.1c2.8-0.8,4.6,0.9,4.1,3.8c-0.6,2.9,1.8,2.2,2.1,1
			c0.3-1.2,0.2-5.2-3-5.9s-7.7-1.8-10.6-2.8s-7.2-4.6-5.1-8.3c2-3.7,10.2,1.3,12.4,1.8c2.2,0.4,10.8,4.8,16.6,2.8s7.9,1.8,8.8-1
			c0.9-2.8,2.3-6.9-2.8-8c-5-1.1-3.6,3.5-7.2,4.4s-10.7,2.5-17.1-7.5c-6.3-10-7.9-22.4-1.2-24.2c0,0,3.1-0.1,4.7,0.7
			c1.6,0.8,5.4,1.7,5.4-0.5s-4-3.2-6.1-2.3s-2.9-0.6-2.2-1.9s8-12.7,4.3-13.5s-3.8,4.5-4.2,4.7c-0.5,0.3-2-2.1-1-5.8
			c1-3.8,0.2-3.6-1-3.7c-1.2-0.1-3.4,2.8-2.2,6.1c1.1,3.3,4.4,10.6-0.5,14.6c-4.9,4-3.1,3.4-3.7,5.6c-0.5,2.2-1.4,3-1.9,2.9
			c-0.5-0.1-1-2.5-1.9-3.4c-0.8-0.9-3.5-4.1-3.7-5.1c-0.2-1,0.8-2.3,0.7-3.8c-0.1-1.5,0.6-5.2,1-6.1c0.4-0.9,1.1-4.4,0.4-6
			s-2.8-6.6-4.8-5.9c-2,0.7-1.3,4-0.5,5.1c0.8,1.2,2.9,4.3,0.3,5.2c-2.7,0.9-1.3-2.1-3.1-3.5c-1.8-1.4-3-2.6-3.3-1.3
			c-0.4,1.3,0.6,3.9,3.3,5.1c2.7,1.3,3.3,0.6,3.9,3c0.7,2.4,2.5,5.3-0.2,6.1c-2.8,0.8-2.5-3.9-4.3-2.9c-1.8,0.9,0.1,2.4,1.3,3.1
			c1.2,0.7,5.5,4.1,6.9,9.7c0,0,1,2.1,2.5,2.8c1.5,0.6,0.8,2.2-0.9,1.4c-1.6-0.9-5.9-2.1-7.4-2.3c-1.5-0.3-2.9-2.1-4.2-2.8
			c-1.3-0.6-3.2-1.5-4.1-2.8c-1-1.3-3.7-8-3.3-10.8c0.5-2.8,3.7-8.1,1.7-9s-2.4,2-2.6,4.1s-0.5,3.3-1,3.4s-1.8-3.4-2.8-2.1
			c-0.9,1.2-0.5,2.5,0.1,3.1s2.7,3.2,2.4,3.7s-5.4-2.4-6.3-1c-0.9,1.4,2.7,3.1,4.5,3.1c1.8,0,3.5,1.8,3.7,4s2.6,1.9,2.8,3
			c0.1,1.2-0.4,1.8-1.9,1.2c-1.5-0.5-5.4-4.1-6.6-1c-1.1,3.1,4.2,2.8,7.2,3.2c3,0.4,7.4-0.6,8,2c0.6,2.6-3.6,1.6-3,3.5
			c0.6,1.9,5.4-0.6,6.1-1.3c0.7-0.8,3.7-0.8,5.2,0.2c1.5,1,6.3,2.6,5.4,4.4s-2,0.1-3.3-0.1c-1.3-0.2-7-1.6-6.9,0
			c0.2,1.5,5.1,2.4,7,2.3c1.9-0.1,5.9-0.1,7.4,7.2c0,0,1.5,2.2,2.6,2.6s1.5,1,1.2,1.5c-0.4,0.5-6.5-1.4-8.4-2.3
			c-2-0.9-5.4-5.1-9.2-5.5c-3.7-0.3-4.3-3.4-6.5-3.4s-5.4-1.1-6.9-0.5s-3.3-2.6-1.8-5.7s-1.5-3.9-1.9-2.8c-0.4,1.1-0.7,3.9-2.2,3.8
			s-2.5-3.2-2.8-7.3c-0.3-4.1-2.1-12.5-3.2-14s-0.2-7.8,0.5-8.5s6.1-11.5,5.4-13.7c-0.7-2.2-3.9-10.7-6.3-8.4s2.3,5,2.8,7.7
			s1.4,5.8-0.3,6.2c-1.7,0.4-2-4.8-3.8-5.8s-8.8-4.9-8.4-8.5c0.4-3.5-0.1-4.2-1.5-3.9s0.2,4.5-2.3,4.6c-2.5,0.1-5.4-5.6-7-4.2
			c-1.6,1.5,3,7.3,6.6,7.6c3.6,0.3,11.7,4.6,12.4,13.9c0,0-1.6,4.8-1.2,6.8s-2.4,1.8-3.7,0.5c-1.3-1.2-3.6-6.6-0.9-10.6
			c2.6-4-0.8-4.6-1.6-3.1c-0.8,1.5-0.1,2.8-0.9,2.6c-0.8-0.2-3.1-4.6-5-5.4c-1.9-0.8-4.7-1.6-4.7,0.1s0.4,3,4.5,2.6
			c4.1-0.4,2.8,10.3,4.4,12.3c1.6,2,7.1,4.8,8.2,6.4c1,1.6,3.2,6.6,1.8,7.3c-1.4,0.7-5-5.4-7-1.6s2.2,1.3,4,2.6
			c1.8,1.4,5.7,4.2,4.8,7.5s1,4.6,0.9,5.3c-0.1,0.8-6.9-6.4-7.8-8.8c-0.9-2.4-5.8-9.4-6.5-10.3c-0.8-0.9,0.1-5.2-1.4-7.6
			s-4.1-8.2-5.6-8.5s-4.4-3.3-4.7-1.3c-0.3,2.1,2.2,5,3.6,5.7c1.5,0.8,3.1,1.8,2.8,3.1c-0.3,1.4-7.4-4.1-7.6-1.5
			c-0.2,2.7,4.1,3.4,6.6,3.7c2.5,0.3,2.1,0.7,2.5,1.8c0.4,1.1,1.1,3.7-0.8,3.5c-1.8-0.1-3.3-1.4-4.6-1.8c-1.3-0.4-5-2.9-6-4
			s0.2-3.3-1-4.6c-1.2-1.3-1.4-2.8-1.8-3.6s-3.3-4.3-5.7-3.2s-0.6,2.9,0.5,3.4c1.1,0.5,3.1,2.3,3.2,3.1c0.1,0.8,0.2,2.8,1,3.3
			c0.7,0.5,3.2,3,2.8,3.5c-0.4,0.5-4.2-1.2-5.5-3.2c-1.4-2-5.4-8.4-7-5.9s2.2,2.2,1,3s-9.2-4.4-9.8-0.7c-0.6,3.6,5,3.2,7.6,3.3
			s5.3,0.8,8.2,4c2.9,3.2,6.5,0.4,6.3,2.5c-0.1,2.1-3.7,1.1-7-0.1c-3.4-1.2-4.4-1.9-4.5-0.9c-0.1,1.1,3.2,6.1,9.3,4.1
			c0,0,1.5-0.3,3.6,0.4c2.1,0.6,1.7-1.6,3.2-2.1c1.4-0.5,8.7,2.4,9.8,3.9c1.1,1.4,3.8,5.6,3.3,5.9c-0.5,0.3-10.4-3.6-12.1-3.5
			s-11.8-0.4-14.2-1.9c-2.4-1.5-5.8-8.4-7.2-8.6s-2.4,1.2-2.3,2c0.1,0.8,3.1,2.2,3.7,4.6c0.6,2.4,4.2,3,4.2,3.6
			c0,0.6-3.4,2.3-5.8,1.9c-2.3-0.4-1.7-2.9-2.4-3.9c-0.6-1-1.1-4-2.7-5.4c-1.6-1.3-5.5-3.9-6.3-1.7s4.2,2.7,3.7,4.6
			c-0.4,1.9-4.5-1.4-5,0.4c-0.6,1.8,2.1,2.9,4.4,3c2.3,0.1,3.1,1.1,4,2.8c0.9,1.8,1.1,1,1.1,1.3s-4.4,0.4-6.7-1.8
			c-2.3-2.2-3-2-4.2-3.4s-4.2-1.7-4.2-0.3c0.1,1.4,1.3,0.9,1.3,1.7c0,0.8-5.4,0.7-4,3.4c1.3,2.7,2.9-0.2,4.4-0.5
			c1.6-0.3,5.3,0,5.2,1.1s-7.2,1.7-6.4,3.4c0.8,1.6,3.9,0.8,4.9,0.4c1-0.5,3.2-2.7,5.2-2.4c2,0.3,2.5,1.7,4.1,1.8
			c1.6,0.1,4.4-1.3,4.8-0.6c0.4,0.6-1.5,1.3-1.7,2.1c-0.2,0.8-0.4,2.3-1.2,2.8s-6.1-0.3-7.9,0.1s-5.7,0.9-4.7,2.6
			c1,1.6,3.7,0.8,5.7,0s5.3,0.4,7.2-0.4c1.8-0.8,5.6-7.9,8.1-8.8c2.5-0.9,10.2-1.4,12-1.1c1.8,0.4,2.7,0.3,2.4,0.8
			c-0.3,0.5-3,1-3.8,2.1s-1.2,4.9-2.6,5.7c-1.4,0.8-9.3-1.9-8.4,1.5s7.2,1.1,8.7,0.3c1.5-0.8,1.8,0.2,1.2,1.1
			c-0.7,0.9-2.9,3.5-2.1,3.6s5.3-1.8,6.6-6c1.3-4.2,2.5-5.9,7-5.4s7.1-0.6,10.5,4.2c3.4,4.8,9.2,8.2,10.6,8.4s2.4,1.5,1.1,2.5
			s-4.4,0.8-6,3.1c-1.7,2.2-3.6,2.9-4.6,2.4c-1-0.5-3.2-1.8-2.3-5.6c0.9-3.8-4.2-8.3-5.2-8.9c-1-0.6-2.3-2.7-2.7-3.1
			c-0.4-0.4-1.6-0.5-1.7,0.1s0.5,4.1,1.6,4.8c1.1,0.7,5.6,2.7,5.2,5.5s-0.2,1.6-2,0.7c-1.8-0.9-2.1-2.4-3.5-2.3
			c-1.4,0.1-5.8,0.3-7.5-0.1s-1.9-0.1-1.9,0.7s1.4,1,1.2,1.4c-0.3,0.4-7.4,2.2-4.7,4.1c2.7,1.9,4.2-4.1,10.5-2.8
			c6.3,1.3,5.7,3.5,7.7,5.4c2,2,3,1.2,3.3,1.7c0.3,0.5-1.7,1.4-5.8,1.5s-4.2,0.8-6.6,1.2c-2.4,0.4-5.2-0.8-7-0.2s-3.6,0.5-5.5,0.3
			c-1.9-0.2-4.9-2-5,0.1c-0.2,2.1,4.5,3.4,8.3,2.3c0,0,0.6,0,0.7,0.2c0.1,0.2,0.6,1.1-2.4,2.3c-3,1.1-8.4,1-7.7,2.9
			c0.7,1.9,6.3,0.2,8.1-0.7c1.7-0.9,3.1-2.1,4-3.3c0.9-1.2,2.6-2.2,2.9-1.1c0.3,1-1.9,3.7-3.1,4.1s-3.3,4-3.7,5s-1.4,2.8-4.7,3
			c-3.3,0.1-5.1-1.2-6-1.8c-0.8-0.6-6.8-3.6-8.2-0.3c-1.3,3.3,6.1,0.6,6.2,1.8c0.1,1.2-0.8,0.5-1.6,0.7c-0.8,0.2-9.8,4.7-6.3,6.9
			c3.5,2.1,2-2.9,6.1-4.1c4.2-1.2,11.3-0.7,11.3-0.4c0,0.3-1.7,2-3.5,2.3c-1.8,0.3-7-0.5-9.4,2.9S530.6,800.3,533.8,800.1z"/>
		<path class="st2" d="M533.8,800.1c2.3-0.1,1.6-2,1-3.6c-0.6-1.6-0.7-1.5,0.2-1.6s1.7,0.8,1.8,1.4c0.2,0.5,0.6,3.1,2.4,3.2
			c1.8,0.1,0.7-1.8,0.7-1.8s-1.3-2.6-3.1-3.5c-1.8-0.9-0.5-3.3,1.1-3.2c1.6,0,8.3,0.5,10.8-5.8c0,0,1-3.9,2.6-3.7s1.9,0.7,2.2,2.7
			c0.3,2.1,0.7,1,0.9,1.7c0.2,0.7-0.3,1,0.6,1.5s2.6,1.7,0.2,4.9c-2.4,3.2-5.1,4.1-4,5.4c1,1.3,4.3-2.2,4.3-2.2s5-4.5,3.1-7.4
			c0,0-0.9-1.2-0.6-1.2c0.3-0.1,2.3,0.2,3.2,1.1c0.9,0.9,1.8,2.4,2.8,1.1c1-1.3-0.7-2.7-2.1-3.1c-1.4-0.4-7.6-2.8-7.5-6.8
			c0.1-4,3.2-6.2,5-6.9c1.9-0.7,4.1-1.1,4.1,0.4c-0.1,1.4-1,3,0.9,4.3s5.9,3.8,5.2,6.9c-0.7,3.1-0.5,4.4-4.3,7.1
			c-3.8,2.7-4.6,5.8-5.3,7.5c-0.7,1.7-1.3,4.3,0.1,5.1c1.4,0.7,3.5,1.3,3.2-0.5s0.6-3.1-0.4-5.1c-1-1.9,0.9-3.3,2-3.5
			c1.1-0.2,2.3-2.8,3.6-2.7c1.2,0.1,0.1,4.4,1.8,5.6c1.7,1.2,4,3,4,0.6c0-2.3-1.1-4.2-2.1-5.2c-1-1-1-3.3-0.4-4.4
			c0.6-1.1,0.5-3,1.6-2s3.4,4.8,6,5.1c2.5,0.2,4.3,0.2,4.4-1.1s-1.5-1.4-2.5-1.1c-1,0.3-3.1-0.7-2.1-2.3c1-1.6,1.2,0.5,2.4,0.5
			c1.2,0,2.4-0.1,2-1.1c-0.4-1-2.3-3-4.5-1.4c-2.2,1.6-3.8,0.9-4.8-0.6c-1-1.5-2.3-4.8-3.6-6c-1.2-1.2-4.4-3.4-4.7-5
			c-0.3-1.5,2.4-3.3,4.8-3.8c2.4-0.5,7.8-2.5,9.9-4.6c2.1-2.2,7.7-5,10.7-5.1c3-0.1,9.4,0.9,12.2,2.6c2.8,1.7,4.1,3.2,3.7,4.1
			c-0.4,1-1.6,1.3-2.1,2.4c-0.5,1.1-1.4,3.3-3.8,2.8c-2.4-0.5-2.5-2.4-1.2-3.1c1.3-0.6,4.6-2.1,3.1-3.3c-1.5-1.1-2.3,0.8-3.3,1
			c-1,0.2-0.1-1.8-1.8-2s-2.1,0.3-2,1.1c0.2,0.8,1.4,1.5,1.6,2.6c0.1,1.1,0.3,2.5,0,3.5c-0.3,1,0.4,3.9,3.9,3.4
			c3.5-0.6,3.2-0.6,3.6,0s-1.3,4.2-2.9,4.8c-1.6,0.6-3.5,0-4.9,0.7c-1.3,0.7-6.6-2.7-7.3-3.1c-0.6-0.4-2.3-3.7-1.6-5.8
			c0.7-2.2,2.8-6.6-0.2-7.1c-3-0.5-3.2,2.1-2.6,4c0.6,1.9,0.3,3.4-0.7,3.5c-1.1,0.1-3-2.3-4.9-1.5c-1.9,0.7-3.4,1.6-5.2,1.4
			c-1.8-0.2-3.3-0.3-3.3,0.9c0,1.2,2.2,1.8,4.8,1.1c0,0,1.8-0.5,0.7,1.3s-1.8,5.4-0.1,5.4c1.8,0,1.2-4.4,3.1-5.8
			c1.9-1.4,3.3-2.1,4.6,0.6c1.3,2.7,2.9,2.9,2.8,3.5c-0.1,0.6-3.9-1.5-5.4-0.8s-3.2,2.6-1.5,3.1s3.7-1.1,5.3-0.4s2.5,2.6,5.7,1.7
			c0,0,0.5-0.2,2,0.4c1.6,0.6,4.4,0,5.9-0.3c1.5-0.3,1.9-0.5,1.8,0.2c-0.1,0.7-5.7,3.1-7.1,3.5s-3.7,2.5-3.4,6s3.2,6.9,1.6,9
			c-1.7,2.1-2.8-0.4-5.1-0.6c-2.3-0.1-3.4-0.9-4.1-1.7c-0.7-0.8-3.9-2.8-4.5-1.3c-0.6,1.5,3.2,2.8,3.2,3.6c0,0.8-2.6,2.2-1.5,2.9
			c1.1,0.7,3.3-1.5,5.8-1.1s4.1,2.1,6.3,1.8c2.2-0.3,2.6-0.2,2.7,0.3s-0.8,1.8-3.1,2c-2.4,0.2-4.5,1.2-3.4,2.5
			c1.1,1.3,2.4,0,4.1-0.1s7.3-2.3,5.6-7.3s-3.5-4.6-4.2-7.7s0.9-6.4,2.6-6.4c1.7,0,1.8,1.8,1.6,3.3c-0.2,1.5,1.1,4.8,3.8,5.9
			c2.6,1.2,7.4,2.9,7,6.1s1.3,5,2.8,3.8c1.5-1.2,0.4-2.2,0-2.8c-0.4-0.7-1.9-2.5-0.7-3.4c1.2-0.8,2.6,1.4,3.8,2.3
			c1.1,0.9,3.4,2.5,8.2,1.9c4.8-0.7,6.4,1.6,7-1.2c0.7-2.8-5.5-0.2-6.3-1.2c-0.8-1,1-2.4,2.9-3.6c1.9-1.2,3.2-2,2.4-2.8
			c-0.8-0.8-4.5-0.9-6,2.1c-1.5,3.1-1.8,3-2.7,3s-5.2-1.5-8.2-3s-6.4-3.2-8.2-4s-3.9-4.9-1.3-7.5c2.6-2.6,3.3-3.1,3.5-4.7
			s1.3-4.9,2.5-4.5c1.2,0.4,3.7,4.7,4.5,6.5s1.7,4.1,0.2,7.2c-1.5,3.2,1,7.1,3.1,5.7c2-1.4-2.8-4.7-1-5.7s4,4.6,5.5,2.8
			c1.5-1.8-2.9-3.6-2.7-5.2c0.2-1.6-3.5-7-2.8-7.2c0.7-0.2,4.1,0.9,6.8,0.1c2.8-0.8,4.6,0.9,4.1,3.8c-0.6,2.9,1.8,2.2,2.1,1
			c0.3-1.2,0.2-5.2-3-5.9s-7.7-1.8-10.6-2.8s-7.2-4.6-5.1-8.3c2-3.7,10.2,1.3,12.4,1.8c2.2,0.4,10.8,4.8,16.6,2.8s7.9,1.8,8.8-1
			c0.9-2.8,2.3-6.9-2.8-8c-5-1.1-3.6,3.5-7.2,4.4s-10.7,2.5-17.1-7.5c-6.3-10-7.9-22.4-1.2-24.2c0,0,3.1-0.1,4.7,0.7
			c1.6,0.8,5.4,1.7,5.4-0.5s-4-3.2-6.1-2.3s-2.9-0.6-2.2-1.9s8-12.7,4.3-13.5s-3.8,4.5-4.2,4.7c-0.5,0.3-2-2.1-1-5.8
			c1-3.8,0.2-3.6-1-3.7c-1.2-0.1-3.4,2.8-2.2,6.1c1.1,3.3,4.4,10.6-0.5,14.6c-4.9,4-3.1,3.4-3.7,5.6c-0.5,2.2-1.4,3-1.9,2.9
			c-0.5-0.1-1-2.5-1.9-3.4c-0.8-0.9-3.5-4.1-3.7-5.1c-0.2-1,0.8-2.3,0.7-3.8c-0.1-1.5,0.6-5.2,1-6.1c0.4-0.9,1.1-4.4,0.4-6
			s-2.8-6.6-4.8-5.9c-2,0.7-1.3,4-0.5,5.1c0.8,1.2,2.9,4.3,0.3,5.2c-2.7,0.9-1.3-2.1-3.1-3.5c-1.8-1.4-3-2.6-3.3-1.3
			c-0.4,1.3,0.6,3.9,3.3,5.1c2.7,1.3,3.3,0.6,3.9,3c0.7,2.4,2.5,5.3-0.2,6.1c-2.8,0.8-2.5-3.9-4.3-2.9c-1.8,0.9,0.1,2.4,1.3,3.1
			c1.2,0.7,5.5,4.1,6.9,9.7c0,0,1,2.1,2.5,2.8c1.5,0.6,0.8,2.2-0.9,1.4c-1.6-0.9-5.9-2.1-7.4-2.3c-1.5-0.3-2.9-2.1-4.2-2.8
			c-1.3-0.6-3.2-1.5-4.1-2.8c-1-1.3-3.7-8-3.3-10.8c0.5-2.8,3.7-8.1,1.7-9s-2.4,2-2.6,4.1s-0.5,3.3-1,3.4s-1.8-3.4-2.8-2.1
			c-0.9,1.2-0.5,2.5,0.1,3.1s2.7,3.2,2.4,3.7s-5.4-2.4-6.3-1c-0.9,1.4,2.7,3.1,4.5,3.1c1.8,0,3.5,1.8,3.7,4s2.6,1.9,2.8,3
			c0.1,1.2-0.4,1.8-1.9,1.2c-1.5-0.5-5.4-4.1-6.6-1c-1.1,3.1,4.2,2.8,7.2,3.2c3,0.4,7.4-0.6,8,2c0.6,2.6-3.6,1.6-3,3.5
			c0.6,1.9,5.4-0.6,6.1-1.3c0.7-0.8,3.7-0.8,5.2,0.2c1.5,1,6.3,2.6,5.4,4.4s-2,0.1-3.3-0.1c-1.3-0.2-7-1.6-6.9,0
			c0.2,1.5,5.1,2.4,7,2.3c1.9-0.1,5.9-0.1,7.4,7.2c0,0,1.5,2.2,2.6,2.6s1.5,1,1.2,1.5c-0.4,0.5-6.5-1.4-8.4-2.3
			c-2-0.9-5.4-5.1-9.2-5.5c-3.7-0.3-4.3-3.4-6.5-3.4s-5.4-1.1-6.9-0.5s-3.3-2.6-1.8-5.7s-1.5-3.9-1.9-2.8c-0.4,1.1-0.7,3.9-2.2,3.8
			s-2.5-3.2-2.8-7.3c-0.3-4.1-2.1-12.5-3.2-14s-0.2-7.8,0.5-8.5s6.1-11.5,5.4-13.7c-0.7-2.2-3.9-10.7-6.3-8.4s2.3,5,2.8,7.7
			s1.4,5.8-0.3,6.2c-1.7,0.4-2-4.8-3.8-5.8s-8.8-4.9-8.4-8.5c0.4-3.5-0.1-4.2-1.5-3.9s0.2,4.5-2.3,4.6c-2.5,0.1-5.4-5.6-7-4.2
			c-1.6,1.5,3,7.3,6.6,7.6c3.6,0.3,11.7,4.6,12.4,13.9c0,0-1.6,4.8-1.2,6.8s-2.4,1.8-3.7,0.5c-1.3-1.2-3.6-6.6-0.9-10.6
			c2.6-4-0.8-4.6-1.6-3.1c-0.8,1.5-0.1,2.8-0.9,2.6c-0.8-0.2-3.1-4.6-5-5.4c-1.9-0.8-4.7-1.6-4.7,0.1s0.4,3,4.5,2.6
			c4.1-0.4,2.8,10.3,4.4,12.3c1.6,2,7.1,4.8,8.2,6.4c1,1.6,3.2,6.6,1.8,7.3c-1.4,0.7-5-5.4-7-1.6s2.2,1.3,4,2.6
			c1.8,1.4,5.7,4.2,4.8,7.5s1,4.6,0.9,5.3c-0.1,0.8-6.9-6.4-7.8-8.8c-0.9-2.4-5.8-9.4-6.5-10.3c-0.8-0.9,0.1-5.2-1.4-7.6
			s-4.1-8.2-5.6-8.5s-4.4-3.3-4.7-1.3c-0.3,2.1,2.2,5,3.6,5.7c1.5,0.8,3.1,1.8,2.8,3.1c-0.3,1.4-7.4-4.1-7.6-1.5
			c-0.2,2.7,4.1,3.4,6.6,3.7c2.5,0.3,2.1,0.7,2.5,1.8c0.4,1.1,1.1,3.7-0.8,3.5c-1.8-0.1-3.3-1.4-4.6-1.8c-1.3-0.4-5-2.9-6-4
			s0.2-3.3-1-4.6c-1.2-1.3-1.4-2.8-1.8-3.6s-3.3-4.3-5.7-3.2s-0.6,2.9,0.5,3.4c1.1,0.5,3.1,2.3,3.2,3.1c0.1,0.8,0.2,2.8,1,3.3
			c0.7,0.5,3.2,3,2.8,3.5c-0.4,0.5-4.2-1.2-5.5-3.2c-1.4-2-5.4-8.4-7-5.9s2.2,2.2,1,3s-9.2-4.4-9.8-0.7c-0.6,3.6,5,3.2,7.6,3.3
			s5.3,0.8,8.2,4c2.9,3.2,6.5,0.4,6.3,2.5c-0.1,2.1-3.7,1.1-7-0.1c-3.4-1.2-4.4-1.9-4.5-0.9c-0.1,1.1,3.2,6.1,9.3,4.1
			c0,0,1.5-0.3,3.6,0.4c2.1,0.6,1.7-1.6,3.2-2.1c1.4-0.5,8.7,2.4,9.8,3.9c1.1,1.4,3.8,5.6,3.3,5.9c-0.5,0.3-10.4-3.6-12.1-3.5
			s-11.8-0.4-14.2-1.9c-2.4-1.5-5.8-8.4-7.2-8.6s-2.4,1.2-2.3,2c0.1,0.8,3.1,2.2,3.7,4.6c0.6,2.4,4.2,3,4.2,3.6
			c0,0.6-3.4,2.3-5.8,1.9c-2.3-0.4-1.7-2.9-2.4-3.9c-0.6-1-1.1-4-2.7-5.4c-1.6-1.3-5.5-3.9-6.3-1.7s4.2,2.7,3.7,4.6
			c-0.4,1.9-4.5-1.4-5,0.4c-0.6,1.8,2.1,2.9,4.4,3c2.3,0.1,3.1,1.1,4,2.8c0.9,1.8,1.1,1,1.1,1.3s-4.4,0.4-6.7-1.8
			c-2.3-2.2-3-2-4.2-3.4s-4.2-1.7-4.2-0.3c0.1,1.4,1.3,0.9,1.3,1.7c0,0.8-5.4,0.7-4,3.4c1.3,2.7,2.9-0.2,4.4-0.5
			c1.6-0.3,5.3,0,5.2,1.1s-7.2,1.7-6.4,3.4c0.8,1.6,3.9,0.8,4.9,0.4c1-0.5,3.2-2.7,5.2-2.4c2,0.3,2.5,1.7,4.1,1.8
			c1.6,0.1,4.4-1.3,4.8-0.6c0.4,0.6-1.5,1.3-1.7,2.1c-0.2,0.8-0.4,2.3-1.2,2.8s-6.1-0.3-7.9,0.1s-5.7,0.9-4.7,2.6
			c1,1.6,3.7,0.8,5.7,0s5.3,0.4,7.2-0.4c1.8-0.8,5.6-7.9,8.1-8.8c2.5-0.9,10.2-1.4,12-1.1c1.8,0.4,2.7,0.3,2.4,0.8
			c-0.3,0.5-3,1-3.8,2.1s-1.2,4.9-2.6,5.7c-1.4,0.8-9.3-1.9-8.4,1.5s7.2,1.1,8.7,0.3c1.5-0.8,1.8,0.2,1.2,1.1
			c-0.7,0.9-2.9,3.5-2.1,3.6s5.3-1.8,6.6-6c1.3-4.2,2.5-5.9,7-5.4s7.1-0.6,10.5,4.2c3.4,4.8,9.2,8.2,10.6,8.4s2.4,1.5,1.1,2.5
			s-4.4,0.8-6,3.1c-1.7,2.2-3.6,2.9-4.6,2.4c-1-0.5-3.2-1.8-2.3-5.6c0.9-3.8-4.2-8.3-5.2-8.9c-1-0.6-2.3-2.7-2.7-3.1
			c-0.4-0.4-1.6-0.5-1.7,0.1s0.5,4.1,1.6,4.8c1.1,0.7,5.6,2.7,5.2,5.5s-0.2,1.6-2,0.7c-1.8-0.9-2.1-2.4-3.5-2.3
			c-1.4,0.1-5.8,0.3-7.5-0.1s-1.9-0.1-1.9,0.7s1.4,1,1.2,1.4c-0.3,0.4-7.4,2.2-4.7,4.1c2.7,1.9,4.2-4.1,10.5-2.8
			c6.3,1.3,5.7,3.5,7.7,5.4c2,2,3,1.2,3.3,1.7c0.3,0.5-1.7,1.4-5.8,1.5s-4.2,0.8-6.6,1.2c-2.4,0.4-5.2-0.8-7-0.2s-3.6,0.5-5.5,0.3
			c-1.9-0.2-4.9-2-5,0.1c-0.2,2.1,4.5,3.4,8.3,2.3c0,0,0.6,0,0.7,0.2c0.1,0.2,0.6,1.1-2.4,2.3c-3,1.1-8.4,1-7.7,2.9
			c0.7,1.9,6.3,0.2,8.1-0.7c1.7-0.9,3.1-2.1,4-3.3c0.9-1.2,2.6-2.2,2.9-1.1c0.3,1-1.9,3.7-3.1,4.1s-3.3,4-3.7,5s-1.4,2.8-4.7,3
			c-3.3,0.1-5.1-1.2-6-1.8c-0.8-0.6-6.8-3.6-8.2-0.3c-1.3,3.3,6.1,0.6,6.2,1.8c0.1,1.2-0.8,0.5-1.6,0.7c-0.8,0.2-9.8,4.7-6.3,6.9
			c3.5,2.1,2-2.9,6.1-4.1c4.2-1.2,11.3-0.7,11.3-0.4c0,0.3-1.7,2-3.5,2.3c-1.8,0.3-7-0.5-9.4,2.9S530.6,800.3,533.8,800.1z"/>
	</g>
	<g>
		<path d="M357.3,724.7l5.4,1l6.1-1.9l6.4-1.4l9.5,8.4l8.5,1.5l3.7,4.1l2.3,9.3l1.6-8.6l-2.1-6.8l9.3-11.9l14.9,28.5l-2.1,20.9
			c0,0-4.1,9.2-3.9,11.9c0.2,2.7-0.5,7.1-0.5,7.1l-17.2,3.6l-41.9,3.9l-19.6-3.9l-2.8-20.1l3-9.5l12.3-23.8l0.8-7.4L357.3,724.7z"/>
		<g>
			<path d="M333.1,771.4c0,0-0.1-4.6-2.6-8.8c-2.5-4.2-3.4-7-2.9-11.8c0.5-4.8,6.3-6.4,10.3-9.6s2.1-5.8,4.7-6.1
				c0,0,3.6,0.1,3.2,4.2c-0.5,4.1-5.9,6.7-5.9,6.7s-4.6,2.1-6.1,4.6c-1.5,2.5-2.3,8.4,0,13.5"/>
			<path d="M338.9,785.1c-7.4-12.6,5.9-32.9,10.4-38.7c4.5-5.7,6.1-16.2,3.7-18.8c-2.4-2.6-3.9,0.2-4.3,5.3c-0.3,5-2.3,12-2.3,12
				s-1.1,2-3.4,4.2c-2.3,2.2-9.2,9.7-9.8,18.2c-0.6,8.6,2.7,18.8,2.7,18.8"/>
			<path d="M349.3,746.4c0,0,7.8-2.9,7.5-14.4c0,0-0.5-3.8-2.7-6.4c-2.2-2.6-3.7-12.5,1.7-12.9c5.4-0.3,2.3,8.9,4.3,11.3"/>
			<path d="M341.6,783.7c0,0-2.2-6.9,0-14.5s6.1-15.1,10.8-19.5c4.7-4.4,8.4-10.3,7-17.6c-1.4-7.3,1.8-8.5,1.8-8.5s4.3-3.3,7.2,6
				c0,0,0.8,3.5,0.3,5.2"/>
			<path d="M349.5,790.6c0,0-7.5-4.5-4.7-18.4s15-18,18.7-24.3"/>
			<path d="M366.3,725.2c0,0,0.8-5.2,6.1-1.5"/>
			<path d="M353.9,790.1c0,0-12.9-15.6,0-32.9"/>
			<path d="M357.8,789.6c0,0-2.9-11.8-2.1-22.4c0.8-10.6,4.8-10.8,5.3-16.2"/>
			<path d="M361,790.8c0,0-5.7-19.6,4.8-33.6"/>
			<path d="M362.5,790.3c0,0-1.7-1.6-1-6.2s5.1-9.4,5.8-15.6s-3.9-14.2-3.7-22.1c0.2-7.9,7.2-15.7,10.6-13.9c3.4,1.8,1.2,8-0.7,10.7
				c-1.9,2.8-4.2,6.4-2.4,20.6c1.8,14.2-6,15.8-5.8,21.4c0,0,0,3.4,0.8,5.1"/>
			<path d="M374.8,732.9c0,0,0.4-2.6-1-4.7c-1.4-2.1-2.5-9.9-1.4-12.2c1.1-2.3,2.7-3.5,5-3.7s3.5,0.4,3.8,2.3
				c0.2,1.9-2.6,7.2-2.3,10.2c0.3,3,2.8,9.9,1.8,14.9c-0.9,5-9.6,15.6-10.1,20"/>
			<path d="M370.6,788.5c0,0-1.1-2.9,0.9-6.5c2-3.6,3.9-6.7,4.5-10.8c0.6-4,0.9-14.2-3.1-16.9"/>
			<path d="M374.5,787.7c0,0-0.6-3.4,0.7-6.9c1.3-3.5,7.5-12.2,6.5-20.4c-1.1-8.3-6.2-10.2-6.2-10.2"/>
			<path d="M380.3,731.7c0,0,2.4-6.2,5.7-2.8c0,0,2,2.1,1.2,4.8"/>
			<path d="M378.4,745.1c0,0,1.7,5.8,3.3,9.3s3.8,9.6-1.7,24.4"/>
			<path d="M376.6,787.1c0,0-0.6-3.3,3.3-7.9c3.9-4.6,7.8-15.2,4.4-24.8s-1-15.6,2.3-20.3c3.3-4.6,2.9-9.1,2.8-10.6
				c-0.1-1.5,3-6.9,5.7-2.8c2.7,4,2.3,8.9-0.9,16c-3.1,7.1-7.2,10.1-4.7,21.9s-6.6,20.1-8.1,26.9"/>
			<path d="M394.5,736c0,0,3.1-0.5,3.4,2.1"/>
			<path d="M398.7,755.2c0,0-4.1,3.1-4.2,7.5c0,4.5,4.3,10.6,4.6,14.3s-0.4,7.4-1.8,9.2"/>
			<path d="M396.9,771.2c0,0-9.7,7.5-9.7,17"/>
			<path d="M398.6,774.9c0,0-5,4.5-4.9,11.9"/>
			<path d="M408.9,785.5c0,0,3.7-10.4,3.8-16.2c0.2-5.8-9.6-13.9-9.7-20.6c0-6.7,3.1-14.2,0-15.1s-8.1,8.9-7.6,12.5
				c0,0-0.4,5.9,8.7,16.2s2.5,19.6-0.5,23.2"/>
			<path d="M403.3,761.5c0,0-2,2.8-1.6,6.6c0.4,3.8,2,8,1.8,10.7c-0.1,2.7-0.9,6.2-1.4,7.1"/>
			<path d="M407,766.6c0,0-3.4,3.3,0.2,11.9"/>
			<path d="M403.6,742.5c0,0,6.5,2.6,7.2,14.4"/>
			<path d="M399.5,735.8c0,0-3-6-1-8.9c2-2.8,3.3-2.1,3.3-2.1"/>
			<path d="M409.7,762c0,0,0.4-3.7,1.4-6.1c1.1-2.3,1.6-7.7,0.9-10.5s-1.1-4.2-2.3-6.9s-8.3-9.6-7.6-14.4c0.7-4.8,6.1-11.7,9.4-8.9
				c3.4,2.8,2.1,6.7,1.2,9.6"/>
			<path d="M420.8,751.9c0,0-5.8,9.2-4.1,18"/>
			<path d="M411.4,777c0,0,2.8,1.8-0.8,9.8"/>
			<path d="M419.3,784.6c0,0-2.8-6.1,1.8-12.9c4.5-6.7,5.8-14.8,5.8-14.8c0.5-12.5-2-18.3-6.3-25.4c-4.3-7-10-8.1-12.1-5.2
				c-2,2.9,2.2,7.6,2.2,7.6s12.4,13.5,10.6,23.8c-1.8,10.3-5.1,11.4-5.8,14.3c-0.7,2.9,0.4,9.7,0.4,9.7"/>
			<path d="M421.9,770.4c0,0,1.7,4.1,1.8,7.2"/>
			<path d="M426.4,745.7c0,0,6.7-10.5,9-4.2c2.3,6.3-6.1,12.1-8.4,12.7"/>
		</g>
		<g>
			<path class="st0" d="M403.6,742.5c0,0,6.5,2.6,7.2,14.4"/>
			<path class="st0" d="M333.1,771.4c0,0-0.1-4.6-2.6-8.8c-2.5-4.2-3.4-7-2.9-11.8c0.5-4.8,6.3-6.4,10.3-9.6s2.1-5.8,4.7-6.1
				c0,0,3.6,0.1,3.2,4.2c-0.5,4.1-5.9,6.7-5.9,6.7s-4.6,2.1-6.1,4.6c-1.5,2.5-2.3,8.4,0,13.5"/>
			<path class="st0" d="M338.9,785.1c-7.4-12.6,5.9-32.9,10.4-38.7c4.5-5.7,6.1-16.2,3.7-18.8c-2.4-2.6-3.9,0.2-4.3,5.3
				c-0.3,5-2.3,12-2.3,12s-1.1,2-3.4,4.2c-2.3,2.2-9.2,9.7-9.8,18.2c-0.6,8.6,2.7,18.8,2.7,18.8"/>
			<path class="st0" d="M349.3,746.4c0,0,7.8-2.9,7.5-14.4c0,0-0.5-3.8-2.7-6.4c-2.2-2.6-3.7-12.5,1.7-12.9
				c5.4-0.3,2.3,8.9,4.3,11.3"/>
			<path class="st0" d="M341.6,783.7c0,0-2.2-6.9,0-14.5s6.1-15.1,10.8-19.5c4.7-4.4,8.4-10.3,7-17.6c-1.4-7.3,1.8-8.5,1.8-8.5
				s4.3-3.3,7.2,6c0,0,0.8,3.5,0.3,5.2"/>
			<path class="st0" d="M349.5,790.6c0,0-7.5-4.5-4.7-18.4s15-18,18.7-24.3"/>
			<path class="st0" d="M366.3,725.2c0,0,0.8-5.2,6.1-1.5"/>
			<path class="st0" d="M353.9,790.1c0,0-12.9-15.6,0-32.9"/>
			<path class="st0" d="M357.8,789.6c0,0-2.9-11.8-2.1-22.4c0.8-10.6,4.8-10.8,5.3-16.2"/>
			<path class="st0" d="M361,790.8c0,0-5.7-19.6,4.8-33.6"/>
			<path class="st0" d="M362.5,790.3c0,0-1.7-1.6-1-6.2s5.1-9.4,5.8-15.6s-3.9-14.2-3.7-22.1c0.2-7.9,7.2-15.7,10.6-13.9
				c3.4,1.8,1.2,8-0.7,10.7c-1.9,2.8-4.2,6.4-2.4,20.6c1.8,14.2-6,15.8-5.8,21.4c0,0,0,3.4,0.8,5.1"/>
			<path class="st0" d="M374.8,732.9c0,0,0.4-2.6-1-4.7c-1.4-2.1-2.5-9.9-1.4-12.2c1.1-2.3,2.7-3.5,5-3.7s3.5,0.4,3.8,2.3
				c0.2,1.9-2.6,7.2-2.3,10.2c0.3,3,2.8,9.9,1.8,14.9c-0.9,5-9.6,15.6-10.1,20"/>
			<path class="st0" d="M370.6,788.5c0,0-1.1-2.9,0.9-6.5c2-3.6,3.9-6.7,4.5-10.8c0.6-4,0.9-14.2-3.1-16.9"/>
			<path class="st0" d="M374.5,787.7c0,0-0.6-3.4,0.7-6.9c1.3-3.5,7.5-12.2,6.5-20.4c-1.1-8.3-6.2-10.2-6.2-10.2"/>
			<path class="st0" d="M380.3,731.7c0,0,2.4-6.2,5.7-2.8c0,0,2,2.1,1.2,4.8"/>
			<path class="st0" d="M378.4,745.1c0,0,1.7,5.8,3.3,9.3s3.8,9.6-1.7,24.4"/>
			<path class="st0" d="M376.6,787.1c0,0-0.6-3.3,3.3-7.9c3.9-4.6,7.8-15.2,4.4-24.8s-1-15.6,2.3-20.3c3.3-4.6,2.9-9.1,2.8-10.6
				c-0.1-1.5,3-6.9,5.7-2.8c2.7,4,2.3,8.9-0.9,16c-3.1,7.1-7.2,10.1-4.7,21.9s-6.6,20.1-8.1,26.9"/>
			<path class="st0" d="M394.5,736c0,0,3.1-0.5,3.4,2.1"/>
			<path class="st0" d="M398.7,755.2c0,0-4.1,3.1-4.2,7.5c0,4.5,4.3,10.6,4.6,14.3s-0.4,7.4-1.8,9.2"/>
			<path class="st0" d="M396.9,771.2c0,0-9.7,7.5-9.7,17"/>
			<path class="st0" d="M398.6,774.9c0,0-5,4.5-4.9,11.9"/>
			<path class="st0" d="M408.9,785.5c0,0,3.7-10.4,3.8-16.2c0.2-5.8-9.6-13.9-9.7-20.6c0-6.7,3.1-14.2,0-15.1s-8.1,8.9-7.6,12.5
				c0,0-0.4,5.9,8.7,16.2s2.5,19.6-0.5,23.2"/>
			<path class="st0" d="M403.3,761.5c0,0-2,2.8-1.6,6.6c0.4,3.8,2,8,1.8,10.7c-0.1,2.7-0.9,6.2-1.4,7.1"/>
			<path class="st0" d="M407,766.6c0,0-3.4,3.3,0.2,11.9"/>
			<path class="st0" d="M399.5,735.8c0,0-3-6-1-8.9c2-2.8,3.3-2.1,3.3-2.1"/>
			<path class="st0" d="M409.7,762c0,0,0.4-3.7,1.4-6.1c1.1-2.3,1.6-7.7,0.9-10.5s-1.1-4.2-2.3-6.9s-8.3-9.6-7.6-14.4
				c0.7-4.8,6.1-11.7,9.4-8.9c3.4,2.8,2.1,6.7,1.2,9.6"/>
			<path class="st0" d="M420.8,751.9c0,0-5.8,9.2-4.1,18"/>
			<path class="st0" d="M411.4,777c0,0,2.8,1.8-0.8,9.8"/>
			<path class="st0" d="M419.3,784.6c0,0-2.8-6.1,1.8-12.9c4.5-6.7,5.8-14.8,5.8-14.8c0.5-12.5-2-18.3-6.3-25.4
				c-4.3-7-10-8.1-12.1-5.2c-2,2.9,2.2,7.6,2.2,7.6s12.4,13.5,10.6,23.8c-1.8,10.3-5.1,11.4-5.8,14.3c-0.7,2.9,0.4,9.7,0.4,9.7"/>
			<path class="st0" d="M421.9,770.4c0,0,1.7,4.1,1.8,7.2"/>
			<path class="st0" d="M426.4,745.7c0,0,6.7-10.5,9-4.2c2.3,6.3-6.1,12.1-8.4,12.7"/>
		</g>
	</g>
	<g>
		<path d="M403.3,720.3c0,0,9.4-25,25.1-20c15.7,5,14.4,29.2,14.4,29.2s-2.5,12.1-1,16.9s8.5,16.9,32.2,17.8l10.5,0.9
			c0,0,1.1,0.8,1-1.8c0-2.5-3.1-7.2-15.1-19.1c-12-11.9-11.9-27-9.1-34c2.8-7,10.6-18.8,0.4-29.3c-10.3-10.5-19.2-17.2-15.5-33.2
			c0,0,0.6,21.1,26.2,28.6c0,0,16.2,6.8,9.9,32.2c0,0-19.2,24.1,6.6,44.5c0,0,7.1,5.1,11.7,22.7c0,0,11.3,17.7,7.8,1.5
			c0,0-17-17.9-10.9-46c0,0-1.4-2.4,12.7-28.2c14.1-25.7-7.7-42.6-8.9-61.5c-1.1-18.9,5.7-25.3,19.9-30.3c0,0,13.6-4.6,14.8-8.8
			c0,0,1-1.8-0.9-1.9c-1.9-0.1-5.6-0.3-5.3-1.2c0.3-0.9,4.7-5.8,7.3-5s5.5,6,5.3,15.5s-4.6,12.7-15.2,20.4
			c-10.6,7.7-7.8,17.1-8.1,24s6.7,10.7,7.1,19.8s0.1,21.8-10.2,43.4c-10.3,21.6-8.1,31-0.7,40.5c0,0,2.1,2.7,3.4,4.3s2.2,0.4,2.4,0
			c0.2-0.4,9-5.5,10.4-14.5c1.3-9,2.5-13.5-0.3-26.3c-2.8-12.8,1.4-22.5,12.8-30.6c11.3-8.1,16-31.6,14.5-41.2
			c-1.5-9.6-5.1-18.7-3.4-18.2s14.1,2.9,15.5,28.2c0,0,3,15.5-14.1,25.6c0,0-18.2,25.4-11.1,61.2c0,0,1.8,26.6-19.3,36.7
			c0,0-2.4,11.9-5,15l-4.7,5.9l-13.4-3.2c0,0,2.4-8.4-13.8-17.9c-16.2-9.5-29.2-12-35.5-12c-6.3,0-21.4-4.7-27.8-14
			c-6.4-9.3-2.1-18-1.7-20.4s3.3-16.5-1.3-22.5c0,0-1.4-2.9-6.4-0.8C411.4,716,402.4,722.5,403.3,720.3z"/>
		<g>
			<path class="st0" d="M506.4,785.4c-6-12.3-8.3-11.4-16-17.6s-25.1,0.1-39.1-9.5c-14-9.6-7.1-13.7-16.1-35.6
				c-8.9-21.8-32.6-0.6-32.6-0.6s10.3-29.3,28.5-20.7c18.2,8.6,9.7,42.8,9.7,42.8"/>
			<path class="st0" d="M420.9,712.9c0,0,8.2,3.5,2.4,28.1c-5.8,24.6,25.1,30.4,34.7,31c9.5,0.6,39.6,11.1,45.1,25.9"/>
			<path class="st0" d="M429.1,714.7c0,0,3.8,1.6,2.4,19.4c-1.4,17.8,3.3,27.4,26.7,32.8c23.4,5.4,39.7,12.2,43.8,23.8"/>
			<path class="st0" d="M485.3,765.4c1.2-3.8-2.7-8.1-2.7-8.1c-14.5-15.6-20.9-19.7-23-35.2c-2.1-15.5,17.6-28-1-44.1
				c-18.6-16.1-12.3-30-12.3-30s1.6,20,21.9,26.7s16.6,31.7,12.5,38.2c-4.1,6.5-12.5,20.3,7.4,39.2c0,0,12.5,14.4,11.7,22.8"/>
			<path class="st0" d="M460.7,680.1c0,0,14.9,4.8,15,24.2c0,19.4-7.2,11.8-3.3,30.3c3.9,18.5,21.1,23.7,21.2,35.7"/>
			<path class="st0" d="M503,766.6c-5.5-14-3.8-23.7,6.7-38.2c10.5-14.5,14.1-32.3,14.1-32.3s6.4-15.9,0.3-28.1
				c-6.1-12.2-5.4-14.3-5.1-24.4s16.5-18.4,20-22.9c3.5-4.5,4.6-12.6,1.9-21.3c-2.7-8.8-8.5-3.2-8.9-1.7c-0.3,1.5-3.8,2.6-3.8,2.6
				s18-2.7,12.5,16.8"/>
			<path class="st0" d="M536.5,601.4c0,0,0.4,5.1-20.1,11.8c-20.5,6.7-17.5,37.9-6.7,49.8c10.8,11.8,14.1,21.8,13.5,35.6"/>
			<path class="st0" d="M539.5,603.6c0,0,0.9,7.1-17.6,18.3c-18.5,11.2-2.4,41-3.2,53.5"/>
			<path class="st0" d="M507,659.4c0,0,6.9,13.5,7.5,27.3s-14.8,33-16.6,42.5s-3.3,27.2,5.1,38.6s8.8,23.1,6.7,26.9"/>
			<path class="st0" d="M504.2,737.1c0,0-2.1,8.8,5.6,27.9c0,0,9.4,17.8,7,29.7"/>
			<path class="st0" d="M511.9,725.1c0,0-5.5,16.5,0,27.5c5.5,11,12.8,13.1,14.1,25c1.3,11.9-5.8,22.6-5.8,22.6"/>
			<path class="st0" d="M540.7,694.8c30.1-30.7,13.2-63.1,13.2-63.1s18,0.8,16.7,35.3c0,0,0.3,12.4-24.5,24
				c-24.8,11.6-12.8,41.9-8.8,54.5c4,12.6-2.6,32.4-11.5,39.9"/>
			<path class="st0" d="M557.4,684.5c0,0-17.7,23.2-12.6,54.9c5.1,31.8-17.6,44.7-17.6,44.7"/>
			<path class="st0" d="M532.5,729.1c0,0,4.4,27.2-13.2,34.2"/>
			<path class="st0" d="M537.7,747c0,0-4.9,19.7-12.3,27.1"/>
			<path class="st0" d="M553.9,631.7c0,0,20.2,11.6,2.7,53.1"/>
		</g>
	</g>
	<g>
		<path d="M639.9,689l9.4,1.7l10.7-3.4l11.2-2.5l16.6,14.8l14.9,2.7l6.6,7.2l4.1,16.3l2.8-15.1l-3.7-11.9l16.3-20.8L755,728
			l-3.6,36.8c0,0-7.2,16.1-6.8,20.9c0.4,4.8-0.9,12.4-0.9,12.4l-30.2,6.3l-73.6,6.9l-34.4-6.9l-5-35.3l5.4-16.7l21.6-41.8l1.5-13
			L639.9,689z"/>
		<g>
			<path d="M597.4,771c0,0-0.2-8.1-4.6-15.5c-4.4-7.3-5.9-12.3-5.1-20.7c0.9-8.4,11-11.2,18.2-16.9c7.2-5.7,3.7-10.1,8.3-10.6
				c0,0,6.4,0.2,5.5,7.4c-0.9,7.2-10.3,11.8-10.3,11.8s-8.1,3.7-10.7,8.2c-2.6,4.5-4.1,14.7,0,23.7"/>
			<path d="M607.6,795c-13-22.2,10.4-57.8,18.3-67.9c7.9-10.1,10.7-28.4,6.4-33c-4.3-4.6-6.9,0.4-7.5,9.2
				c-0.6,8.8-4.1,21.2-4.1,21.2s-1.9,3.6-6,7.4c-4,3.8-16.2,17-17.1,32s4.8,33,4.8,33"/>
			<path d="M625.9,727.1c0,0,13.6-5.2,13.2-25.2c0,0-0.8-6.7-4.8-11.2c-3.9-4.5-6.5-22,3-22.6c9.6-0.6,4,15.6,7.6,19.8"/>
			<path d="M612.3,792.7c0,0-3.9-12.1,0-25.4c3.9-13.3,10.7-26.6,18.9-34.3c8.2-7.8,14.7-18.1,12.2-30.9c-2.4-12.9,3.2-15,3.2-15
				s7.5-5.7,12.6,10.6c0,0,1.4,6.2,0.5,9.1"/>
			<path d="M626.3,804.8c0,0-13.2-7.9-8.2-32.3c4.9-24.5,26.4-31.6,32.9-42.6"/>
			<path d="M655.7,689.8c0,0,1.4-9.2,10.7-2.7"/>
			<path d="M634,803.8c0,0-22.6-27.3-0.1-57.7"/>
			<path d="M640.9,803c0,0-5.1-20.7-3.7-39.3c1.5-18.6,8.5-19,9.3-28.5"/>
			<path d="M646.5,805.2c0,0-10-34.3,8.4-59.1"/>
			<path d="M649,804.2c0,0-3-2.8-1.7-10.9c1.4-8.1,8.9-16.4,10.1-27.4c1.2-11-6.9-25-6.5-38.8c0.4-13.9,12.7-27.6,18.6-24.4
				c6,3.1,2.1,14-1.3,18.9c-3.4,4.8-7.4,11.3-4.3,36.3s-10.5,27.7-10.2,37.5c0,0-0.1,5.9,1.4,9"/>
			<path d="M670.6,703.4c0,0,0.7-4.6-1.7-8.2c-2.4-3.6-4.4-17.4-2.4-21.5c2-4,4.8-6.1,8.9-6.4s6.2,0.8,6.6,4.1s-4.6,12.7-4.1,17.9
				c0.5,5.2,4.8,17.4,3.2,26.2c-1.6,8.8-16.8,27.5-17.8,35"/>
			<path d="M663.2,801c0,0-1.9-5.1,1.6-11.4c3.5-6.3,6.8-11.8,7.9-18.9c1-7.1,1.6-25-5.4-29.6"/>
			<path d="M670.1,799.6c0,0-1.1-6,1.2-12.1c2.3-6.1,13.3-21.3,11.4-35.9s-10.9-18-10.9-18"/>
			<path d="M680.2,701.2c0,0,4.3-10.9,10-5c0,0,3.6,3.7,2.2,8.5"/>
			<path d="M677,724.8c0,0,3,10.2,5.9,16.3s6.6,16.8-2.9,42.9"/>
			<path d="M673.8,798.6c0,0-1-5.8,5.7-13.9c6.8-8.1,13.7-26.6,7.8-43.5c-5.9-16.9-1.7-27.4,4.1-35.6c5.8-8.2,5.1-16.1,4.8-18.7
				c-0.3-2.6,5.3-12,10-4.9c4.7,7.1,4,15.6-1.5,28.1c-5.5,12.5-12.6,17.7-8.3,38.4c4.3,20.7-11.6,35.3-14.3,47.3"/>
			<path d="M705.3,708.8c0,0,5.5-0.9,6,3.6"/>
			<path d="M712.6,742.6c0,0-7.3,5.4-7.3,13.2c0,7.9,7.6,18.6,8.1,25.1c0.5,6.6-0.6,13-3.2,16.2"/>
			<path d="M709.4,770.7c0,0-17,13.2-17,29.8"/>
			<path d="M712.5,777.1c0,0-8.8,7.8-8.7,20.9"/>
			<path d="M730.5,795.7c0,0,6.4-18.3,6.7-28.5c0.3-10.2-16.9-24.4-17-36.1s5.5-25,0-26.5c-5.5-1.5-14.2,15.6-13.4,21.9
				c0,0-0.7,10.4,15.2,28.5c15.9,18.1,4.3,34.5-0.9,40.7"/>
			<path d="M720.7,753.6c0,0-3.5,4.9-2.8,11.6s3.4,14.1,3.2,18.7c-0.2,4.7-1.6,10.9-2.4,12.6"/>
			<path d="M727.2,762.6c0,0-6,5.8,0.4,20.9"/>
			<path d="M721.3,720.2c0,0,11.4,4.5,12.6,25.3"/>
			<path d="M714.1,708.4c0,0-5.2-10.6-1.7-15.6c3.5-5,5.8-3.7,5.8-3.7"/>
			<path d="M732,754.4c0,0,0.6-6.6,2.5-10.7c1.9-4.1,2.8-13.6,1.6-18.4c-1.3-4.8-1.9-7.3-4.1-12.1c-2.2-4.8-14.6-16.9-13.4-25.2
				s10.6-20.6,16.5-15.7c5.9,4.9,3.7,11.8,2.1,16.8"/>
			<path d="M751.4,736.8c0,0-10.3,16.1-7.2,31.7"/>
			<path d="M735,780.9c0,0,4.9,3.2-1.3,17.2"/>
			<path d="M748.8,794.2c0,0-4.9-10.8,3.1-22.6s10.3-26,10.3-26c0.9-21.9-3.5-32.2-11-44.6s-17.6-14.2-21.2-9.1s3.9,13.3,3.9,13.3
				s21.8,23.7,18.6,41.8c-3.2,18-9,20-10.3,25.1c-1.3,5.1,0.8,17,0.8,17"/>
			<path d="M753.4,769.3c0,0,3,7.3,3.2,12.6"/>
			<path d="M761.3,725.9c0,0,11.8-18.4,15.9-7.3c4,11.1-10.7,21.2-14.8,22.2"/>
		</g>
		<g>
			<path class="st0" d="M721.3,720.2c0,0,11.4,4.5,12.6,25.3"/>
			<path class="st0" d="M597.4,771c0,0-0.2-8.1-4.6-15.5c-4.4-7.3-5.9-12.3-5.1-20.7c0.9-8.4,11-11.2,18.2-16.9
				c7.2-5.7,3.7-10.1,8.3-10.6c0,0,6.4,0.2,5.5,7.4c-0.9,7.2-10.3,11.8-10.3,11.8s-8.1,3.7-10.7,8.2c-2.6,4.5-4.1,14.7,0,23.7"/>
			<path class="st0" d="M607.6,795c-13-22.2,10.4-57.8,18.3-67.9c7.9-10.1,10.7-28.4,6.4-33c-4.3-4.6-6.9,0.4-7.5,9.2
				c-0.6,8.8-4.1,21.2-4.1,21.2s-1.9,3.6-6,7.4c-4,3.8-16.2,17-17.1,32s4.8,33,4.8,33"/>
			<path class="st0" d="M625.9,727.1c0,0,13.6-5.2,13.2-25.2c0,0-0.8-6.7-4.8-11.2c-3.9-4.5-6.5-22,3-22.6c9.6-0.6,4,15.6,7.6,19.8"
				/>
			<path class="st0" d="M612.3,792.7c0,0-3.9-12.1,0-25.4c3.9-13.3,10.7-26.6,18.9-34.3c8.2-7.8,14.7-18.1,12.2-30.9
				c-2.4-12.9,3.2-15,3.2-15s7.5-5.7,12.6,10.6c0,0,1.4,6.2,0.5,9.1"/>
			<path class="st0" d="M626.3,804.8c0,0-13.2-7.9-8.2-32.3c4.9-24.5,26.4-31.6,32.9-42.6"/>
			<path class="st0" d="M655.7,689.8c0,0,1.4-9.2,10.7-2.7"/>
			<path class="st0" d="M634,803.8c0,0-22.6-27.3-0.1-57.7"/>
			<path class="st0" d="M640.9,803c0,0-5.1-20.7-3.7-39.3c1.5-18.6,8.5-19,9.3-28.5"/>
			<path class="st0" d="M646.5,805.2c0,0-10-34.3,8.4-59.1"/>
			<path class="st0" d="M649,804.2c0,0-3-2.8-1.7-10.9c1.4-8.1,8.9-16.4,10.1-27.4c1.2-11-6.9-25-6.5-38.8
				c0.4-13.9,12.7-27.6,18.6-24.4c6,3.1,2.1,14-1.3,18.9c-3.4,4.8-7.4,11.3-4.3,36.3s-10.5,27.7-10.2,37.5c0,0-0.1,5.9,1.4,9"/>
			<path class="st0" d="M670.6,703.4c0,0,0.7-4.6-1.7-8.2c-2.4-3.6-4.4-17.4-2.4-21.5c2-4,4.8-6.1,8.9-6.4s6.2,0.8,6.6,4.1
				s-4.6,12.7-4.1,17.9c0.5,5.2,4.8,17.4,3.2,26.2c-1.6,8.8-16.8,27.5-17.8,35"/>
			<path class="st0" d="M663.2,801c0,0-1.9-5.1,1.6-11.4c3.5-6.3,6.8-11.8,7.9-18.9c1-7.1,1.6-25-5.4-29.6"/>
			<path class="st0" d="M670.1,799.6c0,0-1.1-6,1.2-12.1c2.3-6.1,13.3-21.3,11.4-35.9s-10.9-18-10.9-18"/>
			<path class="st0" d="M680.2,701.2c0,0,4.3-10.9,10-5c0,0,3.6,3.7,2.2,8.5"/>
			<path class="st0" d="M677,724.8c0,0,3,10.2,5.9,16.3s6.6,16.8-2.9,42.9"/>
			<path class="st0" d="M673.8,798.6c0,0-1-5.8,5.7-13.9c6.8-8.1,13.7-26.6,7.8-43.5c-5.9-16.9-1.7-27.4,4.1-35.6
				c5.8-8.2,5.1-16.1,4.8-18.7c-0.3-2.6,5.3-12,10-4.9c4.7,7.1,4,15.6-1.5,28.1c-5.5,12.5-12.6,17.7-8.3,38.4
				c4.3,20.7-11.6,35.3-14.3,47.3"/>
			<path class="st0" d="M705.3,708.8c0,0,5.5-0.9,6,3.6"/>
			<path class="st0" d="M712.6,742.6c0,0-7.3,5.4-7.3,13.2c0,7.9,7.6,18.6,8.1,25.1c0.5,6.6-0.6,13-3.2,16.2"/>
			<path class="st0" d="M709.4,770.7c0,0-17,13.2-17,29.8"/>
			<path class="st0" d="M712.5,777.1c0,0-8.8,7.8-8.7,20.9"/>
			<path class="st0" d="M730.5,795.7c0,0,6.4-18.3,6.7-28.5c0.3-10.2-16.9-24.4-17-36.1s5.5-25,0-26.5c-5.5-1.5-14.2,15.6-13.4,21.9
				c0,0-0.7,10.4,15.2,28.5c15.9,18.1,4.3,34.5-0.9,40.7"/>
			<path class="st0" d="M720.7,753.6c0,0-3.5,4.9-2.8,11.6s3.4,14.1,3.2,18.7c-0.2,4.7-1.6,10.9-2.4,12.6"/>
			<path class="st0" d="M727.2,762.6c0,0-6,5.8,0.4,20.9"/>
			<path class="st0" d="M714.1,708.4c0,0-5.2-10.6-1.7-15.6c3.5-5,5.8-3.7,5.8-3.7"/>
			<path class="st0" d="M732,754.4c0,0,0.6-6.6,2.5-10.7c1.9-4.1,2.8-13.6,1.6-18.4c-1.3-4.8-1.9-7.3-4.1-12.1
				c-2.2-4.8-14.6-16.9-13.4-25.2s10.6-20.6,16.5-15.7c5.9,4.9,3.7,11.8,2.1,16.8"/>
			<path class="st0" d="M751.4,736.8c0,0-10.3,16.1-7.2,31.7"/>
			<path class="st0" d="M735,780.9c0,0,4.9,3.2-1.3,17.2"/>
			<path class="st0" d="M748.8,794.2c0,0-4.9-10.8,3.1-22.6s10.3-26,10.3-26c0.9-21.9-3.5-32.2-11-44.6s-17.6-14.2-21.2-9.1
				s3.9,13.3,3.9,13.3s21.8,23.7,18.6,41.8c-3.2,18-9,20-10.3,25.1c-1.3,5.1,0.8,17,0.8,17"/>
			<path class="st0" d="M753.4,769.3c0,0,3,7.3,3.2,12.6"/>
			<path class="st0" d="M761.3,725.9c0,0,11.8-18.4,15.9-7.3c4,11.1-10.7,21.2-14.8,22.2"/>
		</g>
	</g>
	<linearGradient id="SVGID_1_" gradientUnits="userSpaceOnUse" x1="500" y1="882.175" x2="500" y2="534.704">
		<stop  offset="0" style="stop-color:#000000"/>
		<stop  offset="0.6285" style="stop-color:#000000;stop-opacity:0.4869"/>
		<stop  offset="1" style="stop-color:#000000;stop-opacity:0"/>
	</linearGradient>
	<rect x="146.1" y="534.7" class="st8" width="707.8" height="347.5"/>
	<path class="st0" d="M246,366.9c-49.7,112.5-63.2,231.4-63.2,231.4"/>
	<path class="st0" d="M702.5,255.8c-43.6-55.5-101.6-95.5-178.6-95.5h-33.6c-50.3,0-92.5,17.1-127.8,44.4"/>
	<path class="st0" d="M825.4,588.4c0,0-10.6-91.7-47-190.2"/>
</g>
</svg>
