<?xml version="1.0" encoding="utf-8"?>
<!-- Generator: Adobe Illustrator 24.0.0, SVG Export Plug-In . SVG Version: 6.00 Build 0)  -->
<svg version="1.1" id="Layer_1" xmlns="http://www.w3.org/2000/svg" xmlns:xlink="http://www.w3.org/1999/xlink" x="0px" y="0px"
	 viewBox="0 0 500 500" style="enable-background:new 0 0 500 500;" xml:space="preserve">
<style type="text/css">
	.st0{fill:#00CED1;}
	.st1{fill:none;stroke:#00CED1;stroke-width:1.5;stroke-linecap:round;stroke-linejoin:round;stroke-miterlimit:10;}
	.st2{opacity:0;fill:none;stroke:#000000;stroke-width:0.5;stroke-miterlimit:10;}
</style>
<g>
	<g>
		<g>
			<path class="st0" d="M220.4,301.6c-0.4,0-0.7-0.3-0.7-0.7V299l-6.9-6.9h-26.2l-7.4,7.4v1.4c0,0.4-0.3,0.7-0.7,0.7
				c-0.4,0-0.7-0.3-0.7-0.7v-1.6c0-0.2,0.1-0.4,0.2-0.5l7.8-7.8c0.1-0.1,0.3-0.2,0.5-0.2h26.7c0.2,0,0.4,0.1,0.5,0.2l7.3,7.3
				c0.1,0.1,0.2,0.3,0.2,0.5v2.2C221,301.3,220.7,301.6,220.4,301.6z"/>
			<path class="st0" d="M199.4,283.7c-5.5,0-10-4.5-10-10s4.5-10,10-10s10,4.5,10,10S204.9,283.7,199.4,283.7z M199.4,265.1
				c-4.7,0-8.6,3.9-8.6,8.6s3.9,8.6,8.6,8.6c4.7,0,8.6-3.9,8.6-8.6S204.2,265.1,199.4,265.1z"/>
			<path class="st0" d="M230.6,301.6c-0.4,0-0.7-0.3-0.7-0.7v-1.6c0-0.2,0.1-0.4,0.2-0.5l7.8-7.8c0.1-0.1,0.3-0.2,0.5-0.2h22.4
				c0.4,0,0.7,0.3,0.7,0.7c0,0.4-0.3,0.7-0.7,0.7h-22.1l-7.4,7.4v1.4C231.3,301.3,231,301.6,230.6,301.6z"/>
			<path class="st0" d="M251.5,283.7c-5.5,0-10-4.5-10-10s4.5-10,10-10c3.2,0,6.2,1.5,8.1,4.1c0.2,0.3,0.2,0.7-0.1,0.9
				c-0.3,0.2-0.7,0.2-0.9-0.1c-1.6-2.2-4.2-3.5-7-3.5c-4.7,0-8.6,3.9-8.6,8.6s3.9,8.6,8.6,8.6c2.9,0,5.6-1.4,7.2-3.9
				c0.2-0.3,0.6-0.4,0.9-0.2c0.3,0.2,0.4,0.6,0.2,0.9C258,282,254.9,283.7,251.5,283.7z"/>
			<path class="st0" d="M249.9,225.2h-54.6c-0.4,0-0.7-0.3-0.7-0.7v-46.7c0-0.4,0.3-0.7,0.7-0.7h54.6c0.4,0,0.7,0.3,0.7,0.7v46.7
				C250.6,224.9,250.3,225.2,249.9,225.2z M196,223.9h53.2v-45.3H196V223.9z"/>
			<path class="st0" d="M222.8,255.5c-0.4,0-0.7-0.3-0.7-0.7v-30.3c0-0.4,0.3-0.7,0.7-0.7s0.7,0.3,0.7,0.7v30.3
				C223.5,255.2,223.2,255.5,222.8,255.5z"/>
			<path class="st0" d="M207.4,255.5c-0.4,0-0.7-0.3-0.7-0.7v-7.9c0-0.4,0.3-0.7,0.7-0.7h15.4c0.4,0,0.7,0.3,0.7,0.7
				c0,0.4-0.3,0.7-0.7,0.7H208v7.2C208,255.2,207.7,255.5,207.4,255.5z"/>
			<path class="st0" d="M237.7,255.5c-0.4,0-0.7-0.3-0.7-0.7v-7.2h-14.8c-0.4,0-0.7-0.3-0.7-0.7c0-0.4,0.3-0.7,0.7-0.7h15.4
				c0.4,0,0.7,0.3,0.7,0.7v7.9C238.4,255.2,238.1,255.5,237.7,255.5z"/>
			<path class="st0" d="M222.8,209.8c-6.7,0-12.1-5.4-12.1-12.1c0-6.7,5.4-12.1,12.1-12.1c6.7,0,12.1,5.4,12.1,12.1
				C234.9,204.4,229.5,209.8,222.8,209.8z M222.8,187c-5.9,0-10.7,4.8-10.7,10.7s4.8,10.7,10.7,10.7c5.9,0,10.7-4.8,10.7-10.7
				S228.7,187,222.8,187z"/>
			<path class="st0" d="M215.5,207.2c-0.2,0-0.3-0.1-0.4-0.2c-0.3-0.2-0.3-0.7-0.1-1l7.1-8.5l-3.5-10.5c-0.1-0.4,0.1-0.7,0.4-0.9
				c0.4-0.1,0.7,0.1,0.9,0.4l3.6,10.8c0.1,0.2,0,0.5-0.1,0.7l-7.3,8.8C215.9,207.1,215.7,207.2,215.5,207.2z"/>
			<path class="st0" d="M243.7,198.4h-9.5c-0.4,0-0.7-0.3-0.7-0.7s0.3-0.7,0.7-0.7h9.5c0.4,0,0.7,0.3,0.7,0.7
				S244.1,198.4,243.7,198.4z"/>
			<path class="st0" d="M214.1,191.1c-0.2,0-0.3-0.1-0.5-0.2l-4.3-4.3h-7.4c-0.4,0-0.7-0.3-0.7-0.7c0-0.4,0.3-0.7,0.7-0.7h7.7
				c0.2,0,0.4,0.1,0.5,0.2l4.5,4.5c0.3,0.3,0.3,0.7,0,1C214.4,191,214.2,191.1,214.1,191.1z"/>
			<path class="st0" d="M211.4,210.2h-9.5c-0.4,0-0.7-0.3-0.7-0.7c0-0.4,0.3-0.7,0.7-0.7h9.5c0.4,0,0.7,0.3,0.7,0.7
				C212.1,209.9,211.8,210.2,211.4,210.2z"/>
			<path class="st0" d="M243.7,210.2h-9.5c-0.4,0-0.7-0.3-0.7-0.7c0-0.4,0.3-0.7,0.7-0.7h9.5c0.4,0,0.7,0.3,0.7,0.7
				C244.4,209.9,244.1,210.2,243.7,210.2z"/>
			<path class="st0" d="M227.9,217.4h-3.2c-0.4,0-0.7-0.3-0.7-0.7s0.3-0.7,0.7-0.7h3.2c0.4,0,0.7,0.3,0.7,0.7
				S228.3,217.4,227.9,217.4z"/>
			<path class="st0" d="M235.5,217.4h-3.2c-0.4,0-0.7-0.3-0.7-0.7s0.3-0.7,0.7-0.7h3.2c0.4,0,0.7,0.3,0.7,0.7
				S235.9,217.4,235.5,217.4z"/>
			<path class="st0" d="M243.2,217.4H240c-0.4,0-0.7-0.3-0.7-0.7s0.3-0.7,0.7-0.7h3.2c0.4,0,0.7,0.3,0.7,0.7
				S243.6,217.4,243.2,217.4z"/>
			<path class="st0" d="M220.9,217.4h-19c-0.4,0-0.7-0.3-0.7-0.7s0.3-0.7,0.7-0.7h19c0.4,0,0.7,0.3,0.7,0.7S221.3,217.4,220.9,217.4
				z"/>
			<path class="st0" d="M314.5,244.5H282c-0.4,0-0.7-0.3-0.7-0.7v-26.5h-10.6c-0.1,0-8.6-0.1-8.6-8.3v-11.3c0-0.4,0.3-0.7,0.7-0.7h6
				c0.4,0,0.7,0.3,0.7,0.7s-0.3,0.7-0.7,0.7h-5.3v10.6c0,6.8,7,6.9,7.3,6.9H282c0.4,0,0.7,0.3,0.7,0.7v26.5h31.2v-22.1
				c0-6.3-5.1-11.3-11.3-11.3h-1.3l-3.7,3.7c-0.3,0.3-0.7,0.3-1,0l-3.7-3.7h-22.1c-0.4,0-0.7-0.3-0.7-0.7v-20.9
				c0-0.4,0.3-0.7,0.7-0.7s0.7,0.3,0.7,0.7v20.2h21.7c0.2,0,0.4,0.1,0.5,0.2l3.5,3.5l3.4-3.4c0.1-0.1,0.3-0.2,0.5-0.2h1.6
				c7,0,12.7,5.7,12.7,12.7v22.7C315.2,244.2,314.9,244.5,314.5,244.5z"/>
			<path class="st0" d="M297.1,236.4c-0.4,0-0.7-0.3-0.7-0.7V213c0-0.4,0.3-0.7,0.7-0.7c0.4,0,0.7,0.3,0.7,0.7v22.7
				C297.7,236.1,297.4,236.4,297.1,236.4z"/>
			<path class="st0" d="M300.9,209.8c-0.4,0-0.7-0.3-0.7-0.7v-9.6c0,0,0-0.1,0-0.1c0,0,0.2-1.2,0-2.6c-0.1-1.3-0.1-1.3-1.7-2.1
				c-0.5-0.2-0.8-0.4-1.1-0.6c-0.8-0.5-1-0.6-2.1-0.3c-1.4,0.3-3.5-0.1-4.6-0.4v3.6c0,5.2,2.6,6.5,2.8,6.6c0.2,0.1,0.4,0.4,0.4,0.6
				v4.8c0,0.4-0.3,0.7-0.7,0.7c-0.4,0-0.7-0.3-0.7-0.7v-4.4c-0.9-0.6-3.2-2.6-3.2-7.6v-4.5c0-0.2,0.1-0.4,0.3-0.5
				c0.2-0.1,0.4-0.2,0.6-0.1c0.9,0.3,3.4,0.9,4.8,0.6c1.6-0.4,2.1-0.1,3.2,0.5c0.3,0.2,0.6,0.4,1,0.6c1.9,1,2.2,1.2,2.4,3.1
				c0.2,1.5,0,2.7,0,2.9v9.5C301.6,209.5,301.3,209.8,300.9,209.8z"/>
			<path class="st0" d="M300.9,202.4c-0.3,0-0.6-0.2-0.7-0.6c-0.1-0.4,0.2-0.7,0.5-0.8c1.4-0.3,2.4-1,2.9-2.4c1.2-3-0.1-7.9-1-9.2
				c-1-1.4-4.2-1.5-8.3-1.5c-0.5,0-1.1,0-1.7,0c-2.3,0-3.4,0.5-3.8,1c-0.4,0.4-0.4,0.9-0.4,0.9c0,0.1,0,0.2,0,0.3
				c-0.4,1.1,1.7,1.8,1.7,1.8c0.4,0.1,0.5,0.5,0.4,0.9c-0.1,0.4-0.5,0.5-0.9,0.4c-0.2-0.1-1.9-0.7-2.5-1.9c-0.2-0.5-0.3-1-0.1-1.5
				c0-0.3,0.1-1,0.8-1.7c0.9-1,2.6-1.5,4.9-1.4c0.6,0,1.1,0,1.7,0c4.6,0,8,0.1,9.4,2.1c1,1.4,2.6,6.9,1.1,10.5
				c-0.7,1.7-2.1,2.8-3.9,3.2C301,202.4,300.9,202.4,300.9,202.4z"/>
			<path class="st0" d="M309.5,253.2c-0.4,0-0.7-0.3-0.7-0.7v-8.6c0-0.4,0.3-0.7,0.7-0.7c0.4,0,0.7,0.3,0.7,0.7v8.6
				C310.2,252.8,309.9,253.2,309.5,253.2z"/>
			<path class="st1" d="M287.6,250.2"/>
			<path class="st0" d="M287.6,250.8c-0.4,0-0.7-0.3-0.7-0.7v-6.3c0-0.4,0.3-0.7,0.7-0.7c0.4,0,0.7,0.3,0.7,0.7v6.3
				C288.2,250.5,287.9,250.8,287.6,250.8z"/>
			<path class="st1" d="M298.3,254.7"/>
			<path class="st1" d="M298.3,287.1"/>
		</g>
		<g>
			<path class="st0" d="M293.8,322.8c-0.1,0-0.2,0-0.3-0.1l-0.2-0.1c-0.5-0.1-12.9-4.3-20.8-17.5c-7.8-13.2-7.1-35.9-7.1-36.8
				c0-0.2,0.1-0.4,0.3-0.6c0.2-0.1,0.4-0.2,0.6-0.2c0.3,0,6.4,0.5,11-5.7c5.1-6.8,15.9-7.2,16.3-7.2l0.3,0c0.5,0,11.2,0.4,16.3,7.2
				c4.6,6.2,10.9,5.7,11,5.7c0.2,0,0.4,0.1,0.6,0.2c0.2,0.1,0.3,0.4,0.3,0.6c0,1,0.8,23.7-7.1,36.8c-7.8,13-19.9,17.2-20.8,17.5
				l-0.2,0.1C294,322.8,293.9,322.8,293.8,322.8z M267.1,269.2c-0.1,4.1,0.1,23.7,6.9,35.1c7.3,12.3,19,16.5,19.9,16.8
				c0.9-0.3,12.6-4.5,19.9-16.8c6.8-11.4,6.9-31,6.9-35.1c-2.1-0.1-7.4-0.8-11.5-6.3c-4.6-6.2-15-6.6-15.1-6.6l-0.3,0
				c-0.1,0-10.4,0.4-15.1,6.6C274.5,268.4,269.1,269.1,267.1,269.2z"/>
			<path class="st0" d="M289.6,297.3c-0.2,0-0.4-0.1-0.6-0.2l-6.7-6.7c-0.3-0.3-0.3-0.8,0-1.1s0.8-0.3,1.1,0l6.1,6.1l15.9-15.9
				c0.3-0.3,0.8-0.3,1.1,0s0.3,0.8,0,1.1l-16.5,16.5C290.1,297.2,289.9,297.3,289.6,297.3z"/>
		</g>
	</g>
	<rect x="150" y="150" class="st2" width="200" height="200"/>
</g>
</svg>
