<?xml version="1.0" encoding="utf-8"?>
<!-- Generator: Adobe Illustrator 23.1.0, SVG Export Plug-In . SVG Version: 6.00 Build 0)  -->
<svg version="1.1" id="Layer_1" xmlns="http://www.w3.org/2000/svg" xmlns:xlink="http://www.w3.org/1999/xlink" x="0px" y="0px"
	 viewBox="0 0 500 500" style="enable-background:new 0 0 500 500;" xml:space="preserve">
<style type="text/css">
	.st0{opacity:0;}
	.st1{fill:#00CED1;}
</style>
<g>
	<path class="st0" d="M350,350H150V150h200V350z M150.5,349.5h199v-199h-199V349.5z"/>
	<g>
		<path class="st1" d="M298.8,316.7c-0.1,0-0.2,0-0.4-0.1l-0.2-0.1c-0.6-0.2-15.2-5-24.4-20.6c-9.2-15.5-8.4-42.2-8.3-43.3
			c0-0.3,0.1-0.5,0.3-0.7c0.2-0.2,0.5-0.3,0.7-0.2c0.3,0,7.5,0.5,12.9-6.7c6-8,18.7-8.5,19.2-8.5l0.4,0c0.6,0,13.2,0.5,19.2,8.5
			c5.4,7.2,12.6,6.7,12.9,6.7c0.3,0,0.5,0.1,0.7,0.2c0.2,0.2,0.3,0.4,0.3,0.7c0,1.1,0.9,27.8-8.3,43.3
			c-9.1,15.3-23.5,20.3-24.5,20.6l-0.2,0.1C299.1,316.7,298.9,316.7,298.8,316.7z M267.3,253.6c-0.1,4.9,0.1,27.9,8.1,41.4
			c8.6,14.5,22.4,19.4,23.4,19.8c1-0.4,14.8-5.3,23.4-19.8c8-13.4,8.1-36.5,8.1-41.4c-2.4-0.1-8.7-0.9-13.6-7.4
			c-5.5-7.3-17.6-7.7-17.7-7.7l-0.3,0c-0.1,0-12.3,0.5-17.7,7.7C276,252.7,269.8,253.5,267.3,253.6z"/>
		<path class="st1" d="M293.9,286.7c-0.3,0-0.5-0.1-0.7-0.3l-7.9-7.9c-0.4-0.4-0.4-1,0-1.3c0.4-0.4,1-0.4,1.3,0l7.2,7.2l18.7-18.7
			c0.4-0.4,1-0.4,1.3,0c0.4,0.4,0.4,1,0,1.3l-19.4,19.4C294.4,286.6,294.2,286.7,293.9,286.7z"/>
	</g>
	<path class="st1" d="M259.8,295.6h-26.9c-0.4,0-0.8-0.4-0.8-0.8V184.1c0-0.4,0.4-0.8,0.8-0.8h64.2c0.4,0,0.8,0.4,0.8,0.8v37.4
		c0,0.4-0.4,0.8-0.8,0.8s-0.8-0.4-0.8-0.8v-36.6h-62.6v109h26.1c0.4,0,0.8,0.4,0.8,0.8C260.6,295.2,260.3,295.6,259.8,295.6z"/>
	<path class="st1" d="M310.1,183.9h-89.2c-0.3,0-0.5-0.2-0.6-0.5s0.1-0.6,0.4-0.7l45.2-18.4c0.1-0.1,0.3-0.1,0.5,0l44.1,18.4
		c0.3,0.1,0.4,0.4,0.4,0.7C310.6,183.7,310.3,183.9,310.1,183.9z M223.9,182.7h83.2L266,165.6L223.9,182.7z"/>
	<path class="st1" d="M232.8,295.7h-65c-0.4,0-0.7-0.3-0.7-0.7v-89.5c0-0.4,0.3-0.7,0.7-0.7h65c0.4,0,0.7,0.3,0.7,0.7V295
		C233.6,295.4,233.3,295.7,232.8,295.7z M168.6,294.2h63.5v-88h-63.5V294.2z"/>
	<g>
		<path class="st1" d="M195.6,233.9h-19.8c-0.4,0-0.6-0.3-0.6-0.6v-19.8c0-0.4,0.3-0.6,0.6-0.6h19.8c0.4,0,0.6,0.3,0.6,0.6v19.8
			C196.2,233.7,195.9,233.9,195.6,233.9z M176.5,232.6h18.5v-18.5h-18.5V232.6z"/>
		<path class="st1" d="M223.7,233.9h-19.8c-0.4,0-0.6-0.3-0.6-0.6v-19.8c0-0.4,0.3-0.6,0.6-0.6h19.8c0.4,0,0.6,0.3,0.6,0.6v19.8
			C224.4,233.7,224.1,233.9,223.7,233.9z M204.6,232.6h18.5v-18.5h-18.5V232.6z"/>
		<path class="st1" d="M261.3,211.1h-19.8c-0.4,0-0.6-0.3-0.6-0.6v-19.8c0-0.4,0.3-0.6,0.6-0.6h19.8c0.4,0,0.6,0.3,0.6,0.6v19.8
			C261.9,210.8,261.6,211.1,261.3,211.1z M242.1,209.8h18.5v-18.5h-18.5V209.8z"/>
		<path class="st1" d="M289.4,211.1h-19.8c-0.4,0-0.6-0.3-0.6-0.6v-19.8c0-0.4,0.3-0.6,0.6-0.6h19.8c0.4,0,0.6,0.3,0.6,0.6v19.8
			C290,210.8,289.7,211.1,289.4,211.1z M270.3,209.8h18.5v-18.5h-18.5V209.8z"/>
		<path class="st1" d="M261.3,239.1h-19.8c-0.4,0-0.6-0.3-0.6-0.6v-19.8c0-0.4,0.3-0.6,0.6-0.6h19.8c0.4,0,0.6,0.3,0.6,0.6v19.8
			C261.9,238.8,261.6,239.1,261.3,239.1z M242.1,237.8h18.5v-18.5h-18.5V237.8z"/>
		<path class="st1" d="M273.9,239.1h-4.3c-0.4,0-0.6-0.3-0.6-0.6v-19.8c0-0.4,0.3-0.6,0.6-0.6h19.8c0.4,0,0.6,0.3,0.6,0.6v9.9
			c0,0.4-0.3,0.6-0.6,0.6c-0.4,0-0.6-0.3-0.6-0.6v-9.2h-18.5v18.5h3.7c0.4,0,0.6,0.3,0.6,0.6C274.6,238.8,274.3,239.1,273.9,239.1z"
			/>
		<path class="st1" d="M256.2,270.4h-14.7c-0.4,0-0.6-0.3-0.6-0.6V250c0-0.4,0.3-0.6,0.6-0.6h16.2c0.4,0,0.6,0.3,0.6,0.6
			s-0.3,0.6-0.6,0.6h-15.6v18.5h14.1c0.4,0,0.6,0.3,0.6,0.6C256.8,270.1,256.5,270.4,256.2,270.4z"/>
		<path class="st1" d="M261.3,290.3h-19.8c-0.4,0-0.6-0.3-0.6-0.6v-6.2c0-0.4,0.3-0.6,0.6-0.6h19.8c0.4,0,0.6,0.3,0.6,0.6v6.2
			C261.9,290.1,261.6,290.3,261.3,290.3z M242.1,289h18.5v-4.9h-18.5V289z"/>
		<path class="st1" d="M195.6,262.3h-19.8c-0.4,0-0.6-0.3-0.6-0.6v-19.8c0-0.4,0.3-0.6,0.6-0.6h19.8c0.4,0,0.6,0.3,0.6,0.6v19.8
			C196.2,262,195.9,262.3,195.6,262.3z M176.5,261h18.5v-18.5h-18.5V261z"/>
		<path class="st1" d="M223.7,262.3h-19.8c-0.4,0-0.6-0.3-0.6-0.6v-19.8c0-0.4,0.3-0.6,0.6-0.6h19.8c0.4,0,0.6,0.3,0.6,0.6v19.8
			C224.4,262,224.1,262.3,223.7,262.3z M204.6,261h18.5v-18.5h-18.5V261z"/>
		<path class="st1" d="M196.2,290.6h-19.8c-0.4,0-0.6-0.3-0.6-0.6v-19.8c0-0.4,0.3-0.6,0.6-0.6h19.8c0.4,0,0.6,0.3,0.6,0.6v19.8
			C196.8,290.3,196.5,290.6,196.2,290.6z M177,289.3h18.5v-18.5H177V289.3z"/>
		<path class="st1" d="M224.3,290.6h-19.8c-0.4,0-0.6-0.3-0.6-0.6v-19.8c0-0.4,0.3-0.6,0.6-0.6h19.8c0.4,0,0.6,0.3,0.6,0.6v19.8
			C224.9,290.3,224.6,290.6,224.3,290.6z M205.2,289.3h18.5v-18.5h-18.5V289.3z"/>
	</g>
</g>
</svg>
