<svg xmlns="http://www.w3.org/2000/svg" xmlns:xlink="http://www.w3.org/1999/xlink" width="400" height="432.736" viewBox="0 0 400 432.736"><defs><style>.a,.c,.f,.h{fill:none;stroke:#00ced1;stroke-linecap:round;stroke-linejoin:round;stroke-miterlimit:10;}.a,.f{stroke-width:1.5px;}.b{opacity:0.6;}.d,.f{opacity:0.5;}.e{opacity:0.3;}.g{opacity:0.7;}.h{stroke-width:0.75px;}.i{fill:url(#a);}</style><linearGradient id="a" x1="0.5" y1="1" x2="0.5" gradientUnits="objectBoundingBox"><stop offset="0"/><stop offset="0.628" stop-opacity="0.486"/><stop offset="1" stop-opacity="0"/></linearGradient></defs><g transform="translate(-146.1 -117.05)"><g transform="translate(215.329 206.752)"><path class="a" d="M402.8,276.1" transform="translate(-326.959 -275.591)"/><path class="a" d="M562.1,653.038a38.415,38.415,0,0,0-2.713-8.025c-1.582-3.447-2.939-5.2-7.064-9.155a40.426,40.426,0,0,0-6.273-5.312c-3.9-1.243-9.438-6.669-11.472-11.359-1.13-2.487-1.582-3-2.374-2.656a15.986,15.986,0,0,1-2.826.678c-1.752.226-1.865.169-1.469-1.243.283-1.13.113-1.469-.509-1.469a1.458,1.458,0,0,0-1.243.565c-.452.678-4.238.735-5.312.057-.565-.4-.622-.735-.113-1.7.791-1.413.848-1.413,4.239-.283a14.72,14.72,0,0,0,5.99.678c3.843-.283,5.312-1.187,4.521-2.713-.509-.9-.848-.961-2.656-.452" transform="translate(-378.093 -420.938)"/><path class="a" d="M555.438,603.421c.622-1.243.735-1.865.283-2.317-1.243-1.243-2.6.509-4.238,5.538l-1.582,4.973,1.017,2.6c1.187,2.769,4.578,5.877,12.433,11.359,6.16,4.295,8.42,6.443,11.529,10.851A16.353,16.353,0,0,1,578.27,644" transform="translate(-390.929 -416.758)"/><path class="a" d="M611.083,674.9a8.277,8.277,0,0,1-.283,3.56" transform="translate(-417.412 -449.017)"/><path class="a" d="M631.328,669.575c.169-.509-.509-1.017-1.7-1.356-2.034-.622-6.16,0-11.755,1.7a8.369,8.369,0,0,1-3.278.622" transform="translate(-419.065 -446.009)"/><path class="a" d="M497.8,419.7" transform="translate(-368.272 -338.039)"/><path class="a" d="M496.3,427.5" transform="translate(-367.62 -341.43)"/><path class="a" d="M387.423,534.633a39.48,39.48,0,0,1,9.89-2.487,62.459,62.459,0,0,0,9.607-2.091c6.16-2.261,7.629-2.374,9.607-.9a24.613,24.613,0,0,1,6.16,7.968c.735,1.865.735,1.808-2.43.283-2.091-.961-2.826-1.13-3.843-.622-2.26,1.13-3.843,1.243-3.843.4,0-.9-.678-1.017-1.469-.283-.283.339-1.7.17-3.617-.509-3.56-1.243-7.629-1.413-13.846-.509-8.364,1.13-12.546,3.9-22.605,14.863a49.574,49.574,0,0,0-5.934,9.381" transform="translate(-310.565 -385.212)"/><path class="a" d="M478.653,428a61.22,61.22,0,0,0-13.507,24.3c-1.7,6.5-2.939,17.519-2.374,20.627.452,2.43-.113,4.069-1.356,4.069a11.307,11.307,0,0,0-3.617,1.413" transform="translate(-350.877 -341.648)"/><path class="a" d="M504.932,517.826c5.99.057,7.573-.339,6.443-1.7-.622-.735-1.526-.848-5.538-.509-3.786.283-5.425.169-7.4-.565a56.435,56.435,0,0,1-10.964-6.216c-1.3-1.017-.848-1.7.622-.961,4.691,2.487,11.472,5.312,13.9,5.821,4.069.791,7.912.169,9.438-1.469,2.034-2.147,1.3-2.713-3.73-2.826-8.646-.169-17.01-5.03-28.2-16.389-5.425-5.482-8.081-8.7-10.116-12.207a74.166,74.166,0,0,0-5.086-7.516c-1.752-2.148-2.091-2.939-1.639-3.673.791-1.243,2.148-1.413,4.069-.565,1.413.622,1.7,1.13,2.034,3.73a7.1,7.1,0,0,0,.9,3.278,1.654,1.654,0,0,1,.509,1.187c0,1.413,6.216,9.155,11.981,14.919a78.474,78.474,0,0,0,18.536,13.676l3.673,2.034,9.381-.057,9.325-.057,3.108,2.487c4.295,3.391,6.329,4.125,10.4,3.843,13.111-1.074,28.765-16.163,30.065-28.991a7.717,7.717,0,0,0-.9-5.369,11.063,11.063,0,0,1-1.187-3.617,2.952,2.952,0,0,0-1.243-2.147c-1.243-.848-1.243-.9-.226-1.865,1.187-1.187,1.808-2.826,2.656-6.386a67.367,67.367,0,0,0-.509-26.618,48.9,48.9,0,0,0-7.121-13.789l-2.6-3.221-.735-1.13-3.447-3.278a67.932,67.932,0,0,0-14.354-9.946c-21.645-7.855-36.96-4.747-47.584,2.147" transform="translate(-352.912 -330.824)"/><path class="a" d="M437.7,520.8" transform="translate(-342.136 -382.004)"/><path class="a" d="M533.073,458.314c2.091.509,5.595,2.826,8.081,5.312,4.634,4.747,6.273,13.733,3.956,21.531-.961,3.391-1.639,4.408-4.352,7.064l-3.221,3.108,2.317-3.278c3.165-4.521,3.9-7.968,3.052-14.863-.452-4.239-.961-5.934-2.43-8.534a20.879,20.879,0,0,0-9.325-8.986,11.309,11.309,0,0,1-3.052-1.639C528.1,457.636,530.869,457.806,533.073,458.314Z" transform="translate(-381.448 -354.613)"/><path class="a" d="M516.661,463.093c3.673-.113,6.895.791,6.895,2.034,0,.283.4.565.848.678.848.17-5.143,5.538-6.216,5.538-.848,0-6.16-7.29-5.708-7.742A13.53,13.53,0,0,1,516.661,463.093Z" transform="translate(-374.644 -356.904)"/><path class="a" d="M501.656,464.7c.283,0,.848.848,1.243,1.921a18.633,18.633,0,0,0,3.052,4.521c2.656,3.108,2.6,3.447-1.356,7.064-2.261,2.091-2.826,2.317-3.56,1.752-1.469-1.187-5.934-7.4-5.934-8.194,0-.4,1.356-2.147,3-3.9S501.316,464.7,501.656,464.7Z" transform="translate(-367.098 -357.608)"/><path class="a" d="M533.56,470.7c.678,0,3.334,3.391,4.069,5.2,1.074,2.543,1.074,2.713.226,2.713-.4,0-1.978,1.3-3.617,2.882l-2.882,2.826-2.656-3a15.608,15.608,0,0,1-2.6-3.56,20.731,20.731,0,0,1,3.617-3.843C531.751,472.169,533.447,470.7,533.56,470.7Z" transform="translate(-380.579 -360.217)"/><path class="a" d="M491.3,482.7c.565,0,6.16,6.612,6.16,7.347,0,.791-6.273,6.216-6.838,5.877s-.678-8.76-.17-11.472C490.676,483.491,491.015,482.7,491.3,482.7Z" transform="translate(-364.934 -365.435)"/><path class="a" d="M517.118,485.7c.678,0,5.651,5.764,5.651,6.556,0,.4-1.582,2.034-3.447,3.673l-3.5,3-1.921-2.2c-4.239-4.917-4.239-4.578-.565-7.968A19.213,19.213,0,0,1,517.118,485.7Z" transform="translate(-373.857 -366.74)"/><path class="a" d="M545.243,490.7c.622,0,1.017,2.882.678,5.086-.339,2.43-1.3,5.086-1.865,5.086-.452,0-3.956-4.3-3.956-4.917a13.281,13.281,0,0,1,2.374-2.826A12.867,12.867,0,0,1,545.243,490.7Z" transform="translate(-386.667 -368.914)"/><path class="a" d="M503.618,502.981c1.413,1.582,2.6,3.165,2.6,3.56,0,.339-1.639,2.317-3.673,4.295l-3.673,3.617-2.2-2.147a15.443,15.443,0,0,1-2.939-3.843c-.678-1.639-.622-1.808,2.374-4.465C500.849,499.647,500.679,499.7,503.618,502.981Z" transform="translate(-366.348 -373.227)"/><path class="a" d="M531.769,502.7c.735,0,4.521,4.634,4.634,5.708a8.368,8.368,0,0,1,.056,1.7c-.056,1.074-4.521,5.595-5.482,5.595-.848,0-5.877-5.538-5.877-6.5,0-.339,1.356-1.978,3.052-3.617A17.755,17.755,0,0,1,531.769,502.7Z" transform="translate(-380.144 -374.133)"/><path class="a" d="M514.068,516.7c.678,0,6.16,6.273,5.934,6.725-.509.791-6.669,1.865-8.7,1.469-2.43-.452-5.2-1.808-5.2-2.543,0-.283,1.13-1.074,2.543-1.752a15.16,15.16,0,0,0,3.786-2.6A4.6,4.6,0,0,1,514.068,516.7Z" transform="translate(-371.881 -380.221)"/><path class="a" d="M602.117,523.327c1.526.4,1.469.452-.848.509-4.634.113-12.376,2.769-12.885,4.408-.283,1.017,2.656.961,5.877-.169,3.334-1.13,3.786-.735.678.622-7.516,3.278-14.75,9.607-19.723,17.18-2.147,3.278-3.9,5.651-3.9,5.256,0-1.413,1.7-4.634,4.747-9.212,3.447-4.973,3.617-5.651,2.261-6.782-.791-.622-1.3-.339-3.843,2.374-1.582,1.7-3.447,3.843-4.182,4.747l-1.3,1.7,1.017-1.865c1.865-3.447,6.895-9.1,11.133-12.489a28.928,28.928,0,0,1,9.1-5.086C595.109,522.761,598.5,522.422,602.117,523.327Z" transform="translate(-399.235 -382.891)"/><path class="a" d="M616.42,535.7c1.413,0,1.3.226-2.2,3.673-3,2.882-4.125,3.673-5.482,3.673-1.865,0-4.634-1.017-4.634-1.752,0-.678,5.312-3.73,8.138-4.691A16.49,16.49,0,0,1,616.42,535.7Z" transform="translate(-414.498 -388.483)"/><path class="a" d="M625.493,539.613l3.165-2.713,1.639.9c3.334,1.865,3.278,2.374-.283,5.934-2.769,2.769-2.882,2.826-5.425,2.43-3.617-.452-4.521-1.3-3.221-2.769C621.932,542.834,623.8,541.082,625.493,539.613Z" transform="translate(-421.763 -389.005)"/><path class="a" d="M437.914,547.7a14.221,14.221,0,0,1,7.008,2.713,6.329,6.329,0,0,0,2.091,1.243c.9,0,11.642,10.229,13.959,13.281,2.2,2.826,6.782,12.772,8.364,18.084a30.891,30.891,0,0,0,1.808,4.578,32.076,32.076,0,0,1,2.034,4.691c.791,2.43.848,3.221.283,4.634-.4.9-.9,1.639-1.13,1.639-.565,0-2.656-6.273-3.334-9.946-1.356-7.008-7.8-19.158-14.185-26.618a47.9,47.9,0,0,0-13.733-11.585C437.8,548.491,436.953,547.7,437.914,547.7Z" transform="translate(-342.068 -393.702)"/><path class="a" d="M592.577,551.361a5.11,5.11,0,0,0,2.26.565c3.334.057,3.052.9-1.526,4.747-2.656,2.2-4.917,3.73-5.708,3.73-1.526,0-3.5-.961-3.5-1.7a25.692,25.692,0,0,1,3.447-4.239C591.221,550.57,591.277,550.514,592.577,551.361Z" transform="translate(-405.801 -395.103)"/><path class="a" d="M608.329,555.8c2.487.056,5.595.961,5.595,1.582s-5.425,5.538-7.516,6.838a3.856,3.856,0,0,1-3.391.565c-1.017-.226-2.487-.622-3.391-.791-.848-.226-1.526-.565-1.526-.791a26.5,26.5,0,0,1,4.182-3.956C605.673,556.419,606.8,555.741,608.329,555.8Z" transform="translate(-411.889 -397.222)"/><path class="a" d="M367.1,578.295c0-.113,1.13-2.43,2.543-5.143a35.914,35.914,0,0,1,10.851-12.6c1.752-1.243,3.447-1.808,6.5-2.2a44.21,44.21,0,0,1,4.973-.452c.452.057,3,.226,5.651.4a19,19,0,0,1,8.194,2.034c3.617,1.808,8.929,5.425,10.624,9.381,0,0,5.538,9.212,6.329,15.824" transform="translate(-311.435 -398.131)"/><path class="a" d="M447.6,573.7" transform="translate(-346.441 -405.008)"/><path class="a" d="M626.255,560.7c.113.057.735.339,1.469.735l1.3.735-2.261,2.882c-2.543,3.165-4.691,4.8-5.821,4.465a15.378,15.378,0,0,0-2.317-.565c-.848-.226-1.526-.622-1.526-.9s2.034-2.034,4.465-3.956C624.051,562.226,626.142,560.7,626.255,560.7Z" transform="translate(-420.152 -399.355)"/><path class="a" d="M581.226,571.559c.226.452-.339,1.356-1.356,2.26-2.769,2.317-3.56,1.7-1.922-1.413C578.852,570.6,580.717,570.146,581.226,571.559Z" transform="translate(-402.757 -403.715)"/><path class="a" d="M586.92,574.8c1.865.113,6.16,1.13,6.669,1.639.283.226-1.7,2.147-4.352,4.238-4.182,3.221-5.086,3.73-6.5,3.391a5.59,5.59,0,0,1-2.656-1.469c-.961-1.074-.9-1.187,2.317-4.465C584.434,576.042,586.186,574.742,586.92,574.8Z" transform="translate(-403.818 -405.485)"/><path class="a" d="M607.808,580.245l1.356.509-1.243,1.3c-1.469,1.526-9.325,4.86-11.416,4.86-1.187-.057-.9-.452,2.317-3.447C603.852,578.832,604.021,578.775,607.808,580.245Z" transform="translate(-410.916 -407.484)"/><path class="a" d="M363.664,639.23v-9.155c0-6.5-.226-9.325-.678-9.833-1.074-1.074-1.582-.113-.565,1.074.791.9.791,1.074-.17,2.374-1.243,1.582-1.469,2.543-.509,1.921.509-.283.565,1.469.283,6.612-.735,14.524-.226,26.166,1.356,31.591a89.038,89.038,0,0,1,1.13,9.042" transform="translate(-308.846 -425.045)"/><path class="a" d="M461.081,628.643c.678.678-1.243,9.833-2.713,12.659-.9,1.752-.791,1.865,2.317,2.374,2.091.339,2.2.283,1.187-.509-1.074-.791-1.017-.848,1.13-.848,1.921,0,2.374-.283,3.447-1.978,1.469-2.2,1.582-2.882.678-3.447-.339-.17-1.3.509-2.2,1.526-2.2,2.656-2.826,1.582-.961-1.752,2.374-4.238,1.752-5.934-1.187-3.278-1.3,1.187-1.413,1.243-.961.17,1.978-4.973,2.2-6.1,1.243-6.782-.735-.509-.961-1.582-.961-4.578a40.808,40.808,0,0,0-.848-7.516,11.047,11.047,0,0,1-.565-3.9c.961-.961,2.261,2.656,4.182,11.755,1.074,4.973,2.43,9.438,3.447,11.133.283.565.791,1.639,1.13,2.43a9.9,9.9,0,0,0,1.243,2.317c.509.735.283,1.752-1.017,5.086-1.582,4.012-1.752,4.182-3.391,4.012-2.147-.226-4.8,1.865-6.443,4.917-.565,1.13-1.074,1.7-1.13,1.3a11.711,11.711,0,0,1,1.752-3.334c1.526-2.147,1.7-2.713,1.13-3.9-.791-1.808-1.808-1.7-3.278.452l-1.243,1.808.339-2.091c.678-4.239-2.43-1.752-5.086,4.069a18.867,18.867,0,0,0-1.921,8.42" transform="translate(-347.659 -421.07)"/><path class="a" d="M466.1,613.3" transform="translate(-354.487 -422.229)"/><path class="a" d="M469.1,670.133c5.708-6.556,9.72-13.62,13.563-23.962,3.108-8.307,6.216-14.58,9.607-19.214a53.094,53.094,0,0,0,3.334-4.973,2,2,0,0,1,1.639-1.187c1.3.057,3.5,1.13,3.5,1.7a15.7,15.7,0,0,1-2.487,3.221c-3.278,3.73-6.329,9.438-10.229,19.045" transform="translate(-355.791 -425.488)"/><path class="a" d="M688.125,649.94c.735-.17,1.3-.057,1.3.283,0,.509-6.838,2.543-7.234,2.091-.565-.565.622-1.3,2.543-1.7C685.921,650.449,687.447,650.11,688.125,649.94Z" transform="translate(-448.396 -438.129)"/><path class="a" d="M688.428,657.538c1.469-.565,1.582-.509,1.582.791s-.226,1.413-3.108,1.526c-1.7.057-3.5.113-3.956.113-.452.057-.848-.226-.848-.509-.057-.339,1.074-.735,2.374-.961A19.309,19.309,0,0,0,688.428,657.538Z" transform="translate(-448.417 -441.318)"/><path class="a" d="M690.009,668.22c-.452.678-3.108,1.13-3.447.622-.17-.226.113-.622.622-.791C688.54,667.542,690.349,667.654,690.009,668.22Z" transform="translate(-450.337 -445.897)"/><path class="a" d="M473.8,684.3c1.921-2.882,2.261-2.2.565,1.13-1.017,1.978-2.261,3-2.261,1.808A18.059,18.059,0,0,1,473.8,684.3Z" transform="translate(-357.096 -452.317)"/><path class="a" d="M676.939,647.987c.17-4.012,0-5.2-.961-7.121l-1.187-2.317-2.543.9c-2.6,1.017-3.334.848-2.826-.452.339-.735-.848,1.3,3.447-1.13.9-.565,3.673-2.261,4.069-3.108a1.584,1.584,0,0,0-.509-2.317c-.509-.339-2.034-1.526-9.1.17-1.13.283-4.691-.17-5.764.735a9.1,9.1,0,0,1-3.617,2.034,3.558,3.558,0,0,0-2.261,1.582c-1.582,3.278-4.634,11.642-4.634,12.659,0,.848-.622,1.413-1.978,1.865-1.582.622-1.978,1.017-1.978,2.317" transform="translate(-433.198 -430.242)"/><path class="a" d="M360.921,597.3c-1.356.4-1.978,2.034-2.713,7.29a12.086,12.086,0,0,1-1.13,3.843,4.687,4.687,0,0,0-.452,3.052c.283,1.639.113,1.978-.848,2.261-.848.226-1.13.735-1.13,2.034a41.29,41.29,0,0,1-.848,5.877" transform="translate(-305.651 -415.271)"/><path class="a" d="M578.458,625.482c-1.752-1.978-1.865-2.317-1.865-6.273,0-3.786.113-4.238,1.356-5.086,1.243-.791,1.3-1.017.735-2.26a2.85,2.85,0,0,0-1.808-1.582c-.848-.113-1.469-1.187-2.6-4.465-2.091-6.386-4.747-10.116-7.121-10.116-1.752,0-1.639.678.678,4.521,2.317,3.786,4.465,8.477,4.069,8.816-.17.17-.791-.848-1.469-2.2-1.243-2.487-4.295-5.934-4.86-5.369-.169.17.283,1.7,1.074,3.334" transform="translate(-397.729 -414.575)"/><path class="a" d="M596.4,305.3c2.487,16.445,6.725,44.08,9.325,57.474" transform="translate(-411.15 -288.29)"/><path class="a" d="M587.9,371.351c-1.808-9.833-4.182-25.431-6.1-39.051" transform="translate(-404.801 -300.031)"/><path class="a" d="M658.4,544.5c5.143,10.907,13.111,36.847,14.015,45.041" transform="translate(-438.112 -392.31)"/><path class="a" d="M658.955,602.86c-.961-5.651-3.956-20.514-9.155-33.06" transform="translate(-434.372 -403.312)"/><path class="a" d="M268.6,279.2c1.413,11.359,6.1,55.1,2.656,116.587,0,0-3.617,69.681,7.4,75.389" transform="translate(-268.6 -276.939)"/><path class="a" d="M286.4,277c1.469,11.868,6.216,56.287,2.713,118.452,0,0-2.6,18.649.509,31.082" transform="translate(-276.341 -275.983)"/><path class="a" d="M345,277.5" transform="translate(-301.824 -276.2)"/><path class="a" d="M290.5,498.2c3.56-77.593,18.48-204.238,20.74-223" transform="translate(-278.124 -275.2)"/><path class="a" d="M379.678,453.367c-17.745,12.659-46.736,37.412-55.1,68.55-4.917,18.31-3.56,33.569,7.064,51.37l-2.6,16.219c-12.094-20.288-20.006-49.223-14.3-70.3,5.708-21.023,19.949-41.594,42.385-61.147,12.32-10.681,21.305-17.576,29.1-21.758" transform="translate(-287.844 -345.257)"/><path class="a" d="M433.29,474.767l-11.19,2.656c.678-23.283,20.74-61.995,22.21-64.312,1.752-3,6.895-11.755,14.806-10.681,8.59,1.13,19.384,13.111,20.006,15.6h0a11.922,11.922,0,0,1-10.568,4.8l-2.2-.17-3.052-5.425c-1.017-3.843-4.352-3.956-5.538-4.634-.4.17-2.148,1.187-4.747,5.764-.057.057-.057.113-.113.17C452.787,418.763,433.911,453.914,433.29,474.767Z" transform="translate(-335.352 -330.489)"/><path class="a" d="M473.1,385.143c4.182-10.568,11.02-16.219,17.689-16.784,14.354-1.187,26.674,17.519,27.974,19.61l-11.02,1.074c-2.43-3.9-9.155-11.077-16.163-10.511-3,.226-5.538,2.769-7.573,5.934" transform="translate(-357.531 -315.688)"/><path class="a" d="M509.841,423.512s7.8-2.034,6.951,3.391c-1.074,7.008-22.492,13.507-18.141,3.221" transform="translate(-368.389 -339.534)"/><path class="a" d="M516.723,426.3l1.978,3a1.764,1.764,0,0,1,.283,1.413,10.535,10.535,0,0,1-8.138,8.081c-3.843.9-6.216,1.413-7.629,1.752a2.393,2.393,0,0,1-2.656-1.243l-2.261-4.465" transform="translate(-368.489 -340.909)"/></g><g class="b" transform="translate(260.607 288.115)"><rect class="a" width="16.389" height="11.19" transform="translate(4.87 16.385) rotate(-45.596)"/><path class="a" d="M364.306,424.67l-4.182-4.069s-3.617-3.956-8.76,1.3c-5.2,5.312-1.13,8.816-1.13,8.816l4.182,4.069" transform="translate(-348.719 -419.173)"/><path class="a" d="M373.124,440.216A2.2,2.2,0,1,0,371.655,444l.848.848a1.518,1.518,0,1,0,2.147-2.147l-.848-.848A2.263,2.263,0,0,0,373.124,440.216Z" transform="translate(-357.707 -428.05)"/></g><g transform="translate(462.175 340.456)"><rect class="c" width="12.489" height="8.533" transform="translate(4.144 5.467) rotate(29.051)"/><path class="c" d="M723.438,522.929l2.147-3.9s2.2-3.447-2.713-6.216-6.725.961-6.725.961l-2.147,3.9" transform="translate(-709.137 -511.79)"/><path class="c" d="M719.244,531.795a1.658,1.658,0,1,0-2.882-1.639,1.513,1.513,0,0,0-.113,1.3l-.452.791a1.164,1.164,0,1,0,2.034,1.13l.452-.791A1.83,1.83,0,0,0,719.244,531.795Z" transform="translate(-709.86 -519.412)"/></g><g transform="translate(425.555 196.928)"><path class="a" d="M669.972,373.031h0a1.683,1.683,0,0,1-.081-2.421,54.17,54.17,0,0,1,8.554-7.989q3.752-2.663,12.1-5.568a70.6,70.6,0,0,0,12.588-5.487,41,41,0,0,0,8.876-7.747c4.842-5.326,7.424-10.248,7.585-14.606.161-4.438-1.13-7.908-3.954-10.49a11.247,11.247,0,0,0-7.02-3.228c-1.937-.161-3.389.242-4.2,1.21a11.559,11.559,0,0,0-1.695,4.035c-1.049,4.68-2.582,8.07-4.519,10.168a9.053,9.053,0,0,1-6.536,3.147,9.215,9.215,0,0,1-6.778-2.582,10,10,0,0,1-3.47-7.5,11.646,11.646,0,0,1,3.389-8.312c4.277-4.68,10.087-7.02,17.43-6.859s14.606,3.551,21.949,10.168c7.747,7.02,11.943,14.283,12.669,21.707a23.575,23.575,0,0,1-6.133,18.963,26.049,26.049,0,0,1-12.669,7.666q-7.5,1.937-21.788-.242c-6.375-.968-11.136-1.049-14.283-.161-2.824.807-6.133,2.9-9.764,6.213A1.822,1.822,0,0,1,669.972,373.031Zm-7.5,9.2A13.079,13.079,0,1,1,640.6,392.478a13.078,13.078,0,0,1,3.47-9.441,12.482,12.482,0,0,1,8.957-4.277A13.078,13.078,0,0,1,662.467,382.23Z" transform="translate(-640.595 -308.79)"/></g><g class="d" transform="translate(244.145 142.33)"><path class="a" d="M441.281,352h0a.35.35,0,0,1-.452.057,9.47,9.47,0,0,1-1.526-1.526,9.952,9.952,0,0,1-1.074-2.2,12.257,12.257,0,0,0-1.074-2.261,9.189,9.189,0,0,0-1.469-1.582,4.562,4.562,0,0,0-2.713-1.3,2.216,2.216,0,0,0-1.865.791,2.427,2.427,0,0,0-.565,1.3,1.1,1.1,0,0,0,.226.791,2.459,2.459,0,0,0,.735.283,4.128,4.128,0,0,1,1.865.735,1.76,1.76,0,0,1,.622,1.187,1.5,1.5,0,0,1-.452,1.243,1.97,1.97,0,0,1-1.356.678,1.991,1.991,0,0,1-1.526-.565,3.867,3.867,0,0,1-1.356-3.165A6.372,6.372,0,0,1,431,342.4a6.217,6.217,0,0,1,3.9-2.43,4.284,4.284,0,0,1,3.5,1.017,4.645,4.645,0,0,1,1.469,2.261,11.106,11.106,0,0,1,.113,4.012,7.432,7.432,0,0,0,.057,2.6,5.3,5.3,0,0,0,1.187,1.752A.242.242,0,0,1,441.281,352Zm1.752,1.356a2.34,2.34,0,0,1,1.639-.848,2.207,2.207,0,0,1,1.752.565,2.34,2.34,0,0,1,.848,1.639,2.207,2.207,0,0,1-.565,1.752,2.34,2.34,0,0,1-1.639.848,2.432,2.432,0,0,1-1.752-.565,2.34,2.34,0,0,1-.848-1.639A2.207,2.207,0,0,1,443.033,353.361Z" transform="translate(-429.3 -339.925)"/></g><g class="e" transform="translate(439.23 318.535)"><path class="a" d="M680.9,494.532c.113,0,.226,0,.283-.113a15,15,0,0,0,5.143-10.342,15.193,15.193,0,0,0-3.617-10.964.431.431,0,0,0-.283-.113" transform="translate(-671.798 -473)"/><path class="a" d="M676.9,493.724a.453.453,0,0,0,.452-.057A11.868,11.868,0,0,0,678.539,477c-.113-.113-.226-.17-.339-.113" transform="translate(-670.059 -474.679)"/><path class="a" d="M673.3,492.9a.415.415,0,0,0,.339-.113,8.623,8.623,0,0,0,.9-12.094.35.35,0,0,0-.4-.113" transform="translate(-668.493 -476.288)"/><path class="a" d="M664.8,489.531a1.746,1.746,0,0,1,1.921-1.639,1.783,1.783,0,0,1,1.639,1.921,1.711,1.711,0,0,1-1.921,1.639A1.778,1.778,0,0,1,664.8,489.531Z" transform="translate(-664.794 -479.471)"/></g><path class="a" d="M332.693,277.5s-13,116.474-13.676,133.032a215.558,215.558,0,0,1-2.317,25.431" transform="translate(-74.189 -69.449)"/><g transform="translate(230.248 117.8)"><circle class="a" cx="9.72" cy="9.72" r="9.72" transform="translate(46.171 143.487)"/><circle class="a" cx="4.125" cy="4.125" r="4.125" transform="translate(80.305 105.736)"/><circle class="f" cx="5.877" cy="5.877" r="5.877" transform="translate(79.118 43.289)"/><path class="a" d="M306.811,317.086a9.637,9.637,0,0,0-7.686-3.786,10.012,10.012,0,0,0-4.125.9" transform="translate(-295 -202.817)"/><path class="a" d="M296.9,344.961a10.68,10.68,0,0,0,3,.452,9.629,9.629,0,0,0,6.725-2.713" transform="translate(-295.826 -215.602)"/><circle class="f" cx="9.72" cy="9.72" r="9.72" transform="translate(75.276 143.261)"/><circle class="a" cx="9.72" cy="9.72" r="9.72" transform="translate(127.268 34.756)"/><circle class="f" cx="2.374" cy="2.374" r="2.374" transform="translate(47.641 38.429)"/><circle class="a" cx="8.251" cy="8.251" r="8.251" transform="translate(142.922 99.802)"/><circle class="a" cx="8.873" cy="8.873" r="8.873" transform="translate(26.222 100.198)"/><circle class="a" cx="2.939" cy="2.939" r="2.939" transform="translate(41.142 145.634)"/><circle class="a" cx="1.526" cy="1.526" r="1.526" transform="translate(64.029 146.086)"/><circle class="a" cx="1.187" cy="1.187" r="1.187" transform="translate(65.16 149.138)"/><circle class="a" cx="0.509" cy="0.509" r="0.509" transform="translate(65.612 153.264)"/><circle class="a" cx="1.187" cy="1.187" r="1.187" transform="translate(46.454 144.9)"/><circle class="a" cx="0.565" cy="0.565" r="0.565" transform="translate(48.827 144.617)"/><g class="g" transform="translate(54.309)"><circle class="a" cx="5.425" cy="5.425" r="5.425" transform="translate(2.826)"/><circle class="a" cx="1.639" cy="1.639" r="1.639" transform="translate(0 1.187)"/><circle class="a" cx="0.848" cy="0.848" r="0.848" transform="translate(12.828 1.469)"/><circle class="a" cx="0.678" cy="0.678" r="0.678" transform="translate(13.394 3.165)"/><circle class="a" cx="0.283" cy="0.283" r="0.283" transform="translate(13.676 5.425)"/><circle class="a" cx="0.678" cy="0.678" r="0.678" transform="translate(2.995 0.791)"/><circle class="a" cx="0.339" cy="0.339" r="0.339" transform="translate(4.295 0.622)"/></g><circle class="a" cx="4.691" cy="4.691" r="4.691" transform="translate(116.417 78.214)"/><circle class="a" cx="1.413" cy="1.413" r="1.413" transform="translate(113.987 79.231)"/><circle class="a" cx="0.565" cy="0.565" r="0.565" transform="translate(116.53 78.892)"/><circle class="a" cx="0.283" cy="0.283" r="0.283" transform="translate(117.66 78.723)"/><circle class="a" cx="4.691" cy="4.691" r="4.691" transform="translate(109.24 105.736)"/><circle class="a" cx="4.691" cy="4.691" r="4.691" transform="translate(51.201 68.607)"/><circle class="f" cx="3.56" cy="3.56" r="3.56" transform="translate(94.886 24.018)"/><circle class="a" cx="2.374" cy="2.374" r="2.374" transform="translate(57.813 130.432)"/><g transform="translate(64.481 92.003)"><circle class="a" cx="5.425" cy="5.425" r="5.425" transform="translate(2.826)"/><circle class="a" cx="1.639" cy="1.639" r="1.639" transform="translate(0 1.187)"/><circle class="a" cx="0.848" cy="0.848" r="0.848" transform="translate(12.828 1.413)"/><circle class="a" cx="0.678" cy="0.678" r="0.678" transform="translate(13.394 3.108)"/><circle class="a" cx="0.283" cy="0.283" r="0.283" transform="translate(13.676 5.425)"/><circle class="a" cx="0.678" cy="0.678" r="0.678" transform="translate(2.995 0.735)"/><circle class="a" cx="0.339" cy="0.339" r="0.339" transform="translate(4.295 0.565)"/></g><circle class="a" cx="3.56" cy="3.56" r="3.56" transform="translate(96.524 131.563)"/><circle class="f" cx="5.877" cy="5.877" r="5.877" transform="translate(19.497 1.187)"/><path class="a" d="M504.077,353.4a5.873,5.873,0,0,0-5.877,5.877" transform="translate(-383.365 -220.255)"/><circle class="a" cx="7.064" cy="7.064" r="7.064" transform="translate(13.62 58.096)"/><circle class="a" cx="2.374" cy="2.374" r="2.374" transform="translate(89.404 70.924)"/></g><g transform="translate(187.75 386.52)"><circle class="a" cx="4.804" cy="4.804" r="4.804" transform="translate(27.409 70.867)"/><circle class="a" cx="2.034" cy="2.034" r="2.034" transform="translate(39.672 56.513)"/><circle class="f" cx="2.939" cy="2.939" r="2.939" transform="translate(37.468 19.893)"/><circle class="a" cx="4.804" cy="4.804" r="4.804" transform="translate(0 57.7)"/><circle class="f" cx="4.804" cy="4.804" r="4.804" transform="translate(41.707 69.059)"/><circle class="a" cx="4.804" cy="4.804" r="4.804" transform="translate(60.865 12.659)"/><circle class="f" cx="1.187" cy="1.187" r="1.187" transform="translate(21.531 19.61)"/><circle class="a" cx="4.069" cy="4.069" r="4.069" transform="translate(72.337 43.798)"/><circle class="a" cx="4.352" cy="4.352" r="4.352" transform="translate(15.032 50.862)"/><circle class="a" cx="1.469" cy="1.469" r="1.469" transform="translate(24.696 72.619)"/><circle class="a" cx="0.735" cy="0.735" r="0.735" transform="translate(35.942 71.602)"/><circle class="a" cx="0.565" cy="0.565" r="0.565" transform="translate(36.621 73.071)"/><circle class="a" cx="0.283" cy="0.283" r="0.283" transform="translate(37.016 75.049)"/><circle class="a" cx="0.565" cy="0.565" r="0.565" transform="translate(27.183 72.111)"/><circle class="a" cx="0.283" cy="0.283" r="0.283" transform="translate(28.313 71.828)"/><g class="g" transform="translate(22.605)"><circle class="a" cx="2.656" cy="2.656" r="2.656" transform="translate(1.526)"/><circle class="a" cx="0.791" cy="0.791" r="0.791" transform="translate(0 1.017)"/><circle class="a" cx="0.452" cy="0.452" r="0.452" transform="translate(6.216 0.339)"/><circle class="a" cx="0.339" cy="0.339" r="0.339" transform="translate(6.612 1.187)"/><circle class="a" cx="0.17" cy="0.17" r="0.17" transform="translate(6.838 2.317)"/><circle class="a" cx="0.339" cy="0.339" r="0.339" transform="translate(1.356 0.622)"/><circle class="a" cx="0.17" cy="0.17" r="0.17" transform="translate(1.978 0.509)"/></g><circle class="a" cx="2.317" cy="2.317" r="2.317" transform="translate(57.813 34.982)"/><circle class="a" cx="0.735" cy="0.735" r="0.735" transform="translate(56.457 35.773)"/><circle class="a" cx="0.283" cy="0.283" r="0.283" transform="translate(57.7 35.547)"/><circle class="a" cx="0.17" cy="0.17" r="0.17" transform="translate(58.209 35.377)"/><circle class="a" cx="2.317" cy="2.317" r="2.317" transform="translate(55.948 48.94)"/><circle class="a" cx="2.317" cy="2.317" r="2.317" transform="translate(25.205 34.077)"/><circle class="f" cx="1.752" cy="1.752" r="1.752" transform="translate(43.967 9.664)"/><circle class="a" cx="1.187" cy="1.187" r="1.187" transform="translate(31.93 64.199)"/><g transform="translate(33.06 44.589)"><circle class="a" cx="2.656" cy="2.656" r="2.656" transform="translate(1.469)"/><circle class="a" cx="0.791" cy="0.791" r="0.791" transform="translate(0 1.017)"/><circle class="a" cx="0.452" cy="0.452" r="0.452" transform="translate(6.16 0.339)"/><circle class="a" cx="0.339" cy="0.339" r="0.339" transform="translate(6.612 1.187)"/><circle class="a" cx="0.17" cy="0.17" r="0.17" transform="translate(6.838 2.317)"/><circle class="a" cx="0.339" cy="0.339" r="0.339" transform="translate(1.3 0.622)"/><circle class="a" cx="0.17" cy="0.17" r="0.17" transform="translate(1.921 0.509)"/></g><circle class="a" cx="1.752" cy="1.752" r="1.752" transform="translate(51.144 62.447)"/><circle class="f" cx="2.939" cy="2.939" r="2.939" transform="translate(5.708 2.713)"/><path class="a" d="M329.122,703a2.877,2.877,0,0,0-2.543,3.221" transform="translate(-266.223 -641.005)"/><circle class="a" cx="3.504" cy="3.504" r="3.504" transform="translate(6.216 30.969)"/><circle class="a" cx="1.187" cy="1.187" r="1.187" transform="translate(43.967 33.117)"/></g><g transform="translate(321.065 288.018)"><circle class="a" cx="2.713" cy="2.713" r="2.713" transform="translate(15.428 39.842)"/><circle class="a" cx="1.13" cy="1.13" r="1.13" transform="translate(22.379 31.817)"/><circle class="f" cx="1.639" cy="1.639" r="1.639" transform="translate(21.136 11.19)"/><circle class="a" cx="2.713" cy="2.713" r="2.713" transform="translate(0 32.439)"/><circle class="f" cx="2.713" cy="2.713" r="2.713" transform="translate(23.453 38.825)"/><circle class="a" cx="2.713" cy="2.713" r="2.713" transform="translate(34.247 7.121)"/><circle class="f" cx="0.678" cy="0.678" r="0.678" transform="translate(12.15 11.02)"/><circle class="a" cx="2.317" cy="2.317" r="2.317" transform="translate(40.689 24.583)"/><circle class="a" cx="2.487" cy="2.487" r="2.487" transform="translate(8.477 28.596)"/><circle class="a" cx="0.848" cy="0.848" r="0.848" transform="translate(13.902 40.802)"/><circle class="a" cx="0.452" cy="0.452" r="0.452" transform="translate(20.175 40.237)"/><circle class="a" cx="0.339" cy="0.339" r="0.339" transform="translate(20.627 41.085)"/><circle class="a" cx="0.17" cy="0.17" r="0.17" transform="translate(20.853 42.215)"/><circle class="a" cx="0.339" cy="0.339" r="0.339" transform="translate(15.315 40.52)"/><circle class="a" cx="0.17" cy="0.17" r="0.17" transform="translate(15.937 40.407)"/><g class="g" transform="translate(12.715)"><circle class="a" cx="1.526" cy="1.526" r="1.526" transform="translate(0.848)"/><circle class="a" cx="0.452" cy="0.452" r="0.452" transform="translate(0 0.565)"/><circle class="a" cx="0.226" cy="0.226" r="0.226" transform="translate(3.56 0.226)"/><circle class="a" cx="0.17" cy="0.17" r="0.17" transform="translate(3.786 0.678)"/><circle class="a" cx="0.057" cy="0.057" r="0.057" transform="translate(3.899 1.356)"/><circle class="a" cx="0.17" cy="0.17" r="0.17" transform="translate(0.791 0.396)"/><circle class="a" cx="0.113" cy="0.113" r="0.113" transform="translate(1.13 0.283)"/></g><circle class="a" cx="1.3" cy="1.3" r="1.3" transform="translate(32.552 19.667)"/><circle class="a" cx="0.396" cy="0.396" r="0.396" transform="translate(31.817 20.175)"/><circle class="a" cx="0.17" cy="0.17" r="0.17" transform="translate(32.439 20.006)"/><circle class="a" cx="0.057" cy="0.057" r="0.057" transform="translate(32.778 19.949)"/><circle class="a" cx="1.3" cy="1.3" r="1.3" transform="translate(31.478 27.522)"/><circle class="a" cx="1.3" cy="1.3" r="1.3" transform="translate(14.185 19.158)"/><circle class="f" cx="0.961" cy="0.961" r="0.961" transform="translate(24.809 5.482)"/><circle class="a" cx="0.678" cy="0.678" r="0.678" transform="translate(17.971 36.112)"/><g transform="translate(18.593 25.035)"><circle class="a" cx="1.526" cy="1.526" r="1.526" transform="translate(0.848)"/><circle class="a" cx="0.452" cy="0.452" r="0.452" transform="translate(0 0.622)"/><circle class="a" cx="0.226" cy="0.226" r="0.226" transform="translate(3.56 0.283)"/><circle class="a" cx="0.17" cy="0.17" r="0.17" transform="translate(3.73 0.735)"/><circle class="a" cx="0.057" cy="0.057" r="0.057" transform="translate(3.899 1.413)"/><circle class="a" cx="0.17" cy="0.17" r="0.17" transform="translate(0.791 0.452)"/><circle class="a" cx="0.113" cy="0.113" r="0.113" transform="translate(1.13 0.339)"/></g><circle class="a" cx="0.961" cy="0.961" r="0.961" transform="translate(28.822 35.151)"/><circle class="f" cx="1.639" cy="1.639" r="1.639" transform="translate(3.221 1.526)"/><path class="a" d="M517.2,480.7a1.6,1.6,0,0,0-1.413,1.808" transform="translate(-481.825 -445.831)"/><circle class="a" cx="1.978" cy="1.978" r="1.978" transform="translate(3.504 17.406)"/><circle class="a" cx="0.678" cy="0.678" r="0.678" transform="translate(24.753 18.593)"/></g><g transform="translate(408.547 355.664)"><circle class="a" cx="6.103" cy="6.103" r="6.103" transform="translate(32.665 90.534)"/><circle class="a" cx="2.6" cy="2.6" r="2.6" transform="translate(50.749 73.806)"/><circle class="f" cx="3.73" cy="3.73" r="3.73" transform="translate(53.405 27.296)"/><circle class="a" cx="6.103" cy="6.103" r="6.103" transform="translate(0 69.681)"/><circle class="f" cx="6.103" cy="6.103" r="6.103" transform="translate(51.031 90.364)"/><circle class="a" cx="6.103" cy="6.103" r="6.103" transform="translate(83.809 21.984)"/><circle class="f" cx="1.469" cy="1.469" r="1.469" transform="translate(33.569 24.301)"/><circle class="a" cx="5.199" cy="5.199" r="5.199" transform="translate(93.642 62.956)"/><circle class="a" cx="5.595" cy="5.595" r="5.595" transform="translate(20.062 63.182)"/><circle class="a" cx="1.865" cy="1.865" r="1.865" transform="translate(29.443 91.834)"/><circle class="a" cx="0.961" cy="0.961" r="0.961" transform="translate(43.911 92.116)"/><circle class="a" cx="0.735" cy="0.735" r="0.735" transform="translate(44.589 94.094)"/><circle class="a" cx="0.339" cy="0.339" r="0.339" transform="translate(44.871 96.637)"/><circle class="a" cx="0.735" cy="0.735" r="0.735" transform="translate(32.834 91.382)"/><circle class="a" cx="0.396" cy="0.396" r="0.396" transform="translate(34.303 91.156)"/><g class="g" transform="translate(37.807)"><circle class="a" cx="3.447" cy="3.447" r="3.447" transform="translate(1.695)"/><circle class="a" cx="1.017" cy="1.017" r="1.017" transform="translate(0 0.791)"/><circle class="a" cx="0.565" cy="0.565" r="0.565" transform="translate(8.025 0.904)"/><circle class="a" cx="0.396" cy="0.396" r="0.396" transform="translate(8.477 2.034)"/><circle class="a" cx="0.17" cy="0.17" r="0.17" transform="translate(8.59 3.447)"/><circle class="a" cx="0.396" cy="0.396" r="0.396" transform="translate(1.865 0.565)"/><circle class="a" cx="0.226" cy="0.226" r="0.226" transform="translate(2.656 0.396)"/></g><circle class="a" cx="2.939" cy="2.939" r="2.939" transform="translate(76.914 49.392)"/><circle class="a" cx="0.904" cy="0.904" r="0.904" transform="translate(75.389 49.958)"/><circle class="a" cx="0.339" cy="0.339" r="0.339" transform="translate(77.027 49.788)"/><circle class="a" cx="0.17" cy="0.17" r="0.17" transform="translate(77.762 49.675)"/><circle class="a" cx="2.995" cy="2.995" r="2.995" transform="translate(72.393 66.686)"/><circle class="a" cx="2.995" cy="2.995" r="2.995" transform="translate(35.773 43.233)"/><circle class="f" cx="2.204" cy="2.204" r="2.204" transform="translate(63.408 15.202)"/><circle class="a" cx="1.469" cy="1.469" r="1.469" transform="translate(40.011 82.283)"/><g transform="translate(44.193 57.982)"><circle class="a" cx="3.447" cy="3.447" r="3.447" transform="translate(1.752)"/><circle class="a" cx="1.017" cy="1.017" r="1.017" transform="translate(0 0.791)"/><circle class="a" cx="0.565" cy="0.565" r="0.565" transform="translate(8.025 0.904)"/><circle class="a" cx="0.396" cy="0.396" r="0.396" transform="translate(8.477 2.034)"/><circle class="a" cx="0.17" cy="0.17" r="0.17" transform="translate(8.647 3.504)"/><circle class="a" cx="0.396" cy="0.396" r="0.396" transform="translate(1.921 0.565)"/><circle class="a" cx="0.226" cy="0.226" r="0.226" transform="translate(2.713 0.396)"/></g><circle class="a" cx="2.204" cy="2.204" r="2.204" transform="translate(64.425 83.018)"/><circle class="f" cx="3.73" cy="3.73" r="3.73" transform="translate(15.767 0.735)"/><path class="a" d="M748.53,687.3a3.726,3.726,0,0,0-3.73,3.73" transform="translate(-668.903 -603.322)"/><circle class="a" cx="4.465" cy="4.465" r="4.465" transform="translate(12.094 36.621)"/><circle class="a" cx="1.469" cy="1.469" r="1.469" transform="translate(59.904 44.758)"/></g><g transform="translate(228.462 411.727)"><path d="M294.869,652.539c.17,1.3,1.187.791,2.034.4s.791-.452.9,0a1.328,1.328,0,0,1-.678,1.13c-.283.113-1.7.509-1.639,1.526s1.074.339,1.074.339a4.818,4.818,0,0,0,1.808-1.921c.4-1.074,1.808-.452,1.865.452s.113,4.691,3.786,5.821c0,0,2.261.339,2.2,1.3-.057.9-.283,1.074-1.413,1.356s-.509.4-.9.565c-.339.17-.622-.113-.848.4s-.791,1.582-2.713.4-2.543-2.656-3.278-1.978c-.678.678,1.469,2.317,1.469,2.317s2.769,2.543,4.295,1.356c0,0,.622-.565.678-.452a3.022,3.022,0,0,1-.452,1.865c-.452.509-1.243,1.187-.452,1.639s1.469-.509,1.639-1.3,1.187-4.408,3.447-4.521a4.347,4.347,0,0,1,4.125,2.487c.509,1.017.791,2.26,0,2.317s-1.7-.4-2.374.735-1.865,3.5-3.617,3.278c-1.808-.226-2.487-.056-4.238-2.091a8.144,8.144,0,0,0-4.465-2.6c-.961-.283-2.487-.509-2.882.339-.339.848-.565,2.034.452,1.752s1.808.169,2.826-.509,1.865.339,2.091.961c.17.622,1.7,1.187,1.7,1.865s-2.487.283-3.052,1.3-1.469,2.43-.17,2.317a3.975,3.975,0,0,0,2.769-1.469,2.625,2.625,0,0,1,2.487-.452c.678.283,1.7.17,1.187.791s-2.543,2.2-2.543,3.617.113,2.43.848,2.43.735-.9.509-1.469.283-1.752,1.187-1.3-.17.678-.17,1.356.226,1.356.735,1.074a1.674,1.674,0,0,0,.565-2.6c-1.017-1.13-.735-2.091.113-2.713A27.551,27.551,0,0,0,309,672.318c.622-.735,1.7-2.656,2.543-2.882.848-.283,1.978,1.187,2.374,2.487s1.752,4.238,3.108,5.312c1.3,1.074,3.221,4.069,3.391,5.764s0,5.312-.848,7.008-1.582,2.43-2.147,2.261-.848-.791-1.469-1.017c-.678-.226-1.921-.622-1.752-1.978s1.243-1.526,1.639-.848,1.469,2.487,1.978,1.582c.565-.9-.565-1.243-.735-1.808s1.017-.17,1.017-1.13c0-.9-.283-1.187-.735-1.017s-.735.9-1.356,1.017a5.874,5.874,0,0,1-1.978.169c-.622-.113-2.2.4-1.7,2.374s.452,1.752.17,2.034a3.6,3.6,0,0,1-2.826-1.356c-.4-.848-.226-1.978-.622-2.713-.452-.735,1.187-3.843,1.356-4.238a4.072,4.072,0,0,1,3.221-1.187c1.243.283,3.843,1.243,3.956-.509.113-1.7-1.356-1.7-2.374-1.3-1.017.452-1.921.339-2.034-.226s1.13-1.808.622-2.826a6.44,6.44,0,0,1-1.074-2.882c0-1.017,0-1.865-.678-1.808s-.9,1.356-.4,2.769c0,0,.4,1.017-.735.452-1.13-.509-3.165-.735-3.052.226.113,1.017,2.543.452,3.447,1.469s1.356,1.752-.113,2.656c-1.469.848-1.469,1.808-1.808,1.752-.339,0,.622-2.317.17-3.108s-1.639-1.639-1.808-.678.791,2.034.509,3c-.283.9-1.3,1.526-.678,3.278,0,0,.113.226-.113,1.187a8.368,8.368,0,0,0,.452,3.334c.226.848.4,1.074,0,1.017-.4,0-2.034-3.052-2.374-3.786a3.3,3.3,0,0,0-3.56-1.639c-1.978.339-3.73,2.148-4.973,1.356s.113-1.639.057-2.882a3.028,3.028,0,0,1,.735-2.374c.4-.452,1.356-2.374.509-2.6s-1.413,1.978-1.865,2.034-1.356-1.356-1.7-.678c-.339.622,1.017,1.808.9,3.221s-.961,2.374-.678,3.617.283,1.469,0,1.526c-.283.113-1.017-.339-1.3-1.639s-.9-2.43-1.582-1.752.17,1.356.283,2.261,1.639,3.956,4.408,2.769,2.43-2.2,4.125-2.769,3.617.17,3.73,1.13-.9,1.13-1.752,1.074a3.887,3.887,0,0,0-3.165,2.43c-.509,1.526-1.3,4.3-3.052,4.239-1.808-.057-2.769.961-1.978,1.752s1.243.113,1.582-.169,1.3-1.187,1.865-.565c.509.622-.622,1.582-1.074,2.2a5.457,5.457,0,0,0-.622,4.691c.622,2.656-.565,3.673,1.017,3.9s-.17-3.108.339-3.56c.509-.509,1.413.452,2.2,1.413s1.3,1.7,1.7,1.187a2.568,2.568,0,0,0-1.469-3.278c-1.808-.735-1.752-.848-1.865-1.356a18.6,18.6,0,0,1,1.3-4.8c.735-1.808,1.469-3.73,1.865-4.86a2.77,2.77,0,0,1,4.125-1.13c1.582,1.3,1.921,1.7,2.826,1.752s2.826.509,2.656,1.187-2.487,2.317-3.447,2.882a4.349,4.349,0,0,1-4.069.509c-1.865-.678-3.956.9-3.052,2.034s2.487-1.808,3.165-.9c.622.961-2.374,2.487-1.3,3.221s1.865-1.808,2.769-1.808,3.786-2.317,3.9-1.978-.283,2.317.283,3.843a1.705,1.705,0,0,1-1.921,2.487c-1.639-.17-1.13,1.13-.452,1.243s2.939-.113,3.165-1.978.622-4.408,1.017-6.1,2.261-4.238,4.408-3.278c2.2.961-.226,5.821-.4,7.064-.113,1.3-2.148,6.329-.735,9.494s-.622,4.578,1.017,4.917c1.639.4,4.012.9,4.352-1.978.4-2.882-2.147-1.808-2.826-3.843-.735-2.034-1.921-5.934,3.391-10s12.207-5.538,13.563-1.865a7.9,7.9,0,0,1-.17,2.656c-.339.961-.678,3.108.565,3.052,1.243-.113,1.582-2.43.961-3.5s.226-1.639.961-1.3,7.573,3.843,7.8,1.752c.283-2.147-2.713-1.865-2.882-2.147s1.074-1.187,3.221-.848,2.034-.057,2.034-.735-1.752-1.752-3.56-.961-5.764,3-8.251.452-2.091-1.582-3.334-1.752-1.752-.622-1.752-.9,1.356-.678,1.808-1.243a11.389,11.389,0,0,1,2.713-2.317c.565-.113,1.356.339,2.2.169a13.7,13.7,0,0,1,3.5.226,6.305,6.305,0,0,0,3.391-.056c.9-.452,3.56-1.922,3.052-3.052-.509-1.074-2.317-.565-2.939,0-.622.509-2.261,1.865-2.939.4s1.074-.848,1.808-1.922,1.3-1.808.565-1.978a2.814,2.814,0,0,0-2.713,2.091c-.565,1.582-.169,1.865-1.469,2.374s-2.826,1.7-3.447.17c-.565-1.526,2.034-1.639,1.413-2.543-.622-.961-1.356.17-1.7.848a9.59,9.59,0,0,1-5.086,4.352,3.564,3.564,0,0,0-1.413,1.582c-.283.9-1.243.565-.848-.4a20.851,20.851,0,0,0,.9-4.295c.057-.848,1.074-1.752,1.356-2.487A6.322,6.322,0,0,1,331.094,683c.678-.622,4.3-2.487,5.877-2.374s4.691,1.639,5.143.509c.452-1.187-1.3-1.243-2.43-1.243s-1.921-.113-1.978-.4,1.808-1.187,1.074-1.7a1.372,1.372,0,0,0-1.752.226c-.283.339-1.639,1.7-1.978,1.526s1.074-3.165.226-3.617-1.639,1.7-1.526,2.656a2.284,2.284,0,0,1-2.034,2.26c-1.243.226-.9,1.582-1.582,1.7-.622.169-1.017-.113-.791-.961s2.034-3.278.226-3.73c-1.752-.452-1.356,2.543-1.469,4.239-.057,1.7.735,4.125-.678,4.634-1.413.452-1.074-1.921-2.148-1.526-1.074.452.565,3,1.074,3.334.452.339.622,2.034.113,2.939s-1.13,3.673-2.2,3.221c-1.017-.4-.17-1.13-.113-1.865s.565-4.012-.339-3.843c-.848.17-1.074,3-.961,4.069s.339,3.334-3.673,4.578c0,0-1.187.961-1.3,1.582s-.452.9-.735.735.452-3.73.9-4.86c.4-1.187,2.6-3.334,2.6-5.425s1.7-2.6,1.582-3.843.339-3.108-.057-3.9,1.3-2.034,3.165-1.3c1.808.735,2.091-1.074,1.469-1.187-.622-.169-2.261-.226-2.261-1.074s1.7-1.526,3.956-1.921,6.895-1.808,7.742-2.487,4.408-.509,4.8-.169c.452.339,6.782,2.882,7.968,2.374,1.243-.509,5.821-2.769,4.408-4.012s-2.656,1.526-4.182,1.978-3.221,1.074-3.5.113c-.283-.9,2.6-1.356,3.052-2.43s2.317-5.2,4.352-5.143,2.317-.226,2.091-1.017-2.543.339-2.713-1.074,2.882-3.334,1.978-4.125-3.956,2.034-3.9,4.125a8.581,8.581,0,0,1-7.234,7.686s-2.769-.622-3.9-.283-1.13-1.243-.509-2.034,3.56-2.317,5.934-1.074c2.374,1.3,2.543-.678,1.639-1.074s-1.582.113-1.526-.4c.057-.452,2.43-1.978,2.769-3.108.339-1.074.622-2.713-.283-2.656s-1.639.339-1.243,2.656c.452,2.317-5.651,2.091-6.669,3.108s-2.374,4.238-3.221,4.917-3.5,2.147-4.012,1.356c-.452-.791,2.769-3.052.565-4.012-2.261-.9-.622,1.3-1.3,2.374s-2.091,3.447-3.956,3.108-2.543.791-2.939.791c-.452,0,3.221-4.238,4.521-4.86a40.6,40.6,0,0,0,5.425-4.182c.452-.509,2.939-.226,4.182-1.187s4.408-2.713,4.465-3.56,1.639-2.656.452-2.713-2.656,1.469-3.052,2.374c-.339.9-.848,1.808-1.639,1.752s1.978-4.352.452-4.352-1.7,2.487-1.752,3.9-.283,1.243-.9,1.526-1.978.791-2.034-.283.622-1.922.791-2.656a15.558,15.558,0,0,1,1.921-3.56c.565-.622,1.865-.057,2.543-.791a6.465,6.465,0,0,1,1.978-1.187c.452-.283,2.261-2.091,1.526-3.391s-1.639-.17-1.865.452a4.4,4.4,0,0,1-1.582,1.978c-.452.113-1.582.283-1.808.735-.283.452-1.526,1.978-1.808,1.752s.452-2.374,1.526-3.278,4.465-3.447,2.939-4.238-1.13,1.356-1.639.735,1.978-5.369-.113-5.538-1.582,3-1.469,4.464a6.163,6.163,0,0,1-1.808,4.8c-1.639,1.808.113,3.673-1.074,3.673s-.848-2.034-.283-3.956.848-2.6.283-2.6c-.622,0-3.278,2.091-1.808,5.482a5,5,0,0,1,0,2.034c-.283,1.187.961.9,1.3,1.7s-.9,5.03-1.7,5.708c-.735.678-2.939,2.43-3.165,2.147s1.526-6.047,1.356-7.008-.4-6.669.339-8.081,4.408-3.673,4.465-4.465a1.16,1.16,0,0,0-1.243-1.187c-.452.056-1.074,1.865-2.374,2.317-1.356.452-1.469,2.487-1.808,2.543s-1.469-1.808-1.356-3.165,1.526-1.13,2.034-1.526,2.2-.848,2.882-1.752c.678-.961,1.865-3.278.678-3.617-1.243-.283-1.3,2.487-2.374,2.317s.565-2.6-.509-2.826-1.526,1.3-1.469,2.6a2.386,2.386,0,0,1-1.413,2.43c-.961.565-.509.678-.678.678a4.666,4.666,0,0,1,.678-3.843c1.13-1.413.961-1.808,1.7-2.543s.735-2.487-.057-2.374-.452.791-.9.848-.678-3-2.091-2.091c-1.469.9.283,1.582.509,2.43s.283,2.939-.339,3c-.622,0-1.356-3.956-2.2-3.447-.9.509-.283,2.261.057,2.769s1.7,1.7,1.639,2.826-.848,1.469-.791,2.43.961,2.374.622,2.656c-.339.226-.791-.791-1.3-.9s-1.3-.113-1.639-.509-.17-3.447-.452-4.408-.791-3.165-1.7-2.487c-.9.622-.283,2.091.283,3.165s.057,3.052.565,4.012,4.747,2.769,5.369,4.125a23.133,23.133,0,0,1,1.187,6.725c-.113,1.017-.057,1.526-.339,1.413s-.735-1.639-1.413-2.034-2.826-.4-3.334-1.187.565-5.312-1.3-4.691c-1.865.678-.226,4.125.283,4.917s0,1.074-.509.735-2.091-1.469-2.147-1.017a5.288,5.288,0,0,0,3.673,3.447c2.43.509,3.447,1.074,3.391,3.673-.113,2.6.735,4.012-1.808,6.1a14.731,14.731,0,0,0-4.238,6.386c-.113.791-.735,1.413-1.356.735s-.678-2.43-2.034-3.221-1.808-1.865-1.582-2.487.848-1.865,3-1.582,4.465-2.826,4.747-3.391c.283-.622,1.413-1.413,1.639-1.7s.17-.961-.17-.9-2.317.509-2.6,1.13c-.339.622-1.243,3.278-2.826,3.221s-.9-.057-.509-1.074c.4-1.074,1.243-1.3,1.074-2.091a20.458,20.458,0,0,1-.339-4.238c.17-.961-.057-1.074-.452-1.074-.452.057-.509.848-.735.735s-1.639-4.069-2.543-2.43c-.9,1.582,2.543,2.148,2.091,5.764s-1.7,3.391-2.656,4.634-.509,1.752-.791,1.921-.9-.9-1.13-3.221c-.283-2.317-.678-2.317-1.017-3.673s.17-3-.226-3.956a7.051,7.051,0,0,1-.452-3.052c0-1.074.9-2.826-.283-2.826s-1.7,2.656-.9,4.747c0,0,.057.339-.113.4s-.622.4-1.413-1.243-1.017-4.691-2.034-4.182.226,3.56.791,4.521a6.024,6.024,0,0,0,2.034,2.091c.735.4,1.356,1.356.791,1.582s-2.148-.848-2.487-1.526-2.43-1.639-3-1.808a2.685,2.685,0,0,1-1.921-2.487,4.9,4.9,0,0,1,.735-3.447c.283-.509,1.7-4.012-.226-4.634-1.921-.565-.057,3.447-.678,3.617s-.283-.452-.452-.9-3.165-5.256-4.182-3.221,1.752.961,2.656,3.221a16.272,16.272,0,0,1,.791,6.386,3.331,3.331,0,0,1-1.469-1.865c-.283-1.017-.057-4.012-2.147-5.143S294.586,650.73,294.869,652.539Z" transform="translate(-291.839 -637.904)"/><path class="h" d="M294.869,652.539c.17,1.3,1.187.791,2.034.4s.791-.452.9,0a1.328,1.328,0,0,1-.678,1.13c-.283.113-1.7.509-1.639,1.526s1.074.339,1.074.339a4.818,4.818,0,0,0,1.808-1.921c.4-1.074,1.808-.452,1.865.452s.113,4.691,3.786,5.821c0,0,2.261.339,2.2,1.3-.057.9-.283,1.074-1.413,1.356s-.509.4-.9.565c-.339.17-.622-.113-.848.4s-.791,1.582-2.713.4-2.543-2.656-3.278-1.978c-.678.678,1.469,2.317,1.469,2.317s2.769,2.543,4.295,1.356c0,0,.622-.565.678-.452a3.022,3.022,0,0,1-.452,1.865c-.452.509-1.243,1.187-.452,1.639s1.469-.509,1.639-1.3,1.187-4.408,3.447-4.521a4.347,4.347,0,0,1,4.125,2.487c.509,1.017.791,2.26,0,2.317s-1.7-.4-2.374.735-1.865,3.5-3.617,3.278c-1.808-.226-2.487-.056-4.238-2.091a8.144,8.144,0,0,0-4.465-2.6c-.961-.283-2.487-.509-2.882.339-.339.848-.565,2.034.452,1.752s1.808.169,2.826-.509,1.865.339,2.091.961c.17.622,1.7,1.187,1.7,1.865s-2.487.283-3.052,1.3-1.469,2.43-.17,2.317a3.975,3.975,0,0,0,2.769-1.469,2.625,2.625,0,0,1,2.487-.452c.678.283,1.7.17,1.187.791s-2.543,2.2-2.543,3.617.113,2.43.848,2.43.735-.9.509-1.469.283-1.752,1.187-1.3-.17.678-.17,1.356.226,1.356.735,1.074a1.674,1.674,0,0,0,.565-2.6c-1.017-1.13-.735-2.091.113-2.713A27.551,27.551,0,0,0,309,672.318c.622-.735,1.7-2.656,2.543-2.882.848-.283,1.978,1.187,2.374,2.487s1.752,4.238,3.108,5.312c1.3,1.074,3.221,4.069,3.391,5.764s0,5.312-.848,7.008-1.582,2.43-2.147,2.261-.848-.791-1.469-1.017c-.678-.226-1.921-.622-1.752-1.978s1.243-1.526,1.639-.848,1.469,2.487,1.978,1.582c.565-.9-.565-1.243-.735-1.808s1.017-.17,1.017-1.13c0-.9-.283-1.187-.735-1.017s-.735.9-1.356,1.017a5.874,5.874,0,0,1-1.978.169c-.622-.113-2.2.4-1.7,2.374s.452,1.752.17,2.034a3.6,3.6,0,0,1-2.826-1.356c-.4-.848-.226-1.978-.622-2.713-.452-.735,1.187-3.843,1.356-4.238a4.072,4.072,0,0,1,3.221-1.187c1.243.283,3.843,1.243,3.956-.509.113-1.7-1.356-1.7-2.374-1.3-1.017.452-1.921.339-2.034-.226s1.13-1.808.622-2.826a6.44,6.44,0,0,1-1.074-2.882c0-1.017,0-1.865-.678-1.808s-.9,1.356-.4,2.769c0,0,.4,1.017-.735.452-1.13-.509-3.165-.735-3.052.226.113,1.017,2.543.452,3.447,1.469s1.356,1.752-.113,2.656c-1.469.848-1.469,1.808-1.808,1.752-.339,0,.622-2.317.17-3.108s-1.639-1.639-1.808-.678.791,2.034.509,3c-.283.9-1.3,1.526-.678,3.278,0,0,.113.226-.113,1.187a8.368,8.368,0,0,0,.452,3.334c.226.848.4,1.074,0,1.017-.4,0-2.034-3.052-2.374-3.786a3.3,3.3,0,0,0-3.56-1.639c-1.978.339-3.73,2.148-4.973,1.356s.113-1.639.057-2.882a3.028,3.028,0,0,1,.735-2.374c.4-.452,1.356-2.374.509-2.6s-1.413,1.978-1.865,2.034-1.356-1.356-1.7-.678c-.339.622,1.017,1.808.9,3.221s-.961,2.374-.678,3.617.283,1.469,0,1.526c-.283.113-1.017-.339-1.3-1.639s-.9-2.43-1.582-1.752.17,1.356.283,2.261,1.639,3.956,4.408,2.769,2.43-2.2,4.125-2.769,3.617.17,3.73,1.13-.9,1.13-1.752,1.074a3.887,3.887,0,0,0-3.165,2.43c-.509,1.526-1.3,4.3-3.052,4.239-1.808-.057-2.769.961-1.978,1.752s1.243.113,1.582-.169,1.3-1.187,1.865-.565c.509.622-.622,1.582-1.074,2.2a5.457,5.457,0,0,0-.622,4.691c.622,2.656-.565,3.673,1.017,3.9s-.17-3.108.339-3.56c.509-.509,1.413.452,2.2,1.413s1.3,1.7,1.7,1.187a2.568,2.568,0,0,0-1.469-3.278c-1.808-.735-1.752-.848-1.865-1.356a18.6,18.6,0,0,1,1.3-4.8c.735-1.808,1.469-3.73,1.865-4.86a2.77,2.77,0,0,1,4.125-1.13c1.582,1.3,1.921,1.7,2.826,1.752s2.826.509,2.656,1.187-2.487,2.317-3.447,2.882a4.349,4.349,0,0,1-4.069.509c-1.865-.678-3.956.9-3.052,2.034s2.487-1.808,3.165-.9c.622.961-2.374,2.487-1.3,3.221s1.865-1.808,2.769-1.808,3.786-2.317,3.9-1.978-.283,2.317.283,3.843a1.705,1.705,0,0,1-1.921,2.487c-1.639-.17-1.13,1.13-.452,1.243s2.939-.113,3.165-1.978.622-4.408,1.017-6.1,2.261-4.238,4.408-3.278c2.2.961-.226,5.821-.4,7.064-.113,1.3-2.148,6.329-.735,9.494s-.622,4.578,1.017,4.917c1.639.4,4.012.9,4.352-1.978.4-2.882-2.147-1.808-2.826-3.843-.735-2.034-1.921-5.934,3.391-10s12.207-5.538,13.563-1.865a7.9,7.9,0,0,1-.17,2.656c-.339.961-.678,3.108.565,3.052,1.243-.113,1.582-2.43.961-3.5s.226-1.639.961-1.3,7.573,3.843,7.8,1.752c.283-2.147-2.713-1.865-2.882-2.147s1.074-1.187,3.221-.848,2.034-.057,2.034-.735-1.752-1.752-3.56-.961-5.764,3-8.251.452-2.091-1.582-3.334-1.752-1.752-.622-1.752-.9,1.356-.678,1.808-1.243a11.389,11.389,0,0,1,2.713-2.317c.565-.113,1.356.339,2.2.169a13.7,13.7,0,0,1,3.5.226,6.305,6.305,0,0,0,3.391-.056c.9-.452,3.56-1.922,3.052-3.052-.509-1.074-2.317-.565-2.939,0-.622.509-2.261,1.865-2.939.4s1.074-.848,1.808-1.922,1.3-1.808.565-1.978a2.814,2.814,0,0,0-2.713,2.091c-.565,1.582-.169,1.865-1.469,2.374s-2.826,1.7-3.447.17c-.565-1.526,2.034-1.639,1.413-2.543-.622-.961-1.356.17-1.7.848a9.59,9.59,0,0,1-5.086,4.352,3.564,3.564,0,0,0-1.413,1.582c-.283.9-1.243.565-.848-.4a20.851,20.851,0,0,0,.9-4.295c.057-.848,1.074-1.752,1.356-2.487A6.322,6.322,0,0,1,331.094,683c.678-.622,4.3-2.487,5.877-2.374s4.691,1.639,5.143.509c.452-1.187-1.3-1.243-2.43-1.243s-1.921-.113-1.978-.4,1.808-1.187,1.074-1.7a1.372,1.372,0,0,0-1.752.226c-.283.339-1.639,1.7-1.978,1.526s1.074-3.165.226-3.617-1.639,1.7-1.526,2.656a2.284,2.284,0,0,1-2.034,2.26c-1.243.226-.9,1.582-1.582,1.7-.622.169-1.017-.113-.791-.961s2.034-3.278.226-3.73c-1.752-.452-1.356,2.543-1.469,4.239-.057,1.7.735,4.125-.678,4.634-1.413.452-1.074-1.921-2.148-1.526-1.074.452.565,3,1.074,3.334.452.339.622,2.034.113,2.939s-1.13,3.673-2.2,3.221c-1.017-.4-.17-1.13-.113-1.865s.565-4.012-.339-3.843c-.848.17-1.074,3-.961,4.069s.339,3.334-3.673,4.578c0,0-1.187.961-1.3,1.582s-.452.9-.735.735.452-3.73.9-4.86c.4-1.187,2.6-3.334,2.6-5.425s1.7-2.6,1.582-3.843.339-3.108-.057-3.9,1.3-2.034,3.165-1.3c1.808.735,2.091-1.074,1.469-1.187-.622-.169-2.261-.226-2.261-1.074s1.7-1.526,3.956-1.921,6.895-1.808,7.742-2.487,4.408-.509,4.8-.169c.452.339,6.782,2.882,7.968,2.374,1.243-.509,5.821-2.769,4.408-4.012s-2.656,1.526-4.182,1.978-3.221,1.074-3.5.113c-.283-.9,2.6-1.356,3.052-2.43s2.317-5.2,4.352-5.143,2.317-.226,2.091-1.017-2.543.339-2.713-1.074,2.882-3.334,1.978-4.125-3.956,2.034-3.9,4.125a8.581,8.581,0,0,1-7.234,7.686s-2.769-.622-3.9-.283-1.13-1.243-.509-2.034,3.56-2.317,5.934-1.074c2.374,1.3,2.543-.678,1.639-1.074s-1.582.113-1.526-.4c.057-.452,2.43-1.978,2.769-3.108.339-1.074.622-2.713-.283-2.656s-1.639.339-1.243,2.656c.452,2.317-5.651,2.091-6.669,3.108s-2.374,4.238-3.221,4.917-3.5,2.147-4.012,1.356c-.452-.791,2.769-3.052.565-4.012-2.261-.9-.622,1.3-1.3,2.374s-2.091,3.447-3.956,3.108-2.543.791-2.939.791c-.452,0,3.221-4.238,4.521-4.86a40.6,40.6,0,0,0,5.425-4.182c.452-.509,2.939-.226,4.182-1.187s4.408-2.713,4.465-3.56,1.639-2.656.452-2.713-2.656,1.469-3.052,2.374c-.339.9-.848,1.808-1.639,1.752s1.978-4.352.452-4.352-1.7,2.487-1.752,3.9-.283,1.243-.9,1.526-1.978.791-2.034-.283.622-1.922.791-2.656a15.558,15.558,0,0,1,1.921-3.56c.565-.622,1.865-.057,2.543-.791a6.465,6.465,0,0,1,1.978-1.187c.452-.283,2.261-2.091,1.526-3.391s-1.639-.17-1.865.452a4.4,4.4,0,0,1-1.582,1.978c-.452.113-1.582.283-1.808.735-.283.452-1.526,1.978-1.808,1.752s.452-2.374,1.526-3.278,4.465-3.447,2.939-4.238-1.13,1.356-1.639.735,1.978-5.369-.113-5.538-1.582,3-1.469,4.464a6.163,6.163,0,0,1-1.808,4.8c-1.639,1.808.113,3.673-1.074,3.673s-.848-2.034-.283-3.956.848-2.6.283-2.6c-.622,0-3.278,2.091-1.808,5.482a5,5,0,0,1,0,2.034c-.283,1.187.961.9,1.3,1.7s-.9,5.03-1.7,5.708c-.735.678-2.939,2.43-3.165,2.147s1.526-6.047,1.356-7.008-.4-6.669.339-8.081,4.408-3.673,4.465-4.465a1.16,1.16,0,0,0-1.243-1.187c-.452.056-1.074,1.865-2.374,2.317-1.356.452-1.469,2.487-1.808,2.543s-1.469-1.808-1.356-3.165,1.526-1.13,2.034-1.526,2.2-.848,2.882-1.752c.678-.961,1.865-3.278.678-3.617-1.243-.283-1.3,2.487-2.374,2.317s.565-2.6-.509-2.826-1.526,1.3-1.469,2.6a2.386,2.386,0,0,1-1.413,2.43c-.961.565-.509.678-.678.678a4.666,4.666,0,0,1,.678-3.843c1.13-1.413.961-1.808,1.7-2.543s.735-2.487-.057-2.374-.452.791-.9.848-.678-3-2.091-2.091c-1.469.9.283,1.582.509,2.43s.283,2.939-.339,3c-.622,0-1.356-3.956-2.2-3.447-.9.509-.283,2.261.057,2.769s1.7,1.7,1.639,2.826-.848,1.469-.791,2.43.961,2.374.622,2.656c-.339.226-.791-.791-1.3-.9s-1.3-.113-1.639-.509-.17-3.447-.452-4.408-.791-3.165-1.7-2.487c-.9.622-.283,2.091.283,3.165s.057,3.052.565,4.012,4.747,2.769,5.369,4.125a23.133,23.133,0,0,1,1.187,6.725c-.113,1.017-.057,1.526-.339,1.413s-.735-1.639-1.413-2.034-2.826-.4-3.334-1.187.565-5.312-1.3-4.691c-1.865.678-.226,4.125.283,4.917s0,1.074-.509.735-2.091-1.469-2.147-1.017a5.288,5.288,0,0,0,3.673,3.447c2.43.509,3.447,1.074,3.391,3.673-.113,2.6.735,4.012-1.808,6.1a14.731,14.731,0,0,0-4.238,6.386c-.113.791-.735,1.413-1.356.735s-.678-2.43-2.034-3.221-1.808-1.865-1.582-2.487.848-1.865,3-1.582,4.465-2.826,4.747-3.391c.283-.622,1.413-1.413,1.639-1.7s.17-.961-.17-.9-2.317.509-2.6,1.13c-.339.622-1.243,3.278-2.826,3.221s-.9-.057-.509-1.074c.4-1.074,1.243-1.3,1.074-2.091a20.458,20.458,0,0,1-.339-4.238c.17-.961-.057-1.074-.452-1.074-.452.057-.509.848-.735.735s-1.639-4.069-2.543-2.43c-.9,1.582,2.543,2.148,2.091,5.764s-1.7,3.391-2.656,4.634-.509,1.752-.791,1.921-.9-.9-1.13-3.221c-.283-2.317-.678-2.317-1.017-3.673s.17-3-.226-3.956a7.051,7.051,0,0,1-.452-3.052c0-1.074.9-2.826-.283-2.826s-1.7,2.656-.9,4.747c0,0,.057.339-.113.4s-.622.4-1.413-1.243-1.017-4.691-2.034-4.182.226,3.56.791,4.521a6.024,6.024,0,0,0,2.034,2.091c.735.4,1.356,1.356.791,1.582s-2.148-.848-2.487-1.526-2.43-1.639-3-1.808a2.685,2.685,0,0,1-1.921-2.487,4.9,4.9,0,0,1,.735-3.447c.283-.509,1.7-4.012-.226-4.634-1.921-.565-.057,3.447-.678,3.617s-.283-.452-.452-.9-3.165-5.256-4.182-3.221,1.752.961,2.656,3.221a16.272,16.272,0,0,1,.791,6.386,3.331,3.331,0,0,1-1.469-1.865c-.283-1.017-.057-4.012-2.147-5.143S294.586,650.73,294.869,652.539Z" transform="translate(-291.839 -637.904)"/></g><g transform="translate(353.203 444.128)"><path d="M524.567,754.5c1.3-.057.9-1.13.565-2.034s-.4-.848.113-.9a1.046,1.046,0,0,1,1.017.791c.113.283.339,1.752,1.356,1.808s.4-1.017.4-1.017a5.089,5.089,0,0,0-1.752-1.978c-1.017-.509-.283-1.865.622-1.808.9,0,4.691.283,6.1-3.278,0,0,.565-2.2,1.469-2.091s1.074.4,1.243,1.526c.17,1.187.4.565.509.961s-.17.565.339.848,1.469.961.113,2.769-2.882,2.317-2.26,3.052c.565.735,2.43-1.243,2.43-1.243s2.826-2.543,1.752-4.182c0,0-.509-.678-.339-.678a2.847,2.847,0,0,1,1.808.622c.509.509,1.017,1.356,1.582.622s-.4-1.526-1.187-1.752-4.295-1.582-4.238-3.843a4.4,4.4,0,0,1,2.826-3.9c1.074-.4,2.317-.622,2.317.226-.057.791-.565,1.7.509,2.43s3.334,2.147,2.939,3.9-.283,2.487-2.43,4.012a7.987,7.987,0,0,0-3,4.238c-.4.961-.735,2.43.057,2.882.791.4,1.978.735,1.808-.283s.339-1.752-.226-2.882c-.565-1.074.509-1.865,1.13-1.978s1.3-1.582,2.034-1.526c.678.057.057,2.487,1.017,3.165s2.261,1.7,2.261.339a4.292,4.292,0,0,0-1.187-2.939,2.464,2.464,0,0,1-.226-2.487c.339-.622.283-1.7.9-1.13s1.922,2.713,3.391,2.882c1.413.113,2.43.113,2.487-.622s-.848-.791-1.413-.622-1.752-.4-1.187-1.3.678.283,1.356.283,1.356-.057,1.13-.622a1.687,1.687,0,0,0-2.543-.791c-1.243.9-2.147.509-2.713-.339s-1.3-2.713-2.034-3.391c-.678-.678-2.487-1.922-2.656-2.826-.17-.848,1.356-1.865,2.713-2.147s4.408-1.413,5.595-2.6a11.835,11.835,0,0,1,6.047-2.882,16.455,16.455,0,0,1,6.895,1.469c1.582.961,2.317,1.808,2.091,2.317-.226.565-.9.735-1.187,1.356s-.791,1.865-2.148,1.582-1.413-1.356-.678-1.752c.735-.339,2.6-1.187,1.752-1.865-.848-.622-1.3.452-1.865.565s-.056-1.017-1.017-1.13-1.187.17-1.13.622c.113.452.791.848.9,1.469a5.808,5.808,0,0,1,0,1.978c-.17.565.226,2.2,2.2,1.921,1.978-.339,1.808-.339,2.034,0s-.735,2.374-1.639,2.713-1.978,0-2.769.4c-.735.4-3.73-1.526-4.125-1.752a4.085,4.085,0,0,1-.9-3.278c.4-1.243,1.582-3.73-.113-4.012s-1.808,1.187-1.469,2.261.169,1.921-.4,1.978c-.622.057-1.7-1.3-2.769-.848a6.556,6.556,0,0,1-2.939.791c-1.017-.113-1.865-.169-1.865.509s1.243,1.017,2.713.622c0,0,1.017-.283.4.735s-1.017,3.052-.057,3.052c1.017,0,.678-2.487,1.752-3.278s1.865-1.187,2.6.339,1.639,1.639,1.582,1.978-2.2-.848-3.052-.452-1.808,1.469-.848,1.752,2.091-.622,3-.226,1.413,1.469,3.221.961c0,0,.283-.113,1.13.226a7.37,7.37,0,0,0,3.334-.169c.848-.17,1.074-.283,1.017.113s-3.221,1.752-4.012,1.978a3.2,3.2,0,0,0-1.922,3.391c.17,1.978,1.808,3.9.9,5.086-.961,1.187-1.582-.226-2.882-.339a2.968,2.968,0,0,1-2.317-.961c-.4-.452-2.2-1.582-2.543-.735s1.808,1.582,1.808,2.034-1.469,1.243-.848,1.639,1.865-.848,3.278-.622,2.317,1.187,3.56,1.017,1.469-.113,1.526.17-.452,1.017-1.752,1.13c-1.356.113-2.543.678-1.921,1.413s1.356,0,2.317-.057,4.125-1.3,3.165-4.125-1.978-2.6-2.374-4.352.509-3.617,1.469-3.617,1.017,1.017.9,1.865a3.725,3.725,0,0,0,2.147,3.334c1.469.678,4.182,1.639,3.956,3.447s.735,2.826,1.582,2.148.226-1.243,0-1.582c-.226-.4-1.074-1.413-.4-1.921.678-.452,1.469.791,2.148,1.3a5.606,5.606,0,0,0,4.634,1.074c2.713-.4,3.617.9,3.956-.678.4-1.582-3.108-.113-3.56-.678s.565-1.356,1.639-2.034,1.808-1.13,1.356-1.582a2.541,2.541,0,0,0-3.391,1.187c-.848,1.752-1.017,1.7-1.526,1.7a20.025,20.025,0,0,1-4.634-1.7c-1.7-.848-3.617-1.808-4.634-2.261s-2.2-2.769-.735-4.238,1.865-1.752,1.978-2.656.735-2.769,1.413-2.543,2.091,2.656,2.543,3.673a4.371,4.371,0,0,1,.113,4.069c-.848,1.808.565,4.012,1.752,3.221,1.13-.791-1.582-2.656-.565-3.221s2.261,2.6,3.108,1.582-1.639-2.034-1.526-2.939-1.978-3.956-1.582-4.069,2.317.509,3.843.056c1.582-.452,2.6.509,2.317,2.148-.339,1.639,1.017,1.243,1.187.565s.113-2.939-1.7-3.334a61.772,61.772,0,0,1-5.99-1.582c-1.639-.565-4.069-2.6-2.882-4.691,1.13-2.091,5.764.735,7.008,1.017,1.243.226,6.1,2.713,9.381,1.582s4.465,1.017,4.973-.565,1.3-3.9-1.582-4.521c-2.826-.622-2.034,1.978-4.069,2.487s-6.047,1.413-9.664-4.239c-3.56-5.651-4.465-12.659-.678-13.676a7.172,7.172,0,0,1,2.656.4c.9.452,3.052.961,3.052-.283s-2.26-1.808-3.447-1.3-1.639-.339-1.243-1.074,4.521-7.177,2.43-7.629-2.148,2.543-2.374,2.656c-.283.169-1.13-1.187-.565-3.278.565-2.147.113-2.034-.565-2.091s-1.921,1.582-1.243,3.447c.622,1.865,2.487,5.99-.283,8.251s-1.752,1.921-2.091,3.165c-.283,1.243-.791,1.7-1.074,1.639s-.565-1.413-1.074-1.922a13.78,13.78,0,0,1-2.091-2.882c-.113-.565.452-1.3.4-2.148a12.209,12.209,0,0,1,.565-3.447,6.04,6.04,0,0,0,.226-3.391c-.4-.9-1.582-3.73-2.713-3.334s-.735,2.261-.283,2.882c.452.678,1.639,2.43.17,2.939-1.526.509-.735-1.187-1.752-1.978s-1.7-1.469-1.865-.735a2.816,2.816,0,0,0,1.865,2.882c1.526.735,1.865.339,2.2,1.7.4,1.356,1.413,3-.113,3.447-1.582.452-1.413-2.2-2.43-1.639-1.017.509.057,1.356.735,1.752a9.625,9.625,0,0,1,3.9,5.482,3.774,3.774,0,0,0,1.413,1.582c.848.339.452,1.243-.509.791a17.76,17.76,0,0,0-4.182-1.3c-.848-.17-1.639-1.187-2.374-1.582a5.862,5.862,0,0,1-2.317-1.582c-.565-.735-2.091-4.521-1.865-6.1.283-1.582,2.091-4.578.961-5.086s-1.356,1.13-1.469,2.317-.283,1.865-.565,1.921-1.017-1.921-1.582-1.187a1.338,1.338,0,0,0,.057,1.752c.339.339,1.526,1.808,1.356,2.091s-3.052-1.356-3.56-.565,1.526,1.752,2.543,1.752a2.37,2.37,0,0,1,2.091,2.26c.113,1.243,1.469,1.074,1.582,1.7.057.678-.226,1.017-1.074.678-.848-.283-3.052-2.317-3.73-.565-.622,1.752,2.374,1.582,4.069,1.808s4.182-.339,4.521,1.13-2.034.9-1.7,1.978,3.052-.339,3.447-.735c.4-.452,2.091-.452,2.939.113s3.56,1.469,3.052,2.487-1.13.057-1.865-.057-3.956-.9-3.9,0c.113.848,2.882,1.356,3.956,1.3s3.334-.057,4.182,4.069c0,0,.848,1.243,1.469,1.469s.848.565.678.848c-.226.283-3.673-.791-4.747-1.3-1.13-.509-3.052-2.882-5.2-3.108-2.091-.169-2.43-1.921-3.673-1.921s-3.052-.622-3.9-.283-1.865-1.469-1.017-3.221-.848-2.2-1.074-1.582-.4,2.2-1.243,2.147-1.413-1.808-1.582-4.125-1.187-7.064-1.808-7.912-.113-4.408.283-4.8,3.447-6.5,3.052-7.742-2.2-6.047-3.56-4.747,1.3,2.826,1.582,4.352.791,3.278-.169,3.5-1.13-2.713-2.148-3.278-4.973-2.769-4.747-4.8c.226-1.978-.056-2.374-.848-2.2s.113,2.543-1.3,2.6-3.052-3.165-3.956-2.374c-.9.848,1.7,4.125,3.73,4.295a8.641,8.641,0,0,1,7.008,7.855s-.9,2.713-.678,3.843-1.356,1.017-2.091.283c-.735-.678-2.034-3.73-.509-5.99,1.469-2.261-.452-2.6-.9-1.752s-.057,1.582-.509,1.469-1.752-2.6-2.826-3.052-2.656-.9-2.656.057.226,1.7,2.543,1.469,1.582,5.821,2.487,6.951,4.012,2.713,4.634,3.617c.565.9,1.808,3.73,1.017,4.125s-2.826-3.052-3.956-.9,1.243.735,2.261,1.469c1.017.791,3.221,2.374,2.713,4.238s.565,2.6.509,3c-.057.452-3.9-3.617-4.408-4.973a44.015,44.015,0,0,0-3.673-5.821c-.452-.509.056-2.939-.791-4.295s-2.317-4.634-3.165-4.8-2.487-1.865-2.656-.735c-.17,1.187,1.243,2.826,2.034,3.221.848.452,1.752,1.017,1.582,1.752-.17.791-4.182-2.317-4.295-.848-.113,1.526,2.317,1.922,3.73,2.091s1.187.4,1.413,1.017.622,2.091-.452,1.978c-1.017-.057-1.865-.791-2.6-1.017a13.159,13.159,0,0,1-3.391-2.26c-.565-.622.113-1.865-.565-2.6a6.118,6.118,0,0,1-1.017-2.034c-.226-.452-1.865-2.43-3.221-1.808s-.339,1.639.283,1.921,1.752,1.3,1.808,1.752.113,1.582.565,1.865c.4.283,1.808,1.7,1.582,1.978s-2.374-.678-3.108-1.808c-.791-1.13-3.052-4.747-3.956-3.334s1.243,1.243.565,1.7-5.2-2.487-5.538-.4c-.339,2.034,2.826,1.808,4.295,1.865a6.092,6.092,0,0,1,4.634,2.261c1.639,1.808,3.673.226,3.56,1.413-.057,1.187-2.091.622-3.956-.056-1.921-.678-2.487-1.074-2.543-.509-.056.622,1.808,3.447,5.256,2.317a4.331,4.331,0,0,1,2.034.226c1.187.339.961-.9,1.808-1.187.791-.283,4.917,1.356,5.538,2.2.622.791,2.147,3.165,1.865,3.334s-5.877-2.034-6.838-1.978-6.669-.226-8.025-1.074-3.278-4.747-4.069-4.86a1.181,1.181,0,0,0-1.3,1.13c.056.452,1.752,1.243,2.091,2.6s2.374,1.7,2.374,2.034-1.921,1.3-3.278,1.074c-1.3-.226-.961-1.639-1.356-2.2-.339-.565-.622-2.26-1.526-3.052-.9-.735-3.108-2.2-3.56-.961s2.374,1.526,2.091,2.6c-.226,1.074-2.543-.791-2.826.226-.339,1.017,1.187,1.639,2.487,1.7a2.346,2.346,0,0,1,2.26,1.582c.509,1.017.622.565.622.735a4.74,4.74,0,0,1-3.786-1.017c-1.3-1.243-1.7-1.13-2.374-1.921s-2.374-.961-2.374-.17c.057.791.735.509.735.961s-3.052.4-2.261,1.922c.735,1.526,1.639-.113,2.487-.283.9-.17,3,0,2.939.622s-4.069.961-3.617,1.921c.452.9,2.2.452,2.769.226.565-.283,1.808-1.526,2.939-1.356s1.413.961,2.317,1.017,2.487-.735,2.713-.339c.226.339-.848.735-.961,1.187s-.226,1.3-.678,1.582-3.447-.169-4.465.057-3.221.509-2.656,1.469c.565.9,2.091.452,3.221,0s3,.226,4.069-.226c1.017-.452,3.165-4.465,4.578-4.973a24.239,24.239,0,0,1,6.782-.622c1.017.226,1.526.169,1.356.452s-1.7.565-2.148,1.187-.678,2.769-1.469,3.221-5.256-1.074-4.747.848,4.069.622,4.917.169,1.017.113.678.622c-.4.509-1.639,1.978-1.187,2.034a5.218,5.218,0,0,0,3.73-3.391c.735-2.374,1.413-3.334,3.956-3.052s4.012-.339,5.934,2.374,5.2,4.634,5.99,4.747,1.356.848.622,1.413-2.487.452-3.391,1.752c-.961,1.243-2.034,1.639-2.6,1.356s-1.808-1.017-1.3-3.165-2.374-4.691-2.939-5.03a9.85,9.85,0,0,1-1.526-1.752c-.226-.226-.9-.283-.961.057s.283,2.317.9,2.713,3.165,1.526,2.939,3.108-.113.9-1.13.4-1.187-1.356-1.978-1.3a21.4,21.4,0,0,1-4.239-.056c-.961-.226-1.074-.057-1.074.4s.791.565.678.791c-.17.226-4.182,1.243-2.656,2.317s2.374-2.317,5.934-1.582,3.221,1.978,4.352,3.052c1.13,1.13,1.7.678,1.865.961s-.961.791-3.278.848-2.374.452-3.73.678-2.939-.452-3.956-.113a7.191,7.191,0,0,1-3.108.17c-1.074-.113-2.769-1.13-2.826.056-.113,1.187,2.543,1.921,4.691,1.3,0,0,.339,0,.4.113s.339.622-1.356,1.3c-1.7.622-4.747.565-4.352,1.639s3.56.113,4.578-.4a6.893,6.893,0,0,0,2.26-1.865c.509-.678,1.469-1.243,1.639-.622.17.565-1.074,2.091-1.752,2.317s-1.865,2.26-2.091,2.826a2.7,2.7,0,0,1-2.656,1.7,5.255,5.255,0,0,1-3.391-1.017c-.452-.339-3.843-2.034-4.634-.17-.735,1.865,3.447.339,3.5,1.017s-.452.283-.9.4-5.538,2.656-3.56,3.9c1.978,1.187,1.13-1.639,3.447-2.317a16.583,16.583,0,0,1,6.386-.226,3.221,3.221,0,0,1-1.978,1.3c-1.017.17-3.956-.283-5.312,1.639S522.759,754.612,524.567,754.5Z" transform="translate(-512.568 -695.238)"/><path class="c" d="M524.567,754.5c1.3-.057.9-1.13.565-2.034s-.4-.848.113-.9a1.046,1.046,0,0,1,1.017.791c.113.283.339,1.752,1.356,1.808s.4-1.017.4-1.017a5.089,5.089,0,0,0-1.752-1.978c-1.017-.509-.283-1.865.622-1.808.9,0,4.691.283,6.1-3.278,0,0,.565-2.2,1.469-2.091s1.074.4,1.243,1.526c.17,1.187.4.565.509.961s-.17.565.339.848,1.469.961.113,2.769-2.882,2.317-2.26,3.052c.565.735,2.43-1.243,2.43-1.243s2.826-2.543,1.752-4.182c0,0-.509-.678-.339-.678a2.847,2.847,0,0,1,1.808.622c.509.509,1.017,1.356,1.582.622s-.4-1.526-1.187-1.752-4.295-1.582-4.238-3.843a4.4,4.4,0,0,1,2.826-3.9c1.074-.4,2.317-.622,2.317.226-.057.791-.565,1.7.509,2.43s3.334,2.147,2.939,3.9-.283,2.487-2.43,4.012a7.987,7.987,0,0,0-3,4.238c-.4.961-.735,2.43.057,2.882.791.4,1.978.735,1.808-.283s.339-1.752-.226-2.882c-.565-1.074.509-1.865,1.13-1.978s1.3-1.582,2.034-1.526c.678.057.057,2.487,1.017,3.165s2.261,1.7,2.261.339a4.292,4.292,0,0,0-1.187-2.939,2.464,2.464,0,0,1-.226-2.487c.339-.622.283-1.7.9-1.13s1.922,2.713,3.391,2.882c1.413.113,2.43.113,2.487-.622s-.848-.791-1.413-.622-1.752-.4-1.187-1.3.678.283,1.356.283,1.356-.057,1.13-.622a1.687,1.687,0,0,0-2.543-.791c-1.243.9-2.147.509-2.713-.339s-1.3-2.713-2.034-3.391c-.678-.678-2.487-1.922-2.656-2.826-.17-.848,1.356-1.865,2.713-2.147s4.408-1.413,5.595-2.6a11.835,11.835,0,0,1,6.047-2.882,16.455,16.455,0,0,1,6.895,1.469c1.582.961,2.317,1.808,2.091,2.317-.226.565-.9.735-1.187,1.356s-.791,1.865-2.148,1.582-1.413-1.356-.678-1.752c.735-.339,2.6-1.187,1.752-1.865-.848-.622-1.3.452-1.865.565s-.056-1.017-1.017-1.13-1.187.17-1.13.622c.113.452.791.848.9,1.469a5.808,5.808,0,0,1,0,1.978c-.17.565.226,2.2,2.2,1.921,1.978-.339,1.808-.339,2.034,0s-.735,2.374-1.639,2.713-1.978,0-2.769.4c-.735.4-3.73-1.526-4.125-1.752a4.085,4.085,0,0,1-.9-3.278c.4-1.243,1.582-3.73-.113-4.012s-1.808,1.187-1.469,2.261.169,1.921-.4,1.978c-.622.057-1.7-1.3-2.769-.848a6.556,6.556,0,0,1-2.939.791c-1.017-.113-1.865-.169-1.865.509s1.243,1.017,2.713.622c0,0,1.017-.283.4.735s-1.017,3.052-.057,3.052c1.017,0,.678-2.487,1.752-3.278s1.865-1.187,2.6.339,1.639,1.639,1.582,1.978-2.2-.848-3.052-.452-1.808,1.469-.848,1.752,2.091-.622,3-.226,1.413,1.469,3.221.961c0,0,.283-.113,1.13.226a7.37,7.37,0,0,0,3.334-.169c.848-.17,1.074-.283,1.017.113s-3.221,1.752-4.012,1.978a3.2,3.2,0,0,0-1.922,3.391c.17,1.978,1.808,3.9.9,5.086-.961,1.187-1.582-.226-2.882-.339a2.968,2.968,0,0,1-2.317-.961c-.4-.452-2.2-1.582-2.543-.735s1.808,1.582,1.808,2.034-1.469,1.243-.848,1.639,1.865-.848,3.278-.622,2.317,1.187,3.56,1.017,1.469-.113,1.526.17-.452,1.017-1.752,1.13c-1.356.113-2.543.678-1.921,1.413s1.356,0,2.317-.057,4.125-1.3,3.165-4.125-1.978-2.6-2.374-4.352.509-3.617,1.469-3.617,1.017,1.017.9,1.865a3.725,3.725,0,0,0,2.147,3.334c1.469.678,4.182,1.639,3.956,3.447s.735,2.826,1.582,2.148.226-1.243,0-1.582c-.226-.4-1.074-1.413-.4-1.921.678-.452,1.469.791,2.148,1.3a5.606,5.606,0,0,0,4.634,1.074c2.713-.4,3.617.9,3.956-.678.4-1.582-3.108-.113-3.56-.678s.565-1.356,1.639-2.034,1.808-1.13,1.356-1.582a2.541,2.541,0,0,0-3.391,1.187c-.848,1.752-1.017,1.7-1.526,1.7a20.025,20.025,0,0,1-4.634-1.7c-1.7-.848-3.617-1.808-4.634-2.261s-2.2-2.769-.735-4.238,1.865-1.752,1.978-2.656.735-2.769,1.413-2.543,2.091,2.656,2.543,3.673a4.371,4.371,0,0,1,.113,4.069c-.848,1.808.565,4.012,1.752,3.221,1.13-.791-1.582-2.656-.565-3.221s2.261,2.6,3.108,1.582-1.639-2.034-1.526-2.939-1.978-3.956-1.582-4.069,2.317.509,3.843.056c1.582-.452,2.6.509,2.317,2.148-.339,1.639,1.017,1.243,1.187.565s.113-2.939-1.7-3.334a61.772,61.772,0,0,1-5.99-1.582c-1.639-.565-4.069-2.6-2.882-4.691,1.13-2.091,5.764.735,7.008,1.017,1.243.226,6.1,2.713,9.381,1.582s4.465,1.017,4.973-.565,1.3-3.9-1.582-4.521c-2.826-.622-2.034,1.978-4.069,2.487s-6.047,1.413-9.664-4.239c-3.56-5.651-4.465-12.659-.678-13.676a7.172,7.172,0,0,1,2.656.4c.9.452,3.052.961,3.052-.283s-2.26-1.808-3.447-1.3-1.639-.339-1.243-1.074,4.521-7.177,2.43-7.629-2.148,2.543-2.374,2.656c-.283.169-1.13-1.187-.565-3.278.565-2.147.113-2.034-.565-2.091s-1.921,1.582-1.243,3.447c.622,1.865,2.487,5.99-.283,8.251s-1.752,1.921-2.091,3.165c-.283,1.243-.791,1.7-1.074,1.639s-.565-1.413-1.074-1.922a13.78,13.78,0,0,1-2.091-2.882c-.113-.565.452-1.3.4-2.148a12.209,12.209,0,0,1,.565-3.447,6.04,6.04,0,0,0,.226-3.391c-.4-.9-1.582-3.73-2.713-3.334s-.735,2.261-.283,2.882c.452.678,1.639,2.43.17,2.939-1.526.509-.735-1.187-1.752-1.978s-1.7-1.469-1.865-.735a2.816,2.816,0,0,0,1.865,2.882c1.526.735,1.865.339,2.2,1.7.4,1.356,1.413,3-.113,3.447-1.582.452-1.413-2.2-2.43-1.639-1.017.509.057,1.356.735,1.752a9.625,9.625,0,0,1,3.9,5.482,3.774,3.774,0,0,0,1.413,1.582c.848.339.452,1.243-.509.791a17.76,17.76,0,0,0-4.182-1.3c-.848-.17-1.639-1.187-2.374-1.582a5.862,5.862,0,0,1-2.317-1.582c-.565-.735-2.091-4.521-1.865-6.1.283-1.582,2.091-4.578.961-5.086s-1.356,1.13-1.469,2.317-.283,1.865-.565,1.921-1.017-1.921-1.582-1.187a1.338,1.338,0,0,0,.057,1.752c.339.339,1.526,1.808,1.356,2.091s-3.052-1.356-3.56-.565,1.526,1.752,2.543,1.752a2.37,2.37,0,0,1,2.091,2.26c.113,1.243,1.469,1.074,1.582,1.7.057.678-.226,1.017-1.074.678-.848-.283-3.052-2.317-3.73-.565-.622,1.752,2.374,1.582,4.069,1.808s4.182-.339,4.521,1.13-2.034.9-1.7,1.978,3.052-.339,3.447-.735c.4-.452,2.091-.452,2.939.113s3.56,1.469,3.052,2.487-1.13.057-1.865-.057-3.956-.9-3.9,0c.113.848,2.882,1.356,3.956,1.3s3.334-.057,4.182,4.069c0,0,.848,1.243,1.469,1.469s.848.565.678.848c-.226.283-3.673-.791-4.747-1.3-1.13-.509-3.052-2.882-5.2-3.108-2.091-.169-2.43-1.921-3.673-1.921s-3.052-.622-3.9-.283-1.865-1.469-1.017-3.221-.848-2.2-1.074-1.582-.4,2.2-1.243,2.147-1.413-1.808-1.582-4.125-1.187-7.064-1.808-7.912-.113-4.408.283-4.8,3.447-6.5,3.052-7.742-2.2-6.047-3.56-4.747,1.3,2.826,1.582,4.352.791,3.278-.169,3.5-1.13-2.713-2.148-3.278-4.973-2.769-4.747-4.8c.226-1.978-.056-2.374-.848-2.2s.113,2.543-1.3,2.6-3.052-3.165-3.956-2.374c-.9.848,1.7,4.125,3.73,4.295a8.641,8.641,0,0,1,7.008,7.855s-.9,2.713-.678,3.843-1.356,1.017-2.091.283c-.735-.678-2.034-3.73-.509-5.99,1.469-2.261-.452-2.6-.9-1.752s-.057,1.582-.509,1.469-1.752-2.6-2.826-3.052-2.656-.9-2.656.057.226,1.7,2.543,1.469,1.582,5.821,2.487,6.951,4.012,2.713,4.634,3.617c.565.9,1.808,3.73,1.017,4.125s-2.826-3.052-3.956-.9,1.243.735,2.261,1.469c1.017.791,3.221,2.374,2.713,4.238s.565,2.6.509,3c-.057.452-3.9-3.617-4.408-4.973a44.015,44.015,0,0,0-3.673-5.821c-.452-.509.056-2.939-.791-4.295s-2.317-4.634-3.165-4.8-2.487-1.865-2.656-.735c-.17,1.187,1.243,2.826,2.034,3.221.848.452,1.752,1.017,1.582,1.752-.17.791-4.182-2.317-4.295-.848-.113,1.526,2.317,1.922,3.73,2.091s1.187.4,1.413,1.017.622,2.091-.452,1.978c-1.017-.057-1.865-.791-2.6-1.017a13.159,13.159,0,0,1-3.391-2.26c-.565-.622.113-1.865-.565-2.6a6.118,6.118,0,0,1-1.017-2.034c-.226-.452-1.865-2.43-3.221-1.808s-.339,1.639.283,1.921,1.752,1.3,1.808,1.752.113,1.582.565,1.865c.4.283,1.808,1.7,1.582,1.978s-2.374-.678-3.108-1.808c-.791-1.13-3.052-4.747-3.956-3.334s1.243,1.243.565,1.7-5.2-2.487-5.538-.4c-.339,2.034,2.826,1.808,4.295,1.865a6.092,6.092,0,0,1,4.634,2.261c1.639,1.808,3.673.226,3.56,1.413-.057,1.187-2.091.622-3.956-.056-1.921-.678-2.487-1.074-2.543-.509-.056.622,1.808,3.447,5.256,2.317a4.331,4.331,0,0,1,2.034.226c1.187.339.961-.9,1.808-1.187.791-.283,4.917,1.356,5.538,2.2.622.791,2.147,3.165,1.865,3.334s-5.877-2.034-6.838-1.978-6.669-.226-8.025-1.074-3.278-4.747-4.069-4.86a1.181,1.181,0,0,0-1.3,1.13c.056.452,1.752,1.243,2.091,2.6s2.374,1.7,2.374,2.034-1.921,1.3-3.278,1.074c-1.3-.226-.961-1.639-1.356-2.2-.339-.565-.622-2.26-1.526-3.052-.9-.735-3.108-2.2-3.56-.961s2.374,1.526,2.091,2.6c-.226,1.074-2.543-.791-2.826.226-.339,1.017,1.187,1.639,2.487,1.7a2.346,2.346,0,0,1,2.26,1.582c.509,1.017.622.565.622.735a4.74,4.74,0,0,1-3.786-1.017c-1.3-1.243-1.7-1.13-2.374-1.921s-2.374-.961-2.374-.17c.057.791.735.509.735.961s-3.052.4-2.261,1.922c.735,1.526,1.639-.113,2.487-.283.9-.17,3,0,2.939.622s-4.069.961-3.617,1.921c.452.9,2.2.452,2.769.226.565-.283,1.808-1.526,2.939-1.356s1.413.961,2.317,1.017,2.487-.735,2.713-.339c.226.339-.848.735-.961,1.187s-.226,1.3-.678,1.582-3.447-.169-4.465.057-3.221.509-2.656,1.469c.565.9,2.091.452,3.221,0s3,.226,4.069-.226c1.017-.452,3.165-4.465,4.578-4.973a24.239,24.239,0,0,1,6.782-.622c1.017.226,1.526.169,1.356.452s-1.7.565-2.148,1.187-.678,2.769-1.469,3.221-5.256-1.074-4.747.848,4.069.622,4.917.169,1.017.113.678.622c-.4.509-1.639,1.978-1.187,2.034a5.218,5.218,0,0,0,3.73-3.391c.735-2.374,1.413-3.334,3.956-3.052s4.012-.339,5.934,2.374,5.2,4.634,5.99,4.747,1.356.848.622,1.413-2.487.452-3.391,1.752c-.961,1.243-2.034,1.639-2.6,1.356s-1.808-1.017-1.3-3.165-2.374-4.691-2.939-5.03a9.85,9.85,0,0,1-1.526-1.752c-.226-.226-.9-.283-.961.057s.283,2.317.9,2.713,3.165,1.526,2.939,3.108-.113.9-1.13.4-1.187-1.356-1.978-1.3a21.4,21.4,0,0,1-4.239-.056c-.961-.226-1.074-.057-1.074.4s.791.565.678.791c-.17.226-4.182,1.243-2.656,2.317s2.374-2.317,5.934-1.582,3.221,1.978,4.352,3.052c1.13,1.13,1.7.678,1.865.961s-.961.791-3.278.848-2.374.452-3.73.678-2.939-.452-3.956-.113a7.191,7.191,0,0,1-3.108.17c-1.074-.113-2.769-1.13-2.826.056-.113,1.187,2.543,1.921,4.691,1.3,0,0,.339,0,.4.113s.339.622-1.356,1.3c-1.7.622-4.747.565-4.352,1.639s3.56.113,4.578-.4a6.893,6.893,0,0,0,2.26-1.865c.509-.678,1.469-1.243,1.639-.622.17.565-1.074,2.091-1.752,2.317s-1.865,2.26-2.091,2.826a2.7,2.7,0,0,1-2.656,1.7,5.255,5.255,0,0,1-3.391-1.017c-.452-.339-3.843-2.034-4.634-.17-.735,1.865,3.447.339,3.5,1.017s-.452.283-.9.4-5.538,2.656-3.56,3.9c1.978,1.187,1.13-1.639,3.447-2.317a16.583,16.583,0,0,1,6.386-.226,3.221,3.221,0,0,1-1.978,1.3c-1.017.17-3.956-.283-5.312,1.639S522.759,754.612,524.567,754.5Z" transform="translate(-512.568 -695.238)"/></g><g transform="translate(248.596 453.75)"><path d="M347.559,721.96l3.052.565,3.447-1.074,3.617-.791,5.369,4.747,4.8.848,2.091,2.317,1.3,5.256.9-4.86-1.187-3.843,5.256-6.725,8.42,16.106-1.187,11.811s-2.317,5.2-2.2,6.725a22.615,22.615,0,0,1-.283,4.012l-9.72,2.034-23.679,2.2-11.077-2.2L334.9,747.73l1.7-5.369,6.951-13.45.452-4.182Z" transform="translate(-330.699 -714.932)"/><g transform="translate(0)"><path d="M330.65,755.614a11.339,11.339,0,0,0-1.469-4.973,9.424,9.424,0,0,1-1.639-6.669c.283-2.713,3.56-3.617,5.821-5.425s1.187-3.278,2.656-3.447a1.935,1.935,0,0,1,1.808,2.374c-.283,2.317-3.334,3.786-3.334,3.786s-2.6,1.187-3.447,2.6a9.265,9.265,0,0,0,0,7.629" transform="translate(-327.467 -722.194)"/><path d="M336.39,759.666c-4.182-7.121,3.334-18.593,5.877-21.871,2.543-3.221,3.447-9.155,2.091-10.624s-2.2.113-2.43,3a39.534,39.534,0,0,1-1.3,6.782,11.08,11.08,0,0,1-1.921,2.374c-1.3,1.243-5.2,5.482-5.538,10.285a33.507,33.507,0,0,0,1.526,10.625" transform="translate(-329.929 -718.503)"/><path d="M349.3,731.742s4.408-1.639,4.238-8.138a7.979,7.979,0,0,0-1.526-3.617c-1.243-1.469-2.091-7.064.961-7.29,3.052-.17,1.3,5.03,2.43,6.386" transform="translate(-336.962 -712.45)"/><path d="M341.175,757.317a15.538,15.538,0,0,1,0-8.194c1.243-4.3,3.447-8.534,6.1-11.02s4.747-5.821,3.956-9.946,1.017-4.8,1.017-4.8,2.43-1.865,4.069,3.391a8.137,8.137,0,0,1,.17,2.939" transform="translate(-333.188 -716.946)"/><path d="M347.184,772.031s-4.238-2.543-2.656-10.4S353,751.46,355.1,747.9" transform="translate(-334.732 -727.761)"/><path d="M366.3,723.97s.452-2.939,3.447-.848" transform="translate(-344.354 -716.659)"/><path d="M351.407,775.793s-7.29-8.816,0-18.593" transform="translate(-336.469 -731.805)"/><path d="M356.826,772.814a47.118,47.118,0,0,1-1.187-12.659c.452-5.99,2.713-6.1,3-9.155" transform="translate(-339.684 -729.109)"/><path d="M360.328,776.188s-3.221-11.077,2.713-18.988" transform="translate(-341.378 -731.805)"/><path d="M361.992,765.051s-.961-.9-.565-3.5,2.882-5.312,3.278-8.816-2.2-8.025-2.091-12.489,4.069-8.873,5.99-7.855.678,4.521-.4,6.047c-1.074,1.582-2.374,3.617-1.356,11.642s-3.391,8.929-3.278,12.094a8.938,8.938,0,0,0,.452,2.882" transform="translate(-342.193 -720.95)"/><path d="M372.974,723.926a4.169,4.169,0,0,0-.565-2.656c-.791-1.187-1.413-5.595-.791-6.895a3.286,3.286,0,0,1,2.826-2.091c1.3-.113,1.978.226,2.148,1.3.113,1.074-1.469,4.069-1.3,5.764s1.582,5.595,1.017,8.42c-.509,2.826-5.425,8.816-5.708,11.3" transform="translate(-346.224 -712.263)"/><path d="M370.469,773.628a4.633,4.633,0,0,1,.509-3.673c1.13-2.034,2.2-3.786,2.543-6.1.339-2.26.509-8.025-1.752-9.551" transform="translate(-346.093 -730.544)"/><path d="M374.44,771.392a8.3,8.3,0,0,1,.4-3.9c.735-1.978,4.238-6.895,3.673-11.529-.622-4.691-3.5-5.764-3.5-5.764" transform="translate(-347.86 -728.761)"/><path d="M380.3,730.039s1.356-3.5,3.221-1.582a2.983,2.983,0,0,1,.678,2.713" transform="translate(-350.443 -719.055)"/><path d="M378.4,745.1a49.79,49.79,0,0,0,1.865,5.256c.9,1.978,2.147,5.425-.961,13.789" transform="translate(-349.616 -726.543)"/><path d="M376.586,757.569s-.339-1.865,1.865-4.465a15.524,15.524,0,0,0,2.487-14.015c-1.921-5.425-.565-8.816,1.3-11.472a8.742,8.742,0,0,0,1.582-5.99c-.057-.848,1.7-3.9,3.221-1.582,1.526,2.261,1.3,5.03-.509,9.042-1.752,4.012-4.069,5.708-2.656,12.376s-3.73,11.359-4.578,15.2" transform="translate(-348.819 -715.277)"/><path d="M394.5,735.983s1.752-.283,1.921,1.187" transform="translate(-356.618 -722.569)"/><path d="M396.874,755.2a6.245,6.245,0,0,0-2.374,4.238c0,2.543,2.43,5.99,2.6,8.081a8.241,8.241,0,0,1-1.017,5.2" transform="translate(-356.618 -730.935)"/><path d="M392.682,771.2s-5.482,4.238-5.482,9.607" transform="translate(-353.443 -737.893)"/><path d="M396.469,774.9a9.454,9.454,0,0,0-2.769,6.725" transform="translate(-356.269 -739.502)"/><path d="M403.014,762.905s2.091-5.877,2.148-9.155c.113-3.278-5.425-7.855-5.482-11.642,0-3.786,1.752-8.025,0-8.534s-4.578,5.03-4.295,7.064c0,0-.226,3.334,4.917,9.155s1.413,11.077-.283,13.111" transform="translate(-356.994 -721.517)"/><path d="M402.581,761.5a5.883,5.883,0,0,0-.9,3.73c.226,2.147,1.13,4.521,1.017,6.047a12.994,12.994,0,0,1-.791,4.012" transform="translate(-359.726 -733.675)"/><path d="M406.368,766.6s-1.921,1.865.113,6.725" transform="translate(-361.421 -735.893)"/><path d="M403.6,742.5s3.673,1.469,4.069,8.138" transform="translate(-360.575 -725.412)"/><path d="M398.766,730.983s-1.7-3.391-.565-5.03c1.13-1.582,1.865-1.187,1.865-1.187" transform="translate(-358.058 -717.681)"/><path d="M406.374,741.367a15.321,15.321,0,0,1,.791-3.447,11.582,11.582,0,0,0,.509-5.934,19.75,19.75,0,0,0-1.3-3.9c-.678-1.526-4.691-5.425-4.3-8.138s3.447-6.612,5.312-5.03c1.921,1.582,1.187,3.786.678,5.425" transform="translate(-359.902 -713.259)"/><path d="M418.881,751.9s-3.278,5.2-2.317,10.172" transform="translate(-366.136 -729.5)"/><path d="M411.052,777s1.582,1.017-.452,5.538" transform="translate(-363.619 -740.415)"/><path d="M414.369,758.6a7.787,7.787,0,0,1,1.017-7.29,23.749,23.749,0,0,0,3.278-8.364c.283-7.064-1.13-10.342-3.56-14.354-2.43-3.956-5.651-4.578-6.838-2.939-1.13,1.639,1.243,4.295,1.243,4.295s7.008,7.629,5.99,13.45-2.882,6.443-3.278,8.081.226,5.482.226,5.482" transform="translate(-362.471 -717.717)"/><path d="M421.9,770.4a14.441,14.441,0,0,1,1.017,4.069" transform="translate(-368.533 -737.545)"/><path d="M426.4,743s3.786-5.934,5.086-2.374-3.447,6.838-4.747,7.177" transform="translate(-370.49 -724.102)"/></g><g transform="translate(0)"><path class="a" d="M403.6,742.5s3.673,1.469,4.069,8.138" transform="translate(-360.575 -725.412)"/><path class="a" d="M330.65,755.614a11.339,11.339,0,0,0-1.469-4.973,9.424,9.424,0,0,1-1.639-6.669c.283-2.713,3.56-3.617,5.821-5.425s1.187-3.278,2.656-3.447a1.935,1.935,0,0,1,1.808,2.374c-.283,2.317-3.334,3.786-3.334,3.786s-2.6,1.187-3.447,2.6a9.265,9.265,0,0,0,0,7.629" transform="translate(-327.467 -722.194)"/><path class="a" d="M336.39,759.666c-4.182-7.121,3.334-18.593,5.877-21.871,2.543-3.221,3.447-9.155,2.091-10.624s-2.2.113-2.43,3a39.534,39.534,0,0,1-1.3,6.782,11.08,11.08,0,0,1-1.921,2.374c-1.3,1.243-5.2,5.482-5.538,10.285a33.507,33.507,0,0,0,1.526,10.625" transform="translate(-329.929 -718.503)"/><path class="a" d="M349.3,731.742s4.408-1.639,4.238-8.138a7.979,7.979,0,0,0-1.526-3.617c-1.243-1.469-2.091-7.064.961-7.29,3.052-.17,1.3,5.03,2.43,6.386" transform="translate(-336.962 -712.45)"/><path class="a" d="M341.175,757.317a15.538,15.538,0,0,1,0-8.194c1.243-4.3,3.447-8.534,6.1-11.02s4.747-5.821,3.956-9.946,1.017-4.8,1.017-4.8,2.43-1.865,4.069,3.391a8.137,8.137,0,0,1,.17,2.939" transform="translate(-333.188 -716.946)"/><path class="a" d="M347.184,772.031s-4.238-2.543-2.656-10.4S353,751.46,355.1,747.9" transform="translate(-334.732 -727.761)"/><path class="a" d="M366.3,723.97s.452-2.939,3.447-.848" transform="translate(-344.354 -716.659)"/><path class="a" d="M351.407,775.793s-7.29-8.816,0-18.593" transform="translate(-336.469 -731.805)"/><path class="a" d="M356.826,772.814a47.118,47.118,0,0,1-1.187-12.659c.452-5.99,2.713-6.1,3-9.155" transform="translate(-339.684 -729.109)"/><path class="a" d="M360.328,776.188s-3.221-11.077,2.713-18.988" transform="translate(-341.378 -731.805)"/><path class="a" d="M361.992,765.051s-.961-.9-.565-3.5,2.882-5.312,3.278-8.816-2.2-8.025-2.091-12.489,4.069-8.873,5.99-7.855.678,4.521-.4,6.047c-1.074,1.582-2.374,3.617-1.356,11.642s-3.391,8.929-3.278,12.094a8.938,8.938,0,0,0,.452,2.882" transform="translate(-342.193 -720.95)"/><path class="a" d="M372.974,723.926a4.169,4.169,0,0,0-.565-2.656c-.791-1.187-1.413-5.595-.791-6.895a3.286,3.286,0,0,1,2.826-2.091c1.3-.113,1.978.226,2.148,1.3.113,1.074-1.469,4.069-1.3,5.764s1.582,5.595,1.017,8.42c-.509,2.826-5.425,8.816-5.708,11.3" transform="translate(-346.224 -712.263)"/><path class="a" d="M370.469,773.628a4.633,4.633,0,0,1,.509-3.673c1.13-2.034,2.2-3.786,2.543-6.1.339-2.26.509-8.025-1.752-9.551" transform="translate(-346.093 -730.544)"/><path class="a" d="M374.44,771.392a8.3,8.3,0,0,1,.4-3.9c.735-1.978,4.238-6.895,3.673-11.529-.622-4.691-3.5-5.764-3.5-5.764" transform="translate(-347.86 -728.761)"/><path class="a" d="M380.3,730.039s1.356-3.5,3.221-1.582a2.983,2.983,0,0,1,.678,2.713" transform="translate(-350.443 -719.055)"/><path class="a" d="M378.4,745.1a49.79,49.79,0,0,0,1.865,5.256c.9,1.978,2.147,5.425-.961,13.789" transform="translate(-349.616 -726.543)"/><path class="a" d="M376.586,757.569s-.339-1.865,1.865-4.465a15.524,15.524,0,0,0,2.487-14.015c-1.921-5.425-.565-8.816,1.3-11.472a8.742,8.742,0,0,0,1.582-5.99c-.057-.848,1.7-3.9,3.221-1.582,1.526,2.261,1.3,5.03-.509,9.042-1.752,4.012-4.069,5.708-2.656,12.376s-3.73,11.359-4.578,15.2" transform="translate(-348.819 -715.277)"/><path class="a" d="M394.5,735.983s1.752-.283,1.921,1.187" transform="translate(-356.618 -722.569)"/><path class="a" d="M396.874,755.2a6.245,6.245,0,0,0-2.374,4.238c0,2.543,2.43,5.99,2.6,8.081a8.241,8.241,0,0,1-1.017,5.2" transform="translate(-356.618 -730.935)"/><path class="a" d="M392.682,771.2s-5.482,4.238-5.482,9.607" transform="translate(-353.443 -737.893)"/><path class="a" d="M396.469,774.9a9.454,9.454,0,0,0-2.769,6.725" transform="translate(-356.269 -739.502)"/><path class="a" d="M403.014,762.905s2.091-5.877,2.148-9.155c.113-3.278-5.425-7.855-5.482-11.642,0-3.786,1.752-8.025,0-8.534s-4.578,5.03-4.295,7.064c0,0-.226,3.334,4.917,9.155s1.413,11.077-.283,13.111" transform="translate(-356.994 -721.517)"/><path class="a" d="M402.581,761.5a5.883,5.883,0,0,0-.9,3.73c.226,2.147,1.13,4.521,1.017,6.047a12.994,12.994,0,0,1-.791,4.012" transform="translate(-359.726 -733.675)"/><path class="a" d="M406.368,766.6s-1.921,1.865.113,6.725" transform="translate(-361.421 -735.893)"/><path class="a" d="M398.766,730.983s-1.7-3.391-.565-5.03c1.13-1.582,1.865-1.187,1.865-1.187" transform="translate(-358.058 -717.681)"/><path class="a" d="M406.374,741.367a15.321,15.321,0,0,1,.791-3.447,11.582,11.582,0,0,0,.509-5.934,19.75,19.75,0,0,0-1.3-3.9c-.678-1.526-4.691-5.425-4.3-8.138s3.447-6.612,5.312-5.03c1.921,1.582,1.187,3.786.678,5.425" transform="translate(-359.902 -713.259)"/><path class="a" d="M418.881,751.9s-3.278,5.2-2.317,10.172" transform="translate(-366.136 -729.5)"/><path class="a" d="M411.052,777s1.582,1.017-.452,5.538" transform="translate(-363.619 -740.415)"/><path class="a" d="M414.369,758.6a7.787,7.787,0,0,1,1.017-7.29,23.749,23.749,0,0,0,3.278-8.364c.283-7.064-1.13-10.342-3.56-14.354-2.43-3.956-5.651-4.578-6.838-2.939-1.13,1.639,1.243,4.295,1.243,4.295s7.008,7.629,5.99,13.45-2.882,6.443-3.278,8.081.226,5.482.226,5.482" transform="translate(-362.471 -717.717)"/><path class="a" d="M421.9,770.4a14.441,14.441,0,0,1,1.017,4.069" transform="translate(-368.533 -737.545)"/><path class="a" d="M426.4,743s3.786-5.934,5.086-2.374-3.447,6.838-4.747,7.177" transform="translate(-370.49 -724.102)"/></g></g><g transform="translate(291.056 387.035)"><path d="M403.273,665.468s5.312-14.128,14.185-11.3,8.138,16.5,8.138,16.5-1.413,6.838-.565,9.551,4.8,9.551,18.2,10.059l5.934.509s.622.452.565-1.017c0-1.413-1.752-4.069-8.533-10.794s-6.725-15.259-5.143-19.214,5.99-10.624.226-16.558c-5.821-5.934-10.851-9.72-8.76-18.762,0,0,.339,11.924,14.806,16.163,0,0,9.155,3.843,5.595,18.2,0,0-10.851,13.62,3.73,25.148,0,0,4.012,2.882,6.612,12.828,0,0,6.386,10,4.408.848a29.992,29.992,0,0,1-6.16-26s-.791-1.356,7.177-15.937c7.968-14.524-4.352-24.075-5.03-34.756-.622-10.681,3.221-14.3,11.246-17.123,0,0,7.686-2.6,8.364-4.973,0,0,.565-1.017-.509-1.074s-3.165-.169-3-.678,2.656-3.278,4.125-2.826,3.108,3.391,3,8.76-2.6,7.177-8.59,11.529-4.408,9.664-4.578,13.563,3.786,6.047,4.012,11.19.056,12.32-5.764,24.527-4.578,17.519-.4,22.888c0,0,1.187,1.526,1.921,2.43s1.243.226,1.356,0,5.086-3.108,5.877-8.194c.735-5.086,1.413-7.629-.169-14.863s.791-12.715,7.234-17.293c6.386-4.578,9.042-17.858,8.194-23.283s-2.882-10.568-1.921-10.285,7.968,1.639,8.76,15.937c0,0,1.7,8.76-7.968,14.467a47.319,47.319,0,0,0-6.273,34.586s1.017,15.033-10.907,20.74c0,0-1.356,6.725-2.826,8.477l-2.656,3.334-7.573-1.808s1.356-4.747-7.8-10.116-16.5-6.782-20.062-6.782-12.094-2.656-15.711-7.912-1.187-10.172-.961-11.529,1.865-9.325-.735-12.715c0,0-.791-1.639-3.617-.452C407.85,663.038,402.764,666.712,403.273,665.468Z" transform="translate(-402.877 -594.212)"/><g transform="translate(0 0.198)"><path class="a" d="M461.261,748.184c-3.391-6.951-4.691-6.443-9.042-9.946s-14.185.056-22.1-5.369-4.012-7.742-9.1-20.119c-5.03-12.32-18.423-.339-18.423-.339s5.821-16.558,16.106-11.7,5.482,24.188,5.482,24.188" transform="translate(-402.6 -640.335)"/><path class="a" d="M420.9,712.9s4.634,1.978,1.356,15.88,14.185,17.18,19.61,17.519c5.369.339,22.379,6.273,25.487,14.637" transform="translate(-410.558 -646.023)"/><path class="a" d="M429.1,714.7s2.147.9,1.356,10.964,1.865,15.485,15.089,18.536,22.436,6.895,24.753,13.45" transform="translate(-414.124 -646.806)"/><path class="a" d="M467.893,714.346c.678-2.148-1.526-4.578-1.526-4.578-8.194-8.816-11.811-11.133-13-19.893s9.946-15.824-.565-24.922S445.853,648,445.853,648s.9,11.3,12.376,15.089,9.381,17.915,7.064,21.588-7.064,11.472,4.182,22.153c0,0,7.064,8.138,6.612,12.885" transform="translate(-421.157 -617.8)"/><path class="a" d="M460.7,680.1s8.42,2.713,8.477,13.676c0,10.964-4.069,6.669-1.865,17.124s11.924,13.394,11.981,20.175" transform="translate(-427.866 -631.76)"/><path class="a" d="M501.666,691.786c-3.108-7.912-2.147-13.394,3.786-21.588a53.272,53.272,0,0,0,7.968-18.254s3.617-8.986.17-15.88-3.052-8.081-2.882-13.789,9.325-10.4,11.3-12.942,2.6-7.121,1.074-12.037c-1.526-4.973-4.8-1.808-5.03-.961-.169.848-2.148,1.469-2.148,1.469s10.172-1.526,7.064,9.494" transform="translate(-444.927 -594.562)"/><path class="a" d="M521.18,601.4s.226,2.882-11.359,6.669-9.89,21.418-3.786,28.144c6.1,6.669,7.968,12.32,7.629,20.119" transform="translate(-445.509 -597.535)"/><path class="a" d="M527.961,603.6s.509,4.012-9.946,10.342-1.356,23.17-1.808,30.234" transform="translate(-450.595 -598.492)"/><path class="a" d="M502.433,659.4s3.9,7.629,4.238,15.428-8.364,18.649-9.381,24.018-1.865,15.372,2.882,21.814,4.973,13.055,3.786,15.2" transform="translate(-443.433 -622.758)"/><path class="a" d="M504.086,737.1s-1.187,4.973,3.165,15.767c0,0,5.312,10.059,3.956,16.784" transform="translate(-446.669 -656.547)"/><path class="a" d="M510.837,725.1s-3.108,9.325,0,15.541,7.234,7.4,7.968,14.128-3.278,12.772-3.278,12.772" transform="translate(-449.068 -651.329)"/><path class="a" d="M534.22,667.36c17.01-17.35,7.46-35.66,7.46-35.66s10.172.452,9.438,19.949c0,0,.17,7.008-13.846,13.563s-7.234,23.679-4.973,30.8-1.469,18.31-6.5,22.549" transform="translate(-456.176 -610.712)"/><path class="a" d="M544.267,684.5a43.51,43.51,0,0,0-7.121,31.026c2.882,17.971-9.946,25.261-9.946,25.261" transform="translate(-456.785 -633.673)"/><path class="a" d="M526.76,729.1s2.487,15.372-7.46,19.328" transform="translate(-453.349 -653.068)"/><path class="a" d="M532.351,747s-2.769,11.133-6.951,15.315" transform="translate(-456.002 -660.852)"/><path class="a" d="M553.9,631.7s11.416,6.555,1.526,30.008" transform="translate(-468.396 -610.712)"/></g></g><g transform="translate(395.546 428.313)"><path d="M622.766,684.216l5.312.961,6.047-1.921,6.329-1.413,9.381,8.364,8.42,1.526,3.73,4.069,2.317,9.212,1.582-8.534-2.091-6.725L673.006,678l14.806,28.257-2.034,20.8s-4.069,9.1-3.843,11.811a35.887,35.887,0,0,1-.509,7.008l-17.067,3.56-41.594,3.9-19.44-3.9L600.5,729.484l3.052-9.438,12.207-23.622.848-7.347Z" transform="translate(-593.15 -671.926)"/><path d="M593.092,743.3a20.116,20.116,0,0,0-2.6-8.76c-2.487-4.125-3.334-6.951-2.882-11.7.509-4.747,6.216-6.329,10.285-9.551s2.091-5.708,4.691-5.99c0,0,3.617.113,3.108,4.182s-5.821,6.669-5.821,6.669-4.578,2.091-6.047,4.634-2.317,8.307,0,13.394" transform="translate(-587.494 -684.668)"/><path d="M603.209,750.364c-7.347-12.546,5.877-32.665,10.342-38.372s6.047-16.05,3.617-18.649-3.9.226-4.238,5.2a73.824,73.824,0,0,1-2.317,11.981,17.627,17.627,0,0,1-3.391,4.182c-2.261,2.147-9.155,9.607-9.664,18.084s2.713,18.649,2.713,18.649" transform="translate(-591.847 -678.17)"/><path d="M625.9,701.436s7.686-2.939,7.46-14.241a13.132,13.132,0,0,0-2.713-6.329c-2.2-2.543-3.673-12.433,1.7-12.772,5.425-.339,2.26,8.816,4.3,11.19" transform="translate(-604.196 -667.614)"/><path d="M611.546,746.358a26.917,26.917,0,0,1,0-14.354c2.2-7.516,6.047-15.032,10.681-19.384,4.634-4.408,8.307-10.229,6.895-17.463-1.356-7.29,1.808-8.477,1.808-8.477s4.238-3.221,7.121,5.99c0,0,.791,3.5.283,5.143" transform="translate(-597.528 -675.464)"/><path d="M622.242,772.228s-7.46-4.465-4.634-18.254c2.769-13.846,14.919-17.858,18.593-24.075" transform="translate(-600.312 -694.496)"/><path d="M655.7,687.615s.791-5.2,6.047-1.526" transform="translate(-617.155 -674.873)"/><path d="M629.619,778.708s-12.772-15.428-.056-32.608" transform="translate(-603.337 -701.541)"/><path d="M639.185,773.516s-2.882-11.7-2.091-22.21c.848-10.511,4.8-10.738,5.256-16.106" transform="translate(-609.004 -696.801)"/><path d="M645.32,779.5s-5.651-19.384,4.747-33.4" transform="translate(-611.974 -701.541)"/><path d="M648.119,759.857s-1.7-1.582-.961-6.16c.791-4.578,5.03-9.268,5.708-15.485s-3.9-14.128-3.673-21.927c.226-7.855,7.177-15.6,10.511-13.789,3.391,1.752,1.187,7.912-.735,10.681-1.921,2.713-4.182,6.386-2.43,20.514s-5.934,15.654-5.764,21.192a14.52,14.52,0,0,0,.791,5.086" transform="translate(-613.36 -682.463)"/><path d="M667.425,687.681a7.326,7.326,0,0,0-.961-4.634c-1.356-2.034-2.487-9.833-1.356-12.15a5.8,5.8,0,0,1,5.03-3.617c2.317-.17,3.5.452,3.73,2.317s-2.6,7.177-2.317,10.116,2.713,9.833,1.808,14.807S663.865,710.06,663.3,714.3" transform="translate(-620.46 -667.253)"/><path d="M662.976,774.951a8.186,8.186,0,0,1,.9-6.443c1.978-3.56,3.843-6.669,4.465-10.681.565-4.012.9-14.128-3.052-16.728" transform="translate(-620.193 -699.367)"/><path d="M669.986,770.9a14.262,14.262,0,0,1,.678-6.838c1.3-3.447,7.516-12.037,6.443-20.288s-6.16-10.172-6.16-10.172" transform="translate(-623.303 -696.105)"/><path d="M680.2,698.264s2.43-6.16,5.651-2.826a5.263,5.263,0,0,1,1.243,4.8" transform="translate(-627.809 -679.079)"/><path d="M677,724.8a79.72,79.72,0,0,0,3.334,9.212c1.639,3.447,3.73,9.494-1.639,24.244" transform="translate(-626.418 -692.278)"/><path d="M673.777,746.763s-.565-3.278,3.221-7.855c3.843-4.578,7.742-15.032,4.408-24.583s-.961-15.485,2.317-20.119a14.968,14.968,0,0,0,2.713-10.568c-.169-1.469,3-6.782,5.651-2.769s2.26,8.816-.848,15.88-7.121,10-4.691,21.7-6.555,19.949-8.081,26.731" transform="translate(-625.003 -672.534)"/><path d="M705.3,708.768s3.108-.509,3.391,2.034" transform="translate(-638.724 -685.288)"/><path d="M709.425,742.6s-4.125,3.052-4.125,7.46c0,4.465,4.295,10.511,4.578,14.185.283,3.73-.339,7.347-1.808,9.155" transform="translate(-638.724 -700.019)"/><path d="M702.007,770.7s-9.607,7.46-9.607,16.841" transform="translate(-633.115 -712.239)"/><path d="M708.716,777.1a16.569,16.569,0,0,0-4.917,11.811" transform="translate(-638.072 -715.022)"/><path d="M720.171,756.043s3.617-10.342,3.786-16.106-9.551-13.789-9.607-20.4,3.108-14.128,0-14.976-8.025,8.816-7.573,12.376c0,0-.4,5.877,8.59,16.106s2.43,19.5-.509,23" transform="translate(-639.354 -683.454)"/><path d="M719.442,753.6a10.339,10.339,0,0,0-1.582,6.556c.4,3.786,1.922,7.968,1.808,10.568a26.319,26.319,0,0,1-1.356,7.121" transform="translate(-644.163 -704.802)"/><path d="M726.09,762.6s-3.391,3.278.226,11.811" transform="translate(-647.138 -708.716)"/><path d="M721.3,720.2s6.443,2.543,7.121,14.3" transform="translate(-645.682 -690.278)"/><path d="M712.834,699.941s-2.939-5.99-.961-8.816,3.278-2.091,3.278-2.091" transform="translate(-641.285 -676.687)"/><path d="M726.137,718.211a22.647,22.647,0,0,1,1.413-6.047,20.734,20.734,0,0,0,.9-10.4,36.155,36.155,0,0,0-2.317-6.838c-1.243-2.713-8.251-9.551-7.573-14.241s5.99-11.642,9.325-8.873,2.091,6.669,1.187,9.494" transform="translate(-644.473 -668.961)"/><path d="M748.016,736.8s-5.821,9.1-4.069,17.915" transform="translate(-655.388 -697.497)"/><path d="M734.435,780.9s2.769,1.808-.735,9.72" transform="translate(-651.075 -716.674)"/><path d="M740.2,748.555a13.709,13.709,0,0,1,1.752-12.772,41.449,41.449,0,0,0,5.821-14.693c.509-12.376-1.978-18.2-6.216-25.2s-9.946-8.025-11.981-5.143,2.2,7.516,2.2,7.516,12.32,13.394,10.511,23.623c-1.808,10.172-5.086,11.3-5.821,14.185s.452,9.607.452,9.607" transform="translate(-649.04 -676.813)"/><path d="M753.4,769.3a26.234,26.234,0,0,1,1.808,7.121" transform="translate(-659.642 -711.63)"/><path d="M761.3,721.177s6.669-10.4,8.986-4.125c2.261,6.273-6.047,11.981-8.364,12.546" transform="translate(-663.077 -688.034)"/><path class="a" d="M721.3,720.2s6.443,2.543,7.121,14.3" transform="translate(-645.682 -690.278)"/><path class="a" d="M593.092,743.3a20.116,20.116,0,0,0-2.6-8.76c-2.487-4.125-3.334-6.951-2.882-11.7.509-4.747,6.216-6.329,10.285-9.551s2.091-5.708,4.691-5.99c0,0,3.617.113,3.108,4.182s-5.821,6.669-5.821,6.669-4.578,2.091-6.047,4.634-2.317,8.307,0,13.394" transform="translate(-587.494 -684.668)"/><path class="a" d="M603.209,750.364c-7.347-12.546,5.877-32.665,10.342-38.372s6.047-16.05,3.617-18.649-3.9.226-4.238,5.2a73.824,73.824,0,0,1-2.317,11.981,17.627,17.627,0,0,1-3.391,4.182c-2.261,2.147-9.155,9.607-9.664,18.084s2.713,18.649,2.713,18.649" transform="translate(-591.847 -678.17)"/><path class="a" d="M625.9,701.436s7.686-2.939,7.46-14.241a13.132,13.132,0,0,0-2.713-6.329c-2.2-2.543-3.673-12.433,1.7-12.772,5.425-.339,2.26,8.816,4.3,11.19" transform="translate(-604.196 -667.614)"/><path class="a" d="M611.546,746.358a26.917,26.917,0,0,1,0-14.354c2.2-7.516,6.047-15.032,10.681-19.384,4.634-4.408,8.307-10.229,6.895-17.463-1.356-7.29,1.808-8.477,1.808-8.477s4.238-3.221,7.121,5.99c0,0,.791,3.5.283,5.143" transform="translate(-597.528 -675.464)"/><path class="a" d="M622.242,772.228s-7.46-4.465-4.634-18.254c2.769-13.846,14.919-17.858,18.593-24.075" transform="translate(-600.312 -694.496)"/><path class="a" d="M655.7,687.615s.791-5.2,6.047-1.526" transform="translate(-617.155 -674.873)"/><path class="a" d="M629.619,778.708s-12.772-15.428-.056-32.608" transform="translate(-603.337 -701.541)"/><path class="a" d="M639.185,773.516s-2.882-11.7-2.091-22.21c.848-10.511,4.8-10.738,5.256-16.106" transform="translate(-609.004 -696.801)"/><path class="a" d="M645.32,779.5s-5.651-19.384,4.747-33.4" transform="translate(-611.974 -701.541)"/><path class="a" d="M648.119,759.857s-1.7-1.582-.961-6.16c.791-4.578,5.03-9.268,5.708-15.485s-3.9-14.128-3.673-21.927c.226-7.855,7.177-15.6,10.511-13.789,3.391,1.752,1.187,7.912-.735,10.681-1.921,2.713-4.182,6.386-2.43,20.514s-5.934,15.654-5.764,21.192a14.52,14.52,0,0,0,.791,5.086" transform="translate(-613.36 -682.463)"/><path class="a" d="M667.425,687.681a7.326,7.326,0,0,0-.961-4.634c-1.356-2.034-2.487-9.833-1.356-12.15a5.8,5.8,0,0,1,5.03-3.617c2.317-.17,3.5.452,3.73,2.317s-2.6,7.177-2.317,10.116,2.713,9.833,1.808,14.807S663.865,710.06,663.3,714.3" transform="translate(-620.46 -667.253)"/><path class="a" d="M662.976,774.951a8.186,8.186,0,0,1,.9-6.443c1.978-3.56,3.843-6.669,4.465-10.681.565-4.012.9-14.128-3.052-16.728" transform="translate(-620.193 -699.367)"/><path class="a" d="M669.986,770.9a14.262,14.262,0,0,1,.678-6.838c1.3-3.447,7.516-12.037,6.443-20.288s-6.16-10.172-6.16-10.172" transform="translate(-623.303 -696.105)"/><path class="a" d="M680.2,698.264s2.43-6.16,5.651-2.826a5.263,5.263,0,0,1,1.243,4.8" transform="translate(-627.809 -679.079)"/><path class="a" d="M677,724.8a79.72,79.72,0,0,0,3.334,9.212c1.639,3.447,3.73,9.494-1.639,24.244" transform="translate(-626.418 -692.278)"/><path class="a" d="M673.777,746.763s-.565-3.278,3.221-7.855c3.843-4.578,7.742-15.032,4.408-24.583s-.961-15.485,2.317-20.119a14.968,14.968,0,0,0,2.713-10.568c-.169-1.469,3-6.782,5.651-2.769s2.26,8.816-.848,15.88-7.121,10-4.691,21.7-6.555,19.949-8.081,26.731" transform="translate(-625.003 -672.534)"/><path class="a" d="M705.3,708.768s3.108-.509,3.391,2.034" transform="translate(-638.724 -685.288)"/><path class="a" d="M709.425,742.6s-4.125,3.052-4.125,7.46c0,4.465,4.295,10.511,4.578,14.185.283,3.73-.339,7.347-1.808,9.155" transform="translate(-638.724 -700.019)"/><path class="a" d="M702.007,770.7s-9.607,7.46-9.607,16.841" transform="translate(-633.115 -712.239)"/><path class="a" d="M708.716,777.1a16.569,16.569,0,0,0-4.917,11.811" transform="translate(-638.072 -715.022)"/><path class="a" d="M720.171,756.043s3.617-10.342,3.786-16.106-9.551-13.789-9.607-20.4,3.108-14.128,0-14.976-8.025,8.816-7.573,12.376c0,0-.4,5.877,8.59,16.106s2.43,19.5-.509,23" transform="translate(-639.354 -683.454)"/><path class="a" d="M719.442,753.6a10.339,10.339,0,0,0-1.582,6.556c.4,3.786,1.922,7.968,1.808,10.568a26.319,26.319,0,0,1-1.356,7.121" transform="translate(-644.163 -704.802)"/><path class="a" d="M726.09,762.6s-3.391,3.278.226,11.811" transform="translate(-647.138 -708.716)"/><path class="a" d="M712.834,699.941s-2.939-5.99-.961-8.816,3.278-2.091,3.278-2.091" transform="translate(-641.285 -676.687)"/><path class="a" d="M726.137,718.211a22.647,22.647,0,0,1,1.413-6.047,20.734,20.734,0,0,0,.9-10.4,36.155,36.155,0,0,0-2.317-6.838c-1.243-2.713-8.251-9.551-7.573-14.241s5.99-11.642,9.325-8.873,2.091,6.669,1.187,9.494" transform="translate(-644.473 -668.961)"/><path class="a" d="M748.016,736.8s-5.821,9.1-4.069,17.915" transform="translate(-655.388 -697.497)"/><path class="a" d="M734.435,780.9s2.769,1.808-.735,9.72" transform="translate(-651.075 -716.674)"/><path class="a" d="M740.2,748.555a13.709,13.709,0,0,1,1.752-12.772,41.449,41.449,0,0,0,5.821-14.693c.509-12.376-1.978-18.2-6.216-25.2s-9.946-8.025-11.981-5.143,2.2,7.516,2.2,7.516,12.32,13.394,10.511,23.623c-1.808,10.172-5.086,11.3-5.821,14.185s.452,9.607.452,9.607" transform="translate(-649.04 -676.813)"/><path class="a" d="M753.4,769.3a26.234,26.234,0,0,1,1.808,7.121" transform="translate(-659.642 -711.63)"/><path class="a" d="M761.3,721.177s6.669-10.4,8.986-4.125c2.261,6.273-6.047,11.981-8.364,12.546" transform="translate(-663.077 -688.034)"/></g><rect class="i" width="400" height="196.383" transform="translate(146.1 353.403)"/><path class="a" d="M218.516,366.9C190.429,430.477,182.8,497.671,182.8,497.671" transform="translate(-15.96 -108.326)"/><path class="a" d="M804.961,505.688A520.762,520.762,0,0,0,778.4,398.2" transform="translate(-274.967 -121.937)"/></g></svg>