<?xml version="1.0" encoding="utf-8"?>
<!-- Generator: Adobe Illustrator 23.1.0, SVG Export Plug-In . SVG Version: 6.00 Build 0)  -->
<svg version="1.1" id="Layer_1" xmlns="http://www.w3.org/2000/svg" xmlns:xlink="http://www.w3.org/1999/xlink" x="0px" y="0px"
	 viewBox="0 0 500 500" style="enable-background:new 0 0 500 500;" xml:space="preserve">
<style type="text/css">
	.st0{fill:#00CED1;}
	.st1{opacity:0.5;fill:#00CED1;}
	.st2{opacity:0.5;fill:none;stroke:#00CED1;stroke-width:2;stroke-linecap:round;stroke-linejoin:round;stroke-miterlimit:10;}
	.st3{opacity:0;}
</style>
<g>
	<path class="st0" d="M294.2,318.4c-0.1,0-0.2,0-0.3-0.1l-0.2-0.1c-0.5-0.2-13.6-4.5-21.9-18.5c-8.3-13.9-7.5-37.9-7.5-38.9
		c0-0.2,0.1-0.5,0.3-0.6s0.4-0.2,0.6-0.2c0.3,0,6.7,0.5,11.6-6c5.4-7.2,16.8-7.6,17.3-7.6l0.3,0c0.5,0,11.9,0.4,17.3,7.6
		c4.9,6.5,11.5,6,11.6,6c0.2,0,0.5,0.1,0.6,0.2c0.2,0.2,0.3,0.4,0.3,0.6c0,1,0.8,25-7.5,38.9c-8.2,13.8-21.1,18.2-22,18.5l-0.2,0.1
		C294.4,318.4,294.3,318.4,294.2,318.4z M265.9,261.7c-0.1,4.4,0.1,25.1,7.3,37.2c7.7,13,20.1,17.5,21,17.8
		c0.9-0.3,13.3-4.8,21-17.8c7.2-12.1,7.3-32.8,7.3-37.2c-2.2-0.1-7.8-0.8-12.2-6.7c-4.9-6.6-15.8-7-15.9-7l-0.3,0
		c-0.1,0-11,0.4-15.9,7C273.8,260.9,268.1,261.6,265.9,261.7z"/>
	<path class="st0" d="M289.8,291.5c-0.2,0-0.4-0.1-0.6-0.2l-7.1-7.1c-0.3-0.3-0.3-0.9,0-1.2c0.3-0.3,0.9-0.3,1.2,0l6.5,6.5
		l16.8-16.8c0.3-0.3,0.9-0.3,1.2,0c0.3,0.3,0.3,0.9,0,1.2l-17.4,17.4C290.2,291.4,290,291.5,289.8,291.5z"/>
	<path class="st0" d="M258.1,289.9h-82.1c-0.5,0-0.8-0.4-0.8-0.8V185.6c0-0.5,0.4-0.8,0.8-0.8h9.4c0.5,0,0.8,0.4,0.8,0.8
		s-0.4,0.8-0.8,0.8h-8.5v101.8h81.3c0.5,0,0.8,0.4,0.8,0.8S258.5,289.9,258.1,289.9z"/>
	<path class="st0" d="M317.3,248c-0.5,0-0.8-0.4-0.8-0.8v-60.7h-85.9c-0.5,0-0.8-0.4-0.8-0.8s0.4-0.8,0.8-0.8h86.8
		c0.5,0,0.8,0.4,0.8,0.8v61.6C318.2,247.6,317.8,248,317.3,248z"/>
	<path class="st1" d="M218,186.4h-7.8c-0.5,0-0.8-0.4-0.8-0.8s0.4-0.8,0.8-0.8h7.8c0.5,0,0.8,0.4,0.8,0.8S218.5,186.4,218,186.4z"/>
	<path class="st2" d="M210.3,185.6"/>
	<path class="st2" d="M200.7,185.6"/>
	<path class="st1" d="M200.7,186.4h-6.2c-0.5,0-0.8-0.4-0.8-0.8s0.4-0.8,0.8-0.8h6.2c0.5,0,0.8,0.4,0.8,0.8S201.2,186.4,200.7,186.4
		z"/>
	<path class="st3" d="M349.6,351.6h-200v-200h200V351.6z M150.1,351.1h199v-199h-199V351.1z"/>
	<path class="st0" d="M176.8,289.2c-0.3,0-0.5-0.1-0.7-0.3c-0.4-0.4-0.4-1,0-1.4l48.2-45.4l19.3,19.3l41.2-41.2l22.5,22.5
		c0.4,0.4,0.4,1,0,1.4s-1,0.4-1.4,0L284.8,223l-41.2,41.2l-19.4-19.4l-46.8,44.1C177.3,289.1,177,289.2,176.8,289.2z"/>
	<path class="st0" d="M211,231c-7.4,0-13.4-6-13.4-13.4c0-7.4,6-13.4,13.4-13.4c7.4,0,13.4,6,13.4,13.4C224.4,225,218.4,231,211,231
		z M211,206.2c-6.3,0-11.4,5.1-11.4,11.4c0,6.3,5.1,11.4,11.4,11.4c6.3,0,11.4-5.1,11.4-11.4C222.4,211.4,217.3,206.2,211,206.2z"/>
</g>
</svg>
