<?xml version="1.0" encoding="utf-8"?>
<!-- Generator: Adobe Illustrator 23.1.0, SVG Export Plug-In . SVG Version: 6.00 Build 0)  -->
<svg version="1.1" id="Layer_1" xmlns="http://www.w3.org/2000/svg" xmlns:xlink="http://www.w3.org/1999/xlink" x="0px" y="0px"
	 viewBox="0 0 1000 1000" style="enable-background:new 0 0 1000 1000;" xml:space="preserve">
<style type="text/css">
	.st0{fill:none;stroke:#00CED1;stroke-miterlimit:10;}
	.st1{opacity:0.8;fill:none;stroke:#00CED1;stroke-miterlimit:10;}
	.st2{opacity:0.5;fill:none;stroke:#00CED1;stroke-miterlimit:10;}
	.st3{opacity:0.7;fill:none;stroke:#00CED1;stroke-miterlimit:10;}
	.st4{opacity:0.7;}
	.st5{opacity:0.4;fill:none;stroke:#00CED1;stroke-miterlimit:10;}
	.st6{opacity:0.65;fill:none;stroke:#00CED1;stroke-miterlimit:10;}
	.st7{opacity:0.4;}
	.st8{fill:none;stroke:#00CED1;stroke-width:1.5;stroke-linecap:round;stroke-linejoin:round;stroke-miterlimit:10;}
	.st9{fill:none;stroke:#00CED1;stroke-linecap:round;stroke-linejoin:round;stroke-miterlimit:10;}
	.st10{fill:none;stroke:#00CED1;stroke-width:0.75;stroke-linecap:round;stroke-linejoin:round;stroke-miterlimit:10;}
	.st11{opacity:0.72;}
	.st12{filter:url(#Adobe_OpacityMaskFilter);}
	.st13{filter:url(#Adobe_OpacityMaskFilter_1_);}
	.st14{mask:url(#SVGID_1_);fill:url(#SVGID_2_);}
	.st15{filter:url(#Adobe_OpacityMaskFilter_2_);}
	.st16{filter:url(#Adobe_OpacityMaskFilter_3_);}
	.st17{mask:url(#SVGID_3_);fill:url(#SVGID_4_);}
	.st18{filter:url(#Adobe_OpacityMaskFilter_4_);}
	.st19{filter:url(#Adobe_OpacityMaskFilter_5_);}
	.st20{mask:url(#SVGID_5_);fill:url(#SVGID_6_);}
	.st21{filter:url(#Adobe_OpacityMaskFilter_6_);}
	.st22{filter:url(#Adobe_OpacityMaskFilter_7_);}
	.st23{mask:url(#SVGID_7_);fill:url(#SVGID_8_);}
	.st24{opacity:0.8;fill:none;stroke:#00CED1;stroke-linecap:round;stroke-linejoin:round;stroke-miterlimit:10;}
	.st25{opacity:0.5;fill:none;stroke:#00CED1;stroke-linecap:round;stroke-linejoin:round;stroke-miterlimit:10;}
	.st26{opacity:0.7;fill:none;stroke:#00CED1;stroke-linecap:round;stroke-linejoin:round;stroke-miterlimit:10;}
	.st27{opacity:0.4;fill:none;stroke:#00CED1;stroke-linecap:round;stroke-linejoin:round;stroke-miterlimit:10;}
	.st28{opacity:0.65;fill:none;stroke:#00CED1;stroke-linecap:round;stroke-linejoin:round;stroke-miterlimit:10;}
	.st29{opacity:0.8;fill:none;stroke:#00CED1;stroke-width:0.75;stroke-linecap:round;stroke-linejoin:round;stroke-miterlimit:10;}
	.st30{opacity:0.5;fill:none;stroke:#00CED1;stroke-width:0.75;stroke-linecap:round;stroke-linejoin:round;stroke-miterlimit:10;}
	.st31{opacity:0.7;fill:none;stroke:#00CED1;stroke-width:0.75;stroke-linecap:round;stroke-linejoin:round;stroke-miterlimit:10;}
	.st32{opacity:0.4;fill:none;stroke:#00CED1;stroke-width:0.75;stroke-linecap:round;stroke-linejoin:round;stroke-miterlimit:10;}
	.st33{opacity:0.65;fill:none;stroke:#00CED1;stroke-width:0.75;stroke-linecap:round;stroke-linejoin:round;stroke-miterlimit:10;}
	.st34{fill:none;stroke:#00CED1;stroke-width:0.75;stroke-miterlimit:10;}
	.st35{opacity:0.8;fill:none;stroke:#00CED1;stroke-width:0.75;stroke-miterlimit:10;}
	.st36{opacity:0.6;fill:none;stroke:#00CED1;stroke-width:0.75;stroke-miterlimit:10;}
	.st37{opacity:0.4;fill:none;stroke:#00CED1;stroke-width:0.75;stroke-miterlimit:10;}
	.st38{opacity:0.8;fill:url(#SVGID_9_);}
</style>
<g>
	<g>
		<circle class="st0" cx="392" cy="454.5" r="10.7"/>
		<circle class="st1" cx="394.6" cy="488.4" r="6.5"/>
		<circle class="st0" cx="417.6" cy="419.1" r="4.6"/>
		<circle class="st0" cx="334.9" cy="418" r="10.7"/>
		<circle class="st0" cx="361.6" cy="483.3" r="10.7"/>
		<circle class="st2" cx="424.1" cy="454.2" r="10.7"/>
		<circle class="st0" cx="372.3" cy="526.7" r="10.7"/>
		<circle class="st0" cx="481.5" cy="334.5" r="10.7"/>
		<circle class="st2" cx="385.5" cy="330.5" r="2.6"/>
		<circle class="st0" cx="497.2" cy="404.6" r="9.1"/>
		<circle class="st3" cx="411.9" cy="548.8" r="12.4"/>
		<circle class="st0" cx="369.1" cy="405.8" r="9.8"/>
		<circle class="st0" cx="379" cy="449.4" r="3.3"/>
		<circle class="st0" cx="402.7" cy="448.3" r="1.7"/>
		<circle class="st0" cx="403.5" cy="451.3" r="1.3"/>
		<circle class="st0" cx="403.3" cy="455.1" r="0.6"/>
		<circle class="st0" cx="382.9" cy="446.6" r="1.3"/>
		<circle class="st0" cx="384.9" cy="445.6" r="0.7"/>
		<circle class="st0" cx="477.1" cy="645" r="14.2"/>
		<circle class="st0" cx="489.1" cy="630.8" r="4.3"/>
		<circle class="st0" cx="480.4" cy="661.1" r="2.3"/>
		<circle class="st0" cx="476.3" cy="660.8" r="1.7"/>
		<circle class="st0" cx="471.7" cy="659" r="0.8"/>
		<circle class="st0" cx="490.9" cy="636.9" r="1.7"/>
		<circle class="st0" cx="491.3" cy="639.8" r="0.9"/>
		<g class="st4">
			<circle class="st0" cx="399.4" cy="291.5" r="6"/>
			<circle class="st0" cx="392.1" cy="288.6" r="1.8"/>
			<circle class="st0" cx="405.4" cy="288" r="0.9"/>
			<circle class="st0" cx="405.8" cy="289.7" r="0.7"/>
			<circle class="st0" cx="405.7" cy="291.8" r="0.3"/>
			<circle class="st0" cx="394.3" cy="287.1" r="0.7"/>
			<circle class="st0" cx="395.4" cy="286.5" r="0.4"/>
		</g>
		<circle class="st0" cx="463.9" cy="376.9" r="5.2"/>
		<circle class="st0" cx="457.7" cy="374.5" r="1.6"/>
		<circle class="st0" cx="459.6" cy="373.1" r="0.6"/>
		<circle class="st0" cx="460.5" cy="372.6" r="0.3"/>
		<circle class="st0" cx="424.1" cy="499.2" r="10.7"/>
		<circle class="st0" cx="363.8" cy="577.9" r="10.7"/>
		<circle class="st2" cx="337.5" cy="522.1" r="10.7"/>
		<circle class="st0" cx="513.2" cy="602.9" r="10.7"/>
		<circle class="st0" cx="472.1" cy="601.9" r="10.7"/>
		<circle class="st2" cx="411.9" cy="636.6" r="15"/>
		<circle class="st0" cx="501.4" cy="569.6" r="5.9"/>
		<circle class="st0" cx="522.5" cy="536.4" r="3.3"/>
		<circle class="st5" cx="534.7" cy="586.1" r="10.7"/>
		<circle class="st0" cx="488.7" cy="505.8" r="6.5"/>
		<circle class="st2" cx="497.2" cy="534.6" r="9.1"/>
		<circle class="st0" cx="448.1" cy="563.1" r="6.5"/>
		<circle class="st0" cx="456.1" cy="407.3" r="5.2"/>
		<circle class="st0" cx="392" cy="366.3" r="5.2"/>
		<circle class="st2" cx="439" cy="315.9" r="3.9"/>
		<circle class="st0" cx="396.8" cy="432" r="2.6"/>
		<g>
			<circle class="st0" cx="410.6" cy="392.9" r="6"/>
			<circle class="st0" cx="403.3" cy="390.1" r="1.8"/>
			<circle class="st0" cx="416.6" cy="389.5" r="0.9"/>
			<circle class="st0" cx="417" cy="391.2" r="0.7"/>
			<circle class="st0" cx="416.9" cy="393.3" r="0.3"/>
			<circle class="st0" cx="405.5" cy="388.5" r="0.7"/>
			<circle class="st0" cx="406.6" cy="388" r="0.4"/>
		</g>
		<circle class="st0" cx="440.8" cy="434.6" r="3.9"/>
		<circle class="st0" cx="529.3" cy="485.3" r="6.5"/>
		<circle class="st0" cx="490.7" cy="476.1" r="10.7"/>
		<circle class="st0" cx="544.1" cy="461.5" r="3.9"/>
		<circle class="st0" cx="463.5" cy="438.9" r="6.5"/>
		<circle class="st0" cx="353.2" cy="357.3" r="7.8"/>
		<circle class="st0" cx="431.6" cy="366.3" r="2.6"/>
		<circle class="st6" cx="354.5" cy="657.1" r="6.5"/>
		<g>
			<circle class="st0" cx="379.2" cy="608.8" r="6"/>
			<circle class="st0" cx="386.5" cy="606" r="1.8"/>
			<circle class="st0" cx="373.3" cy="605.4" r="0.9"/>
			<circle class="st0" cx="372.8" cy="607.1" r="0.7"/>
			<circle class="st0" cx="372.9" cy="609.2" r="0.3"/>
			<circle class="st0" cx="384.3" cy="604.4" r="0.7"/>
			<circle class="st0" cx="383.2" cy="603.9" r="0.4"/>
		</g>
		<circle class="st0" cx="386.6" cy="683.7" r="5.2"/>
		<circle class="st0" cx="339.6" cy="633.3" r="3.9"/>
		<circle class="st6" cx="347" cy="683.7" r="2.6"/>
		<circle class="st0" cx="438.5" cy="608.2" r="4.6"/>
		<circle class="st0" cx="431.9" cy="528.7" r="6.5"/>
		<circle class="st0" cx="470.5" cy="519.5" r="2.6"/>
		<circle class="st3" cx="392.1" cy="565.9" r="5.2"/>
		<circle class="st3" cx="398.4" cy="563.5" r="1.6"/>
		<circle class="st0" cx="413.4" cy="592.2" r="5.2"/>
		<circle class="st0" cx="471.5" cy="555" r="5.2"/>
		<g class="st7">
			<circle class="st0" cx="446.6" cy="582.9" r="6"/>
			<circle class="st0" cx="442.5" cy="576.2" r="1.8"/>
			<circle class="st0" cx="444.2" cy="589.4" r="0.9"/>
			<circle class="st0" cx="446" cy="589.5" r="0.7"/>
			<circle class="st0" cx="448" cy="589" r="0.3"/>
			<circle class="st0" cx="441.3" cy="578.7" r="0.7"/>
			<circle class="st0" cx="441" cy="579.8" r="0.4"/>
		</g>
		<circle class="st0" cx="452.4" cy="493.1" r="2.6"/>
	</g>
	<g class="st4">
		<path d="M251.2,560.9c2.7,1.5,3.2-1.1,3.7-3.2c0.5-2.1,0.4-2.1,1.3-1.6c1,0.5,1.3,2.1,1.1,2.8c-0.2,0.7-1.6,3.9,0.4,5.2
			c2,1.4,2.1-1.5,2.1-1.5s0.5-3.9-0.9-6.2c-1.4-2.3,1.8-4,3.6-2.8s8.8,6.5,16.2,1.4c0,0,3.9-3.6,5.6-2.2s1.6,2.1,0.5,4.6
			s0,1.6-0.2,2.5s-1.1,0.9-0.4,2.1c0.7,1.2,1.7,3.8-3.2,5.6c-4.9,1.8-8.6,0.9-8.4,3.1c0.2,2.2,6.3,0.6,6.3,0.6s8.7-1.4,8.8-5.9
			c0,0-0.2-2,0.2-1.8s2.4,1.9,2.7,3.5c0.3,1.6,0.3,4,2.3,3.2c2-0.8,1.2-3.4,0-4.9c-1.3-1.5-6.4-8.5-3.4-12.9c3-4.3,8-4.6,10.6-4
			c2.6,0.6,5.3,1.8,4.2,3.3c-1.1,1.5-3.2,2.6-2.1,5.5c1.1,2.9,3.8,8.5,0.7,11.4c-3,3-3.8,4.5-9.9,4.8c-6.2,0.3-9.4,3.1-11.3,4.5
			s-4.6,3.9-3.6,5.7c1.1,1.9,2.9,3.9,3.9,1.8s2.9-3.1,3.2-5.9c0.3-2.9,3.4-3,4.8-2.4s4.6-1.5,5.9-0.4s-3,5-2,7.5
			c1,2.6,2.3,6.2,4,3.6c1.7-2.6,1.8-5.5,1.4-7.2c-0.4-1.8,1.3-4.4,2.8-5.2c1.5-0.8,2.7-2.9,3.2-1.1c0.5,1.8,0.3,7.8,3,9.9
			c2.6,2,4.6,3.3,5.7,1.9c1.1-1.4-0.6-2.6-1.9-3c-1.4-0.4-2.9-3.1-0.6-4.1c2.3-1,1,1.4,2.3,2.2c1.3,0.9,2.8,1.6,3.1,0.2
			s-0.4-5-3.9-4.8s-4.9-1.7-4.9-4.1c0-2.4,0.9-7,0.4-9.3c-0.5-2.3-2.4-7-1.6-8.9c0.7-1.9,5.1-1.9,8-0.7c2.9,1.2,10.4,2.9,14.3,2
			c3.9-0.9,12.1,0,15.5,2.1c3.4,2.1,9.8,7.7,11.7,11.6c1.9,3.9,2.2,6.4,1.1,7.2s-2.7,0.3-4,1.2c-1.4,0.9-4,2.6-6.2,0.3
			c-2.3-2.3-1-4.5,0.8-4.3c1.9,0.2,6.6,0.9,5.8-1.4s-3.1-0.8-4.4-1.3c-1.3-0.5,1.2-2.2-0.6-3.5c-1.7-1.3-2.6-1.2-3-0.2
			c-0.4,1.1,0.5,2.7-0.1,4s-1.4,2.9-2.6,3.8c-1.1,0.9-2.4,4.6,1.9,6.5c4.3,1.9,3.9,1.7,3.9,2.6c0,0.9-4.4,3.7-6.6,3.2
			c-2.2-0.5-3.9-2.5-5.9-2.7c-2-0.2-5.4-7.7-5.8-8.7c-0.4-1,0.1-5.8,2.5-7.6c2.4-1.9,7.9-5.3,4.9-8c-3-2.7-5.1,0-5.8,2.5
			c-0.7,2.5-2.1,4.1-3.4,3.4c-1.2-0.7-1.7-4.7-4.3-5.2s-4.9-0.7-6.8-2.2c-1.9-1.5-3.5-2.7-4.3-1.4s1.2,3.6,4.5,4.8
			c0,0,2.4,0.7-0.2,2c-2.6,1.3-6,4.7-4,6c2,1.3,4.5-4,7.6-4.2c3.2-0.2,5.2,0.1,4.7,4s1.1,5.3,0.6,5.9c-0.5,0.6-3.3-4.5-5.4-4.8
			c-2.1-0.3-5.4,0.6-3.9,2.4c1.5,1.8,4.9,1.5,6.2,3.4c1.3,1.9,0.9,4.7,5.1,6c0,0,0.6,0.1,2,1.9c1.4,1.8,4.9,3.2,6.8,3.9
			c1.9,0.7,2.5,0.8,1.9,1.5c-0.6,0.7-8.6-0.7-10.4-1.2s-5.9,0.1-8.1,4.2c-2.2,4.1-1.4,10-4.7,11.1s-2.9-2.5-5.3-4.3
			c-2.4-1.8-3-3.5-3.3-4.8c-0.3-1.4-2.4-5.9-4.1-4.7c-1.7,1.2,1.5,5.4,1,6.3c-0.5,0.9-4.5,0.6-3.8,2.1c0.7,1.6,4.8,0.7,7.3,3
			c2.5,2.3,3,5.2,5.6,6.5s3,1.6,2.8,2.3c-0.2,0.7-2.1,1.4-4.9,0s-5.8-1.9-5.5,0.3c0.3,2.2,2.7,1.7,4.6,2.8s9.7,2.8,11.5-4
			s-0.5-7.6,0.9-11.6c1.4-4,5.6-6.4,7.5-5.2s0.7,3.3-0.6,4.8c-1.3,1.6-2.2,6.1-0.1,9.3c2.1,3.2,6.1,8.6,3.3,11.8
			c-2.7,3.2-2.2,6.5,0.3,6.2c2.6-0.3,2-2.1,2-3.2c0-1-0.3-4.2,1.7-4.2c2,0,2,3.4,2.5,5.2s2,5.3,7.7,8s5.9,6.4,8.6,3.8
			s-5.9-4.2-6.1-5.9c-0.2-1.7,2.8-1.9,5.8-2c3,0,5,0.1,4.7-1.4s-4.3-4.3-8.2-2c-3.9,2.3-4.1,2-5.2,1.4c-1.1-0.6-4.7-5.4-6.9-9.3
			c-2.2-3.9-4.7-8.2-6.2-10.4c-1.5-2.3-0.8-8.2,3.9-9.2s5.9-1.1,7.3-2.6s5-4.5,6-3.2s0.7,7.9,0.3,10.5c-0.4,2.6-1,5.7-5,8.2
			s-4,8.6-0.8,8.6c3.3,0,0.3-7.3,2.9-7.1c2.7,0.2,1.1,8,4,7c3-1-0.6-6.1,0.7-7.7c1.4-1.7,1.2-10.3,2-10c0.8,0.3,3.9,3.9,7.5,5
			s4.5,4.4,1.7,7.2c-2.7,2.8,0.4,3.8,1.7,2.6c1.2-1.1,4-5.6,0.9-8.7c-3.1-3.1-7.2-7.5-9.7-10.7c-2.5-3.2-4.6-10.3,0.4-12.9
			s10.3,8.9,12.5,11c2.1,2.1,8.5,13.1,16.4,15.1c7.9,2,7.5,7.7,10.5,5.3c3-2.4,7.5-6,2.7-10.9c-4.8-4.9-6.4,1.3-11.2-0.3
			s-13.7-5-13.5-20.7s7.5-30.6,16.2-27.7c0,0,3.5,2.2,4.7,4.2c1.2,2,4.8,5.8,6.4,3.4c1.6-2.4-2.1-6.4-5.1-6.9s-2.7-2.8-1-3.7
			c1.7-0.9,18.1-8.3,14.5-11.9s-7.4,2.2-8.1,2.2s-0.7-3.7,3.1-7.2c3.8-3.5,2.8-3.8,1.5-4.8c-1.3-1-5.7,0.7-6.9,5.2
			c-1.2,4.5-2.8,14.9-11.1,15.8c-8.3,0.9-5.9,1.5-8.1,3.6c-2.2,2.1-3.7,2.3-4.2,1.9c-0.5-0.5,0.7-3.5,0.4-5.1
			c-0.3-1.6-0.9-7.1-0.4-8.3s2.5-2,3.5-3.8c1-1.8,4.4-5.3,5.5-6.1c1.1-0.8,4.4-4,4.8-6.4c0.4-2.3,1.6-9.3-1.1-10
			c-2.7-0.7-4.3,3.4-4.3,5.3c0.1,1.9,0.2,6.9-3.5,6s0-3.2-0.9-6.1c-1-2.9-1.4-5-2.8-3.8s-2.2,4.7-0.1,8c2.1,3.3,3.2,3,2.2,6.1
			c-1,3.1-1,7.7-4.6,6.5c-3.6-1.1,0-6.1-2.6-6.3c-2.7-0.2-1.6,2.8-0.9,4.4s3.2,8.5,0.6,15.7c0,0-0.4,3.1,0.8,4.9
			c1.2,1.8-0.8,3-2,0.9c-1.2-2.1-5.1-6.6-6.6-7.9c-1.5-1.4-1.6-4.4-2.7-6.1s-2.4-3.9-2.6-6.1c-0.1-2.1,1.6-11.6,4.2-14.3
			c2.5-2.7,9.9-6.3,8.4-8.7s-4.2,0.5-5.8,2.6c-1.7,2.1-3,3.3-3.6,3.1c-0.6-0.3,0.4-5.1-1.6-4.4c-1.9,0.7-2.3,2.5-2.1,3.6
			c0.2,1.1,0.7,5.5,0,5.9c-0.7,0.4-4.3-6.5-6.3-5.6c-2,0.9,0.8,5.4,2.7,6.7s2.6,4.5,1.2,7.1s1.5,4,0.9,5.4c-0.7,1.4-1.7,1.7-2.9,0
			c-1.2-1.6-3.1-8.4-6.5-5.8c-3.4,2.6,2.7,6.2,5.7,8.8s8.6,4.7,7.5,8c-1.2,3.3-5.1-0.9-5.9,1.7c-0.7,2.6,6.4,3.2,7.7,2.9
			s4.7,1.9,5.6,4c0.9,2.2,5.1,7.4,2.8,8.7c-2.3,1.3-2.3-1.3-3.5-2.5s-6.6-6.8-7.6-5c-0.9,1.8,3.9,6.3,6.1,7.6
			c2.1,1.3,6.6,4.2,3,13.4c0,0,0,3.5,1,4.7s1,2.2,0.2,2.5c-0.8,0.3-6.1-6.2-7.7-8.7s-2.3-9.6-6.2-12.7c-3.9-3.1-2.3-6.8-4.8-8.5
			c-2.4-1.6-5.2-5.1-7.3-5.5c-2.1-0.4-1.8-5.3,2.2-7.7c4-2.3,1.1-5.4-0.1-4.5s-3.6,3.8-5.2,2.6c-1.5-1.2-0.4-5.4,2.2-10.1
			c2.6-4.7,6.7-15.3,6.6-17.8c-0.1-2.5,5.4-8.8,6.7-9.1c1.3-0.3,15.1-8.3,15.9-11.3c0.8-3,3.4-14.7-1-13.9s-1,7.2-2.4,10.6
			c-1.4,3.4-2.7,7.4-4.8,6.6c-2.2-0.8,1.3-6.8,0-9.1c-1.3-2.4-6.2-11.8-3.2-15.4c3-3.6,2.9-4.7,1.2-5.4c-1.8-0.7-3,5.2-5.9,3.4
			c-2.9-1.7-2-10.2-4.8-9.7c-2.8,0.5-1.9,10.2,1.9,13.2c3.8,2.9,9.7,13.6,3.7,24.4c0,0-5.2,4.1-6.2,6.7c-1,2.6-3.9,0.2-4.5-2.1
			c-0.6-2.3,0.8-9.9,6.6-12.4c5.8-2.5,2.4-5.7,0.4-4.6c-2,1-2.1,3-2.9,2.2s-0.1-7.4-1.6-9.6c-1.5-2.2-4.1-5.1-5.3-3.3
			c-1.2,1.8-1.7,3.5,3.1,6.1c4.8,2.6-4.3,13.4-3.9,16.8s4.4,10.5,4.4,13c0,2.5-1.2,9.6-3.3,9.3s-1.6-9.6-6.6-6.8
			c-5,2.8,1.5,3,2.5,5.8c1,2.8,3.3,8.9-0.1,11.8c-3.4,2.9-2.2,5.8-2.9,6.6s-3.1-12.1-2.3-15.4c0.8-3.3,0.4-14.6,0.2-16.1
			c-0.2-1.5,3.8-5.7,3.9-9.4c0.1-3.8,1.4-12.1,0-13.4s-2.5-6.9-4.4-4.8s-1.2,7.1-0.1,9c1.1,1.9,2.1,4.2,0.9,5.5
			c-1.3,1.3-5.2-9.9-7.4-7.1c-2.2,2.8,2.1,6.7,4.7,8.8c2.6,2.1,1.9,2.3,1.5,3.8c-0.4,1.5-1.5,4.8-3.4,3.4s-2.6-3.9-3.7-5.3
			s-3.4-6.8-3.8-8.7c-0.3-1.9,2.6-3.5,2.3-5.8c-0.4-2.3,0.5-4.1,0.6-5.4c0.1-1.2-0.6-7.1-4-7.7c-3.5-0.6-2.7,2.8-1.9,4.1
			s1.8,4.8,1.4,5.8c-0.4,1-1.8,3.3-1.3,4.4c0.4,1.1,1.4,5.6,0.7,5.9c-0.8,0.3-3.8-4.3-3.8-7.5c0-3.3,0.1-13.2-3.5-11.6
			c-3.6,1.6,0.9,4-1,4c-1.9,0-7-11.4-10.3-7.9c-3.3,3.6,3.2,7.2,6,9.2c2.8,2,5.3,4.7,6.2,10.3s6.9,5.1,5.2,7.3
			c-1.7,2.3-4.9-1.4-7.7-5.2c-2.9-3.8-3.5-5.3-4.4-4.2c-0.9,1.1-0.9,9.1,7.4,11.3c0,0,1.9,0.8,3.8,3c1.9,2.2,3.1-0.5,5,0
			c1.9,0.5,7.9,9,8,11.3c0.1,2.3,0.2,8.9-0.6,8.9c-0.8,0-8.9-11.6-10.9-12.6c-2-1-12.8-9-14.4-12.4c-1.5-3.4-0.4-13.5-1.8-14.7
			c-1.4-1.3-3.5-0.4-4,0.5c-0.5,0.9,1.9,4.7,0.8,7.8s2.5,6.3,2,7c-0.5,0.7-5.5,0.1-7.8-2s0.2-4.5,0.2-6c0-1.5,1.7-5.3,0.9-7.9
			c-0.8-2.6-3.3-8.3-5.7-6.4s2.7,6,0.9,7.7s-3.9-4.7-5.9-3.2c-2,1.6,0.2,4.7,2.7,6.5s2.7,3.5,2.4,6c-0.3,2.6,0.5,1.8,0.3,2.2
			c-0.2,0.4-5.2-2.7-6.1-6.8c-0.9-4.1-1.9-4.4-2.2-6.8c-0.3-2.5-3.5-4.9-4.4-3.3s0.8,1.9,0.2,2.8c-0.5,0.9-6.4-3.1-6.9,0.8
			c-0.4,3.9,3.3,1.8,5.2,2.7s5.9,3.8,5,4.9s-9.2-3.3-9.6-0.9c-0.3,2.4,3.7,3.8,5.2,3.9s5.5-0.7,7.5,1.1c2,1.8,1.6,3.7,3.3,4.9
			c1.7,1.3,5.8,1.7,5.7,2.7c0,1-2.6,0.3-3.5,1.1c-0.9,0.8-2.1,2.2-3.3,2.2c-1.2,0-6.6-4.7-8.8-5.6s-7-3.1-7.1-0.5s3.5,3.5,6.3,4.1
			c2.7,0.5,5.7,4.3,8.2,4.7s11.9-4.7,15.4-3.9s12.3,5.8,14.1,7.5s2.8,2.3,2.1,2.7c-0.7,0.3-4.1-1.1-5.7-0.4c-1.7,0.7-4.8,4.6-7,4.4
			c-2.1-0.1-9-8.8-10.5-4.4s7.2,6.4,9.4,6.6s1.9,1.6,0.6,2c-1.3,0.5-5.7,1.8-4.9,2.5c0.8,0.7,7.2,1.9,11.6-1.8s7-4.8,11.6-0.9
			c4.6,3.9,8.4,4.4,8.6,12.2c0.3,7.7,4.3,15.7,5.6,17c1.3,1.3,1.6,3.4-0.6,3.6c-2.1,0.1-5.5-2.2-8.9-1c-3.4,1.3-6.1,0.6-6.9-0.6
			s-2.3-4.3,1.4-7.8s1.3-12.3,0.6-13.7c-0.7-1.4-0.6-4.6-0.7-5.4c-0.2-0.8-1.5-1.7-1.9-1.1c-0.5,0.7-2.4,4.9-1.7,6.4s4.2,7,1.8,9.9
			c-2.4,2.9-1.4,1.6-2.7-0.7s-0.6-4.1-2.2-5c-1.6-0.9-6.7-3.8-8.2-5.5c-1.5-1.7-2-1.5-2.6-0.7c-0.6,0.8,0.8,2.2,0.2,2.4
			c-0.6,0.3-9.8-2.9-8.2,1.1c1.6,4,7.6-1.5,13.7,4.5c6,6,3.8,8,4.6,11.6c0.8,3.6,2.4,3.5,2.4,4.2c-0.1,0.8-2.9,0.4-7.5-2.5
			s-5.2-2.2-8.2-3.5s-5.2-4.7-7.6-5.3c-2.4-0.6-4.4-2.1-6.3-3.6c-2-1.5-3.9-5.8-5.6-3.5c-1.7,2.2,2.5,7,7.5,8.5c0,0,0.7,0.4,0.6,0.7
			c-0.1,0.3-0.2,1.7-4.3,0.8c-4.1-0.9-10.1-4.9-10.6-2.3s6.9,4.8,9.5,5s5,0,6.8-0.8c1.9-0.7,4.5-0.5,4.1,0.9
			c-0.4,1.4-4.7,2.7-6.5,2.3c-1.7-0.4-6.6,2.1-7.7,2.9c-1.1,0.8-3.6,2.1-7.3-0.1c-3.7-2.2-4.8-5-5.3-6.3c-0.5-1.3-5-9-8.8-6.3
			s6.3,5.1,5.6,6.5c-0.7,1.4-1.3-0.1-2.3-0.4c-1-0.3-14.3-1.8-12,3.1c2.3,4.9,4.3-1.8,9.8-0.1c5.5,1.7,13.1,7.4,12.9,7.7
			c-0.2,0.3-3.3,1-5.6,0c-2.2-1-7.4-5.7-12.5-3.5S247.5,558.8,251.2,560.9z"/>
		<path class="st8" d="M251.2,560.9c2.7,1.5,3.2-1.1,3.7-3.2c0.5-2.1,0.4-2.1,1.3-1.6c1,0.5,1.3,2.1,1.1,2.8
			c-0.2,0.7-1.6,3.9,0.4,5.2c2,1.4,2.1-1.5,2.1-1.5s0.5-3.9-0.9-6.2c-1.4-2.3,1.8-4,3.6-2.8s8.8,6.5,16.2,1.4c0,0,3.9-3.6,5.6-2.2
			s1.6,2.1,0.5,4.6s0,1.6-0.2,2.5s-1.1,0.9-0.4,2.1c0.7,1.2,1.7,3.8-3.2,5.6c-4.9,1.8-8.6,0.9-8.4,3.1c0.2,2.2,6.3,0.6,6.3,0.6
			s8.7-1.4,8.8-5.9c0,0-0.2-2,0.2-1.8s2.4,1.9,2.7,3.5c0.3,1.6,0.3,4,2.3,3.2c2-0.8,1.2-3.4,0-4.9c-1.3-1.5-6.4-8.5-3.4-12.9
			c3-4.3,8-4.6,10.6-4c2.6,0.6,5.3,1.8,4.2,3.3c-1.1,1.5-3.2,2.6-2.1,5.5c1.1,2.9,3.8,8.5,0.7,11.4c-3,3-3.8,4.5-9.9,4.8
			c-6.2,0.3-9.4,3.1-11.3,4.5s-4.6,3.9-3.6,5.7c1.1,1.9,2.9,3.9,3.9,1.8s2.9-3.1,3.2-5.9c0.3-2.9,3.4-3,4.8-2.4s4.6-1.5,5.9-0.4
			s-3,5-2,7.5c1,2.6,2.3,6.2,4,3.6c1.7-2.6,1.8-5.5,1.4-7.2c-0.4-1.8,1.3-4.4,2.8-5.2c1.5-0.8,2.7-2.9,3.2-1.1
			c0.5,1.8,0.3,7.8,3,9.9c2.6,2,4.6,3.3,5.7,1.9c1.1-1.4-0.6-2.6-1.9-3c-1.4-0.4-2.9-3.1-0.6-4.1c2.3-1,1,1.4,2.3,2.2
			c1.3,0.9,2.8,1.6,3.1,0.2s-0.4-5-3.9-4.8s-4.9-1.7-4.9-4.1c0-2.4,0.9-7,0.4-9.3c-0.5-2.3-2.4-7-1.6-8.9c0.7-1.9,5.1-1.9,8-0.7
			c2.9,1.2,10.4,2.9,14.3,2c3.9-0.9,12.1,0,15.5,2.1c3.4,2.1,9.8,7.7,11.7,11.6c1.9,3.9,2.2,6.4,1.1,7.2s-2.7,0.3-4,1.2
			c-1.4,0.9-4,2.6-6.2,0.3c-2.3-2.3-1-4.5,0.8-4.3c1.9,0.2,6.6,0.9,5.8-1.4s-3.1-0.8-4.4-1.3c-1.3-0.5,1.2-2.2-0.6-3.5
			c-1.7-1.3-2.6-1.2-3-0.2c-0.4,1.1,0.5,2.7-0.1,4s-1.4,2.9-2.6,3.8c-1.1,0.9-2.4,4.6,1.9,6.5c4.3,1.9,3.9,1.7,3.9,2.6
			c0,0.9-4.4,3.7-6.6,3.2c-2.2-0.5-3.9-2.5-5.9-2.7c-2-0.2-5.4-7.7-5.8-8.7c-0.4-1,0.1-5.8,2.5-7.6c2.4-1.9,7.9-5.3,4.9-8
			c-3-2.7-5.1,0-5.8,2.5c-0.7,2.5-2.1,4.1-3.4,3.4c-1.2-0.7-1.7-4.7-4.3-5.2s-4.9-0.7-6.8-2.2c-1.9-1.5-3.5-2.7-4.3-1.4
			s1.2,3.6,4.5,4.8c0,0,2.4,0.7-0.2,2c-2.6,1.3-6,4.7-4,6c2,1.3,4.5-4,7.6-4.2c3.2-0.2,5.2,0.1,4.7,4s1.1,5.3,0.6,5.9
			c-0.5,0.6-3.3-4.5-5.4-4.8c-2.1-0.3-5.4,0.6-3.9,2.4c1.5,1.8,4.9,1.5,6.2,3.4c1.3,1.9,0.9,4.7,5.1,6c0,0,0.6,0.1,2,1.9
			c1.4,1.8,4.9,3.2,6.8,3.9c1.9,0.7,2.5,0.8,1.9,1.5c-0.6,0.7-8.6-0.7-10.4-1.2s-5.9,0.1-8.1,4.2c-2.2,4.1-1.4,10-4.7,11.1
			s-2.9-2.5-5.3-4.3c-2.4-1.8-3-3.5-3.3-4.8c-0.3-1.4-2.4-5.9-4.1-4.7c-1.7,1.2,1.5,5.4,1,6.3c-0.5,0.9-4.5,0.6-3.8,2.1
			c0.7,1.6,4.8,0.7,7.3,3c2.5,2.3,3,5.2,5.6,6.5s3,1.6,2.8,2.3c-0.2,0.7-2.1,1.4-4.9,0s-5.8-1.9-5.5,0.3c0.3,2.2,2.7,1.7,4.6,2.8
			s9.7,2.8,11.5-4s-0.5-7.6,0.9-11.6c1.4-4,5.6-6.4,7.5-5.2s0.7,3.3-0.6,4.8c-1.3,1.6-2.2,6.1-0.1,9.3c2.1,3.2,6.1,8.6,3.3,11.8
			c-2.7,3.2-2.2,6.5,0.3,6.2c2.6-0.3,2-2.1,2-3.2c0-1-0.3-4.2,1.7-4.2c2,0,2,3.4,2.5,5.2s2,5.3,7.7,8s5.9,6.4,8.6,3.8
			s-5.9-4.2-6.1-5.9c-0.2-1.7,2.8-1.9,5.8-2c3,0,5,0.1,4.7-1.4s-4.3-4.3-8.2-2c-3.9,2.3-4.1,2-5.2,1.4c-1.1-0.6-4.7-5.4-6.9-9.3
			c-2.2-3.9-4.7-8.2-6.2-10.4c-1.5-2.3-0.8-8.2,3.9-9.2s5.9-1.1,7.3-2.6s5-4.5,6-3.2s0.7,7.9,0.3,10.5c-0.4,2.6-1,5.7-5,8.2
			s-4,8.6-0.8,8.6c3.3,0,0.3-7.3,2.9-7.1c2.7,0.2,1.1,8,4,7c3-1-0.6-6.1,0.7-7.7c1.4-1.7,1.2-10.3,2-10c0.8,0.3,3.9,3.9,7.5,5
			s4.5,4.4,1.7,7.2c-2.7,2.8,0.4,3.8,1.7,2.6c1.2-1.1,4-5.6,0.9-8.7c-3.1-3.1-7.2-7.5-9.7-10.7c-2.5-3.2-4.6-10.3,0.4-12.9
			s10.3,8.9,12.5,11c2.1,2.1,8.5,13.1,16.4,15.1c7.9,2,7.5,7.7,10.5,5.3c3-2.4,7.5-6,2.7-10.9c-4.8-4.9-6.4,1.3-11.2-0.3
			s-13.7-5-13.5-20.7s7.5-30.6,16.2-27.7c0,0,3.5,2.2,4.7,4.2c1.2,2,4.8,5.8,6.4,3.4c1.6-2.4-2.1-6.4-5.1-6.9s-2.7-2.8-1-3.7
			c1.7-0.9,18.1-8.3,14.5-11.9s-7.4,2.2-8.1,2.2s-0.7-3.7,3.1-7.2c3.8-3.5,2.8-3.8,1.5-4.8c-1.3-1-5.7,0.7-6.9,5.2
			c-1.2,4.5-2.8,14.9-11.1,15.8c-8.3,0.9-5.9,1.5-8.1,3.6c-2.2,2.1-3.7,2.3-4.2,1.9c-0.5-0.5,0.7-3.5,0.4-5.1
			c-0.3-1.6-0.9-7.1-0.4-8.3s2.5-2,3.5-3.8c1-1.8,4.4-5.3,5.5-6.1c1.1-0.8,4.4-4,4.8-6.4c0.4-2.3,1.6-9.3-1.1-10
			c-2.7-0.7-4.3,3.4-4.3,5.3c0.1,1.9,0.2,6.9-3.5,6s0-3.2-0.9-6.1c-1-2.9-1.4-5-2.8-3.8s-2.2,4.7-0.1,8c2.1,3.3,3.2,3,2.2,6.1
			c-1,3.1-1,7.7-4.6,6.5c-3.6-1.1,0-6.1-2.6-6.3c-2.7-0.2-1.6,2.8-0.9,4.4s3.2,8.5,0.6,15.7c0,0-0.4,3.1,0.8,4.9
			c1.2,1.8-0.8,3-2,0.9c-1.2-2.1-5.1-6.6-6.6-7.9c-1.5-1.4-1.6-4.4-2.7-6.1s-2.4-3.9-2.6-6.1c-0.1-2.1,1.6-11.6,4.2-14.3
			c2.5-2.7,9.9-6.3,8.4-8.7s-4.2,0.5-5.8,2.6c-1.7,2.1-3,3.3-3.6,3.1c-0.6-0.3,0.4-5.1-1.6-4.4c-1.9,0.7-2.3,2.5-2.1,3.6
			c0.2,1.1,0.7,5.5,0,5.9c-0.7,0.4-4.3-6.5-6.3-5.6c-2,0.9,0.8,5.4,2.7,6.7s2.6,4.5,1.2,7.1s1.5,4,0.9,5.4c-0.7,1.4-1.7,1.7-2.9,0
			c-1.2-1.6-3.1-8.4-6.5-5.8c-3.4,2.6,2.7,6.2,5.7,8.8s8.6,4.7,7.5,8c-1.2,3.3-5.1-0.9-5.9,1.7c-0.7,2.6,6.4,3.2,7.7,2.9
			s4.7,1.9,5.6,4c0.9,2.2,5.1,7.4,2.8,8.7c-2.3,1.3-2.3-1.3-3.5-2.5s-6.6-6.8-7.6-5c-0.9,1.8,3.9,6.3,6.1,7.6
			c2.1,1.3,6.6,4.2,3,13.4c0,0,0,3.5,1,4.7s1,2.2,0.2,2.5c-0.8,0.3-6.1-6.2-7.7-8.7s-2.3-9.6-6.2-12.7c-3.9-3.1-2.3-6.8-4.8-8.5
			c-2.4-1.6-5.2-5.1-7.3-5.5c-2.1-0.4-1.8-5.3,2.2-7.7c4-2.3,1.1-5.4-0.1-4.5s-3.6,3.8-5.2,2.6c-1.5-1.2-0.4-5.4,2.2-10.1
			c2.6-4.7,6.7-15.3,6.6-17.8c-0.1-2.5,5.4-8.8,6.7-9.1c1.3-0.3,15.1-8.3,15.9-11.3c0.8-3,3.4-14.7-1-13.9s-1,7.2-2.4,10.6
			c-1.4,3.4-2.7,7.4-4.8,6.6c-2.2-0.8,1.3-6.8,0-9.1c-1.3-2.4-6.2-11.8-3.2-15.4c3-3.6,2.9-4.7,1.2-5.4c-1.8-0.7-3,5.2-5.9,3.4
			c-2.9-1.7-2-10.2-4.8-9.7c-2.8,0.5-1.9,10.2,1.9,13.2c3.8,2.9,9.7,13.6,3.7,24.4c0,0-5.2,4.1-6.2,6.7c-1,2.6-3.9,0.2-4.5-2.1
			c-0.6-2.3,0.8-9.9,6.6-12.4c5.8-2.5,2.4-5.7,0.4-4.6c-2,1-2.1,3-2.9,2.2s-0.1-7.4-1.6-9.6c-1.5-2.2-4.1-5.1-5.3-3.3
			c-1.2,1.8-1.7,3.5,3.1,6.1c4.8,2.6-4.3,13.4-3.9,16.8s4.4,10.5,4.4,13c0,2.5-1.2,9.6-3.3,9.3s-1.6-9.6-6.6-6.8
			c-5,2.8,1.5,3,2.5,5.8c1,2.8,3.3,8.9-0.1,11.8c-3.4,2.9-2.2,5.8-2.9,6.6s-3.1-12.1-2.3-15.4c0.8-3.3,0.4-14.6,0.2-16.1
			c-0.2-1.5,3.8-5.7,3.9-9.4c0.1-3.8,1.4-12.1,0-13.4s-2.5-6.9-4.4-4.8s-1.2,7.1-0.1,9c1.1,1.9,2.1,4.2,0.9,5.5
			c-1.3,1.3-5.2-9.9-7.4-7.1c-2.2,2.8,2.1,6.7,4.7,8.8c2.6,2.1,1.9,2.3,1.5,3.8c-0.4,1.5-1.5,4.8-3.4,3.4s-2.6-3.9-3.7-5.3
			s-3.4-6.8-3.8-8.7c-0.3-1.9,2.6-3.5,2.3-5.8c-0.4-2.3,0.5-4.1,0.6-5.4c0.1-1.2-0.6-7.1-4-7.7c-3.5-0.6-2.7,2.8-1.9,4.1
			s1.8,4.8,1.4,5.8c-0.4,1-1.8,3.3-1.3,4.4c0.4,1.1,1.4,5.6,0.7,5.9c-0.8,0.3-3.8-4.3-3.8-7.5c0-3.3,0.1-13.2-3.5-11.6
			c-3.6,1.6,0.9,4-1,4c-1.9,0-7-11.4-10.3-7.9c-3.3,3.6,3.2,7.2,6,9.2c2.8,2,5.3,4.7,6.2,10.3s6.9,5.1,5.2,7.3
			c-1.7,2.3-4.9-1.4-7.7-5.2c-2.9-3.8-3.5-5.3-4.4-4.2c-0.9,1.1-0.9,9.1,7.4,11.3c0,0,1.9,0.8,3.8,3c1.9,2.2,3.1-0.5,5,0
			c1.9,0.5,7.9,9,8,11.3c0.1,2.3,0.2,8.9-0.6,8.9c-0.8,0-8.9-11.6-10.9-12.6c-2-1-12.8-9-14.4-12.4c-1.5-3.4-0.4-13.5-1.8-14.7
			c-1.4-1.3-3.5-0.4-4,0.5c-0.5,0.9,1.9,4.7,0.8,7.8s2.5,6.3,2,7c-0.5,0.7-5.5,0.1-7.8-2s0.2-4.5,0.2-6c0-1.5,1.7-5.3,0.9-7.9
			c-0.8-2.6-3.3-8.3-5.7-6.4s2.7,6,0.9,7.7s-3.9-4.7-5.9-3.2c-2,1.6,0.2,4.7,2.7,6.5s2.7,3.5,2.4,6c-0.3,2.6,0.5,1.8,0.3,2.2
			c-0.2,0.4-5.2-2.7-6.1-6.8c-0.9-4.1-1.9-4.4-2.2-6.8c-0.3-2.5-3.5-4.9-4.4-3.3s0.8,1.9,0.2,2.8c-0.5,0.9-6.4-3.1-6.9,0.8
			c-0.4,3.9,3.3,1.8,5.2,2.7s5.9,3.8,5,4.9s-9.2-3.3-9.6-0.9c-0.3,2.4,3.7,3.8,5.2,3.9s5.5-0.7,7.5,1.1c2,1.8,1.6,3.7,3.3,4.9
			c1.7,1.3,5.8,1.7,5.7,2.7c0,1-2.6,0.3-3.5,1.1c-0.9,0.8-2.1,2.2-3.3,2.2c-1.2,0-6.6-4.7-8.8-5.6s-7-3.1-7.1-0.5s3.5,3.5,6.3,4.1
			c2.7,0.5,5.7,4.3,8.2,4.7s11.9-4.7,15.4-3.9s12.3,5.8,14.1,7.5s2.8,2.3,2.1,2.7c-0.7,0.3-4.1-1.1-5.7-0.4c-1.7,0.7-4.8,4.6-7,4.4
			c-2.1-0.1-9-8.8-10.5-4.4s7.2,6.4,9.4,6.6s1.9,1.6,0.6,2c-1.3,0.5-5.7,1.8-4.9,2.5c0.8,0.7,7.2,1.9,11.6-1.8s7-4.8,11.6-0.9
			c4.6,3.9,8.4,4.4,8.6,12.2c0.3,7.7,4.3,15.7,5.6,17c1.3,1.3,1.6,3.4-0.6,3.6c-2.1,0.1-5.5-2.2-8.9-1c-3.4,1.3-6.1,0.6-6.9-0.6
			s-2.3-4.3,1.4-7.8s1.3-12.3,0.6-13.7c-0.7-1.4-0.6-4.6-0.7-5.4c-0.2-0.8-1.5-1.7-1.9-1.1c-0.5,0.7-2.4,4.9-1.7,6.4s4.2,7,1.8,9.9
			c-2.4,2.9-1.4,1.6-2.7-0.7s-0.6-4.1-2.2-5c-1.6-0.9-6.7-3.8-8.2-5.5c-1.5-1.7-2-1.5-2.6-0.7c-0.6,0.8,0.8,2.2,0.2,2.4
			c-0.6,0.3-9.8-2.9-8.2,1.1c1.6,4,7.6-1.5,13.7,4.5c6,6,3.8,8,4.6,11.6c0.8,3.6,2.4,3.5,2.4,4.2c-0.1,0.8-2.9,0.4-7.5-2.5
			s-5.2-2.2-8.2-3.5s-5.2-4.7-7.6-5.3c-2.4-0.6-4.4-2.1-6.3-3.6c-2-1.5-3.9-5.8-5.6-3.5c-1.7,2.2,2.5,7,7.5,8.5c0,0,0.7,0.4,0.6,0.7
			c-0.1,0.3-0.2,1.7-4.3,0.8c-4.1-0.9-10.1-4.9-10.6-2.3s6.9,4.8,9.5,5s5,0,6.8-0.8c1.9-0.7,4.5-0.5,4.1,0.9
			c-0.4,1.4-4.7,2.7-6.5,2.3c-1.7-0.4-6.6,2.1-7.7,2.9c-1.1,0.8-3.6,2.1-7.3-0.1c-3.7-2.2-4.8-5-5.3-6.3c-0.5-1.3-5-9-8.8-6.3
			s6.3,5.1,5.6,6.5c-0.7,1.4-1.3-0.1-2.3-0.4c-1-0.3-14.3-1.8-12,3.1c2.3,4.9,4.3-1.8,9.8-0.1c5.5,1.7,13.1,7.4,12.9,7.7
			c-0.2,0.3-3.3,1-5.6,0c-2.2-1-7.4-5.7-12.5-3.5S247.5,558.8,251.2,560.9z"/>
	</g>
	<path d="M446.2,524.1c0,0-49.3,9.6-70.7,27.3c0,0-38.8,1.6-47.9,27.8c0,0-16.4,39.6,15.2,71.7c0,0,18.8,18.4,33.9,21.8
		c0,0,2.3,13.4,21.6,13c19.3-0.4,31.3-18.4,67.5-19.7s48.2,22.7,71.2,19.6c0,0,11.1,1,19.1-13.3c0,0,44.5-17.7,49.2-52.3
		c4.7-34.6,1.9-49.3-21.9-61.7c0,0-22.8-6.5-28.9-7.8C548.6,549,501.2,513.8,446.2,524.1z"/>
	<g>
		
			<rect x="281.1" y="377.8" transform="matrix(0.7619 -0.6477 0.6477 0.7619 -180.6207 283.1645)" class="st9" width="27.6" height="18.8"/>
		<path class="st9" d="M316,356.9l-6.4-7.5c0,0-5.4-7.2-14.9,0.8c-9.5,8.1-3.2,14.6-3.2,14.6l6.4,7.5"/>
		<path class="st9" d="M296.5,383.5c-1.3-1.5-3.6-1.7-5.2-0.4c-1.5,1.3-1.7,3.6-0.4,5.2c0.7,0.8,1.6,1.2,2.6,1.3l1.3,1.5
			c0.9,1.1,2.5,1.2,3.6,0.3s1.2-2.5,0.3-3.6l-1.3-1.5C297.5,385.3,297.2,384.3,296.5,383.5z"/>
	</g>
	<g>
		
			<rect x="542.3" y="265.2" transform="matrix(-0.4782 0.8783 -0.8783 -0.4782 1050.1405 -83.2595)" class="st10" width="15" height="10.2"/>
		<path class="st10" d="M536,284.9l-4.7-2.5c0,0-4.4-2.1-1.2-8c3.2-5.9,7.4-3.3,7.4-3.3l4.7,2.5"/>
		<path class="st10" d="M548,271.6c-1-0.5-1.3-1.7-0.8-2.7c0.5-1,1.7-1.3,2.7-0.8c0.5,0.3,0.8,0.7,1,1.2l1,0.5
			c0.7,0.4,0.9,1.2,0.6,1.9s-1.2,0.9-1.9,0.6l-1-0.5C549.1,271.9,548.5,271.9,548,271.6z"/>
	</g>
	<g>
		
			<rect x="645.7" y="448.1" transform="matrix(-0.7619 -0.6477 0.6477 -0.7619 856.6652 1220.4482)" class="st10" width="13.8" height="9.4"/>
		<path class="st10" d="M642.1,437.6l3.2-3.7c0,0,2.7-3.6,7.5,0.4c4.7,4,1.6,7.3,1.6,7.3l-3.2,3.7"/>
		<path class="st10" d="M651.8,450.9c0.7-0.8,1.8-0.9,2.6-0.2c0.8,0.7,0.9,1.8,0.2,2.6c-0.3,0.4-0.8,0.6-1.3,0.6l-0.7,0.8
			c-0.5,0.5-1.3,0.6-1.8,0.1c-0.5-0.5-0.6-1.3-0.1-1.8l0.7-0.8C651.3,451.8,651.5,451.3,651.8,450.9z"/>
	</g>
	<g class="st11">
		<path class="st8" d="M650.6,519.6c0,0,0.1,4.1-3.4,1.8"/>
		<path class="st8" d="M642.3,521.1c0,0-1.3,3.9-2.1,0.8"/>
		<path class="st8" d="M646.3,524.9c0,0-0.1,2.7-2.4,0.8"/>
		<path class="st8" d="M643,528.5c0,0-0.3,4.1-1.9,0.6"/>
		<path class="st8" d="M637.1,523.4c0,0-3,3.6-3-0.2"/>
		<path class="st8" d="M637.3,529.1c0,0-1.4,4.3-3.2,0.7"/>
		<path class="st8" d="M627.5,522.3"/>
		<path class="st8" d="M630.2,524.4"/>
		<path class="st8" d="M627.2,522.3c0,0-0.1,2.6,0.3,2.9c0.4,0.3,2.7-0.7,2.7-0.7"/>
		<path class="st8" d="M631.7,531.6c0,0-1.1,1.9-1.7,2c-0.5,0.1-1.8-2.3-1.8-2.3"/>
		<path class="st8" d="M622.6,523.7c0,0-1.7,0.3-2.1,0c-0.4-0.2-0.2-2.9-0.2-2.9"/>
		<path class="st8" d="M626.5,531.7c0,0-1,1.6-1.3,1.5c-0.2-0.1-1.3-1.9-1.3-1.9"/>
		<path class="st8" d="M623.9,529.7c0,0-1.5,1.2-1.6,1.1c-0.2-0.1-0.7-1.2-0.7-1.2"/>
		<path class="st8" d="M616.3,524.6c0,0-2,1-2.1,0.8s0-2.7,0-2.7"/>
		<path class="st8" d="M618.6,530.1c0,0-2,1.2-2.2,1.1c-0.2,0,0-1.9,0-1.9"/>
		<path class="st8" d="M608.7,524.5c0,0,0.4,3,1,3.2c0.6,0.2,1.6-1.1,1.6-1.1"/>
		<path class="st8" d="M607.1,522.3c0,0-2,1.4-2.6,0.9c-0.6-0.5-0.4-2.8-0.4-2.8"/>
		<path class="st8" d="M603.8,515.8c0,0-1.4,0.8-1.9,0.4s0.1-2.9,0.1-2.9"/>
		<path class="st8" d="M598.6,511c0,0-2.4-0.6-2.5-1c-0.1-0.4,1.8-2.2,1.8-2.2"/>
		<path class="st8" d="M602.9,508c0,0-2.2,1.2-2.1,1.4c0.1,0.2,1.3,0.7,1.3,0.7"/>
		<path class="st8" d="M639.2,489.4c0,0-1.3-3.3-3.4-0.3"/>
		<path class="st8" d="M632,491.1c0,0-2.4-2.8-1.9,0.1"/>
		<path class="st8" d="M633.9,486.6c0,0-1-2.2-2.2,0.2"/>
		<path class="st8" d="M630,484.8c0,0-1.6-3.3-1.8,0.1"/>
		<path class="st8" d="M626.9,490.9c0,0-3.7-1.9-2.4,1.2"/>
		<path class="st8" d="M625.1,486.3c0,0-2.6-3-2.9,0.5"/>
		<path class="st8" d="M619.5,495.1"/>
		<path class="st8" d="M621,492.5"/>
		<path class="st8" d="M619.2,495.2c0,0-0.9-2.1-0.7-2.4c0.2-0.4,2.5-0.4,2.5-0.4"/>
		<path class="st8" d="M619.7,486.1c0,0-1.6-1.1-2-1c-0.5,0.1-0.6,2.5-0.6,2.5"/>
		<path class="st8" d="M614.9,495.6c0,0-1.5,0.4-1.7,0.7s0.8,2.4,0.8,2.4"/>
		<path class="st8" d="M615.5,487.7c0,0-1.4-0.9-1.5-0.8s-0.4,2-0.4,2"/>
		<path class="st8" d="M614,490.3c0,0-1.6-0.5-1.7-0.4s-0.1,1.2-0.1,1.2"/>
		<path class="st8" d="M609.6,497c0,0-2-0.1-2,0.1c0,0.2,0.9,2.2,0.9,2.2"/>
		<path class="st8" d="M609.5,491.7c0,0-2-0.3-2.2-0.2c-0.2,0.1,0.6,1.5,0.6,1.5"/>
		<path class="st8" d="M603.4,499.7c0,0-0.7-2.6-0.3-2.9c0.4-0.3,1.7,0.3,1.7,0.3"/>
		<path class="st8" d="M602.9,502c0,0-2.1-0.4-2.5,0.2c-0.3,0.6,0.6,2.4,0.6,2.4"/>
		<circle class="st8" cx="636.4" cy="497.3" r="3"/>
		<path class="st8" d="M618.1,512.7c-2.5-1.4-12.5-6.6-14.1-0.9c0,0,0.2,6.1,5.9,8.8c2.8,1.3,5.8-1.3,7.2-3.4c0-0.1,0.9-2.4,1.3-3.5
			C618.6,513.2,618.5,512.9,618.1,512.7z"/>
		<path class="st8" d="M651,492.9c0,0-0.1-1.4-4.1-2.5c0,0-1.9-1.8-2.6-2.6s-1-3.4-1-3.4s-1.8,2-4.7,0.2s-2.2-3.4-2.2-3.4
			s-4.6,2.3-8.8-2.1c0,0-3.6,3.7-8.1,0.1c0,0-0.1,4.7-6.4,2.4c0,0-1.8,5.2-6.4,3.3c0,0,1.6,5.6-4.5,5.7c0,0-4.4,1-3.2,5.9
			c0,0-2.3-0.8-2.9,3c0,0-0.1,1.1-2.6-0.6c-2.5-1.7-4.8-3.9-5.9-5.6c-1.1-1.6-12.6-4.5-15,6s-0.3,11.7,2.5,12.7
			c2.8,1,14.9-3.2,17.7-2.2c2.8,1.1,2.7,3.5,2.7,3.5s-1.7,1.7-1.5,2.2c0.2,0.5,4-0.3,5.4,6.1c1.4,6.3,5.1,4.9,5.6,7.2
			c0.5,2.3-0.2,2.3,0.3,2.6s1.7-1.1,2.8-1c1.1,0.1,5.4,2.9,6,3.4s0.5,2.4,1.1,2.6s1.6-1.8,2.5-1.6c0.9,0.2,3.7,0.4,4.4,0.8
			s1.2,2,2.1,2c1,0,0.5-1.6,1-1.7c0.4-0.1,3-0.4,3.9,0.1s1.7,2.1,2.1,2.2c0.5,0,0.8-2,1.4-2.1c0.6-0.1,3.4-1,3.7-0.8
			s1.3,1.6,1.9,1.6c0.5,0,0.1-1.8,1.4-2s4.3-1.1,7.3-5.2c0,0,0.6-0.3,2.3,0.9s-0.6-2,0-3.6s2.8-3.3,3.3-3.2c0.5,0.1,2.3,0.9,2.7,0.5
			c0.3-0.5-0.7-3.7-0.3-4.5c0.3-0.7,2.9-7.9-0.1-14.2c0,0,1.1-3.6-3.7-6.5C651,499,651.5,493.7,651,492.9z"/>
		<path class="st8" d="M651.2,499.1c0,0-3-1.9-6.6,0.6l-1.5,1.3"/>
		<path class="st8" d="M654.5,504.1c0,0-3.7-3.8-5.6-1.6c-2,2.2-2.3,3.7-3.1,3.7c-0.7-0.1,5.7,1.2,7.2-0.1c1.4-1.4,2.3,0.6,2.3,0.6
			l-0.5-1.3C654.7,505.4,655.1,504.6,654.5,504.1z"/>
		<path class="st8" d="M605.2,489.7c0,0-3.6,0.7-5.9-2.2c0,0-4.2-3.2-6.8,0.9c0,0-1.5,1.9-2.2,2.2s-1,2.1,0.8,3.5
			c1.8,1.3,4.9,0.8,6.4,1.7c0,0,0.2,0.1,0.6,0.7"/>
		<path class="st8" d="M601.3,525.8c0,0-2.7,3-5.3,1.2s-7.6-5.3-6.1-6.7s3.4-1.5,4.4-2.1c1-0.7,1.9-1.7,1.9-1.7"/>
		<path class="st8" d="M618.9,500.1c0,0-1.7,0.4-1.7,1c0,0.6,1.9,2.8,1.9,2.8"/>
		<path class="st8" d="M612.8,502c0,0-2.2,0.6-2.1,0.9c0,0.4,2.1,2.4,2.1,2.4"/>
		<path class="st8" d="M606.9,503.5c0,0-2.1,1.3-2.1,1.9c0,0.5,2.2,1.1,2.2,1.1"/>
		<path class="st8" d="M591,500.9c0,0-9-2-10.8-5.7"/>
		<path class="st8" d="M587.7,501.6c0,0-9.5-2.5-10.7-3.6"/>
		<path class="st8" d="M587.6,503.8c0,0-10.5-0.2-13.7-2.7"/>
		<path class="st8" d="M586.2,506c0,0-8.9,0.9-11.9-0.9"/>
		<path class="st8" d="M586.6,507.8c0,0-8.1,2.1-11.2,0.9"/>
		<path class="st8" d="M599.7,490.5c0,0-4.6-1.3-5.1-2.4"/>
		<path class="st8" d="M598.4,492.1c0,0-3.9-1-4.9-1.8"/>
		<path class="st8" d="M597.5,493.8c0,0-4.2-1.1-5.5-2.3"/>
		<path class="st8" d="M597.9,518c0,0-2.6,2.3-4.9,2.5"/>
		<path class="st8" d="M599,520.3c0,0-4.5,2.5-5.9,2.7"/>
		<path class="st8" d="M599.8,523.3c0,0-2.7,1.2-3.6,0.9"/>
		<path class="st8" d="M618,514.9c0,0-4.9-3.5-10.4-3.4"/>
		<path class="st8" d="M617.8,515.5c0,0-7.2-1.7-10.3-0.8"/>
		<path class="st8" d="M617.5,516.2c0,0-6.5,1.1-7.8,1.8"/>
	</g>
	<path class="st8" d="M495,577c0,0-5,2.3-3.5,9.7c1.5,7.4,33.3,73.1,47.6,71.9c7.1-0.6,12.5-2.9,16.6-6.2"/>
	<path class="st8" d="M375.6,551.3c0,0,44.7-28.9,90.3-28.9c45.7,0,90.3,28.9,90.3,28.9"/>
	<path class="st8" d="M392.1,658.5c14.3,1.3,46.1-64.5,47.6-71.9c1.5-7.4-3.5-9.7-3.5-9.7"/>
	<path class="st8" d="M556.2,671.8v0.4c-5.9,14.3-24.3,18.3-45.2,6.5c-5.4-3.1-11.1-5.5-16.6-7.2c-15.3-5-28.6-5.5-28.6-5.5
		s-24.3,0.9-45.2,12.7c-11.6,6.6-22.4,8.3-30.7,6c-6.7-1.8-11.8-6.1-14.4-12.5"/>
	<path class="st8" d="M375.6,672.2c5.9,14.3,24.3,18.3,45.2,6.5c13.8-7.9,29.2-10.9,38-12c4.8-0.6,9.6-0.6,14.3,0
		c8.8,1.1,24.2,4.2,38,12c20.8,11.9,39.3,7.8,45.2-6.5"/>
	<path class="st8" d="M534.2,675.8l-0.3,0.1c0,0-22.1-1.6-37.9-15.8c-6-5.4-11.8-8.9-16.7-11.1c-8.4-3.8-18.5-3.8-26.9,0
		c-4.9,2.2-10.7,5.7-16.7,11.1c-15.8,14.2-37.9,15.8-37.9,15.8l-0.9-0.3"/>
	<defs>
		<filter id="Adobe_OpacityMaskFilter" filterUnits="userSpaceOnUse" x="481.4" y="561.8" width="118.7" height="106.6">
			<feFlood  style="flood-color:white;flood-opacity:1" result="back"/>
			<feBlend  in="SourceGraphic" in2="back" mode="normal"/>
		</filter>
	</defs>
	<mask maskUnits="userSpaceOnUse" x="481.4" y="561.8" width="118.7" height="106.6" id="SVGID_1_">
		<g class="st12">
			<defs>
				<filter id="Adobe_OpacityMaskFilter_1_" filterUnits="userSpaceOnUse" x="482.1" y="562.6" width="117.2" height="105.1">
					<feFlood  style="flood-color:white;flood-opacity:1" result="back"/>
					<feBlend  in="SourceGraphic" in2="back" mode="normal"/>
				</filter>
			</defs>
			<mask maskUnits="userSpaceOnUse" x="482.1" y="562.6" width="117.2" height="105.1" id="SVGID_1_">
				<g class="st13">
				</g>
			</mask>
			<linearGradient id="SVGID_2_" gradientUnits="userSpaceOnUse" x1="468.1551" y1="493.8271" x2="571.5358" y2="636.3433">
				<stop  offset="0" style="stop-color:#000000"/>
				<stop  offset="1" style="stop-color:#FFFFFF"/>
			</linearGradient>
			<path class="st14" d="M583.9,570.2c-5.4-2.4-11.1-4.2-16.9-5.4c0,0,0,0,0,0c-16.5-3.4-33.9-2.4-48.8-0.2
				c-11.7,1.7-21.8,4.1-28.8,5.7c0,0-9,1.1-7,9.6c1.6,6.5,21.9,54.9,40.2,76.9c5.5,6.7,10.8,10.9,15.4,10.9c0.3,0,0.6,0,0.9,0
				c14.8-0.2,27-6.5,36.5-14.9c0.1-0.1,0.3-0.3,0.4-0.4c7.7-6.9,13.5-15.1,17.3-22.4C600.1,616.6,605.5,579.9,583.9,570.2z
				 M569.9,627.2c-4.8,14.8-10.7,29.6-30.8,31.4c-14.3,1.3-46.1-64.5-47.6-71.9c-1.5-7.4,3.5-9.7,3.5-9.7c13.9-3.7,43.5-10.9,68.2-2
				C580.1,581.2,573.9,615,569.9,627.2z"/>
		</g>
	</mask>
	<path class="st8" d="M583.9,570.2c-5.4-2.4-11.1-4.2-16.9-5.4c0,0,0,0,0,0c-16.5-3.4-33.9-2.4-48.8-0.2
		c-11.7,1.7-21.8,4.1-28.8,5.7c0,0-9,1.1-7,9.6c1.6,6.5,21.9,54.9,40.2,76.9c5.5,6.7,10.8,10.9,15.4,10.9c0.3,0,0.6,0,0.9,0
		c14.8-0.2,27-6.5,36.5-14.9c0.1-0.1,0.3-0.3,0.4-0.4c7.7-6.9,13.5-15.1,17.3-22.4C600.1,616.6,605.5,579.9,583.9,570.2z
		 M569.9,627.2c-4.8,14.8-10.7,29.6-30.8,31.4c-14.3,1.3-46.1-64.5-47.6-71.9c-1.5-7.4,3.5-9.7,3.5-9.7c13.9-3.7,43.5-10.9,68.2-2
		C580.1,581.2,573.9,615,569.9,627.2z"/>
	<path class="st8" d="M601.5,573.6c-7.1-13.5-25.4-20-45.3-22.2c-1.8-0.2-3.7-0.4-5.5-0.5c-20.4-1.5-41.8,0.9-54.5,4.4
		c-24.9,6.7-29.8,6-30.3,5.9c0,0,0,0-0.1,0c-0.5,0.1-5.4,0.8-30.3-5.9c-8.4-2.3-20.7-4.1-34-4.7c-8.5-0.3-17.4-0.1-25.9,0.8
		c-20,2.3-38.2,8.7-45.3,22.2c-15,28.5-5,63.8,18.3,82.2c9.3,7.3,29.4,21.9,49.2,20.1c0,0,0.1,0,0.1,0c0.2,0,0.3,0,0.5-0.1
		c0,0,0,0,0,0c2-0.2,4.1-0.6,6.1-1.2c1.6-0.5,3.2-1.1,4.7-1.8c23-11,48.7-92.3,56.7-92.6c7,0.3,27.4,62.3,47.8,85.3
		c3,3.3,5.9,5.9,8.8,7.3c3.8,1.8,7.6,2.8,11.5,3.1c19.7,1.8,39.7-12.9,49.2-20C603,640.8,616.5,602.1,601.5,573.6z M439.7,586.7
		c-1.5,7.4-33.3,73.1-47.6,71.9c-20.1-1.8-26.1-16.6-30.8-31.4c-3.9-12.2-10.1-46,6.7-52.1c24.7-9,54.3-1.7,68.2,2
		C436.3,577,441.2,579.3,439.7,586.7z M569.9,627.2c-4.8,14.8-10.7,29.6-30.8,31.4c-14.3,1.3-46.1-64.5-47.6-71.9
		c-1.5-7.4,3.5-9.7,3.5-9.7c13.9-3.7,43.5-10.9,68.2-2C580.1,581.2,573.9,615,569.9,627.2z"/>
	<path class="st8" d="M601.5,573.6c-7.1-13.5-25.4-20-45.3-22.2c-1.8-0.2-3.7-0.4-5.5-0.5c-20.4-1.5-41.8,0.9-54.5,4.4
		c-24.9,6.7-29.8,6-30.3,5.9c0,0,0,0-0.1,0c-0.5,0.1-5.4,0.8-30.3-5.9c-8.4-2.3-20.7-4.1-34-4.7c-8.5-0.3-17.4-0.1-25.9,0.8
		c-20,2.3-38.2,8.7-45.3,22.2c-15,28.5-5,63.8,18.3,82.2c9.3,7.3,29.4,21.9,49.2,20.1c0,0,0.1,0,0.1,0c0.2,0,0.3,0,0.5-0.1
		c0,0,0,0,0,0c2-0.2,4.1-0.6,6.1-1.2c1.6-0.5,3.2-1.1,4.7-1.8c23-11,48.7-92.3,56.7-92.6c7,0.3,27.4,62.3,47.8,85.3
		c3,3.3,5.9,5.9,8.8,7.3c3.8,1.8,7.6,2.8,11.5,3.1c19.7,1.8,39.7-12.9,49.2-20C603,640.8,616.5,602.1,601.5,573.6z M439.7,586.7
		c-1.5,7.4-33.3,73.1-47.6,71.9c-20.1-1.8-26.1-16.6-30.8-31.4c-3.9-12.2-10.1-46,6.7-52.1c24.7-9,54.3-1.7,68.2,2
		C436.3,577,441.2,579.3,439.7,586.7z M569.9,627.2c-4.8,14.8-10.7,29.6-30.8,31.4c-14.3,1.3-46.1-64.5-47.6-71.9
		c-1.5-7.4,3.5-9.7,3.5-9.7c13.9-3.7,43.5-10.9,68.2-2C580.1,581.2,573.9,615,569.9,627.2z"/>
	<defs>
		<filter id="Adobe_OpacityMaskFilter_2_" filterUnits="userSpaceOnUse" x="322.4" y="549.6" width="286.3" height="127.1">
			<feFlood  style="flood-color:white;flood-opacity:1" result="back"/>
			<feBlend  in="SourceGraphic" in2="back" mode="normal"/>
		</filter>
	</defs>
	<mask maskUnits="userSpaceOnUse" x="322.4" y="549.6" width="286.3" height="127.1" id="SVGID_3_">
		<g class="st15">
			<defs>
				<filter id="Adobe_OpacityMaskFilter_3_" filterUnits="userSpaceOnUse" x="323.1" y="550.4" width="284.8" height="125.6">
					<feFlood  style="flood-color:white;flood-opacity:1" result="back"/>
					<feBlend  in="SourceGraphic" in2="back" mode="normal"/>
				</filter>
			</defs>
			<mask maskUnits="userSpaceOnUse" x="323.1" y="550.4" width="284.8" height="125.6" id="SVGID_3_">
				<g class="st16">
				</g>
			</mask>
			<linearGradient id="SVGID_4_" gradientUnits="userSpaceOnUse" x1="465.5241" y1="665.2713" x2="465.5241" y2="571.0491">
				<stop  offset="0" style="stop-color:#000000"/>
				<stop  offset="1" style="stop-color:#FFFFFF"/>
			</linearGradient>
			<path class="st17" d="M601.5,573.6c-7.1-13.5-25.4-20-45.3-22.2c-1.8-0.2-3.7-0.4-5.5-0.5c-8.5-0.6-17.2-0.6-25.4-0.1
				c-11.4,0.7-21.7,2.4-29.1,4.4c-15,4.1-22.7,5.4-26.6,5.8c-2.6,0.3-3.5,0.1-3.7,0.1c0,0,0,0-0.1,0c-0.2,0-1.1,0.2-3.7-0.1
				c-3.9-0.4-11.7-1.8-26.5-5.8c-7.4-2-17.8-3.7-29.2-4.4c-1.6-0.1-3.2-0.2-4.9-0.3c-8.5-0.3-17.4-0.1-25.9,0.8
				c-20,2.3-38.2,8.7-45.3,22.2c-15,28.5-5,63.8,18.3,82.2c9.3,7.3,29.4,21.9,49.2,20.1c0,0,0.1,0,0.1,0c0.2,0,0.3,0,0.5-0.1
				c0,0,0,0,0,0c2-0.2,4.1-0.6,6.1-1.2c1.6-0.5,3.2-1.1,4.7-1.8c23-11,48.7-92.3,56.7-92.6c0,0,0,0,0,0c0,0,0.1,0,0.1,0
				c0,0,0,0,0.1,0c0,0,0.1,0,0.1,0c0.1,0,0.1,0,0.2,0.1c0,0,0,0,0.1,0c7.5,3.5,27.4,62.8,47.2,85.2c3,3.3,5.9,5.9,8.8,7.3
				c3.8,1.8,7.6,2.8,11.5,3.1c1.6,0.1,3.1,0.2,4.7,0.1c18.2-0.6,35.8-13.6,44.5-20.2C603,640.8,616.5,602.1,601.5,573.6z
				 M439.7,586.7c-1.5,7.4-33.3,73.1-47.6,71.9c-20.1-1.8-26.1-16.6-30.8-31.4c-3.9-12.2-10.1-46,6.7-52.1c24.7-9,54.3-1.7,68.2,2
				C436.3,577,441.2,579.3,439.7,586.7z M569.9,627.2c-4.8,14.8-10.7,29.6-30.8,31.4c-14.3,1.3-46.1-64.5-47.6-71.9
				c-1.5-7.4,3.5-9.7,3.5-9.7c13.9-3.7,43.5-10.9,68.2-2C580.1,581.2,573.9,615,569.9,627.2z"/>
		</g>
	</mask>
	<path class="st8" d="M533.2,675.8c0.3,0,0.5,0.1,0.8,0.1c1.6,0.1,3.1,0.2,4.7,0.1c18.2-0.6,35.8-13.6,44.5-20.2
		c19.8-15,33.3-53.7,18.3-82.2c-7.1-13.5-25.4-20-45.3-22.2c-1.8-0.2-3.7-0.4-5.5-0.5c-8.5-0.6-17.2-0.6-25.4-0.1
		c-11.4,0.7-21.7,2.4-29.1,4.4c-15,4.1-22.7,5.4-26.6,5.8c-2.6,0.3-3.5,0.1-3.7,0.1c0,0,0,0-0.1,0c-0.2,0-1.1,0.2-3.7-0.1
		c-3.9-0.4-11.7-1.8-26.5-5.8c-7.4-2-17.8-3.7-29.2-4.4c-1.6-0.1-3.2-0.2-4.9-0.3c-8.5-0.3-17.4-0.1-25.9,0.8
		c-20,2.3-38.2,8.7-45.3,22.2c-15,28.5-5,63.8,18.3,82.2c9.3,7.3,29.4,21.9,49.2,20.1c0,0,0.1,0,0.1,0c0.2,0,0.3,0,0.5-0.1
		c0,0,0,0,0,0c2-0.2,4.1-0.6,6.1-1.2c1.6-0.5,3.2-1.1,4.7-1.8c23-11,48.7-92.3,56.7-92.6c0,0,0,0,0,0c0,0,0.1,0,0.1,0c0,0,0,0,0.1,0
		c0,0,0.1,0,0.1,0c0.1,0,0.1,0,0.2,0.1c0,0,0,0,0.1,0c7.5,3.5,27.4,62.8,47.2,85.2c3,3.3,5.9,5.9,8.8,7.3
		C526,674.4,529.6,675.3,533.2,675.8 M439.7,586.7c-1.5,7.4-33.3,73.1-47.6,71.9c-20.1-1.8-26.1-16.6-30.8-31.4
		c-3.9-12.2-10.1-46,6.7-52.1c24.7-9,54.3-1.7,68.2,2C436.3,577,441.2,579.3,439.7,586.7z M569.9,627.2
		c-4.8,14.8-10.7,29.6-30.8,31.4c-14.3,1.3-46.1-64.5-47.6-71.9c-1.5-7.4,3.5-9.7,3.5-9.7c13.9-3.7,43.5-10.9,68.2-2
		C580.1,581.2,573.9,615,569.9,627.2z"/>
	<path class="st8" d="M581.5,570c-20.6-9.2-44.8-8.4-64.5-5.5c-11.5,1.7-21.4,4.1-28.3,5.6c0,0-8.8,1.1-6.8,9.4
		c2,8.3,35.3,86.3,54.6,86.3c0.3,0,0.6,0,0.9,0c14.5-0.2,26.5-6.4,35.8-14.6c0.1-0.1,0.3-0.3,0.4-0.4c7.5-6.8,13.3-14.8,17-22
		C597.5,615.6,602.8,579.6,581.5,570z M569.9,627.2c-4.8,14.8-10.7,29.6-30.8,31.4c-14.3,1.3-46.1-64.5-47.6-71.9
		c-1.5-7.4,3.5-9.7,3.5-9.7c13.9-3.7,43.5-10.9,68.2-2C580.1,581.2,573.9,615,569.9,627.2z"/>
	<path class="st8" d="M578.7,573c-30.3-13.6-69.2-3.8-86.6,0.1c0,0-8.3,1-6.4,8.8c1.9,7.8,32.9,80.5,50.9,80.5
		c25.3,0,42.6-19.4,50.5-34.5C593.6,615.5,598.5,581.9,578.7,573z M569.9,627.2c-4.8,14.8-10.7,29.6-30.8,31.4
		c-14.3,1.3-46.1-64.5-47.6-71.9c-1.5-7.4,3.5-9.7,3.5-9.7c13.9-3.7,43.5-10.9,68.2-2C580.1,581.2,573.9,615,569.9,627.2z"/>
	<path class="st8" d="M341.1,628.8c3.7,7.2,9.4,15.2,17,22c0.1,0.1,0.3,0.3,0.4,0.4c9.3,8.2,21.3,14.4,35.8,14.6c0.3,0,0.6,0,0.9,0
		c19.3,0,52.6-78,54.6-86.3c2-8.3-6.8-9.4-6.8-9.4c-6.9-1.5-16.8-3.9-28.3-5.6c-19.8-2.9-44-3.7-64.5,5.5
		C328.9,579.6,334.2,615.6,341.1,628.8z M368.5,575c24.7-9,54.3-1.7,68.2,2c0,0,5,2.3,3.5,9.7c-1.5,7.4-33.3,73.1-47.6,71.9
		c-20.1-1.8-26.1-16.6-30.8-31.4C357.8,615,351.6,581.2,368.5,575z"/>
	<path class="st8" d="M344.5,627.8c7.9,15.1,25.2,34.5,50.5,34.5c18,0,49-72.8,50.9-80.5c1.9-7.8-6.4-8.8-6.4-8.8
		c-17.4-3.9-56.3-13.7-86.6-0.1C333.1,581.9,338.1,615.5,344.5,627.8z M368.5,575c24.7-9,54.3-1.7,68.2,2c0,0,5,2.3,3.5,9.7
		c-1.5,7.4-33.3,73.1-47.6,71.9c-20.1-1.8-26.1-16.6-30.8-31.4C357.8,615,351.6,581.2,368.5,575z"/>
	<defs>
		<filter id="Adobe_OpacityMaskFilter_4_" filterUnits="userSpaceOnUse" x="465.1" y="579.2" width="1.7" height="1.9">
			<feFlood  style="flood-color:white;flood-opacity:1" result="back"/>
			<feBlend  in="SourceGraphic" in2="back" mode="normal"/>
		</filter>
	</defs>
	<mask maskUnits="userSpaceOnUse" x="465.1" y="579.2" width="1.7" height="1.9" id="SVGID_5_">
		<g class="st18">
			<defs>
				<filter id="Adobe_OpacityMaskFilter_5_" filterUnits="userSpaceOnUse" x="465.9" y="579.9" width="0.2" height="0.4">
					<feFlood  style="flood-color:white;flood-opacity:1" result="back"/>
					<feBlend  in="SourceGraphic" in2="back" mode="normal"/>
				</filter>
			</defs>
			<mask maskUnits="userSpaceOnUse" x="465.9" y="579.9" width="0.2" height="0.4" id="SVGID_5_">
				<g class="st19">
				</g>
			</mask>
			<radialGradient id="SVGID_6_" cx="465.962" cy="580.1146" r="0.1441" gradientUnits="userSpaceOnUse">
				<stop  offset="0" style="stop-color:#FFFFFF"/>
				<stop  offset="1" style="stop-color:#000000"/>
			</radialGradient>
			<path class="st20" d="M466,580.3c0,0-0.1,0-0.1,0l0-0.4c0,0,0.1,0,0.2,0L466,580.3z"/>
		</g>
	</mask>
	<path class="st8" d="M466,580.3c0,0-0.1,0-0.1,0l0-0.4c0,0,0.1,0,0.2,0L466,580.3z"/>
	<path class="st8" d="M486.3,820.9c0.8,1,5.1,6.3,8.3,6.3c3.5,0,18.9-7.1,20.5-10.7c0.3-0.8-1-8.5-1.3-9.8"/>
	<defs>
		<filter id="Adobe_OpacityMaskFilter_6_" filterUnits="userSpaceOnUse" x="457.8" y="769.1" width="62.2" height="52.4">
			<feFlood  style="flood-color:white;flood-opacity:1" result="back"/>
			<feBlend  in="SourceGraphic" in2="back" mode="normal"/>
		</filter>
	</defs>
	<mask maskUnits="userSpaceOnUse" x="457.8" y="769.1" width="62.2" height="52.4" id="SVGID_7_">
		<g class="st21">
			<defs>
				<filter id="Adobe_OpacityMaskFilter_7_" filterUnits="userSpaceOnUse" x="458.5" y="769.9" width="60.7" height="50.9">
					<feFlood  style="flood-color:white;flood-opacity:1" result="back"/>
					<feBlend  in="SourceGraphic" in2="back" mode="normal"/>
				</filter>
			</defs>
			<mask maskUnits="userSpaceOnUse" x="458.5" y="769.9" width="60.7" height="50.9" id="SVGID_7_">
				<g class="st22">
				</g>
			</mask>
			<linearGradient id="SVGID_8_" gradientUnits="userSpaceOnUse" x1="504.4988" y1="827.0401" x2="490.237" y2="795.0742">
				<stop  offset="0" style="stop-color:#FFFFFF"/>
				<stop  offset="0.9948" style="stop-color:#000000"/>
			</linearGradient>
			<path class="st23" d="M499.6,817.2c-27.3,13.9-40.8-17.5-41-17.9c0,0,0,0,0,0s-2.5-11.9,23.4-22.7c23.8-9.9,30.1-6.4,31.2-5.3
				c0,0,0,0,0,0c0.1,0.1,0.1,0.2,0.2,0.2c0,0,0,0,0,0s0,0,0,0c0.1,0.1,0.1,0.2,0.2,0.4c0,0,0,0,0,0
				C519.6,785.1,526.8,803.4,499.6,817.2z"/>
		</g>
	</mask>
	<path class="st8" d="M501.4,770.5c8.2-1.5,11,0.2,11.7,0.9c0,0,0,0,0,0c0.1,0.1,0.1,0.2,0.2,0.2c0,0,0,0,0,0s0,0,0,0
		c0.1,0.1,0.1,0.2,0.2,0.4c0,0,0,0,0,0c6.1,13,13.3,31.3-13.9,45.2c-27.3,13.9-40.8-17.5-41-17.9c0,0,0,0,0,0s-1.4-6.4,8.1-14"/>
	<path class="st8" d="M501.4,769.9l-9.5-15.5c0,0-18.5,10.9-34.4,6.3c0,0,9.9,25,10.6,26C468.8,787.8,502.1,779.5,501.4,769.9z"/>
	<path class="st8" d="M476,760.5c0,0-0.1,0-0.1,0c-34.2,7.6-38.8-23.5-38.8-23.5c-2.5-10,3.9-3.7,3.9-3.7s10.8,14.7,30.5,14.7
		s22.5-13.6,27.7-19.8c3.8-4.6,5.5-2.4,6.1-1c0.2,0.5,0.3,1,0.3,1S510.3,752.8,476,760.5z"/>
	<path class="st8" d="M501.4,770.5c8.2-1.5,11,0.2,11.7,0.9c0,0,0,0,0,0c0.1,0.1,0.2,0.2,0.2,0.2c0,0,0,0,0,0s0,0,0,0
		c0,0,0.1,0.2,0.2,0.4c0,0,0,0,0,0c0.7,1.8,1.9,9.6-21.8,20.6c-26.8,12.4-33,6.8-33.1,6.7c0,0,0,0,0,0s-1.4-6.4,8.1-14"/>
	<path class="st8" d="M515.4,775.3l13-6.7c1-0.5,2.3-0.1,2.9,0.9l7.8,13.8c0.6,1.1,0.2,2.5-0.9,3l-19.3,10"/>
	<path class="st8" d="M584.6,438.8c-17.2-12.6-35.3-26.3-50-37.5c-5.5-4.2-11.2-8.5-16.1-12.2c-6.8-5.1-14.2-9.3-22.1-12.6
		c-0.8-0.3-1.6-0.7-2.4-1c-5-2.1-11.9-5.3-21.1-9.8c-17-8.2-39-19.2-60.3-29.8c-29.5-14.7-66.1-33-71.4-34.5
		c-13-3.4-58-19.4-59.9-20l6-16.9c0.5,0.2,46.3,16.4,58.5,19.6c5.9,1.6,27.3,12.1,74.8,35.8c27.3,13.6,62.7,31.3,78.8,38.4
		c2.6,1.2,5.4,1.9,8.3,2.4c2.7,0.5,5,2.1,6.3,3c1.7,1.2,4.2,2.9,7.4,5.3c6,4.5,14.3,10.8,23.9,18.1c15.6,11.9,33.6,22.8,51.7,35.9
		l-1.1,2.3 M588,441.4c-1.1-0.8-2.3-1.7-3.5-2.5 M514,365.5C514,365.5,514,365.4,514,365.5C514,365.4,514,365.5,514,365.5z"/>
	<path class="st8" d="M688.2,401.5c29.7,48,31.5,57.7,30.8,63.6c-0.3,2.7-1,9.8-2,19.7c-8.9,91.4-19.6,187.3-31.8,205.7
		c-2.6,3.9-10.6,16-81,57.9c-34.1,20.3-66.7,38-67.1,38.2l-8.5-15.8c49.4-26.8,131.5-75,141.7-90.2c2.1-3.2,8-17.8,16.6-84.7
		c5.4-41.4,9.7-86.1,12.3-112.9c1-9.9,1.6-16.6,2-19.8c-0.3-2.4-3.6-12.8-29.5-54.4l2.2-1.4 M673.9,407.6 M701.1,463.5L701.1,463.5
		L701.1,463.5z M701.1,463.5C701.1,463.5,701.1,463.5,701.1,463.5C701.1,463.5,701.1,463.5,701.1,463.5z"/>
	<polygon class="st8" points="620.3,364.3 620.4,369.9 625.3,367.1 	"/>
	<polygon class="st8" points="650.5,404.4 617.1,412.3 651.4,407.2 	"/>
	<g>
		<circle class="st9" cx="721.8" cy="333.7" r="5"/>
		<circle class="st24" cx="733.8" cy="323.2" r="3.1"/>
		<circle class="st9" cx="701.3" cy="334" r="2.1"/>
		<circle class="st25" cx="669.6" cy="353.9" r="3.1"/>
		<circle class="st9" cx="724.2" cy="365.5" r="5"/>
		<circle class="st9" cx="741.2" cy="337" r="5"/>
		<circle class="st25" cx="712.7" cy="321.7" r="5"/>
		<circle class="st9" cx="754.5" cy="320.8" r="5"/>
		<circle class="st9" cx="651.5" cy="333.8" r="5"/>
		<circle class="st25" cx="677" cy="371.1" r="1.2"/>
		<circle class="st9" cx="673.5" cy="308.2" r="4.3"/>
		<circle class="st26" cx="751.7" cy="299.6" r="5.8"/>
		<circle class="st9" cx="710" cy="356" r="4.6"/>
		<circle class="st9" cx="723.6" cy="340" r="1.5"/>
		<circle class="st9" cx="716.5" cy="331.4" r="0.8"/>
		<circle class="st9" cx="717.4" cy="330.3" r="0.6"/>
		<circle class="st9" cx="718.9" cy="329.3" r="0.3"/>
		<circle class="st9" cx="721.4" cy="339.3" r="0.6"/>
		<circle class="st9" cx="720.5" cy="338.9" r="0.3"/>
		<circle class="st9" cx="769.5" cy="248" r="6.7"/>
		<circle class="st9" cx="760.8" cy="247.6" r="2"/>
		<circle class="st9" cx="774.6" cy="242.3" r="1.1"/>
		<circle class="st9" cx="775.7" cy="243.9" r="0.8"/>
		<circle class="st9" cx="776.3" cy="246.2" r="0.4"/>
		<circle class="st9" cx="762.5" cy="245.2" r="0.8"/>
		<circle class="st9" cx="763.5" cy="244.2" r="0.4"/>
		<g class="st4">
			<circle class="st9" cx="658.4" cy="376.8" r="2.8"/>
			<circle class="st9" cx="659.4" cy="380.4" r="0.9"/>
			<circle class="st9" cx="655.5" cy="375.6" r="0.4"/>
			<circle class="st9" cx="656" cy="374.9" r="0.3"/>
			<circle class="st9" cx="656.8" cy="374.4" r="0.2"/>
			<circle class="st9" cx="658.2" cy="380" r="0.3"/>
			<circle class="st9" cx="657.7" cy="379.7" r="0.2"/>
		</g>
		<circle class="st9" cx="672.4" cy="328.5" r="2.4"/>
		<circle class="st9" cx="673.2" cy="331.6" r="0.7"/>
		<circle class="st9" cx="672.2" cy="331.2" r="0.3"/>
		<circle class="st9" cx="671.7" cy="331" r="0.1"/>
		<circle class="st9" cx="729.6" cy="309" r="5"/>
		<circle class="st9" cx="776.2" cy="309.6" r="5"/>
		<circle class="st25" cx="762.6" cy="335.1" r="5"/>
		<circle class="st9" cx="743.5" cy="246.3" r="5"/>
		<circle class="st9" cx="754.7" cy="262" r="5"/>
		<circle class="st25" cx="784.7" cy="274.9" r="7"/>
		<circle class="st9" cx="734.3" cy="260.2" r="2.8"/>
		<circle class="st9" cx="715.9" cy="261.6" r="1.5"/>
		<circle class="st27" cx="731.1" cy="243" r="5"/>
		<circle class="st9" cx="713.9" cy="282.9" r="3.1"/>
		<circle class="st25" cx="722.3" cy="271.6" r="4.3"/>
		<circle class="st9" cx="746.9" cy="282" r="3.1"/>
		<circle class="st9" cx="686" cy="322.9" r="2.4"/>
		<circle class="st9" cx="688.7" cy="358.5" r="2.4"/>
		<circle class="st25" cx="656.5" cy="355.1" r="1.8"/>
		<circle class="st9" cx="712" cy="338.3" r="1.2"/>
		<g>
			<circle class="st9" cx="693.4" cy="344" r="2.8"/>
			<circle class="st9" cx="694.4" cy="347.6" r="0.9"/>
			<circle class="st9" cx="690.5" cy="342.8" r="0.4"/>
			<circle class="st9" cx="691" cy="342.1" r="0.3"/>
			<circle class="st9" cx="691.8" cy="341.6" r="0.2"/>
			<circle class="st9" cx="693.2" cy="347.2" r="0.3"/>
			<circle class="st9" cx="692.7" cy="346.9" r="0.2"/>
		</g>
		<circle class="st9" cx="700.6" cy="321" r="1.8"/>
		<circle class="st25" cx="670.7" cy="391.8" r="3.1"/>
		<circle class="st9" cx="694.8" cy="273.4" r="3.1"/>
		<circle class="st9" cx="702.2" cy="290.5" r="5"/>
		<circle class="st9" cx="681.6" cy="274.5" r="1.8"/>
		<circle class="st9" cx="695.8" cy="311.2" r="3.1"/>
		<circle class="st9" cx="696.2" cy="375.7" r="3.7"/>
		<circle class="st9" cx="677.5" cy="343.7" r="1.2"/>
		<circle class="st28" cx="808.6" cy="290.7" r="3.1"/>
		<g>
			<circle class="st9" cx="783.4" cy="295" r="2.8"/>
			<circle class="st9" cx="780.3" cy="293.1" r="0.9"/>
			<circle class="st9" cx="783.8" cy="298.2" r="0.4"/>
			<circle class="st9" cx="784.6" cy="298" r="0.3"/>
			<circle class="st9" cx="785.3" cy="297.3" r="0.2"/>
			<circle class="st9" cx="780.4" cy="294.4" r="0.3"/>
			<circle class="st9" cx="780.5" cy="294.9" r="0.2"/>
		</g>
		<circle class="st9" cx="809.5" cy="271.2" r="2.4"/>
		<circle class="st9" cx="803.8" cy="303" r="1.8"/>
		<circle class="st28" cx="820.6" cy="286.1" r="1.2"/>
		<circle class="st9" cx="766.5" cy="273" r="2.1"/>
		<circle class="st9" cx="738.5" cy="297.8" r="3.1"/>
		<circle class="st9" cx="724.1" cy="285.9" r="1.2"/>
		<circle class="st26" cx="763.7" cy="302.3" r="2.4"/>
		<circle class="st26" cx="761" cy="300.6" r="0.7"/>
		<circle class="st9" cx="767.5" cy="286.9" r="2.4"/>
		<circle class="st9" cx="737.2" cy="275.5" r="2.4"/>
		<g class="st7">
			<circle class="st9" cx="754.7" cy="277" r="2.8"/>
			<circle class="st9" cx="753.4" cy="280.4" r="0.9"/>
			<circle class="st9" cx="757.8" cy="276.1" r="0.4"/>
			<circle class="st9" cx="757.4" cy="275.4" r="0.3"/>
			<circle class="st9" cx="756.6" cy="274.8" r="0.2"/>
			<circle class="st9" cx="754.6" cy="280.2" r="0.3"/>
			<circle class="st9" cx="755.2" cy="280" r="0.2"/>
		</g>
		<circle class="st9" cx="719.3" cy="300.1" r="1.2"/>
	</g>
	<g>
		<circle class="st10" cx="264.8" cy="245.3" r="2"/>
		<circle class="st29" cx="261.9" cy="239.8" r="1.2"/>
		<circle class="st10" cx="272.2" cy="248.2" r="0.8"/>
		<circle class="st30" cx="281" cy="259.8" r="1.2"/>
		<circle class="st10" cx="259.6" cy="256.5" r="2"/>
		<circle class="st10" cx="257.3" cy="243.8" r="2"/>
		<circle class="st30" cx="269.8" cy="242.2" r="2"/>
		<circle class="st10" cx="254.7" cy="236.1" r="2"/>
		<circle class="st10" cx="290.3" cy="254.9" r="2"/>
		<circle class="st30" cx="276" cy="265" r="0.5"/>
		<circle class="st10" cx="285.9" cy="242.6" r="1.7"/>
		<circle class="st31" cx="258.6" cy="228.8" r="2.3"/>
		<circle class="st10" cx="266.1" cy="255" r="1.8"/>
		<circle class="st10" cx="263.3" cy="247.3" r="0.6"/>
		<circle class="st10" cx="267.1" cy="245.2" r="0.3"/>
		<circle class="st10" cx="266.9" cy="244.6" r="0.2"/>
		<circle class="st10" cx="266.5" cy="244.1" r="0.1"/>
		<circle class="st10" cx="264.2" cy="247.4" r="0.2"/>
		<circle class="st10" cx="264.6" cy="247.3" r="0.1"/>
		<circle class="st10" cx="259.2" cy="207.6" r="2.6"/>
		<circle class="st10" cx="262.5" cy="208.7" r="0.8"/>
		<circle class="st10" cx="258.2" cy="204.8" r="0.4"/>
		<circle class="st10" cx="257.6" cy="205.3" r="0.3"/>
		<circle class="st10" cx="257" cy="206" r="0.1"/>
		<circle class="st10" cx="262.1" cy="207.5" r="0.3"/>
		<circle class="st10" cx="261.9" cy="207.1" r="0.2"/>
		<g class="st4">
			<circle class="st10" cx="281.9" cy="269.6" r="1.1"/>
			<circle class="st10" cx="281.1" cy="270.7" r="0.3"/>
			<circle class="st10" cx="283.2" cy="269.5" r="0.2"/>
			<circle class="st10" cx="283.1" cy="269.2" r="0.1"/>
			<circle class="st10" cx="282.9" cy="268.9" r="0.1"/>
			<circle class="st10" cx="281.6" cy="270.8" r="0.1"/>
			<circle class="st10" cx="281.8" cy="270.7" r="0.1"/>
		</g>
		<circle class="st10" cx="283.5" cy="250.1" r="0.9"/>
		<circle class="st10" cx="282.8" cy="251.1" r="0.3"/>
		<circle class="st10" cx="283.2" cy="251.1" r="0.1"/>
		<circle class="st10" cx="283.4" cy="251.1" r="0.1"/>
		<circle class="st10" cx="265.4" cy="235.2" r="2"/>
		<circle class="st10" cx="248.4" cy="229.1" r="2"/>
		<circle class="st30" cx="249.8" cy="240.2" r="2"/>
		<circle class="st10" cx="268.9" cy="210.6" r="2"/>
		<circle class="st10" cx="262.7" cy="214.7" r="2"/>
		<circle class="st30" cx="250" cy="215.3" r="2.7"/>
		<circle class="st10" cx="270.4" cy="216.8" r="1.1"/>
		<circle class="st10" cx="276.8" cy="219.9" r="0.6"/>
		<circle class="st32" cx="273.9" cy="211.1" r="2"/>
		<circle class="st10" cx="274.7" cy="227.9" r="1.2"/>
		<circle class="st30" cx="273.1" cy="222.6" r="1.7"/>
		<circle class="st10" cx="262.8" cy="223.1" r="1.2"/>
		<circle class="st10" cx="279.3" cy="246.2" r="0.9"/>
		<circle class="st10" cx="273.5" cy="258.8" r="0.9"/>
		<circle class="st30" cx="285.6" cy="262" r="0.7"/>
		<circle class="st10" cx="267.8" cy="248.3" r="0.5"/>
		<g>
			<circle class="st10" cx="273.7" cy="252.9" r="1.1"/>
			<circle class="st10" cx="272.9" cy="254" r="0.3"/>
			<circle class="st10" cx="275" cy="252.8" r="0.2"/>
			<circle class="st10" cx="274.9" cy="252.5" r="0.1"/>
			<circle class="st10" cx="274.6" cy="252.2" r="0.1"/>
			<circle class="st10" cx="273.4" cy="254.1" r="0.1"/>
			<circle class="st10" cx="273.6" cy="254.1" r="0.1"/>
		</g>
		<circle class="st10" cx="274.3" cy="243.5" r="0.7"/>
		<circle class="st30" cx="275.4" cy="273.3" r="1.2"/>
		<circle class="st10" cx="282.9" cy="227.1" r="1.2"/>
		<circle class="st10" cx="277.9" cy="232.3" r="2"/>
		<circle class="st10" cx="287.5" cy="229.3" r="0.7"/>
		<circle class="st10" cx="277.3" cy="240.7" r="1.2"/>
		<circle class="st10" cx="268.4" cy="264" r="1.4"/>
		<circle class="st10" cx="279.5" cy="254.9" r="0.5"/>
		<circle class="st33" cx="239.2" cy="217.8" r="1.2"/>
		<g>
			<circle class="st10" cx="247.7" cy="222.8" r="1.1"/>
			<circle class="st10" cx="249.1" cy="222.5" r="0.3"/>
			<circle class="st10" cx="247.2" cy="223.9" r="0.2"/>
			<circle class="st10" cx="246.9" cy="223.7" r="0.1"/>
			<circle class="st10" cx="246.7" cy="223.4" r="0.1"/>
			<circle class="st10" cx="248.9" cy="223" r="0.1"/>
			<circle class="st10" cx="248.8" cy="223.2" r="0.1"/>
		</g>
		<circle class="st10" cx="241.5" cy="210.6" r="0.9"/>
		<circle class="st10" cx="239.3" cy="222.9" r="0.7"/>
		<circle class="st33" cx="235.5" cy="214.4" r="0.5"/>
		<circle class="st10" cx="256.9" cy="217.1" r="0.8"/>
		<circle class="st10" cx="263.7" cy="229.9" r="1.2"/>
		<circle class="st10" cx="270.5" cy="227.6" r="0.5"/>
		<circle class="st31" cx="253.9" cy="228.1" r="0.9"/>
		<circle class="st31" cx="255.1" cy="227.9" r="0.3"/>
		<circle class="st10" cx="254.6" cy="222" r="0.9"/>
		<circle class="st10" cx="267.2" cy="222" r="0.9"/>
		<g class="st7">
			<circle class="st10" cx="260.6" cy="220.2" r="1.1"/>
			<circle class="st10" cx="260.6" cy="221.6" r="0.3"/>
			<circle class="st10" cx="259.6" cy="219.4" r="0.2"/>
			<circle class="st10" cx="259.9" cy="219.2" r="0.1"/>
			<circle class="st10" cx="260.2" cy="219.1" r="0.1"/>
			<circle class="st10" cx="260.2" cy="221.3" r="0.1"/>
			<circle class="st10" cx="260.1" cy="221.2" r="0.1"/>
		</g>
		<circle class="st10" cx="270.3" cy="233.4" r="0.5"/>
	</g>
	<g>
		<path d="M677.6,736.7c0,0-9.5-25.4-25.5-20.3c-16,5.1-14.6,29.7-14.6,29.7s2.6,12.3,1,17.2c-1.5,4.9-8.6,17.1-32.7,18.1l-10.7,1
			c0,0-1.1,0.8-1-1.8c0-2.6,3.2-7.3,15.3-19.4s12-27.5,9.2-34.5c-2.8-7.1-10.8-19.1-0.4-29.8c10.4-10.7,19.5-17.4,15.7-33.7
			c0,0-0.6,21.4-26.6,29.1c0,0-16.5,6.9-10.1,32.7c0,0,19.5,24.5-6.7,45.2c0,0-7.2,5.1-11.9,23.1c0,0-11.5,18-8,1.5
			c0,0,17.3-18.2,11.1-46.7c0,0,1.4-2.5-12.9-28.6c-14.3-26.2,7.9-43.3,9-62.5c1.2-19.2-5.7-25.7-20.2-30.8c0,0-13.9-4.7-15.1-9
			c0,0-1-1.9,0.9-1.9s5.7-0.3,5.4-1.3s-4.8-5.9-7.4-5.1c-2.6,0.8-5.6,6.1-5.3,15.8c0.3,9.7,4.7,12.9,15.5,20.8
			c10.8,7.9,8,17.4,8.2,24.4c0.2,7-6.8,10.9-7.2,20.1c-0.4,9.2-0.1,22.1,10.3,44.1s8.2,31.5,0.7,41.2c0,0-2.1,2.7-3.5,4.4
			c-1.4,1.7-2.2,0.4-2.4,0c-0.2-0.4-9.2-5.6-10.5-14.8c-1.4-9.2-2.5-13.8,0.3-26.7c2.9-13-1.5-22.9-13-31.1
			c-11.5-8.2-16.3-32.1-14.8-41.9c1.5-9.8,5.2-19,3.4-18.5c-1.7,0.5-14.3,3-15.8,28.7c0,0-3.1,15.8,14.3,26c0,0,18.5,25.8,11.2,62.2
			c0,0-1.8,27,19.6,37.3c0,0,2.5,12.1,5.1,15.3l4.8,6l13.6-3.2c0,0-2.4-8.6,14.1-18.2c16.5-9.7,29.7-12.2,36.1-12.2
			s21.7-4.7,28.3-14.2c6.6-9.5,2.1-18.3,1.7-20.8c-0.4-2.4-3.4-16.8,1.4-22.8c0,0,1.4-3,6.5-0.8
			C669.3,732.4,678.5,738.9,677.6,736.7z"/>
		<g>
			<path class="st8" d="M572.8,802.9c6.1-12.5,8.4-11.6,16.2-17.9s25.5,0.1,39.7-9.7s7.3-14,16.3-36.2c9.1-22.2,33.1-0.6,33.1-0.6
				s-10.5-29.8-29-21s-9.9,43.5-9.9,43.5"/>
			<path class="st8" d="M659.7,729.2c0,0-8.4,3.6-2.4,28.6c5.9,25-25.5,30.9-35.2,31.5s-40.3,11.3-45.8,26.3"/>
			<path class="st8" d="M651.3,731c0,0-3.9,1.6-2.5,19.7c1.4,18-3.4,27.9-27.1,33.3c-23.8,5.5-40.3,12.4-44.5,24.2"/>
			<path class="st8" d="M594.3,782.6c-1.2-3.9,2.8-8.3,2.8-8.3c14.7-15.9,21.2-20,23.4-35.8c2.2-15.8-17.9-28.4,1.1-44.8
				s12.5-30.5,12.5-30.5s-1.6,20.3-22.2,27.1c-20.6,6.8-16.9,32.2-12.7,38.8c4.2,6.6,12.7,20.6-7.5,39.8c0,0-12.7,14.7-11.9,23.2"/>
			<path class="st8" d="M619.2,695.8c0,0-15.2,4.9-15.2,24.6c0,19.7,7.3,12,3.4,30.7c-4,18.8-21.4,24.1-21.5,36.3"/>
			<path class="st8" d="M576.2,783.7c5.6-14.2,3.8-24.1-6.8-38.8c-10.6-14.7-14.3-32.8-14.3-32.8s-6.5-16.1-0.3-28.6
				s5.5-14.6,5.2-24.8c-0.3-10.2-16.8-18.7-20.3-23.2c-3.5-4.5-4.6-12.8-1.9-21.7c2.7-8.9,8.7-3.2,9-1.7c0.3,1.5,3.9,2.7,3.9,2.7
				s-18.3-2.7-12.8,17"/>
			<path class="st8" d="M542.2,615.9c0,0-0.5,5.2,20.4,12c20.9,6.8,17.8,38.6,6.8,50.6c-10.9,12-14.3,22.1-13.7,36.2"/>
			<path class="st8" d="M539.1,618.1c0,0-0.9,7.2,17.9,18.6c18.8,11.4,2.4,41.7,3.3,54.4"/>
			<path class="st8" d="M572.2,674.8c0,0-7,13.7-7.6,27.7c-0.6,14.1,15,33.5,16.9,43.2c1.9,9.7,3.4,27.6-5.2,39.2
				s-8.9,23.5-6.8,27.3"/>
			<path class="st8" d="M575,753.8c0,0,2.1,8.9-5.6,28.3c0,0-9.6,18-7.1,30.2"/>
			<path class="st8" d="M567.2,741.6c0,0,5.6,16.8,0,28c-5.6,11.2-13,13.3-14.3,25.4c-1.3,12.1,5.8,22.9,5.8,22.9"/>
			<path class="st8" d="M537.9,710.7c-30.5-31.1-13.4-64.1-13.4-64.1s-18.3,0.8-16.9,35.8c0,0-0.4,12.6,24.9,24.4
				c25.2,11.8,13,42.6,9,55.4c-4,12.8,2.7,32.9,11.7,40.6"/>
			<path class="st8" d="M520.9,700.3c0,0,18,23.5,12.8,55.8s17.9,45.4,17.9,45.4"/>
			<path class="st8" d="M546.3,745.6c0,0-4.5,27.6,13.4,34.7"/>
			<path class="st8" d="M541,763.8c0,0,5,20,12.5,27.6"/>
			<path class="st8" d="M524.5,646.6c0,0-20.5,11.8-2.8,54"/>
		</g>
	</g>
	<g>
		<path d="M256.6,659.6l13.1,3.3l15.4-3.8l16-2.5l22.1,22.3l20.7,5.1l8.6,10.8l4.2,23.3l5.3-21l-4.1-17.1l24.8-27.8l32.3,72.8
			l-8.5,51.4c0,0-11.6,22-11.5,28.7c0.1,6.7-2.4,17.4-2.4,17.4l-43,6.1l-104.1,2.9l-47.8-12.8l-3.8-50.1l9.1-23l34.2-56.8l3.3-18.2
			L256.6,659.6z"/>
		<g>
			<path d="M189.2,771.1c0,0,0.4-11.5-5-22.2c-5.5-10.7-7.2-17.9-5.2-29.6c2-11.7,16.5-14.7,27.1-22.1s6.1-13.9,12.6-14.2
				c0,0,9,0.8,7.1,10.9c-1.9,10-15.6,15.7-15.6,15.7s-11.8,4.4-15.9,10.5s-7.1,20.3-2.2,33.4"/>
			<path d="M201.3,805.8c-16.3-32.4,20-80.4,32-93.9c12.1-13.5,17.7-38.9,12.1-45.8c-5.6-6.9-9.8-0.1-11.4,12.3
				c-1.6,12.4-7.7,29.4-7.7,29.4s-3.1,4.9-9.1,9.9c-6,5-24.3,22.4-27.1,43.5c-2.7,21.1,3.7,46.9,3.7,46.9"/>
			<path d="M233.4,711.9c0,0,19.7-6,20.9-34.3c0,0-0.6-9.4-5.7-16.2c-5.1-6.7-7.1-31.6,6.4-31.5c13.5,0,4.2,22.4,8.9,28.6"/>
			<path d="M208.2,802.9c0,0-4.4-17.4,2.3-35.8c6.7-18.4,17.6-36.4,29.8-46.6c12.3-10.2,22.3-24.1,20.1-42.4
				c-2.2-18.4,5.9-20.8,5.9-20.8s11-7.3,16.8,16.1c0,0,1.5,8.8-0.2,12.9"/>
			<path d="M226.8,821.2c0,0-17.8-12.3-8.6-46.3c9.2-34,40-42,50.2-57"/>
			<path d="M278.8,662.2c0,0,2.8-12.8,15.3-2.7"/>
			<path d="M237.7,820.5c0,0-29.3-40.5,5.2-81.2"/>
			<path d="M247.4,820c0,0-5.3-29.6-1.6-55.7c3.8-26.1,13.7-25.9,15.7-39.2"/>
			<path d="M255.2,823.6c0,0-10.9-49.2,17.3-82.4"/>
			<path d="M258.8,822.5c0,0-4-4.2-1.4-15.5c2.7-11.3,14.1-22.3,16.8-37.6c2.7-15.3-7.4-35.8-5.6-55.2c1.9-19.5,20.4-37.6,28.5-32.6
				c8.1,5,1.6,19.9-3.5,26.4c-5.2,6.5-11.5,15.2-9.3,50.6c2.1,35.4-17.3,38-17.8,51.9c0,0-0.6,8.3,1.1,12.8"/>
			<path d="M298.4,682.6c0,0,1.4-6.4-1.7-11.7c-3.1-5.3-4.6-24.9-1.4-30.4c3.2-5.5,7.3-8.1,13.1-8.3c5.8-0.2,8.7,1.7,8.9,6.4
				c0.2,4.7-7.6,17.4-7.4,24.8c0.2,7.4,5.2,24.9,2.1,37.1c-3.1,12.2-26.1,37.1-28.2,47.7"/>
			<path d="M279.1,819.3c0,0-2.2-7.4,3.2-15.9c5.4-8.5,10.7-16,12.8-25.9s4.6-35-4.9-42.2"/>
			<path d="M288.8,818c0,0-1-8.5,2.8-16.9c3.9-8.4,20.6-28.8,19.3-49.4s-13.7-26.3-13.7-26.3"/>
			<path d="M312.2,680.5c0,0,7-15,14.6-6.1c0,0,4.7,5.5,2.3,12.1"/>
			<path d="M305.5,713.4c0,0,3.2,14.7,6.7,23.4c3.5,8.8,7.8,24.2-8.1,60.1"/>
			<path d="M294.2,816.9c0,0-0.9-8.3,9.4-19.1c10.3-10.8,21.7-36.2,15-60.5c-6.8-24.3,0.1-38.7,9-49.7s8.6-22.1,8.5-25.9
				c-0.1-3.7,8.5-16.4,14.5-6c6,10.4,4.2,22.3-4.7,39.5c-8.9,17.1-19.3,23.7-15.2,53.2c4.1,29.5-19.6,48.5-24.5,65.3"/>
			<path d="M346.7,693.5c0,0,7.8-0.7,8.1,5.6"/>
			<path d="M353.9,741.7c0,0-10.7,6.9-11.5,17.9s8.9,26.8,9.1,36.1c0.1,9.3-2.1,18.2-6,22.5"/>
			<path d="M346.9,780.9c0,0-25.2,17-26.6,40.4"/>
			<path d="M350.6,790.3c0,0-13.1,10.2-14.1,28.6"/>
			<path d="M374.3,818.1c0,0,10.7-25.1,12.1-39.4c1.3-14.3-21.6-35.9-20.6-52.4c1-16.5,10-34.7,2.4-37.3
				c-7.6-2.6-21.4,20.7-20.9,29.6c0,0-2,14.6,18.8,41.5s2.9,48.9-5,57.2"/>
			<path d="M364.3,757.9c0,0-5.3,6.6-5,16.1s3.6,20.1,2.8,26.7c-0.7,6.6-3.3,15.1-4.6,17.4"/>
			<path d="M372.6,771.1c0,0-9,7.6-1.4,29.5"/>
			<path d="M368.3,711c0,0,15.6,7.4,15.4,36.7"/>
			<path d="M359.2,693.7c0,0-6.3-15.4-1-22.1c5.3-6.7,8.5-4.7,8.5-4.7"/>
			<path d="M380.1,760.1c0,0,1.5-9.2,4.6-14.8s5.2-18.9,3.9-25.8c-1.3-6.9-2-10.5-4.7-17.5c-2.7-7-19.1-25.1-16.5-36.8
				s16.9-27.9,24.7-20.6c7.9,7.4,4.1,16.9,1.4,23.9"/>
			<path d="M409,737c0,0-15.9,21.7-13,43.9"/>
			<path d="M381.9,797.6c0,0,6.7,4.9-3.5,24"/>
			<path d="M400.2,817.5c0,0-5.9-15.6,6.4-31.6c12.3-15.9,16.8-35.7,16.8-35.7c3.3-30.8-2-45.6-11.4-63.7
				c-9.4-18.1-23.5-21.6-29-14.8c-5.5,6.8,4.2,19.1,4.2,19.1s28.5,35.4,22.4,60.5c-6.1,25.1-14.5,27.3-16.7,34.3
				c-2.3,7.1-0.5,24-0.5,24"/>
			<path d="M408.8,782.9c0,0,3.6,10.5,3.4,18.1"/>
			<path d="M423.9,722.7c0,0,18.3-24.8,23-8.8c4.7,15.9-16.9,28.8-22.9,29.9"/>
		</g>
		<g>
			<path class="st8" d="M368.3,711c0,0,15.6,7.4,15.4,36.7"/>
			<path class="st8" d="M189.2,771.1c0,0,0.4-11.5-5-22.2c-5.5-10.7-7.2-17.9-5.2-29.6c2-11.7,16.5-14.7,27.1-22.1
				s6.1-13.9,12.6-14.2c0,0,9,0.8,7.1,10.9c-1.9,10-15.6,15.7-15.6,15.7s-11.8,4.4-15.9,10.5s-7.1,20.3-2.2,33.4"/>
			<path class="st8" d="M201.3,805.8c-16.3-32.4,20-80.4,32-93.9c12.1-13.5,17.7-38.9,12.1-45.8c-5.6-6.9-9.8-0.1-11.4,12.3
				c-1.6,12.4-7.7,29.4-7.7,29.4s-3.1,4.9-9.1,9.9c-6,5-24.3,22.4-27.1,43.5c-2.7,21.1,3.7,46.9,3.7,46.9"/>
			<path class="st8" d="M233.4,711.9c0,0,19.7-6,20.9-34.3c0,0-0.6-9.4-5.7-16.2c-5.1-6.7-7.1-31.6,6.4-31.5
				c13.5,0,4.2,22.4,8.9,28.6"/>
			<path class="st8" d="M208.2,802.9c0,0-4.4-17.4,2.3-35.8c6.7-18.4,17.6-36.4,29.8-46.6c12.3-10.2,22.3-24.1,20.1-42.4
				c-2.2-18.4,5.9-20.8,5.9-20.8s11-7.3,16.8,16.1c0,0,1.5,8.8-0.2,12.9"/>
			<path class="st8" d="M226.8,821.2c0,0-17.8-12.3-8.6-46.3c9.2-34,40-42,50.2-57"/>
			<path class="st8" d="M278.8,662.2c0,0,2.8-12.8,15.3-2.7"/>
			<path class="st8" d="M237.7,820.5c0,0-29.3-40.5,5.2-81.2"/>
			<path class="st8" d="M247.4,820c0,0-5.3-29.6-1.6-55.7c3.8-26.1,13.7-25.9,15.7-39.2"/>
			<path class="st8" d="M255.2,823.6c0,0-10.9-49.2,17.3-82.4"/>
			<path class="st8" d="M258.8,822.5c0,0-4-4.2-1.4-15.5c2.7-11.3,14.1-22.3,16.8-37.6c2.7-15.3-7.4-35.8-5.6-55.2
				c1.9-19.5,20.4-37.6,28.5-32.6c8.1,5,1.6,19.9-3.5,26.4c-5.2,6.5-11.5,15.2-9.3,50.6c2.1,35.4-17.3,38-17.8,51.9
				c0,0-0.6,8.3,1.1,12.8"/>
			<path class="st8" d="M298.4,682.6c0,0,1.4-6.4-1.7-11.7c-3.1-5.3-4.6-24.9-1.4-30.4c3.2-5.5,7.3-8.1,13.1-8.3
				c5.8-0.2,8.7,1.7,8.9,6.4c0.2,4.7-7.6,17.4-7.4,24.8c0.2,7.4,5.2,24.9,2.1,37.1c-3.1,12.2-26.1,37.1-28.2,47.7"/>
			<path class="st8" d="M279.1,819.3c0,0-2.2-7.4,3.2-15.9c5.4-8.5,10.7-16,12.8-25.9s4.6-35-4.9-42.2"/>
			<path class="st8" d="M288.8,818c0,0-1-8.5,2.8-16.9c3.9-8.4,20.6-28.8,19.3-49.4s-13.7-26.3-13.7-26.3"/>
			<path class="st8" d="M312.2,680.5c0,0,7-15,14.6-6.1c0,0,4.7,5.5,2.3,12.1"/>
			<path class="st8" d="M305.5,713.4c0,0,3.2,14.7,6.7,23.4c3.5,8.8,7.8,24.2-8.1,60.1"/>
			<path class="st8" d="M294.2,816.9c0,0-0.9-8.3,9.4-19.1c10.3-10.8,21.7-36.2,15-60.5c-6.8-24.3,0.1-38.7,9-49.7
				s8.6-22.1,8.5-25.9c-0.1-3.7,8.5-16.4,14.5-6c6,10.4,4.2,22.3-4.7,39.5c-8.9,17.1-19.3,23.7-15.2,53.2
				c4.1,29.5-19.6,48.5-24.5,65.3"/>
			<path class="st8" d="M346.7,693.5c0,0,7.8-0.7,8.1,5.6"/>
			<path class="st8" d="M353.9,741.7c0,0-10.7,6.9-11.5,17.9s8.9,26.8,9.1,36.1c0.1,9.3-2.1,18.2-6,22.5"/>
			<path class="st8" d="M346.9,780.9c0,0-25.2,17-26.6,40.4"/>
			<path class="st8" d="M350.6,790.3c0,0-13.1,10.2-14.1,28.6"/>
			<path class="st8" d="M374.3,818.1c0,0,10.7-25.1,12.1-39.4c1.3-14.3-21.6-35.9-20.6-52.4c1-16.5,10-34.7,2.4-37.3
				c-7.6-2.6-21.4,20.7-20.9,29.6c0,0-2,14.6,18.8,41.5s2.9,48.9-5,57.2"/>
			<path class="st8" d="M364.3,757.9c0,0-5.3,6.6-5,16.1s3.6,20.1,2.8,26.7c-0.7,6.6-3.3,15.1-4.6,17.4"/>
			<path class="st8" d="M372.6,771.1c0,0-9,7.6-1.4,29.5"/>
			<path class="st8" d="M359.2,693.7c0,0-6.3-15.4-1-22.1c5.3-6.7,8.5-4.7,8.5-4.7"/>
			<path class="st8" d="M380.1,760.1c0,0,1.5-9.2,4.6-14.8s5.2-18.9,3.9-25.8c-1.3-6.9-2-10.5-4.7-17.5c-2.7-7-19.1-25.1-16.5-36.8
				s16.9-27.9,24.7-20.6c7.9,7.4,4.1,16.9,1.4,23.9"/>
			<path class="st8" d="M409,737c0,0-15.9,21.7-13,43.9"/>
			<path class="st8" d="M381.9,797.6c0,0,6.7,4.9-3.5,24"/>
			<path class="st8" d="M400.2,817.5c0,0-5.9-15.6,6.4-31.6c12.3-15.9,16.8-35.7,16.8-35.7c3.3-30.8-2-45.6-11.4-63.7
				c-9.4-18.1-23.5-21.6-29-14.8c-5.5,6.8,4.2,19.1,4.2,19.1s28.5,35.4,22.4,60.5c-6.1,25.1-14.5,27.3-16.7,34.3
				c-2.3,7.1-0.5,24-0.5,24"/>
			<path class="st8" d="M408.8,782.9c0,0,3.6,10.5,3.4,18.1"/>
			<path class="st8" d="M423.9,722.7c0,0,18.3-24.8,23-8.8c4.7,15.9-16.9,28.8-22.9,29.9"/>
		</g>
	</g>
	<polyline class="st8" points="709.8,554.8 699.9,562.5 692.6,575.6 701.2,578.8 696.2,591 699.9,595.7 	"/>
	<path class="st8" d="M489,524.3l-8.8,7l11.7-0.8l-6.5,11.9c0,0-0.2,7.9,5.8,8"/>
	<g>
		<path d="M541.5,588.6c0,0-1.7-4.5,2.5-5.8c4.2-1.2,4.3,4.3,8,4.6c3.8,0.3,5.3-3.5,4.3-6.6c-1-3.1,2.2-7.7,7.2-8.5
			c5-0.8,8.5,4.5,7.3,8.2c-1.2,3.7,0.7,7.2,3.1,6.6c2.4-0.7,3-3.9,1.3-8c-1.7-4.1-2.1-10.8,0.7-13.6c2.8-2.9,7.4-8,19.6-3
			c12.2,5,12.9,17.7,9.9,23.2s-6.5,7.5-13.8,6.8c-7.3-0.7-7.2,2-6.2,3.4c1,1.4,2.4,3.4,8.9,0c6.5-3.4,7.1,6.6,10.5,6.6
			s3.4-3.4,3.1-4.9c-0.3-1.5-2.1-5.3,1.1-5.9c3.2-0.6,3.5,0.4,4.4,1.4c0,0-5.5-3.4-2.7,5.9c2.8,9.3-7.2,10.3-9.9,7.4
			c0,0-1.3-1.3-1.1-0.6c0.2,0.7,1.9,5.8-1.7,9.3c-3.6,3.5-5.2-0.7-7,2.3c-1.7,3,2.5,3.7-1.1,7.8c-3.5,4.1-6.5-0.6-7.2-1
			c-0.6-0.4,5.2,2.1,5.2-0.7c-0.1-2.8-3.5-8.4-0.6-9.7c2.9-1.3,7.8-2.4,8.1-5.9c0.3-3.5-3.7-4.9-4.4-4.2c-0.7,0.8-4.8,0-4.8,0
			s-0.4-0.1-0.6,1.7s-1.2,7.3-6.9,7.4c-5.7,0.1-6,2.3-2.7,2.8c3.3,0.5,5.5,0.1,5.2,3c-0.3,3-2,5.5-5.7,4.7c-3.7-0.8,0.7-0.9,0.7-0.9
			s3-1.6,2.1-2.8c-0.9-1.1-1.1-1.5-2.5-1.7c-1.4-0.2-6.5-0.2-7.1-4.3s4.6-4.9,4.6-4.9s3.8-0.3,4.4-3.4c0.6-3,1.8-4.8-2.6-7.1
			c-4.4-2.3-5.2,2.3-5.3,3.9s-0.4,3.3-2.8,4.2c-2.4,0.9-6.1,0.3-6.1,2.7c0,2.4,4.4,3.5,1.4,6.4l-1.2,0.1c0,0,1.3-1.5,0.9-1.8
			c-0.4-0.3-3.5-1.8-3.4-2.4s-3-3.1,0.7-6c0,0,3.9-1,5-4.5c1.2-3.5,0.6-4.1,2-5.4c0,0-2.5-0.7-6.2,4c0,0-4,3.2-8-1.2
			c-4-4.3-7.3-1.5-7.6,0.4c0,0-0.7-3.1,2.8-4.5c3.4-1.4,5.8,2.9,8.5,2.9c2.8,0.1,3.9-3.2,4.9-4.7s3.3-4.2,4.6-4.5
			c0,0-0.1-1.4,0.1-2.2c0.1-0.8,1.9-4.1,0.5-5.5c-1.4-1.5-1.4-1.8-3.2-1.7s-3.4,2.2-3.7,4.7c-0.4,2.5-1.2,7-5.4,7.7s-5-3.7-7.3-4.9
			C544.3,584.7,541.5,583.2,541.5,588.6z"/>
		<g>
			<path class="st34" d="M610.4,602.8c0.7-1.8,0.5-3.7,0.1-5.6c-0.3-1.3-1-2.9,0.1-4.1c0.5-0.5,1.2-0.6,1.8-0.5
				c0.3,0.1,0.8,0.2,1.1,0.5c0.2,0.1,0.4,0.3,0.5,0.5c0-0.6-0.5-1.1-1-1.4c-0.6-0.5-1.3-0.8-2.1-0.8c-1.4-0.1-2.9,0.6-3.4,2
				c-0.4,1.2,0.2,2.6,0.4,3.8c0.3,1.3,0.1,2.7-0.6,3.9c-0.7,1.2-2,2-3.4,1.6c-1-0.3-1.5-1.1-1.8-2.1c-0.3-0.9-0.5-1.7-1-2.5
				c-0.8-1.3-2.4-2.4-3.9-2.5c-1.4-0.1-2.7,0.4-3.9,1c-0.9,0.4-1.8,0.8-2.7,1.1c-1.1,0.3-2.3,0.5-3.4,0.1c-1-0.4-2.1-1.2-1.6-2.4
				c0.5-1.2,2.2-1.9,3.4-2.2c2.3-0.7,4.7-0.3,7-0.6c2.3-0.3,4.6-1,6.4-2.6c1.9-1.7,3.4-4.3,4.1-6.9c0.2-0.6,0.3-1.1,0.4-1.7
				c0.4-3,0-6.2-1.3-8.9c-0.7-1.5-1.6-3-2.7-4.3c-5.1-6-15-9.8-22.6-6.2c-4.5,2.1-6.2,6.6-5.9,11.3c0.1,2,0.4,4.1,1,6
				c0.3,1.1,0.9,4.1,0.9,4.1c0.1,0.6,0,1.2-0.1,1.7c-0.2,0.6-0.5,1.1-0.9,1.5c0.1-0.2,0.2-0.4,0.3-0.5c-0.3,0.5-0.8,1-1.5,1.2
				c-0.8,0.3-1.5-0.2-2.1-0.7c-0.7-0.6-1.1-1.5-1.3-2.4c-0.2-1.2,0-2.3,0.3-3.4c0.1-0.4,0.1-0.9,0.2-1.3c0.1-1.4,0-2.7-0.8-3.8
				c-0.8-1.2-2.1-2.1-3.4-2.6c-2.3-0.9-4.9-0.6-6.9,0.8c-1.5,1-2.7,2.5-3.3,4.2c-0.2,1.2-0.2,2.4-0.1,3.6c0.1,1.5,0.2,2.9-0.6,4.2
				c-0.5,0.7-1.3,1.5-2.2,1.8c-0.3,0.1-0.7,0.2-1,0.2c0,0-0.1,0-0.1,0c-0.1,0-0.3,0-0.4-0.1c-0.1,0-0.1,0-0.1,0
				c-0.8-0.1-1.4-0.6-2-1.1c-1.3-1.2-2.1-3.1-4-3.6c-1.5-0.4-3.3,0.2-4.2,1.5c-0.8,1.2-0.8,3-0.2,4.3c-0.1-0.6-0.1-1.3,0.1-1.8
				c0-0.1,0-0.2,0.1-0.3c0,0,0-0.1,0-0.1c0-0.2,0.1-0.3,0.2-0.5c0.4-0.8,1.3-1.3,2.3-1.2c2,0.3,3.1,2.1,4.3,3.4
				c1,1.2,2.2,2.3,3.7,2.6c1.7,0.4,3.4-0.5,4.6-1.6c1.3-1.2,1.9-3,2.2-4.7c0.1-1,0.1-1.9,0.3-2.9c0.3-1.1,0.9-2,1.8-2.7
				c1.5-1.1,3.4,0,4.4,1.2c0.6,0.6,0.9,1.4,1,2.2c0.1,1.1-0.5,2-0.9,2.9c-0.4,0.8-0.6,1.8-0.2,2.6c0.1,0.1,0.2,0.3,0.3,0.4
				c-0.4,0-0.9,0.1-1.3,0.2c-0.7,0.3-1.3,0.8-1.8,1.4c-0.6,0.6-1.1,1.4-1.6,2.1c-0.6,0.9-1,2-1.6,2.9c-0.4,0.7-0.9,1.4-1.6,1.9
				c-0.6,0.4-1.3,0.4-2,0.3c-2-0.4-3.3-2.2-5.2-3c-1.5-0.6-3.4-0.3-4.6,0.7c-1.2,0.9-2.2,2.5-1.7,4.1c0,0,0,0.1,0.1,0.1
				c0-0.1,0.1-0.3,0.1-0.4c0.1-0.3,0.3-0.7,0.5-1c0.4-0.6,0.8-1.1,1.5-1.4c0.6-0.4,1.4-0.5,2.1-0.3c1.8,0.4,2.9,1.8,4.2,2.9
				c1.3,1.1,2.8,2.1,4.5,1.8c1.7-0.2,2.9-1.3,4-2.5c0.9-1,1.9-2.1,3.1-2.6c0.6-0.3,1.2-0.3,1.8-0.2c0.1,0,0.2,0,0.2,0.1c0,0,0,0,0,0
				c-0.3,0.4-0.7,0.6-1,0.9c-0.3,0.3-0.4,0.9-0.5,1.3c-0.3,1-0.4,2.1-0.7,3.1c-0.3,1-0.8,2-1.5,2.7c-0.8,0.8-1.9,1.1-2.9,1.5
				c-0.8,0.3-1.5,0.7-2,1.3c-0.5,0.7-0.6,1.6-0.5,2.5c0.2,1.6,1.4,3,2.8,3.7c0.2,0.1,0.4,0.2,0.6,0.3c0,0,0,0,0,0
				c0.1,0,0.3,0.1,0.4,0.1c0.6,0.2,0.9,0.9,0.6,1.5c-0.2,0.5-0.7,0.8-1.2,0.7c0,0,0,0,0,0c0,0,0,0,0,0c0.7,0.8,2,0,2.4-0.7
				c0.6-1.2-0.2-2.5-1.1-3.3c-0.5-0.7-1.2-1.3-1.1-2.2c0.1-0.9,0.7-1.6,1.6-1.9c1.5-0.5,3.1-0.3,4.5-0.9c1.6-0.6,2.7-2.1,2.9-3.8
				c0.1-1,0-2,0.4-3c0.4-0.9,1.2-1.4,2.1-1.7c1.2-0.3,2.5,0.2,3.6,0.8c1.8,0.8,2.5,2.3,2.3,4.2c-0.1,0.6-0.2,1.3-0.4,1.9
				c-0.3,0.9-0.8,1.9-1.5,2.7c-0.4,0.4-0.9,0.6-1.5,0.9c-0.9,0.3-1.8,0.4-2.7,0.6c-0.8,0.2-1.6,0.5-2.3,1c-0.6,0.5-1,1.2-1.2,1.9
				c-0.8,2.6,1.3,5.2,3.8,5.8c0.5,0.1,1.1,0.2,1.6,0.2c0.7,0,1.4,0.1,2,0.3c0.6,0.2,1.3,0.4,1.7,1c0.5,0.6,0.5,1.2,0.1,1.9
				c-0.6,1.1-1.7,1.7-3,1.7c-0.3,0-0.5,0-0.8-0.1c-0.3,0-0.5-0.1-0.8-0.2c0.3,0.3,0.7,0.5,1,0.7c0.8,0.4,1.8,0.6,2.7,0.4
				c1.4-0.3,2.6-1.3,3.3-2.6c0.7-1.2,1-2.8,0-3.9c-0.9-1-2.4-1.3-3.7-1.3c-0.8,0-1.6,0-2.3-0.3c-0.4-0.2-0.6-0.5-0.7-0.9
				c-0.1-0.6,0.2-1,0.7-1.2c0.8-0.3,1.7-0.3,2.5-0.3c0.8,0,1.7-0.1,2.5-0.2c1.6-0.2,3-0.9,4.1-2c1.3-1.4,2-3.4,2-5.3
				c0-0.5-0.1-1-0.2-1.5c0.5-0.1,1-0.1,1.5-0.2c1.7-0.3,3.4-0.2,5,0.3c1.6,0.5,3.8,1.9,3.5,3.9c-0.3,1.9-1.7,3.3-3.4,4
				c-1.5,0.6-3.3,0.8-4.6,1.9c-0.6,0.5-1,1.1-1.2,1.8c-0.2,0.8,0,1.5,0.3,2.2c0.4,0.8,0.9,1.6,1.2,2.4c0.4,0.9,0.6,2,0.4,3
				c-0.5,2.2-3.6,1.7-5,0.8c-0.1,0-0.1-0.1-0.2-0.1c0,0,0,0,0,0c-0.2-0.1-0.4-0.2-0.5-0.4c0,0,0,0,0,0l0,0c0,0,0,0,0,0.1
				c0.1,0.1,0.2,0.3,0.2,0.5c1.1,1.9,3.6,3.1,5.7,2.4c1.5-0.5,2.5-2.1,2.8-3.6c0.2-0.9,0.2-1.9,0-2.8c-0.2-0.9-0.8-1.8-0.1-2.6
				c0.6-0.7,1.6-0.8,2.5-0.8c0.9,0,1.7-0.1,2.5-0.3c1.7-0.5,3-2,3.7-3.6c0.8-1.7,0.6-3.6,0.3-5.5c-0.1-0.6-0.3-1.2-0.5-1.9
				c0.5,0.6,1.1,1.1,1.8,1.4c0.1,0.1,0.3,0.1,0.4,0.2c0,0,0,0,0.1,0c1.5,0.8,3.5,1.1,5.1,0.4c0.9-0.4,1.6-1.1,2.1-1.8
				C609.6,604.6,610,603.7,610.4,602.8z"/>
			<path class="st34" d="M566.8,595.4c0,0,4.4,0.2,9.4,3.1"/>
			<path class="st34" d="M565.8,588.2c0,0,5.8,1.4,8.9-1.6"/>
			<path class="st34" d="M599.6,605.2c0,0-3-3.4-14-1.4"/>
			<circle class="st34" cx="582.8" cy="568.3" r="2.1"/>
			<path class="st35" d="M603,575.5c0,0,1.9,11.7-6.7,14"/>
			<path class="st36" d="M600.9,576.3c0,0,1.4,8.8-5,10.5"/>
			<path class="st37" d="M597.8,577.6c0,0,0.8,4.9-2.8,5.8"/>
		</g>
	</g>
	<linearGradient id="SVGID_9_" gradientUnits="userSpaceOnUse" x1="467.7825" y1="168.4767" x2="467.7825" y2="708.4495">
		<stop  offset="0" style="stop-color:#00CED1"/>
		<stop  offset="1" style="stop-color:#00CED1;stop-opacity:0"/>
	</linearGradient>
	<path class="st38" d="M451.8,168.5l-173.4,540h378.8l-175-540v0c-8.6,6.6-20.4,6.9-29.3,0.8L451.8,168.5z"/>
</g>
</svg>
