<?xml version="1.0" encoding="utf-8"?>
<!-- Generator: Adobe Illustrator 23.1.0, SVG Export Plug-In . SVG Version: 6.00 Build 0)  -->
<svg version="1.1" id="Layer_1" xmlns="http://www.w3.org/2000/svg" xmlns:xlink="http://www.w3.org/1999/xlink" x="0px" y="0px"
     viewBox="0 0 100 100" style="enable-background:new 0 0 100 100;" xml:space="preserve">
<style type="text/css">
    .st0{opacity:0.3;fill:#00CED1;}
    .st1{opacity:0.7;}
    .st2{fill:#00CED1;}
</style>
<g>
    <circle class="st0" cx="50" cy="50" r="35"/>
    <g class="st1">
        <path class="st2" d="M65.2,39.9l0.2-0.1c1.5-1,2.5-2.3,3-3.9c-1.6,0.8-2.9,1.3-4,1.6l-0.7,0.2c0-0.1-0.3-0.3-1-0.9
            c-1.2-0.9-2.6-1.4-4.1-1.5h-0.7c-2.3,0.2-4.1,1.1-5.5,2.8c-1.1,1.4-1.7,2.9-1.7,4.5c0,0.6,0.1,1.2,0.2,1.9
            c-6.1-0.4-11.3-3-15.3-7.8c-0.7,1.1-1.1,2.3-1.1,3.6c0,0.7,0.1,1.5,0.4,2.3c0.5,1.6,1.5,3,2.9,4.1c-1.1,0-2.2-0.3-3.3-0.9
            c0.2,3.9,2.2,6.4,5.9,7.4c-0.5,0.2-1.1,0.3-1.7,0.3c-0.5,0-1-0.1-1.6-0.2c1.1,3.2,3.4,4.9,6.9,5.2c0,0.1-0.1,0.2-0.4,0.4
            c-2.6,1.9-5.5,2.8-8.7,2.8c-0.6,0-1.2,0-1.8-0.1c3.5,2.2,7.2,3.3,11.1,3.3c4.3,0,8.1-1,11.5-3c2.9-1.8,5.2-4.3,7.1-7.5
            c1.9-3.3,2.9-6.9,2.9-10.7v-0.9c0,0,0.3-0.3,1-0.9c1.1-1,2-2,2.7-3C68,39.4,66.6,39.7,65.2,39.9z"/>
    </g>
</g>
</svg>
